<svg width="480" height="312" viewBox="0 0 480 312" fill="none" xmlns="http://www.w3.org/2000/svg">
<path opacity="0.62" d="M463.511 166.299C457.93 175.49 455.722 186.337 457.268 196.978C463.205 238.045 446.29 278.969 414.778 301.997C411.496 304.396 408.069 306.589 404.516 308.563H302.05C299.772 308.434 297.489 308.434 295.211 308.563H57.5027C54.1775 306.551 50.9649 304.359 47.8791 301.997C9.37166 272.507 -8.48498 217.472 9.33905 166.517C14.7043 151.022 23.2819 136.834 34.5102 124.884C44.1151 114.64 51.0215 102.168 54.6075 88.5907L54.6693 88.366C71.2786 26.8433 131.166 -8.5735 188.449 9.25379C194.53 11.1464 200.424 13.5926 206.058 16.5618C212.88 20.1813 220.477 22.0956 228.199 22.1409C235.922 22.1863 243.541 20.3614 250.405 16.8223C256.399 13.7599 262.698 11.3367 269.199 9.5925C283.349 5.77301 298.202 5.36555 312.54 8.40373C324.247 10.8824 336.417 9.99379 347.641 5.84073L348.419 5.55738C400.745 -13.2176 457.337 17.122 474.819 73.3167C479.635 88.7309 481.118 104.993 479.169 121.025C477.219 137.056 471.882 152.489 463.511 166.299Z" fill="#DEDFE0"/>
<path d="M410.263 264.41C408.468 264.306 406.941 264.137 405.824 264.026C404.58 263.902 403.844 263.85 403.818 264.026L406.267 299.879L406.593 304.471H272.057L272.272 299.879L273.94 264.264C273.939 264.244 273.933 264.225 273.924 264.208C273.915 264.191 273.903 264.176 273.888 264.163C272.657 263.674 271.372 263.332 270.061 263.143C261.919 261.255 243.802 255.696 244.658 229.756C244.792 212.795 246.345 195.875 249.299 179.172C249.516 178.13 249.745 177.101 249.986 176.085C250.061 175.759 250.136 175.453 250.214 175.141C250.401 174.372 250.596 173.612 250.8 172.861C250.974 172.21 251.152 171.571 251.335 170.946C251.517 170.321 251.706 169.693 251.902 169.064V169.037C252.022 168.66 252.143 168.279 252.267 167.904C252.39 167.53 252.504 167.184 252.624 166.829C254.836 159.437 258.523 152.571 263.463 146.643C268.403 140.716 274.492 135.852 281.365 132.344C282.461 131.771 283.591 131.22 284.755 130.69C297.316 125.42 310.688 122.346 324.289 121.6C331.128 121.034 338.582 120.763 346.685 120.796C350.921 120.811 354.954 120.926 358.784 121.141H358.803C371.599 121.795 384.208 124.483 396.158 129.104C401.155 130.989 405.892 133.506 410.25 136.594C420.836 144.178 428.439 155.223 431.744 167.82C432.05 168.827 432.343 169.848 432.623 170.884C433.081 172.571 433.507 174.296 433.9 176.059C434.128 177.081 434.345 178.116 434.551 179.163C437.401 193.245 438.678 209.466 440.459 227.362C444.038 263.18 421.7 265.081 410.263 264.41Z" fill="#4E9C0B"/>
<path d="M305.796 210.587C305.796 210.587 300.943 199.885 296.654 197.742C292.365 195.6 279.355 187.575 276 188.822C273.121 189.894 274.984 192.746 274.984 192.746C274.984 192.746 265.842 188.822 264.377 191.675C262.989 194.375 267.536 196.85 267.536 196.85C267.536 196.85 265.455 196.078 264.462 198.693C263.468 201.309 271.372 205.591 271.372 205.591C271.372 205.591 268.802 205.621 268.213 206.663C266.689 209.34 275.89 213.205 275.89 213.205L305.796 210.587Z" fill="#D8A77D"/>
<path d="M333.322 243.82L331.957 259.824L305.793 253.516L333.322 243.82Z" fill="#D8A77D"/>
<path d="M274.381 213.269L274.328 212.361L364.539 206.668L364.592 207.577L274.381 213.269Z" fill="white"/>
<path d="M282.605 262.422L282.328 261.559L369.719 230.359L369.996 231.222L282.605 262.422Z" fill="white"/>
<path d="M331.948 260.086L331.906 260.98L404.025 264.366L404.067 263.472L331.948 260.086Z" fill="white"/>
<path d="M364.199 207.121C364.199 207.121 379.639 207.828 386.328 208.326C394.493 208.935 401.43 210.443 402.486 210.124C403.169 213.479 403.788 224.405 403.788 224.405C403.788 224.405 400.857 226.717 377.93 229.703C373.067 230.339 369.762 230.791 369.762 230.791L364.199 207.121Z" fill="#D8A77D"/>
<path d="M294.861 204.593C294.842 204.574 292.859 202.639 290.133 200.444C285.405 197.663 280.49 195.214 275.422 193.116L275.712 192.367C280.847 194.483 285.822 196.968 290.598 199.802C293.356 202.017 295.366 203.984 295.385 204.003L294.861 204.593Z" fill="#A1542E"/>
<path d="M289.843 208.074C287.86 206.109 285.718 204.31 283.438 202.697C278.212 200.579 272.869 198.758 267.438 197.243L267.643 196.461C273.14 197.986 278.543 199.834 283.822 201.997C286.156 203.635 288.346 205.47 290.368 207.481L289.843 208.074Z" fill="#A1542E"/>
<path d="M283.661 211.305C283.635 211.285 280.997 209.201 279.687 208.093C277.215 206.991 274.606 206.225 271.93 205.814L272.066 205.016C274.868 205.454 277.595 206.278 280.169 207.465C281.472 208.562 284.101 210.64 284.123 210.66L283.661 211.305Z" fill="#A1542E"/>
<path d="M403.419 224.672L400.602 191.796L401.461 191.715L404.278 224.591L403.419 224.672Z" fill="white"/>
<path d="M358.994 119.629V91.6016H325.205V119.192C325.189 119.263 325.18 119.335 325.176 119.407C325.176 141.941 359.443 140.156 358.994 119.629Z" fill="#D8A77D"/>
<path d="M376.514 63.3046C376.514 86.5706 363.891 114.836 342.497 114.816C319.804 114.797 308.48 86.5706 308.48 63.3046C308.48 40.0386 323.712 21.1758 342.497 21.1758C361.282 21.1758 376.514 40.0321 376.514 63.3046Z" fill="#D8A77D"/>
<path d="M342.493 114.345C338.11 114.247 333.82 113.054 330.017 110.873C328.19 109.886 326.472 108.71 324.891 107.366L325.411 106.789C326.956 108.096 328.632 109.241 330.411 110.206C334.094 112.316 338.246 113.473 342.49 113.57L342.493 114.345Z" fill="#A1542E"/>
<path d="M314.701 82.5061C318.433 81.2821 319.877 75.4655 317.926 69.5145C315.974 63.5634 311.366 59.7315 307.634 60.9555C303.901 62.1796 302.457 67.9961 304.409 73.9472C306.36 79.8982 310.968 83.7302 314.701 82.5061Z" fill="#D8A77D"/>
<path d="M381.883 73.798C383.834 67.847 382.39 62.0304 378.658 60.8064C374.925 59.5823 370.317 63.4143 368.366 69.3653C366.414 75.3164 367.858 81.1329 371.591 82.357C375.323 83.581 379.931 79.7491 381.883 73.798Z" fill="#D8A77D"/>
<path d="M345.945 90.2864C344.343 90.2864 342.919 90.1756 342.828 90.1691L342.893 89.0294C344.678 89.1651 346.47 89.1651 348.254 89.0294C348.387 88.7037 348.638 86.948 346.169 77.7119C344.779 72.5012 343.199 67.4731 343.183 67.421L344.092 67.0234C344.092 67.0723 345.671 72.0554 347.062 77.2563C349.938 88.0035 349.292 89.2182 349.051 89.6742C348.992 89.8032 348.902 89.915 348.788 89.9998C348.674 90.0846 348.541 90.1394 348.4 90.1592C347.585 90.2469 346.765 90.2895 345.945 90.2864Z" fill="#160707"/>
<path d="M327.188 77.7998C328.841 77.7998 330.181 75.7643 330.181 73.2534C330.181 70.7425 328.841 68.707 327.188 68.707C325.535 68.707 324.195 70.7425 324.195 73.2534C324.195 75.7643 325.535 77.7998 327.188 77.7998Z" fill="#160707"/>
<path d="M359.614 78.1474C361.267 78.1474 362.607 76.112 362.607 73.6011C362.607 71.0902 361.267 69.0547 359.614 69.0547C357.961 69.0547 356.621 71.0902 356.621 73.6011C356.621 76.112 357.961 78.1474 359.614 78.1474Z" fill="#160707"/>
<path d="M338.653 53.6201C338.256 53.5485 337.871 53.4704 337.507 53.389L337.211 54.1477C337.618 54.2389 338.041 54.3269 338.487 54.4083C342.925 55.2997 347.515 55.0668 351.84 53.7309L351.582 52.9688C347.394 54.2587 342.95 54.4826 338.653 53.6201Z" fill="#A1542E"/>
<path d="M337.018 58.6785C336.523 58.5808 336.049 58.481 335.595 58.3789L335.012 59.141C335.513 59.2561 336.04 59.3646 336.592 59.4666C342.347 60.6353 348.276 60.653 354.038 59.5187L353.904 58.7242C348.327 59.8211 342.589 59.8055 337.018 58.6785Z" fill="#A1542E"/>
<path d="M328.104 39.2474L312.257 69.1604L308.632 60.6312C307.786 53.5357 307.607 46.3763 308.098 39.2474C309.778 30.7018 313.911 24.1787 322.18 22.7066C330.449 21.2346 328.104 39.2474 328.104 39.2474Z" fill="#160707"/>
<path d="M363.922 57.5508C363.922 57.5906 363.938 57.5873 363.922 57.5508V57.5508Z" fill="#160707"/>
<path d="M379.497 46.5924C379.753 43.7379 379.066 40.8781 377.543 38.4506C377.526 38.3203 377.507 38.1933 377.491 38.063C378.38 39.0382 378.991 40.2335 379.262 41.5248C379.263 41.3426 379.278 41.1608 379.308 40.981C379.449 36.6689 377.885 32.475 374.954 29.309C374.272 27.9415 373.363 26.7003 372.264 25.6386C366.319 19.7821 358.617 16.0375 350.339 14.9793C335.778 13.9372 331.183 16.1615 327.868 20.8414C323.309 27.2832 326.478 32.1944 327.351 36.5454C327.691 38.256 328.543 39.823 329.793 41.0396C332.483 43.6759 335.732 45.6719 339.299 46.879C342.028 47.7746 344.321 48.5887 347.741 49.4029C350.376 50.4678 353.544 51.6827 357.351 53.1058C362.588 55.0403 363.815 57.2645 363.946 57.5381C363.883 57.3677 363.835 57.1925 363.803 57.0139C363.331 55.0179 362.336 53.1834 360.92 51.6989C369.16 53.1775 376.878 61.4854 376.927 60.7982C377.673 55.2513 378.024 49.6584 377.979 44.0618C378.719 44.9435 379.224 45.9977 379.448 47.1265C379.451 46.9475 379.468 46.769 379.497 46.5924Z" fill="#160707"/>
<path d="M315.539 69.4961V70.3103C316.837 70.6651 318.079 71.1965 319.232 71.8897L319.408 71.1312C318.202 70.4065 316.899 69.8559 315.539 69.4961Z" fill="#A1542E"/>
<path d="M315.398 74.5597L315.669 75.2633C316.835 74.6128 318.087 74.1292 319.388 73.827L319.287 73.0391C317.925 73.3569 316.615 73.8688 315.398 74.5597Z" fill="#A1542E"/>
<path d="M370.729 70.4922V71.3064C369.431 71.6609 368.189 72.1923 367.036 72.8858L366.859 72.1269C368.066 71.4035 369.369 70.8533 370.729 70.4922Z" fill="#A1542E"/>
<path d="M370.86 75.5445L370.586 76.2481C369.42 75.5969 368.168 75.1132 366.867 74.8118L366.968 74.0234C368.331 74.3419 369.642 74.8542 370.86 75.5445Z" fill="#A1542E"/>
<path d="M340.679 100.207C340.189 100.077 339.715 99.8943 339.265 99.6625C337.4 98.5878 335.992 96.8696 335.305 94.8299L336.197 94.6406L335.842 94.7384L336.474 94.6474C336.706 95.4667 337.106 96.2286 337.648 96.8852C338.19 97.5417 338.862 98.0786 339.623 98.4611C340.744 98.9653 341.96 99.226 343.19 99.226C344.419 99.226 345.634 98.9653 346.756 98.4611L346.997 99.6104C345.002 100.456 342.796 100.664 340.679 100.207Z" fill="#160707"/>
<path d="M367.593 68.3627C363.544 66.7892 359.235 65.9926 354.892 66.0146L354.645 64.1842C357.25 63.973 359.873 64.2097 362.398 64.8843C364.313 65.2561 366.173 65.8679 367.935 66.7049L367.593 68.3627Z" fill="#160707"/>
<path d="M320.097 66.6842C324.347 65.786 328.728 65.6966 333.011 66.4205L333.554 64.6553C331.018 64.0247 328.392 63.834 325.79 64.0918C323.836 64.1466 321.898 64.4486 320.02 64.9907L320.097 66.6842Z" fill="#160707"/>
<path d="M311.265 77.2314C310.187 76.5149 309.266 75.5857 308.559 74.501C307.852 73.4164 307.373 72.199 307.152 70.9231C307.169 69.8356 307.449 68.768 307.966 67.8111C308.483 66.8542 309.223 66.0362 310.123 65.4258L310.647 66.077C309.85 66.6091 309.191 67.3243 308.727 68.1629C308.263 69.0015 308.008 69.9389 307.98 70.8968C308.201 72.0421 308.646 73.1325 309.29 74.1051C309.933 75.0776 310.763 75.913 311.731 76.5635L311.265 77.2314Z" fill="#A1542E"/>
<path d="M374.732 78.3994C375.811 77.6832 376.732 76.7545 377.44 75.6698C378.147 74.5851 378.625 73.3671 378.845 72.0911C378.829 71.0037 378.551 69.9364 378.034 68.9794C377.518 68.0225 376.779 67.2041 375.879 66.5938L375.354 67.2453C376.15 67.7777 376.808 68.4923 377.272 69.3301C377.736 70.1679 377.993 71.1048 378.022 72.062C377.8 73.2072 377.355 74.297 376.711 75.2695C376.067 76.2419 375.237 77.0779 374.27 77.7287L374.732 78.3994Z" fill="#A1542E"/>
<path d="M311.277 72.6432C311.277 72.9884 311.29 73.3304 311.316 73.6691C311.316 73.8775 311.352 74.0859 311.378 74.2911C311.378 74.4083 311.408 74.5257 311.428 74.6429C311.925 77.9047 313.616 80.8653 316.173 82.9513C318.729 85.0373 321.969 86.0999 325.264 85.9333C328.559 85.7666 331.675 84.3825 334.008 82.0492C336.341 79.7159 337.725 76.5997 337.892 73.3043H347.616C347.788 76.7748 349.309 80.0404 351.856 82.4044C354.403 84.7684 357.772 86.0436 361.246 85.9575C364.72 85.8715 368.022 84.4311 370.448 81.9439C372.875 79.4567 374.233 76.1195 374.233 72.6448C374.233 69.1701 372.875 65.833 370.448 63.3458C368.022 60.8585 364.72 59.4182 361.246 59.3321C357.772 59.246 354.403 60.5212 351.856 62.8852C349.309 65.2492 347.788 68.5148 347.616 71.9853H337.892C337.738 68.8595 336.489 65.8877 334.363 63.591C332.237 61.2944 329.37 59.8198 326.266 59.4261C323.161 59.0325 320.017 59.7448 317.385 61.4381C314.753 63.1315 312.802 65.6976 311.874 68.6862C311.675 69.3254 311.524 69.9787 311.424 70.6404C311.404 70.7576 311.388 70.8748 311.375 70.992C311.349 71.1972 311.329 71.4055 311.313 71.614C311.289 71.9548 311.277 72.298 311.277 72.6432ZM349.029 72.6432C349.028 70.8775 349.42 69.1337 350.178 67.5391C350.937 65.9445 352.042 64.5395 353.413 63.4267C353.67 63.215 353.931 63.0164 354.208 62.8307C355.905 61.6648 357.877 60.964 359.929 60.7985C360.255 60.7691 360.581 60.7561 360.907 60.7561C364.033 60.7506 367.034 61.9835 369.253 64.1854C369.537 64.4622 369.804 64.7553 370.058 65.0582C370.482 65.5674 370.861 66.1122 371.191 66.6866C372.709 69.3091 373.169 72.4121 372.477 75.3621C371.784 78.312 369.991 80.8865 367.465 82.5599L367.17 82.7521C365.37 83.8666 363.305 84.4802 361.188 84.5297C359.071 84.5792 356.98 84.0627 355.13 83.0336C353.28 82.0044 351.738 80.5 350.664 78.6756C349.59 76.8513 349.022 74.7732 349.02 72.6561L349.029 72.6432ZM312.825 70.9691C313.232 68.0864 314.687 65.4549 316.911 63.5765C317.165 63.3583 317.426 63.1531 317.699 62.9609C319.71 61.523 322.122 60.7519 324.594 60.7561H325.024C326.281 60.7981 327.524 61.0422 328.704 61.4791C330.942 62.3045 332.878 63.784 334.264 65.7251C335.649 67.6661 336.418 69.9791 336.472 72.3632C336.434 72.4484 336.414 72.5404 336.413 72.6335C336.414 72.7266 336.434 72.8185 336.472 72.9036C336.447 74.0176 336.266 75.1228 335.934 76.1866L335.846 76.4601C334.971 79.0254 333.248 81.2159 330.961 82.6706C329.057 83.8813 326.847 84.5231 324.591 84.5204C323.03 84.5212 321.484 84.2145 320.042 83.6174C318.599 83.0202 317.288 82.1445 316.185 81.0404C315.081 79.9364 314.206 78.6258 313.609 77.1832C313.013 75.7407 312.706 74.1946 312.707 72.6335C312.706 72.0767 312.745 71.5203 312.825 70.9691Z" fill="black"/>
<path d="M325.206 116.047L340.747 136.082L331.198 144.729L321.871 121.069V116.047H325.206Z" fill="#408802"/>
<path d="M358.96 116.066L343.422 136.102L352.967 144.748L362.294 121.004V116.066H358.96Z" fill="#408802"/>
<path d="M475.962 305.552C475.968 306.412 475.648 307.242 475.066 307.875C474.794 308.179 474.461 308.423 474.09 308.591C473.718 308.76 473.315 308.848 472.907 308.851H3.05666C2.21665 308.82 1.4234 308.457 0.850763 307.842C0.278123 307.226 -0.0271404 306.409 0.00189718 305.569C-0.00408826 304.71 0.315926 303.88 0.897475 303.247C1.16953 302.943 1.50214 302.699 1.87395 302.53C2.24577 302.362 2.64857 302.273 3.05666 302.27H472.904C473.744 302.3 474.538 302.663 475.112 303.279C475.685 303.894 475.991 304.712 475.962 305.552Z" fill="#BABBC0"/>
<path d="M299.689 296.771H48.1465C45.3467 296.932 42.597 295.979 40.4966 294.121C38.3962 292.263 37.1155 289.65 36.9336 286.851V143.148C37.1155 140.35 38.3962 137.737 40.4966 135.879C42.597 134.021 45.3467 133.068 48.1465 133.228H299.689C302.489 133.068 305.239 134.021 307.339 135.879C309.439 137.737 310.72 140.35 310.902 143.148V286.851C310.72 289.65 309.439 292.263 307.339 294.121C305.239 295.979 302.489 296.932 299.689 296.771Z" fill="#3A3C3D"/>
<path d="M320.118 311.318H24.3684C23.705 311.318 23.0688 311.055 22.5998 310.586C22.1307 310.117 21.8672 309.48 21.8672 308.817V305.645C21.8668 305.316 21.9311 304.991 22.0566 304.687C22.1821 304.383 22.3663 304.107 22.5986 303.874C22.8309 303.642 23.1067 303.457 23.4104 303.331C23.714 303.206 24.0396 303.141 24.3684 303.141H320.114C320.443 303.141 320.768 303.206 321.072 303.331C321.376 303.457 321.652 303.642 321.884 303.874C322.116 304.107 322.3 304.383 322.426 304.687C322.551 304.991 322.616 305.316 322.615 305.645V308.817C322.615 309.48 322.352 310.115 321.884 310.584C321.416 311.053 320.78 311.317 320.118 311.318Z" fill="#3A3C3D"/>
<path d="M293.297 280.697H54.5336C48.6715 280.697 43.8906 276.929 43.8906 272.284V150.447C43.8906 145.8 48.6552 142.035 54.5336 142.035H293.297C299.159 142.035 303.94 145.803 303.94 150.447V272.284C303.937 276.929 299.175 280.697 293.297 280.697Z" fill="white"/>
<path d="M317.59 307.233H26.8923C24.1176 307.233 21.8672 306.194 21.8672 304.911L36.7373 284.523H310.797L322.619 304.911C322.619 306.194 320.368 307.233 317.59 307.233Z" fill="#EAE9E8"/>
<path d="M57.224 294.059H41.6211V297.856H57.224V294.059Z" fill="#BABBC0"/>
<path d="M76.0834 294.059H60.4805V297.856H76.0834V294.059Z" fill="#BABBC0"/>
<path d="M94.7787 294.059H79.1758V297.856H94.7787V294.059Z" fill="#BABBC0"/>
<path d="M113.47 294.059H97.8672V297.856H113.47V294.059Z" fill="#BABBC0"/>
<path d="M62.7865 289.758H47.1836V292.572H62.7865V289.758Z" fill="#BABBC0"/>
<path d="M81.642 289.758H66.0391V292.572H81.642V289.758Z" fill="#BABBC0"/>
<path d="M100.341 289.758H84.7383V292.572H100.341V289.758Z" fill="#BABBC0"/>
<path d="M119.029 289.758H103.426V292.572H119.029V289.758Z" fill="#BABBC0"/>
<path d="M137.056 289.758H121.453V292.572H137.056V289.758Z" fill="#BABBC0"/>
<path d="M155.912 289.758H140.309V292.572H155.912V289.758Z" fill="#BABBC0"/>
<path d="M174.595 289.758H158.992V292.572H174.595V289.758Z" fill="#BABBC0"/>
<path d="M193.298 289.758H177.695V292.572H193.298V289.758Z" fill="#BABBC0"/>
<path d="M211.31 289.758H195.707V292.572H211.31V289.758Z" fill="#BABBC0"/>
<path d="M230.181 289.758H214.578V292.572H230.181V289.758Z" fill="#BABBC0"/>
<path d="M248.865 289.758H233.262V292.572H248.865V289.758Z" fill="#BABBC0"/>
<path d="M267.552 289.758H251.949V292.572H267.552V289.758Z" fill="#BABBC0"/>
<path d="M285.58 289.758H269.977V292.572H285.58V289.758Z" fill="#BABBC0"/>
<path d="M304.435 289.758H288.832V292.572H304.435V289.758Z" fill="#BABBC0"/>
<path d="M71.3373 285.969H55.7344V288.783H71.3373V285.969Z" fill="#BABBC0"/>
<path d="M90.1889 285.969H74.5859V288.783H90.1889V285.969Z" fill="#BABBC0"/>
<path d="M108.888 285.969H93.2852V288.783H108.888V285.969Z" fill="#BABBC0"/>
<path d="M127.576 285.969H111.973V288.783H127.576V285.969Z" fill="#BABBC0"/>
<path d="M145.603 285.969H130V288.783H145.603V285.969Z" fill="#BABBC0"/>
<path d="M164.458 285.969H148.855V288.783H164.458V285.969Z" fill="#BABBC0"/>
<path d="M183.142 285.969H167.539V288.783H183.142V285.969Z" fill="#BABBC0"/>
<path d="M201.845 285.969H186.242V288.783H201.845V285.969Z" fill="#BABBC0"/>
<path d="M219.869 285.969H204.266V288.783H219.869V285.969Z" fill="#BABBC0"/>
<path d="M238.728 285.969H223.125V288.783H238.728V285.969Z" fill="#BABBC0"/>
<path d="M257.412 285.969H241.809V288.783H257.412V285.969Z" fill="#BABBC0"/>
<path d="M276.099 285.969H260.496V288.783H276.099V285.969Z" fill="#BABBC0"/>
<path d="M294.126 285.969H278.523V288.783H294.126V285.969Z" fill="#BABBC0"/>
<path d="M230.181 294.059H214.578V297.856H230.181V294.059Z" fill="#BABBC0"/>
<path d="M249.029 294.059H233.426V297.856H249.029V294.059Z" fill="#BABBC0"/>
<path d="M271.818 295.457H256.215V297.857H271.818V295.457Z" fill="#BABBC0"/>
<path d="M290.505 294.059H274.902V297.856H290.505V294.059Z" fill="#BABBC0"/>
<path d="M309.466 295.457H293.863V297.857H309.466V295.457Z" fill="#BABBC0"/>
<path d="M210.019 294.059H116.555V297.856H210.019V294.059Z" fill="#BABBC0"/>
<path d="M214.243 306H128.848C128.667 305.999 128.493 305.927 128.365 305.798C128.237 305.67 128.165 305.497 128.164 305.316V300.965C128.164 300.784 128.236 300.61 128.364 300.482C128.493 300.353 128.666 300.281 128.848 300.281H214.243C214.424 300.281 214.598 300.353 214.726 300.482C214.854 300.61 214.926 300.784 214.926 300.965V305.316C214.925 305.497 214.853 305.67 214.725 305.798C214.597 305.927 214.424 305.999 214.243 306Z" fill="#BABBC0"/>
<path d="M195.188 271.118H55.589C54.7475 271.119 53.9141 270.953 53.1365 270.632C52.3589 270.31 51.6523 269.838 51.0571 269.243C50.4619 268.648 49.9898 267.942 49.6677 267.164C49.3455 266.387 49.1797 265.554 49.1797 264.712V155.12C49.1793 154.278 49.3447 153.445 49.6667 152.667C49.9886 151.889 50.4607 151.183 51.0559 150.587C51.6512 149.992 52.3579 149.52 53.1357 149.198C53.9135 148.876 54.7472 148.711 55.589 148.711H195.191C196.033 148.711 196.866 148.877 197.644 149.199C198.422 149.521 199.128 149.993 199.723 150.588C200.319 151.183 200.791 151.89 201.113 152.668C201.435 153.445 201.601 154.279 201.601 155.12V264.712C201.601 265.554 201.435 266.387 201.112 267.165C200.79 267.943 200.318 268.649 199.722 269.244C199.127 269.839 198.42 270.311 197.642 270.632C196.864 270.954 196.03 271.119 195.188 271.118Z" fill="#CECECE"/>
<path d="M145.888 177.676H108.537C91.7777 177.676 78.207 191.416 78.207 204.055V214.03H176.234V204.058C176.247 191.416 162.647 177.676 145.888 177.676Z" fill="white"/>
<path d="M125.379 211.904H87.6016V204.088C87.6016 200.731 88.9351 197.511 91.3091 195.137C93.6831 192.763 96.903 191.43 100.26 191.43H112.708C116.065 191.43 119.285 192.763 121.659 195.137C124.033 197.511 125.366 200.731 125.366 204.088L125.379 211.904Z" fill="#565654"/>
<path d="M166.672 211.907H128.895V205.449C128.895 203.61 129.257 201.789 129.96 200.09C130.664 198.391 131.696 196.848 132.996 195.547C134.296 194.247 135.84 193.215 137.539 192.512C139.238 191.808 141.06 191.445 142.899 191.445H152.649C154.488 191.445 156.309 191.808 158.008 192.512C159.707 193.215 161.251 194.247 162.551 195.547C163.852 196.848 164.883 198.391 165.587 200.09C166.291 201.789 166.653 203.61 166.653 205.449V211.907H166.672Z" fill="#565654"/>
<path d="M166.691 208.243H160.8C160.591 207.623 160.192 207.083 159.661 206.701C159.129 206.319 158.491 206.113 157.836 206.113H135.729C135.075 206.113 134.436 206.319 133.905 206.701C133.373 207.083 132.975 207.623 132.766 208.243H87.5885C84.0774 208.247 80.6686 209.426 77.9062 211.594H176.373C173.611 209.426 170.202 208.247 166.691 208.243Z" fill="#070604"/>
<path d="M177.29 214.83H77.1133V206.874C77.1134 202.829 78.0028 198.833 79.7186 195.17C81.4152 191.544 83.8203 188.296 86.7922 185.614C89.8585 182.832 93.4171 180.646 97.2853 179.169C101.387 177.596 105.743 176.794 110.136 176.805H144.28C148.673 176.794 153.029 177.596 157.131 179.169C161 180.645 164.559 182.831 167.624 185.614C170.596 188.295 173.002 191.544 174.698 195.17C176.413 198.833 177.303 202.829 177.303 206.874L177.29 214.83ZM79.2626 212.876H175.166V206.864C175.166 191.356 161.312 178.739 144.286 178.739H110.127C93.0971 178.739 79.2463 191.356 79.2463 206.864L79.2626 212.876Z" fill="#58B5F8"/>
<path d="M78.466 213.2L74.8835 212.223V210.947C74.8835 209.878 74.4591 208.853 73.7036 208.098C72.9481 207.342 71.9234 206.918 70.8549 206.918H66.4095C65.3126 206.918 64.2606 207.354 63.485 208.13C62.7093 208.905 62.2734 209.957 62.2734 211.054C62.2734 212.151 62.7093 213.203 63.485 213.978C64.2606 214.754 65.3126 215.19 66.4095 215.19H74.2029L80.4525 216.923L80.4883 216.789C80.5923 216.421 80.6225 216.035 80.577 215.655C80.5315 215.275 80.4113 214.907 80.2234 214.574C80.0354 214.24 79.7833 213.948 79.4817 213.712C79.1801 213.476 78.835 213.302 78.466 213.2Z" fill="#070604"/>
<path d="M174.717 213.2L178.3 212.223V210.947C178.3 209.878 178.724 208.853 179.48 208.098C180.235 207.342 181.26 206.918 182.328 206.918H186.783C187.88 206.918 188.932 207.354 189.708 208.13C190.483 208.905 190.919 209.957 190.919 211.054C190.919 212.151 190.483 213.203 189.708 213.978C188.932 214.754 187.88 215.19 186.783 215.19H178.99L172.74 216.923L172.705 216.789C172.6 216.421 172.569 216.037 172.614 215.657C172.658 215.277 172.778 214.91 172.965 214.576C173.152 214.243 173.403 213.95 173.704 213.714C174.004 213.478 174.349 213.303 174.717 213.2Z" fill="#070604"/>
<path d="M147.382 219.133C145.559 219.133 143.777 218.593 142.262 217.58C140.746 216.568 139.565 215.128 138.867 213.444C138.169 211.76 137.987 209.907 138.343 208.119C138.698 206.331 139.576 204.689 140.865 203.4C142.154 202.111 143.796 201.233 145.584 200.878C147.372 200.522 149.225 200.705 150.909 201.402C152.593 202.1 154.033 203.281 155.045 204.797C156.058 206.312 156.599 208.094 156.599 209.917C156.599 212.362 155.628 214.705 153.899 216.434C152.171 218.162 149.827 219.133 147.382 219.133ZM147.581 198.434C145.31 198.434 143.089 199.107 141.201 200.369C139.313 201.631 137.841 203.424 136.972 205.523C136.102 207.621 135.875 209.929 136.318 212.157C136.761 214.384 137.855 216.431 139.461 218.037C141.067 219.643 143.113 220.737 145.341 221.18C147.568 221.623 149.877 221.395 151.975 220.526C154.074 219.657 155.867 218.185 157.129 216.297C158.391 214.409 159.064 212.188 159.064 209.917C159.064 206.874 157.856 203.956 155.706 201.803C153.556 199.65 150.64 198.438 147.597 198.434H147.581Z" fill="#070604"/>
<path d="M85.267 266.424H74.5751C73.631 266.424 72.7257 266.048 72.0582 265.38C71.3906 264.713 71.0156 263.808 71.0156 262.864V248.935C71.0156 247.991 71.3906 247.086 72.0582 246.418C72.7257 245.751 73.631 245.375 74.5751 245.375H85.267C86.211 245.375 87.1165 245.751 87.784 246.418C88.4516 247.086 88.8266 247.991 88.8266 248.935V262.864C88.8266 263.808 88.4516 264.713 87.784 265.38C87.1165 266.048 86.211 266.424 85.267 266.424Z" fill="#080705"/>
<path d="M178.197 266.424H167.505C166.561 266.424 165.656 266.048 164.988 265.38C164.321 264.713 163.945 263.808 163.945 262.864V248.935C163.945 247.991 164.321 247.086 164.988 246.418C165.656 245.751 166.561 245.375 167.505 245.375H178.197C179.141 245.375 180.046 245.751 180.714 246.418C181.381 247.086 181.756 247.991 181.756 248.935V262.864C181.756 263.808 181.381 264.713 180.714 265.38C180.046 266.048 179.141 266.424 178.197 266.424Z" fill="#080705"/>
<path d="M177.313 255.011H77.1038C74.7225 255.011 72.4386 254.065 70.7548 252.381C69.0709 250.697 68.125 248.413 68.125 246.032V227.208C68.125 224.938 68.5722 222.689 69.4411 220.591C70.31 218.494 71.5837 216.588 73.1892 214.983C74.7947 213.377 76.7007 212.104 78.7984 211.235C80.8961 210.366 83.1444 209.918 85.415 209.918H169.002C171.273 209.918 173.521 210.366 175.618 211.235C177.716 212.104 179.622 213.377 181.228 214.983C182.833 216.588 184.107 218.494 184.976 220.591C185.845 222.689 186.292 224.938 186.292 227.208V246.032C186.292 248.413 185.346 250.697 183.662 252.381C181.978 254.065 179.694 255.011 177.313 255.011Z" fill="#58B5F8"/>
<path d="M68.1406 243.641V245.992C68.1406 248.373 69.0868 250.658 70.7706 252.341C72.4545 254.025 74.7381 254.971 77.1195 254.971H177.329C179.71 254.971 181.994 254.025 183.678 252.341C185.361 250.658 186.307 248.373 186.307 245.992V243.641H68.1406Z" fill="#2D2C2C"/>
<path d="M161.287 236.598C161.287 236.598 161.287 236.631 161.287 236.644C161.281 237.382 161.084 238.105 160.714 238.744C160.589 238.961 160.445 239.168 160.284 239.36C160.204 239.458 160.118 239.551 160.027 239.64C159.628 240.04 159.155 240.357 158.634 240.573C158.112 240.789 157.553 240.901 156.989 240.9H97.9085C97.2798 240.901 96.6588 240.764 96.0893 240.497C95.5197 240.231 95.0157 239.843 94.6128 239.36C94.4513 239.168 94.3072 238.962 94.1826 238.744C93.8143 238.105 93.6169 237.382 93.6094 236.644C93.6094 236.644 93.6094 236.614 93.6094 236.598C93.6094 236.409 93.6094 236.217 93.6094 236.028C93.6449 235.319 93.7543 234.615 93.9354 233.928C93.9918 233.711 94.0537 233.505 94.121 233.312C94.366 232.577 94.6936 231.872 95.0978 231.211C95.2281 230.994 95.3648 230.789 95.5081 230.596C96.0805 229.803 96.7627 229.096 97.534 228.495C99.331 227.095 101.545 226.337 103.823 226.34H150.993C152.904 226.337 154.777 226.87 156.399 227.88C156.704 228.069 156.999 228.274 157.282 228.495C158.053 229.096 158.735 229.803 159.307 230.596C159.451 230.798 159.587 231.003 159.718 231.211C160.122 231.872 160.45 232.577 160.695 233.312C160.763 233.514 160.825 233.72 160.88 233.928C161.061 234.615 161.171 235.319 161.206 236.028C161.281 236.21 161.287 236.406 161.287 236.598Z" fill="#2D2C2C"/>
<path d="M157.325 228.498H97.5742C97.8575 228.278 98.152 228.072 98.4568 227.883H156.427C156.737 228.072 157.037 228.278 157.325 228.498Z" fill="#595554"/>
<path d="M159.775 231.213H95.1484C95.2787 230.996 95.4154 230.791 95.5587 230.598H159.361C159.506 230.797 159.645 231.002 159.775 231.213Z" fill="#595554"/>
<path d="M160.943 233.928H93.9648C94.0202 233.719 94.0821 233.514 94.1505 233.312H160.753C160.822 233.514 160.887 233.719 160.943 233.928Z" fill="#595554"/>
<path d="M161.29 236.597C161.29 236.597 161.29 236.626 161.29 236.643H93.6094C93.6094 236.643 93.6094 236.614 93.6094 236.597C93.6094 236.405 93.6094 236.216 93.6094 236.027H161.258C161.284 236.216 161.29 236.405 161.29 236.597Z" fill="#595554"/>
<path d="M160.718 238.742C160.594 238.96 160.45 239.166 160.288 239.358H94.6133C94.4519 239.166 94.3082 238.96 94.1836 238.742H160.718Z" fill="#595554"/>
<path d="M129.682 239.091C132.483 237.931 133.814 234.719 132.653 231.917C131.493 229.116 128.281 227.785 125.479 228.946C122.677 230.106 121.347 233.318 122.507 236.12C123.668 238.921 126.88 240.252 129.682 239.091Z" fill="#595554"/>
<path d="M77.9127 251.825C79.3336 251.825 80.4855 250.673 80.4855 249.252C80.4855 247.832 79.3336 246.68 77.9127 246.68C76.4917 246.68 75.3398 247.832 75.3398 249.252C75.3398 250.673 76.4917 251.825 77.9127 251.825Z" fill="white"/>
<path d="M176.374 251.825C177.795 251.825 178.946 250.673 178.946 249.252C178.946 247.832 177.795 246.68 176.374 246.68C174.953 246.68 173.801 247.832 173.801 249.252C173.801 250.673 174.953 251.825 176.374 251.825Z" fill="white"/>
<path d="M88.0596 225.566H78.3089C77.3588 225.566 76.4475 225.189 75.7757 224.517C75.1039 223.845 74.7266 222.934 74.7266 221.984V221.567C74.7266 220.617 75.1039 219.706 75.7757 219.034C76.4475 218.362 77.3588 217.984 78.3089 217.984H88.0596C89.0097 217.984 89.9207 218.362 90.5925 219.034C91.2644 219.706 91.6419 220.617 91.6419 221.567V221.984C91.6419 222.934 91.2644 223.845 90.5925 224.517C89.9207 225.189 89.0097 225.566 88.0596 225.566Z" fill="white"/>
<path d="M175.993 225.566H166.242C165.292 225.566 164.381 225.189 163.709 224.517C163.037 223.845 162.66 222.934 162.66 221.984V221.567C162.66 220.617 163.037 219.706 163.709 219.034C164.381 218.362 165.292 217.984 166.242 217.984H175.993C176.943 217.984 177.854 218.362 178.526 219.034C179.198 219.706 179.575 220.617 179.575 221.567V221.984C179.575 222.934 179.198 223.845 178.526 224.517C177.854 225.189 176.943 225.566 175.993 225.566Z" fill="white"/>
<path d="M296.156 161.858H214.161C213.405 161.858 212.679 161.558 212.144 161.023C211.609 160.488 211.309 159.762 211.309 159.005V151.564C211.309 150.808 211.609 150.082 212.144 149.547C212.679 149.012 213.405 148.711 214.161 148.711H296.156C296.53 148.711 296.901 148.785 297.248 148.928C297.594 149.072 297.908 149.282 298.173 149.547C298.438 149.811 298.648 150.126 298.792 150.472C298.935 150.818 299.009 151.189 299.009 151.564V159.005C299.009 159.38 298.935 159.751 298.792 160.097C298.648 160.443 298.438 160.758 298.173 161.023C297.908 161.288 297.594 161.498 297.248 161.641C296.901 161.785 296.53 161.858 296.156 161.858Z" fill="#CECECE"/>
<path d="M297.737 173.254H212.604C212.263 173.254 211.937 173.119 211.696 172.878C211.456 172.637 211.32 172.311 211.32 171.971V171.522C211.325 171.183 211.462 170.859 211.702 170.62C211.942 170.38 212.265 170.243 212.604 170.238H297.737C298.077 170.238 298.404 170.373 298.645 170.614C298.886 170.855 299.02 171.181 299.02 171.522V171.971C299.02 172.311 298.886 172.637 298.645 172.878C298.404 173.119 298.077 173.254 297.737 173.254Z" fill="#CECECE"/>
<path d="M297.737 178.317H212.604C212.263 178.317 211.937 178.181 211.696 177.941C211.456 177.7 211.32 177.374 211.32 177.033V176.584C211.325 176.245 211.462 175.922 211.702 175.682C211.942 175.442 212.265 175.306 212.604 175.301H297.737C298.077 175.301 298.404 175.436 298.645 175.676C298.886 175.917 299.02 176.244 299.02 176.584V177.033C299.02 177.374 298.886 177.7 298.645 177.941C298.404 178.181 298.077 178.317 297.737 178.317Z" fill="#CECECE"/>
<path d="M297.737 183.378H212.604C212.263 183.378 211.937 183.243 211.696 183.002C211.456 182.762 211.32 182.435 211.32 182.095V181.642C211.32 181.302 211.456 180.976 211.696 180.735C211.937 180.494 212.263 180.359 212.604 180.359H297.737C298.077 180.359 298.404 180.494 298.645 180.735C298.886 180.976 299.02 181.302 299.02 181.642V182.095C299.02 182.435 298.886 182.762 298.645 183.002C298.404 183.243 298.077 183.378 297.737 183.378Z" fill="#CECECE"/>
<path d="M297.737 188.442H212.604C212.263 188.442 211.937 188.306 211.696 188.066C211.456 187.825 211.32 187.499 211.32 187.158V186.709C211.325 186.37 211.462 186.047 211.702 185.807C211.942 185.568 212.265 185.431 212.604 185.426H297.737C298.077 185.426 298.404 185.561 298.645 185.802C298.886 186.042 299.02 186.369 299.02 186.709V187.158C299.02 187.499 298.886 187.825 298.645 188.066C298.404 188.306 298.077 188.442 297.737 188.442Z" fill="#CECECE"/>
<path d="M297.737 193.507H212.604C212.263 193.507 211.937 193.372 211.696 193.131C211.456 192.891 211.32 192.564 211.32 192.224V191.772C211.32 191.431 211.456 191.105 211.696 190.864C211.937 190.624 212.263 190.488 212.604 190.488H297.737C298.077 190.488 298.404 190.624 298.645 190.864C298.886 191.105 299.02 191.431 299.02 191.772V192.224C299.021 192.393 298.988 192.559 298.923 192.715C298.859 192.871 298.765 193.014 298.646 193.133C298.527 193.252 298.385 193.346 298.229 193.41C298.073 193.475 297.906 193.508 297.737 193.507Z" fill="#CECECE"/>
<path d="M297.737 198.567H212.604C212.263 198.567 211.937 198.431 211.696 198.191C211.456 197.95 211.32 197.624 211.32 197.283V196.834C211.32 196.494 211.456 196.167 211.696 195.927C211.937 195.686 212.263 195.551 212.604 195.551H297.737C298.077 195.551 298.404 195.686 298.645 195.927C298.886 196.167 299.02 196.494 299.02 196.834V197.283C299.02 197.624 298.886 197.95 298.645 198.191C298.404 198.431 298.077 198.567 297.737 198.567Z" fill="#CECECE"/>
<path d="M297.737 203.632H212.604C212.435 203.632 212.267 203.599 212.111 203.534C211.956 203.47 211.814 203.375 211.695 203.255C211.576 203.136 211.482 202.994 211.417 202.838C211.353 202.682 211.32 202.515 211.32 202.346V201.897C211.32 201.556 211.456 201.23 211.696 200.989C211.937 200.749 212.263 200.613 212.604 200.613H297.737C298.077 200.613 298.404 200.749 298.645 200.989C298.886 201.23 299.02 201.556 299.02 201.897V202.346C299.021 202.515 298.988 202.682 298.924 202.838C298.86 202.994 298.765 203.136 298.646 203.255C298.527 203.375 298.385 203.47 298.229 203.534C298.073 203.599 297.906 203.632 297.737 203.632Z" fill="#CECECE"/>
<path d="M296.758 218.823H213.588C212.984 218.823 212.403 218.583 211.976 218.155C211.548 217.728 211.309 217.148 211.309 216.544V216.28C211.309 215.675 211.548 215.095 211.976 214.667C212.403 214.24 212.984 214 213.588 214H296.758C297.362 214 297.943 214.24 298.37 214.667C298.798 215.095 299.038 215.675 299.038 216.28V216.544C299.038 217.148 298.798 217.728 298.37 218.155C297.943 218.583 297.362 218.823 296.758 218.823Z" fill="#CECECE"/>
<path d="M297.737 223.886H212.604C212.263 223.886 211.937 223.751 211.696 223.51C211.456 223.269 211.32 222.943 211.32 222.603V222.15C211.325 221.812 211.462 221.488 211.702 221.249C211.942 221.009 212.265 220.872 212.604 220.867H297.737C298.077 220.867 298.404 221.003 298.645 221.243C298.886 221.484 299.02 221.81 299.02 222.15V222.603C299.02 222.943 298.886 223.269 298.645 223.51C298.404 223.751 298.077 223.886 297.737 223.886Z" fill="#CECECE"/>
<path d="M297.737 228.945H212.604C212.263 228.945 211.937 228.811 211.696 228.57C211.456 228.33 211.32 228.003 211.32 227.662V227.213C211.32 226.873 211.456 226.546 211.696 226.306C211.937 226.065 212.263 225.93 212.604 225.93H297.737C298.077 225.93 298.404 226.065 298.645 226.306C298.886 226.546 299.02 226.873 299.02 227.213V227.662C299.02 228.003 298.886 228.33 298.645 228.57C298.404 228.811 298.077 228.945 297.737 228.945Z" fill="#CECECE"/>
<path d="M297.737 234.011H212.604C212.263 234.011 211.937 233.877 211.696 233.636C211.456 233.395 211.32 233.068 211.32 232.728V232.275C211.325 231.937 211.462 231.613 211.702 231.374C211.942 231.134 212.265 230.997 212.604 230.992H297.737C298.077 230.992 298.404 231.128 298.645 231.368C298.886 231.609 299.02 231.935 299.02 232.275V232.728C299.02 233.068 298.886 233.395 298.645 233.636C298.404 233.877 298.077 234.011 297.737 234.011Z" fill="#CECECE"/>
<path d="M297.737 239.074H212.604C212.263 239.074 211.937 238.939 211.696 238.698C211.456 238.458 211.32 238.131 211.32 237.79V237.338C211.325 236.999 211.462 236.676 211.702 236.436C211.942 236.197 212.265 236.06 212.604 236.055H297.737C298.077 236.055 298.404 236.19 298.645 236.431C298.886 236.671 299.02 236.998 299.02 237.338V237.79C299.021 237.959 298.988 238.127 298.923 238.283C298.859 238.438 298.765 238.58 298.646 238.699C298.527 238.818 298.385 238.912 298.229 238.977C298.073 239.041 297.906 239.074 297.737 239.074Z" fill="#CECECE"/>
<path d="M297.737 244.136H212.604C212.435 244.136 212.267 244.103 212.111 244.038C211.956 243.974 211.814 243.879 211.695 243.759C211.576 243.64 211.482 243.498 211.417 243.342C211.353 243.186 211.32 243.018 211.32 242.85V242.4C211.32 242.06 211.456 241.734 211.696 241.493C211.937 241.253 212.263 241.117 212.604 241.117H297.737C298.077 241.117 298.404 241.253 298.645 241.493C298.886 241.734 299.02 242.06 299.02 242.4V242.85C299.021 243.018 298.988 243.186 298.924 243.342C298.86 243.498 298.765 243.64 298.646 243.759C298.527 243.879 298.385 243.974 298.229 244.038C298.073 244.103 297.906 244.136 297.737 244.136Z" fill="#CECECE"/>
<path d="M297.737 249.21H212.604C212.263 249.21 211.937 249.075 211.696 248.834C211.456 248.594 211.32 248.267 211.32 247.927V247.474C211.32 247.134 211.456 246.807 211.696 246.567C211.937 246.326 212.263 246.191 212.604 246.191H297.737C298.077 246.191 298.404 246.326 298.645 246.567C298.886 246.807 299.02 247.134 299.02 247.474V247.927C299.02 248.267 298.886 248.594 298.645 248.834C298.404 249.075 298.077 249.21 297.737 249.21Z" fill="#CECECE"/>
<path d="M297.737 254.262H212.604C212.263 254.262 211.937 254.127 211.696 253.887C211.456 253.646 211.32 253.32 211.32 252.979V252.529C211.32 252.189 211.456 251.863 211.696 251.622C211.937 251.382 212.263 251.246 212.604 251.246H297.737C298.077 251.246 298.404 251.382 298.645 251.622C298.886 251.863 299.02 252.189 299.02 252.529V252.979C299.02 253.32 298.886 253.646 298.645 253.887C298.404 254.127 298.077 254.262 297.737 254.262Z" fill="#CECECE"/>
<path d="M297.737 259.328H212.604C212.263 259.328 211.937 259.193 211.696 258.952C211.456 258.712 211.32 258.385 211.32 258.045V257.592C211.32 257.252 211.456 256.925 211.696 256.685C211.937 256.444 212.263 256.309 212.604 256.309H297.737C298.077 256.309 298.404 256.444 298.645 256.685C298.886 256.925 299.02 257.252 299.02 257.592V258.045C299.02 258.385 298.886 258.712 298.645 258.952C298.404 259.193 298.077 259.328 297.737 259.328Z" fill="#CECECE"/>
<path d="M297.737 264.39H212.604C212.263 264.39 211.937 264.255 211.696 264.015C211.456 263.774 211.32 263.448 211.32 263.108V262.654C211.32 262.314 211.456 261.988 211.696 261.747C211.937 261.507 212.263 261.371 212.604 261.371H297.737C298.077 261.371 298.404 261.507 298.645 261.747C298.886 261.988 299.02 262.314 299.02 262.654V263.108C299.02 263.448 298.886 263.774 298.645 264.015C298.404 264.255 298.077 264.39 297.737 264.39Z" fill="#CECECE"/>
<path d="M297.737 269.453H212.604C212.263 269.453 211.937 269.318 211.696 269.077C211.456 268.837 211.32 268.51 211.32 268.17V267.72C211.32 267.38 211.456 267.053 211.696 266.813C211.937 266.572 212.263 266.437 212.604 266.438H297.737C298.077 266.437 298.404 266.572 298.645 266.813C298.886 267.053 299.02 267.38 299.02 267.72V268.17C299.02 268.51 298.886 268.837 298.645 269.077C298.404 269.318 298.077 269.453 297.737 269.453Z" fill="#CECECE"/>
</svg>
