<svg width="210" height="221" viewBox="0 0 210 221" fill="none" xmlns="http://www.w3.org/2000/svg">
<path opacity="0.25" d="M209.5 123.636C209.5 163.505 191.193 198.778 162.193 220.342L154.779 212.919L122.713 180.818L143.619 159.889L161.372 177.663C161.808 178.098 162.535 178.044 162.894 177.534C170.389 166.877 176.382 153.321 178.014 139.705L177.517 139.645L178.014 139.705C178.085 139.108 177.617 138.591 177.023 138.591H148.75V108.682H176.958C177.598 108.682 178.074 108.088 177.933 107.463C174.88 93.9561 170.343 81.8772 162.902 69.8185C162.563 69.2698 161.801 69.1813 161.345 69.6373L143.619 87.3834L122.713 66.4546L140.468 48.6796C140.903 48.2445 140.849 47.5186 140.34 47.1598C129.695 39.6563 116.153 33.6555 102.552 32.0223C101.955 31.9506 101.438 32.4189 101.438 33.0133V61.3182H71.5625V33.078C71.5625 32.4376 70.9679 31.9621 70.3429 32.1036C56.8511 35.1593 44.7854 39.7016 32.7398 47.1516C32.1922 47.4903 32.1039 48.2514 32.5587 48.7067L78.281 94.4794C78.4677 94.6664 78.7264 94.7765 79.0007 94.7702C80.5179 94.7358 81.6849 94.3462 82.7845 93.9791L82.8777 93.948C84.0057 93.5719 85.0789 93.2273 86.5 93.2273C94.5558 93.2273 102.282 96.431 107.978 102.134C113.675 107.836 116.875 115.571 116.875 123.636C116.875 131.702 113.675 139.436 107.978 145.139C102.282 150.842 94.5558 154.045 86.5 154.045C78.4442 154.045 70.7183 150.842 65.0218 145.139C59.3254 139.436 56.125 131.702 56.125 123.636C56.125 122.136 56.1261 121.046 56.2922 119.973C56.4564 118.912 56.7849 117.854 57.4605 116.45C57.6435 116.069 57.5737 115.607 57.2681 115.301L11.6276 69.6101C11.1924 69.1745 10.4652 69.2289 10.1064 69.739C2.61141 80.3954 -3.38246 93.9519 -5.0137 107.568C-5.08521 108.165 -4.61692 108.682 -4.02268 108.682H24.25V138.591H-3.95808C-4.59835 138.591 -5.07377 139.185 -4.93257 139.81C-1.88042 153.317 2.65677 165.396 10.0983 177.454C10.4369 178.003 11.1993 178.091 11.6547 177.635L29.3813 159.889L50.287 180.818L10.8073 220.342C-18.1934 198.778 -36.5 163.505 -36.5 123.636C-36.5 90.9784 -23.541 59.6581 -0.473946 36.5656C22.5931 13.4731 53.8786 0.5 86.5 0.5C119.121 0.5 150.407 13.4731 173.474 36.5656C196.541 59.6581 209.5 90.9784 209.5 123.636Z" stroke="#1985D2"/>
</svg>
