<svg width="480" height="277" viewBox="0 0 480 277" fill="none" xmlns="http://www.w3.org/2000/svg">
<path d="M457.635 88.4733C458.493 89.4196 459.152 90.5294 459.572 91.7363C459.992 92.9432 460.164 94.2224 460.078 95.4973C459.887 98.0529 459.11 100.53 457.809 102.738C455.066 107.086 451.239 110.645 446.705 113.066C444.988 108.499 444.998 103.463 446.732 98.9023C448.259 94.0161 453.964 86.1462 457.641 88.4702" fill="#EBEBEB"/>
<path d="M448.07 122.389C448.343 120.985 448.983 119.679 449.923 118.602C450.864 117.525 452.073 116.716 453.427 116.257C454.787 115.823 456.221 115.663 457.643 115.787C459.066 115.91 460.45 116.315 461.715 116.977C462.329 117.221 462.882 117.595 463.337 118.074C463.791 118.553 464.136 119.125 464.348 119.75C464.445 120.361 464.376 120.986 464.15 121.561C463.923 122.137 463.546 122.641 463.059 123.021C462.073 123.77 460.907 124.246 459.678 124.401C457.715 124.934 455.658 125.03 453.653 124.683C451.648 124.336 449.744 123.554 448.073 122.392" fill="#EBEBEB"/>
<path d="M437.455 134.286C437.602 133.979 437.776 133.686 437.974 133.409L439.473 131.079C441.053 128.448 443.049 126.09 445.383 124.098C447.767 122.131 450.63 120.832 453.68 120.332C454.6 120.197 455.533 120.171 456.459 120.256C456.789 120.277 457.039 120.342 457.207 120.36C457.296 120.369 457.384 120.391 457.467 120.424C456.214 120.348 454.956 120.4 453.714 120.577C450.732 121.136 447.94 122.442 445.599 124.373C443.298 126.349 441.302 128.654 439.675 131.213C439.009 132.172 438.472 132.951 438.087 133.483C437.904 133.771 437.692 134.041 437.455 134.286Z" fill="#E0E0E0"/>
<path d="M453.814 94.8672C453.793 95.0143 453.753 95.1581 453.694 95.2947C453.591 95.6001 453.45 96.0032 453.282 96.4919C452.919 97.5271 452.366 99.0266 451.685 100.868C450.305 104.551 448.326 109.611 446.035 115.151C443.745 120.691 441.528 125.66 439.888 129.23C439.069 131.016 438.388 132.458 437.915 133.444C437.683 133.914 437.503 134.284 437.356 134.577C437.299 134.713 437.227 134.843 437.139 134.962C437.173 134.819 437.224 134.68 437.292 134.55C437.417 134.244 437.597 133.862 437.79 133.386C438.251 132.335 438.889 130.894 439.665 129.111C441.247 125.513 443.412 120.535 445.714 114.995C448.017 109.456 450.027 104.417 451.462 100.755C452.17 98.9563 452.745 97.4844 453.163 96.4216C453.358 95.9391 453.514 95.5543 453.639 95.2458C453.681 95.1128 453.74 94.9856 453.814 94.8672Z" fill="#E0E0E0"/>
<path d="M440.326 122.435C440.996 119.496 440.955 116.438 440.207 113.517C439.46 110.596 438.026 107.895 436.026 105.639C435.003 104.506 433.497 103.419 432.056 103.938C430.615 104.457 430.144 106.262 430.117 107.795C430.112 110.994 431.055 114.123 432.827 116.786C434.599 119.449 437.12 121.528 440.072 122.759" fill="#EBEBEB"/>
<path d="M434.884 110.203C435.127 110.411 435.35 110.641 435.55 110.89C435.805 111.163 436.044 111.451 436.265 111.751C436.518 112.109 436.845 112.487 437.132 112.973C437.419 113.459 437.761 113.947 438.048 114.527C438.379 115.136 438.675 115.762 438.937 116.403C439.531 117.877 439.958 119.414 440.21 120.983C440.435 122.555 440.477 124.148 440.336 125.729C440.271 126.418 440.17 127.103 440.03 127.781C439.914 128.373 439.764 128.957 439.581 129.531C439.439 130.007 439.27 130.475 439.077 130.933C438.949 131.284 438.797 131.626 438.622 131.956C438.5 132.252 438.346 132.534 438.161 132.796C438.091 132.762 438.735 131.556 439.337 129.455C439.503 128.884 439.636 128.303 439.737 127.717C439.868 127.048 439.962 126.372 440.018 125.693C440.139 124.137 440.088 122.573 439.865 121.029C439.621 119.489 439.212 117.98 438.644 116.528C438.395 115.892 438.113 115.27 437.798 114.665C437.533 114.132 437.24 113.613 436.921 113.11C435.758 111.248 434.82 110.252 434.884 110.203Z" fill="#E0E0E0"/>
<path d="M22.5781 44.8492C22.5781 44.8492 16.1374 46.9289 22.3826 60.7295C25.4809 67.8634 29.0517 74.7826 33.0712 81.441C33.0712 81.441 34.1432 84.6263 31.4893 84.9897C28.8355 85.3531 23.0728 84.156 21.7443 87.3198C20.3731 90.6119 22.6605 93.8795 27.449 96.8754C32.2375 99.8713 42.517 106.831 43.4392 107.469C44.3615 108.108 45.2166 109.592 43.4392 110.129C41.6619 110.667 28.5484 111.418 29.2753 117.621C30.0021 123.823 44.7402 129.986 46.3374 130.691C47.9346 131.397 48.2919 132.105 48.1147 132.988C47.9376 133.87 43.5064 133.708 39.7837 134.081C36.061 134.454 31.81 135.522 32.5307 139.065C33.2514 142.608 41.7871 150.386 63.2468 153.51L73.288 154.307L79.1637 146.061C90.6525 127.662 90.2402 116.133 87.9986 113.287C85.7571 110.441 82.1962 112.982 79.5057 115.599C76.8153 118.216 74.079 121.691 73.288 121.249C72.497 120.806 72.1886 120.079 72.6772 118.405C73.1659 116.732 77.9971 101.505 73.7339 96.9395C69.4706 92.374 60.4158 101.896 58.8645 102.904C57.3131 103.912 56.7267 102.275 56.8397 101.181C56.9527 100.088 58.2903 87.7443 59.1027 82.1373C59.915 76.5304 58.8919 72.6702 55.496 71.6075C52.2192 70.5722 49.4126 75.7394 47.4154 77.532C45.4181 79.3247 43.6835 76.4479 43.6835 76.4479C41.2033 69.0731 38.2355 61.8714 34.7998 54.8905C28.3011 41.1968 22.4284 44.8859 22.4284 44.8859" fill="#EBEBEB"/>
<path d="M73.7004 156.707C68.9668 146.629 60.874 128.574 53.8165 113.116C46.7589 97.6567 40.3793 83.6668 35.7038 73.5706C33.3645 68.5287 31.468 64.4487 30.1457 61.6116C29.4952 60.2098 28.9913 59.1135 28.6401 58.3623C28.4722 57.9988 28.3347 57.7179 28.2553 57.5163C28.1759 57.3148 28.1362 57.2109 28.1362 57.2109C28.1362 57.2109 28.1912 57.3025 28.2828 57.4919C28.3744 57.6812 28.521 57.9683 28.6951 58.3256C29.0585 59.0738 29.5838 60.1579 30.2556 61.5536C31.6055 64.354 33.5386 68.4279 35.8992 73.4638C40.6328 83.5417 47.0521 97.5132 54.0943 112.972C61.1366 128.431 69.2203 146.519 73.8836 156.615" fill="#E0E0E0"/>
<path d="M29.7383 89.3242C29.9773 89.3753 30.2099 89.4531 30.4315 89.5563C30.8713 89.7181 31.4943 89.9778 32.2638 90.2984C33.7908 90.9489 35.9102 91.9017 38.222 92.995L44.116 95.8107C44.8245 96.1466 45.4261 96.4214 45.9087 96.6505C46.1363 96.7358 46.3527 96.8486 46.553 96.9864C46.3147 96.9369 46.0823 96.8622 45.8598 96.7635C45.42 96.5955 44.797 96.342 44.0274 96.0061C42.5005 95.3404 40.3933 94.3601 38.0907 93.2576C35.7881 92.1552 33.7572 91.2207 32.1814 90.4847L30.3826 89.651C30.1554 89.5687 29.939 89.4589 29.7383 89.3242Z" fill="#E0E0E0"/>
<path d="M47.2739 96.3727C47.1975 96.3391 48.9627 91.9048 51.2439 86.4719C53.5252 81.039 55.4095 76.6628 55.4858 76.6994C55.5622 76.7361 53.797 81.1673 51.5157 86.6001C49.2345 92.033 47.3594 96.3971 47.2739 96.3727Z" fill="#E0E0E0"/>
<path d="M57.0205 120.602C57.1427 120.384 57.2881 120.179 57.4542 119.992C57.7962 119.57 58.2176 119.039 58.7215 118.416C59.7934 117.084 61.2563 115.243 62.8046 113.151C64.3529 111.059 65.6905 109.117 66.6494 107.703C67.0984 107.037 67.4831 106.481 67.7824 106.029C67.9093 105.814 68.0599 105.615 68.2314 105.434C68.1436 105.665 68.0288 105.886 67.8893 106.09C67.6511 106.502 67.2938 107.098 66.8388 107.819C65.9226 109.269 64.6186 111.23 63.0581 113.316C61.4975 115.402 60.0042 117.243 58.8925 118.538C58.3337 119.182 57.8786 119.701 57.5488 120.065C57.3947 120.264 57.2174 120.445 57.0205 120.602Z" fill="#E0E0E0"/>
<path d="M39.7583 117.724C39.9882 117.71 40.219 117.724 40.4454 117.767C40.9493 117.831 41.5662 117.907 42.3022 118.005C43.8627 118.216 46.0188 118.53 48.41 118.894C50.8012 119.257 52.9389 119.608 54.4934 119.874L56.3257 120.21C56.3556 120.129 56.4147 120.062 56.4914 120.023C56.5681 119.983 56.6568 119.974 56.74 119.996C56.8233 120.019 56.895 120.072 56.9411 120.145C56.9872 120.218 57.0043 120.305 56.9891 120.39C56.9738 120.475 56.9273 120.551 56.8588 120.604C56.7902 120.656 56.7045 120.681 56.6186 120.673C56.5326 120.665 56.4527 120.626 56.3946 120.562C56.3364 120.498 56.3042 120.415 56.3043 120.329C55.8004 120.265 55.1835 120.188 54.4476 120.091C52.887 119.88 50.731 119.565 48.3398 119.202C45.9486 118.839 43.8108 118.487 42.2564 118.222L40.4241 117.886C40.1969 117.857 39.9736 117.802 39.7583 117.724Z" fill="#E0E0E0"/>
<path d="M45.6455 140.201C45.9391 140.193 46.2326 140.215 46.522 140.265L48.9009 140.57C50.9043 140.83 53.6772 141.214 56.7281 141.654C59.7789 142.094 62.5458 142.509 64.543 142.824C65.4958 142.986 66.2929 143.111 66.9098 143.215C67.2017 143.25 67.49 143.311 67.771 143.398C67.4774 143.405 67.1839 143.384 66.8945 143.334L64.5155 143.028C62.5122 142.769 59.7392 142.384 56.6884 141.944C53.6375 141.505 50.8707 141.089 48.8735 140.775C47.9207 140.613 47.1236 140.488 46.5128 140.384C46.2186 140.35 45.9282 140.289 45.6455 140.201Z" fill="#E0E0E0"/>
<path d="M67.2495 143.168C67.4064 142.895 67.5841 142.635 67.7809 142.389L69.3078 140.337C70.6027 138.599 72.38 136.199 74.2704 133.49C76.1608 130.781 77.8129 128.298 78.9979 126.466C79.5659 125.599 80.0331 124.869 80.3996 124.328C80.5588 124.056 80.7417 123.799 80.9462 123.559C80.8261 123.85 80.6788 124.129 80.5065 124.392C80.2011 124.918 79.7583 125.675 79.1903 126.597C78.0573 128.445 76.4417 130.958 74.533 133.676C72.6244 136.394 70.8287 138.773 69.4911 140.48C68.8192 141.326 68.2695 142.007 67.8725 142.474C67.6872 142.725 67.4786 142.957 67.2495 143.168Z" fill="#E0E0E0"/>
<path d="M230.797 127.67C212.858 118.646 206.109 98.0474 204.008 78.9698C203.258 75.8616 203.231 72.6225 203.932 69.5027C204.404 67.9849 205.415 66.6919 206.774 65.8669C208.132 65.0419 209.746 64.7416 211.31 65.0226C213.824 65.7922 215.244 68.3819 216.89 70.4555C219.088 73.2216 222.022 75.3111 225.355 76.4839C226.402 76.961 227.548 77.1782 228.696 77.117C229.845 77.0559 230.962 76.7182 231.951 76.1327C234.465 74.2271 234.242 70.4066 233.784 67.255C232.894 61.3814 232.007 55.5097 231.124 49.6401C230.478 46.5157 230.343 43.3072 230.724 40.1395C230.922 38.5642 231.497 37.0601 232.401 35.7548C233.305 34.4496 234.511 33.3818 235.915 32.6422C237.353 31.987 238.991 31.9255 240.474 32.471C241.956 33.0165 243.164 34.1249 243.834 35.5556C244.14 36.8447 244.36 38.1526 244.494 39.4707C244.569 40.1276 244.836 40.7478 245.262 41.2536C245.688 41.7593 246.253 42.1282 246.888 42.3138C248.198 42.5032 249.331 41.4252 250.144 40.3685C252.771 36.5685 254.758 32.3636 256.025 27.9208C257.293 23.4777 259.082 19.2001 261.354 15.1769C262.491 13.1793 264.016 11.4291 265.839 10.0293C267.662 8.62954 269.746 7.60844 271.97 7.02607C274.217 6.52338 276.568 6.78729 278.648 7.77576C280.728 8.76424 282.417 10.4204 283.446 12.4803C285.233 16.7558 283.294 21.642 281.003 25.6487C277.586 31.591 273.33 37.0094 268.366 41.7366C267.374 42.4873 266.648 43.5346 266.293 44.7264C265.914 46.9252 268.204 48.724 270.382 49.1149C272.875 49.2903 275.38 49.2105 277.858 48.8767C279.107 48.7279 280.373 48.9104 281.529 49.4057C282.685 49.901 283.691 50.6917 284.445 51.6985C286.201 54.7371 283.996 58.5026 281.666 61.0953C276.979 66.2868 271.436 70.6355 265.279 73.9522C262.987 74.958 260.9 76.375 259.119 78.133C258.242 79.0415 257.68 80.2073 257.515 81.4589C257.35 82.7106 257.591 83.9822 258.203 85.0867C259.035 86.0251 260.14 86.6791 261.364 86.9568C262.587 87.2346 263.866 87.122 265.022 86.635C267.304 85.6161 269.492 84.398 271.561 82.9948C275.656 80.7319 281.293 80.2219 284.61 83.5689C285.643 84.7346 286.392 86.1238 286.798 87.6275C287.204 89.1313 287.255 90.7087 286.949 92.2359C286.309 95.2819 285.063 98.1681 283.284 100.723C277.61 109.965 269.584 117.535 260.026 122.659C251.204 127.814 240.81 129.593 230.776 127.664" fill="#F5F5F5"/>
<path d="M233.977 115.057C235.634 104.256 237.91 93.5586 240.796 83.0188C241.546 80.2112 242.286 77.4434 243.017 74.7152C243.753 71.9911 244.479 69.2885 245.356 66.6926C247.045 61.701 249.011 56.8073 251.244 52.034C253.345 47.4684 255.501 43.2051 257.544 39.2412C259.587 35.2772 261.584 31.6064 263.536 28.3602C266.589 23.2082 270.047 18.3065 273.876 13.7014C275.226 12.0707 276.319 10.8369 277.067 10.0184C277.431 9.62754 277.712 9.31911 277.929 9.10228C278.019 8.98984 278.122 8.88744 278.234 8.79688C278.156 8.91888 278.067 9.03338 277.968 9.13891C277.767 9.37711 277.492 9.69777 277.156 10.1131C276.435 10.959 275.37 12.2142 274.047 13.8664C270.295 18.5184 266.897 23.4448 263.881 28.6044C261.957 31.866 259.996 35.5276 257.965 39.4916C255.935 43.4556 253.8 47.7371 251.72 52.2905C249.513 57.0471 247.566 61.9202 245.887 66.8881C245.02 69.4717 244.299 72.153 243.569 74.8832C242.839 77.6134 242.106 80.3802 241.358 83.1867C238.48 93.7065 236.195 104.379 234.511 115.155" fill="#E0E0E0"/>
<path d="M245.52 66.639C245.307 66.2243 245.138 65.7882 245.017 65.338C244.711 64.4921 244.345 63.2522 243.896 61.71C242.98 58.6377 241.902 54.344 240.711 49.6104C239.52 44.8769 238.365 40.6136 237.419 37.5597C236.948 36.0328 236.557 34.8112 236.276 33.9531C236.102 33.5208 235.977 33.07 235.904 32.6094C236.145 33.0094 236.343 33.4343 236.493 33.8767C236.844 34.7044 237.29 35.9198 237.809 37.4345C238.86 40.4671 240.085 44.7303 241.276 49.4638C242.439 54.1394 243.496 58.3629 244.299 61.597C244.669 63.0527 244.982 64.2742 245.237 65.2616C245.383 65.7085 245.478 66.1706 245.52 66.639Z" fill="#E0E0E0"/>
<path d="M284.957 53.2031C284.442 53.3951 283.91 53.5383 283.369 53.6307C282.34 53.875 280.855 54.2201 279.029 54.7026C275.365 55.6401 270.368 57.1121 264.92 58.9781C259.472 60.844 254.613 62.7588 251.141 64.243C249.397 64.9698 248.005 65.6019 247.04 66.0295C246.551 66.2814 246.04 66.4859 245.513 66.6403C245.962 66.3196 246.44 66.0425 246.942 65.8127C247.879 65.324 249.254 64.6369 250.976 63.8521C254.415 62.2701 259.264 60.2943 264.719 58.4131C269.378 56.7992 274.116 55.4252 278.916 54.2964C280.749 53.8628 282.275 53.5818 283.308 53.4077C283.849 53.2857 284.402 53.2171 284.957 53.2031Z" fill="#E0E0E0"/>
<path d="M234.36 114.231C234.223 114.097 234.104 113.943 234.009 113.776C233.765 113.407 233.463 112.958 233.093 112.411C232.308 111.22 231.23 109.47 229.914 107.287C227.288 102.926 223.852 96.7842 220.142 89.9648C216.431 83.1455 213.057 76.9766 210.528 72.5576C209.288 70.4199 208.274 68.6517 207.511 67.3416C207.19 66.7735 206.915 66.3063 206.698 65.9215C206.591 65.7602 206.506 65.5857 206.445 65.4023C206.58 65.5388 206.698 65.6917 206.796 65.8574C207.04 66.2269 207.343 66.6758 207.712 67.2224C208.488 68.4135 209.575 70.1634 210.891 72.3469C213.518 76.7079 216.953 82.8492 220.664 89.6747C224.374 96.5002 227.743 102.663 230.277 107.082C231.517 109.22 232.531 110.988 233.295 112.298C233.615 112.866 233.89 113.333 234.107 113.718C234.214 113.877 234.299 114.05 234.36 114.231Z" fill="#E0E0E0"/>
<path d="M285.722 89.0938C285.568 89.2162 285.398 89.3188 285.218 89.3991L283.728 90.1473L278.231 92.85C273.589 95.1313 267.21 98.347 260.173 101.938C253.137 105.53 246.736 108.688 242.033 110.88C239.688 111.974 237.782 112.841 236.454 113.415L234.927 114.065C234.752 114.153 234.566 114.216 234.374 114.255C234.529 114.132 234.698 114.03 234.878 113.949L236.368 113.201L241.865 110.498C246.507 108.217 252.887 105.001 259.923 101.41C266.959 97.8187 273.36 94.661 278.063 92.4775C280.408 91.3842 282.314 90.5169 283.643 89.9427L285.169 89.2922C285.342 89.1968 285.528 89.1298 285.722 89.0938Z" fill="#E0E0E0"/>
<path d="M474.084 274.3C474.084 274.398 369.079 274.484 239.572 274.484C110.066 274.484 5.0332 274.398 5.0332 274.3C5.0332 274.203 110.02 274.117 239.572 274.117C369.125 274.117 474.084 274.2 474.084 274.3Z" fill="#263238"/>
<path d="M203.976 274.298L110.914 273.865C108.252 273.852 105.619 273.316 103.165 272.287C100.71 271.257 98.4824 269.754 96.6087 267.863C94.7351 265.973 93.2522 263.731 92.2448 261.268C91.2373 258.804 90.725 256.166 90.737 253.504L91.7234 20.1865C91.7338 17.5234 92.2691 14.8884 93.2985 12.4322C94.3279 9.97607 95.8313 7.74689 97.7228 5.87214C99.6143 3.99739 101.857 2.51383 104.322 1.50629C106.787 0.498747 109.427 -0.0130125 112.09 0.000251376L205.151 0.427795C207.813 0.439799 210.446 0.97596 212.901 2.00566C215.355 3.03537 217.583 4.53845 219.457 6.42909C221.33 8.31972 222.813 10.5609 223.821 13.0246C224.828 15.4883 225.34 18.1264 225.328 20.7881L224.342 254.106C224.332 256.769 223.798 259.405 222.769 261.862C221.74 264.319 220.236 266.549 218.345 268.424C216.453 270.299 214.21 271.784 211.745 272.792C209.279 273.799 206.639 274.311 203.976 274.298Z" fill="#455A64"/>
<path d="M205.02 8.5036L186.977 8.41809C186.389 8.42763 185.808 8.55315 185.269 8.78746C184.729 9.02177 184.241 9.36027 183.833 9.78355C183.424 10.2068 183.103 10.7066 182.888 11.2541C182.673 11.8017 182.568 12.3863 182.58 12.9745V16.2452C182.591 16.8349 182.486 17.4212 182.271 17.9702C182.055 18.5193 181.733 19.0203 181.324 19.4446C180.914 19.8689 180.424 20.208 179.883 20.4424C179.342 20.6769 178.76 20.8021 178.17 20.8108L143.001 20.6489C141.813 20.6162 140.687 20.1135 139.869 19.2513C139.052 18.389 138.61 17.2376 138.64 16.0498V12.7791C138.67 11.5912 138.228 10.4398 137.411 9.57756C136.593 8.71532 135.467 8.21266 134.279 8.17988L127.936 8.1524L112.141 8.08216C108.376 8.06593 104.758 9.54609 102.083 12.1971C99.4087 14.8481 97.8967 18.4529 97.8798 22.2186L96.9147 249.945C96.9063 251.808 97.265 253.655 97.9704 255.38C98.6758 257.105 99.7141 258.675 101.026 259.998C102.338 261.322 103.897 262.375 105.616 263.095C107.335 263.816 109.178 264.192 111.042 264.2L203.923 264.628C207.689 264.644 211.307 263.164 213.981 260.513C216.656 257.862 218.168 254.257 218.185 250.491L219.15 22.7653C219.163 19.0016 217.683 15.3864 215.034 12.7128C212.385 10.0392 208.783 8.52542 205.02 8.5036Z" fill="#FAFAFA"/>
<path d="M143.249 242.577L177.514 207.066L210.105 240.287L143.249 242.577Z" fill="#EBEBEB"/>
<path d="M182.862 202.479L218.541 167.137C218.541 168.706 218.236 240.449 218.236 240.449L182.862 202.479Z" fill="#EBEBEB"/>
<path d="M152.312 182.625L172.554 202.866L132.59 244.094L114.126 221.95L152.312 182.625Z" fill="#EBEBEB"/>
<path d="M96.9146 235.275L108.696 224.828L125.016 244.104H96.9207V236.732" fill="#EBEBEB"/>
<path d="M112.181 35.6567C110.94 34.735 109.772 33.7191 108.687 32.618V32.3524L108.708 32.331L108.751 32.2882L108.837 32.2027L109.011 32.0408L109.347 31.7355C109.563 31.5339 109.78 31.3354 109.991 31.1461L111.09 30.1658C111.409 29.8385 111.772 29.5578 112.168 29.332C111.91 29.7126 111.602 30.0567 111.252 30.3551C110.916 30.6849 110.574 31.027 110.208 31.3904L109.597 32.0011L109.261 32.3065L109.093 32.4684L109.008 32.5539L108.965 32.5966L108.944 32.618V32.3462C110.104 33.3667 111.187 34.4733 112.181 35.6567Z" fill="#263238"/>
<path d="M208.946 30.316C208.946 30.4658 208.902 30.6122 208.819 30.7368C208.736 30.8613 208.617 30.9584 208.479 31.0157C208.341 31.073 208.188 31.088 208.041 31.0588C207.894 31.0296 207.759 30.9574 207.654 30.8515C207.548 30.7456 207.475 30.6106 207.446 30.4637C207.417 30.3168 207.432 30.1645 207.489 30.0261C207.547 29.8878 207.644 29.7695 207.768 29.6863C207.893 29.603 208.039 29.5586 208.189 29.5586C208.39 29.5586 208.583 29.6384 208.725 29.7804C208.867 29.9225 208.946 30.1151 208.946 30.316Z" fill="#263238"/>
<path d="M208.725 32.3929C208.831 32.4988 208.903 32.6338 208.932 32.7807C208.961 32.9275 208.946 33.0798 208.889 33.2181C208.831 33.3564 208.734 33.4746 208.61 33.5578C208.485 33.641 208.339 33.6853 208.189 33.6853C208.039 33.6853 207.893 33.641 207.768 33.5578C207.644 33.4746 207.547 33.3564 207.489 33.2181C207.432 33.0798 207.417 32.9275 207.446 32.7807C207.475 32.6338 207.547 32.4988 207.653 32.3929C207.795 32.2513 207.988 32.1719 208.189 32.1719C208.39 32.1719 208.583 32.2513 208.725 32.3929Z" fill="#263238"/>
<path d="M208.946 35.5464C208.946 35.6962 208.902 35.8426 208.819 35.9672C208.736 36.0917 208.617 36.1888 208.479 36.2462C208.341 36.3035 208.188 36.3185 208.041 36.2892C207.894 36.26 207.759 36.1879 207.654 36.082C207.548 35.976 207.475 35.8411 207.446 35.6942C207.417 35.5473 207.432 35.395 207.489 35.2566C207.547 35.1182 207.644 34.9999 207.768 34.9167C207.893 34.8335 208.039 34.7891 208.189 34.7891C208.39 34.7891 208.583 34.8689 208.725 35.0109C208.867 35.1529 208.946 35.3456 208.946 35.5464Z" fill="#263238"/>
<path d="M176.136 33.418H143.383V36.1482H176.136V33.418Z" fill="#263238"/>
<path d="M451.058 179.805H62.6084V236.803H451.058V179.805Z" fill="#E8505B"/>
<path d="M451.058 179.805H62.6084V236.803H451.058V179.805Z" fill="#2B70A2"/>
<path d="M117.331 273.788C137.97 272.4 153.577 254.543 152.189 233.903C150.8 213.263 132.943 197.657 112.303 199.045C91.6635 200.433 76.057 218.29 77.4453 238.93C78.8336 259.57 96.6908 275.176 117.331 273.788Z" fill="#263238"/>
<path d="M77.3782 235.785C77.3782 235.819 77.3782 235.849 77.3782 235.883C77.2964 245.778 81.133 255.303 88.0501 262.378C94.9673 269.454 104.403 273.505 114.297 273.648C124.191 273.79 133.739 270.012 140.857 263.138C147.975 256.265 152.084 246.854 152.287 236.961C152.287 236.927 152.287 236.897 152.287 236.863L77.3782 235.785Z" fill="#263238"/>
<path d="M88.5184 236.044C88.4428 241.244 89.9111 246.351 92.7376 250.717C95.5641 255.083 99.6218 258.513 104.398 260.573C109.173 262.633 114.453 263.23 119.568 262.29C124.683 261.349 129.405 258.913 133.136 255.289C136.866 251.665 139.439 247.016 140.527 241.93C141.616 236.844 141.172 231.55 139.252 226.716C137.331 221.883 134.02 217.727 129.738 214.775C125.456 211.823 120.395 210.207 115.194 210.132C108.221 210.031 101.492 212.704 96.4898 217.563C91.4871 222.423 88.6197 229.07 88.5184 236.044Z" fill="#FAFAFA"/>
<path d="M115.191 210.132C108.218 210.031 101.49 212.704 96.4869 217.563C91.4843 222.423 88.6169 229.07 88.5156 236.044L141.104 236.801C141.155 233.348 140.525 229.919 139.251 226.71C137.976 223.5 136.081 220.573 133.675 218.096C131.268 215.62 128.397 213.641 125.226 212.275C122.054 210.908 118.644 210.18 115.191 210.132Z" fill="#E0E0E0"/>
<path d="M98.8151 236.189C98.7696 239.357 99.6645 242.468 101.387 245.127C103.109 247.787 105.581 249.876 108.491 251.131C111.401 252.385 114.617 252.749 117.733 252.175C120.85 251.602 123.726 250.117 125.998 247.909C128.271 245.701 129.838 242.869 130.501 239.77C131.163 236.672 130.892 233.447 129.722 230.502C128.552 227.557 126.535 225.026 123.926 223.228C121.317 221.43 118.233 220.446 115.065 220.4C110.817 220.34 106.719 221.97 103.672 224.931C100.625 227.891 98.8779 231.941 98.8151 236.189Z" fill="#263238"/>
<path d="M403.357 273.821C424.009 272.625 439.781 254.914 438.585 234.262C437.39 213.61 419.679 197.838 399.027 199.034C378.375 200.23 362.603 217.941 363.799 238.593C364.994 259.244 382.705 275.017 403.357 273.821Z" fill="#263238"/>
<path d="M363.782 235.785C363.782 235.819 363.782 235.849 363.782 235.883C363.7 245.778 367.537 255.303 374.454 262.378C381.371 269.454 390.807 273.505 400.701 273.648C410.595 273.79 420.143 270.012 427.261 263.138C434.379 256.265 438.488 246.854 438.691 236.961C438.691 236.927 438.691 236.897 438.691 236.863L363.782 235.785Z" fill="#263238"/>
<path d="M374.947 236.04C374.871 241.241 376.339 246.347 379.166 250.713C381.992 255.079 386.05 258.509 390.826 260.569C395.602 262.629 400.881 263.226 405.996 262.286C411.112 261.345 415.833 258.909 419.564 255.285C423.295 251.661 425.867 247.012 426.956 241.926C428.044 236.84 427.6 231.546 425.68 226.712C423.759 221.879 420.449 217.723 416.167 214.771C411.884 211.819 406.823 210.203 401.622 210.128C394.649 210.027 387.921 212.7 382.918 217.559C377.915 222.419 375.048 229.066 374.947 236.04Z" fill="#FAFAFA"/>
<path d="M401.596 210.128C394.623 210.027 387.894 212.7 382.892 217.559C377.889 222.419 375.022 229.066 374.92 236.04L427.508 236.797C427.56 233.344 426.93 229.915 425.655 226.706C424.381 223.496 422.486 220.569 420.079 218.093C417.673 215.616 414.802 213.637 411.63 212.271C408.459 210.904 405.049 210.176 401.596 210.128Z" fill="#E0E0E0"/>
<path d="M385.219 236.189C385.174 239.357 386.069 242.468 387.791 245.127C389.513 247.787 391.986 249.876 394.895 251.131C397.805 252.385 401.021 252.749 404.138 252.175C407.254 251.602 410.13 250.117 412.403 247.909C414.675 245.701 416.242 242.869 416.905 239.77C417.568 236.672 417.297 233.447 416.126 230.502C414.956 227.557 412.939 225.026 410.33 223.228C407.721 221.43 404.637 220.446 401.469 220.4C397.221 220.34 393.123 221.97 390.076 224.931C387.029 227.891 385.282 231.941 385.219 236.189Z" fill="#263238"/>
<path d="M163.912 147.735C163.912 147.735 108.756 151.802 88.3101 156.389C73.9018 159.623 46.1205 165.197 46.4564 182.68L48.6613 195.201C45.5733 196.773 42.9778 199.164 41.1596 202.114C39.3414 205.063 38.3709 208.457 38.3544 211.921C38.3544 223.929 35.8411 242.567 59.8905 243.309C63.8606 243.435 71.3854 243.309 71.3854 243.309C71.3854 243.309 66.7648 192.08 113.835 190.575C161.717 189.048 158.537 242.839 158.537 242.839H358.381C358.381 242.839 350.182 190.434 401.725 190.364C453.269 190.294 445.414 243.196 445.414 243.196C445.414 243.196 464.373 244.833 473.205 228.901C482.037 212.969 479.731 201.624 479.731 201.624L479.426 191.546C479.378 189.893 478.705 188.32 477.541 187.144C476.378 185.969 474.811 185.279 473.159 185.215C473.159 185.215 476.604 159.849 471.327 155.458C466.05 151.066 437.077 124.589 437.077 124.589L438.458 123.722C438.977 123.396 439.393 122.929 439.658 122.376C439.923 121.824 440.027 121.207 439.957 120.598C439.886 119.989 439.645 119.413 439.261 118.935C438.877 118.457 438.365 118.098 437.786 117.898C426.792 114.117 405.039 106.632 399.917 104.849C399.151 104.582 398.354 104.415 397.545 104.351C394.491 104.119 385.86 103.566 370.001 103.398C350.686 103.197 273.99 103.398 273.99 103.398C273.99 103.398 247.595 105.569 232.891 112.044C217.438 118.845 163.912 147.735 163.912 147.735Z" fill="#1985D2"/>
<g opacity="0.4">
<path d="M52.3436 210.535C51.2391 210.235 50.0854 210.162 48.9517 210.319C47.8181 210.476 46.728 210.862 45.7472 211.451C44.7266 212.589 44.1565 214.061 44.1439 215.589C43.8223 217.652 43.8699 219.755 44.2844 221.801C44.4958 222.822 44.9158 223.789 45.518 224.641C46.1202 225.493 46.8916 226.211 47.7841 226.751C48.692 227.268 49.7414 227.48 50.7785 227.356C51.8156 227.232 52.7858 226.78 53.5468 226.064C54.6904 224.519 55.1966 222.594 54.9608 220.686C55.0751 218.137 54.9648 215.582 54.631 213.052C54.5172 212.498 54.2825 211.977 53.9439 211.525C53.7666 211.254 53.5302 211.027 53.2525 210.861C52.9748 210.695 52.6629 210.594 52.3406 210.566" fill="black"/>
</g>
<path d="M48.6582 195.21C54.5125 195.21 60.1897 194.89 66.0348 194.496C66.387 194.55 66.7472 194.515 67.0826 194.395C67.418 194.275 67.718 194.072 67.9553 193.806C68.1926 193.541 68.3597 193.22 68.4414 192.873C68.5231 192.526 68.5167 192.164 68.423 191.82C68.6514 190.267 68.546 188.683 68.1136 187.174C67.6813 185.664 66.932 184.265 65.9157 183.068C64.3589 181.925 62.4898 181.286 60.5592 181.236C55.8086 180.733 51.0054 181.216 46.4502 182.656L48.6582 195.21Z" fill="#FAFAFA"/>
<path d="M170.244 241.239C170.244 241.239 170.222 241.071 170.195 240.742C170.167 240.412 170.14 239.908 170.097 239.273C170.027 237.972 169.923 236.066 169.792 233.623C169.66 231.18 169.486 228.169 169.141 224.696C168.78 220.764 168.089 216.869 167.077 213.052C165.798 208.441 163.902 204.023 161.439 199.92C158.655 195.183 154.951 191.05 150.546 187.766C140.026 180.733 127.641 177.01 114.986 177.077C102.314 176.798 89.9031 180.706 79.6772 188.196C75.2579 191.459 71.3868 195.405 68.2098 199.887C65.4312 203.785 63.1726 208.029 61.4913 212.511C60.1094 216.21 59.1574 220.056 58.6542 223.973C58.264 226.929 58.1495 229.915 58.3122 232.893C58.4219 234.773 58.6514 236.643 58.9993 238.494C59.1123 239.123 59.2009 239.609 59.2589 239.945C59.3169 240.28 59.3352 240.442 59.3352 240.442C59.3352 240.442 59.2925 240.281 59.2222 239.954C59.152 239.627 59.0543 239.135 58.9168 238.512C58.5417 236.662 58.2887 234.789 58.1595 232.905C57.9729 229.92 58.067 226.925 58.4404 223.957C58.9243 220.021 59.8619 216.153 61.2348 212.432C62.9131 207.923 65.1716 203.651 67.9533 199.725C71.1368 195.206 75.0226 191.225 79.4635 187.934C89.7432 180.384 102.229 176.44 114.98 176.717C127.708 176.65 140.163 180.403 150.735 187.491C155.17 190.808 158.895 194.979 161.693 199.758C164.161 203.887 166.055 208.334 167.321 212.976C168.325 216.809 168.999 220.721 169.337 224.669C169.673 228.147 169.813 231.152 169.926 233.611C170.039 236.069 170.109 237.96 170.164 239.267C170.193 239.904 170.214 240.393 170.228 240.735C170.25 241.065 170.244 241.239 170.244 241.239Z" fill="white"/>
<path d="M172.362 242.111C172.362 242.111 172.362 241.97 172.34 241.689C172.319 241.408 172.313 240.99 172.298 240.449C172.264 239.35 172.212 237.725 172.151 235.612C172.032 231.37 171.846 225.152 171.626 217.255C171.406 209.358 171.149 199.753 170.85 188.759C170.773 186.007 170.695 183.171 170.618 180.251C170.566 178.766 170.63 177.28 170.807 175.805C170.911 175.056 171.018 174.305 171.128 173.551C171.238 172.796 171.433 172.051 171.589 171.288C172.314 168.198 173.358 165.192 174.704 162.319C176.093 159.297 177.814 156.439 179.835 153.798V153.777H179.856L214.463 131.975C217.537 130.035 220.653 128.072 223.811 126.087C226.961 123.994 230.268 122.147 233.702 120.563C237.198 118.931 240.784 117.498 244.443 116.272C246.275 115.628 248.169 115.096 250.05 114.534C251.955 114.052 253.852 113.511 255.797 113.12C263.134 111.546 270.593 110.604 278.091 110.305C285.284 109.96 292.491 109.983 299.682 110.375H299.883L299.84 110.576C296.53 125.391 293.406 139.365 290.541 152.17V152.198V152.225C288.831 155.043 287.432 158.038 286.37 161.158C285.307 164.122 284.827 167.263 284.956 170.408C285.194 173.481 285.276 176.492 285.356 179.405C285.435 182.319 285.469 185.162 285.524 187.904C285.686 198.898 285.725 208.481 285.756 216.385C285.786 224.288 285.756 230.485 285.777 234.73C285.777 236.843 285.777 238.461 285.756 239.567C285.756 240.114 285.756 240.52 285.756 240.807C285.756 241.094 285.756 241.228 285.756 241.228C285.756 241.228 285.756 241.088 285.756 240.807C285.756 240.526 285.756 240.107 285.756 239.567C285.756 238.467 285.756 236.843 285.728 234.73C285.701 230.488 285.664 224.276 285.625 216.385C285.585 208.493 285.499 198.895 285.319 187.91C285.262 185.166 285.201 182.333 285.136 179.411C285.05 176.492 284.962 173.496 284.724 170.43C284.585 167.245 285.065 164.063 286.138 161.06C287.202 157.912 288.608 154.89 290.331 152.048L290.309 152.097C293.159 139.271 296.273 125.311 299.572 110.494L299.734 110.711C292.556 110.321 285.362 110.3 278.182 110.647C270.701 110.945 263.259 111.884 255.938 113.453C253.998 113.838 252.108 114.369 250.212 114.861C248.336 115.42 246.458 115.945 244.626 116.589C240.98 117.811 237.406 119.238 233.922 120.865C230.504 122.441 227.214 124.279 224.079 126.362C220.922 128.351 217.804 130.312 214.725 132.244C202.418 139.979 190.789 147.296 180.088 154.018L180.122 153.984C178.115 156.604 176.405 159.438 175.025 162.435C173.681 165.286 172.639 168.271 171.916 171.34C170.878 177.081 170.619 182.936 171.146 188.747C171.418 199.741 171.656 209.339 171.855 217.243C172.053 225.146 172.191 231.358 172.288 235.6C172.331 237.713 172.365 239.338 172.392 240.437C172.392 240.983 172.399 241.396 172.414 241.677C172.368 241.97 172.362 242.111 172.362 242.111Z" fill="#263238"/>
<path d="M299.468 111.557C299.468 111.557 299.581 111.557 299.798 111.536L300.763 111.502L304.479 111.41C307.729 111.346 312.419 111.258 318.265 111.139C329.979 110.937 346.29 110.662 364.739 110.348H364.824L364.879 110.418C366.965 112.974 369.155 115.661 371.39 118.392L389.985 141.195L392.099 143.794C394.105 146.32 395.207 149.446 395.229 152.672C395.246 154.637 394.862 156.585 394.102 158.398C393.367 160.112 392.659 161.757 391.979 163.333L385.566 178.202C384.803 179.946 384.217 181.305 383.801 182.236C383.6 182.685 383.444 183.033 383.331 183.281C383.218 183.528 383.163 183.632 383.163 183.632C383.163 183.632 383.206 183.507 383.297 183.269C383.389 183.03 383.542 182.658 383.731 182.212C384.122 181.268 384.696 179.9 385.432 178.15C386.931 174.614 389.097 169.526 391.754 163.238C393.545 159.982 394.629 156.385 394.933 152.681C394.908 150.618 394.437 148.586 393.552 146.723C393.085 145.755 392.513 144.841 391.845 143.999L389.723 141.409L371.094 118.627C368.868 115.897 366.669 113.209 364.583 110.653L364.723 110.717L318.24 111.389L304.455 111.551L300.738 111.578H299.773L299.468 111.557Z" fill="#263238"/>
<path d="M276.003 173.367C276.003 173.346 276.198 173.346 276.562 173.282C277.087 173.19 277.587 172.989 278.031 172.692C278.733 172.229 279.261 171.544 279.53 170.747C279.687 170.254 279.751 169.736 279.719 169.22C279.702 168.639 279.554 168.068 279.286 167.552C278.974 166.965 278.51 166.473 277.941 166.128C277.373 165.783 276.723 165.598 276.058 165.592H271.34H260.523C259.624 165.594 258.757 165.926 258.087 166.525C257.417 167.124 256.99 167.948 256.889 168.841C256.773 169.691 256.931 170.556 257.337 171.312C257.744 172.024 258.374 172.582 259.13 172.9C259.878 173.157 260.672 173.254 261.46 173.187H263.751L267.867 173.208L273.825 173.263L275.444 173.297C275.631 173.293 275.818 173.308 276.003 173.34C275.815 173.37 275.625 173.382 275.435 173.373L273.816 173.407L267.858 173.462L263.742 173.483H261.451C261.051 173.483 260.666 173.483 260.23 173.483C259.801 173.457 259.38 173.36 258.984 173.196C258.155 172.853 257.464 172.245 257.017 171.468C256.573 170.648 256.399 169.71 256.519 168.786C256.629 167.803 257.096 166.895 257.832 166.235C258.568 165.575 259.522 165.209 260.51 165.207H271.327L276.052 165.228C277.083 165.248 278.066 165.669 278.79 166.403C279.515 167.137 279.924 168.124 279.93 169.156C279.956 169.702 279.877 170.248 279.698 170.765C279.405 171.596 278.837 172.303 278.089 172.769C277.626 173.059 277.104 173.244 276.562 173.309C276.378 173.35 276.191 173.369 276.003 173.367Z" fill="#263238"/>
<path d="M379.574 173.367C379.574 173.346 379.769 173.346 380.132 173.282C380.658 173.19 381.158 172.989 381.601 172.692C382.304 172.229 382.832 171.544 383.101 170.747C383.261 170.255 383.326 169.736 383.29 169.22C383.273 168.639 383.125 168.068 382.857 167.552C382.545 166.965 382.081 166.473 381.512 166.128C380.944 165.783 380.293 165.598 379.629 165.592H374.91H364.094C363.195 165.594 362.328 165.926 361.658 166.525C360.988 167.124 360.561 167.948 360.459 168.841C360.344 169.691 360.501 170.556 360.908 171.312C361.315 172.024 361.945 172.582 362.701 172.9C363.449 173.157 364.243 173.254 365.031 173.187H367.321L371.438 173.208L377.396 173.263L379.015 173.297C379.202 173.293 379.389 173.308 379.574 173.34C379.386 173.37 379.196 173.382 379.006 173.373L377.387 173.407L371.429 173.462L367.312 173.483H365.022C364.622 173.483 364.237 173.483 363.8 173.483C363.372 173.457 362.951 173.36 362.554 173.196C361.726 172.853 361.035 172.245 360.588 171.468C360.144 170.648 359.97 169.71 360.09 168.786C360.199 167.803 360.667 166.895 361.403 166.235C362.139 165.575 363.092 165.209 364.081 165.207H374.898L379.626 165.228C380.657 165.248 381.64 165.669 382.364 166.403C383.089 167.137 383.498 168.124 383.504 169.156C383.53 169.702 383.451 170.248 383.272 170.765C382.979 171.596 382.411 172.303 381.663 172.769C381.2 173.059 380.678 173.244 380.136 173.309C379.951 173.35 379.763 173.369 379.574 173.367Z" fill="#263238"/>
<path d="M470.394 156.461H449.671C448.277 156.461 446.909 156.842 445.716 157.563C444.523 158.283 443.549 159.316 442.9 160.55C442.364 161.569 442.065 162.696 442.025 163.846C441.985 164.997 442.205 166.142 442.668 167.195L450.798 185.659L471.564 185.458C471.564 185.458 475.965 162.04 470.394 156.461Z" fill="#FAFAFA"/>
<path d="M182.583 153.852L289.515 151.885L359.11 150.612L382.06 137.364C382.498 137.11 382.877 136.767 383.171 136.356C383.466 135.945 383.67 135.476 383.77 134.98C383.87 134.484 383.864 133.973 383.751 133.48C383.638 132.987 383.422 132.523 383.117 132.12L368.834 113.351C368.1 112.384 367.153 111.599 366.068 111.055C364.983 110.512 363.787 110.224 362.574 110.215L284.733 109.586C284.733 109.586 255.415 107.885 232.328 120.815C215.093 130.81 198.481 141.843 182.583 153.852Z" fill="#263238"/>
<path d="M231.576 111.516C231.576 111.516 236.939 113.959 233.445 116.228C229.951 118.497 175.781 152.649 175.781 152.649L163.328 147.002C185.395 134.719 207.673 122.781 231.576 111.516Z" fill="#455A64"/>
<path d="M177.544 153.492C177.544 153.492 177.431 153.526 177.208 153.575C176.985 153.623 176.64 153.7 176.221 153.791L172.419 154.576C169.115 155.236 164.326 156.158 158.39 157.175C146.516 159.218 130.019 161.6 111.699 163.188C107.118 163.588 102.638 163.915 98.3134 164.196C93.9891 164.477 89.8144 164.743 85.8505 165.112C78.8174 165.618 71.8508 166.812 65.0504 168.676C60.4746 169.959 56.0713 171.793 51.937 174.136C50.4467 174.921 49.387 175.691 48.6326 176.152C48.2692 176.384 47.9883 176.564 47.7776 176.693L47.4722 176.867C47.4722 176.867 47.5638 176.79 47.744 176.665L48.5777 176.091C49.3198 175.608 50.3703 174.818 51.8545 174.011C55.9752 171.607 60.3806 169.727 64.9679 168.417C71.7764 166.508 78.7589 165.287 85.8108 164.77C89.7808 164.398 93.9525 164.126 98.2798 163.854C102.607 163.582 107.081 163.243 111.659 162.84C129.982 161.258 146.473 158.919 158.344 156.937C164.287 155.951 169.078 155.068 172.392 154.451L176.206 153.73C176.634 153.654 176.963 153.596 177.202 153.547L177.544 153.492Z" fill="#263238"/>
<path d="M478.694 201.379C478.694 201.476 471.566 201.562 462.78 201.562C453.994 201.562 446.86 201.476 446.86 201.379C446.86 201.281 453.988 201.195 462.78 201.195C471.572 201.195 478.694 201.287 478.694 201.379Z" fill="#263238"/>
<path d="M348.288 219.57C348.288 219.668 308.059 219.753 258.44 219.753C208.82 219.753 168.585 219.668 168.585 219.57C168.585 219.472 208.808 219.387 258.44 219.387C308.072 219.387 348.288 219.472 348.288 219.57Z" fill="#263238"/>
<path d="M66.6084 201.98C66.6084 202.078 60.9159 202.163 53.9011 202.163C46.8863 202.163 41.1938 202.081 41.1938 201.98C41.1938 201.879 46.8802 201.797 53.9011 201.797C60.922 201.797 66.6084 201.879 66.6084 201.98Z" fill="#263238"/>
<path d="M436.511 123.859C436.511 123.859 431.735 129.21 433.613 133.128C435.491 137.046 454.884 150.779 454.884 150.779L468.962 153.418L436.511 123.859Z" fill="#455A64"/>
<path d="M302.63 114.289L299.466 148.493L356.122 146.874L378.953 133.599L364.172 114.295L302.63 114.289Z" fill="#455A64"/>
<path d="M195.993 150.233C195.993 150.233 230.172 125.545 243.658 120.644C253.835 116.532 264.705 114.405 275.682 114.377C287.366 114.047 294.487 114.377 294.487 114.377L285.457 149.14L195.993 150.233Z" fill="#455A64"/>
<path d="M191 150.347C191.001 149.284 191.284 148.24 191.821 147.323C192.357 146.405 193.128 145.647 194.053 145.125L201.902 140.715C204.14 139.456 206.664 138.796 209.231 138.797C210.815 138.796 212.389 139.046 213.895 139.539C215.53 140.106 216.954 141.157 217.976 142.553C218.999 143.949 219.573 145.624 219.621 147.354C219.665 148.517 219.474 149.677 219.059 150.764C218.644 151.852 218.015 152.844 217.207 153.683C216.4 154.521 215.432 155.188 214.362 155.644C213.291 156.1 212.139 156.335 210.975 156.335H196.985C195.397 156.335 193.875 155.703 192.752 154.58C191.63 153.457 191 151.934 191 150.347Z" fill="#1985D2"/>
<path d="M191 150.345C191.021 150.345 191.021 150.611 191.091 151.103C191.269 152.39 191.866 153.583 192.791 154.496C193.715 155.41 194.914 155.994 196.204 156.157C197.008 156.214 197.814 156.228 198.619 156.2C202.037 156.2 206.098 156.178 210.6 156.157C211.735 156.183 212.865 155.998 213.931 155.61C215.039 155.194 216.048 154.552 216.894 153.726C217.771 152.872 218.452 151.837 218.888 150.693C219.329 149.511 219.508 148.247 219.413 146.989C219.32 145.749 218.954 144.545 218.343 143.462C217.732 142.379 216.89 141.443 215.877 140.722C214.894 140.058 213.79 139.595 212.627 139.357C211.517 139.091 210.379 138.957 209.238 138.957C207.118 138.955 205.023 139.404 203.09 140.273C202.174 140.68 201.362 141.19 200.54 141.632L198.201 142.933C196.709 143.76 195.367 144.504 194.176 145.166C193.351 145.611 192.642 146.244 192.105 147.012C191.568 147.78 191.217 148.663 191.082 149.591C191.012 150.073 191.018 150.339 190.997 150.339C190.971 150.083 190.971 149.825 190.997 149.57C191.075 148.832 191.294 148.117 191.641 147.462C192.197 146.414 193.046 145.55 194.084 144.976L198.082 142.701C198.824 142.28 199.609 141.84 200.406 141.379C201.203 140.918 202.043 140.414 202.968 139.993C206.017 138.59 209.446 138.245 212.713 139.012C213.915 139.257 215.057 139.737 216.072 140.426C217.13 141.177 218.009 142.151 218.646 143.28C219.284 144.409 219.665 145.665 219.761 146.958C219.864 148.272 219.677 149.591 219.215 150.825C218.763 151.994 218.069 153.055 217.177 153.936C216.285 154.818 215.216 155.5 214.041 155.937C212.933 156.335 211.759 156.523 210.581 156.49L198.601 156.447C197.786 156.466 196.97 156.443 196.158 156.377C195.426 156.277 194.72 156.044 194.072 155.69C193.039 155.111 192.192 154.251 191.629 153.21C191.286 152.554 191.069 151.839 190.991 151.103C190.972 150.85 190.975 150.597 191 150.345Z" fill="#1985D2"/>
<path d="M454.336 241.558C454.336 241.558 454.336 241.391 454.357 241.076C454.379 240.761 454.412 240.27 454.455 239.656C454.498 239.042 454.568 238.263 454.608 237.344C454.648 236.425 454.678 235.368 454.712 234.186C454.745 233.005 454.712 231.673 454.69 230.216C454.599 228.775 454.593 227.199 454.385 225.526C454.067 221.715 453.391 217.943 452.363 214.26C451.759 212.124 451.013 210.03 450.131 207.993C449.188 205.779 448.057 203.65 446.75 201.629C443.833 197.182 440.124 193.309 435.808 190.201C431.053 186.747 425.742 184.13 420.105 182.466C414.036 180.74 407.749 179.903 401.44 179.98C395.128 179.918 388.844 180.831 382.811 182.688C379.958 183.59 377.188 184.737 374.532 186.115C371.996 187.465 369.587 189.04 367.334 190.821C363.152 194.106 359.424 197.929 356.245 202.191C354.849 204.149 353.617 206.22 352.562 208.381C351.599 210.383 350.748 212.438 350.012 214.535C347.77 220.867 346.411 227.477 345.972 234.18C345.859 236.553 345.874 238.401 345.929 239.647C345.962 240.257 345.993 240.74 346.011 241.067C346.03 241.394 346.011 241.549 346.011 241.549C346.011 241.549 345.99 241.387 345.956 241.067C345.923 240.746 345.886 240.261 345.837 239.647C345.735 237.816 345.726 235.981 345.81 234.15C346.197 227.424 347.524 220.785 349.752 214.428C350.486 212.319 351.334 210.253 352.293 208.237C353.354 206.058 354.591 203.97 355.991 201.992C359.173 197.696 362.915 193.843 367.117 190.537C369.383 188.741 371.807 187.153 374.358 185.791C377.036 184.405 379.828 183.25 382.704 182.34C388.77 180.467 395.091 179.546 401.44 179.61C407.782 179.534 414.102 180.379 420.203 182.117C425.875 183.802 431.217 186.445 435.997 189.932C438.214 191.561 440.285 193.379 442.188 195.365C443.996 197.231 445.608 199.277 446.998 201.473C448.31 203.508 449.441 205.654 450.378 207.886C451.257 209.938 451.999 212.046 452.598 214.196C453.616 217.891 454.28 221.674 454.58 225.495C454.77 227.175 454.764 228.757 454.846 230.201C454.846 231.652 454.846 232.974 454.846 234.171C454.846 235.368 454.748 236.413 454.706 237.335C454.663 238.257 454.565 239.021 454.516 239.647C454.467 240.273 454.419 240.731 454.382 241.067C454.345 241.403 454.336 241.558 454.336 241.558Z" fill="white"/>
<path d="M283.951 153.858C283.898 153.874 283.844 153.881 283.789 153.879L283.313 153.901C282.865 153.901 282.254 153.915 281.48 153.943L274.762 154.062C269.091 154.166 261.263 154.368 252.609 154.615C243.954 154.863 236.118 155.021 230.45 155.055C227.616 155.076 225.319 155.076 223.731 155.055L221.899 155.027C221.709 155.027 221.557 155.027 221.422 155.027C221.417 155.047 221.405 155.064 221.388 155.075C221.372 155.086 221.352 155.09 221.332 155.088C221.312 155.085 221.294 155.075 221.281 155.06C221.268 155.045 221.26 155.026 221.26 155.006C221.26 154.986 221.268 154.967 221.281 154.952C221.294 154.937 221.312 154.927 221.332 154.924C221.352 154.922 221.372 154.926 221.388 154.938C221.405 154.949 221.417 154.965 221.422 154.985L221.899 154.963C222.347 154.963 222.957 154.949 223.731 154.921L230.45 154.801C236.121 154.698 243.954 154.496 252.609 154.249C261.263 154.001 269.1 153.843 274.768 153.809C277.605 153.788 279.898 153.788 281.486 153.809L283.319 153.836C283.508 153.836 283.661 153.836 283.795 153.836C283.848 153.835 283.9 153.842 283.951 153.858Z" fill="white"/>
<path d="M274.676 164.377C270.591 164.62 266.494 164.62 262.409 164.377C266.494 164.135 270.591 164.135 274.676 164.377Z" fill="white"/>
<path d="M276.93 126.912C276.963 127.004 269.353 130.174 259.923 133.991C250.492 137.809 242.821 140.826 242.775 140.734C242.729 140.643 250.352 137.473 259.782 133.655C269.213 129.838 276.887 126.821 276.93 126.912Z" fill="white"/>
<path d="M261.491 129.303C261.534 129.394 254.281 132.586 245.306 136.437C236.33 140.288 229.007 143.326 228.97 143.235C228.934 143.143 236.181 139.952 245.156 136.101C254.131 132.25 261.458 129.211 261.491 129.303Z" fill="white"/>
<path d="M359.343 125.584C359.377 125.676 351.767 128.846 342.336 132.663C332.906 136.481 325.234 139.498 325.189 139.406C325.143 139.315 332.765 136.145 342.196 132.327C351.626 128.51 359.31 125.487 359.343 125.584Z" fill="white"/>
<path d="M343.921 127.975C343.964 128.066 336.711 131.258 327.736 135.109C318.76 138.96 311.437 141.998 311.401 141.907C311.364 141.815 318.611 138.624 327.586 134.773C336.562 130.922 343.888 127.883 343.921 127.975Z" fill="white"/>
<path d="M360.846 153.845C360.846 153.942 345.702 154.116 327.021 154.229C308.341 154.342 293.196 154.348 293.196 154.251C293.196 154.153 308.335 153.979 327.021 153.866C345.708 153.753 360.846 153.741 360.846 153.845Z" fill="white"/>
<path d="M377.601 163.797C377.601 163.894 373.359 164.019 368.112 164.068C362.866 164.117 358.627 164.068 358.627 163.977C358.627 163.885 362.869 163.754 368.112 163.705C373.356 163.656 377.601 163.693 377.601 163.797Z" fill="white"/>
<path d="M87.6449 158.616C87.5117 158.661 87.3729 158.686 87.2327 158.693L86.0416 158.845C85.5225 158.9 84.8934 158.986 84.1666 159.105C83.4397 159.224 82.606 159.328 81.696 159.511C79.8636 159.817 77.7259 160.308 75.3377 160.94C72.9496 161.572 70.4027 162.418 67.7702 163.438C65.1377 164.458 62.6946 165.622 60.5172 166.749C58.3398 167.876 56.4433 169.012 54.8797 170.026C54.0887 170.508 53.4016 171 52.7939 171.412C52.1861 171.824 51.6609 172.188 51.2456 172.496C50.8302 172.805 50.5248 173.006 50.2714 173.19C50.1597 173.275 50.0401 173.35 49.9141 173.412C50.0059 173.309 50.1083 173.214 50.2194 173.131L51.157 172.383C51.5632 172.053 52.0732 171.669 52.6839 171.241C53.2947 170.814 53.9666 170.325 54.7484 169.806C56.2967 168.761 58.1993 167.622 60.3645 166.447C62.7283 165.195 65.1588 164.073 67.645 163.087C70.1372 162.122 72.6797 161.292 75.2614 160.601C77.6495 159.991 79.8178 159.529 81.6746 159.242C82.5907 159.074 83.4306 158.983 84.1604 158.891C84.8903 158.8 85.5255 158.729 86.0447 158.696C86.5639 158.662 86.9273 158.632 87.2418 158.604C87.3763 158.598 87.511 158.602 87.6449 158.616Z" fill="white"/>
<path d="M212.669 142.099C212.641 142.12 212.458 141.827 211.997 141.448C211.323 140.939 210.524 140.623 209.685 140.532C208.427 140.433 207.161 140.571 205.953 140.938C201.687 142.01 197.725 144.049 194.373 146.897C192.705 148.295 191.832 149.34 191.774 149.276C191.944 149.008 192.141 148.759 192.363 148.533C192.938 147.888 193.55 147.276 194.196 146.701C196.332 144.791 198.762 143.238 201.394 142.102C202.839 141.477 204.336 140.978 205.868 140.612C207.117 140.252 208.425 140.137 209.719 140.276C210.599 140.396 211.424 140.773 212.091 141.36C212.269 141.521 212.427 141.702 212.562 141.9C212.638 142.016 212.681 142.093 212.669 142.099Z" fill="white"/>
<path d="M438.086 123.607C437.11 123.844 436.107 123.947 435.103 123.912C433.927 123.88 432.757 123.735 431.609 123.479C430.093 123.132 428.605 122.674 427.156 122.107C425.538 121.497 423.815 120.721 421.965 119.93L419.061 118.754C418.059 118.354 417.002 118.012 415.936 117.621C411.264 116.038 406.499 114.741 401.669 113.737C392.884 111.903 383.965 110.792 374.999 110.417C373.276 110.325 371.722 110.325 370.357 110.283H366.848L364.628 110.332C364.39 110.332 364.2 110.332 364.054 110.332C363.989 110.342 363.923 110.342 363.858 110.332C363.922 110.315 363.988 110.305 364.054 110.304C364.2 110.304 364.396 110.283 364.628 110.261L366.848 110.142C367.822 110.142 368.986 110.109 370.363 110.078C371.734 110.1 373.298 110.078 375.02 110.154C384.007 110.456 392.95 111.534 401.751 113.376C406.597 114.384 411.375 115.695 416.056 117.304C417.127 117.695 418.193 118.046 419.186 118.452L422.099 119.649C423.962 120.461 425.669 121.246 427.272 121.86C428.704 122.437 430.176 122.91 431.676 123.274C432.809 123.541 433.964 123.705 435.127 123.763C435.863 123.79 436.6 123.761 437.332 123.677L437.906 123.607C438.031 123.607 438.086 123.601 438.086 123.607Z" fill="#263238"/>
<path d="M101.229 124.561C99.941 116.717 97.8408 109.027 94.9621 101.617C93.4015 96.4075 90.8668 92.9229 87.7365 91.7167C85.6233 90.9043 75.0934 87.1022 71.4165 88.3573C67.826 89.6311 64.4087 91.3485 61.244 93.4696C58.7863 95.0994 56.9238 97.4827 55.9363 100.261L50.2988 116.062L60.1568 125.899L65.1011 115.397L70.4637 127.972L69.6728 140.68L100.438 148.956C103.226 144.476 102.82 133.262 101.229 124.561Z" fill="#4E9C0B"/>
<g opacity="0.2">
<path d="M93.211 107.859C91.852 115.833 91.6352 116.933 90.2762 124.906C89.8033 128.174 88.5017 131.266 86.4954 133.888C85.2301 135.451 83.5412 136.618 81.6306 137.247C79.495 137.762 77.2574 137.665 75.1747 136.966C74.2014 136.344 73.439 135.442 72.9878 134.379C72.5365 133.315 72.4174 132.14 72.6461 131.008C75.251 131.567 76.0634 132.437 78.311 131.008C80.6606 129.427 82.6401 127.356 84.1134 124.937C88.6087 116.255 89.8487 115.946 93.2018 107.859" fill="black"/>
</g>
<path d="M70.9495 123.311C70.4489 122.635 69.9949 121.926 69.5905 121.189C68.7293 119.781 67.6299 117.998 66.4175 116.022C65.2051 114.046 64.0507 112.296 63.1682 110.903C62.6894 110.219 62.2549 109.505 61.8672 108.766C62.0376 108.917 62.1856 109.092 62.307 109.285C62.5727 109.627 62.9361 110.14 63.385 110.775C64.2798 112.049 65.4708 113.829 66.7259 115.845C67.9811 117.86 69.0561 119.717 69.8073 121.076C70.186 121.754 70.4792 122.316 70.6746 122.701C70.7978 122.888 70.8905 123.095 70.9495 123.311Z" fill="#263238"/>
<path d="M92.4256 137.622C92.1961 137.739 91.9544 137.83 91.7049 137.894C91.417 137.99 91.1244 138.072 90.8284 138.138C90.4863 138.215 90.0924 138.321 89.6526 138.383C88.6235 138.56 87.5818 138.654 86.5377 138.664C83.9712 138.686 81.4239 138.221 79.0312 137.292C78.0572 136.914 77.1155 136.458 76.2155 135.927C75.8668 135.73 75.5284 135.515 75.2016 135.283C74.9495 135.12 74.7068 134.942 74.4748 134.751C74.2598 134.608 74.0647 134.436 73.8945 134.241C73.9373 134.186 74.8107 134.852 76.3377 135.704C77.2424 136.194 78.1801 136.619 79.1442 136.978C80.327 137.406 81.5423 137.739 82.7783 137.973C84.0184 138.187 85.2733 138.305 86.5316 138.325C87.5592 138.334 88.5861 138.266 89.6038 138.123C91.3536 137.882 92.4042 137.552 92.4256 137.622Z" fill="#263238"/>
<path d="M80.0664 113.747C80.0115 114.019 76.7071 120.6 76.7071 120.6L61.1079 112.379L59.5198 105.66C59.3932 105.125 59.162 104.619 58.8394 104.173C58.5169 103.727 58.1094 103.349 57.6404 103.06C57.1713 102.772 56.6499 102.579 56.1062 102.493C55.5624 102.407 55.007 102.429 54.4717 102.558L49.8726 104.442C49.6822 104.515 49.5131 104.635 49.3808 104.79C49.2485 104.945 49.1572 105.131 49.1152 105.331C49.0511 105.673 49.1366 106.003 49.726 105.941C50.8681 105.85 53.2471 105.599 53.2471 105.599L52.163 109.429C51.8756 110.433 51.985 111.509 52.4684 112.434L53.1616 113.756L54.6885 116.2L54.6611 116.221C54.6611 116.221 69.8267 131.796 78.341 132.807C83.4593 133.417 89.2556 119.064 89.2556 119.064L80.0664 113.747Z" fill="#B78876"/>
<path d="M53.1123 105.879C53.1123 105.858 53.2314 105.717 53.491 105.543C53.8375 105.302 54.2506 105.175 54.6728 105.18C54.8911 105.188 55.1031 105.255 55.2868 105.373C55.4705 105.491 55.6191 105.657 55.7173 105.852C55.8577 106.157 55.7661 106.377 55.7448 106.371C55.7234 106.365 55.7448 106.169 55.5768 105.931C55.4734 105.781 55.3372 105.656 55.1785 105.566C55.0198 105.476 54.8427 105.423 54.6606 105.412C54.2783 105.412 53.9022 105.508 53.5673 105.693C53.3016 105.815 53.1459 105.907 53.1123 105.879Z" fill="#AA6550"/>
<path d="M55.0667 108.262C55.0331 108.262 54.9689 108.137 54.8132 107.956C54.6235 107.717 54.3753 107.531 54.0925 107.416C53.8079 107.306 53.4994 107.272 53.1977 107.318C52.9595 107.352 52.819 107.404 52.7976 107.373C52.7762 107.343 52.9106 107.239 53.161 107.156C53.4947 107.06 53.8505 107.075 54.1749 107.199C54.4994 107.327 54.7707 107.562 54.9445 107.865C55.0667 108.088 55.0941 108.256 55.0667 108.262Z" fill="#AA6550"/>
<path d="M83.2996 92.9809L79.0791 112.999L90.2747 119.718L94.5746 107.417C94.5746 107.417 92.7942 92.4831 83.2996 92.9809Z" fill="#4E9C0B"/>
<path d="M89.3434 93.3359C89.3434 93.3359 89.2518 93.4062 89.0563 93.5192C88.8609 93.6322 88.5799 93.7788 88.2013 93.9681C87.4592 94.3468 86.3689 94.8843 85.0099 95.495C81.4599 97.1234 77.7205 98.3021 73.8785 99.0039C70.016 99.6978 66.0503 99.5646 62.2431 98.6131C61.096 98.3145 59.9779 97.9138 58.9022 97.4159C58.5174 97.248 58.2364 97.08 58.041 96.9823C57.9381 96.937 57.8416 96.8785 57.7539 96.8082C58.1636 96.9468 58.5652 97.1079 58.9571 97.2907C60.0482 97.734 61.1712 98.0944 62.3164 98.3687C66.0954 99.2341 70.0099 99.3297 73.8266 98.6497C77.6393 97.9479 81.3595 96.8137 84.9153 95.269C86.2864 94.6949 87.395 94.1971 88.1493 93.8612C88.5349 93.6589 88.9338 93.4834 89.3434 93.3359Z" fill="#EBEBEB"/>
<path d="M92.2966 95.543C92.2966 95.543 92.1989 95.6346 91.9912 95.7751C91.7835 95.9156 91.4384 96.1324 91.075 96.3706C90.5814 96.6888 90.0718 96.9814 89.5481 97.247C88.9373 97.5524 88.2746 97.9556 87.4836 98.2976L86.2621 98.8565C85.8345 99.0519 85.3734 99.2138 84.9031 99.397C83.9869 99.7879 82.9364 100.105 81.8492 100.454C77.1199 101.88 72.177 102.465 67.2455 102.182C66.1125 102.091 65.0344 102.029 64.0389 101.877C63.5411 101.8 63.0525 101.752 62.5974 101.666L61.2751 101.406C60.4292 101.26 59.6871 101.037 59.0274 100.866C58.4612 100.727 57.9025 100.559 57.3539 100.362L56.3095 99.9986C56.1859 99.9616 56.0662 99.9125 55.9521 99.852C56.0806 99.8646 56.2075 99.8902 56.3308 99.9284L57.3875 100.234C57.8425 100.374 58.4014 100.539 59.0671 100.674C59.7329 100.808 60.475 101.031 61.3148 101.156L62.631 101.394C63.0861 101.471 63.5686 101.513 64.0664 101.584C65.0619 101.73 66.1308 101.785 67.2516 101.865C69.6976 101.968 72.1479 101.883 74.5809 101.611C77.0043 101.303 79.4012 100.814 81.7515 100.148C82.8234 99.8062 83.8526 99.5039 84.784 99.1344C85.2543 98.9511 85.7002 98.7985 86.1338 98.6152L87.3554 98.0747C88.1463 97.754 88.8182 97.3753 89.429 97.0791C90.0398 96.7829 90.5498 96.4988 90.9559 96.2606L91.9148 95.7293C92.0354 95.6543 92.1633 95.5918 92.2966 95.543Z" fill="#EBEBEB"/>
<path d="M90.2766 119.718C89.9591 119.589 89.6526 119.435 89.3605 119.256C88.7497 118.905 87.9099 118.444 86.896 117.87L78.4733 113.017L78.3604 112.953L78.3817 112.834C78.6871 111.335 78.9925 109.731 79.3406 108.079C79.8507 105.587 80.3362 103.221 80.776 101.055C81.0081 99.9773 81.1974 98.9481 81.4051 98.0014C81.5957 97.0998 81.8962 96.2249 82.2999 95.3964C82.8826 94.1698 83.9198 93.218 85.1919 92.7426C85.537 92.6251 85.8993 92.5662 86.2638 92.5685C86.3916 92.5606 86.5197 92.5751 86.6425 92.6113C86.165 92.6374 85.6934 92.7289 85.2408 92.8831C84.0376 93.3868 83.0698 94.3273 82.532 95.5155C82.1512 96.3274 81.8712 97.1827 81.6982 98.0625C81.5089 99.0275 81.3135 100.051 81.1027 101.116C80.6691 103.279 80.1866 105.654 79.6949 108.14C79.359 109.792 79.0292 111.396 78.7299 112.895L78.6474 112.712C81.9884 114.694 84.8865 116.416 86.9998 117.675C87.9954 118.285 88.8047 118.774 89.4154 119.144C89.7188 119.309 90.007 119.501 90.2766 119.718Z" fill="#263238"/>
<path d="M93.7147 106.824C93.7724 107.447 93.754 108.075 93.6597 108.693C93.353 111.691 92.5802 114.622 91.3692 117.382C91.1508 117.967 90.8594 118.522 90.502 119.034C90.6681 118.436 90.8784 117.851 91.131 117.284C92.2002 114.5 92.9631 111.608 93.4062 108.66C93.47 108.042 93.5731 107.429 93.7147 106.824Z" fill="#263238"/>
<path d="M32.9686 218.168L32.8434 228.857C32.8434 228.857 21.9348 232.323 21.7241 234.296L42.4417 235.282L43.3182 218.632L32.9686 218.168Z" fill="#455A64"/>
<path d="M39.2978 228.256C39.4955 228.325 39.6603 228.465 39.7603 228.649C39.8602 228.833 39.888 229.048 39.8383 229.251C39.7754 229.45 39.6389 229.618 39.4567 229.719C39.2745 229.821 39.0603 229.849 38.8581 229.798C38.6497 229.723 38.4765 229.573 38.3717 229.378C38.2668 229.183 38.2378 228.956 38.29 228.741C38.3777 228.541 38.5392 228.382 38.741 228.297C38.9429 228.212 39.1696 228.208 39.3742 228.286" fill="#E0E0E0"/>
<path d="M42.4273 235.27L42.4487 233.59L22.58 233.285C22.58 233.285 21.6425 233.642 21.7127 234.299L42.4273 235.27Z" fill="#E0E0E0"/>
<path d="M32.5106 228.734C32.5106 228.832 33.0146 228.902 33.4971 229.253C33.9796 229.604 34.2239 230.038 34.3155 230.001C34.4071 229.965 34.288 229.372 33.7047 228.966C33.1214 228.56 32.4923 228.636 32.5106 228.734Z" fill="#263238"/>
<path d="M30.2913 229.524C30.2638 229.622 30.6914 229.811 31.0181 230.26C31.3449 230.709 31.4182 231.176 31.522 231.176C31.6259 231.176 31.7114 230.608 31.3052 230.062C30.899 229.515 30.2913 229.433 30.2913 229.524Z" fill="#263238"/>
<path d="M28.9251 232.071C29.0167 232.099 29.1846 231.595 28.9464 231.036C28.7082 230.477 28.2532 230.224 28.2043 230.309C28.1555 230.395 28.4364 230.7 28.6166 231.17C28.7968 231.641 28.8243 232.041 28.9251 232.071Z" fill="#263238"/>
<path d="M32.8122 226.293C32.8458 226.384 33.3222 226.271 33.8902 226.335C34.4583 226.399 34.898 226.601 34.953 226.519C35.008 226.436 34.5957 226.057 33.9238 225.987C33.252 225.917 32.7694 226.216 32.8122 226.293Z" fill="#263238"/>
<g opacity="0.3">
<path d="M32.9435 220.281L32.916 222.187L43.1038 222.578L43.1954 220.861L32.9435 220.281Z" fill="black"/>
</g>
<path d="M32.8848 224.14C33.2192 224.25 33.5776 224.265 33.92 224.183C34.5201 224.104 35.0996 223.911 35.6272 223.615C35.7471 223.557 35.8556 223.478 35.9478 223.382C36.0191 223.314 36.0649 223.223 36.0776 223.125C36.0904 223.026 36.0694 222.927 36.0181 222.842C35.9711 222.768 35.9073 222.707 35.8319 222.663C35.7565 222.619 35.6716 222.593 35.5844 222.588C35.4532 222.58 35.3214 222.592 35.1935 222.622C34.9694 222.665 34.7496 222.729 34.5369 222.811C34.1796 222.952 33.8466 223.147 33.5505 223.392C33.0466 223.813 32.8634 224.183 32.9 224.204C32.9367 224.225 33.2054 223.932 33.6971 223.593C33.9937 223.395 34.3138 223.236 34.6499 223.117C34.8492 223.05 35.0534 222.999 35.2607 222.964C35.4836 222.915 35.6669 222.921 35.7218 223.028C35.7432 223.062 35.7432 223.083 35.6943 223.141C35.6236 223.209 35.5433 223.265 35.4562 223.309C35.2749 223.414 35.0884 223.51 34.8973 223.596C34.5671 223.739 34.2247 223.851 33.8742 223.932C33.541 223.984 33.2108 224.054 32.8848 224.14Z" fill="#263238"/>
<path d="M33.0118 224.298C33.2201 224.012 33.3323 223.666 33.3325 223.312C33.3719 222.929 33.3408 222.542 33.2409 222.17C33.1812 221.949 33.1035 221.734 33.0088 221.526C32.9596 221.386 32.8748 221.261 32.7629 221.165C32.651 221.068 32.5157 221.002 32.3705 220.973C32.2783 220.971 32.1873 220.994 32.1079 221.041C32.0285 221.088 31.9639 221.156 31.9216 221.238C31.8641 221.359 31.8221 221.486 31.7964 221.617C31.7508 221.847 31.7394 222.083 31.7628 222.317C31.8018 222.707 31.936 223.083 32.1537 223.41C32.5324 223.963 32.9507 224.109 32.9599 224.076C32.9691 224.042 32.6545 223.816 32.3644 223.285C32.2 222.98 32.1042 222.644 32.0834 222.298C32.0683 222.098 32.0848 221.897 32.1323 221.703C32.175 221.486 32.2667 221.312 32.3491 221.339C32.4316 221.367 32.6209 221.513 32.7003 221.697C32.7956 221.88 32.8733 222.072 32.9324 222.271C33.0326 222.61 33.084 222.962 33.0851 223.315C33.0821 223.901 32.9538 224.271 33.0118 224.298Z" fill="#263238"/>
<path d="M75.1897 140.8C75.1897 140.8 42.8367 127.232 32.8169 126.652C26.538 126.288 21.7831 130.316 22.6382 136.824C23.0658 140.08 32.0045 178.14 32.0045 178.14L45.6432 171.91L39.0896 145.592L65.6584 158.51L75.1897 140.8Z" fill="#263238"/>
<path d="M35.0026 138.93C35.6438 140.064 36.3421 141.164 37.0945 142.228C38.2275 144.06 38.9848 145.63 39.1101 145.587C38.3584 143.045 36.939 140.75 34.9995 138.942L35.0026 138.93Z" fill="#455A64"/>
<path d="M32.3516 140.441C33.4619 141.362 34.6232 142.22 35.83 143.01C36.944 143.926 38.1083 144.779 39.3175 145.566C38.4131 144.42 37.3304 143.427 36.1109 142.625C34.9848 141.698 33.715 140.96 32.3516 140.441Z" fill="#455A64"/>
<path d="M100.419 148.959C98.2921 151.738 95.5819 154.018 92.4791 155.637C87.5929 157.436 51.5569 174.45 51.5569 174.45C51.5569 174.45 45.0185 223.025 45.5346 221L30.4453 220.637L32.0822 175.891C32.4533 172.784 33.5196 169.802 35.2019 167.164C36.8842 164.526 39.1394 162.301 41.7997 160.655L75.1818 140.805L100.419 148.959Z" fill="#263238"/>
<path d="M31.7881 184.079C31.8271 183.877 31.8485 183.673 31.8523 183.468C31.8736 183.019 31.9072 182.433 31.9439 181.712C32.0232 179.558 32.222 177.41 32.5394 175.277C32.9798 172.126 34.0921 169.106 35.801 166.421C36.8634 164.881 38.174 163.528 39.6794 162.418C41.3134 161.228 43.0232 160.145 44.7977 159.177C52.0568 155.018 58.3234 150.776 62.9592 147.878C65.271 146.409 67.1462 145.239 68.4563 144.439L69.9557 143.523C70.1366 143.423 70.3074 143.305 70.4657 143.172C70.273 143.242 70.0878 143.331 69.913 143.438C69.5557 143.627 69.0304 143.908 68.3646 144.283C67.027 145.032 65.1245 146.159 62.7913 147.594C58.1066 150.431 51.8125 154.618 44.5748 158.774C42.78 159.75 41.0536 160.847 39.4076 162.057C37.8633 163.204 36.5214 164.6 35.4375 166.189C33.7102 168.938 32.6082 172.034 32.2096 175.256C31.9208 177.403 31.7709 179.567 31.7606 181.733V183.499C31.7508 183.692 31.76 183.887 31.7881 184.079Z" fill="#455A64"/>
<path d="M87.1124 154.079C87.1674 154.015 86.7276 153.609 86.1963 152.833C85.5006 151.82 85.0146 150.678 84.767 149.474C84.5222 148.273 84.5222 147.035 84.767 145.834C84.9188 145.339 85.0432 144.836 85.1396 144.328C84.7974 144.739 84.5595 145.226 84.4464 145.748C84.0889 146.991 84.0357 148.301 84.2914 149.568C84.5471 150.835 85.1041 152.022 85.9153 153.029C86.5597 153.798 87.0849 154.122 87.1124 154.079Z" fill="#455A64"/>
<path d="M35.9838 220.633C36.0071 220.553 36.0234 220.471 36.0326 220.388C36.054 220.199 36.0876 219.955 36.1243 219.652C36.1945 218.974 36.2983 218.022 36.4296 216.824C36.674 214.332 37.0251 210.781 37.4527 206.414C37.6634 204.209 37.8925 201.805 38.1398 199.222C38.3872 196.638 38.6498 193.871 38.8545 190.961C39.0591 188.051 39.3583 185.003 39.8836 181.888C40.3945 178.667 41.3268 175.527 42.6565 172.549C44.056 169.6 45.911 166.889 48.1536 164.517C50.2414 162.303 52.5293 160.288 54.9882 158.495C59.2088 155.519 63.5929 152.781 68.1199 150.295C71.9495 148.096 75.0034 146.221 77.0312 144.798C78.0543 144.099 78.8238 143.531 79.343 143.131L79.9232 142.676C80.0485 142.572 80.1187 142.514 80.1126 142.508C80.0337 142.541 79.9606 142.586 79.8958 142.642L79.285 143.064C78.7536 143.433 77.9626 143.98 76.9335 144.652C74.8751 146.017 71.809 147.837 67.9581 150.002C63.3929 152.451 58.9764 155.168 54.7317 158.138C52.242 159.936 49.9262 161.963 47.8146 164.194C45.5426 166.602 43.6639 169.352 42.2473 172.344C40.9017 175.363 39.9601 178.546 39.4469 181.811C38.9216 184.954 38.6498 188.023 38.4391 190.933C38.2284 193.844 38.0055 196.611 37.7734 199.194C37.5413 201.778 37.3397 204.187 37.1626 206.392C36.7992 210.768 36.4968 214.332 36.2861 216.818C36.1945 218.024 36.1243 218.969 36.0754 219.655C36.054 219.961 36.0418 220.202 36.0326 220.397C36.0235 220.593 35.9716 220.633 35.9838 220.633Z" fill="#455A64"/>
<path d="M71.5124 63.7413C71.0051 62.4323 70.047 61.3475 68.8107 60.6823C67.5745 60.0172 66.1413 59.8153 64.7694 60.1133C64.1647 60.3297 63.5344 60.4663 62.8943 60.5195C62.1174 60.3834 61.354 60.179 60.613 59.9086C59.7722 59.7704 58.9099 59.9508 58.1949 60.4144C57.4799 60.8781 56.9636 61.5917 56.7468 62.4159C56.0879 62.2568 55.4023 62.2426 54.7375 62.3745C54.0726 62.5063 53.4442 62.7809 52.8958 63.1794C52.3608 63.5957 51.9816 64.18 51.8192 64.8382C51.6569 65.4964 51.721 66.1901 52.0011 66.8074C52.2729 67.3174 52.7218 67.7236 52.9753 68.2488C53.2103 69.1714 53.3807 70.1092 53.4853 71.0554C53.7542 71.7129 54.2026 72.2815 54.7794 72.6962C55.3561 73.111 56.0379 73.3551 56.7468 73.4008C58.1666 73.4662 59.5859 73.2589 60.9276 72.79" fill="#263238"/>
<path d="M65.0447 91.4289C64.8707 90.0791 64.7393 89.1263 64.7393 89.1263C63.2267 88.9747 61.8004 88.3496 60.6638 87.3401C59.5271 86.3306 58.7379 84.9882 58.4086 83.504C57.4365 79.7913 56.8109 75.9963 56.5396 72.168C56.4593 71.3433 56.5469 70.511 56.7971 69.7211C57.0474 68.9313 57.4551 68.2003 57.9957 67.5724C58.5363 66.9445 59.1985 66.4327 59.9423 66.0678C60.6862 65.7029 61.4963 65.4925 62.3237 65.4494L74.3103 64.8203L74.5698 66.6771L77.7276 89.7248C77.9542 91.4098 77.5025 93.1158 76.4717 94.4679C75.4409 95.8199 73.9154 96.7074 72.2306 96.9351C70.548 97.1546 68.8471 96.6983 67.5003 95.6663C66.1534 94.6343 65.2704 93.1106 65.0447 91.4289Z" fill="#B78876"/>
<path d="M58.2428 75.474C58.2716 75.666 58.3742 75.8392 58.5288 75.9567C58.6833 76.0742 58.8777 76.1267 59.0704 76.1031C59.1651 76.0955 59.2573 76.069 59.3416 76.0251C59.4259 75.9813 59.5006 75.921 59.5612 75.8479C59.6218 75.7747 59.6672 75.6902 59.6946 75.5992C59.7221 75.5082 59.731 75.4127 59.7209 75.3182C59.6921 75.1262 59.5895 74.953 59.4349 74.8355C59.2803 74.718 59.086 74.6655 58.8933 74.6891C58.7986 74.6968 58.7064 74.7233 58.6221 74.7671C58.5378 74.8109 58.4631 74.8712 58.4025 74.9443C58.3418 75.0175 58.2965 75.102 58.2691 75.193C58.2416 75.284 58.2327 75.3795 58.2428 75.474Z" fill="#263238"/>
<path d="M57.9429 74.4356C58.0468 74.5181 58.5384 74.0142 59.3294 73.889C60.1203 73.7638 60.7647 74.0722 60.835 73.9592C60.8686 73.9104 60.7494 73.7485 60.4715 73.608C60.092 73.4257 59.6654 73.3649 59.25 73.434C58.8397 73.5002 58.4604 73.6935 58.1659 73.9867C57.9429 74.2127 57.8849 74.402 57.9429 74.4356Z" fill="#263238"/>
<path d="M65.754 74.1967C65.7828 74.3887 65.8854 74.5619 66.04 74.6794C66.1946 74.7969 66.3889 74.8494 66.5816 74.8257C66.6763 74.8181 66.7685 74.7916 66.8528 74.7478C66.9371 74.7039 67.0118 74.6437 67.0724 74.5706C67.1331 74.4974 67.1784 74.4128 67.2059 74.3219C67.2333 74.2309 67.2422 74.1353 67.2321 74.0409C67.2033 73.8489 67.1007 73.6757 66.9461 73.5582C66.7916 73.4407 66.5972 73.3882 66.4045 73.4118C66.3098 73.4194 66.2176 73.4459 66.1333 73.4898C66.049 73.5336 65.9743 73.5939 65.9137 73.667C65.8531 73.7402 65.8077 73.8247 65.7803 73.9157C65.7529 74.0066 65.7439 74.1022 65.754 74.1967Z" fill="#263238"/>
<path d="M65.7438 73.3419C65.8476 73.4274 66.3546 72.9204 67.1363 72.7952C67.9181 72.67 68.5717 72.9785 68.6419 72.8655C68.6755 72.8166 68.5564 72.6548 68.2785 72.5143C67.8989 72.332 67.4723 72.2711 67.0569 72.3402C66.6466 72.4064 66.2674 72.5997 65.9728 72.893C65.7438 73.1189 65.6949 73.3083 65.7438 73.3419Z" fill="#263238"/>
<path d="M63.8041 79.6704C63.3662 79.6065 62.922 79.5973 62.4818 79.6429C62.2802 79.6429 62.0756 79.6429 62.0207 79.5086C61.9734 79.3053 61.9883 79.0925 62.0634 78.8978C62.1764 78.3786 62.2955 77.835 62.4146 77.267C62.7643 75.8768 62.9983 74.4601 63.114 73.0312C62.6562 74.392 62.3069 75.7869 62.0695 77.2029C61.9565 77.777 61.8466 78.3236 61.7397 78.8397C61.649 79.1043 61.6566 79.3927 61.7611 79.6521C61.802 79.7185 61.8572 79.7749 61.9227 79.8172C61.9882 79.8595 62.0624 79.8865 62.1398 79.8964C62.2564 79.9109 62.3743 79.9109 62.491 79.8964C62.936 79.8726 63.3767 79.7967 63.8041 79.6704Z" fill="#263238"/>
<path d="M64.7417 89.1145C67.4478 88.7268 69.9928 87.5944 72.0924 85.8438C71.5295 87.2426 70.5509 88.435 69.2889 89.2602C68.0269 90.0853 66.5421 90.5035 65.0349 90.4582L64.7417 89.1145Z" fill="#AA6550"/>
<path d="M66.2071 79.8443C66.0728 79.8443 66.2071 80.7207 65.578 81.4415C64.9489 82.1622 64.0084 82.2171 64.0236 82.3363C64.0236 82.3912 64.2557 82.4706 64.6344 82.4218C65.1387 82.3467 65.6015 82.0996 65.9445 81.7225C66.2716 81.3581 66.4426 80.88 66.4209 80.3909C66.3965 80.0275 66.2621 79.8321 66.2071 79.8443Z" fill="#263238"/>
<path d="M65.04 70.2784C65.153 70.4799 65.9286 70.2509 66.8723 70.2142C67.8159 70.1776 68.61 70.312 68.7046 70.1012C68.7474 70.0035 68.5855 69.8203 68.2496 69.6615C67.8074 69.4654 67.3246 69.3784 66.8417 69.408C66.3578 69.4259 65.8848 69.5577 65.4614 69.7928C65.1377 69.9821 64.9911 70.1806 65.04 70.2784Z" fill="#263238"/>
<path d="M57.8753 72.086C58.0433 72.2387 58.5624 71.9669 59.2129 71.8539C59.8634 71.7409 60.4345 71.7837 60.5444 71.573C60.5872 71.4752 60.4681 71.3072 60.2024 71.1729C59.8452 71.0226 59.4515 70.9816 59.0711 71.055C58.6906 71.1284 58.3404 71.3129 58.0647 71.5852C57.8387 71.8234 57.799 72.0188 57.8753 72.086Z" fill="#263238"/>
<path d="M55.9595 69.6464C57.1261 69.9284 58.3401 69.9524 59.5169 69.7166C60.6937 69.4809 61.8048 68.991 62.7727 68.2813C65.1609 66.6842 68.059 65.6825 68.7797 66.1192C69.5005 66.5559 69.9708 69.1731 72.5941 69.6067C72.5941 69.6067 73.0552 74.6487 75.0372 74.215C76.445 73.9097 75.6266 68.3485 75.0372 65.1755C74.9207 64.559 74.5983 64.0002 74.1229 63.5908C73.6474 63.1813 73.047 62.9454 72.42 62.9217L68.7309 62.7812L64.1225 64.07L59.1783 65.4137L55.4189 66.9743L55.9595 69.6464Z" fill="#263238"/>
<path d="M74.5854 72.1709C74.6618 72.116 77.7218 70.5127 78.2898 73.8506C78.394 74.2637 78.3927 74.6964 78.2862 75.1089C78.1796 75.5214 77.9712 75.9005 77.68 76.2114C77.3888 76.5224 77.0241 76.7552 76.6195 76.8886C76.2149 77.022 75.7833 77.0516 75.3642 76.9747C75.3337 76.877 74.5854 72.1709 74.5854 72.1709Z" fill="#B78876"/>
<path d="M76.166 75.5285C76.166 75.5285 76.2301 75.556 76.3339 75.5835C76.4814 75.6165 76.6359 75.5937 76.7676 75.5194C76.9601 75.3453 77.1031 75.1233 77.182 74.876C77.2608 74.6287 77.2727 74.3649 77.2165 74.1115C77.1762 73.8234 77.0718 73.5479 76.9111 73.3053C76.8627 73.2065 76.791 73.1209 76.7021 73.056C76.6133 72.9911 76.51 72.9488 76.4011 72.9327C76.3334 72.9298 76.2666 72.9496 76.2113 72.9888C76.156 73.0281 76.1153 73.0846 76.0957 73.1496C76.0682 73.2473 76.0957 73.3114 76.0957 73.3236C76.0957 73.3358 76.0133 73.2809 76.0194 73.1343C76.0218 73.0474 76.0567 72.9646 76.1171 72.9022C76.1972 72.8181 76.3065 72.7678 76.4225 72.7617C76.5635 72.7659 76.7012 72.8059 76.8225 72.8781C76.9438 72.9502 77.0447 73.052 77.1157 73.174C77.3042 73.4396 77.4267 73.7463 77.473 74.0688C77.5389 74.3633 77.5161 74.6708 77.4074 74.9523C77.2987 75.2339 77.109 75.4769 76.8622 75.6507C76.7769 75.6914 76.6835 75.7125 76.5889 75.7125C76.4943 75.7125 76.401 75.6914 76.3156 75.6507C76.1812 75.6141 76.1568 75.5438 76.166 75.5285Z" fill="#AA6550"/>
<path d="M57.5277 61.1837C57.5552 61.1837 57.6468 61.3577 57.8789 61.6326C58.2207 62.0094 58.6557 62.2895 59.1402 62.4449C59.8597 62.6786 60.6292 62.7124 61.3664 62.5427C62.2838 62.3195 63.1847 62.0338 64.063 61.6876C64.9746 61.3293 65.9483 61.1559 66.9276 61.1776C67.7522 61.2057 68.5324 61.558 69.0989 62.1579C69.4907 62.5487 69.7273 63.0685 69.7646 63.6207C69.7923 63.8195 69.7582 64.0221 69.6669 64.2009C69.6333 64.2009 69.6669 63.9902 69.6242 63.6329C69.5341 63.1361 69.2856 62.6817 68.9157 62.338C68.376 61.8169 67.6564 61.5239 66.9062 61.5196C65.9737 61.5207 65.0497 61.6968 64.1821 62.0388C63.2905 62.3936 62.3713 62.6745 61.4336 62.8786C60.6408 63.0429 59.8175 62.9772 59.0607 62.6893C58.5456 62.5044 58.0985 62.168 57.7781 61.7242C57.543 61.4066 57.5063 61.1898 57.5277 61.1837Z" fill="#455A64"/>
<path d="M68.8059 64.3846C68.7785 64.406 68.638 64.2105 68.2868 63.9632C67.7868 63.6384 67.2034 63.4655 66.6071 63.4654C65.72 63.458 64.8446 63.6677 64.0571 64.0762C63.0754 64.6135 62.0604 65.0878 61.0185 65.4962C60.0304 65.8032 58.9898 65.9038 57.9612 65.792C56.9326 65.6801 55.9379 65.358 55.039 64.8458C54.4981 64.5421 54.0035 64.1626 53.5701 63.7189C53.2647 63.3982 53.1303 63.1997 53.1486 63.1875C53.77 63.7332 54.4453 64.2141 55.1642 64.6228C56.9353 65.5497 59.0006 65.7406 60.9116 65.1542C61.9393 64.7483 62.9445 64.2876 63.9228 63.7739C64.7597 63.3543 65.6903 63.1566 66.6255 63.1997C67.2621 63.2246 67.8746 63.4501 68.3753 63.8441C68.5665 63.9805 68.7157 64.1678 68.8059 64.3846Z" fill="#455A64"/>
<path d="M58.4418 121.277L42.1859 107.422L36.8232 108.643C39.49 114.326 42.7548 119.707 46.5621 124.698C47.8063 126.258 49.5054 127.392 51.4236 127.943C53.3417 128.493 55.3838 128.433 57.266 127.77C63.9235 125.415 58.4418 121.277 58.4418 121.277Z" fill="#B78876"/>
<path d="M40.9496 92.1602H34.0387C33.7777 92.1735 33.5229 92.2451 33.2932 92.3697C33.0634 92.4942 32.8644 92.6685 32.7107 92.8799C32.557 93.0913 32.4525 93.3344 32.4049 93.5913C32.3572 93.8483 32.3676 94.1126 32.4354 94.3651L39.3891 107.9C39.5213 108.158 39.7222 108.374 39.9695 108.525C40.2169 108.676 40.5011 108.755 40.7908 108.755L49.2135 108.734C49.4091 108.708 49.5955 108.635 49.7567 108.521C49.9179 108.407 50.0492 108.256 50.1392 108.08C50.2292 107.905 50.2754 107.71 50.2738 107.512C50.2721 107.315 50.2226 107.121 50.1296 106.947L43.4111 93.6933C43.1845 93.2337 42.8339 92.8466 42.399 92.5757C41.964 92.3048 41.462 92.1608 40.9496 92.1602Z" fill="#455A64"/>
<path d="M40.4908 92.9766H33.5828C33.3848 92.9755 33.1898 93.0255 33.0167 93.1218C32.8437 93.2181 32.6984 93.3575 32.5949 93.5264C32.4915 93.6952 32.4333 93.8879 32.4261 94.0859C32.4188 94.2838 32.4628 94.4802 32.5537 94.6562L39.3303 107.895C39.4625 108.153 39.6634 108.369 39.9107 108.52C40.1581 108.671 40.4423 108.75 40.732 108.75H49.0631C49.1797 108.751 49.2947 108.722 49.3969 108.666C49.4991 108.61 49.5851 108.528 49.6465 108.429C49.7079 108.33 49.7427 108.216 49.7475 108.1C49.7523 107.983 49.7269 107.867 49.6738 107.764L42.9553 94.5096C42.7284 94.0496 42.3774 93.6622 41.9419 93.3913C41.5063 93.1203 41.0037 92.9767 40.4908 92.9766Z" fill="#263238"/>
<path d="M39.8964 98.5234L35.6882 100.203L34.772 103.593L36.7967 108.635L44.2329 109.713L42.0555 107.487L42.3365 105.547C42.3365 105.547 44.4101 104.897 44.4589 104.582C44.5078 104.268 44.1994 103.202 43.8848 103.147C43.0352 103.332 42.2019 103.586 41.3928 103.904C41.3928 103.904 43.9703 101.867 43.8909 101.538C43.8115 101.208 43.5397 100.374 43.0297 100.276C41.4249 100.769 39.8632 101.392 38.3603 102.139L37.6884 103.666L37.099 101.223C37.099 101.223 40.8065 100.197 39.8964 98.5234Z" fill="#B78876"/>
<path d="M40.4134 106.475C40.3859 106.475 40.3096 106.328 40.2729 106.053C40.2275 105.694 40.2705 105.33 40.3981 104.991C40.5236 104.652 40.7277 104.347 40.9937 104.102C41.2044 103.919 41.3571 103.858 41.3723 103.879C41.0565 104.234 40.797 104.636 40.6028 105.07C40.4671 105.526 40.4033 106 40.4134 106.475Z" fill="#AA6550"/>
<path d="M38.4253 105.728C38.5014 105.364 38.5575 104.997 38.5933 104.628C38.6102 104.214 38.681 103.803 38.804 103.407C38.8886 103.167 39.0193 102.946 39.1888 102.756C39.3858 102.566 39.6197 102.419 39.8759 102.322C40.8837 101.959 41.7876 101.663 42.4534 101.446C42.8048 101.312 43.1676 101.209 43.5375 101.141C43.2076 101.321 42.8609 101.468 42.5022 101.58C41.8579 101.834 40.9478 102.155 39.9614 102.497C39.7352 102.582 39.5278 102.711 39.3506 102.875C39.1948 103.04 39.0752 103.236 38.9994 103.449C38.8715 103.828 38.7894 104.221 38.7551 104.619C38.7439 105.011 38.6302 105.393 38.4253 105.728Z" fill="#AA6550"/>
<path d="M37.4722 104.975C37.4107 104.701 37.4201 104.416 37.4997 104.147C37.576 103.698 37.6829 103.341 37.7379 103.356C37.7994 103.63 37.7899 103.915 37.7104 104.184C37.6401 104.632 37.5333 104.981 37.4722 104.975Z" fill="#AA6550"/>
<path d="M37.3579 95.5349C37.3579 95.7095 37.4097 95.8801 37.5067 96.0252C37.6036 96.1704 37.7415 96.2835 37.9027 96.3503C38.064 96.4171 38.2415 96.4346 38.4127 96.4005C38.5839 96.3665 38.7411 96.2824 38.8646 96.159C38.988 96.0355 39.0721 95.8783 39.1061 95.7071C39.1402 95.5359 39.1227 95.3584 39.0559 95.1972C38.9891 95.0359 38.876 94.8981 38.7308 94.8011C38.5857 94.7041 38.415 94.6523 38.2405 94.6523C38.0064 94.6523 37.7819 94.7453 37.6164 94.9108C37.4509 95.0763 37.3579 95.3009 37.3579 95.5349Z" fill="#FAFAFA"/>
<path d="M13.148 228.986C14.2448 229.326 15.2616 229.883 16.1375 230.626C17.0133 231.369 17.7301 232.28 18.245 233.307C19.2623 235.369 19.796 237.637 19.8055 239.937C19.677 244.553 18.3476 249.056 15.9484 253.001C12.5323 250.257 10.2347 246.361 9.4864 242.044C8.43586 237.576 9.23903 228.866 13.148 228.986Z" fill="#4E9C0B"/>
<path d="M21.2408 259.572C20.8094 258.363 20.7054 257.061 20.9392 255.798C21.173 254.536 21.7364 253.358 22.5723 252.383C23.4245 251.425 24.4586 250.645 25.6146 250.09C26.7706 249.535 28.0254 249.215 29.3061 249.149C29.891 249.055 30.4893 249.09 31.0591 249.252C31.6289 249.414 32.1563 249.699 32.6043 250.087C32.9578 250.514 33.1908 251.028 33.2794 251.576C33.368 252.123 33.3089 252.684 33.1082 253.201C32.6894 254.231 32.0056 255.132 31.1262 255.813C29.8555 257.126 28.311 258.144 26.6025 258.794C24.894 259.444 23.0635 259.709 21.2408 259.572Z" fill="#4E9C0B"/>
<path d="M18.495 273.627C18.4678 273.322 18.4678 273.016 18.495 272.711C18.5164 272.067 18.55 271.227 18.5867 270.225C18.6054 267.468 19.0684 264.733 19.9579 262.123C20.8972 259.507 22.5163 257.188 24.6486 255.405C25.2992 254.881 26.0084 254.434 26.7619 254.073C26.9664 253.974 27.1765 253.888 27.391 253.814C27.5376 253.759 27.615 253.737 27.6231 253.749C26.6216 254.264 25.6743 254.878 24.7952 255.582C22.7463 257.379 21.1852 259.665 20.2571 262.227C19.3802 264.805 18.8913 267.5 18.8065 270.222C18.7302 271.267 18.6722 272.119 18.6111 272.702C18.6001 273.013 18.5613 273.323 18.495 273.627Z" fill="#263238"/>
<path d="M13.1136 235.672C13.1642 235.795 13.1991 235.925 13.2175 236.057C13.2745 236.344 13.3518 236.715 13.4496 237.171C13.645 238.136 13.9046 239.544 14.2191 241.282C14.8299 244.76 15.6331 249.57 16.3813 254.905C17.1295 260.24 17.7036 265.093 18.0701 268.599C18.2533 270.355 18.3908 271.778 18.4702 272.764C18.5048 273.227 18.5333 273.604 18.5557 273.897C18.5711 274.03 18.5711 274.165 18.5557 274.298C18.5164 274.171 18.4928 274.039 18.4854 273.907C18.4518 273.601 18.3999 273.241 18.3388 272.78C18.2136 271.757 18.0335 270.337 17.8349 268.63C17.4135 265.121 16.8058 260.283 16.0576 254.948C15.3094 249.613 14.552 244.797 13.984 241.315C13.703 239.599 13.4801 238.2 13.3182 237.193C13.248 236.732 13.193 236.359 13.1503 236.066C13.1192 235.937 13.1068 235.804 13.1136 235.672Z" fill="#263238"/>
<path d="M15.2929 263.16C14.4654 260.584 13.0368 258.241 11.1252 256.326C9.2135 254.411 6.87361 252.979 4.29885 252.147C3.67725 251.855 2.98497 251.746 2.3037 251.834C1.62243 251.923 0.980614 252.204 0.453995 252.645C0.116029 253.245 -0.0389124 253.931 0.00830067 254.618C0.0555137 255.305 0.302809 255.963 0.719677 256.511C2.1798 258.988 4.34081 260.977 6.93006 262.227C9.51931 263.477 12.4208 263.932 15.2684 263.535" fill="#4E9C0B"/>
<path d="M5.48582 256.191C5.7679 256.24 6.04491 256.315 6.31343 256.414C6.63472 256.509 6.94988 256.623 7.25709 256.756C7.61439 256.918 8.04193 257.062 8.47864 257.297C9.52275 257.814 10.5165 258.428 11.447 259.129C13.7439 260.844 15.5818 263.099 16.7975 265.695C17.0603 266.258 17.2918 266.835 17.4907 267.424C17.6693 267.936 17.8212 268.456 17.9457 268.984C18.0556 269.416 18.1402 269.853 18.1992 270.294C18.2601 270.625 18.2999 270.96 18.3183 271.296C18.3567 271.581 18.3659 271.87 18.3458 272.157C18.2755 272.157 18.2206 270.936 17.735 269.042C17.6025 268.525 17.4414 268.015 17.2525 267.515C17.0448 266.939 16.8084 266.373 16.544 265.82C15.3174 263.287 13.5143 261.076 11.2791 259.364C10.7955 258.989 10.293 258.638 9.7735 258.314C9.29709 257.993 8.82068 257.746 8.38702 257.508C6.64325 256.598 5.45833 256.256 5.48582 256.191Z" fill="#263238"/>
</svg>
