<svg width="438" height="106" viewBox="0 0 438 106" fill="none" xmlns="http://www.w3.org/2000/svg">
<path d="M119.76 45V30.9H125.5C126.98 30.9 128.12 31.26 128.92 31.98C129.72 32.6867 130.12 33.6733 130.12 34.94C130.12 36.18 129.72 37.1667 128.92 37.9C128.12 38.62 126.98 38.98 125.5 38.98H121.42V45H119.76ZM121.42 37.6H125.34C126.367 37.6 127.14 37.3667 127.66 36.9C128.193 36.4333 128.46 35.78 128.46 34.94C128.46 34.0867 128.193 33.4267 127.66 32.96C127.14 32.4933 126.367 32.26 125.34 32.26H121.42V37.6ZM132.372 45V37.38C132.372 36.98 132.359 36.5733 132.332 36.16C132.319 35.7467 132.292 35.3467 132.252 34.96H133.812L134.012 37.4L133.732 37.42C133.865 36.82 134.099 36.3267 134.432 35.94C134.765 35.5533 135.159 35.2667 135.612 35.08C136.065 34.88 136.539 34.78 137.032 34.78C137.232 34.78 137.405 34.7867 137.552 34.8C137.712 34.8133 137.859 34.8467 137.992 34.9L137.972 36.34C137.772 36.2733 137.585 36.2333 137.412 36.22C137.252 36.1933 137.065 36.18 136.852 36.18C136.265 36.18 135.752 36.32 135.312 36.6C134.885 36.88 134.559 37.24 134.332 37.68C134.119 38.12 134.012 38.5867 134.012 39.08V45H132.372ZM139.678 45V34.96H141.298V45H139.678ZM139.478 32.68V30.86H141.478V32.68H139.478ZM148.563 45.18C147.603 45.18 146.763 44.9733 146.043 44.56C145.337 44.1333 144.79 43.5333 144.403 42.76C144.017 41.9733 143.823 41.0467 143.823 39.98C143.823 38.9 144.017 37.9733 144.403 37.2C144.79 36.4267 145.337 35.8333 146.043 35.42C146.763 34.9933 147.603 34.78 148.563 34.78C149.537 34.78 150.377 34.9933 151.083 35.42C151.803 35.8333 152.357 36.4267 152.743 37.2C153.143 37.9733 153.343 38.9 153.343 39.98C153.343 41.0467 153.143 41.9733 152.743 42.76C152.357 43.5333 151.803 44.1333 151.083 44.56C150.377 44.9733 149.537 45.18 148.563 45.18ZM148.563 43.86C149.523 43.86 150.283 43.5333 150.843 42.88C151.403 42.2133 151.683 41.2467 151.683 39.98C151.683 38.7 151.397 37.7333 150.823 37.08C150.263 36.4133 149.51 36.08 148.563 36.08C147.617 36.08 146.863 36.4133 146.303 37.08C145.743 37.7333 145.463 38.7 145.463 39.98C145.463 41.2467 145.743 42.2133 146.303 42.88C146.863 43.5333 147.617 43.86 148.563 43.86ZM155.829 45V37.38C155.829 36.98 155.816 36.5733 155.789 36.16C155.776 35.7467 155.749 35.3467 155.709 34.96H157.269L157.469 37.4L157.189 37.42C157.322 36.82 157.556 36.3267 157.889 35.94C158.222 35.5533 158.616 35.2667 159.069 35.08C159.522 34.88 159.996 34.78 160.489 34.78C160.689 34.78 160.862 34.7867 161.009 34.8C161.169 34.8133 161.316 34.8467 161.449 34.9L161.429 36.34C161.229 36.2733 161.042 36.2333 160.869 36.22C160.709 36.1933 160.522 36.18 160.309 36.18C159.722 36.18 159.209 36.32 158.769 36.6C158.342 36.88 158.016 37.24 157.789 37.68C157.576 38.12 157.469 38.5867 157.469 39.08V45H155.829ZM163.135 45V34.96H164.755V45H163.135ZM162.935 32.68V30.86H164.935V32.68H162.935ZM171.46 45.18C170.474 45.18 169.72 44.9 169.2 44.34C168.68 43.7667 168.42 42.9067 168.42 41.76V36.22H166.46V34.96H168.42V32.22L170.04 31.76V34.96H172.92V36.22H170.04V41.58C170.04 42.38 170.174 42.9533 170.44 43.3C170.72 43.6333 171.134 43.8 171.68 43.8C171.934 43.8 172.16 43.78 172.36 43.74C172.56 43.6867 172.74 43.6267 172.9 43.56V44.92C172.714 45 172.487 45.06 172.22 45.1C171.967 45.1533 171.714 45.18 171.46 45.18ZM174.893 45V34.96H176.513V45H174.893ZM174.693 32.68V30.86H176.693V32.68H174.693ZM179.078 45V43.92L185.838 35.8L185.858 36.22H179.078V34.96H187.358V36.04L180.518 44.2L180.498 43.74H187.578V45H179.078ZM194.294 45.18C192.721 45.18 191.481 44.7267 190.574 43.82C189.667 42.9 189.214 41.6267 189.214 40C189.214 38.9467 189.414 38.0333 189.814 37.26C190.214 36.4733 190.774 35.8667 191.494 35.44C192.214 35 193.041 34.78 193.974 34.78C194.894 34.78 195.667 34.9733 196.294 35.36C196.921 35.7467 197.401 36.3 197.734 37.02C198.067 37.7267 198.234 38.5667 198.234 39.54V40.14H190.454V39.12H197.174L196.834 39.38C196.834 38.3133 196.594 37.48 196.114 36.88C195.634 36.28 194.921 35.98 193.974 35.98C192.974 35.98 192.194 36.3333 191.634 37.04C191.074 37.7333 190.794 38.6733 190.794 39.86V40.04C190.794 41.2933 191.101 42.2467 191.714 42.9C192.341 43.54 193.214 43.86 194.334 43.86C194.934 43.86 195.494 43.7733 196.014 43.6C196.547 43.4133 197.054 43.1133 197.534 42.7L198.094 43.84C197.654 44.2667 197.094 44.6 196.414 44.84C195.747 45.0667 195.041 45.18 194.294 45.18ZM205.528 49.54L205.148 48.2C205.774 48.0533 206.294 47.88 206.708 47.68C207.134 47.4933 207.488 47.24 207.768 46.92C208.048 46.6 208.288 46.2 208.488 45.72L209.008 44.54L208.968 45.22L204.588 34.96H206.348L209.968 43.78H209.448L213.028 34.96H214.728L210.088 45.84C209.821 46.48 209.528 47.0133 209.208 47.44C208.888 47.88 208.541 48.2333 208.168 48.5C207.808 48.78 207.408 49 206.968 49.16C206.528 49.32 206.048 49.4467 205.528 49.54ZM220.536 45.18C219.576 45.18 218.736 44.9733 218.016 44.56C217.309 44.1333 216.763 43.5333 216.376 42.76C215.989 41.9733 215.796 41.0467 215.796 39.98C215.796 38.9 215.989 37.9733 216.376 37.2C216.763 36.4267 217.309 35.8333 218.016 35.42C218.736 34.9933 219.576 34.78 220.536 34.78C221.509 34.78 222.349 34.9933 223.056 35.42C223.776 35.8333 224.329 36.4267 224.716 37.2C225.116 37.9733 225.316 38.9 225.316 39.98C225.316 41.0467 225.116 41.9733 224.716 42.76C224.329 43.5333 223.776 44.1333 223.056 44.56C222.349 44.9733 221.509 45.18 220.536 45.18ZM220.536 43.86C221.496 43.86 222.256 43.5333 222.816 42.88C223.376 42.2133 223.656 41.2467 223.656 39.98C223.656 38.7 223.369 37.7333 222.796 37.08C222.236 36.4133 221.483 36.08 220.536 36.08C219.589 36.08 218.836 36.4133 218.276 37.08C217.716 37.7333 217.436 38.7 217.436 39.98C217.436 41.2467 217.716 42.2133 218.276 42.88C218.836 43.5333 219.589 43.86 220.536 43.86ZM231.382 45.18C230.195 45.18 229.295 44.8533 228.682 44.2C228.082 43.5467 227.782 42.5467 227.782 41.2V34.96H229.402V41.16C229.402 42.08 229.588 42.76 229.962 43.2C230.335 43.6267 230.915 43.84 231.702 43.84C232.582 43.84 233.288 43.5533 233.822 42.98C234.355 42.4067 234.622 41.64 234.622 40.68V34.96H236.242V45H234.662V42.74H234.922C234.642 43.5133 234.188 44.1133 233.562 44.54C232.948 44.9667 232.222 45.18 231.382 45.18ZM239.345 45V37.38C239.345 36.98 239.331 36.5733 239.305 36.16C239.291 35.7467 239.265 35.3467 239.225 34.96H240.785L240.985 37.4L240.705 37.42C240.838 36.82 241.071 36.3267 241.405 35.94C241.738 35.5533 242.131 35.2667 242.585 35.08C243.038 34.88 243.511 34.78 244.005 34.78C244.205 34.78 244.378 34.7867 244.525 34.8C244.685 34.8133 244.831 34.8467 244.965 34.9L244.945 36.34C244.745 36.2733 244.558 36.2333 244.385 36.22C244.225 36.1933 244.038 36.18 243.825 36.18C243.238 36.18 242.725 36.32 242.285 36.6C241.858 36.88 241.531 37.24 241.305 37.68C241.091 38.12 240.985 38.5867 240.985 39.08V45H239.345ZM251.865 49.32V37.28C251.865 36.9067 251.845 36.5267 251.805 36.14C251.778 35.74 251.745 35.3467 251.705 34.96H253.265L253.485 37.34H253.245C253.458 36.5533 253.892 35.9333 254.545 35.48C255.198 35.0133 255.978 34.78 256.885 34.78C257.792 34.78 258.572 34.9867 259.225 35.4C259.892 35.8133 260.412 36.4067 260.785 37.18C261.158 37.9533 261.345 38.8867 261.345 39.98C261.345 41.06 261.158 41.9867 260.785 42.76C260.425 43.5333 259.912 44.1333 259.245 44.56C258.578 44.9733 257.792 45.18 256.885 45.18C255.992 45.18 255.218 44.9533 254.565 44.5C253.912 44.0467 253.478 43.4267 253.265 42.64H253.485V49.32H251.865ZM256.565 43.86C257.525 43.86 258.285 43.5333 258.845 42.88C259.418 42.2133 259.705 41.2467 259.705 39.98C259.705 38.7 259.418 37.7333 258.845 37.08C258.285 36.4133 257.525 36.08 256.565 36.08C255.618 36.08 254.858 36.4133 254.285 37.08C253.725 37.7333 253.445 38.7 253.445 39.98C253.445 41.2467 253.725 42.2133 254.285 42.88C254.858 43.5333 255.618 43.86 256.565 43.86ZM268.317 45.18C266.744 45.18 265.504 44.7267 264.597 43.82C263.691 42.9 263.237 41.6267 263.237 40C263.237 38.9467 263.437 38.0333 263.837 37.26C264.237 36.4733 264.797 35.8667 265.517 35.44C266.237 35 267.064 34.78 267.997 34.78C268.917 34.78 269.691 34.9733 270.317 35.36C270.944 35.7467 271.424 36.3 271.757 37.02C272.091 37.7267 272.257 38.5667 272.257 39.54V40.14H264.477V39.12H271.197L270.857 39.38C270.857 38.3133 270.617 37.48 270.137 36.88C269.657 36.28 268.944 35.98 267.997 35.98C266.997 35.98 266.217 36.3333 265.657 37.04C265.097 37.7333 264.817 38.6733 264.817 39.86V40.04C264.817 41.2933 265.124 42.2467 265.737 42.9C266.364 43.54 267.237 43.86 268.357 43.86C268.957 43.86 269.517 43.7733 270.037 43.6C270.571 43.4133 271.077 43.1133 271.557 42.7L272.117 43.84C271.677 44.2667 271.117 44.6 270.437 44.84C269.771 45.0667 269.064 45.18 268.317 45.18ZM274.696 45V37.38C274.696 36.98 274.683 36.5733 274.656 36.16C274.643 35.7467 274.616 35.3467 274.576 34.96H276.136L276.336 37.4L276.056 37.42C276.19 36.82 276.423 36.3267 276.756 35.94C277.09 35.5533 277.483 35.2667 277.936 35.08C278.39 34.88 278.863 34.78 279.356 34.78C279.556 34.78 279.73 34.7867 279.876 34.8C280.036 34.8133 280.183 34.8467 280.316 34.9L280.296 36.34C280.096 36.2733 279.91 36.2333 279.736 36.22C279.576 36.1933 279.39 36.18 279.176 36.18C278.59 36.18 278.076 36.32 277.636 36.6C277.21 36.88 276.883 37.24 276.656 37.68C276.443 38.12 276.336 38.5867 276.336 39.08V45H274.696ZM285.244 45.18C284.444 45.18 283.698 45.0733 283.004 44.86C282.311 44.6333 281.738 44.32 281.284 43.92L281.844 42.78C282.338 43.1667 282.871 43.4533 283.444 43.64C284.031 43.8267 284.638 43.92 285.264 43.92C286.064 43.92 286.664 43.78 287.064 43.5C287.478 43.2067 287.684 42.8067 287.684 42.3C287.684 41.9133 287.551 41.6067 287.284 41.38C287.031 41.14 286.611 40.9533 286.024 40.82L284.164 40.44C283.311 40.2533 282.671 39.94 282.244 39.5C281.818 39.0467 281.604 38.4733 281.604 37.78C281.604 37.1933 281.758 36.68 282.064 36.24C282.371 35.7867 282.818 35.4333 283.404 35.18C283.991 34.9133 284.678 34.78 285.464 34.78C286.198 34.78 286.871 34.8933 287.484 35.12C288.111 35.3333 288.631 35.6467 289.044 36.06L288.464 37.18C288.064 36.7933 287.604 36.5067 287.084 36.32C286.578 36.12 286.051 36.02 285.504 36.02C284.718 36.02 284.124 36.18 283.724 36.5C283.338 36.8067 283.144 37.2133 283.144 37.72C283.144 38.1067 283.264 38.4267 283.504 38.68C283.758 38.92 284.144 39.1 284.664 39.22L286.524 39.6C287.431 39.8 288.104 40.1133 288.544 40.54C288.998 40.9533 289.224 41.5133 289.224 42.22C289.224 42.82 289.058 43.3467 288.724 43.8C288.391 44.24 287.924 44.58 287.324 44.82C286.738 45.06 286.044 45.18 285.244 45.18ZM295.946 45.18C294.986 45.18 294.146 44.9733 293.426 44.56C292.719 44.1333 292.173 43.5333 291.786 42.76C291.399 41.9733 291.206 41.0467 291.206 39.98C291.206 38.9 291.399 37.9733 291.786 37.2C292.173 36.4267 292.719 35.8333 293.426 35.42C294.146 34.9933 294.986 34.78 295.946 34.78C296.919 34.78 297.759 34.9933 298.466 35.42C299.186 35.8333 299.739 36.4267 300.126 37.2C300.526 37.9733 300.726 38.9 300.726 39.98C300.726 41.0467 300.526 41.9733 300.126 42.76C299.739 43.5333 299.186 44.1333 298.466 44.56C297.759 44.9733 296.919 45.18 295.946 45.18ZM295.946 43.86C296.906 43.86 297.666 43.5333 298.226 42.88C298.786 42.2133 299.066 41.2467 299.066 39.98C299.066 38.7 298.779 37.7333 298.206 37.08C297.646 36.4133 296.893 36.08 295.946 36.08C294.999 36.08 294.246 36.4133 293.686 37.08C293.126 37.7333 292.846 38.7 292.846 39.98C292.846 41.2467 293.126 42.2133 293.686 42.88C294.246 43.5333 294.999 43.86 295.946 43.86ZM303.252 45V37.28C303.252 36.9067 303.232 36.5267 303.192 36.14C303.165 35.74 303.132 35.3467 303.092 34.96H304.652L304.852 37.16H304.612C304.905 36.3867 305.372 35.8 306.012 35.4C306.665 34.9867 307.419 34.78 308.272 34.78C309.459 34.78 310.352 35.1 310.952 35.74C311.565 36.3667 311.872 37.36 311.872 38.72V45H310.252V38.82C310.252 37.8733 310.059 37.1867 309.672 36.76C309.299 36.32 308.712 36.1 307.912 36.1C306.979 36.1 306.239 36.3867 305.692 36.96C305.145 37.5333 304.872 38.3 304.872 39.26V45H303.252ZM318.791 45.18C317.897 45.18 317.117 44.9733 316.451 44.56C315.784 44.1333 315.264 43.5333 314.891 42.76C314.531 41.9867 314.351 41.06 314.351 39.98C314.351 38.8867 314.531 37.9533 314.891 37.18C315.264 36.4067 315.784 35.8133 316.451 35.4C317.117 34.9867 317.897 34.78 318.791 34.78C319.697 34.78 320.477 35.0133 321.131 35.48C321.797 35.9333 322.237 36.5533 322.451 37.34H322.211L322.431 34.96H323.991C323.951 35.3467 323.911 35.74 323.871 36.14C323.844 36.5267 323.831 36.9067 323.831 37.28V45H322.211V42.64H322.431C322.217 43.4267 321.777 44.0467 321.111 44.5C320.444 44.9533 319.671 45.18 318.791 45.18ZM319.111 43.86C320.071 43.86 320.831 43.5333 321.391 42.88C321.951 42.2133 322.231 41.2467 322.231 39.98C322.231 38.7 321.951 37.7333 321.391 37.08C320.831 36.4133 320.071 36.08 319.111 36.08C318.164 36.08 317.404 36.4133 316.831 37.08C316.271 37.7333 315.991 38.7 315.991 39.98C315.991 41.2467 316.271 42.2133 316.831 42.88C317.404 43.5333 318.164 43.86 319.111 43.86ZM326.963 45V30.28H328.583V45H326.963ZM340.283 45.18C339.483 45.18 338.737 45.0733 338.043 44.86C337.35 44.6333 336.777 44.32 336.323 43.92L336.883 42.78C337.377 43.1667 337.91 43.4533 338.483 43.64C339.07 43.8267 339.677 43.92 340.303 43.92C341.103 43.92 341.703 43.78 342.103 43.5C342.517 43.2067 342.723 42.8067 342.723 42.3C342.723 41.9133 342.59 41.6067 342.323 41.38C342.07 41.14 341.65 40.9533 341.063 40.82L339.203 40.44C338.35 40.2533 337.71 39.94 337.283 39.5C336.857 39.0467 336.643 38.4733 336.643 37.78C336.643 37.1933 336.797 36.68 337.103 36.24C337.41 35.7867 337.857 35.4333 338.443 35.18C339.03 34.9133 339.717 34.78 340.503 34.78C341.237 34.78 341.91 34.8933 342.523 35.12C343.15 35.3333 343.67 35.6467 344.083 36.06L343.503 37.18C343.103 36.7933 342.643 36.5067 342.123 36.32C341.617 36.12 341.09 36.02 340.543 36.02C339.757 36.02 339.163 36.18 338.763 36.5C338.377 36.8067 338.183 37.2133 338.183 37.72C338.183 38.1067 338.303 38.4267 338.543 38.68C338.797 38.92 339.183 39.1 339.703 39.22L341.563 39.6C342.47 39.8 343.143 40.1133 343.583 40.54C344.037 40.9533 344.263 41.5133 344.263 42.22C344.263 42.82 344.097 43.3467 343.763 43.8C343.43 44.24 342.963 44.58 342.363 44.82C341.777 45.06 341.083 45.18 340.283 45.18ZM350.685 45.18C349.792 45.18 349.012 44.9733 348.345 44.56C347.678 44.1333 347.158 43.5333 346.785 42.76C346.425 41.9867 346.245 41.06 346.245 39.98C346.245 38.8867 346.425 37.9533 346.785 37.18C347.158 36.4067 347.678 35.8133 348.345 35.4C349.012 34.9867 349.792 34.78 350.685 34.78C351.592 34.78 352.372 35.0133 353.025 35.48C353.692 35.9333 354.132 36.5533 354.345 37.34H354.105L354.325 34.96H355.885C355.845 35.3467 355.805 35.74 355.765 36.14C355.738 36.5267 355.725 36.9067 355.725 37.28V45H354.105V42.64H354.325C354.112 43.4267 353.672 44.0467 353.005 44.5C352.338 44.9533 351.565 45.18 350.685 45.18ZM351.005 43.86C351.965 43.86 352.725 43.5333 353.285 42.88C353.845 42.2133 354.125 41.2467 354.125 39.98C354.125 38.7 353.845 37.7333 353.285 37.08C352.725 36.4133 351.965 36.08 351.005 36.08C350.058 36.08 349.298 36.4133 348.725 37.08C348.165 37.7333 347.885 38.7 347.885 39.98C347.885 41.2467 348.165 42.2133 348.725 42.88C349.298 43.5333 350.058 43.86 351.005 43.86ZM359.377 45V36.22H357.417V34.96H359.817L359.377 35.38V33.7C359.377 32.5667 359.664 31.7 360.237 31.1C360.811 30.5 361.631 30.2 362.697 30.2C362.964 30.2 363.237 30.2267 363.517 30.28C363.811 30.32 364.051 30.38 364.237 30.46V31.8C364.077 31.7333 363.877 31.68 363.637 31.64C363.411 31.5867 363.177 31.56 362.937 31.56C362.524 31.56 362.171 31.6467 361.877 31.82C361.584 31.98 361.364 32.2267 361.217 32.56C361.071 32.8933 360.997 33.32 360.997 33.84V35.3L360.737 34.96H363.797V36.22H360.997V45H359.377ZM369.802 45.18C368.228 45.18 366.988 44.7267 366.082 43.82C365.175 42.9 364.722 41.6267 364.722 40C364.722 38.9467 364.922 38.0333 365.322 37.26C365.722 36.4733 366.282 35.8667 367.002 35.44C367.722 35 368.548 34.78 369.482 34.78C370.402 34.78 371.175 34.9733 371.802 35.36C372.428 35.7467 372.908 36.3 373.242 37.02C373.575 37.7267 373.742 38.5667 373.742 39.54V40.14H365.962V39.12H372.682L372.342 39.38C372.342 38.3133 372.102 37.48 371.622 36.88C371.142 36.28 370.428 35.98 369.482 35.98C368.482 35.98 367.702 36.3333 367.142 37.04C366.582 37.7333 366.302 38.6733 366.302 39.86V40.04C366.302 41.2933 366.608 42.2467 367.222 42.9C367.848 43.54 368.722 43.86 369.842 43.86C370.442 43.86 371.002 43.7733 371.522 43.6C372.055 43.4133 372.562 43.1133 373.042 42.7L373.602 43.84C373.162 44.2667 372.602 44.6 371.922 44.84C371.255 45.0667 370.548 45.18 369.802 45.18ZM379.781 45.18C378.794 45.18 378.041 44.9 377.521 44.34C377.001 43.7667 376.741 42.9067 376.741 41.76V36.22H374.781V34.96H376.741V32.22L378.361 31.76V34.96H381.241V36.22H378.361V41.58C378.361 42.38 378.494 42.9533 378.761 43.3C379.041 43.6333 379.454 43.8 380.001 43.8C380.254 43.8 380.481 43.78 380.681 43.74C380.881 43.6867 381.061 43.6267 381.221 43.56V44.92C381.034 45 380.807 45.06 380.541 45.1C380.287 45.1533 380.034 45.18 379.781 45.18ZM382.93 49.54L382.55 48.2C383.177 48.0533 383.697 47.88 384.11 47.68C384.537 47.4933 384.89 47.24 385.17 46.92C385.45 46.6 385.69 46.2 385.89 45.72L386.41 44.54L386.37 45.22L381.99 34.96H383.75L387.37 43.78H386.85L390.43 34.96H392.13L387.49 45.84C387.223 46.48 386.93 47.0133 386.61 47.44C386.29 47.88 385.943 48.2333 385.57 48.5C385.21 48.78 384.81 49 384.37 49.16C383.93 49.32 383.45 49.4467 382.93 49.54ZM123.14 70.18C122.153 70.18 121.4 69.9 120.88 69.34C120.36 68.7667 120.1 67.9067 120.1 66.76V61.22H118.14V59.96H120.1V57.22L121.72 56.76V59.96H124.6V61.22H121.72V66.58C121.72 67.38 121.853 67.9533 122.12 68.3C122.4 68.6333 122.813 68.8 123.36 68.8C123.613 68.8 123.84 68.78 124.04 68.74C124.24 68.6867 124.42 68.6267 124.58 68.56V69.92C124.393 70 124.167 70.06 123.9 70.1C123.647 70.1533 123.393 70.18 123.14 70.18ZM126.572 70V55.28H128.192V62.18H127.932C128.212 61.3933 128.679 60.8 129.332 60.4C129.999 59.9867 130.766 59.78 131.632 59.78C132.832 59.78 133.726 60.1067 134.312 60.76C134.899 61.4 135.192 62.3733 135.192 63.68V70H133.572V63.78C133.572 62.8467 133.386 62.1667 133.012 61.74C132.652 61.3133 132.066 61.1 131.252 61.1C130.319 61.1 129.572 61.3867 129.012 61.96C128.466 62.5333 128.192 63.2867 128.192 64.22V70H126.572ZM138.251 70V62.38C138.251 61.98 138.238 61.5733 138.211 61.16C138.198 60.7467 138.171 60.3467 138.131 59.96H139.691L139.891 62.4L139.611 62.42C139.744 61.82 139.978 61.3267 140.311 60.94C140.644 60.5533 141.038 60.2667 141.491 60.08C141.944 59.88 142.418 59.78 142.911 59.78C143.111 59.78 143.284 59.7867 143.431 59.8C143.591 59.8133 143.738 59.8467 143.871 59.9L143.851 61.34C143.651 61.2733 143.464 61.2333 143.291 61.22C143.131 61.1933 142.944 61.18 142.731 61.18C142.144 61.18 141.631 61.32 141.191 61.6C140.764 61.88 140.438 62.24 140.211 62.68C139.998 63.12 139.891 63.5867 139.891 64.08V70H138.251ZM149.559 70.18C148.599 70.18 147.759 69.9733 147.039 69.56C146.333 69.1333 145.786 68.5333 145.399 67.76C145.013 66.9733 144.819 66.0467 144.819 64.98C144.819 63.9 145.013 62.9733 145.399 62.2C145.786 61.4267 146.333 60.8333 147.039 60.42C147.759 59.9933 148.599 59.78 149.559 59.78C150.533 59.78 151.373 59.9933 152.079 60.42C152.799 60.8333 153.353 61.4267 153.739 62.2C154.139 62.9733 154.339 63.9 154.339 64.98C154.339 66.0467 154.139 66.9733 153.739 67.76C153.353 68.5333 152.799 69.1333 152.079 69.56C151.373 69.9733 150.533 70.18 149.559 70.18ZM149.559 68.86C150.519 68.86 151.279 68.5333 151.839 67.88C152.399 67.2133 152.679 66.2467 152.679 64.98C152.679 63.7 152.393 62.7333 151.819 62.08C151.259 61.4133 150.506 61.08 149.559 61.08C148.613 61.08 147.859 61.4133 147.299 62.08C146.739 62.7333 146.459 63.7 146.459 64.98C146.459 66.2467 146.739 67.2133 147.299 67.88C147.859 68.5333 148.613 68.86 149.559 68.86ZM160.405 70.18C159.218 70.18 158.318 69.8533 157.705 69.2C157.105 68.5467 156.805 67.5467 156.805 66.2V59.96H158.425V66.16C158.425 67.08 158.612 67.76 158.985 68.2C159.358 68.6267 159.938 68.84 160.725 68.84C161.605 68.84 162.312 68.5533 162.845 67.98C163.378 67.4067 163.645 66.64 163.645 65.68V59.96H165.265V70H163.685V67.74H163.945C163.665 68.5133 163.212 69.1133 162.585 69.54C161.972 69.9667 161.245 70.18 160.405 70.18ZM172.828 74.46C171.961 74.46 171.161 74.3533 170.428 74.14C169.695 73.9267 169.035 73.6 168.448 73.16L168.928 71.94C169.341 72.2333 169.748 72.4667 170.148 72.64C170.548 72.8133 170.961 72.94 171.388 73.02C171.815 73.1133 172.268 73.16 172.748 73.16C173.735 73.16 174.481 72.9 174.988 72.38C175.495 71.86 175.748 71.12 175.748 70.16V67.22H175.948C175.735 68.0067 175.295 68.6333 174.628 69.1C173.961 69.5533 173.181 69.78 172.288 69.78C171.368 69.78 170.568 69.58 169.888 69.18C169.221 68.7667 168.701 68.1867 168.328 67.44C167.968 66.68 167.788 65.7867 167.788 64.76C167.788 63.7467 167.968 62.8667 168.328 62.12C168.701 61.3733 169.221 60.8 169.888 60.4C170.568 59.9867 171.368 59.78 172.288 59.78C173.195 59.78 173.975 60.0067 174.628 60.46C175.295 60.9133 175.735 61.54 175.948 62.34L175.748 62.14L175.928 59.96H177.508C177.455 60.3467 177.415 60.74 177.388 61.14C177.361 61.5267 177.348 61.9067 177.348 62.28V69.94C177.348 71.4333 176.961 72.56 176.188 73.32C175.428 74.08 174.308 74.46 172.828 74.46ZM172.588 68.46C173.561 68.46 174.328 68.14 174.888 67.5C175.448 66.8467 175.728 65.9333 175.728 64.76C175.728 63.5867 175.448 62.68 174.888 62.04C174.328 61.4 173.561 61.08 172.588 61.08C171.628 61.08 170.861 61.4 170.288 62.04C169.715 62.68 169.428 63.5867 169.428 64.76C169.428 65.9333 169.715 66.8467 170.288 67.5C170.861 68.14 171.628 68.46 172.588 68.46ZM180.459 70V55.28H182.079V62.18H181.819C182.099 61.3933 182.566 60.8 183.219 60.4C183.886 59.9867 184.652 59.78 185.519 59.78C186.719 59.78 187.612 60.1067 188.199 60.76C188.786 61.4 189.079 62.3733 189.079 63.68V70H187.459V63.78C187.459 62.8467 187.272 62.1667 186.899 61.74C186.539 61.3133 185.952 61.1 185.139 61.1C184.206 61.1 183.459 61.3867 182.899 61.96C182.352 62.5333 182.079 63.2867 182.079 64.22V70H180.459ZM196.298 70.18C195.338 70.18 194.498 69.9733 193.778 69.56C193.071 69.1333 192.524 68.5333 192.138 67.76C191.751 66.9733 191.558 66.0467 191.558 64.98C191.558 63.9 191.751 62.9733 192.138 62.2C192.524 61.4267 193.071 60.8333 193.778 60.42C194.498 59.9933 195.338 59.78 196.298 59.78C197.271 59.78 198.111 59.9933 198.818 60.42C199.538 60.8333 200.091 61.4267 200.478 62.2C200.878 62.9733 201.078 63.9 201.078 64.98C201.078 66.0467 200.878 66.9733 200.478 67.76C200.091 68.5333 199.538 69.1333 198.818 69.56C198.111 69.9733 197.271 70.18 196.298 70.18ZM196.298 68.86C197.258 68.86 198.018 68.5333 198.578 67.88C199.138 67.2133 199.418 66.2467 199.418 64.98C199.418 63.7 199.131 62.7333 198.558 62.08C197.998 61.4133 197.244 61.08 196.298 61.08C195.351 61.08 194.598 61.4133 194.038 62.08C193.478 62.7333 193.198 63.7 193.198 64.98C193.198 66.2467 193.478 67.2133 194.038 67.88C194.598 68.5333 195.351 68.86 196.298 68.86ZM207.143 70.18C205.957 70.18 205.057 69.8533 204.443 69.2C203.843 68.5467 203.543 67.5467 203.543 66.2V59.96H205.163V66.16C205.163 67.08 205.35 67.76 205.723 68.2C206.097 68.6267 206.677 68.84 207.463 68.84C208.343 68.84 209.05 68.5533 209.583 67.98C210.117 67.4067 210.383 66.64 210.383 65.68V59.96H212.003V70H210.423V67.74H210.683C210.403 68.5133 209.95 69.1133 209.323 69.54C208.71 69.9667 207.983 70.18 207.143 70.18ZM218.706 70.18C217.72 70.18 216.966 69.9 216.446 69.34C215.926 68.7667 215.666 67.9067 215.666 66.76V61.22H213.706V59.96H215.666V57.22L217.286 56.76V59.96H220.166V61.22H217.286V66.58C217.286 67.38 217.42 67.9533 217.686 68.3C217.966 68.6333 218.38 68.8 218.926 68.8C219.18 68.8 219.406 68.78 219.606 68.74C219.806 68.6867 219.986 68.6267 220.146 68.56V69.92C219.96 70 219.733 70.06 219.466 70.1C219.213 70.1533 218.96 70.18 218.706 70.18ZM230.913 70.18C229.927 70.18 229.173 69.9 228.653 69.34C228.133 68.7667 227.873 67.9067 227.873 66.76V61.22H225.913V59.96H227.873V57.22L229.493 56.76V59.96H232.373V61.22H229.493V66.58C229.493 67.38 229.627 67.9533 229.893 68.3C230.173 68.6333 230.587 68.8 231.133 68.8C231.387 68.8 231.613 68.78 231.813 68.74C232.013 68.6867 232.193 68.6267 232.353 68.56V69.92C232.167 70 231.94 70.06 231.673 70.1C231.42 70.1533 231.167 70.18 230.913 70.18ZM234.346 70V55.28H235.966V62.18H235.706C235.986 61.3933 236.452 60.8 237.106 60.4C237.772 59.9867 238.539 59.78 239.406 59.78C240.606 59.78 241.499 60.1067 242.086 60.76C242.672 61.4 242.966 62.3733 242.966 63.68V70H241.346V63.78C241.346 62.8467 241.159 62.1667 240.786 61.74C240.426 61.3133 239.839 61.1 239.026 61.1C238.092 61.1 237.346 61.3867 236.786 61.96C236.239 62.5333 235.966 63.2867 235.966 64.22V70H234.346ZM250.524 70.18C248.951 70.18 247.711 69.7267 246.804 68.82C245.898 67.9 245.444 66.6267 245.444 65C245.444 63.9467 245.644 63.0333 246.044 62.26C246.444 61.4733 247.004 60.8667 247.724 60.44C248.444 60 249.271 59.78 250.204 59.78C251.124 59.78 251.898 59.9733 252.524 60.36C253.151 60.7467 253.631 61.3 253.964 62.02C254.298 62.7267 254.464 63.5667 254.464 64.54V65.14H246.684V64.12H253.404L253.064 64.38C253.064 63.3133 252.824 62.48 252.344 61.88C251.864 61.28 251.151 60.98 250.204 60.98C249.204 60.98 248.424 61.3333 247.864 62.04C247.304 62.7333 247.024 63.6733 247.024 64.86V65.04C247.024 66.2933 247.331 67.2467 247.944 67.9C248.571 68.54 249.444 68.86 250.564 68.86C251.164 68.86 251.724 68.7733 252.244 68.6C252.778 68.4133 253.284 68.1133 253.764 67.7L254.324 68.84C253.884 69.2667 253.324 69.6 252.644 69.84C251.978 70.0667 251.271 70.18 250.524 70.18ZM265.498 70.18C264.698 70.18 263.951 70.0733 263.258 69.86C262.565 69.6333 261.991 69.32 261.538 68.92L262.098 67.78C262.591 68.1667 263.125 68.4533 263.698 68.64C264.285 68.8267 264.891 68.92 265.518 68.92C266.318 68.92 266.918 68.78 267.318 68.5C267.731 68.2067 267.938 67.8067 267.938 67.3C267.938 66.9133 267.805 66.6067 267.538 66.38C267.285 66.14 266.865 65.9533 266.278 65.82L264.418 65.44C263.565 65.2533 262.925 64.94 262.498 64.5C262.071 64.0467 261.858 63.4733 261.858 62.78C261.858 62.1933 262.011 61.68 262.318 61.24C262.625 60.7867 263.071 60.4333 263.658 60.18C264.245 59.9133 264.931 59.78 265.718 59.78C266.451 59.78 267.125 59.8933 267.738 60.12C268.365 60.3333 268.885 60.6467 269.298 61.06L268.718 62.18C268.318 61.7933 267.858 61.5067 267.338 61.32C266.831 61.12 266.305 61.02 265.758 61.02C264.971 61.02 264.378 61.18 263.978 61.5C263.591 61.8067 263.398 62.2133 263.398 62.72C263.398 63.1067 263.518 63.4267 263.758 63.68C264.011 63.92 264.398 64.1 264.918 64.22L266.778 64.6C267.685 64.8 268.358 65.1133 268.798 65.54C269.251 65.9533 269.478 66.5133 269.478 67.22C269.478 67.82 269.311 68.3467 268.978 68.8C268.645 69.24 268.178 69.58 267.578 69.82C266.991 70.06 266.298 70.18 265.498 70.18ZM276.54 70.18C274.967 70.18 273.727 69.7267 272.82 68.82C271.913 67.9 271.46 66.6267 271.46 65C271.46 63.9467 271.66 63.0333 272.06 62.26C272.46 61.4733 273.02 60.8667 273.74 60.44C274.46 60 275.287 59.78 276.22 59.78C277.14 59.78 277.913 59.9733 278.54 60.36C279.167 60.7467 279.647 61.3 279.98 62.02C280.313 62.7267 280.48 63.5667 280.48 64.54V65.14H272.7V64.12H279.42L279.08 64.38C279.08 63.3133 278.84 62.48 278.36 61.88C277.88 61.28 277.167 60.98 276.22 60.98C275.22 60.98 274.44 61.3333 273.88 62.04C273.32 62.7333 273.04 63.6733 273.04 64.86V65.04C273.04 66.2933 273.347 67.2467 273.96 67.9C274.587 68.54 275.46 68.86 276.58 68.86C277.18 68.86 277.74 68.7733 278.26 68.6C278.793 68.4133 279.3 68.1133 279.78 67.7L280.34 68.84C279.9 69.2667 279.34 69.6 278.66 69.84C277.993 70.0667 277.287 70.18 276.54 70.18ZM282.959 70V55.28H284.579V70H282.959ZM287.725 70V55.28H289.345V70H287.725ZM292.49 70V59.96H294.11V70H292.49ZM292.29 57.68V55.86H294.29V57.68H292.29ZM297.256 70V62.28C297.256 61.9067 297.236 61.5267 297.196 61.14C297.169 60.74 297.136 60.3467 297.096 59.96H298.656L298.856 62.16H298.616C298.909 61.3867 299.376 60.8 300.016 60.4C300.669 59.9867 301.422 59.78 302.276 59.78C303.462 59.78 304.356 60.1 304.956 60.74C305.569 61.3667 305.876 62.36 305.876 63.72V70H304.256V63.82C304.256 62.8733 304.062 62.1867 303.676 61.76C303.302 61.32 302.716 61.1 301.916 61.1C300.982 61.1 300.242 61.3867 299.696 61.96C299.149 62.5333 298.876 63.3 298.876 64.26V70H297.256ZM313.395 74.46C312.528 74.46 311.728 74.3533 310.995 74.14C310.261 73.9267 309.601 73.6 309.015 73.16L309.495 71.94C309.908 72.2333 310.315 72.4667 310.715 72.64C311.115 72.8133 311.528 72.94 311.955 73.02C312.381 73.1133 312.835 73.16 313.315 73.16C314.301 73.16 315.048 72.9 315.555 72.38C316.061 71.86 316.315 71.12 316.315 70.16V67.22H316.515C316.301 68.0067 315.861 68.6333 315.195 69.1C314.528 69.5533 313.748 69.78 312.855 69.78C311.935 69.78 311.135 69.58 310.455 69.18C309.788 68.7667 309.268 68.1867 308.895 67.44C308.535 66.68 308.355 65.7867 308.355 64.76C308.355 63.7467 308.535 62.8667 308.895 62.12C309.268 61.3733 309.788 60.8 310.455 60.4C311.135 59.9867 311.935 59.78 312.855 59.78C313.761 59.78 314.541 60.0067 315.195 60.46C315.861 60.9133 316.301 61.54 316.515 62.34L316.315 62.14L316.495 59.96H318.075C318.021 60.3467 317.981 60.74 317.955 61.14C317.928 61.5267 317.915 61.9067 317.915 62.28V69.94C317.915 71.4333 317.528 72.56 316.755 73.32C315.995 74.08 314.875 74.46 313.395 74.46ZM313.155 68.46C314.128 68.46 314.895 68.14 315.455 67.5C316.015 66.8467 316.295 65.9333 316.295 64.76C316.295 63.5867 316.015 62.68 315.455 62.04C314.895 61.4 314.128 61.08 313.155 61.08C312.195 61.08 311.428 61.4 310.855 62.04C310.281 62.68 309.995 63.5867 309.995 64.76C309.995 65.9333 310.281 66.8467 310.855 67.5C311.428 68.14 312.195 68.46 313.155 68.46ZM324.92 74.4C324.733 74.4 324.5 74.3733 324.22 74.32C323.94 74.28 323.707 74.2267 323.52 74.16V72.8C323.68 72.8533 323.867 72.9 324.08 72.94C324.293 72.9933 324.493 73.02 324.68 73.02C325.24 73.02 325.653 72.84 325.92 72.48C326.2 72.1333 326.34 71.56 326.34 70.76V59.96H327.96V70.92C327.96 72.0667 327.707 72.9333 327.2 73.52C326.707 74.1067 325.947 74.4 324.92 74.4ZM326.16 57.68V55.86H328.14V57.68H326.16ZM335.126 70.18C334.166 70.18 333.326 69.9733 332.606 69.56C331.899 69.1333 331.352 68.5333 330.966 67.76C330.579 66.9733 330.386 66.0467 330.386 64.98C330.386 63.9 330.579 62.9733 330.966 62.2C331.352 61.4267 331.899 60.8333 332.606 60.42C333.326 59.9933 334.166 59.78 335.126 59.78C336.099 59.78 336.939 59.9933 337.646 60.42C338.366 60.8333 338.919 61.4267 339.306 62.2C339.706 62.9733 339.906 63.9 339.906 64.98C339.906 66.0467 339.706 66.9733 339.306 67.76C338.919 68.5333 338.366 69.1333 337.646 69.56C336.939 69.9733 336.099 70.18 335.126 70.18ZM335.126 68.86C336.086 68.86 336.846 68.5333 337.406 67.88C337.966 67.2133 338.246 66.2467 338.246 64.98C338.246 63.7 337.959 62.7333 337.386 62.08C336.826 61.4133 336.072 61.08 335.126 61.08C334.179 61.08 333.426 61.4133 332.866 62.08C332.306 62.7333 332.026 63.7 332.026 64.98C332.026 66.2467 332.306 67.2133 332.866 67.88C333.426 68.5333 334.179 68.86 335.126 68.86ZM345.972 70.18C344.785 70.18 343.885 69.8533 343.272 69.2C342.672 68.5467 342.372 67.5467 342.372 66.2V59.96H343.992V66.16C343.992 67.08 344.178 67.76 344.552 68.2C344.925 68.6267 345.505 68.84 346.292 68.84C347.172 68.84 347.878 68.5533 348.412 67.98C348.945 67.4067 349.212 66.64 349.212 65.68V59.96H350.832V70H349.252V67.74H349.512C349.232 68.5133 348.778 69.1133 348.152 69.54C347.538 69.9667 346.812 70.18 345.972 70.18ZM353.935 70V62.38C353.935 61.98 353.921 61.5733 353.895 61.16C353.881 60.7467 353.855 60.3467 353.815 59.96H355.375L355.575 62.4L355.295 62.42C355.428 61.82 355.661 61.3267 355.995 60.94C356.328 60.5533 356.721 60.2667 357.175 60.08C357.628 59.88 358.101 59.78 358.595 59.78C358.795 59.78 358.968 59.7867 359.115 59.8C359.275 59.8133 359.421 59.8467 359.555 59.9L359.535 61.34C359.335 61.2733 359.148 61.2333 358.975 61.22C358.815 61.1933 358.628 61.18 358.415 61.18C357.828 61.18 357.315 61.32 356.875 61.6C356.448 61.88 356.121 62.24 355.895 62.68C355.681 63.12 355.575 63.5867 355.575 64.08V70H353.935ZM361.24 70V62.28C361.24 61.9067 361.22 61.5267 361.18 61.14C361.153 60.74 361.12 60.3467 361.08 59.96H362.64L362.84 62.16H362.6C362.893 61.3867 363.36 60.8 364 60.4C364.653 59.9867 365.407 59.78 366.26 59.78C367.447 59.78 368.34 60.1 368.94 60.74C369.553 61.3667 369.86 62.36 369.86 63.72V70H368.24V63.82C368.24 62.8733 368.047 62.1867 367.66 61.76C367.287 61.32 366.7 61.1 365.9 61.1C364.967 61.1 364.227 61.3867 363.68 61.96C363.133 62.5333 362.86 63.3 362.86 64.26V70H361.24ZM377.419 70.18C375.846 70.18 374.606 69.7267 373.699 68.82C372.792 67.9 372.339 66.6267 372.339 65C372.339 63.9467 372.539 63.0333 372.939 62.26C373.339 61.4733 373.899 60.8667 374.619 60.44C375.339 60 376.166 59.78 377.099 59.78C378.019 59.78 378.792 59.9733 379.419 60.36C380.046 60.7467 380.526 61.3 380.859 62.02C381.192 62.7267 381.359 63.5667 381.359 64.54V65.14H373.579V64.12H380.299L379.959 64.38C379.959 63.3133 379.719 62.48 379.239 61.88C378.759 61.28 378.046 60.98 377.099 60.98C376.099 60.98 375.319 61.3333 374.759 62.04C374.199 62.7333 373.919 63.6733 373.919 64.86V65.04C373.919 66.2933 374.226 67.2467 374.839 67.9C375.466 68.54 376.339 68.86 377.459 68.86C378.059 68.86 378.619 68.7733 379.139 68.6C379.672 68.4133 380.179 68.1133 380.659 67.7L381.219 68.84C380.779 69.2667 380.219 69.6 379.539 69.84C378.872 70.0667 378.166 70.18 377.419 70.18ZM383.321 74.54L382.941 73.2C383.567 73.0533 384.087 72.88 384.501 72.68C384.927 72.4933 385.281 72.24 385.561 71.92C385.841 71.6 386.081 71.2 386.281 70.72L386.801 69.54L386.761 70.22L382.381 59.96H384.141L387.761 68.78H387.241L390.821 59.96H392.521L387.881 70.84C387.614 71.48 387.321 72.0133 387.001 72.44C386.681 72.88 386.334 73.2333 385.961 73.5C385.601 73.78 385.201 74 384.761 74.16C384.321 74.32 383.841 74.4467 383.321 74.54ZM393.049 70V67.96H395.089V70H393.049Z" fill="#030303"/>
<path d="M77.3333 91C77.3333 92.4728 78.5272 93.6667 80 93.6667C81.4728 93.6667 82.6667 92.4728 82.6667 91C82.6667 89.5272 81.4728 88.3333 80 88.3333C78.5272 88.3333 77.3333 89.5272 77.3333 91ZM432.333 103C432.333 104.473 433.527 105.667 435 105.667C436.473 105.667 437.667 104.473 437.667 103C437.667 101.527 436.473 100.333 435 100.333C433.527 100.333 432.333 101.527 432.333 103ZM109.5 103L109.312 103.463L109.402 103.5H109.5V103ZM79.8116 91.4631L80.7335 91.8381L81.1103 90.9119L80.1884 90.5369L79.8116 91.4631ZM82.5772 92.5881L84.421 93.3381L84.7978 92.4119L82.954 91.6619L82.5772 92.5881ZM86.2647 94.0881L88.1085 94.8381L88.4853 93.9119L86.6415 93.1619L86.2647 94.0881ZM89.9522 95.5881L91.796 96.3381L92.1728 95.4119L90.329 94.6619L89.9522 95.5881ZM93.6397 97.0881L95.4835 97.8381L95.8603 96.9119L94.0165 96.1619L93.6397 97.0881ZM97.3272 98.5881L99.171 99.3381L99.5478 98.4119L97.704 97.6619L97.3272 98.5881ZM101.015 100.088L102.858 100.838L103.235 99.9119L101.392 99.1619L101.015 100.088ZM104.702 101.588L106.546 102.338L106.923 101.412L105.079 100.662L104.702 101.588ZM108.39 103.088L109.312 103.463L109.688 102.537L108.767 102.162L108.39 103.088ZM109.5 103.5H110.505V102.5H109.5V103.5ZM112.514 103.5H114.523V102.5H112.514V103.5ZM116.532 103.5H118.542V102.5H116.532V103.5ZM120.551 103.5H122.56V102.5H120.551V103.5ZM124.569 103.5H126.579V102.5H124.569V103.5ZM128.588 103.5H130.597V102.5H128.588V103.5ZM132.606 103.5H134.616V102.5H132.606V103.5ZM136.625 103.5H138.634V102.5H136.625V103.5ZM140.644 103.5H142.653V102.5H140.644V103.5ZM144.662 103.5H146.671V102.5H144.662V103.5ZM148.681 103.5H150.69V102.5H148.681V103.5ZM152.699 103.5H154.708V102.5H152.699V103.5ZM156.718 103.5H158.727V102.5H156.718V103.5ZM160.736 103.5H162.745V102.5H160.736V103.5ZM164.755 103.5H166.764V102.5H164.755V103.5ZM168.773 103.5H170.782V102.5H168.773V103.5ZM172.792 103.5H174.801V102.5H172.792V103.5ZM176.81 103.5H178.819V102.5H176.81V103.5ZM180.829 103.5H182.838V102.5H180.829V103.5ZM184.847 103.5H186.856V102.5H184.847V103.5ZM188.866 103.5H190.875V102.5H188.866V103.5ZM192.884 103.5H194.894V102.5H192.884V103.5ZM196.903 103.5H198.912V102.5H196.903V103.5ZM200.921 103.5H202.931V102.5H200.921V103.5ZM204.94 103.5H206.949V102.5H204.94V103.5ZM208.958 103.5H210.968V102.5H208.958V103.5ZM212.977 103.5H214.986V102.5H212.977V103.5ZM216.995 103.5H219.005V102.5H216.995V103.5ZM221.014 103.5H223.023V102.5H221.014V103.5ZM225.032 103.5H227.042V102.5H225.032V103.5ZM229.051 103.5H231.06V102.5H229.051V103.5ZM233.07 103.5H235.079V102.5H233.07V103.5ZM237.088 103.5H239.097V102.5H237.088V103.5ZM241.107 103.5H243.116V102.5H241.107V103.5ZM245.125 103.5H247.134V102.5H245.125V103.5ZM249.144 103.5H251.153V102.5H249.144V103.5ZM253.162 103.5H255.171V102.5H253.162V103.5ZM257.181 103.5H259.19V102.5H257.181V103.5ZM261.199 103.5H263.208V102.5H261.199V103.5ZM265.218 103.5H267.227V102.5H265.218V103.5ZM269.236 103.5H271.245V102.5H269.236V103.5ZM273.255 103.5H275.264V102.5H273.255V103.5ZM277.273 103.5H279.283V102.5H277.273V103.5ZM281.292 103.5H283.301V102.5H281.292V103.5ZM285.31 103.5H287.32V102.5H285.31V103.5ZM289.329 103.5H291.338V102.5H289.329V103.5ZM293.347 103.5H295.357V102.5H293.347V103.5ZM297.366 103.5H299.375V102.5H297.366V103.5ZM301.384 103.5H303.394V102.5H301.384V103.5ZM305.403 103.5H307.412V102.5H305.403V103.5ZM309.421 103.5H311.431V102.5H309.421V103.5ZM313.44 103.5H315.449V102.5H313.44V103.5ZM317.459 103.5H319.468V102.5H317.459V103.5ZM321.477 103.5H323.486V102.5H321.477V103.5ZM325.496 103.5H327.505V102.5H325.496V103.5ZM329.514 103.5H331.523V102.5H329.514V103.5ZM333.533 103.5H335.542V102.5H333.533V103.5ZM337.551 103.5H339.56V102.5H337.551V103.5ZM341.57 103.5H343.579V102.5H341.57V103.5ZM345.588 103.5H347.597V102.5H345.588V103.5ZM349.607 103.5H351.616V102.5H349.607V103.5ZM353.625 103.5H355.634V102.5H353.625V103.5ZM357.644 103.5H359.653V102.5H357.644V103.5ZM361.662 103.5H363.672V102.5H361.662V103.5ZM365.681 103.5H367.69V102.5H365.681V103.5ZM369.699 103.5H371.709V102.5H369.699V103.5ZM373.718 103.5H375.727V102.5H373.718V103.5ZM377.736 103.5H379.746V102.5H377.736V103.5ZM381.755 103.5H383.764V102.5H381.755V103.5ZM385.773 103.5H387.783V102.5H385.773V103.5ZM389.792 103.5H391.801V102.5H389.792V103.5ZM393.81 103.5H395.819V102.5H393.81V103.5ZM397.829 103.5H399.838V102.5H397.829V103.5ZM401.847 103.5H403.856V102.5H401.847V103.5ZM405.866 103.5H407.875V102.5H405.866V103.5ZM409.884 103.5H411.893V102.5H409.884V103.5ZM413.903 103.5H415.912V102.5H413.903V103.5ZM417.921 103.5H419.93V102.5H417.921V103.5ZM421.94 103.5H423.949V102.5H421.94V103.5ZM425.958 103.5H427.967V102.5H425.958V103.5ZM429.977 103.5H431.986V102.5H429.977V103.5ZM433.995 103.5H435V102.5H433.995V103.5Z" fill="#030303"/>
<circle cx="50" cy="50" r="49.5" stroke="#030303" stroke-dasharray="2 2"/>
<rect x="2" y="2" width="96" height="96" rx="48" fill="#236A83"/>
<path d="M39.5 46.5L50 57L78 29" stroke="white" stroke-width="8" stroke-linecap="round" stroke-linejoin="round"/>
<path d="M78 50V71C78 72.8565 77.2625 74.637 75.9497 75.9497C74.637 77.2625 72.8565 78 71 78H29C27.1435 78 25.363 77.2625 24.0503 75.9497C22.7375 74.637 22 72.8565 22 71V29C22 27.1435 22.7375 25.363 24.0503 24.0503C25.363 22.7375 27.1435 22 29 22H60.5" stroke="white" stroke-width="4" stroke-linecap="round" stroke-linejoin="round"/>
</svg>
