<svg width="438" height="106" viewBox="0 0 438 106" fill="none" xmlns="http://www.w3.org/2000/svg">
<path d="M119.76 45V30.9H128.76V32.26H121.38V37.16H128.32V38.54H121.38V43.62H128.76V45H119.76ZM131.76 45V36.22H129.8V34.96H132.2L131.76 35.38V33.7C131.76 32.5667 132.047 31.7 132.62 31.1C133.193 30.5 134.013 30.2 135.08 30.2C135.347 30.2 135.62 30.2267 135.9 30.28C136.193 30.32 136.433 30.38 136.62 30.46V31.8C136.46 31.7333 136.26 31.68 136.02 31.64C135.793 31.5867 135.56 31.56 135.32 31.56C134.907 31.56 134.553 31.6467 134.26 31.82C133.967 31.98 133.747 32.2267 133.6 32.56C133.453 32.8933 133.38 33.32 133.38 33.84V35.3L133.12 34.96H136.18V36.22H133.38V45H131.76ZM138.205 45V36.22H136.245V34.96H138.645L138.205 35.38V33.7C138.205 32.5667 138.492 31.7 139.065 31.1C139.639 30.5 140.459 30.2 141.525 30.2C141.792 30.2 142.065 30.2267 142.345 30.28C142.639 30.32 142.879 30.38 143.065 30.46V31.8C142.905 31.7333 142.705 31.68 142.465 31.64C142.239 31.5867 142.005 31.56 141.765 31.56C141.352 31.56 140.999 31.6467 140.705 31.82C140.412 31.98 140.192 32.2267 140.045 32.56C139.899 32.8933 139.825 33.32 139.825 33.84V35.3L139.565 34.96H142.625V36.22H139.825V45H138.205ZM148.29 45.18C147.33 45.18 146.49 44.9733 145.77 44.56C145.063 44.1333 144.517 43.5333 144.13 42.76C143.743 41.9733 143.55 41.0467 143.55 39.98C143.55 38.9 143.743 37.9733 144.13 37.2C144.517 36.4267 145.063 35.8333 145.77 35.42C146.49 34.9933 147.33 34.78 148.29 34.78C149.263 34.78 150.103 34.9933 150.81 35.42C151.53 35.8333 152.083 36.4267 152.47 37.2C152.87 37.9733 153.07 38.9 153.07 39.98C153.07 41.0467 152.87 41.9733 152.47 42.76C152.083 43.5333 151.53 44.1333 150.81 44.56C150.103 44.9733 149.263 45.18 148.29 45.18ZM148.29 43.86C149.25 43.86 150.01 43.5333 150.57 42.88C151.13 42.2133 151.41 41.2467 151.41 39.98C151.41 38.7 151.123 37.7333 150.55 37.08C149.99 36.4133 149.237 36.08 148.29 36.08C147.343 36.08 146.59 36.4133 146.03 37.08C145.47 37.7333 145.19 38.7 145.19 39.98C145.19 41.2467 145.47 42.2133 146.03 42.88C146.59 43.5333 147.343 43.86 148.29 43.86ZM155.556 45V37.38C155.556 36.98 155.542 36.5733 155.516 36.16C155.502 35.7467 155.476 35.3467 155.436 34.96H156.996L157.196 37.4L156.916 37.42C157.049 36.82 157.282 36.3267 157.616 35.94C157.949 35.5533 158.342 35.2667 158.796 35.08C159.249 34.88 159.722 34.78 160.216 34.78C160.416 34.78 160.589 34.7867 160.736 34.8C160.896 34.8133 161.042 34.8467 161.176 34.9L161.156 36.34C160.956 36.2733 160.769 36.2333 160.596 36.22C160.436 36.1933 160.249 36.18 160.036 36.18C159.449 36.18 158.936 36.32 158.496 36.6C158.069 36.88 157.742 37.24 157.516 37.68C157.302 38.12 157.196 38.5867 157.196 39.08V45H155.556ZM166.949 45.18C165.962 45.18 165.209 44.9 164.689 44.34C164.169 43.7667 163.909 42.9067 163.909 41.76V36.22H161.949V34.96H163.909V32.22L165.529 31.76V34.96H168.409V36.22H165.529V41.58C165.529 42.38 165.662 42.9533 165.929 43.3C166.209 43.6333 166.622 43.8 167.169 43.8C167.422 43.8 167.649 43.78 167.849 43.74C168.049 43.6867 168.229 43.6267 168.389 43.56V44.92C168.202 45 167.975 45.06 167.709 45.1C167.455 45.1533 167.202 45.18 166.949 45.18ZM170.381 45V30.28H172.001V45H170.381ZM179.606 45.18C178.033 45.18 176.793 44.7267 175.886 43.82C174.98 42.9 174.526 41.6267 174.526 40C174.526 38.9467 174.726 38.0333 175.126 37.26C175.526 36.4733 176.086 35.8667 176.806 35.44C177.526 35 178.353 34.78 179.286 34.78C180.206 34.78 180.98 34.9733 181.606 35.36C182.233 35.7467 182.713 36.3 183.046 37.02C183.38 37.7267 183.546 38.5667 183.546 39.54V40.14H175.766V39.12H182.486L182.146 39.38C182.146 38.3133 181.906 37.48 181.426 36.88C180.946 36.28 180.233 35.98 179.286 35.98C178.286 35.98 177.506 36.3333 176.946 37.04C176.386 37.7333 176.106 38.6733 176.106 39.86V40.04C176.106 41.2933 176.413 42.2467 177.026 42.9C177.653 43.54 178.526 43.86 179.646 43.86C180.246 43.86 180.806 43.7733 181.326 43.6C181.86 43.4133 182.366 43.1133 182.846 42.7L183.406 43.84C182.966 44.2667 182.406 44.6 181.726 44.84C181.06 45.0667 180.353 45.18 179.606 45.18ZM189.365 45.18C188.565 45.18 187.819 45.0733 187.125 44.86C186.432 44.6333 185.859 44.32 185.405 43.92L185.965 42.78C186.459 43.1667 186.992 43.4533 187.565 43.64C188.152 43.8267 188.759 43.92 189.385 43.92C190.185 43.92 190.785 43.78 191.185 43.5C191.599 43.2067 191.805 42.8067 191.805 42.3C191.805 41.9133 191.672 41.6067 191.405 41.38C191.152 41.14 190.732 40.9533 190.145 40.82L188.285 40.44C187.432 40.2533 186.792 39.94 186.365 39.5C185.939 39.0467 185.725 38.4733 185.725 37.78C185.725 37.1933 185.879 36.68 186.185 36.24C186.492 35.7867 186.939 35.4333 187.525 35.18C188.112 34.9133 188.799 34.78 189.585 34.78C190.319 34.78 190.992 34.8933 191.605 35.12C192.232 35.3333 192.752 35.6467 193.165 36.06L192.585 37.18C192.185 36.7933 191.725 36.5067 191.205 36.32C190.699 36.12 190.172 36.02 189.625 36.02C188.839 36.02 188.245 36.18 187.845 36.5C187.459 36.8067 187.265 37.2133 187.265 37.72C187.265 38.1067 187.385 38.4267 187.625 38.68C187.879 38.92 188.265 39.1 188.785 39.22L190.645 39.6C191.552 39.8 192.225 40.1133 192.665 40.54C193.119 40.9533 193.345 41.5133 193.345 42.22C193.345 42.82 193.179 43.3467 192.845 43.8C192.512 44.24 192.045 44.58 191.445 44.82C190.859 45.06 190.165 45.18 189.365 45.18ZM199.287 45.18C198.487 45.18 197.741 45.0733 197.047 44.86C196.354 44.6333 195.781 44.32 195.327 43.92L195.887 42.78C196.381 43.1667 196.914 43.4533 197.487 43.64C198.074 43.8267 198.681 43.92 199.307 43.92C200.107 43.92 200.707 43.78 201.107 43.5C201.521 43.2067 201.727 42.8067 201.727 42.3C201.727 41.9133 201.594 41.6067 201.327 41.38C201.074 41.14 200.654 40.9533 200.067 40.82L198.207 40.44C197.354 40.2533 196.714 39.94 196.287 39.5C195.861 39.0467 195.647 38.4733 195.647 37.78C195.647 37.1933 195.801 36.68 196.107 36.24C196.414 35.7867 196.861 35.4333 197.447 35.18C198.034 34.9133 198.721 34.78 199.507 34.78C200.241 34.78 200.914 34.8933 201.527 35.12C202.154 35.3333 202.674 35.6467 203.087 36.06L202.507 37.18C202.107 36.7933 201.647 36.5067 201.127 36.32C200.621 36.12 200.094 36.02 199.547 36.02C198.761 36.02 198.167 36.18 197.767 36.5C197.381 36.8067 197.187 37.2133 197.187 37.72C197.187 38.1067 197.307 38.4267 197.547 38.68C197.801 38.92 198.187 39.1 198.707 39.22L200.567 39.6C201.474 39.8 202.147 40.1133 202.587 40.54C203.041 40.9533 203.267 41.5133 203.267 42.22C203.267 42.82 203.101 43.3467 202.767 43.8C202.434 44.24 201.967 44.58 201.367 44.82C200.781 45.06 200.087 45.18 199.287 45.18ZM205.869 45V30.28H207.489V45H205.869ZM210.235 49.54L209.855 48.2C210.481 48.0533 211.001 47.88 211.415 47.68C211.841 47.4933 212.195 47.24 212.475 46.92C212.755 46.6 212.995 46.2 213.195 45.72L213.715 44.54L213.675 45.22L209.295 34.96H211.055L214.675 43.78H214.155L217.735 34.96H219.435L214.795 45.84C214.528 46.48 214.235 47.0133 213.915 47.44C213.595 47.88 213.248 48.2333 212.875 48.5C212.515 48.78 212.115 49 211.675 49.16C211.235 49.32 210.755 49.4467 210.235 49.54ZM229.815 45.18C229.015 45.18 228.268 45.0733 227.575 44.86C226.881 44.6333 226.308 44.32 225.855 43.92L226.415 42.78C226.908 43.1667 227.441 43.4533 228.015 43.64C228.601 43.8267 229.208 43.92 229.835 43.92C230.635 43.92 231.235 43.78 231.635 43.5C232.048 43.2067 232.255 42.8067 232.255 42.3C232.255 41.9133 232.121 41.6067 231.855 41.38C231.601 41.14 231.181 40.9533 230.595 40.82L228.735 40.44C227.881 40.2533 227.241 39.94 226.815 39.5C226.388 39.0467 226.175 38.4733 226.175 37.78C226.175 37.1933 226.328 36.68 226.635 36.24C226.941 35.7867 227.388 35.4333 227.975 35.18C228.561 34.9133 229.248 34.78 230.035 34.78C230.768 34.78 231.441 34.8933 232.055 35.12C232.681 35.3333 233.201 35.6467 233.615 36.06L233.035 37.18C232.635 36.7933 232.175 36.5067 231.655 36.32C231.148 36.12 230.621 36.02 230.075 36.02C229.288 36.02 228.695 36.18 228.295 36.5C227.908 36.8067 227.715 37.2133 227.715 37.72C227.715 38.1067 227.835 38.4267 228.075 38.68C228.328 38.92 228.715 39.1 229.235 39.22L231.095 39.6C232.001 39.8 232.675 40.1133 233.115 40.54C233.568 40.9533 233.795 41.5133 233.795 42.22C233.795 42.82 233.628 43.3467 233.295 43.8C232.961 44.24 232.495 44.58 231.895 44.82C231.308 45.06 230.615 45.18 229.815 45.18ZM240.856 45.18C239.283 45.18 238.043 44.7267 237.136 43.82C236.23 42.9 235.776 41.6267 235.776 40C235.776 38.9467 235.976 38.0333 236.376 37.26C236.776 36.4733 237.336 35.8667 238.056 35.44C238.776 35 239.603 34.78 240.536 34.78C241.456 34.78 242.23 34.9733 242.856 35.36C243.483 35.7467 243.963 36.3 244.296 37.02C244.63 37.7267 244.796 38.5667 244.796 39.54V40.14H237.016V39.12H243.736L243.396 39.38C243.396 38.3133 243.156 37.48 242.676 36.88C242.196 36.28 241.483 35.98 240.536 35.98C239.536 35.98 238.756 36.3333 238.196 37.04C237.636 37.7333 237.356 38.6733 237.356 39.86V40.04C237.356 41.2933 237.663 42.2467 238.276 42.9C238.903 43.54 239.776 43.86 240.896 43.86C241.496 43.86 242.056 43.7733 242.576 43.6C243.11 43.4133 243.616 43.1133 244.096 42.7L244.656 43.84C244.216 44.2667 243.656 44.6 242.976 44.84C242.31 45.0667 241.603 45.18 240.856 45.18ZM247.275 45V30.28H248.895V45H247.275ZM252.041 45V30.28H253.661V45H252.041ZM261.621 49.54L261.241 48.2C261.868 48.0533 262.388 47.88 262.801 47.68C263.228 47.4933 263.581 47.24 263.861 46.92C264.141 46.6 264.381 46.2 264.581 45.72L265.101 44.54L265.061 45.22L260.681 34.96H262.441L266.061 43.78H265.541L269.121 34.96H270.821L266.181 45.84C265.915 46.48 265.621 47.0133 265.301 47.44C264.981 47.88 264.635 48.2333 264.261 48.5C263.901 48.78 263.501 49 263.061 49.16C262.621 49.32 262.141 49.4467 261.621 49.54ZM276.63 45.18C275.67 45.18 274.83 44.9733 274.11 44.56C273.403 44.1333 272.856 43.5333 272.47 42.76C272.083 41.9733 271.89 41.0467 271.89 39.98C271.89 38.9 272.083 37.9733 272.47 37.2C272.856 36.4267 273.403 35.8333 274.11 35.42C274.83 34.9933 275.67 34.78 276.63 34.78C277.603 34.78 278.443 34.9933 279.15 35.42C279.87 35.8333 280.423 36.4267 280.81 37.2C281.21 37.9733 281.41 38.9 281.41 39.98C281.41 41.0467 281.21 41.9733 280.81 42.76C280.423 43.5333 279.87 44.1333 279.15 44.56C278.443 44.9733 277.603 45.18 276.63 45.18ZM276.63 43.86C277.59 43.86 278.35 43.5333 278.91 42.88C279.47 42.2133 279.75 41.2467 279.75 39.98C279.75 38.7 279.463 37.7333 278.89 37.08C278.33 36.4133 277.576 36.08 276.63 36.08C275.683 36.08 274.93 36.4133 274.37 37.08C273.81 37.7333 273.53 38.7 273.53 39.98C273.53 41.2467 273.81 42.2133 274.37 42.88C274.93 43.5333 275.683 43.86 276.63 43.86ZM287.475 45.18C286.289 45.18 285.389 44.8533 284.775 44.2C284.175 43.5467 283.875 42.5467 283.875 41.2V34.96H285.495V41.16C285.495 42.08 285.682 42.76 286.055 43.2C286.429 43.6267 287.009 43.84 287.795 43.84C288.675 43.84 289.382 43.5533 289.915 42.98C290.449 42.4067 290.715 41.64 290.715 40.68V34.96H292.335V45H290.755V42.74H291.015C290.735 43.5133 290.282 44.1133 289.655 44.54C289.042 44.9667 288.315 45.18 287.475 45.18ZM295.438 45V37.38C295.438 36.98 295.425 36.5733 295.398 36.16C295.385 35.7467 295.358 35.3467 295.318 34.96H296.878L297.078 37.4L296.798 37.42C296.932 36.82 297.165 36.3267 297.498 35.94C297.832 35.5533 298.225 35.2667 298.678 35.08C299.132 34.88 299.605 34.78 300.098 34.78C300.298 34.78 300.472 34.7867 300.618 34.8C300.778 34.8133 300.925 34.8467 301.058 34.9L301.038 36.34C300.838 36.2733 300.652 36.2333 300.478 36.22C300.318 36.1933 300.132 36.18 299.918 36.18C299.332 36.18 298.818 36.32 298.378 36.6C297.952 36.88 297.625 37.24 297.398 37.68C297.185 38.12 297.078 38.5867 297.078 39.08V45H295.438ZM312.179 45.18C311.192 45.18 310.332 44.9667 309.599 44.54C308.879 44.1133 308.319 43.5067 307.919 42.72C307.532 41.9333 307.339 41 307.339 39.92C307.339 38.8267 307.539 37.9 307.939 37.14C308.339 36.3667 308.899 35.78 309.619 35.38C310.352 34.98 311.206 34.78 312.179 34.78C312.819 34.78 313.439 34.8933 314.039 35.12C314.652 35.3467 315.159 35.6667 315.559 36.08L314.979 37.24C314.579 36.8533 314.139 36.5667 313.659 36.38C313.192 36.1933 312.732 36.1 312.279 36.1C311.239 36.1 310.432 36.4267 309.859 37.08C309.286 37.7333 308.999 38.6867 308.999 39.94C308.999 41.18 309.286 42.14 309.859 42.82C310.432 43.5 311.239 43.84 312.279 43.84C312.719 43.84 313.172 43.7533 313.639 43.58C314.119 43.4067 314.566 43.12 314.979 42.72L315.559 43.86C315.146 44.2867 314.632 44.6133 314.019 44.84C313.406 45.0667 312.792 45.18 312.179 45.18ZM321.603 45.18C320.71 45.18 319.93 44.9733 319.263 44.56C318.596 44.1333 318.076 43.5333 317.703 42.76C317.343 41.9867 317.163 41.06 317.163 39.98C317.163 38.8867 317.343 37.9533 317.703 37.18C318.076 36.4067 318.596 35.8133 319.263 35.4C319.93 34.9867 320.71 34.78 321.603 34.78C322.51 34.78 323.29 35.0133 323.943 35.48C324.61 35.9333 325.05 36.5533 325.263 37.34H325.023L325.243 34.96H326.803C326.763 35.3467 326.723 35.74 326.683 36.14C326.656 36.5267 326.643 36.9067 326.643 37.28V45H325.023V42.64H325.243C325.03 43.4267 324.59 44.0467 323.923 44.5C323.256 44.9533 322.483 45.18 321.603 45.18ZM321.923 43.86C322.883 43.86 323.643 43.5333 324.203 42.88C324.763 42.2133 325.043 41.2467 325.043 39.98C325.043 38.7 324.763 37.7333 324.203 37.08C323.643 36.4133 322.883 36.08 321.923 36.08C320.976 36.08 320.216 36.4133 319.643 37.08C319.083 37.7333 318.803 38.7 318.803 39.98C318.803 41.2467 319.083 42.2133 319.643 42.88C320.216 43.5333 320.976 43.86 321.923 43.86ZM329.735 45V37.38C329.735 36.98 329.722 36.5733 329.695 36.16C329.682 35.7467 329.655 35.3467 329.615 34.96H331.175L331.375 37.4L331.095 37.42C331.229 36.82 331.462 36.3267 331.795 35.94C332.129 35.5533 332.522 35.2667 332.975 35.08C333.429 34.88 333.902 34.78 334.395 34.78C334.595 34.78 334.769 34.7867 334.915 34.8C335.075 34.8133 335.222 34.8467 335.355 34.9L335.335 36.34C335.135 36.2733 334.949 36.2333 334.775 36.22C334.615 36.1933 334.429 36.18 334.215 36.18C333.629 36.18 333.115 36.32 332.675 36.6C332.249 36.88 331.922 37.24 331.695 37.68C331.482 38.12 331.375 38.5867 331.375 39.08V45H329.735ZM344.936 45L341.216 34.96H342.936L346.036 43.8H345.516L348.716 34.96H350.116L353.256 43.8H352.756L355.876 34.96H357.516L353.776 45H352.216L348.976 36.02H349.776L346.516 45H344.936ZM359.639 45V30.28H361.259V37.18H360.999C361.279 36.3933 361.745 35.8 362.399 35.4C363.065 34.9867 363.832 34.78 364.699 34.78C365.899 34.78 366.792 35.1067 367.379 35.76C367.965 36.4 368.259 37.3733 368.259 38.68V45H366.639V38.78C366.639 37.8467 366.452 37.1667 366.079 36.74C365.719 36.3133 365.132 36.1 364.319 36.1C363.385 36.1 362.639 36.3867 362.079 36.96C361.532 37.5333 361.259 38.2867 361.259 39.22V45H359.639ZM371.357 45V34.96H372.977V45H371.357ZM371.157 32.68V30.86H373.157V32.68H371.157ZM376.123 45V30.28H377.743V45H376.123ZM385.349 45.18C383.775 45.18 382.535 44.7267 381.629 43.82C380.722 42.9 380.269 41.6267 380.269 40C380.269 38.9467 380.469 38.0333 380.869 37.26C381.269 36.4733 381.829 35.8667 382.549 35.44C383.269 35 384.095 34.78 385.029 34.78C385.949 34.78 386.722 34.9733 387.349 35.36C387.975 35.7467 388.455 36.3 388.789 37.02C389.122 37.7267 389.289 38.5667 389.289 39.54V40.14H381.509V39.12H388.229L387.889 39.38C387.889 38.3133 387.649 37.48 387.169 36.88C386.689 36.28 385.975 35.98 385.029 35.98C384.029 35.98 383.249 36.3333 382.689 37.04C382.129 37.7333 381.849 38.6733 381.849 39.86V40.04C381.849 41.2933 382.155 42.2467 382.769 42.9C383.395 43.54 384.269 43.86 385.389 43.86C385.989 43.86 386.549 43.7733 387.069 43.6C387.602 43.4133 388.109 43.1133 388.589 42.7L389.149 43.84C388.709 44.2667 388.149 44.6 387.469 44.84C386.802 45.0667 386.095 45.18 385.349 45.18ZM124.04 70.18C122.467 70.18 121.227 69.7267 120.32 68.82C119.413 67.9 118.96 66.6267 118.96 65C118.96 63.9467 119.16 63.0333 119.56 62.26C119.96 61.4733 120.52 60.8667 121.24 60.44C121.96 60 122.787 59.78 123.72 59.78C124.64 59.78 125.413 59.9733 126.04 60.36C126.667 60.7467 127.147 61.3 127.48 62.02C127.813 62.7267 127.98 63.5667 127.98 64.54V65.14H120.2V64.12H126.92L126.58 64.38C126.58 63.3133 126.34 62.48 125.86 61.88C125.38 61.28 124.667 60.98 123.72 60.98C122.72 60.98 121.94 61.3333 121.38 62.04C120.82 62.7333 120.54 63.6733 120.54 64.86V65.04C120.54 66.2933 120.847 67.2467 121.46 67.9C122.087 68.54 122.96 68.86 124.08 68.86C124.68 68.86 125.24 68.7733 125.76 68.6C126.293 68.4133 126.8 68.1133 127.28 67.7L127.84 68.84C127.4 69.2667 126.84 69.6 126.16 69.84C125.493 70.0667 124.787 70.18 124.04 70.18ZM130.459 70V62.28C130.459 61.9067 130.439 61.5267 130.399 61.14C130.372 60.74 130.339 60.3467 130.299 59.96H131.859L132.059 62.16H131.819C132.112 61.3867 132.579 60.8 133.219 60.4C133.872 59.9867 134.626 59.78 135.479 59.78C136.666 59.78 137.559 60.1 138.159 60.74C138.772 61.3667 139.079 62.36 139.079 63.72V70H137.459V63.82C137.459 62.8733 137.266 62.1867 136.879 61.76C136.506 61.32 135.919 61.1 135.119 61.1C134.186 61.1 133.446 61.3867 132.899 61.96C132.352 62.5333 132.079 63.3 132.079 64.26V70H130.459ZM140.858 74.4C140.671 74.4 140.438 74.3733 140.158 74.32C139.878 74.28 139.644 74.2267 139.458 74.16V72.8C139.618 72.8533 139.804 72.9 140.018 72.94C140.231 72.9933 140.431 73.02 140.618 73.02C141.178 73.02 141.591 72.84 141.858 72.48C142.138 72.1333 142.278 71.56 142.278 70.76V59.96H143.898V70.92C143.898 72.0667 143.644 72.9333 143.138 73.52C142.644 74.1067 141.884 74.4 140.858 74.4ZM142.098 57.68V55.86H144.078V57.68H142.098ZM151.063 70.18C150.103 70.18 149.263 69.9733 148.543 69.56C147.837 69.1333 147.29 68.5333 146.903 67.76C146.517 66.9733 146.323 66.0467 146.323 64.98C146.323 63.9 146.517 62.9733 146.903 62.2C147.29 61.4267 147.837 60.8333 148.543 60.42C149.263 59.9933 150.103 59.78 151.063 59.78C152.037 59.78 152.877 59.9933 153.583 60.42C154.303 60.8333 154.857 61.4267 155.243 62.2C155.643 62.9733 155.843 63.9 155.843 64.98C155.843 66.0467 155.643 66.9733 155.243 67.76C154.857 68.5333 154.303 69.1333 153.583 69.56C152.877 69.9733 152.037 70.18 151.063 70.18ZM151.063 68.86C152.023 68.86 152.783 68.5333 153.343 67.88C153.903 67.2133 154.183 66.2467 154.183 64.98C154.183 63.7 153.897 62.7333 153.323 62.08C152.763 61.4133 152.01 61.08 151.063 61.08C150.117 61.08 149.363 61.4133 148.803 62.08C148.243 62.7333 147.963 63.7 147.963 64.98C147.963 66.2467 148.243 67.2133 148.803 67.88C149.363 68.5333 150.117 68.86 151.063 68.86ZM157.832 74.54L157.452 73.2C158.079 73.0533 158.599 72.88 159.012 72.68C159.439 72.4933 159.792 72.24 160.072 71.92C160.352 71.6 160.592 71.2 160.792 70.72L161.312 69.54L161.272 70.22L156.892 59.96H158.652L162.272 68.78H161.752L165.332 59.96H167.032L162.392 70.84C162.126 71.48 161.832 72.0133 161.512 72.44C161.192 72.88 160.846 73.2333 160.472 73.5C160.112 73.78 159.712 74 159.272 74.16C158.832 74.32 158.352 74.4467 157.832 74.54ZM168.857 70V59.96H170.477V70H168.857ZM168.657 57.68V55.86H170.657V57.68H168.657ZM173.623 70V62.28C173.623 61.9067 173.603 61.5267 173.563 61.14C173.536 60.74 173.503 60.3467 173.463 59.96H175.023L175.223 62.16H174.983C175.276 61.3867 175.743 60.8 176.383 60.4C177.036 59.9867 177.79 59.78 178.643 59.78C179.83 59.78 180.723 60.1 181.323 60.74C181.936 61.3667 182.243 62.36 182.243 63.72V70H180.623V63.82C180.623 62.8733 180.43 62.1867 180.043 61.76C179.67 61.32 179.083 61.1 178.283 61.1C177.35 61.1 176.61 61.3867 176.063 61.96C175.516 62.5333 175.243 63.3 175.243 64.26V70H173.623ZM189.762 74.46C188.895 74.46 188.095 74.3533 187.362 74.14C186.628 73.9267 185.968 73.6 185.382 73.16L185.862 71.94C186.275 72.2333 186.682 72.4667 187.082 72.64C187.482 72.8133 187.895 72.94 188.322 73.02C188.748 73.1133 189.202 73.16 189.682 73.16C190.668 73.16 191.415 72.9 191.922 72.38C192.428 71.86 192.682 71.12 192.682 70.16V67.22H192.882C192.668 68.0067 192.228 68.6333 191.562 69.1C190.895 69.5533 190.115 69.78 189.222 69.78C188.302 69.78 187.502 69.58 186.822 69.18C186.155 68.7667 185.635 68.1867 185.262 67.44C184.902 66.68 184.722 65.7867 184.722 64.76C184.722 63.7467 184.902 62.8667 185.262 62.12C185.635 61.3733 186.155 60.8 186.822 60.4C187.502 59.9867 188.302 59.78 189.222 59.78C190.128 59.78 190.908 60.0067 191.562 60.46C192.228 60.9133 192.668 61.54 192.882 62.34L192.682 62.14L192.862 59.96H194.442C194.388 60.3467 194.348 60.74 194.322 61.14C194.295 61.5267 194.282 61.9067 194.282 62.28V69.94C194.282 71.4333 193.895 72.56 193.122 73.32C192.362 74.08 191.242 74.46 189.762 74.46ZM189.522 68.46C190.495 68.46 191.262 68.14 191.822 67.5C192.382 66.8467 192.662 65.9333 192.662 64.76C192.662 63.5867 192.382 62.68 191.822 62.04C191.262 61.4 190.495 61.08 189.522 61.08C188.562 61.08 187.795 61.4 187.222 62.04C186.648 62.68 186.362 63.5867 186.362 64.76C186.362 65.9333 186.648 66.8467 187.222 67.5C187.795 68.14 188.562 68.46 189.522 68.46ZM202.207 74.54L201.827 73.2C202.454 73.0533 202.974 72.88 203.387 72.68C203.814 72.4933 204.167 72.24 204.447 71.92C204.727 71.6 204.967 71.2 205.167 70.72L205.687 69.54L205.647 70.22L201.267 59.96H203.027L206.647 68.78H206.127L209.707 59.96H211.407L206.767 70.84C206.501 71.48 206.207 72.0133 205.887 72.44C205.567 72.88 205.221 73.2333 204.847 73.5C204.487 73.78 204.087 74 203.647 74.16C203.207 74.32 202.727 74.4467 202.207 74.54ZM217.216 70.18C216.256 70.18 215.416 69.9733 214.696 69.56C213.989 69.1333 213.442 68.5333 213.056 67.76C212.669 66.9733 212.476 66.0467 212.476 64.98C212.476 63.9 212.669 62.9733 213.056 62.2C213.442 61.4267 213.989 60.8333 214.696 60.42C215.416 59.9933 216.256 59.78 217.216 59.78C218.189 59.78 219.029 59.9933 219.736 60.42C220.456 60.8333 221.009 61.4267 221.396 62.2C221.796 62.9733 221.996 63.9 221.996 64.98C221.996 66.0467 221.796 66.9733 221.396 67.76C221.009 68.5333 220.456 69.1333 219.736 69.56C219.029 69.9733 218.189 70.18 217.216 70.18ZM217.216 68.86C218.176 68.86 218.936 68.5333 219.496 67.88C220.056 67.2133 220.336 66.2467 220.336 64.98C220.336 63.7 220.049 62.7333 219.476 62.08C218.916 61.4133 218.162 61.08 217.216 61.08C216.269 61.08 215.516 61.4133 214.956 62.08C214.396 62.7333 214.116 63.7 214.116 64.98C214.116 66.2467 214.396 67.2133 214.956 67.88C215.516 68.5333 216.269 68.86 217.216 68.86ZM228.061 70.18C226.875 70.18 225.975 69.8533 225.361 69.2C224.761 68.5467 224.461 67.5467 224.461 66.2V59.96H226.081V66.16C226.081 67.08 226.268 67.76 226.641 68.2C227.015 68.6267 227.595 68.84 228.381 68.84C229.261 68.84 229.968 68.5533 230.501 67.98C231.035 67.4067 231.301 66.64 231.301 65.68V59.96H232.921V70H231.341V67.74H231.601C231.321 68.5133 230.868 69.1133 230.241 69.54C229.628 69.9667 228.901 70.18 228.061 70.18ZM236.024 70V62.38C236.024 61.98 236.011 61.5733 235.984 61.16C235.971 60.7467 235.944 60.3467 235.904 59.96H237.464L237.664 62.4L237.384 62.42C237.518 61.82 237.751 61.3267 238.084 60.94C238.418 60.5533 238.811 60.2667 239.264 60.08C239.718 59.88 240.191 59.78 240.684 59.78C240.884 59.78 241.058 59.7867 241.204 59.8C241.364 59.8133 241.511 59.8467 241.644 59.9L241.624 61.34C241.424 61.2733 241.238 61.2333 241.064 61.22C240.904 61.1933 240.718 61.18 240.504 61.18C239.918 61.18 239.404 61.32 238.964 61.6C238.538 61.88 238.211 62.24 237.984 62.68C237.771 63.12 237.664 63.5867 237.664 64.08V70H236.024ZM249.065 70V61.22H247.105V59.96H249.505L249.065 60.38V58.7C249.065 57.5667 249.352 56.7 249.925 56.1C250.498 55.5 251.318 55.2 252.385 55.2C252.652 55.2 252.925 55.2267 253.205 55.28C253.498 55.32 253.738 55.38 253.925 55.46V56.8C253.765 56.7333 253.565 56.68 253.325 56.64C253.098 56.5867 252.865 56.56 252.625 56.56C252.212 56.56 251.858 56.6467 251.565 56.82C251.272 56.98 251.052 57.2267 250.905 57.56C250.758 57.8933 250.685 58.32 250.685 58.84V60.3L250.425 59.96H253.485V61.22H250.685V70H249.065ZM259.025 70.18C258.132 70.18 257.352 69.9733 256.685 69.56C256.018 69.1333 255.498 68.5333 255.125 67.76C254.765 66.9867 254.585 66.06 254.585 64.98C254.585 63.8867 254.765 62.9533 255.125 62.18C255.498 61.4067 256.018 60.8133 256.685 60.4C257.352 59.9867 258.132 59.78 259.025 59.78C259.932 59.78 260.712 60.0133 261.365 60.48C262.032 60.9333 262.472 61.5533 262.685 62.34H262.445L262.665 59.96H264.225C264.185 60.3467 264.145 60.74 264.105 61.14C264.078 61.5267 264.065 61.9067 264.065 62.28V70H262.445V67.64H262.665C262.452 68.4267 262.012 69.0467 261.345 69.5C260.678 69.9533 259.905 70.18 259.025 70.18ZM259.345 68.86C260.305 68.86 261.065 68.5333 261.625 67.88C262.185 67.2133 262.465 66.2467 262.465 64.98C262.465 63.7 262.185 62.7333 261.625 62.08C261.065 61.4133 260.305 61.08 259.345 61.08C258.398 61.08 257.638 61.4133 257.065 62.08C256.505 62.7333 256.225 63.7 256.225 64.98C256.225 66.2467 256.505 67.2133 257.065 67.88C257.638 68.5333 258.398 68.86 259.345 68.86ZM270.06 70L265.76 59.96H267.52L271.12 68.8H270.58L274.22 59.96H275.9L271.6 70H270.06ZM281.708 70.18C280.748 70.18 279.908 69.9733 279.188 69.56C278.481 69.1333 277.934 68.5333 277.548 67.76C277.161 66.9733 276.968 66.0467 276.968 64.98C276.968 63.9 277.161 62.9733 277.548 62.2C277.934 61.4267 278.481 60.8333 279.188 60.42C279.908 59.9933 280.748 59.78 281.708 59.78C282.681 59.78 283.521 59.9933 284.228 60.42C284.948 60.8333 285.501 61.4267 285.888 62.2C286.288 62.9733 286.488 63.9 286.488 64.98C286.488 66.0467 286.288 66.9733 285.888 67.76C285.501 68.5333 284.948 69.1333 284.228 69.56C283.521 69.9733 282.681 70.18 281.708 70.18ZM281.708 68.86C282.668 68.86 283.428 68.5333 283.988 67.88C284.548 67.2133 284.828 66.2467 284.828 64.98C284.828 63.7 284.541 62.7333 283.968 62.08C283.408 61.4133 282.654 61.08 281.708 61.08C280.761 61.08 280.008 61.4133 279.448 62.08C278.888 62.7333 278.608 63.7 278.608 64.98C278.608 66.2467 278.888 67.2133 279.448 67.88C280.008 68.5333 280.761 68.86 281.708 68.86ZM288.974 70V62.38C288.974 61.98 288.96 61.5733 288.934 61.16C288.92 60.7467 288.894 60.3467 288.854 59.96H290.414L290.614 62.4L290.334 62.42C290.467 61.82 290.7 61.3267 291.034 60.94C291.367 60.5533 291.76 60.2667 292.214 60.08C292.667 59.88 293.14 59.78 293.634 59.78C293.834 59.78 294.007 59.7867 294.154 59.8C294.314 59.8133 294.46 59.8467 294.594 59.9L294.574 61.34C294.374 61.2733 294.187 61.2333 294.014 61.22C293.854 61.1933 293.667 61.18 293.454 61.18C292.867 61.18 292.354 61.32 291.914 61.6C291.487 61.88 291.16 62.24 290.934 62.68C290.72 63.12 290.614 63.5867 290.614 64.08V70H288.974ZM296.279 70V59.96H297.899V70H296.279ZM296.079 57.68V55.86H298.079V57.68H296.079ZM304.605 70.18C303.618 70.18 302.865 69.9 302.345 69.34C301.825 68.7667 301.565 67.9067 301.565 66.76V61.22H299.605V59.96H301.565V57.22L303.185 56.76V59.96H306.065V61.22H303.185V66.58C303.185 67.38 303.318 67.9533 303.585 68.3C303.865 68.6333 304.278 68.8 304.825 68.8C305.078 68.8 305.305 68.78 305.505 68.74C305.705 68.6867 305.885 68.6267 306.045 68.56V69.92C305.858 70 305.632 70.06 305.365 70.1C305.112 70.1533 304.858 70.18 304.605 70.18ZM312.399 70.18C310.826 70.18 309.586 69.7267 308.679 68.82C307.773 67.9 307.319 66.6267 307.319 65C307.319 63.9467 307.519 63.0333 307.919 62.26C308.319 61.4733 308.879 60.8667 309.599 60.44C310.319 60 311.146 59.78 312.079 59.78C312.999 59.78 313.773 59.9733 314.399 60.36C315.026 60.7467 315.506 61.3 315.839 62.02C316.173 62.7267 316.339 63.5667 316.339 64.54V65.14H308.559V64.12H315.279L314.939 64.38C314.939 63.3133 314.699 62.48 314.219 61.88C313.739 61.28 313.026 60.98 312.079 60.98C311.079 60.98 310.299 61.3333 309.739 62.04C309.179 62.7333 308.899 63.6733 308.899 64.86V65.04C308.899 66.2933 309.206 67.2467 309.819 67.9C310.446 68.54 311.319 68.86 312.439 68.86C313.039 68.86 313.599 68.7733 314.119 68.6C314.653 68.4133 315.159 68.1133 315.639 67.7L316.199 68.84C315.759 69.2667 315.199 69.6 314.519 69.84C313.853 70.0667 313.146 70.18 312.399 70.18ZM327.633 70V57.3H322.653V55.9H334.253V57.3H329.293V70H327.633ZM340.958 70L334.818 55.9H336.598L342.058 68.68H341.438L346.938 55.9H348.658L342.478 70H340.958ZM358.858 70.18C358.058 70.18 357.311 70.0733 356.618 69.86C355.924 69.6333 355.351 69.32 354.898 68.92L355.458 67.78C355.951 68.1667 356.484 68.4533 357.058 68.64C357.644 68.8267 358.251 68.92 358.878 68.92C359.678 68.92 360.278 68.78 360.678 68.5C361.091 68.2067 361.298 67.8067 361.298 67.3C361.298 66.9133 361.164 66.6067 360.898 66.38C360.644 66.14 360.224 65.9533 359.638 65.82L357.778 65.44C356.924 65.2533 356.284 64.94 355.858 64.5C355.431 64.0467 355.218 63.4733 355.218 62.78C355.218 62.1933 355.371 61.68 355.678 61.24C355.984 60.7867 356.431 60.4333 357.018 60.18C357.604 59.9133 358.291 59.78 359.077 59.78C359.811 59.78 360.484 59.8933 361.098 60.12C361.724 60.3333 362.244 60.6467 362.658 61.06L362.078 62.18C361.678 61.7933 361.218 61.5067 360.698 61.32C360.191 61.12 359.664 61.02 359.118 61.02C358.331 61.02 357.738 61.18 357.338 61.5C356.951 61.8067 356.758 62.2133 356.758 62.72C356.758 63.1067 356.878 63.4267 357.118 63.68C357.371 63.92 357.758 64.1 358.278 64.22L360.138 64.6C361.044 64.8 361.718 65.1133 362.158 65.54C362.611 65.9533 362.838 66.5133 362.838 67.22C362.838 67.82 362.671 68.3467 362.338 68.8C362.004 69.24 361.538 69.58 360.938 69.82C360.351 70.06 359.658 70.18 358.858 70.18ZM365.439 70V55.28H367.059V62.18H366.799C367.079 61.3933 367.546 60.8 368.199 60.4C368.866 59.9867 369.633 59.78 370.499 59.78C371.699 59.78 372.593 60.1067 373.179 60.76C373.766 61.4 374.059 62.3733 374.059 63.68V70H372.439V63.78C372.439 62.8467 372.253 62.1667 371.879 61.74C371.519 61.3133 370.933 61.1 370.119 61.1C369.186 61.1 368.439 61.3867 367.879 61.96C367.333 62.5333 367.059 63.2867 367.059 64.22V70H365.439ZM381.278 70.18C380.318 70.18 379.478 69.9733 378.758 69.56C378.051 69.1333 377.505 68.5333 377.118 67.76C376.731 66.9733 376.538 66.0467 376.538 64.98C376.538 63.9 376.731 62.9733 377.118 62.2C377.505 61.4267 378.051 60.8333 378.758 60.42C379.478 59.9933 380.318 59.78 381.278 59.78C382.251 59.78 383.091 59.9933 383.798 60.42C384.518 60.8333 385.071 61.4267 385.458 62.2C385.858 62.9733 386.058 63.9 386.058 64.98C386.058 66.0467 385.858 66.9733 385.458 67.76C385.071 68.5333 384.518 69.1333 383.798 69.56C383.091 69.9733 382.251 70.18 381.278 70.18ZM381.278 68.86C382.238 68.86 382.998 68.5333 383.558 67.88C384.118 67.2133 384.398 66.2467 384.398 64.98C384.398 63.7 384.111 62.7333 383.538 62.08C382.978 61.4133 382.225 61.08 381.278 61.08C380.331 61.08 379.578 61.4133 379.018 62.08C378.458 62.7333 378.178 63.7 378.178 64.98C378.178 66.2467 378.458 67.2133 379.018 67.88C379.578 68.5333 380.331 68.86 381.278 68.86ZM391.127 70L387.407 59.96H389.127L392.227 68.8H391.707L394.907 59.96H396.307L399.447 68.8H398.947L402.067 59.96H403.707L399.967 70H398.407L395.167 61.02H395.967L392.707 70H391.127ZM404.533 70V67.96H406.573V70H404.533Z" fill="#030303"/>
<path d="M77.3333 91C77.3333 92.4728 78.5272 93.6667 80 93.6667C81.4728 93.6667 82.6667 92.4728 82.6667 91C82.6667 89.5272 81.4728 88.3333 80 88.3333C78.5272 88.3333 77.3333 89.5272 77.3333 91ZM432.333 103C432.333 104.473 433.527 105.667 435 105.667C436.473 105.667 437.667 104.473 437.667 103C437.667 101.527 436.473 100.333 435 100.333C433.527 100.333 432.333 101.527 432.333 103ZM109.5 103L109.312 103.463L109.402 103.5H109.5V103ZM79.8116 91.4631L80.7335 91.8381L81.1103 90.9119L80.1884 90.5369L79.8116 91.4631ZM82.5772 92.5881L84.421 93.3381L84.7978 92.4119L82.954 91.6619L82.5772 92.5881ZM86.2647 94.0881L88.1085 94.8381L88.4853 93.9119L86.6415 93.1619L86.2647 94.0881ZM89.9522 95.5881L91.796 96.3381L92.1728 95.4119L90.329 94.6619L89.9522 95.5881ZM93.6397 97.0881L95.4835 97.8381L95.8603 96.9119L94.0165 96.1619L93.6397 97.0881ZM97.3272 98.5881L99.171 99.3381L99.5478 98.4119L97.704 97.6619L97.3272 98.5881ZM101.015 100.088L102.858 100.838L103.235 99.9119L101.392 99.1619L101.015 100.088ZM104.702 101.588L106.546 102.338L106.923 101.412L105.079 100.662L104.702 101.588ZM108.39 103.088L109.312 103.463L109.688 102.537L108.767 102.162L108.39 103.088ZM109.5 103.5H110.505V102.5H109.5V103.5ZM112.514 103.5H114.523V102.5H112.514V103.5ZM116.532 103.5H118.542V102.5H116.532V103.5ZM120.551 103.5H122.56V102.5H120.551V103.5ZM124.569 103.5H126.579V102.5H124.569V103.5ZM128.588 103.5H130.597V102.5H128.588V103.5ZM132.606 103.5H134.616V102.5H132.606V103.5ZM136.625 103.5H138.634V102.5H136.625V103.5ZM140.644 103.5H142.653V102.5H140.644V103.5ZM144.662 103.5H146.671V102.5H144.662V103.5ZM148.681 103.5H150.69V102.5H148.681V103.5ZM152.699 103.5H154.708V102.5H152.699V103.5ZM156.718 103.5H158.727V102.5H156.718V103.5ZM160.736 103.5H162.745V102.5H160.736V103.5ZM164.755 103.5H166.764V102.5H164.755V103.5ZM168.773 103.5H170.782V102.5H168.773V103.5ZM172.792 103.5H174.801V102.5H172.792V103.5ZM176.81 103.5H178.819V102.5H176.81V103.5ZM180.829 103.5H182.838V102.5H180.829V103.5ZM184.847 103.5H186.856V102.5H184.847V103.5ZM188.866 103.5H190.875V102.5H188.866V103.5ZM192.884 103.5H194.894V102.5H192.884V103.5ZM196.903 103.5H198.912V102.5H196.903V103.5ZM200.921 103.5H202.931V102.5H200.921V103.5ZM204.94 103.5H206.949V102.5H204.94V103.5ZM208.958 103.5H210.968V102.5H208.958V103.5ZM212.977 103.5H214.986V102.5H212.977V103.5ZM216.995 103.5H219.005V102.5H216.995V103.5ZM221.014 103.5H223.023V102.5H221.014V103.5ZM225.032 103.5H227.042V102.5H225.032V103.5ZM229.051 103.5H231.06V102.5H229.051V103.5ZM233.07 103.5H235.079V102.5H233.07V103.5ZM237.088 103.5H239.097V102.5H237.088V103.5ZM241.107 103.5H243.116V102.5H241.107V103.5ZM245.125 103.5H247.134V102.5H245.125V103.5ZM249.144 103.5H251.153V102.5H249.144V103.5ZM253.162 103.5H255.171V102.5H253.162V103.5ZM257.181 103.5H259.19V102.5H257.181V103.5ZM261.199 103.5H263.208V102.5H261.199V103.5ZM265.218 103.5H267.227V102.5H265.218V103.5ZM269.236 103.5H271.245V102.5H269.236V103.5ZM273.255 103.5H275.264V102.5H273.255V103.5ZM277.273 103.5H279.283V102.5H277.273V103.5ZM281.292 103.5H283.301V102.5H281.292V103.5ZM285.31 103.5H287.32V102.5H285.31V103.5ZM289.329 103.5H291.338V102.5H289.329V103.5ZM293.347 103.5H295.357V102.5H293.347V103.5ZM297.366 103.5H299.375V102.5H297.366V103.5ZM301.384 103.5H303.394V102.5H301.384V103.5ZM305.403 103.5H307.412V102.5H305.403V103.5ZM309.421 103.5H311.431V102.5H309.421V103.5ZM313.44 103.5H315.449V102.5H313.44V103.5ZM317.459 103.5H319.468V102.5H317.459V103.5ZM321.477 103.5H323.486V102.5H321.477V103.5ZM325.496 103.5H327.505V102.5H325.496V103.5ZM329.514 103.5H331.523V102.5H329.514V103.5ZM333.533 103.5H335.542V102.5H333.533V103.5ZM337.551 103.5H339.56V102.5H337.551V103.5ZM341.57 103.5H343.579V102.5H341.57V103.5ZM345.588 103.5H347.597V102.5H345.588V103.5ZM349.607 103.5H351.616V102.5H349.607V103.5ZM353.625 103.5H355.634V102.5H353.625V103.5ZM357.644 103.5H359.653V102.5H357.644V103.5ZM361.662 103.5H363.672V102.5H361.662V103.5ZM365.681 103.5H367.69V102.5H365.681V103.5ZM369.699 103.5H371.709V102.5H369.699V103.5ZM373.718 103.5H375.727V102.5H373.718V103.5ZM377.736 103.5H379.746V102.5H377.736V103.5ZM381.755 103.5H383.764V102.5H381.755V103.5ZM385.773 103.5H387.783V102.5H385.773V103.5ZM389.792 103.5H391.801V102.5H389.792V103.5ZM393.81 103.5H395.819V102.5H393.81V103.5ZM397.829 103.5H399.838V102.5H397.829V103.5ZM401.847 103.5H403.856V102.5H401.847V103.5ZM405.866 103.5H407.875V102.5H405.866V103.5ZM409.884 103.5H411.893V102.5H409.884V103.5ZM413.903 103.5H415.912V102.5H413.903V103.5ZM417.921 103.5H419.93V102.5H417.921V103.5ZM421.94 103.5H423.949V102.5H421.94V103.5ZM425.958 103.5H427.967V102.5H425.958V103.5ZM429.977 103.5H431.986V102.5H429.977V103.5ZM433.995 103.5H435V102.5H433.995V103.5Z" fill="#030303"/>
<circle cx="50" cy="50" r="49.5" stroke="#030303" stroke-dasharray="2 2"/>
<rect x="2" y="2" width="96" height="96" rx="48" fill="#444154"/>
<path d="M39.5 46.5L50 57L78 29" stroke="white" stroke-width="8" stroke-linecap="round" stroke-linejoin="round"/>
<path d="M78 50V71C78 72.8565 77.2625 74.637 75.9497 75.9497C74.637 77.2625 72.8565 78 71 78H29C27.1435 78 25.363 77.2625 24.0503 75.9497C22.7375 74.637 22 72.8565 22 71V29C22 27.1435 22.7375 25.363 24.0503 24.0503C25.363 22.7375 27.1435 22 29 22H60.5" stroke="white" stroke-width="4" stroke-linecap="round" stroke-linejoin="round"/>
</svg>
