<svg width="438" height="106" viewBox="0 0 438 106" fill="none" xmlns="http://www.w3.org/2000/svg">
<path d="M119.76 45V30.9H128.76V32.26H121.38V37.16H128.32V38.54H121.38V43.62H128.76V45H119.76ZM129.978 45L134.478 39.42V40.22L130.218 34.96H132.178L135.398 39.06H134.818L138.018 34.96H139.958L135.758 40.2V39.46L140.218 45H138.238L134.798 40.62H135.398L131.918 45H129.978ZM142.041 49.32V37.28C142.041 36.9067 142.021 36.5267 141.981 36.14C141.954 35.74 141.921 35.3467 141.881 34.96H143.441L143.661 37.34H143.421C143.634 36.5533 144.068 35.9333 144.721 35.48C145.374 35.0133 146.154 34.78 147.061 34.78C147.968 34.78 148.748 34.9867 149.401 35.4C150.068 35.8133 150.588 36.4067 150.961 37.18C151.334 37.9533 151.521 38.8867 151.521 39.98C151.521 41.06 151.334 41.9867 150.961 42.76C150.601 43.5333 150.088 44.1333 149.421 44.56C148.754 44.9733 147.968 45.18 147.061 45.18C146.168 45.18 145.394 44.9533 144.741 44.5C144.088 44.0467 143.654 43.4267 143.441 42.64H143.661V49.32H142.041ZM146.741 43.86C147.701 43.86 148.461 43.5333 149.021 42.88C149.594 42.2133 149.881 41.2467 149.881 39.98C149.881 38.7 149.594 37.7333 149.021 37.08C148.461 36.4133 147.701 36.08 146.741 36.08C145.794 36.08 145.034 36.4133 144.461 37.08C143.901 37.7333 143.621 38.7 143.621 39.98C143.621 41.2467 143.901 42.2133 144.461 42.88C145.034 43.5333 145.794 43.86 146.741 43.86ZM158.493 45.18C156.92 45.18 155.68 44.7267 154.773 43.82C153.866 42.9 153.413 41.6267 153.413 40C153.413 38.9467 153.613 38.0333 154.013 37.26C154.413 36.4733 154.973 35.8667 155.693 35.44C156.413 35 157.24 34.78 158.173 34.78C159.093 34.78 159.866 34.9733 160.493 35.36C161.12 35.7467 161.6 36.3 161.933 37.02C162.266 37.7267 162.433 38.5667 162.433 39.54V40.14H154.653V39.12H161.373L161.033 39.38C161.033 38.3133 160.793 37.48 160.313 36.88C159.833 36.28 159.12 35.98 158.173 35.98C157.173 35.98 156.393 36.3333 155.833 37.04C155.273 37.7333 154.993 38.6733 154.993 39.86V40.04C154.993 41.2933 155.3 42.2467 155.913 42.9C156.54 43.54 157.413 43.86 158.533 43.86C159.133 43.86 159.693 43.7733 160.213 43.6C160.746 43.4133 161.253 43.1133 161.733 42.7L162.293 43.84C161.853 44.2667 161.293 44.6 160.613 44.84C159.946 45.0667 159.24 45.18 158.493 45.18ZM164.872 45V37.38C164.872 36.98 164.859 36.5733 164.832 36.16C164.819 35.7467 164.792 35.3467 164.752 34.96H166.312L166.512 37.4L166.232 37.42C166.365 36.82 166.599 36.3267 166.932 35.94C167.265 35.5533 167.659 35.2667 168.112 35.08C168.565 34.88 169.039 34.78 169.532 34.78C169.732 34.78 169.905 34.7867 170.052 34.8C170.212 34.8133 170.359 34.8467 170.492 34.9L170.472 36.34C170.272 36.2733 170.085 36.2333 169.912 36.22C169.752 36.1933 169.565 36.18 169.352 36.18C168.765 36.18 168.252 36.32 167.812 36.6C167.385 36.88 167.059 37.24 166.832 37.68C166.619 38.12 166.512 38.5867 166.512 39.08V45H164.872ZM172.178 45V34.96H173.798V45H172.178ZM171.978 32.68V30.86H173.978V32.68H171.978ZM181.403 45.18C179.83 45.18 178.59 44.7267 177.683 43.82C176.777 42.9 176.323 41.6267 176.323 40C176.323 38.9467 176.523 38.0333 176.923 37.26C177.323 36.4733 177.883 35.8667 178.603 35.44C179.323 35 180.15 34.78 181.083 34.78C182.003 34.78 182.777 34.9733 183.403 35.36C184.03 35.7467 184.51 36.3 184.843 37.02C185.177 37.7267 185.343 38.5667 185.343 39.54V40.14H177.563V39.12H184.283L183.943 39.38C183.943 38.3133 183.703 37.48 183.223 36.88C182.743 36.28 182.03 35.98 181.083 35.98C180.083 35.98 179.303 36.3333 178.743 37.04C178.183 37.7333 177.903 38.6733 177.903 39.86V40.04C177.903 41.2933 178.21 42.2467 178.823 42.9C179.45 43.54 180.323 43.86 181.443 43.86C182.043 43.86 182.603 43.7733 183.123 43.6C183.657 43.4133 184.163 43.1133 184.643 42.7L185.203 43.84C184.763 44.2667 184.203 44.6 183.523 44.84C182.857 45.0667 182.15 45.18 181.403 45.18ZM187.822 45V37.28C187.822 36.9067 187.802 36.5267 187.762 36.14C187.736 35.74 187.702 35.3467 187.662 34.96H189.222L189.422 37.16H189.182C189.476 36.3867 189.942 35.8 190.582 35.4C191.236 34.9867 191.989 34.78 192.842 34.78C194.029 34.78 194.922 35.1 195.522 35.74C196.136 36.3667 196.442 37.36 196.442 38.72V45H194.822V38.82C194.822 37.8733 194.629 37.1867 194.242 36.76C193.869 36.32 193.282 36.1 192.482 36.1C191.549 36.1 190.809 36.3867 190.262 36.96C189.716 37.5333 189.442 38.3 189.442 39.26V45H187.822ZM203.761 45.18C202.774 45.18 201.914 44.9667 201.181 44.54C200.461 44.1133 199.901 43.5067 199.501 42.72C199.114 41.9333 198.921 41 198.921 39.92C198.921 38.8267 199.121 37.9 199.521 37.14C199.921 36.3667 200.481 35.78 201.201 35.38C201.934 34.98 202.788 34.78 203.761 34.78C204.401 34.78 205.021 34.8933 205.621 35.12C206.234 35.3467 206.741 35.6667 207.141 36.08L206.561 37.24C206.161 36.8533 205.721 36.5667 205.241 36.38C204.774 36.1933 204.314 36.1 203.861 36.1C202.821 36.1 202.014 36.4267 201.441 37.08C200.868 37.7333 200.581 38.6867 200.581 39.94C200.581 41.18 200.868 42.14 201.441 42.82C202.014 43.5 202.821 43.84 203.861 43.84C204.301 43.84 204.754 43.7533 205.221 43.58C205.701 43.4067 206.148 43.12 206.561 42.72L207.141 43.86C206.728 44.2867 206.214 44.6133 205.601 44.84C204.988 45.0667 204.374 45.18 203.761 45.18ZM213.708 45.18C212.135 45.18 210.895 44.7267 209.988 43.82C209.081 42.9 208.628 41.6267 208.628 40C208.628 38.9467 208.828 38.0333 209.228 37.26C209.628 36.4733 210.188 35.8667 210.908 35.44C211.628 35 212.455 34.78 213.388 34.78C214.308 34.78 215.081 34.9733 215.708 35.36C216.335 35.7467 216.815 36.3 217.148 37.02C217.481 37.7267 217.648 38.5667 217.648 39.54V40.14H209.868V39.12H216.588L216.248 39.38C216.248 38.3133 216.008 37.48 215.528 36.88C215.048 36.28 214.335 35.98 213.388 35.98C212.388 35.98 211.608 36.3333 211.048 37.04C210.488 37.7333 210.208 38.6733 210.208 39.86V40.04C210.208 41.2933 210.515 42.2467 211.128 42.9C211.755 43.54 212.628 43.86 213.748 43.86C214.348 43.86 214.908 43.7733 215.428 43.6C215.961 43.4133 216.468 43.1133 216.948 42.7L217.508 43.84C217.068 44.2667 216.508 44.6 215.828 44.84C215.161 45.0667 214.455 45.18 213.708 45.18ZM229.162 45.18C228.268 45.18 227.488 44.9733 226.822 44.56C226.155 44.1333 225.635 43.5333 225.262 42.76C224.902 41.9867 224.722 41.06 224.722 39.98C224.722 38.8867 224.902 37.9533 225.262 37.18C225.635 36.4067 226.155 35.8133 226.822 35.4C227.488 34.9867 228.268 34.78 229.162 34.78C230.068 34.78 230.848 35.0133 231.502 35.48C232.168 35.9333 232.608 36.5533 232.822 37.34H232.582L232.802 34.96H234.362C234.322 35.3467 234.282 35.74 234.242 36.14C234.215 36.5267 234.202 36.9067 234.202 37.28V45H232.582V42.64H232.802C232.588 43.4267 232.148 44.0467 231.482 44.5C230.815 44.9533 230.042 45.18 229.162 45.18ZM229.482 43.86C230.442 43.86 231.202 43.5333 231.762 42.88C232.322 42.2133 232.602 41.2467 232.602 39.98C232.602 38.7 232.322 37.7333 231.762 37.08C231.202 36.4133 230.442 36.08 229.482 36.08C228.535 36.08 227.775 36.4133 227.202 37.08C226.642 37.7333 226.362 38.7 226.362 39.98C226.362 41.2467 226.642 42.2133 227.202 42.88C227.775 43.5333 228.535 43.86 229.482 43.86ZM245.889 45.18C245.089 45.18 244.342 45.0733 243.649 44.86C242.955 44.6333 242.382 44.32 241.929 43.92L242.489 42.78C242.982 43.1667 243.515 43.4533 244.089 43.64C244.675 43.8267 245.282 43.92 245.909 43.92C246.709 43.92 247.309 43.78 247.709 43.5C248.122 43.2067 248.329 42.8067 248.329 42.3C248.329 41.9133 248.195 41.6067 247.929 41.38C247.675 41.14 247.255 40.9533 246.669 40.82L244.809 40.44C243.955 40.2533 243.315 39.94 242.889 39.5C242.462 39.0467 242.249 38.4733 242.249 37.78C242.249 37.1933 242.402 36.68 242.709 36.24C243.015 35.7867 243.462 35.4333 244.049 35.18C244.635 34.9133 245.322 34.78 246.109 34.78C246.842 34.78 247.515 34.8933 248.129 35.12C248.755 35.3333 249.275 35.6467 249.689 36.06L249.109 37.18C248.709 36.7933 248.249 36.5067 247.729 36.32C247.222 36.12 246.695 36.02 246.149 36.02C245.362 36.02 244.769 36.18 244.369 36.5C243.982 36.8067 243.789 37.2133 243.789 37.72C243.789 38.1067 243.909 38.4267 244.149 38.68C244.402 38.92 244.789 39.1 245.309 39.22L247.169 39.6C248.075 39.8 248.749 40.1133 249.189 40.54C249.642 40.9533 249.869 41.5133 249.869 42.22C249.869 42.82 249.702 43.3467 249.369 43.8C249.035 44.24 248.569 44.58 247.969 44.82C247.382 45.06 246.689 45.18 245.889 45.18ZM254.955 45L251.235 34.96H252.955L256.055 43.8H255.535L258.735 34.96H260.135L263.275 43.8H262.775L265.895 34.96H267.535L263.795 45H262.235L258.995 36.02H259.795L256.535 45H254.955ZM269.658 45V34.96H271.278V45H269.658ZM269.458 32.68V30.86H271.458V32.68H269.458ZM274.944 45V36.22H272.984V34.96H275.384L274.944 35.38V33.7C274.944 32.5667 275.23 31.7 275.804 31.1C276.377 30.5 277.197 30.2 278.264 30.2C278.53 30.2 278.804 30.2267 279.084 30.28C279.377 30.32 279.617 30.38 279.804 30.46V31.8C279.644 31.7333 279.444 31.68 279.204 31.64C278.977 31.5867 278.744 31.56 278.504 31.56C278.09 31.56 277.737 31.6467 277.444 31.82C277.15 31.98 276.93 32.2267 276.784 32.56C276.637 32.8933 276.564 33.32 276.564 33.84V35.3L276.304 34.96H279.364V36.22H276.564V45H274.944ZM284.273 45.18C283.286 45.18 282.533 44.9 282.013 44.34C281.493 43.7667 281.233 42.9067 281.233 41.76V36.22H279.273V34.96H281.233V32.22L282.853 31.76V34.96H285.733V36.22H282.853V41.58C282.853 42.38 282.986 42.9533 283.253 43.3C283.533 43.6333 283.946 43.8 284.493 43.8C284.746 43.8 284.973 43.78 285.173 43.74C285.373 43.6867 285.553 43.6267 285.713 43.56V44.92C285.526 45 285.299 45.06 285.033 45.1C284.779 45.1533 284.526 45.18 284.273 45.18ZM296.26 45.18C295.46 45.18 294.713 45.0733 294.02 44.86C293.327 44.6333 292.753 44.32 292.3 43.92L292.86 42.78C293.353 43.1667 293.887 43.4533 294.46 43.64C295.047 43.8267 295.653 43.92 296.28 43.92C297.08 43.92 297.68 43.78 298.08 43.5C298.493 43.2067 298.7 42.8067 298.7 42.3C298.7 41.9133 298.567 41.6067 298.3 41.38C298.047 41.14 297.627 40.9533 297.04 40.82L295.18 40.44C294.327 40.2533 293.687 39.94 293.26 39.5C292.833 39.0467 292.62 38.4733 292.62 37.78C292.62 37.1933 292.773 36.68 293.08 36.24C293.387 35.7867 293.833 35.4333 294.42 35.18C295.007 34.9133 295.693 34.78 296.48 34.78C297.213 34.78 297.887 34.8933 298.5 35.12C299.127 35.3333 299.647 35.6467 300.06 36.06L299.48 37.18C299.08 36.7933 298.62 36.5067 298.1 36.32C297.593 36.12 297.067 36.02 296.52 36.02C295.733 36.02 295.14 36.18 294.74 36.5C294.353 36.8067 294.16 37.2133 294.16 37.72C294.16 38.1067 294.28 38.4267 294.52 38.68C294.773 38.92 295.16 39.1 295.68 39.22L297.54 39.6C298.447 39.8 299.12 40.1133 299.56 40.54C300.013 40.9533 300.24 41.5133 300.24 42.22C300.24 42.82 300.073 43.3467 299.74 43.8C299.407 44.24 298.94 44.58 298.34 44.82C297.753 45.06 297.06 45.18 296.26 45.18ZM306.662 45.18C305.768 45.18 304.988 44.9733 304.322 44.56C303.655 44.1333 303.135 43.5333 302.762 42.76C302.402 41.9867 302.222 41.06 302.222 39.98C302.222 38.8867 302.402 37.9533 302.762 37.18C303.135 36.4067 303.655 35.8133 304.322 35.4C304.988 34.9867 305.768 34.78 306.662 34.78C307.568 34.78 308.348 35.0133 309.002 35.48C309.668 35.9333 310.108 36.5533 310.322 37.34H310.082L310.302 34.96H311.862C311.822 35.3467 311.782 35.74 311.742 36.14C311.715 36.5267 311.702 36.9067 311.702 37.28V45H310.082V42.64H310.302C310.088 43.4267 309.648 44.0467 308.982 44.5C308.315 44.9533 307.542 45.18 306.662 45.18ZM306.982 43.86C307.942 43.86 308.702 43.5333 309.262 42.88C309.822 42.2133 310.102 41.2467 310.102 39.98C310.102 38.7 309.822 37.7333 309.262 37.08C308.702 36.4133 307.942 36.08 306.982 36.08C306.035 36.08 305.275 36.4133 304.702 37.08C304.142 37.7333 303.862 38.7 303.862 39.98C303.862 41.2467 304.142 42.2133 304.702 42.88C305.275 43.5333 306.035 43.86 306.982 43.86ZM314.834 45V30.28H316.454V45H314.834ZM324.06 45.18C322.486 45.18 321.246 44.7267 320.34 43.82C319.433 42.9 318.98 41.6267 318.98 40C318.98 38.9467 319.18 38.0333 319.58 37.26C319.98 36.4733 320.54 35.8667 321.26 35.44C321.98 35 322.806 34.78 323.74 34.78C324.66 34.78 325.433 34.9733 326.06 35.36C326.686 35.7467 327.166 36.3 327.5 37.02C327.833 37.7267 328 38.5667 328 39.54V40.14H320.22V39.12H326.94L326.6 39.38C326.6 38.3133 326.36 37.48 325.88 36.88C325.4 36.28 324.686 35.98 323.74 35.98C322.74 35.98 321.96 36.3333 321.4 37.04C320.84 37.7333 320.56 38.6733 320.56 39.86V40.04C320.56 41.2933 320.866 42.2467 321.48 42.9C322.106 43.54 322.98 43.86 324.1 43.86C324.7 43.86 325.26 43.7733 325.78 43.6C326.313 43.4133 326.82 43.1133 327.3 42.7L327.86 43.84C327.42 44.2667 326.86 44.6 326.18 44.84C325.513 45.0667 324.806 45.18 324.06 45.18ZM339.253 45.18C338.267 45.18 337.513 44.9 336.993 44.34C336.473 43.7667 336.213 42.9067 336.213 41.76V36.22H334.253V34.96H336.213V32.22L337.833 31.76V34.96H340.713V36.22H337.833V41.58C337.833 42.38 337.967 42.9533 338.233 43.3C338.513 43.6333 338.927 43.8 339.473 43.8C339.727 43.8 339.953 43.78 340.153 43.74C340.353 43.6867 340.533 43.6267 340.693 43.56V44.92C340.507 45 340.28 45.06 340.013 45.1C339.76 45.1533 339.507 45.18 339.253 45.18ZM342.685 45V30.28H344.305V37.18H344.045C344.325 36.3933 344.792 35.8 345.445 35.4C346.112 34.9867 346.879 34.78 347.745 34.78C348.945 34.78 349.839 35.1067 350.425 35.76C351.012 36.4 351.305 37.3733 351.305 38.68V45H349.685V38.78C349.685 37.8467 349.499 37.1667 349.125 36.74C348.765 36.3133 348.179 36.1 347.365 36.1C346.432 36.1 345.685 36.3867 345.125 36.96C344.579 37.5333 344.305 38.2867 344.305 39.22V45H342.685ZM354.364 45V37.38C354.364 36.98 354.351 36.5733 354.324 36.16C354.311 35.7467 354.284 35.3467 354.244 34.96H355.804L356.004 37.4L355.724 37.42C355.858 36.82 356.091 36.3267 356.424 35.94C356.758 35.5533 357.151 35.2667 357.604 35.08C358.058 34.88 358.531 34.78 359.024 34.78C359.224 34.78 359.398 34.7867 359.544 34.8C359.704 34.8133 359.851 34.8467 359.984 34.9L359.964 36.34C359.764 36.2733 359.578 36.2333 359.404 36.22C359.244 36.1933 359.058 36.18 358.844 36.18C358.258 36.18 357.744 36.32 357.304 36.6C356.878 36.88 356.551 37.24 356.324 37.68C356.111 38.12 356.004 38.5867 356.004 39.08V45H354.364ZM365.673 45.18C364.713 45.18 363.873 44.9733 363.153 44.56C362.446 44.1333 361.899 43.5333 361.513 42.76C361.126 41.9733 360.933 41.0467 360.933 39.98C360.933 38.9 361.126 37.9733 361.513 37.2C361.899 36.4267 362.446 35.8333 363.153 35.42C363.873 34.9933 364.713 34.78 365.673 34.78C366.646 34.78 367.486 34.9933 368.193 35.42C368.913 35.8333 369.466 36.4267 369.853 37.2C370.253 37.9733 370.453 38.9 370.453 39.98C370.453 41.0467 370.253 41.9733 369.853 42.76C369.466 43.5333 368.913 44.1333 368.193 44.56C367.486 44.9733 366.646 45.18 365.673 45.18ZM365.673 43.86C366.633 43.86 367.393 43.5333 367.953 42.88C368.513 42.2133 368.793 41.2467 368.793 39.98C368.793 38.7 368.506 37.7333 367.933 37.08C367.373 36.4133 366.619 36.08 365.673 36.08C364.726 36.08 363.973 36.4133 363.413 37.08C362.853 37.7333 362.573 38.7 362.573 39.98C362.573 41.2467 362.853 42.2133 363.413 42.88C363.973 43.5333 364.726 43.86 365.673 43.86ZM376.518 45.18C375.332 45.18 374.432 44.8533 373.818 44.2C373.218 43.5467 372.918 42.5467 372.918 41.2V34.96H374.538V41.16C374.538 42.08 374.725 42.76 375.098 43.2C375.472 43.6267 376.052 43.84 376.838 43.84C377.718 43.84 378.425 43.5533 378.958 42.98C379.492 42.4067 379.758 41.64 379.758 40.68V34.96H381.378V45H379.798V42.74H380.058C379.778 43.5133 379.325 44.1133 378.698 44.54C378.085 44.9667 377.358 45.18 376.518 45.18ZM388.941 49.46C388.075 49.46 387.275 49.3533 386.541 49.14C385.808 48.9267 385.148 48.6 384.561 48.16L385.041 46.94C385.455 47.2333 385.861 47.4667 386.261 47.64C386.661 47.8133 387.075 47.94 387.501 48.02C387.928 48.1133 388.381 48.16 388.861 48.16C389.848 48.16 390.595 47.9 391.101 47.38C391.608 46.86 391.861 46.12 391.861 45.16V42.22H392.061C391.848 43.0067 391.408 43.6333 390.741 44.1C390.075 44.5533 389.295 44.78 388.401 44.78C387.481 44.78 386.681 44.58 386.001 44.18C385.335 43.7667 384.815 43.1867 384.441 42.44C384.081 41.68 383.901 40.7867 383.901 39.76C383.901 38.7467 384.081 37.8667 384.441 37.12C384.815 36.3733 385.335 35.8 386.001 35.4C386.681 34.9867 387.481 34.78 388.401 34.78C389.308 34.78 390.088 35.0067 390.741 35.46C391.408 35.9133 391.848 36.54 392.061 37.34L391.861 37.14L392.041 34.96H393.621C393.568 35.3467 393.528 35.74 393.501 36.14C393.475 36.5267 393.461 36.9067 393.461 37.28V44.94C393.461 46.4333 393.075 47.56 392.301 48.32C391.541 49.08 390.421 49.46 388.941 49.46ZM388.701 43.46C389.675 43.46 390.441 43.14 391.001 42.5C391.561 41.8467 391.841 40.9333 391.841 39.76C391.841 38.5867 391.561 37.68 391.001 37.04C390.441 36.4 389.675 36.08 388.701 36.08C387.741 36.08 386.975 36.4 386.401 37.04C385.828 37.68 385.541 38.5867 385.541 39.76C385.541 40.9333 385.828 41.8467 386.401 42.5C386.975 43.14 387.741 43.46 388.701 43.46ZM396.572 45V30.28H398.192V37.18H397.932C398.212 36.3933 398.679 35.8 399.332 35.4C399.999 34.9867 400.766 34.78 401.632 34.78C402.832 34.78 403.726 35.1067 404.312 35.76C404.899 36.4 405.192 37.3733 405.192 38.68V45H403.572V38.78C403.572 37.8467 403.386 37.1667 403.012 36.74C402.652 36.3133 402.066 36.1 401.252 36.1C400.319 36.1 399.572 36.3867 399.012 36.96C398.466 37.5333 398.192 38.2867 398.192 39.22V45H396.572ZM125.9 70.18C124.487 70.18 123.287 69.8867 122.3 69.3C121.313 68.7133 120.553 67.88 120.02 66.8C119.5 65.72 119.24 64.4333 119.24 62.94C119.24 61.4467 119.5 60.1667 120.02 59.1C120.553 58.02 121.313 57.1867 122.3 56.6C123.287 56.0133 124.487 55.72 125.9 55.72C126.9 55.72 127.793 55.8733 128.58 56.18C129.367 56.4867 130.053 56.9333 130.64 57.52L130.02 58.84C129.38 58.28 128.747 57.8733 128.12 57.62C127.493 57.3533 126.76 57.22 125.92 57.22C124.307 57.22 123.08 57.72 122.24 58.72C121.4 59.72 120.98 61.1267 120.98 62.94C120.98 64.7533 121.4 66.1667 122.24 67.18C123.08 68.18 124.307 68.68 125.92 68.68C126.76 68.68 127.493 68.5533 128.12 68.3C128.747 68.0333 129.38 67.6133 130.02 67.04L130.64 68.38C130.053 68.9533 129.367 69.4 128.58 69.72C127.793 70.0267 126.9 70.18 125.9 70.18ZM136.759 70.18C135.866 70.18 135.086 69.9733 134.419 69.56C133.753 69.1333 133.233 68.5333 132.859 67.76C132.499 66.9867 132.319 66.06 132.319 64.98C132.319 63.8867 132.499 62.9533 132.859 62.18C133.233 61.4067 133.753 60.8133 134.419 60.4C135.086 59.9867 135.866 59.78 136.759 59.78C137.666 59.78 138.446 60.0133 139.099 60.48C139.766 60.9333 140.206 61.5533 140.419 62.34H140.179L140.399 59.96H141.959C141.919 60.3467 141.879 60.74 141.839 61.14C141.813 61.5267 141.799 61.9067 141.799 62.28V70H140.179V67.64H140.399C140.186 68.4267 139.746 69.0467 139.079 69.5C138.413 69.9533 137.639 70.18 136.759 70.18ZM137.079 68.86C138.039 68.86 138.799 68.5333 139.359 67.88C139.919 67.2133 140.199 66.2467 140.199 64.98C140.199 63.7 139.919 62.7333 139.359 62.08C138.799 61.4133 138.039 61.08 137.079 61.08C136.133 61.08 135.373 61.4133 134.799 62.08C134.239 62.7333 133.959 63.7 133.959 64.98C133.959 66.2467 134.239 67.2133 134.799 67.88C135.373 68.5333 136.133 68.86 137.079 68.86ZM144.892 70V62.38C144.892 61.98 144.878 61.5733 144.852 61.16C144.838 60.7467 144.812 60.3467 144.772 59.96H146.332L146.532 62.4L146.252 62.42C146.385 61.82 146.618 61.3267 146.952 60.94C147.285 60.5533 147.678 60.2667 148.132 60.08C148.585 59.88 149.058 59.78 149.552 59.78C149.752 59.78 149.925 59.7867 150.072 59.8C150.232 59.8133 150.378 59.8467 150.512 59.9L150.492 61.34C150.292 61.2733 150.105 61.2333 149.932 61.22C149.772 61.1933 149.585 61.18 149.372 61.18C148.785 61.18 148.272 61.32 147.832 61.6C147.405 61.88 147.078 62.24 146.852 62.68C146.638 63.12 146.532 63.5867 146.532 64.08V70H144.892ZM163.732 70.18C162.319 70.18 161.119 69.8867 160.132 69.3C159.145 68.7133 158.385 67.88 157.852 66.8C157.332 65.72 157.072 64.4333 157.072 62.94C157.072 61.4467 157.332 60.1667 157.852 59.1C158.385 58.02 159.145 57.1867 160.132 56.6C161.119 56.0133 162.319 55.72 163.732 55.72C164.732 55.72 165.625 55.8733 166.412 56.18C167.199 56.4867 167.885 56.9333 168.472 57.52L167.852 58.84C167.212 58.28 166.579 57.8733 165.952 57.62C165.325 57.3533 164.592 57.22 163.752 57.22C162.139 57.22 160.912 57.72 160.072 58.72C159.232 59.72 158.812 61.1267 158.812 62.94C158.812 64.7533 159.232 66.1667 160.072 67.18C160.912 68.18 162.139 68.68 163.752 68.68C164.592 68.68 165.325 68.5533 165.952 68.3C166.579 68.0333 167.212 67.6133 167.852 67.04L168.472 68.38C167.885 68.9533 167.199 69.4 166.412 69.72C165.625 70.0267 164.732 70.18 163.732 70.18ZM171.084 70V55.28H172.704V62.18H172.444C172.724 61.3933 173.191 60.8 173.844 60.4C174.511 59.9867 175.277 59.78 176.144 59.78C177.344 59.78 178.237 60.1067 178.824 60.76C179.411 61.4 179.704 62.3733 179.704 63.68V70H178.084V63.78C178.084 62.8467 177.897 62.1667 177.524 61.74C177.164 61.3133 176.577 61.1 175.764 61.1C174.831 61.1 174.084 61.3867 173.524 61.96C172.977 62.5333 172.704 63.2867 172.704 64.22V70H171.084ZM186.623 70.18C185.729 70.18 184.949 69.9733 184.283 69.56C183.616 69.1333 183.096 68.5333 182.723 67.76C182.363 66.9867 182.183 66.06 182.183 64.98C182.183 63.8867 182.363 62.9533 182.723 62.18C183.096 61.4067 183.616 60.8133 184.283 60.4C184.949 59.9867 185.729 59.78 186.623 59.78C187.529 59.78 188.309 60.0133 188.963 60.48C189.629 60.9333 190.069 61.5533 190.283 62.34H190.043L190.263 59.96H191.823C191.783 60.3467 191.743 60.74 191.703 61.14C191.676 61.5267 191.663 61.9067 191.663 62.28V70H190.043V67.64H190.263C190.049 68.4267 189.609 69.0467 188.943 69.5C188.276 69.9533 187.503 70.18 186.623 70.18ZM186.943 68.86C187.903 68.86 188.663 68.5333 189.223 67.88C189.783 67.2133 190.063 66.2467 190.063 64.98C190.063 63.7 189.783 62.7333 189.223 62.08C188.663 61.4133 187.903 61.08 186.943 61.08C185.996 61.08 185.236 61.4133 184.663 62.08C184.103 62.7333 183.823 63.7 183.823 64.98C183.823 66.2467 184.103 67.2133 184.663 67.88C185.236 68.5333 185.996 68.86 186.943 68.86ZM198.135 70.18C197.335 70.18 196.588 70.0733 195.895 69.86C195.202 69.6333 194.628 69.32 194.175 68.92L194.735 67.78C195.228 68.1667 195.762 68.4533 196.335 68.64C196.922 68.8267 197.528 68.92 198.155 68.92C198.955 68.92 199.555 68.78 199.955 68.5C200.368 68.2067 200.575 67.8067 200.575 67.3C200.575 66.9133 200.442 66.6067 200.175 66.38C199.922 66.14 199.502 65.9533 198.915 65.82L197.055 65.44C196.202 65.2533 195.562 64.94 195.135 64.5C194.708 64.0467 194.495 63.4733 194.495 62.78C194.495 62.1933 194.648 61.68 194.955 61.24C195.262 60.7867 195.708 60.4333 196.295 60.18C196.882 59.9133 197.568 59.78 198.355 59.78C199.088 59.78 199.762 59.8933 200.375 60.12C201.002 60.3333 201.522 60.6467 201.935 61.06L201.355 62.18C200.955 61.7933 200.495 61.5067 199.975 61.32C199.468 61.12 198.942 61.02 198.395 61.02C197.608 61.02 197.015 61.18 196.615 61.5C196.228 61.8067 196.035 62.2133 196.035 62.72C196.035 63.1067 196.155 63.4267 196.395 63.68C196.648 63.92 197.035 64.1 197.555 64.22L199.415 64.6C200.322 64.8 200.995 65.1133 201.435 65.54C201.888 65.9533 202.115 66.5133 202.115 67.22C202.115 67.82 201.948 68.3467 201.615 68.8C201.282 69.24 200.815 69.58 200.215 69.82C199.628 70.06 198.935 70.18 198.135 70.18ZM209.177 70.18C207.603 70.18 206.363 69.7267 205.457 68.82C204.55 67.9 204.097 66.6267 204.097 65C204.097 63.9467 204.297 63.0333 204.697 62.26C205.097 61.4733 205.657 60.8667 206.377 60.44C207.097 60 207.923 59.78 208.857 59.78C209.777 59.78 210.55 59.9733 211.177 60.36C211.803 60.7467 212.283 61.3 212.617 62.02C212.95 62.7267 213.117 63.5667 213.117 64.54V65.14H205.337V64.12H212.057L211.717 64.38C211.717 63.3133 211.477 62.48 210.997 61.88C210.517 61.28 209.803 60.98 208.857 60.98C207.857 60.98 207.077 61.3333 206.517 62.04C205.957 62.7333 205.677 63.6733 205.677 64.86V65.04C205.677 66.2933 205.983 67.2467 206.597 67.9C207.223 68.54 208.097 68.86 209.217 68.86C209.817 68.86 210.377 68.7733 210.897 68.6C211.43 68.4133 211.937 68.1133 212.417 67.7L212.977 68.84C212.537 69.2667 211.977 69.6 211.297 69.84C210.63 70.0667 209.923 70.18 209.177 70.18ZM215.556 70V62.38C215.556 61.98 215.542 61.5733 215.516 61.16C215.502 60.7467 215.476 60.3467 215.436 59.96H216.996L217.196 62.4L216.916 62.42C217.049 61.82 217.282 61.3267 217.616 60.94C217.949 60.5533 218.342 60.2667 218.796 60.08C219.249 59.88 219.722 59.78 220.216 59.78C220.416 59.78 220.589 59.7867 220.736 59.8C220.896 59.8133 221.042 59.8467 221.176 59.9L221.156 61.34C220.956 61.2733 220.769 61.2333 220.596 61.22C220.436 61.1933 220.249 61.18 220.036 61.18C219.449 61.18 218.936 61.32 218.496 61.6C218.069 61.88 217.742 62.24 217.516 62.68C217.302 63.12 217.196 63.5867 217.196 64.08V70H215.556ZM222.131 70V67.96H224.171V70H222.131Z" fill="#030303"/>
<path d="M77.3333 91C77.3333 92.4728 78.5272 93.6667 80 93.6667C81.4728 93.6667 82.6667 92.4728 82.6667 91C82.6667 89.5272 81.4728 88.3333 80 88.3333C78.5272 88.3333 77.3333 89.5272 77.3333 91ZM432.333 103C432.333 104.473 433.527 105.667 435 105.667C436.473 105.667 437.667 104.473 437.667 103C437.667 101.527 436.473 100.333 435 100.333C433.527 100.333 432.333 101.527 432.333 103ZM109.5 103L109.312 103.463L109.402 103.5H109.5V103ZM79.8116 91.4631L80.7335 91.8381L81.1103 90.9119L80.1884 90.5369L79.8116 91.4631ZM82.5772 92.5881L84.421 93.3381L84.7978 92.4119L82.954 91.6619L82.5772 92.5881ZM86.2647 94.0881L88.1085 94.8381L88.4853 93.9119L86.6415 93.1619L86.2647 94.0881ZM89.9522 95.5881L91.796 96.3381L92.1728 95.4119L90.329 94.6619L89.9522 95.5881ZM93.6397 97.0881L95.4835 97.8381L95.8603 96.9119L94.0165 96.1619L93.6397 97.0881ZM97.3272 98.5881L99.171 99.3381L99.5478 98.4119L97.704 97.6619L97.3272 98.5881ZM101.015 100.088L102.858 100.838L103.235 99.9119L101.392 99.1619L101.015 100.088ZM104.702 101.588L106.546 102.338L106.923 101.412L105.079 100.662L104.702 101.588ZM108.39 103.088L109.312 103.463L109.688 102.537L108.767 102.162L108.39 103.088ZM109.5 103.5H110.505V102.5H109.5V103.5ZM112.514 103.5H114.523V102.5H112.514V103.5ZM116.532 103.5H118.542V102.5H116.532V103.5ZM120.551 103.5H122.56V102.5H120.551V103.5ZM124.569 103.5H126.579V102.5H124.569V103.5ZM128.588 103.5H130.597V102.5H128.588V103.5ZM132.606 103.5H134.616V102.5H132.606V103.5ZM136.625 103.5H138.634V102.5H136.625V103.5ZM140.644 103.5H142.653V102.5H140.644V103.5ZM144.662 103.5H146.671V102.5H144.662V103.5ZM148.681 103.5H150.69V102.5H148.681V103.5ZM152.699 103.5H154.708V102.5H152.699V103.5ZM156.718 103.5H158.727V102.5H156.718V103.5ZM160.736 103.5H162.745V102.5H160.736V103.5ZM164.755 103.5H166.764V102.5H164.755V103.5ZM168.773 103.5H170.782V102.5H168.773V103.5ZM172.792 103.5H174.801V102.5H172.792V103.5ZM176.81 103.5H178.819V102.5H176.81V103.5ZM180.829 103.5H182.838V102.5H180.829V103.5ZM184.847 103.5H186.856V102.5H184.847V103.5ZM188.866 103.5H190.875V102.5H188.866V103.5ZM192.884 103.5H194.894V102.5H192.884V103.5ZM196.903 103.5H198.912V102.5H196.903V103.5ZM200.921 103.5H202.931V102.5H200.921V103.5ZM204.94 103.5H206.949V102.5H204.94V103.5ZM208.958 103.5H210.968V102.5H208.958V103.5ZM212.977 103.5H214.986V102.5H212.977V103.5ZM216.995 103.5H219.005V102.5H216.995V103.5ZM221.014 103.5H223.023V102.5H221.014V103.5ZM225.032 103.5H227.042V102.5H225.032V103.5ZM229.051 103.5H231.06V102.5H229.051V103.5ZM233.07 103.5H235.079V102.5H233.07V103.5ZM237.088 103.5H239.097V102.5H237.088V103.5ZM241.107 103.5H243.116V102.5H241.107V103.5ZM245.125 103.5H247.134V102.5H245.125V103.5ZM249.144 103.5H251.153V102.5H249.144V103.5ZM253.162 103.5H255.171V102.5H253.162V103.5ZM257.181 103.5H259.19V102.5H257.181V103.5ZM261.199 103.5H263.208V102.5H261.199V103.5ZM265.218 103.5H267.227V102.5H265.218V103.5ZM269.236 103.5H271.245V102.5H269.236V103.5ZM273.255 103.5H275.264V102.5H273.255V103.5ZM277.273 103.5H279.283V102.5H277.273V103.5ZM281.292 103.5H283.301V102.5H281.292V103.5ZM285.31 103.5H287.32V102.5H285.31V103.5ZM289.329 103.5H291.338V102.5H289.329V103.5ZM293.347 103.5H295.357V102.5H293.347V103.5ZM297.366 103.5H299.375V102.5H297.366V103.5ZM301.384 103.5H303.394V102.5H301.384V103.5ZM305.403 103.5H307.412V102.5H305.403V103.5ZM309.421 103.5H311.431V102.5H309.421V103.5ZM313.44 103.5H315.449V102.5H313.44V103.5ZM317.459 103.5H319.468V102.5H317.459V103.5ZM321.477 103.5H323.486V102.5H321.477V103.5ZM325.496 103.5H327.505V102.5H325.496V103.5ZM329.514 103.5H331.523V102.5H329.514V103.5ZM333.533 103.5H335.542V102.5H333.533V103.5ZM337.551 103.5H339.56V102.5H337.551V103.5ZM341.57 103.5H343.579V102.5H341.57V103.5ZM345.588 103.5H347.597V102.5H345.588V103.5ZM349.607 103.5H351.616V102.5H349.607V103.5ZM353.625 103.5H355.634V102.5H353.625V103.5ZM357.644 103.5H359.653V102.5H357.644V103.5ZM361.662 103.5H363.672V102.5H361.662V103.5ZM365.681 103.5H367.69V102.5H365.681V103.5ZM369.699 103.5H371.709V102.5H369.699V103.5ZM373.718 103.5H375.727V102.5H373.718V103.5ZM377.736 103.5H379.746V102.5H377.736V103.5ZM381.755 103.5H383.764V102.5H381.755V103.5ZM385.773 103.5H387.783V102.5H385.773V103.5ZM389.792 103.5H391.801V102.5H389.792V103.5ZM393.81 103.5H395.819V102.5H393.81V103.5ZM397.829 103.5H399.838V102.5H397.829V103.5ZM401.847 103.5H403.856V102.5H401.847V103.5ZM405.866 103.5H407.875V102.5H405.866V103.5ZM409.884 103.5H411.893V102.5H409.884V103.5ZM413.903 103.5H415.912V102.5H413.903V103.5ZM417.921 103.5H419.93V102.5H417.921V103.5ZM421.94 103.5H423.949V102.5H421.94V103.5ZM425.958 103.5H427.967V102.5H425.958V103.5ZM429.977 103.5H431.986V102.5H429.977V103.5ZM433.995 103.5H435V102.5H433.995V103.5Z" fill="#030303"/>
<circle cx="50" cy="50" r="49.5" stroke="#030303" stroke-dasharray="2 2"/>
<rect x="2" y="2" width="96" height="96" rx="48" fill="#F05A0D"/>
<path d="M39.5 46.5L50 57L78 29" stroke="white" stroke-width="8" stroke-linecap="round" stroke-linejoin="round"/>
<path d="M78 50V71C78 72.8565 77.2625 74.637 75.9497 75.9497C74.637 77.2625 72.8565 78 71 78H29C27.1435 78 25.363 77.2625 24.0503 75.9497C22.7375 74.637 22 72.8565 22 71V29C22 27.1435 22.7375 25.363 24.0503 24.0503C25.363 22.7375 27.1435 22 29 22H60.5" stroke="white" stroke-width="4" stroke-linecap="round" stroke-linejoin="round"/>
</svg>
