<svg width="438" height="106" viewBox="0 0 438 106" fill="none" xmlns="http://www.w3.org/2000/svg">
<path d="M119.76 33V18.9H125.52C127 18.9 128.147 19.2533 128.96 19.96C129.773 20.6533 130.18 21.6267 130.18 22.88C130.18 23.7067 129.993 24.4133 129.62 25C129.26 25.5733 128.747 26.0133 128.08 26.32C127.427 26.6267 126.66 26.78 125.78 26.78L126.14 26.52H126.54C127.087 26.52 127.573 26.6533 128 26.92C128.44 27.1867 128.787 27.6333 129.04 28.26L131.04 33H129.22L127.3 28.34C127.073 27.74 126.733 27.3533 126.28 27.18C125.827 26.9933 125.26 26.9 124.58 26.9H121.42V33H119.76ZM121.42 25.6H125.28C126.347 25.6 127.153 25.3733 127.7 24.92C128.26 24.4533 128.54 23.7867 128.54 22.92C128.54 22.0533 128.26 21.3933 127.7 20.94C127.153 20.4867 126.347 20.26 125.28 20.26H121.42V25.6ZM137.673 33.18C136.099 33.18 134.859 32.7267 133.953 31.82C133.046 30.9 132.593 29.6267 132.593 28C132.593 26.9467 132.793 26.0333 133.193 25.26C133.593 24.4733 134.153 23.8667 134.873 23.44C135.593 23 136.419 22.78 137.353 22.78C138.273 22.78 139.046 22.9733 139.673 23.36C140.299 23.7467 140.779 24.3 141.113 25.02C141.446 25.7267 141.613 26.5667 141.613 27.54V28.14H133.833V27.12H140.553L140.213 27.38C140.213 26.3133 139.973 25.48 139.493 24.88C139.013 24.28 138.299 23.98 137.353 23.98C136.353 23.98 135.573 24.3333 135.013 25.04C134.453 25.7333 134.173 26.6733 134.173 27.86V28.04C134.173 29.2933 134.479 30.2467 135.093 30.9C135.719 31.54 136.593 31.86 137.713 31.86C138.313 31.86 138.873 31.7733 139.393 31.6C139.926 31.4133 140.433 31.1133 140.913 30.7L141.473 31.84C141.033 32.2667 140.473 32.6 139.793 32.84C139.126 33.0667 138.419 33.18 137.673 33.18ZM148.312 33.18C147.325 33.18 146.465 32.9667 145.732 32.54C145.012 32.1133 144.452 31.5067 144.052 30.72C143.665 29.9333 143.472 29 143.472 27.92C143.472 26.8267 143.672 25.9 144.072 25.14C144.472 24.3667 145.032 23.78 145.752 23.38C146.485 22.98 147.338 22.78 148.312 22.78C148.952 22.78 149.572 22.8933 150.172 23.12C150.785 23.3467 151.292 23.6667 151.692 24.08L151.112 25.24C150.712 24.8533 150.272 24.5667 149.792 24.38C149.325 24.1933 148.865 24.1 148.412 24.1C147.372 24.1 146.565 24.4267 145.992 25.08C145.418 25.7333 145.132 26.6867 145.132 27.94C145.132 29.18 145.418 30.14 145.992 30.82C146.565 31.5 147.372 31.84 148.412 31.84C148.852 31.84 149.305 31.7533 149.772 31.58C150.252 31.4067 150.698 31.12 151.112 30.72L151.692 31.86C151.278 32.2867 150.765 32.6133 150.152 32.84C149.538 33.0667 148.925 33.18 148.312 33.18ZM158.259 33.18C156.685 33.18 155.445 32.7267 154.539 31.82C153.632 30.9 153.179 29.6267 153.179 28C153.179 26.9467 153.379 26.0333 153.779 25.26C154.179 24.4733 154.739 23.8667 155.459 23.44C156.179 23 157.005 22.78 157.939 22.78C158.859 22.78 159.632 22.9733 160.259 23.36C160.885 23.7467 161.365 24.3 161.699 25.02C162.032 25.7267 162.199 26.5667 162.199 27.54V28.14H154.419V27.12H161.139L160.799 27.38C160.799 26.3133 160.559 25.48 160.079 24.88C159.599 24.28 158.885 23.98 157.939 23.98C156.939 23.98 156.159 24.3333 155.599 25.04C155.039 25.7333 154.759 26.6733 154.759 27.86V28.04C154.759 29.2933 155.065 30.2467 155.679 30.9C156.305 31.54 157.179 31.86 158.299 31.86C158.899 31.86 159.459 31.7733 159.979 31.6C160.512 31.4133 161.019 31.1133 161.499 30.7L162.059 31.84C161.619 32.2667 161.059 32.6 160.379 32.84C159.712 33.0667 159.005 33.18 158.259 33.18ZM164.678 33V22.96H166.298V33H164.678ZM164.478 20.68V18.86H166.478V20.68H164.478ZM172.403 33L168.103 22.96H169.863L173.463 31.8H172.923L176.563 22.96H178.243L173.943 33H172.403ZM184.392 33.18C182.818 33.18 181.578 32.7267 180.672 31.82C179.765 30.9 179.312 29.6267 179.312 28C179.312 26.9467 179.512 26.0333 179.912 25.26C180.312 24.4733 180.872 23.8667 181.592 23.44C182.312 23 183.138 22.78 184.072 22.78C184.992 22.78 185.765 22.9733 186.392 23.36C187.018 23.7467 187.498 24.3 187.832 25.02C188.165 25.7267 188.332 26.5667 188.332 27.54V28.14H180.552V27.12H187.272L186.932 27.38C186.932 26.3133 186.692 25.48 186.212 24.88C185.732 24.28 185.018 23.98 184.072 23.98C183.072 23.98 182.292 24.3333 181.732 25.04C181.172 25.7333 180.892 26.6733 180.892 27.86V28.04C180.892 29.2933 181.198 30.2467 181.812 30.9C182.438 31.54 183.312 31.86 184.432 31.86C185.032 31.86 185.592 31.7733 186.112 31.6C186.645 31.4133 187.152 31.1133 187.632 30.7L188.192 31.84C187.752 32.2667 187.192 32.6 186.512 32.84C185.845 33.0667 185.138 33.18 184.392 33.18ZM200.485 33.18C198.912 33.18 197.672 32.7267 196.765 31.82C195.859 30.9 195.405 29.6267 195.405 28C195.405 26.9467 195.605 26.0333 196.005 25.26C196.405 24.4733 196.965 23.8667 197.685 23.44C198.405 23 199.232 22.78 200.165 22.78C201.085 22.78 201.859 22.9733 202.485 23.36C203.112 23.7467 203.592 24.3 203.925 25.02C204.259 25.7267 204.425 26.5667 204.425 27.54V28.14H196.645V27.12H203.365L203.025 27.38C203.025 26.3133 202.785 25.48 202.305 24.88C201.825 24.28 201.112 23.98 200.165 23.98C199.165 23.98 198.385 24.3333 197.825 25.04C197.265 25.7333 196.985 26.6733 196.985 27.86V28.04C196.985 29.2933 197.292 30.2467 197.905 30.9C198.532 31.54 199.405 31.86 200.525 31.86C201.125 31.86 201.685 31.7733 202.205 31.6C202.739 31.4133 203.245 31.1133 203.725 30.7L204.285 31.84C203.845 32.2667 203.285 32.6 202.605 32.84C201.939 33.0667 201.232 33.18 200.485 33.18ZM205.466 33L209.966 27.42V28.22L205.706 22.96H207.666L210.886 27.06H210.306L213.506 22.96H215.446L211.246 28.2V27.46L215.706 33H213.726L210.286 28.62H210.886L207.406 33H205.466ZM217.529 37.32V25.28C217.529 24.9067 217.509 24.5267 217.469 24.14C217.443 23.74 217.409 23.3467 217.369 22.96H218.929L219.149 25.34H218.909C219.123 24.5533 219.556 23.9333 220.209 23.48C220.863 23.0133 221.643 22.78 222.549 22.78C223.456 22.78 224.236 22.9867 224.889 23.4C225.556 23.8133 226.076 24.4067 226.449 25.18C226.823 25.9533 227.009 26.8867 227.009 27.98C227.009 29.06 226.823 29.9867 226.449 30.76C226.089 31.5333 225.576 32.1333 224.909 32.56C224.243 32.9733 223.456 33.18 222.549 33.18C221.656 33.18 220.883 32.9533 220.229 32.5C219.576 32.0467 219.143 31.4267 218.929 30.64H219.149V37.32H217.529ZM222.229 31.86C223.189 31.86 223.949 31.5333 224.509 30.88C225.083 30.2133 225.369 29.2467 225.369 27.98C225.369 26.7 225.083 25.7333 224.509 25.08C223.949 24.4133 223.189 24.08 222.229 24.08C221.283 24.08 220.523 24.4133 219.949 25.08C219.389 25.7333 219.109 26.7 219.109 27.98C219.109 29.2467 219.389 30.2133 219.949 30.88C220.523 31.5333 221.283 31.86 222.229 31.86ZM233.981 33.18C232.408 33.18 231.168 32.7267 230.261 31.82C229.355 30.9 228.901 29.6267 228.901 28C228.901 26.9467 229.101 26.0333 229.501 25.26C229.901 24.4733 230.461 23.8667 231.181 23.44C231.901 23 232.728 22.78 233.661 22.78C234.581 22.78 235.355 22.9733 235.981 23.36C236.608 23.7467 237.088 24.3 237.421 25.02C237.755 25.7267 237.921 26.5667 237.921 27.54V28.14H230.141V27.12H236.861L236.521 27.38C236.521 26.3133 236.281 25.48 235.801 24.88C235.321 24.28 234.608 23.98 233.661 23.98C232.661 23.98 231.881 24.3333 231.321 25.04C230.761 25.7333 230.481 26.6733 230.481 27.86V28.04C230.481 29.2933 230.788 30.2467 231.401 30.9C232.028 31.54 232.901 31.86 234.021 31.86C234.621 31.86 235.181 31.7733 235.701 31.6C236.235 31.4133 236.741 31.1133 237.221 30.7L237.781 31.84C237.341 32.2667 236.781 32.6 236.101 32.84C235.435 33.0667 234.728 33.18 233.981 33.18ZM240.36 33V25.38C240.36 24.98 240.347 24.5733 240.32 24.16C240.307 23.7467 240.28 23.3467 240.24 22.96H241.8L242 25.4L241.72 25.42C241.854 24.82 242.087 24.3267 242.42 23.94C242.754 23.5533 243.147 23.2667 243.6 23.08C244.054 22.88 244.527 22.78 245.02 22.78C245.22 22.78 245.394 22.7867 245.54 22.8C245.7 22.8133 245.847 22.8467 245.98 22.9L245.96 24.34C245.76 24.2733 245.574 24.2333 245.4 24.22C245.24 24.1933 245.054 24.18 244.84 24.18C244.254 24.18 243.74 24.32 243.3 24.6C242.874 24.88 242.547 25.24 242.32 25.68C242.107 26.12 242 26.5867 242 27.08V33H240.36ZM251.753 33.18C250.767 33.18 250.013 32.9 249.493 32.34C248.973 31.7667 248.713 30.9067 248.713 29.76V24.22H246.753V22.96H248.713V20.22L250.333 19.76V22.96H253.213V24.22H250.333V29.58C250.333 30.38 250.467 30.9533 250.733 31.3C251.013 31.6333 251.427 31.8 251.973 31.8C252.227 31.8 252.453 31.78 252.653 31.74C252.853 31.6867 253.033 31.6267 253.193 31.56V32.92C253.007 33 252.78 33.06 252.513 33.1C252.26 33.1533 252.007 33.18 251.753 33.18ZM264.82 37.46C263.954 37.46 263.154 37.3533 262.42 37.14C261.687 36.9267 261.027 36.6 260.44 36.16L260.92 34.94C261.334 35.2333 261.74 35.4667 262.14 35.64C262.54 35.8133 262.954 35.94 263.38 36.02C263.807 36.1133 264.26 36.16 264.74 36.16C265.727 36.16 266.474 35.9 266.98 35.38C267.487 34.86 267.74 34.12 267.74 33.16V30.22H267.94C267.727 31.0067 267.287 31.6333 266.62 32.1C265.954 32.5533 265.174 32.78 264.28 32.78C263.36 32.78 262.56 32.58 261.88 32.18C261.214 31.7667 260.694 31.1867 260.32 30.44C259.96 29.68 259.78 28.7867 259.78 27.76C259.78 26.7467 259.96 25.8667 260.32 25.12C260.694 24.3733 261.214 23.8 261.88 23.4C262.56 22.9867 263.36 22.78 264.28 22.78C265.187 22.78 265.967 23.0067 266.62 23.46C267.287 23.9133 267.727 24.54 267.94 25.34L267.74 25.14L267.92 22.96H269.5C269.447 23.3467 269.407 23.74 269.38 24.14C269.354 24.5267 269.34 24.9067 269.34 25.28V32.94C269.34 34.4333 268.954 35.56 268.18 36.32C267.42 37.08 266.3 37.46 264.82 37.46ZM264.58 31.46C265.554 31.46 266.32 31.14 266.88 30.5C267.44 29.8467 267.72 28.9333 267.72 27.76C267.72 26.5867 267.44 25.68 266.88 25.04C266.32 24.4 265.554 24.08 264.58 24.08C263.62 24.08 262.854 24.4 262.28 25.04C261.707 25.68 261.42 26.5867 261.42 27.76C261.42 28.9333 261.707 29.8467 262.28 30.5C262.854 31.14 263.62 31.46 264.58 31.46ZM275.991 33.18C274.804 33.18 273.904 32.8533 273.291 32.2C272.691 31.5467 272.391 30.5467 272.391 29.2V22.96H274.011V29.16C274.011 30.08 274.198 30.76 274.571 31.2C274.944 31.6267 275.524 31.84 276.311 31.84C277.191 31.84 277.898 31.5533 278.431 30.98C278.964 30.4067 279.231 29.64 279.231 28.68V22.96H280.851V33H279.271V30.74H279.531C279.251 31.5133 278.798 32.1133 278.171 32.54C277.558 32.9667 276.831 33.18 275.991 33.18ZM283.994 33V22.96H285.614V33H283.994ZM283.794 20.68V18.86H285.794V20.68H283.794ZM292.56 33.18C291.68 33.18 290.906 32.9733 290.24 32.56C289.573 32.1333 289.053 31.5333 288.68 30.76C288.32 29.9867 288.14 29.06 288.14 27.98C288.14 26.8867 288.32 25.9533 288.68 25.18C289.053 24.4067 289.573 23.8133 290.24 23.4C290.906 22.9867 291.68 22.78 292.56 22.78C293.466 22.78 294.246 23.0067 294.9 23.46C295.566 23.9133 296.013 24.5267 296.24 25.3H296V18.28H297.62V33H296.02V30.6H296.24C296.026 31.4 295.586 32.0333 294.92 32.5C294.253 32.9533 293.466 33.18 292.56 33.18ZM292.9 31.86C293.846 31.86 294.606 31.5333 295.18 30.88C295.753 30.2133 296.04 29.2467 296.04 27.98C296.04 26.7 295.753 25.7333 295.18 25.08C294.606 24.4133 293.846 24.08 292.9 24.08C291.953 24.08 291.193 24.4133 290.62 25.08C290.06 25.7333 289.78 26.7 289.78 27.98C289.78 29.2467 290.06 30.2133 290.62 30.88C291.193 31.5333 291.953 31.86 292.9 31.86ZM304.572 33.18C303.679 33.18 302.899 32.9733 302.232 32.56C301.565 32.1333 301.045 31.5333 300.672 30.76C300.312 29.9867 300.132 29.06 300.132 27.98C300.132 26.8867 300.312 25.9533 300.672 25.18C301.045 24.4067 301.565 23.8133 302.232 23.4C302.899 22.9867 303.679 22.78 304.572 22.78C305.479 22.78 306.259 23.0133 306.912 23.48C307.579 23.9333 308.019 24.5533 308.232 25.34H307.992L308.212 22.96H309.772C309.732 23.3467 309.692 23.74 309.652 24.14C309.625 24.5267 309.612 24.9067 309.612 25.28V33H307.992V30.64H308.212C307.999 31.4267 307.559 32.0467 306.892 32.5C306.225 32.9533 305.452 33.18 304.572 33.18ZM304.892 31.86C305.852 31.86 306.612 31.5333 307.172 30.88C307.732 30.2133 308.012 29.2467 308.012 27.98C308.012 26.7 307.732 25.7333 307.172 25.08C306.612 24.4133 305.852 24.08 304.892 24.08C303.945 24.08 303.185 24.4133 302.612 25.08C302.052 25.7333 301.772 26.7 301.772 27.98C301.772 29.2467 302.052 30.2133 302.612 30.88C303.185 31.5333 303.945 31.86 304.892 31.86ZM312.744 33V25.28C312.744 24.9067 312.724 24.5267 312.684 24.14C312.657 23.74 312.624 23.3467 312.584 22.96H314.144L314.344 25.16H314.104C314.397 24.3867 314.864 23.8 315.504 23.4C316.157 22.9867 316.911 22.78 317.764 22.78C318.951 22.78 319.844 23.1 320.444 23.74C321.057 24.3667 321.364 25.36 321.364 26.72V33H319.744V26.82C319.744 25.8733 319.551 25.1867 319.164 24.76C318.791 24.32 318.204 24.1 317.404 24.1C316.471 24.1 315.731 24.3867 315.184 24.96C314.637 25.5333 314.364 26.3 314.364 27.26V33H312.744ZM328.683 33.18C327.696 33.18 326.836 32.9667 326.103 32.54C325.383 32.1133 324.823 31.5067 324.423 30.72C324.036 29.9333 323.843 29 323.843 27.92C323.843 26.8267 324.043 25.9 324.443 25.14C324.843 24.3667 325.403 23.78 326.123 23.38C326.856 22.98 327.709 22.78 328.683 22.78C329.323 22.78 329.943 22.8933 330.543 23.12C331.156 23.3467 331.663 23.6667 332.063 24.08L331.483 25.24C331.083 24.8533 330.643 24.5667 330.163 24.38C329.696 24.1933 329.236 24.1 328.783 24.1C327.743 24.1 326.936 24.4267 326.363 25.08C325.789 25.7333 325.503 26.6867 325.503 27.94C325.503 29.18 325.789 30.14 326.363 30.82C326.936 31.5 327.743 31.84 328.783 31.84C329.223 31.84 329.676 31.7533 330.143 31.58C330.623 31.4067 331.069 31.12 331.483 30.72L332.063 31.86C331.649 32.2867 331.136 32.6133 330.523 32.84C329.909 33.0667 329.296 33.18 328.683 33.18ZM338.63 33.18C337.057 33.18 335.817 32.7267 334.91 31.82C334.003 30.9 333.55 29.6267 333.55 28C333.55 26.9467 333.75 26.0333 334.15 25.26C334.55 24.4733 335.11 23.8667 335.83 23.44C336.55 23 337.377 22.78 338.31 22.78C339.23 22.78 340.003 22.9733 340.63 23.36C341.257 23.7467 341.737 24.3 342.07 25.02C342.403 25.7267 342.57 26.5667 342.57 27.54V28.14H334.79V27.12H341.51L341.17 27.38C341.17 26.3133 340.93 25.48 340.45 24.88C339.97 24.28 339.257 23.98 338.31 23.98C337.31 23.98 336.53 24.3333 335.97 25.04C335.41 25.7333 335.13 26.6733 335.13 27.86V28.04C335.13 29.2933 335.437 30.2467 336.05 30.9C336.677 31.54 337.55 31.86 338.67 31.86C339.27 31.86 339.83 31.7733 340.35 31.6C340.883 31.4133 341.39 31.1133 341.87 30.7L342.43 31.84C341.99 32.2667 341.43 32.6 340.75 32.84C340.083 33.0667 339.377 33.18 338.63 33.18ZM353.824 33.18C352.837 33.18 352.084 32.9 351.564 32.34C351.044 31.7667 350.784 30.9067 350.784 29.76V24.22H348.824V22.96H350.784V20.22L352.404 19.76V22.96H355.284V24.22H352.404V29.58C352.404 30.38 352.537 30.9533 352.804 31.3C353.084 31.6333 353.497 31.8 354.044 31.8C354.297 31.8 354.524 31.78 354.724 31.74C354.924 31.6867 355.104 31.6267 355.264 31.56V32.92C355.077 33 354.85 33.06 354.584 33.1C354.33 33.1533 354.077 33.18 353.824 33.18ZM357.256 33V18.28H358.876V25.18H358.616C358.896 24.3933 359.362 23.8 360.016 23.4C360.682 22.9867 361.449 22.78 362.316 22.78C363.516 22.78 364.409 23.1067 364.996 23.76C365.582 24.4 365.876 25.3733 365.876 26.68V33H364.256V26.78C364.256 25.8467 364.069 25.1667 363.696 24.74C363.336 24.3133 362.749 24.1 361.936 24.1C361.002 24.1 360.256 24.3867 359.696 24.96C359.149 25.5333 358.876 26.2867 358.876 27.22V33H357.256ZM368.935 33V25.38C368.935 24.98 368.921 24.5733 368.895 24.16C368.881 23.7467 368.855 23.3467 368.815 22.96H370.375L370.575 25.4L370.295 25.42C370.428 24.82 370.661 24.3267 370.995 23.94C371.328 23.5533 371.721 23.2667 372.175 23.08C372.628 22.88 373.101 22.78 373.595 22.78C373.795 22.78 373.968 22.7867 374.115 22.8C374.275 22.8133 374.421 22.8467 374.555 22.9L374.535 24.34C374.335 24.2733 374.148 24.2333 373.975 24.22C373.815 24.1933 373.628 24.18 373.415 24.18C372.828 24.18 372.315 24.32 371.875 24.6C371.448 24.88 371.121 25.24 370.895 25.68C370.681 26.12 370.575 26.5867 370.575 27.08V33H368.935ZM380.243 33.18C379.283 33.18 378.443 32.9733 377.723 32.56C377.016 32.1333 376.47 31.5333 376.083 30.76C375.696 29.9733 375.503 29.0467 375.503 27.98C375.503 26.9 375.696 25.9733 376.083 25.2C376.47 24.4267 377.016 23.8333 377.723 23.42C378.443 22.9933 379.283 22.78 380.243 22.78C381.216 22.78 382.056 22.9933 382.763 23.42C383.483 23.8333 384.036 24.4267 384.423 25.2C384.823 25.9733 385.023 26.9 385.023 27.98C385.023 29.0467 384.823 29.9733 384.423 30.76C384.036 31.5333 383.483 32.1333 382.763 32.56C382.056 32.9733 381.216 33.18 380.243 33.18ZM380.243 31.86C381.203 31.86 381.963 31.5333 382.523 30.88C383.083 30.2133 383.363 29.2467 383.363 27.98C383.363 26.7 383.076 25.7333 382.503 25.08C381.943 24.4133 381.19 24.08 380.243 24.08C379.296 24.08 378.543 24.4133 377.983 25.08C377.423 25.7333 377.143 26.7 377.143 27.98C377.143 29.2467 377.423 30.2133 377.983 30.88C378.543 31.5333 379.296 31.86 380.243 31.86ZM391.089 33.18C389.902 33.18 389.002 32.8533 388.389 32.2C387.789 31.5467 387.489 30.5467 387.489 29.2V22.96H389.109V29.16C389.109 30.08 389.295 30.76 389.669 31.2C390.042 31.6267 390.622 31.84 391.409 31.84C392.289 31.84 392.995 31.5533 393.529 30.98C394.062 30.4067 394.329 29.64 394.329 28.68V22.96H395.949V33H394.369V30.74H394.629C394.349 31.5133 393.895 32.1133 393.269 32.54C392.655 32.9667 391.929 33.18 391.089 33.18ZM403.512 37.46C402.645 37.46 401.845 37.3533 401.112 37.14C400.378 36.9267 399.718 36.6 399.132 36.16L399.612 34.94C400.025 35.2333 400.432 35.4667 400.832 35.64C401.232 35.8133 401.645 35.94 402.072 36.02C402.498 36.1133 402.952 36.16 403.432 36.16C404.418 36.16 405.165 35.9 405.672 35.38C406.178 34.86 406.432 34.12 406.432 33.16V30.22H406.632C406.418 31.0067 405.978 31.6333 405.312 32.1C404.645 32.5533 403.865 32.78 402.972 32.78C402.052 32.78 401.252 32.58 400.572 32.18C399.905 31.7667 399.385 31.1867 399.012 30.44C398.652 29.68 398.472 28.7867 398.472 27.76C398.472 26.7467 398.652 25.8667 399.012 25.12C399.385 24.3733 399.905 23.8 400.572 23.4C401.252 22.9867 402.052 22.78 402.972 22.78C403.878 22.78 404.658 23.0067 405.312 23.46C405.978 23.9133 406.418 24.54 406.632 25.34L406.432 25.14L406.612 22.96H408.192C408.138 23.3467 408.098 23.74 408.072 24.14C408.045 24.5267 408.032 24.9067 408.032 25.28V32.94C408.032 34.4333 407.645 35.56 406.872 36.32C406.112 37.08 404.992 37.46 403.512 37.46ZM403.272 31.46C404.245 31.46 405.012 31.14 405.572 30.5C406.132 29.8467 406.412 28.9333 406.412 27.76C406.412 26.5867 406.132 25.68 405.572 25.04C405.012 24.4 404.245 24.08 403.272 24.08C402.312 24.08 401.545 24.4 400.972 25.04C400.398 25.68 400.112 26.5867 400.112 27.76C400.112 28.9333 400.398 29.8467 400.972 30.5C401.545 31.14 402.312 31.46 403.272 31.46ZM411.143 33V18.28H412.763V25.18H412.502C412.783 24.3933 413.249 23.8 413.903 23.4C414.569 22.9867 415.336 22.78 416.203 22.78C417.403 22.78 418.296 23.1067 418.883 23.76C419.469 24.4 419.763 25.3733 419.763 26.68V33H418.143V26.78C418.143 25.8467 417.956 25.1667 417.583 24.74C417.223 24.3133 416.636 24.1 415.823 24.1C414.889 24.1 414.143 24.3867 413.583 24.96C413.036 25.5333 412.763 26.2867 412.763 27.22V33H411.143ZM123.14 58.18C122.153 58.18 121.4 57.9 120.88 57.34C120.36 56.7667 120.1 55.9067 120.1 54.76V49.22H118.14V47.96H120.1V45.22L121.72 44.76V47.96H124.6V49.22H121.72V54.58C121.72 55.38 121.853 55.9533 122.12 56.3C122.4 56.6333 122.813 56.8 123.36 56.8C123.613 56.8 123.84 56.78 124.04 56.74C124.24 56.6867 124.42 56.6267 124.58 56.56V57.92C124.393 58 124.167 58.06 123.9 58.1C123.647 58.1533 123.393 58.18 123.14 58.18ZM126.572 58V43.28H128.192V50.18H127.932C128.212 49.3933 128.679 48.8 129.332 48.4C129.999 47.9867 130.766 47.78 131.632 47.78C132.832 47.78 133.726 48.1067 134.312 48.76C134.899 49.4 135.192 50.3733 135.192 51.68V58H133.572V51.78C133.572 50.8467 133.386 50.1667 133.012 49.74C132.652 49.3133 132.066 49.1 131.252 49.1C130.319 49.1 129.572 49.3867 129.012 49.96C128.466 50.5333 128.192 51.2867 128.192 52.22V58H126.572ZM142.751 58.18C141.178 58.18 139.938 57.7267 139.031 56.82C138.124 55.9 137.671 54.6267 137.671 53C137.671 51.9467 137.871 51.0333 138.271 50.26C138.671 49.4733 139.231 48.8667 139.951 48.44C140.671 48 141.498 47.78 142.431 47.78C143.351 47.78 144.124 47.9733 144.751 48.36C145.378 48.7467 145.858 49.3 146.191 50.02C146.524 50.7267 146.691 51.5667 146.691 52.54V53.14H138.911V52.12H145.631L145.291 52.38C145.291 51.3133 145.051 50.48 144.571 49.88C144.091 49.28 143.378 48.98 142.431 48.98C141.431 48.98 140.651 49.3333 140.091 50.04C139.531 50.7333 139.251 51.6733 139.251 52.86V53.04C139.251 54.2933 139.558 55.2467 140.171 55.9C140.798 56.54 141.671 56.86 142.791 56.86C143.391 56.86 143.951 56.7733 144.471 56.6C145.004 56.4133 145.511 56.1133 145.991 55.7L146.551 56.84C146.111 57.2667 145.551 57.6 144.871 57.84C144.204 58.0667 143.498 58.18 142.751 58.18ZM157.725 58.18C156.925 58.18 156.178 58.0733 155.485 57.86C154.791 57.6333 154.218 57.32 153.765 56.92L154.325 55.78C154.818 56.1667 155.351 56.4533 155.925 56.64C156.511 56.8267 157.118 56.92 157.745 56.92C158.545 56.92 159.145 56.78 159.545 56.5C159.958 56.2067 160.165 55.8067 160.165 55.3C160.165 54.9133 160.031 54.6067 159.765 54.38C159.511 54.14 159.091 53.9533 158.505 53.82L156.645 53.44C155.791 53.2533 155.151 52.94 154.725 52.5C154.298 52.0467 154.085 51.4733 154.085 50.78C154.085 50.1933 154.238 49.68 154.545 49.24C154.851 48.7867 155.298 48.4333 155.885 48.18C156.471 47.9133 157.158 47.78 157.945 47.78C158.678 47.78 159.351 47.8933 159.965 48.12C160.591 48.3333 161.111 48.6467 161.525 49.06L160.945 50.18C160.545 49.7933 160.085 49.5067 159.565 49.32C159.058 49.12 158.531 49.02 157.985 49.02C157.198 49.02 156.605 49.18 156.205 49.5C155.818 49.8067 155.625 50.2133 155.625 50.72C155.625 51.1067 155.745 51.4267 155.985 51.68C156.238 51.92 156.625 52.1 157.145 52.22L159.005 52.6C159.911 52.8 160.585 53.1133 161.025 53.54C161.478 53.9533 161.705 54.5133 161.705 55.22C161.705 55.82 161.538 56.3467 161.205 56.8C160.871 57.24 160.405 57.58 159.805 57.82C159.218 58.06 158.525 58.18 157.725 58.18ZM168.767 58.18C167.193 58.18 165.953 57.7267 165.047 56.82C164.14 55.9 163.687 54.6267 163.687 53C163.687 51.9467 163.887 51.0333 164.287 50.26C164.687 49.4733 165.247 48.8667 165.967 48.44C166.687 48 167.513 47.78 168.447 47.78C169.367 47.78 170.14 47.9733 170.767 48.36C171.393 48.7467 171.873 49.3 172.207 50.02C172.54 50.7267 172.707 51.5667 172.707 52.54V53.14H164.927V52.12H171.647L171.307 52.38C171.307 51.3133 171.067 50.48 170.587 49.88C170.107 49.28 169.393 48.98 168.447 48.98C167.447 48.98 166.667 49.3333 166.107 50.04C165.547 50.7333 165.267 51.6733 165.267 52.86V53.04C165.267 54.2933 165.573 55.2467 166.187 55.9C166.813 56.54 167.687 56.86 168.807 56.86C169.407 56.86 169.967 56.7733 170.487 56.6C171.02 56.4133 171.527 56.1133 172.007 55.7L172.567 56.84C172.127 57.2667 171.567 57.6 170.887 57.84C170.22 58.0667 169.513 58.18 168.767 58.18ZM175.185 58V43.28H176.805V58H175.185ZM179.951 58V43.28H181.571V58H179.951ZM184.717 58V47.96H186.337V58H184.717ZM184.517 45.68V43.86H186.517V45.68H184.517ZM189.482 58V50.28C189.482 49.9067 189.462 49.5267 189.422 49.14C189.396 48.74 189.362 48.3467 189.322 47.96H190.882L191.082 50.16H190.842C191.136 49.3867 191.602 48.8 192.242 48.4C192.896 47.9867 193.649 47.78 194.502 47.78C195.689 47.78 196.582 48.1 197.182 48.74C197.796 49.3667 198.102 50.36 198.102 51.72V58H196.482V51.82C196.482 50.8733 196.289 50.1867 195.902 49.76C195.529 49.32 194.942 49.1 194.142 49.1C193.209 49.1 192.469 49.3867 191.922 49.96C191.376 50.5333 191.102 51.3 191.102 52.26V58H189.482ZM205.621 62.46C204.754 62.46 203.954 62.3533 203.221 62.14C202.488 61.9267 201.828 61.6 201.241 61.16L201.721 59.94C202.134 60.2333 202.541 60.4667 202.941 60.64C203.341 60.8133 203.754 60.94 204.181 61.02C204.608 61.1133 205.061 61.16 205.541 61.16C206.528 61.16 207.274 60.9 207.781 60.38C208.288 59.86 208.541 59.12 208.541 58.16V55.22H208.741C208.528 56.0067 208.088 56.6333 207.421 57.1C206.754 57.5533 205.974 57.78 205.081 57.78C204.161 57.78 203.361 57.58 202.681 57.18C202.014 56.7667 201.494 56.1867 201.121 55.44C200.761 54.68 200.581 53.7867 200.581 52.76C200.581 51.7467 200.761 50.8667 201.121 50.12C201.494 49.3733 202.014 48.8 202.681 48.4C203.361 47.9867 204.161 47.78 205.081 47.78C205.988 47.78 206.768 48.0067 207.421 48.46C208.088 48.9133 208.528 49.54 208.741 50.34L208.541 50.14L208.721 47.96H210.301C210.248 48.3467 210.208 48.74 210.181 49.14C210.154 49.5267 210.141 49.9067 210.141 50.28V57.94C210.141 59.4333 209.754 60.56 208.981 61.32C208.221 62.08 207.101 62.46 205.621 62.46ZM205.381 56.46C206.354 56.46 207.121 56.14 207.681 55.5C208.241 54.8467 208.521 53.9333 208.521 52.76C208.521 51.5867 208.241 50.68 207.681 50.04C207.121 49.4 206.354 49.08 205.381 49.08C204.421 49.08 203.654 49.4 203.081 50.04C202.508 50.68 202.221 51.5867 202.221 52.76C202.221 53.9333 202.508 54.8467 203.081 55.5C203.654 56.14 204.421 56.46 205.381 56.46ZM218.467 62.32V50.28C218.467 49.9067 218.447 49.5267 218.407 49.14C218.38 48.74 218.347 48.3467 218.307 47.96H219.867L220.087 50.34H219.847C220.06 49.5533 220.493 48.9333 221.147 48.48C221.8 48.0133 222.58 47.78 223.487 47.78C224.393 47.78 225.173 47.9867 225.827 48.4C226.493 48.8133 227.013 49.4067 227.387 50.18C227.76 50.9533 227.947 51.8867 227.947 52.98C227.947 54.06 227.76 54.9867 227.387 55.76C227.027 56.5333 226.513 57.1333 225.847 57.56C225.18 57.9733 224.393 58.18 223.487 58.18C222.593 58.18 221.82 57.9533 221.167 57.5C220.513 57.0467 220.08 56.4267 219.867 55.64H220.087V62.32H218.467ZM223.167 56.86C224.127 56.86 224.887 56.5333 225.447 55.88C226.02 55.2133 226.307 54.2467 226.307 52.98C226.307 51.7 226.02 50.7333 225.447 50.08C224.887 49.4133 224.127 49.08 223.167 49.08C222.22 49.08 221.46 49.4133 220.887 50.08C220.327 50.7333 220.047 51.7 220.047 52.98C220.047 54.2467 220.327 55.2133 220.887 55.88C221.46 56.5333 222.22 56.86 223.167 56.86ZM230.419 58V50.38C230.419 49.98 230.406 49.5733 230.379 49.16C230.366 48.7467 230.339 48.3467 230.299 47.96H231.859L232.059 50.4L231.779 50.42C231.912 49.82 232.146 49.3267 232.479 48.94C232.812 48.5533 233.206 48.2667 233.659 48.08C234.112 47.88 234.586 47.78 235.079 47.78C235.279 47.78 235.452 47.7867 235.599 47.8C235.759 47.8133 235.906 47.8467 236.039 47.9L236.019 49.34C235.819 49.2733 235.632 49.2333 235.459 49.22C235.299 49.1933 235.112 49.18 234.899 49.18C234.312 49.18 233.799 49.32 233.359 49.6C232.932 49.88 232.606 50.24 232.379 50.68C232.166 51.12 232.059 51.5867 232.059 52.08V58H230.419ZM241.727 58.18C240.767 58.18 239.927 57.9733 239.207 57.56C238.501 57.1333 237.954 56.5333 237.567 55.76C237.181 54.9733 236.987 54.0467 236.987 52.98C236.987 51.9 237.181 50.9733 237.567 50.2C237.954 49.4267 238.501 48.8333 239.207 48.42C239.927 47.9933 240.767 47.78 241.727 47.78C242.701 47.78 243.541 47.9933 244.247 48.42C244.967 48.8333 245.521 49.4267 245.907 50.2C246.307 50.9733 246.507 51.9 246.507 52.98C246.507 54.0467 246.307 54.9733 245.907 55.76C245.521 56.5333 244.967 57.1333 244.247 57.56C243.541 57.9733 242.701 58.18 241.727 58.18ZM241.727 56.86C242.687 56.86 243.447 56.5333 244.007 55.88C244.567 55.2133 244.847 54.2467 244.847 52.98C244.847 51.7 244.561 50.7333 243.987 50.08C243.427 49.4133 242.674 49.08 241.727 49.08C240.781 49.08 240.027 49.4133 239.467 50.08C238.907 50.7333 238.627 51.7 238.627 52.98C238.627 54.2467 238.907 55.2133 239.467 55.88C240.027 56.5333 240.781 56.86 241.727 56.86ZM253.253 58.18C252.266 58.18 251.406 57.9667 250.673 57.54C249.953 57.1133 249.393 56.5067 248.993 55.72C248.606 54.9333 248.413 54 248.413 52.92C248.413 51.8267 248.613 50.9 249.013 50.14C249.413 49.3667 249.973 48.78 250.693 48.38C251.426 47.98 252.28 47.78 253.253 47.78C253.893 47.78 254.513 47.8933 255.113 48.12C255.726 48.3467 256.233 48.6667 256.633 49.08L256.053 50.24C255.653 49.8533 255.213 49.5667 254.733 49.38C254.266 49.1933 253.806 49.1 253.353 49.1C252.313 49.1 251.506 49.4267 250.933 50.08C250.36 50.7333 250.073 51.6867 250.073 52.94C250.073 54.18 250.36 55.14 250.933 55.82C251.506 56.5 252.313 56.84 253.353 56.84C253.793 56.84 254.246 56.7533 254.713 56.58C255.193 56.4067 255.64 56.12 256.053 55.72L256.633 56.86C256.22 57.2867 255.706 57.6133 255.093 57.84C254.48 58.0667 253.866 58.18 253.253 58.18ZM263.2 58.18C261.627 58.18 260.387 57.7267 259.48 56.82C258.573 55.9 258.12 54.6267 258.12 53C258.12 51.9467 258.32 51.0333 258.72 50.26C259.12 49.4733 259.68 48.8667 260.4 48.44C261.12 48 261.947 47.78 262.88 47.78C263.8 47.78 264.573 47.9733 265.2 48.36C265.827 48.7467 266.307 49.3 266.64 50.02C266.973 50.7267 267.14 51.5667 267.14 52.54V53.14H259.36V52.12H266.08L265.74 52.38C265.74 51.3133 265.5 50.48 265.02 49.88C264.54 49.28 263.827 48.98 262.88 48.98C261.88 48.98 261.1 49.3333 260.54 50.04C259.98 50.7333 259.7 51.6733 259.7 52.86V53.04C259.7 54.2933 260.007 55.2467 260.62 55.9C261.247 56.54 262.12 56.86 263.24 56.86C263.84 56.86 264.4 56.7733 264.92 56.6C265.453 56.4133 265.96 56.1133 266.44 55.7L267 56.84C266.56 57.2667 266 57.6 265.32 57.84C264.653 58.0667 263.947 58.18 263.2 58.18ZM272.959 58.18C272.159 58.18 271.412 58.0733 270.719 57.86C270.026 57.6333 269.452 57.32 268.999 56.92L269.559 55.78C270.052 56.1667 270.586 56.4533 271.159 56.64C271.746 56.8267 272.352 56.92 272.979 56.92C273.779 56.92 274.379 56.78 274.779 56.5C275.192 56.2067 275.399 55.8067 275.399 55.3C275.399 54.9133 275.266 54.6067 274.999 54.38C274.746 54.14 274.326 53.9533 273.739 53.82L271.879 53.44C271.026 53.2533 270.386 52.94 269.959 52.5C269.532 52.0467 269.319 51.4733 269.319 50.78C269.319 50.1933 269.472 49.68 269.779 49.24C270.086 48.7867 270.532 48.4333 271.119 48.18C271.706 47.9133 272.392 47.78 273.179 47.78C273.912 47.78 274.586 47.8933 275.199 48.12C275.826 48.3333 276.346 48.6467 276.759 49.06L276.179 50.18C275.779 49.7933 275.319 49.5067 274.799 49.32C274.292 49.12 273.766 49.02 273.219 49.02C272.432 49.02 271.839 49.18 271.439 49.5C271.052 49.8067 270.859 50.2133 270.859 50.72C270.859 51.1067 270.979 51.4267 271.219 51.68C271.472 51.92 271.859 52.1 272.379 52.22L274.239 52.6C275.146 52.8 275.819 53.1133 276.259 53.54C276.712 53.9533 276.939 54.5133 276.939 55.22C276.939 55.82 276.772 56.3467 276.439 56.8C276.106 57.24 275.639 57.58 275.039 57.82C274.452 58.06 273.759 58.18 272.959 58.18ZM282.881 58.18C282.081 58.18 281.334 58.0733 280.641 57.86C279.948 57.6333 279.374 57.32 278.921 56.92L279.481 55.78C279.974 56.1667 280.508 56.4533 281.081 56.64C281.668 56.8267 282.274 56.92 282.901 56.92C283.701 56.92 284.301 56.78 284.701 56.5C285.114 56.2067 285.321 55.8067 285.321 55.3C285.321 54.9133 285.188 54.6067 284.921 54.38C284.668 54.14 284.248 53.9533 283.661 53.82L281.801 53.44C280.948 53.2533 280.308 52.94 279.881 52.5C279.454 52.0467 279.241 51.4733 279.241 50.78C279.241 50.1933 279.394 49.68 279.701 49.24C280.008 48.7867 280.454 48.4333 281.041 48.18C281.628 47.9133 282.314 47.78 283.101 47.78C283.834 47.78 284.508 47.8933 285.121 48.12C285.748 48.3333 286.268 48.6467 286.681 49.06L286.101 50.18C285.701 49.7933 285.241 49.5067 284.721 49.32C284.214 49.12 283.688 49.02 283.141 49.02C282.354 49.02 281.761 49.18 281.361 49.5C280.974 49.8067 280.781 50.2133 280.781 50.72C280.781 51.1067 280.901 51.4267 281.141 51.68C281.394 51.92 281.781 52.1 282.301 52.22L284.161 52.6C285.068 52.8 285.741 53.1133 286.181 53.54C286.634 53.9533 286.861 54.5133 286.861 55.22C286.861 55.82 286.694 56.3467 286.361 56.8C286.028 57.24 285.561 57.58 284.961 57.82C284.374 58.06 283.681 58.18 282.881 58.18ZM289.885 60.28L289.125 59.7C289.485 59.3267 289.718 58.9733 289.825 58.64C289.945 58.32 290.005 57.9933 290.005 57.66L290.365 58H289.045V55.96H291.085V57.4C291.085 57.9333 290.998 58.4333 290.825 58.9C290.652 59.38 290.338 59.84 289.885 60.28ZM303.591 58.18C302.017 58.18 300.777 57.7267 299.871 56.82C298.964 55.9 298.511 54.6267 298.511 53C298.511 51.9467 298.711 51.0333 299.111 50.26C299.511 49.4733 300.071 48.8667 300.791 48.44C301.511 48 302.337 47.78 303.271 47.78C304.191 47.78 304.964 47.9733 305.591 48.36C306.217 48.7467 306.697 49.3 307.031 50.02C307.364 50.7267 307.531 51.5667 307.531 52.54V53.14H299.751V52.12H306.471L306.131 52.38C306.131 51.3133 305.891 50.48 305.411 49.88C304.931 49.28 304.217 48.98 303.271 48.98C302.271 48.98 301.491 49.3333 300.931 50.04C300.371 50.7333 300.091 51.6733 300.091 52.86V53.04C300.091 54.2933 300.397 55.2467 301.011 55.9C301.637 56.54 302.511 56.86 303.631 56.86C304.231 56.86 304.791 56.7733 305.311 56.6C305.844 56.4133 306.351 56.1133 306.831 55.7L307.391 56.84C306.951 57.2667 306.391 57.6 305.711 57.84C305.044 58.0667 304.337 58.18 303.591 58.18ZM312.853 58L308.553 47.96H310.313L313.913 56.8H313.373L317.013 47.96H318.693L314.393 58H312.853ZM324.841 58.18C323.267 58.18 322.027 57.7267 321.121 56.82C320.214 55.9 319.761 54.6267 319.761 53C319.761 51.9467 319.961 51.0333 320.361 50.26C320.761 49.4733 321.321 48.8667 322.041 48.44C322.761 48 323.587 47.78 324.521 47.78C325.441 47.78 326.214 47.9733 326.841 48.36C327.467 48.7467 327.947 49.3 328.281 50.02C328.614 50.7267 328.781 51.5667 328.781 52.54V53.14H321.001V52.12H327.721L327.381 52.38C327.381 51.3133 327.141 50.48 326.661 49.88C326.181 49.28 325.467 48.98 324.521 48.98C323.521 48.98 322.741 49.3333 322.181 50.04C321.621 50.7333 321.341 51.6733 321.341 52.86V53.04C321.341 54.2933 321.647 55.2467 322.261 55.9C322.887 56.54 323.761 56.86 324.881 56.86C325.481 56.86 326.041 56.7733 326.561 56.6C327.094 56.4133 327.601 56.1133 328.081 55.7L328.641 56.84C328.201 57.2667 327.641 57.6 326.961 57.84C326.294 58.0667 325.587 58.18 324.841 58.18ZM331.26 58V50.28C331.26 49.9067 331.24 49.5267 331.2 49.14C331.173 48.74 331.14 48.3467 331.1 47.96H332.66L332.86 50.16H332.62C332.913 49.3867 333.38 48.8 334.02 48.4C334.673 47.9867 335.426 47.78 336.28 47.78C337.466 47.78 338.36 48.1 338.96 48.74C339.573 49.3667 339.88 50.36 339.88 51.72V58H338.26V51.82C338.26 50.8733 338.066 50.1867 337.68 49.76C337.306 49.32 336.72 49.1 335.92 49.1C334.986 49.1 334.246 49.3867 333.7 49.96C333.153 50.5333 332.88 51.3 332.88 52.26V58H331.26ZM348.193 58V47.96H349.813V58H348.193ZM347.993 45.68V43.86H349.993V45.68H347.993ZM353.479 58V49.22H351.519V47.96H353.919L353.479 48.38V46.7C353.479 45.5667 353.766 44.7 354.339 44.1C354.912 43.5 355.732 43.2 356.799 43.2C357.066 43.2 357.339 43.2267 357.619 43.28C357.912 43.32 358.152 43.38 358.339 43.46V44.8C358.179 44.7333 357.979 44.68 357.739 44.64C357.512 44.5867 357.279 44.56 357.039 44.56C356.626 44.56 356.272 44.6467 355.979 44.82C355.686 44.98 355.466 45.2267 355.319 45.56C355.172 45.8933 355.099 46.32 355.099 46.84V48.3L354.839 47.96H357.899V49.22H355.099V58H353.479ZM364.532 62.54L364.152 61.2C364.778 61.0533 365.298 60.88 365.712 60.68C366.138 60.4933 366.492 60.24 366.772 59.92C367.052 59.6 367.292 59.2 367.492 58.72L368.012 57.54L367.972 58.22L363.592 47.96H365.352L368.972 56.78H368.452L372.032 47.96H373.732L369.092 58.84C368.825 59.48 368.532 60.0133 368.212 60.44C367.892 60.88 367.545 61.2333 367.172 61.5C366.812 61.78 366.412 62 365.972 62.16C365.532 62.32 365.052 62.4467 364.532 62.54ZM379.54 58.18C378.58 58.18 377.74 57.9733 377.02 57.56C376.313 57.1333 375.767 56.5333 375.38 55.76C374.993 54.9733 374.8 54.0467 374.8 52.98C374.8 51.9 374.993 50.9733 375.38 50.2C375.767 49.4267 376.313 48.8333 377.02 48.42C377.74 47.9933 378.58 47.78 379.54 47.78C380.513 47.78 381.353 47.9933 382.06 48.42C382.78 48.8333 383.333 49.4267 383.72 50.2C384.12 50.9733 384.32 51.9 384.32 52.98C384.32 54.0467 384.12 54.9733 383.72 55.76C383.333 56.5333 382.78 57.1333 382.06 57.56C381.353 57.9733 380.513 58.18 379.54 58.18ZM379.54 56.86C380.5 56.86 381.26 56.5333 381.82 55.88C382.38 55.2133 382.66 54.2467 382.66 52.98C382.66 51.7 382.373 50.7333 381.8 50.08C381.24 49.4133 380.487 49.08 379.54 49.08C378.593 49.08 377.84 49.4133 377.28 50.08C376.72 50.7333 376.44 51.7 376.44 52.98C376.44 54.2467 376.72 55.2133 377.28 55.88C377.84 56.5333 378.593 56.86 379.54 56.86ZM390.386 58.18C389.199 58.18 388.299 57.8533 387.686 57.2C387.086 56.5467 386.786 55.5467 386.786 54.2V47.96H388.406V54.16C388.406 55.08 388.592 55.76 388.966 56.2C389.339 56.6267 389.919 56.84 390.706 56.84C391.586 56.84 392.292 56.5533 392.826 55.98C393.359 55.4067 393.626 54.64 393.626 53.68V47.96H395.246V58H393.666V55.74H393.926C393.646 56.5133 393.192 57.1133 392.566 57.54C391.952 57.9667 391.226 58.18 390.386 58.18ZM398.489 49.44L398.069 43.9H399.969L399.589 49.44H398.489ZM402.763 58V50.38C402.763 49.98 402.749 49.5733 402.723 49.16C402.709 48.7467 402.683 48.3467 402.643 47.96H404.203L404.403 50.4L404.123 50.42C404.256 49.82 404.489 49.3267 404.823 48.94C405.156 48.5533 405.549 48.2667 406.003 48.08C406.456 47.88 406.929 47.78 407.423 47.78C407.623 47.78 407.796 47.7867 407.943 47.8C408.103 47.8133 408.249 47.8467 408.383 47.9L408.363 49.34C408.163 49.2733 407.976 49.2333 407.803 49.22C407.643 49.1933 407.456 49.18 407.243 49.18C406.656 49.18 406.143 49.32 405.703 49.6C405.276 49.88 404.949 50.24 404.723 50.68C404.509 51.12 404.403 51.5867 404.403 52.08V58H402.763ZM414.411 58.18C412.838 58.18 411.598 57.7267 410.691 56.82C409.784 55.9 409.331 54.6267 409.331 53C409.331 51.9467 409.531 51.0333 409.931 50.26C410.331 49.4733 410.891 48.8667 411.611 48.44C412.331 48 413.158 47.78 414.091 47.78C415.011 47.78 415.784 47.9733 416.411 48.36C417.038 48.7467 417.518 49.3 417.851 50.02C418.184 50.7267 418.351 51.5667 418.351 52.54V53.14H410.571V52.12H417.291L416.951 52.38C416.951 51.3133 416.711 50.48 416.231 49.88C415.751 49.28 415.038 48.98 414.091 48.98C413.091 48.98 412.311 49.3333 411.751 50.04C411.191 50.7333 410.911 51.6733 410.911 52.86V53.04C410.911 54.2933 411.218 55.2467 411.831 55.9C412.458 56.54 413.331 56.86 414.451 56.86C415.051 56.86 415.611 56.7733 416.131 56.6C416.664 56.4133 417.171 56.1133 417.651 55.7L418.211 56.84C417.771 57.2667 417.211 57.6 416.531 57.84C415.864 58.0667 415.158 58.18 414.411 58.18ZM123.12 83.18C121.933 83.18 121.033 82.8533 120.42 82.2C119.82 81.5467 119.52 80.5467 119.52 79.2V72.96H121.14V79.16C121.14 80.08 121.327 80.76 121.7 81.2C122.073 81.6267 122.653 81.84 123.44 81.84C124.32 81.84 125.027 81.5533 125.56 80.98C126.093 80.4067 126.36 79.64 126.36 78.68V72.96H127.98V83H126.4V80.74H126.66C126.38 81.5133 125.927 82.1133 125.3 82.54C124.687 82.9667 123.96 83.18 123.12 83.18ZM131.123 83V75.28C131.123 74.9067 131.103 74.5267 131.063 74.14C131.036 73.74 131.003 73.3467 130.963 72.96H132.523L132.723 75.16H132.483C132.776 74.3867 133.243 73.8 133.883 73.4C134.536 72.9867 135.29 72.78 136.143 72.78C137.33 72.78 138.223 73.1 138.823 73.74C139.436 74.3667 139.743 75.36 139.743 76.72V83H138.123V76.82C138.123 75.8733 137.93 75.1867 137.543 74.76C137.17 74.32 136.583 74.1 135.783 74.1C134.85 74.1 134.11 74.3867 133.563 74.96C133.016 75.5333 132.743 76.3 132.743 77.26V83H131.123ZM143.362 83V74.22H141.402V72.96H143.802L143.362 73.38V71.7C143.362 70.5667 143.648 69.7 144.222 69.1C144.795 68.5 145.615 68.2 146.682 68.2C146.948 68.2 147.222 68.2267 147.502 68.28C147.795 68.32 148.035 68.38 148.222 68.46V69.8C148.062 69.7333 147.862 69.68 147.622 69.64C147.395 69.5867 147.162 69.56 146.922 69.56C146.508 69.56 146.155 69.6467 145.862 69.82C145.568 69.98 145.348 70.2267 145.202 70.56C145.055 70.8933 144.982 71.32 144.982 71.84V73.3L144.722 72.96H147.782V74.22H144.982V83H143.362ZM153.322 83.18C152.429 83.18 151.649 82.9733 150.982 82.56C150.315 82.1333 149.795 81.5333 149.422 80.76C149.062 79.9867 148.882 79.06 148.882 77.98C148.882 76.8867 149.062 75.9533 149.422 75.18C149.795 74.4067 150.315 73.8133 150.982 73.4C151.649 72.9867 152.429 72.78 153.322 72.78C154.229 72.78 155.009 73.0133 155.662 73.48C156.329 73.9333 156.769 74.5533 156.982 75.34H156.742L156.962 72.96H158.522C158.482 73.3467 158.442 73.74 158.402 74.14C158.375 74.5267 158.362 74.9067 158.362 75.28V83H156.742V80.64H156.962C156.749 81.4267 156.309 82.0467 155.642 82.5C154.975 82.9533 154.202 83.18 153.322 83.18ZM153.642 81.86C154.602 81.86 155.362 81.5333 155.922 80.88C156.482 80.2133 156.762 79.2467 156.762 77.98C156.762 76.7 156.482 75.7333 155.922 75.08C155.362 74.4133 154.602 74.08 153.642 74.08C152.695 74.08 151.935 74.4133 151.362 75.08C150.802 75.7333 150.522 76.7 150.522 77.98C150.522 79.2467 150.802 80.2133 151.362 80.88C151.935 81.5333 152.695 81.86 153.642 81.86ZM161.494 83V75.28C161.494 74.9067 161.474 74.5267 161.434 74.14C161.407 73.74 161.374 73.3467 161.334 72.96H162.894L163.094 75.16H162.854C163.121 74.4 163.541 73.8133 164.114 73.4C164.701 72.9867 165.407 72.78 166.234 72.78C167.074 72.78 167.754 72.98 168.274 73.38C168.807 73.78 169.167 74.4 169.354 75.24H169.054C169.307 74.48 169.754 73.88 170.394 73.44C171.034 73 171.781 72.78 172.634 72.78C173.741 72.78 174.574 73.1 175.134 73.74C175.694 74.3667 175.974 75.36 175.974 76.72V83H174.354V76.82C174.354 75.8733 174.187 75.1867 173.854 74.76C173.521 74.32 172.987 74.1 172.254 74.1C171.414 74.1 170.747 74.3933 170.254 74.98C169.774 75.5533 169.534 76.3267 169.534 77.3V83H167.914V76.82C167.914 75.8733 167.747 75.1867 167.414 74.76C167.081 74.32 166.547 74.1 165.814 74.1C164.974 74.1 164.314 74.3933 163.834 74.98C163.354 75.5533 163.114 76.3267 163.114 77.3V83H161.494ZM179.053 83V72.96H180.673V83H179.053ZM178.853 70.68V68.86H180.853V70.68H178.853ZM183.818 83V68.28H185.438V83H183.818ZM188.584 83V72.96H190.204V83H188.584ZM188.384 70.68V68.86H190.384V70.68H188.384ZM197.17 83.18C196.276 83.18 195.496 82.9733 194.83 82.56C194.163 82.1333 193.643 81.5333 193.27 80.76C192.91 79.9867 192.73 79.06 192.73 77.98C192.73 76.8867 192.91 75.9533 193.27 75.18C193.643 74.4067 194.163 73.8133 194.83 73.4C195.496 72.9867 196.276 72.78 197.17 72.78C198.076 72.78 198.856 73.0133 199.51 73.48C200.176 73.9333 200.616 74.5533 200.83 75.34H200.59L200.81 72.96H202.37C202.33 73.3467 202.29 73.74 202.25 74.14C202.223 74.5267 202.21 74.9067 202.21 75.28V83H200.59V80.64H200.81C200.596 81.4267 200.156 82.0467 199.49 82.5C198.823 82.9533 198.05 83.18 197.17 83.18ZM197.49 81.86C198.45 81.86 199.21 81.5333 199.77 80.88C200.33 80.2133 200.61 79.2467 200.61 77.98C200.61 76.7 200.33 75.7333 199.77 75.08C199.21 74.4133 198.45 74.08 197.49 74.08C196.543 74.08 195.783 74.4133 195.21 75.08C194.65 75.7333 194.37 76.7 194.37 77.98C194.37 79.2467 194.65 80.2133 195.21 80.88C195.783 81.5333 196.543 81.86 197.49 81.86ZM205.302 83V75.38C205.302 74.98 205.288 74.5733 205.262 74.16C205.248 73.7467 205.222 73.3467 205.182 72.96H206.742L206.942 75.4L206.662 75.42C206.795 74.82 207.028 74.3267 207.362 73.94C207.695 73.5533 208.088 73.2667 208.542 73.08C208.995 72.88 209.468 72.78 209.962 72.78C210.162 72.78 210.335 72.7867 210.482 72.8C210.642 72.8133 210.788 72.8467 210.922 72.9L210.902 74.34C210.702 74.2733 210.515 74.2333 210.342 74.22C210.182 74.1933 209.995 74.18 209.782 74.18C209.195 74.18 208.682 74.32 208.242 74.6C207.815 74.88 207.488 75.24 207.262 75.68C207.048 76.12 206.942 76.5867 206.942 77.08V83H205.302ZM220.502 83L216.782 72.96H218.502L221.602 81.8H221.082L224.282 72.96H225.682L228.822 81.8H228.322L231.442 72.96H233.082L229.342 83H227.782L224.542 74.02H225.342L222.082 83H220.502ZM235.205 83V72.96H236.825V83H235.205ZM235.005 70.68V68.86H237.005V70.68H235.005ZM243.531 83.18C242.544 83.18 241.791 82.9 241.271 82.34C240.751 81.7667 240.491 80.9067 240.491 79.76V74.22H238.531V72.96H240.491V70.22L242.111 69.76V72.96H244.991V74.22H242.111V79.58C242.111 80.38 242.244 80.9533 242.511 81.3C242.791 81.6333 243.204 81.8 243.751 81.8C244.004 81.8 244.231 81.78 244.431 81.74C244.631 81.6867 244.811 81.6267 244.971 81.56V82.92C244.784 83 244.557 83.06 244.291 83.1C244.037 83.1533 243.784 83.18 243.531 83.18ZM246.963 83V68.28H248.583V75.18H248.323C248.603 74.3933 249.069 73.8 249.723 73.4C250.389 72.9867 251.156 72.78 252.023 72.78C253.223 72.78 254.116 73.1067 254.703 73.76C255.289 74.4 255.583 75.3733 255.583 76.68V83H253.963V76.78C253.963 75.8467 253.776 75.1667 253.403 74.74C253.043 74.3133 252.456 74.1 251.643 74.1C250.709 74.1 249.963 74.3867 249.403 74.96C248.856 75.5333 248.583 76.2867 248.583 77.22V83H246.963ZM263.896 83V72.96H265.516V83H263.896ZM263.696 70.68V68.86H265.696V70.68H263.696ZM272.222 83.18C271.235 83.18 270.482 82.9 269.962 82.34C269.442 81.7667 269.182 80.9067 269.182 79.76V74.22H267.222V72.96H269.182V70.22L270.802 69.76V72.96H273.682V74.22H270.802V79.58C270.802 80.38 270.935 80.9533 271.202 81.3C271.482 81.6333 271.895 81.8 272.442 81.8C272.695 81.8 272.922 81.78 273.122 81.74C273.322 81.6867 273.502 81.6267 273.662 81.56V82.92C273.475 83 273.249 83.06 272.982 83.1C272.729 83.1533 272.475 83.18 272.222 83.18ZM275.608 83V80.96H277.648V83H275.608Z" fill="#030303"/>
<path d="M77.3333 91C77.3333 92.4728 78.5272 93.6667 80 93.6667C81.4728 93.6667 82.6667 92.4728 82.6667 91C82.6667 89.5272 81.4728 88.3333 80 88.3333C78.5272 88.3333 77.3333 89.5272 77.3333 91ZM432.333 103C432.333 104.473 433.527 105.667 435 105.667C436.473 105.667 437.667 104.473 437.667 103C437.667 101.527 436.473 100.333 435 100.333C433.527 100.333 432.333 101.527 432.333 103ZM109.5 103L109.312 103.463L109.402 103.5H109.5V103ZM79.8116 91.4631L80.7335 91.8381L81.1103 90.9119L80.1884 90.5369L79.8116 91.4631ZM82.5772 92.5881L84.421 93.3381L84.7978 92.4119L82.954 91.6619L82.5772 92.5881ZM86.2647 94.0881L88.1085 94.8381L88.4853 93.9119L86.6415 93.1619L86.2647 94.0881ZM89.9522 95.5881L91.796 96.3381L92.1728 95.4119L90.329 94.6619L89.9522 95.5881ZM93.6397 97.0881L95.4835 97.8381L95.8603 96.9119L94.0165 96.1619L93.6397 97.0881ZM97.3272 98.5881L99.171 99.3381L99.5478 98.4119L97.704 97.6619L97.3272 98.5881ZM101.015 100.088L102.858 100.838L103.235 99.9119L101.392 99.1619L101.015 100.088ZM104.702 101.588L106.546 102.338L106.923 101.412L105.079 100.662L104.702 101.588ZM108.39 103.088L109.312 103.463L109.688 102.537L108.767 102.162L108.39 103.088ZM109.5 103.5H110.505V102.5H109.5V103.5ZM112.514 103.5H114.523V102.5H112.514V103.5ZM116.532 103.5H118.542V102.5H116.532V103.5ZM120.551 103.5H122.56V102.5H120.551V103.5ZM124.569 103.5H126.579V102.5H124.569V103.5ZM128.588 103.5H130.597V102.5H128.588V103.5ZM132.606 103.5H134.616V102.5H132.606V103.5ZM136.625 103.5H138.634V102.5H136.625V103.5ZM140.644 103.5H142.653V102.5H140.644V103.5ZM144.662 103.5H146.671V102.5H144.662V103.5ZM148.681 103.5H150.69V102.5H148.681V103.5ZM152.699 103.5H154.708V102.5H152.699V103.5ZM156.718 103.5H158.727V102.5H156.718V103.5ZM160.736 103.5H162.745V102.5H160.736V103.5ZM164.755 103.5H166.764V102.5H164.755V103.5ZM168.773 103.5H170.782V102.5H168.773V103.5ZM172.792 103.5H174.801V102.5H172.792V103.5ZM176.81 103.5H178.819V102.5H176.81V103.5ZM180.829 103.5H182.838V102.5H180.829V103.5ZM184.847 103.5H186.856V102.5H184.847V103.5ZM188.866 103.5H190.875V102.5H188.866V103.5ZM192.884 103.5H194.894V102.5H192.884V103.5ZM196.903 103.5H198.912V102.5H196.903V103.5ZM200.921 103.5H202.931V102.5H200.921V103.5ZM204.94 103.5H206.949V102.5H204.94V103.5ZM208.958 103.5H210.968V102.5H208.958V103.5ZM212.977 103.5H214.986V102.5H212.977V103.5ZM216.995 103.5H219.005V102.5H216.995V103.5ZM221.014 103.5H223.023V102.5H221.014V103.5ZM225.032 103.5H227.042V102.5H225.032V103.5ZM229.051 103.5H231.06V102.5H229.051V103.5ZM233.07 103.5H235.079V102.5H233.07V103.5ZM237.088 103.5H239.097V102.5H237.088V103.5ZM241.107 103.5H243.116V102.5H241.107V103.5ZM245.125 103.5H247.134V102.5H245.125V103.5ZM249.144 103.5H251.153V102.5H249.144V103.5ZM253.162 103.5H255.171V102.5H253.162V103.5ZM257.181 103.5H259.19V102.5H257.181V103.5ZM261.199 103.5H263.208V102.5H261.199V103.5ZM265.218 103.5H267.227V102.5H265.218V103.5ZM269.236 103.5H271.245V102.5H269.236V103.5ZM273.255 103.5H275.264V102.5H273.255V103.5ZM277.273 103.5H279.283V102.5H277.273V103.5ZM281.292 103.5H283.301V102.5H281.292V103.5ZM285.31 103.5H287.32V102.5H285.31V103.5ZM289.329 103.5H291.338V102.5H289.329V103.5ZM293.347 103.5H295.357V102.5H293.347V103.5ZM297.366 103.5H299.375V102.5H297.366V103.5ZM301.384 103.5H303.394V102.5H301.384V103.5ZM305.403 103.5H307.412V102.5H305.403V103.5ZM309.421 103.5H311.431V102.5H309.421V103.5ZM313.44 103.5H315.449V102.5H313.44V103.5ZM317.459 103.5H319.468V102.5H317.459V103.5ZM321.477 103.5H323.486V102.5H321.477V103.5ZM325.496 103.5H327.505V102.5H325.496V103.5ZM329.514 103.5H331.523V102.5H329.514V103.5ZM333.533 103.5H335.542V102.5H333.533V103.5ZM337.551 103.5H339.56V102.5H337.551V103.5ZM341.57 103.5H343.579V102.5H341.57V103.5ZM345.588 103.5H347.597V102.5H345.588V103.5ZM349.607 103.5H351.616V102.5H349.607V103.5ZM353.625 103.5H355.634V102.5H353.625V103.5ZM357.644 103.5H359.653V102.5H357.644V103.5ZM361.662 103.5H363.672V102.5H361.662V103.5ZM365.681 103.5H367.69V102.5H365.681V103.5ZM369.699 103.5H371.709V102.5H369.699V103.5ZM373.718 103.5H375.727V102.5H373.718V103.5ZM377.736 103.5H379.746V102.5H377.736V103.5ZM381.755 103.5H383.764V102.5H381.755V103.5ZM385.773 103.5H387.783V102.5H385.773V103.5ZM389.792 103.5H391.801V102.5H389.792V103.5ZM393.81 103.5H395.819V102.5H393.81V103.5ZM397.829 103.5H399.838V102.5H397.829V103.5ZM401.847 103.5H403.856V102.5H401.847V103.5ZM405.866 103.5H407.875V102.5H405.866V103.5ZM409.884 103.5H411.893V102.5H409.884V103.5ZM413.903 103.5H415.912V102.5H413.903V103.5ZM417.921 103.5H419.93V102.5H417.921V103.5ZM421.94 103.5H423.949V102.5H421.94V103.5ZM425.958 103.5H427.967V102.5H425.958V103.5ZM429.977 103.5H431.986V102.5H429.977V103.5ZM433.995 103.5H435V102.5H433.995V103.5Z" fill="#030303"/>
<circle cx="50" cy="50" r="49.5" stroke="#030303" stroke-dasharray="2 2"/>
<rect x="2" y="2" width="96" height="96" rx="48" fill="#538234"/>
<path d="M39.5 46.5L50 57L78 29" stroke="white" stroke-width="8" stroke-linecap="round" stroke-linejoin="round"/>
<path d="M78 50V71C78 72.8565 77.2625 74.637 75.9497 75.9497C74.637 77.2625 72.8565 78 71 78H29C27.1435 78 25.363 77.2625 24.0503 75.9497C22.7375 74.637 22 72.8565 22 71V29C22 27.1435 22.7375 25.363 24.0503 24.0503C25.363 22.7375 27.1435 22 29 22H60.5" stroke="white" stroke-width="4" stroke-linecap="round" stroke-linejoin="round"/>
</svg>
