<svg width="438" height="106" viewBox="0 0 438 106" fill="none" xmlns="http://www.w3.org/2000/svg">
<path d="M124.36 58.18C123.227 58.18 122.213 58.0333 121.32 57.74C120.427 57.4467 119.647 57.0267 118.98 56.48L119.58 55.16C120.047 55.5067 120.513 55.8 120.98 56.04C121.46 56.2667 121.973 56.44 122.52 56.56C123.067 56.6667 123.68 56.72 124.36 56.72C125.547 56.72 126.427 56.5 127 56.06C127.573 55.62 127.86 55.0333 127.86 54.3C127.86 53.6733 127.66 53.1933 127.26 52.86C126.86 52.5267 126.16 52.26 125.16 52.06L123.06 51.64C121.767 51.3733 120.8 50.94 120.16 50.34C119.533 49.74 119.22 48.9267 119.22 47.9C119.22 47.06 119.433 46.3267 119.86 45.7C120.3 45.0733 120.913 44.5867 121.7 44.24C122.487 43.8933 123.4 43.72 124.44 43.72C125.44 43.72 126.353 43.8733 127.18 44.18C128.007 44.4733 128.713 44.9067 129.3 45.48L128.72 46.76C128.093 46.2 127.433 45.8 126.74 45.56C126.06 45.3067 125.287 45.18 124.42 45.18C123.327 45.18 122.46 45.42 121.82 45.9C121.193 46.3667 120.88 47.0067 120.88 47.82C120.88 48.4733 121.08 48.9867 121.48 49.36C121.88 49.72 122.54 49.9933 123.46 50.18L125.58 50.6C126.94 50.88 127.94 51.3 128.58 51.86C129.22 52.42 129.54 53.2067 129.54 54.22C129.54 54.9933 129.327 55.68 128.9 56.28C128.487 56.88 127.893 57.3467 127.12 57.68C126.347 58.0133 125.427 58.18 124.36 58.18ZM136.501 58.18C134.928 58.18 133.688 57.7267 132.781 56.82C131.874 55.9 131.421 54.6267 131.421 53C131.421 51.9467 131.621 51.0333 132.021 50.26C132.421 49.4733 132.981 48.8667 133.701 48.44C134.421 48 135.248 47.78 136.181 47.78C137.101 47.78 137.874 47.9733 138.501 48.36C139.128 48.7467 139.608 49.3 139.941 50.02C140.274 50.7267 140.441 51.5667 140.441 52.54V53.14H132.661V52.12H139.381L139.041 52.38C139.041 51.3133 138.801 50.48 138.321 49.88C137.841 49.28 137.128 48.98 136.181 48.98C135.181 48.98 134.401 49.3333 133.841 50.04C133.281 50.7333 133.001 51.6733 133.001 52.86V53.04C133.001 54.2933 133.308 55.2467 133.921 55.9C134.548 56.54 135.421 56.86 136.541 56.86C137.141 56.86 137.701 56.7733 138.221 56.6C138.754 56.4133 139.261 56.1133 139.741 55.7L140.301 56.84C139.861 57.2667 139.301 57.6 138.621 57.84C137.954 58.0667 137.248 58.18 136.501 58.18ZM147.14 58.18C146.153 58.18 145.293 57.9667 144.56 57.54C143.84 57.1133 143.28 56.5067 142.88 55.72C142.493 54.9333 142.3 54 142.3 52.92C142.3 51.8267 142.5 50.9 142.9 50.14C143.3 49.3667 143.86 48.78 144.58 48.38C145.313 47.98 146.167 47.78 147.14 47.78C147.78 47.78 148.4 47.8933 149 48.12C149.613 48.3467 150.12 48.6667 150.52 49.08L149.94 50.24C149.54 49.8533 149.1 49.5667 148.62 49.38C148.153 49.1933 147.693 49.1 147.24 49.1C146.2 49.1 145.393 49.4267 144.82 50.08C144.247 50.7333 143.96 51.6867 143.96 52.94C143.96 54.18 144.247 55.14 144.82 55.82C145.393 56.5 146.2 56.84 147.24 56.84C147.68 56.84 148.133 56.7533 148.6 56.58C149.08 56.4067 149.527 56.12 149.94 55.72L150.52 56.86C150.107 57.2867 149.593 57.6133 148.98 57.84C148.367 58.0667 147.753 58.18 147.14 58.18ZM156.362 58.18C155.176 58.18 154.276 57.8533 153.662 57.2C153.062 56.5467 152.762 55.5467 152.762 54.2V47.96H154.382V54.16C154.382 55.08 154.569 55.76 154.942 56.2C155.316 56.6267 155.896 56.84 156.682 56.84C157.562 56.84 158.269 56.5533 158.802 55.98C159.336 55.4067 159.602 54.64 159.602 53.68V47.96H161.222V58H159.642V55.74H159.902C159.622 56.5133 159.169 57.1133 158.542 57.54C157.929 57.9667 157.202 58.18 156.362 58.18ZM164.325 58V50.38C164.325 49.98 164.312 49.5733 164.285 49.16C164.272 48.7467 164.245 48.3467 164.205 47.96H165.765L165.965 50.4L165.685 50.42C165.818 49.82 166.052 49.3267 166.385 48.94C166.718 48.5533 167.112 48.2667 167.565 48.08C168.018 47.88 168.492 47.78 168.985 47.78C169.185 47.78 169.358 47.7867 169.505 47.8C169.665 47.8133 169.812 47.8467 169.945 47.9L169.925 49.34C169.725 49.2733 169.538 49.2333 169.365 49.22C169.205 49.1933 169.018 49.18 168.805 49.18C168.218 49.18 167.705 49.32 167.265 49.6C166.838 49.88 166.512 50.24 166.285 50.68C166.072 51.12 165.965 51.5867 165.965 52.08V58H164.325ZM175.974 58.18C174.4 58.18 173.16 57.7267 172.254 56.82C171.347 55.9 170.894 54.6267 170.894 53C170.894 51.9467 171.094 51.0333 171.494 50.26C171.894 49.4733 172.454 48.8667 173.174 48.44C173.894 48 174.72 47.78 175.654 47.78C176.574 47.78 177.347 47.9733 177.974 48.36C178.6 48.7467 179.08 49.3 179.414 50.02C179.747 50.7267 179.914 51.5667 179.914 52.54V53.14H172.134V52.12H178.854L178.514 52.38C178.514 51.3133 178.274 50.48 177.794 49.88C177.314 49.28 176.6 48.98 175.654 48.98C174.654 48.98 173.874 49.3333 173.314 50.04C172.754 50.7333 172.474 51.6733 172.474 52.86V53.04C172.474 54.2933 172.78 55.2467 173.394 55.9C174.02 56.54 174.894 56.86 176.014 56.86C176.614 56.86 177.174 56.7733 177.694 56.6C178.227 56.4133 178.734 56.1133 179.214 55.7L179.774 56.84C179.334 57.2667 178.774 57.6 178.094 57.84C177.427 58.0667 176.72 58.18 175.974 58.18ZM191.427 58.18C190.534 58.18 189.754 57.9733 189.087 57.56C188.421 57.1333 187.901 56.5333 187.527 55.76C187.167 54.9867 186.987 54.06 186.987 52.98C186.987 51.8867 187.167 50.9533 187.527 50.18C187.901 49.4067 188.421 48.8133 189.087 48.4C189.754 47.9867 190.534 47.78 191.427 47.78C192.334 47.78 193.114 48.0133 193.767 48.48C194.434 48.9333 194.874 49.5533 195.087 50.34H194.847L195.067 47.96H196.627C196.587 48.3467 196.547 48.74 196.507 49.14C196.481 49.5267 196.467 49.9067 196.467 50.28V58H194.847V55.64H195.067C194.854 56.4267 194.414 57.0467 193.747 57.5C193.081 57.9533 192.307 58.18 191.427 58.18ZM191.747 56.86C192.707 56.86 193.467 56.5333 194.027 55.88C194.587 55.2133 194.867 54.2467 194.867 52.98C194.867 51.7 194.587 50.7333 194.027 50.08C193.467 49.4133 192.707 49.08 191.747 49.08C190.801 49.08 190.041 49.4133 189.467 50.08C188.907 50.7333 188.627 51.7 188.627 52.98C188.627 54.2467 188.907 55.2133 189.467 55.88C190.041 56.5333 190.801 56.86 191.747 56.86ZM205.334 58V49.22H203.374V47.96H205.774L205.334 48.38V46.7C205.334 45.5667 205.621 44.7 206.194 44.1C206.768 43.5 207.588 43.2 208.654 43.2C208.921 43.2 209.194 43.2267 209.474 43.28C209.768 43.32 210.008 43.38 210.194 43.46V44.8C210.034 44.7333 209.834 44.68 209.594 44.64C209.368 44.5867 209.134 44.56 208.894 44.56C208.481 44.56 208.128 44.6467 207.834 44.82C207.541 44.98 207.321 45.2267 207.174 45.56C207.028 45.8933 206.954 46.32 206.954 46.84V48.3L206.694 47.96H209.754V49.22H206.954V58H205.334ZM215.295 58.18C214.401 58.18 213.621 57.9733 212.955 57.56C212.288 57.1333 211.768 56.5333 211.395 55.76C211.035 54.9867 210.855 54.06 210.855 52.98C210.855 51.8867 211.035 50.9533 211.395 50.18C211.768 49.4067 212.288 48.8133 212.955 48.4C213.621 47.9867 214.401 47.78 215.295 47.78C216.201 47.78 216.981 48.0133 217.635 48.48C218.301 48.9333 218.741 49.5533 218.955 50.34H218.715L218.935 47.96H220.495C220.455 48.3467 220.415 48.74 220.375 49.14C220.348 49.5267 220.335 49.9067 220.335 50.28V58H218.715V55.64H218.935C218.721 56.4267 218.281 57.0467 217.615 57.5C216.948 57.9533 216.175 58.18 215.295 58.18ZM215.615 56.86C216.575 56.86 217.335 56.5333 217.895 55.88C218.455 55.2133 218.735 54.2467 218.735 52.98C218.735 51.7 218.455 50.7333 217.895 50.08C217.335 49.4133 216.575 49.08 215.615 49.08C214.668 49.08 213.908 49.4133 213.335 50.08C212.775 50.7333 212.495 51.7 212.495 52.98C212.495 54.2467 212.775 55.2133 213.335 55.88C213.908 56.5333 214.668 56.86 215.615 56.86ZM223.467 58V47.96H225.087V58H223.467ZM223.267 45.68V43.86H225.267V45.68H223.267ZM228.192 58V50.38C228.192 49.98 228.179 49.5733 228.152 49.16C228.139 48.7467 228.112 48.3467 228.072 47.96H229.632L229.832 50.4L229.552 50.42C229.686 49.82 229.919 49.3267 230.252 48.94C230.586 48.5533 230.979 48.2667 231.432 48.08C231.886 47.88 232.359 47.78 232.852 47.78C233.052 47.78 233.226 47.7867 233.372 47.8C233.532 47.8133 233.679 47.8467 233.812 47.9L233.792 49.34C233.592 49.2733 233.406 49.2333 233.232 49.22C233.072 49.1933 232.886 49.18 232.672 49.18C232.086 49.18 231.572 49.32 231.132 49.6C230.706 49.88 230.379 50.24 230.152 50.68C229.939 51.12 229.832 51.5867 229.832 52.08V58H228.192ZM240.713 62.32V50.28C240.713 49.9067 240.693 49.5267 240.653 49.14C240.626 48.74 240.593 48.3467 240.553 47.96H242.113L242.333 50.34H242.093C242.306 49.5533 242.739 48.9333 243.393 48.48C244.046 48.0133 244.826 47.78 245.733 47.78C246.639 47.78 247.419 47.9867 248.073 48.4C248.739 48.8133 249.259 49.4067 249.633 50.18C250.006 50.9533 250.193 51.8867 250.193 52.98C250.193 54.06 250.006 54.9867 249.633 55.76C249.273 56.5333 248.759 57.1333 248.093 57.56C247.426 57.9733 246.639 58.18 245.733 58.18C244.839 58.18 244.066 57.9533 243.413 57.5C242.759 57.0467 242.326 56.4267 242.113 55.64H242.333V62.32H240.713ZM245.413 56.86C246.373 56.86 247.133 56.5333 247.693 55.88C248.266 55.2133 248.553 54.2467 248.553 52.98C248.553 51.7 248.266 50.7333 247.693 50.08C247.133 49.4133 246.373 49.08 245.413 49.08C244.466 49.08 243.706 49.4133 243.133 50.08C242.573 50.7333 242.293 51.7 242.293 52.98C242.293 54.2467 242.573 55.2133 243.133 55.88C243.706 56.5333 244.466 56.86 245.413 56.86ZM252.665 58V50.38C252.665 49.98 252.652 49.5733 252.625 49.16C252.612 48.7467 252.585 48.3467 252.545 47.96H254.105L254.305 50.4L254.025 50.42C254.158 49.82 254.392 49.3267 254.725 48.94C255.058 48.5533 255.452 48.2667 255.905 48.08C256.358 47.88 256.832 47.78 257.325 47.78C257.525 47.78 257.698 47.7867 257.845 47.8C258.005 47.8133 258.152 47.8467 258.285 47.9L258.265 49.34C258.065 49.2733 257.878 49.2333 257.705 49.22C257.545 49.1933 257.358 49.18 257.145 49.18C256.558 49.18 256.045 49.32 255.605 49.6C255.178 49.88 254.852 50.24 254.625 50.68C254.412 51.12 254.305 51.5867 254.305 52.08V58H252.665ZM259.971 58V47.96H261.591V58H259.971ZM259.771 45.68V43.86H261.771V45.68H259.771ZM268.956 58.18C267.97 58.18 267.11 57.9667 266.376 57.54C265.656 57.1133 265.096 56.5067 264.696 55.72C264.31 54.9333 264.116 54 264.116 52.92C264.116 51.8267 264.316 50.9 264.716 50.14C265.116 49.3667 265.676 48.78 266.396 48.38C267.13 47.98 267.983 47.78 268.956 47.78C269.596 47.78 270.216 47.8933 270.816 48.12C271.43 48.3467 271.936 48.6667 272.336 49.08L271.756 50.24C271.356 49.8533 270.916 49.5667 270.436 49.38C269.97 49.1933 269.51 49.1 269.056 49.1C268.016 49.1 267.21 49.4267 266.636 50.08C266.063 50.7333 265.776 51.6867 265.776 52.94C265.776 54.18 266.063 55.14 266.636 55.82C267.21 56.5 268.016 56.84 269.056 56.84C269.496 56.84 269.95 56.7533 270.416 56.58C270.896 56.4067 271.343 56.12 271.756 55.72L272.336 56.86C271.923 57.2867 271.41 57.6133 270.796 57.84C270.183 58.0667 269.57 58.18 268.956 58.18ZM278.903 58.18C277.33 58.18 276.09 57.7267 275.183 56.82C274.277 55.9 273.823 54.6267 273.823 53C273.823 51.9467 274.023 51.0333 274.423 50.26C274.823 49.4733 275.383 48.8667 276.103 48.44C276.823 48 277.65 47.78 278.583 47.78C279.503 47.78 280.277 47.9733 280.903 48.36C281.53 48.7467 282.01 49.3 282.343 50.02C282.677 50.7267 282.843 51.5667 282.843 52.54V53.14H275.063V52.12H281.783L281.443 52.38C281.443 51.3133 281.203 50.48 280.723 49.88C280.243 49.28 279.53 48.98 278.583 48.98C277.583 48.98 276.803 49.3333 276.243 50.04C275.683 50.7333 275.403 51.6733 275.403 52.86V53.04C275.403 54.2933 275.71 55.2467 276.323 55.9C276.95 56.54 277.823 56.86 278.943 56.86C279.543 56.86 280.103 56.7733 280.623 56.6C281.157 56.4133 281.663 56.1133 282.143 55.7L282.703 56.84C282.263 57.2667 281.703 57.6 281.023 57.84C280.357 58.0667 279.65 58.18 278.903 58.18ZM291.057 58V49.22H289.097V47.96H291.497L291.057 48.38V46.7C291.057 45.5667 291.344 44.7 291.917 44.1C292.49 43.5 293.31 43.2 294.377 43.2C294.644 43.2 294.917 43.2267 295.197 43.28C295.49 43.32 295.73 43.38 295.917 43.46V44.8C295.757 44.7333 295.557 44.68 295.317 44.64C295.09 44.5867 294.857 44.56 294.617 44.56C294.204 44.56 293.85 44.6467 293.557 44.82C293.264 44.98 293.044 45.2267 292.897 45.56C292.75 45.8933 292.677 46.32 292.677 46.84V48.3L292.417 47.96H295.477V49.22H292.677V58H291.057ZM301.141 58.18C300.181 58.18 299.341 57.9733 298.621 57.56C297.915 57.1333 297.368 56.5333 296.981 55.76C296.595 54.9733 296.401 54.0467 296.401 52.98C296.401 51.9 296.595 50.9733 296.981 50.2C297.368 49.4267 297.915 48.8333 298.621 48.42C299.341 47.9933 300.181 47.78 301.141 47.78C302.115 47.78 302.955 47.9933 303.661 48.42C304.381 48.8333 304.935 49.4267 305.321 50.2C305.721 50.9733 305.921 51.9 305.921 52.98C305.921 54.0467 305.721 54.9733 305.321 55.76C304.935 56.5333 304.381 57.1333 303.661 57.56C302.955 57.9733 302.115 58.18 301.141 58.18ZM301.141 56.86C302.101 56.86 302.861 56.5333 303.421 55.88C303.981 55.2133 304.261 54.2467 304.261 52.98C304.261 51.7 303.975 50.7333 303.401 50.08C302.841 49.4133 302.088 49.08 301.141 49.08C300.195 49.08 299.441 49.4133 298.881 50.08C298.321 50.7333 298.041 51.7 298.041 52.98C298.041 54.2467 298.321 55.2133 298.881 55.88C299.441 56.5333 300.195 56.86 301.141 56.86ZM308.407 58V50.38C308.407 49.98 308.394 49.5733 308.367 49.16C308.354 48.7467 308.327 48.3467 308.287 47.96H309.847L310.047 50.4L309.767 50.42C309.901 49.82 310.134 49.3267 310.467 48.94C310.801 48.5533 311.194 48.2667 311.647 48.08C312.101 47.88 312.574 47.78 313.067 47.78C313.267 47.78 313.441 47.7867 313.587 47.8C313.747 47.8133 313.894 47.8467 314.027 47.9L314.007 49.34C313.807 49.2733 313.621 49.2333 313.447 49.22C313.287 49.1933 313.101 49.18 312.887 49.18C312.301 49.18 311.787 49.32 311.347 49.6C310.921 49.88 310.594 50.24 310.367 50.68C310.154 51.12 310.047 51.5867 310.047 52.08V58H308.407ZM320.528 62.54L320.148 61.2C320.774 61.0533 321.294 60.88 321.708 60.68C322.134 60.4933 322.488 60.24 322.768 59.92C323.048 59.6 323.288 59.2 323.488 58.72L324.008 57.54L323.968 58.22L319.588 47.96H321.348L324.968 56.78H324.448L328.028 47.96H329.728L325.088 58.84C324.821 59.48 324.528 60.0133 324.208 60.44C323.888 60.88 323.541 61.2333 323.168 61.5C322.808 61.78 322.408 62 321.968 62.16C321.528 62.32 321.048 62.4467 320.528 62.54ZM335.536 58.18C334.576 58.18 333.736 57.9733 333.016 57.56C332.309 57.1333 331.763 56.5333 331.376 55.76C330.989 54.9733 330.796 54.0467 330.796 52.98C330.796 51.9 330.989 50.9733 331.376 50.2C331.763 49.4267 332.309 48.8333 333.016 48.42C333.736 47.9933 334.576 47.78 335.536 47.78C336.509 47.78 337.349 47.9933 338.056 48.42C338.776 48.8333 339.329 49.4267 339.716 50.2C340.116 50.9733 340.316 51.9 340.316 52.98C340.316 54.0467 340.116 54.9733 339.716 55.76C339.329 56.5333 338.776 57.1333 338.056 57.56C337.349 57.9733 336.509 58.18 335.536 58.18ZM335.536 56.86C336.496 56.86 337.256 56.5333 337.816 55.88C338.376 55.2133 338.656 54.2467 338.656 52.98C338.656 51.7 338.369 50.7333 337.796 50.08C337.236 49.4133 336.483 49.08 335.536 49.08C334.589 49.08 333.836 49.4133 333.276 50.08C332.716 50.7333 332.436 51.7 332.436 52.98C332.436 54.2467 332.716 55.2133 333.276 55.88C333.836 56.5333 334.589 56.86 335.536 56.86ZM346.382 58.18C345.195 58.18 344.295 57.8533 343.682 57.2C343.082 56.5467 342.782 55.5467 342.782 54.2V47.96H344.402V54.16C344.402 55.08 344.588 55.76 344.962 56.2C345.335 56.6267 345.915 56.84 346.702 56.84C347.582 56.84 348.288 56.5533 348.822 55.98C349.355 55.4067 349.622 54.64 349.622 53.68V47.96H351.242V58H349.662V55.74H349.922C349.642 56.5133 349.188 57.1133 348.562 57.54C347.948 57.9667 347.222 58.18 346.382 58.18ZM354.345 58V50.38C354.345 49.98 354.331 49.5733 354.305 49.16C354.291 48.7467 354.265 48.3467 354.225 47.96H355.785L355.985 50.4L355.705 50.42C355.838 49.82 356.071 49.3267 356.405 48.94C356.738 48.5533 357.131 48.2667 357.585 48.08C358.038 47.88 358.511 47.78 359.005 47.78C359.205 47.78 359.378 47.7867 359.525 47.8C359.685 47.8133 359.831 47.8467 359.965 47.9L359.945 49.34C359.745 49.2733 359.558 49.2333 359.385 49.22C359.225 49.1933 359.038 49.18 358.825 49.18C358.238 49.18 357.725 49.32 357.285 49.6C356.858 49.88 356.531 50.24 356.305 50.68C356.091 51.12 355.985 51.5867 355.985 52.08V58H354.345ZM369.825 58L365.525 47.96H367.285L370.885 56.8H370.345L373.985 47.96H375.665L371.365 58H369.825ZM381.813 58.18C380.24 58.18 379 57.7267 378.093 56.82C377.187 55.9 376.733 54.6267 376.733 53C376.733 51.9467 376.933 51.0333 377.333 50.26C377.733 49.4733 378.293 48.8667 379.013 48.44C379.733 48 380.56 47.78 381.493 47.78C382.413 47.78 383.187 47.9733 383.813 48.36C384.44 48.7467 384.92 49.3 385.253 50.02C385.587 50.7267 385.753 51.5667 385.753 52.54V53.14H377.973V52.12H384.693L384.353 52.38C384.353 51.3133 384.113 50.48 383.633 49.88C383.153 49.28 382.44 48.98 381.493 48.98C380.493 48.98 379.713 49.3333 379.153 50.04C378.593 50.7333 378.313 51.6733 378.313 52.86V53.04C378.313 54.2933 378.62 55.2467 379.233 55.9C379.86 56.54 380.733 56.86 381.853 56.86C382.453 56.86 383.013 56.7733 383.533 56.6C384.067 56.4133 384.573 56.1133 385.053 55.7L385.613 56.84C385.173 57.2667 384.613 57.6 383.933 57.84C383.267 58.0667 382.56 58.18 381.813 58.18ZM388.232 58V43.28H389.852V50.18H389.592C389.872 49.3933 390.339 48.8 390.992 48.4C391.659 47.9867 392.426 47.78 393.292 47.78C394.492 47.78 395.386 48.1067 395.972 48.76C396.559 49.4 396.852 50.3733 396.852 51.68V58H395.232V51.78C395.232 50.8467 395.046 50.1667 394.672 49.74C394.312 49.3133 393.726 49.1 392.912 49.1C391.979 49.1 391.232 49.3867 390.672 49.96C390.126 50.5333 389.852 51.2867 389.852 52.22V58H388.232ZM399.951 58V47.96H401.571V58H399.951ZM399.751 45.68V43.86H401.751V45.68H399.751ZM408.937 58.18C407.95 58.18 407.09 57.9667 406.357 57.54C405.637 57.1133 405.077 56.5067 404.677 55.72C404.29 54.9333 404.097 54 404.097 52.92C404.097 51.8267 404.297 50.9 404.697 50.14C405.097 49.3667 405.657 48.78 406.377 48.38C407.11 47.98 407.963 47.78 408.937 47.78C409.577 47.78 410.197 47.8933 410.797 48.12C411.41 48.3467 411.917 48.6667 412.317 49.08L411.737 50.24C411.337 49.8533 410.897 49.5667 410.417 49.38C409.95 49.1933 409.49 49.1 409.037 49.1C407.997 49.1 407.19 49.4267 406.617 50.08C406.043 50.7333 405.757 51.6867 405.757 52.94C405.757 54.18 406.043 55.14 406.617 55.82C407.19 56.5 407.997 56.84 409.037 56.84C409.477 56.84 409.93 56.7533 410.397 56.58C410.877 56.4067 411.323 56.12 411.737 55.72L412.317 56.86C411.903 57.2867 411.39 57.6133 410.777 57.84C410.163 58.0667 409.55 58.18 408.937 58.18ZM414.619 58V43.28H416.239V58H414.619ZM423.845 58.18C422.271 58.18 421.031 57.7267 420.125 56.82C419.218 55.9 418.765 54.6267 418.765 53C418.765 51.9467 418.965 51.0333 419.365 50.26C419.765 49.4733 420.325 48.8667 421.045 48.44C421.765 48 422.591 47.78 423.525 47.78C424.445 47.78 425.218 47.9733 425.845 48.36C426.471 48.7467 426.951 49.3 427.285 50.02C427.618 50.7267 427.785 51.5667 427.785 52.54V53.14H420.005V52.12H426.725L426.385 52.38C426.385 51.3133 426.145 50.48 425.665 49.88C425.185 49.28 424.471 48.98 423.525 48.98C422.525 48.98 421.745 49.3333 421.185 50.04C420.625 50.7333 420.345 51.6733 420.345 52.86V53.04C420.345 54.2933 420.651 55.2467 421.265 55.9C421.891 56.54 422.765 56.86 423.885 56.86C424.485 56.86 425.045 56.7733 425.565 56.6C426.098 56.4133 426.605 56.1133 427.085 55.7L427.645 56.84C427.205 57.2667 426.645 57.6 425.965 57.84C425.298 58.0667 424.591 58.18 423.845 58.18ZM429.944 58V55.96H431.984V58H429.944Z" fill="#030303"/>
<path d="M77.3333 91C77.3333 92.4728 78.5272 93.6667 80 93.6667C81.4728 93.6667 82.6667 92.4728 82.6667 91C82.6667 89.5272 81.4728 88.3333 80 88.3333C78.5272 88.3333 77.3333 89.5272 77.3333 91ZM432.333 103C432.333 104.473 433.527 105.667 435 105.667C436.473 105.667 437.667 104.473 437.667 103C437.667 101.527 436.473 100.333 435 100.333C433.527 100.333 432.333 101.527 432.333 103ZM109.5 103L109.312 103.463L109.402 103.5H109.5V103ZM79.8116 91.4631L80.7335 91.8381L81.1103 90.9119L80.1884 90.5369L79.8116 91.4631ZM82.5772 92.5881L84.421 93.3381L84.7978 92.4119L82.954 91.6619L82.5772 92.5881ZM86.2647 94.0881L88.1085 94.8381L88.4853 93.9119L86.6415 93.1619L86.2647 94.0881ZM89.9522 95.5881L91.796 96.3381L92.1728 95.4119L90.329 94.6619L89.9522 95.5881ZM93.6397 97.0881L95.4835 97.8381L95.8603 96.9119L94.0165 96.1619L93.6397 97.0881ZM97.3272 98.5881L99.171 99.3381L99.5478 98.4119L97.704 97.6619L97.3272 98.5881ZM101.015 100.088L102.858 100.838L103.235 99.9119L101.392 99.1619L101.015 100.088ZM104.702 101.588L106.546 102.338L106.923 101.412L105.079 100.662L104.702 101.588ZM108.39 103.088L109.312 103.463L109.688 102.537L108.767 102.162L108.39 103.088ZM109.5 103.5H110.505V102.5H109.5V103.5ZM112.514 103.5H114.523V102.5H112.514V103.5ZM116.532 103.5H118.542V102.5H116.532V103.5ZM120.551 103.5H122.56V102.5H120.551V103.5ZM124.569 103.5H126.579V102.5H124.569V103.5ZM128.588 103.5H130.597V102.5H128.588V103.5ZM132.606 103.5H134.616V102.5H132.606V103.5ZM136.625 103.5H138.634V102.5H136.625V103.5ZM140.644 103.5H142.653V102.5H140.644V103.5ZM144.662 103.5H146.671V102.5H144.662V103.5ZM148.681 103.5H150.69V102.5H148.681V103.5ZM152.699 103.5H154.708V102.5H152.699V103.5ZM156.718 103.5H158.727V102.5H156.718V103.5ZM160.736 103.5H162.745V102.5H160.736V103.5ZM164.755 103.5H166.764V102.5H164.755V103.5ZM168.773 103.5H170.782V102.5H168.773V103.5ZM172.792 103.5H174.801V102.5H172.792V103.5ZM176.81 103.5H178.819V102.5H176.81V103.5ZM180.829 103.5H182.838V102.5H180.829V103.5ZM184.847 103.5H186.856V102.5H184.847V103.5ZM188.866 103.5H190.875V102.5H188.866V103.5ZM192.884 103.5H194.894V102.5H192.884V103.5ZM196.903 103.5H198.912V102.5H196.903V103.5ZM200.921 103.5H202.931V102.5H200.921V103.5ZM204.94 103.5H206.949V102.5H204.94V103.5ZM208.958 103.5H210.968V102.5H208.958V103.5ZM212.977 103.5H214.986V102.5H212.977V103.5ZM216.995 103.5H219.005V102.5H216.995V103.5ZM221.014 103.5H223.023V102.5H221.014V103.5ZM225.032 103.5H227.042V102.5H225.032V103.5ZM229.051 103.5H231.06V102.5H229.051V103.5ZM233.07 103.5H235.079V102.5H233.07V103.5ZM237.088 103.5H239.097V102.5H237.088V103.5ZM241.107 103.5H243.116V102.5H241.107V103.5ZM245.125 103.5H247.134V102.5H245.125V103.5ZM249.144 103.5H251.153V102.5H249.144V103.5ZM253.162 103.5H255.171V102.5H253.162V103.5ZM257.181 103.5H259.19V102.5H257.181V103.5ZM261.199 103.5H263.208V102.5H261.199V103.5ZM265.218 103.5H267.227V102.5H265.218V103.5ZM269.236 103.5H271.245V102.5H269.236V103.5ZM273.255 103.5H275.264V102.5H273.255V103.5ZM277.273 103.5H279.283V102.5H277.273V103.5ZM281.292 103.5H283.301V102.5H281.292V103.5ZM285.31 103.5H287.32V102.5H285.31V103.5ZM289.329 103.5H291.338V102.5H289.329V103.5ZM293.347 103.5H295.357V102.5H293.347V103.5ZM297.366 103.5H299.375V102.5H297.366V103.5ZM301.384 103.5H303.394V102.5H301.384V103.5ZM305.403 103.5H307.412V102.5H305.403V103.5ZM309.421 103.5H311.431V102.5H309.421V103.5ZM313.44 103.5H315.449V102.5H313.44V103.5ZM317.459 103.5H319.468V102.5H317.459V103.5ZM321.477 103.5H323.486V102.5H321.477V103.5ZM325.496 103.5H327.505V102.5H325.496V103.5ZM329.514 103.5H331.523V102.5H329.514V103.5ZM333.533 103.5H335.542V102.5H333.533V103.5ZM337.551 103.5H339.56V102.5H337.551V103.5ZM341.57 103.5H343.579V102.5H341.57V103.5ZM345.588 103.5H347.597V102.5H345.588V103.5ZM349.607 103.5H351.616V102.5H349.607V103.5ZM353.625 103.5H355.634V102.5H353.625V103.5ZM357.644 103.5H359.653V102.5H357.644V103.5ZM361.662 103.5H363.672V102.5H361.662V103.5ZM365.681 103.5H367.69V102.5H365.681V103.5ZM369.699 103.5H371.709V102.5H369.699V103.5ZM373.718 103.5H375.727V102.5H373.718V103.5ZM377.736 103.5H379.746V102.5H377.736V103.5ZM381.755 103.5H383.764V102.5H381.755V103.5ZM385.773 103.5H387.783V102.5H385.773V103.5ZM389.792 103.5H391.801V102.5H389.792V103.5ZM393.81 103.5H395.819V102.5H393.81V103.5ZM397.829 103.5H399.838V102.5H397.829V103.5ZM401.847 103.5H403.856V102.5H401.847V103.5ZM405.866 103.5H407.875V102.5H405.866V103.5ZM409.884 103.5H411.893V102.5H409.884V103.5ZM413.903 103.5H415.912V102.5H413.903V103.5ZM417.921 103.5H419.93V102.5H417.921V103.5ZM421.94 103.5H423.949V102.5H421.94V103.5ZM425.958 103.5H427.967V102.5H425.958V103.5ZM429.977 103.5H431.986V102.5H429.977V103.5ZM433.995 103.5H435V102.5H433.995V103.5Z" fill="#030303"/>
<circle cx="50" cy="50" r="49.5" stroke="#030303" stroke-dasharray="2 2"/>
<rect x="2" y="2" width="96" height="96" rx="48" fill="#388D6C"/>
<path d="M39.5 46.5L50 57L78 29" stroke="white" stroke-width="8" stroke-linecap="round" stroke-linejoin="round"/>
<path d="M78 50V71C78 72.8565 77.2625 74.637 75.9497 75.9497C74.637 77.2625 72.8565 78 71 78H29C27.1435 78 25.363 77.2625 24.0503 75.9497C22.7375 74.637 22 72.8565 22 71V29C22 27.1435 22.7375 25.363 24.0503 24.0503C25.363 22.7375 27.1435 22 29 22H60.5" stroke="white" stroke-width="4" stroke-linecap="round" stroke-linejoin="round"/>
</svg>
