<svg width="438" height="106" viewBox="0 0 438 106" fill="none" xmlns="http://www.w3.org/2000/svg">
<path d="M123.18 33V20.3H118.2V18.9H129.8V20.3H124.84V33H123.18ZM130.087 33V25.38C130.087 24.98 130.074 24.5733 130.047 24.16C130.034 23.7467 130.007 23.3467 129.967 22.96H131.527L131.727 25.4L131.447 25.42C131.58 24.82 131.814 24.3267 132.147 23.94C132.48 23.5533 132.874 23.2667 133.327 23.08C133.78 22.88 134.254 22.78 134.747 22.78C134.947 22.78 135.12 22.7867 135.267 22.8C135.427 22.8133 135.574 22.8467 135.707 22.9L135.687 24.34C135.487 24.2733 135.3 24.2333 135.127 24.22C134.967 24.1933 134.78 24.18 134.567 24.18C133.98 24.18 133.467 24.32 133.027 24.6C132.6 24.88 132.274 25.24 132.047 25.68C131.834 26.12 131.727 26.5867 131.727 27.08V33H130.087ZM140.933 33.18C139.746 33.18 138.846 32.8533 138.233 32.2C137.633 31.5467 137.333 30.5467 137.333 29.2V22.96H138.953V29.16C138.953 30.08 139.139 30.76 139.513 31.2C139.886 31.6267 140.466 31.84 141.253 31.84C142.133 31.84 142.839 31.5533 143.373 30.98C143.906 30.4067 144.173 29.64 144.173 28.68V22.96H145.793V33H144.213V30.74H144.473C144.193 31.5133 143.739 32.1133 143.113 32.54C142.499 32.9667 141.773 33.18 140.933 33.18ZM152.275 33.18C151.475 33.18 150.729 33.0733 150.035 32.86C149.342 32.6333 148.769 32.32 148.315 31.92L148.875 30.78C149.369 31.1667 149.902 31.4533 150.475 31.64C151.062 31.8267 151.669 31.92 152.295 31.92C153.095 31.92 153.695 31.78 154.095 31.5C154.509 31.2067 154.715 30.8067 154.715 30.3C154.715 29.9133 154.582 29.6067 154.315 29.38C154.062 29.14 153.642 28.9533 153.055 28.82L151.195 28.44C150.342 28.2533 149.702 27.94 149.275 27.5C148.849 27.0467 148.635 26.4733 148.635 25.78C148.635 25.1933 148.789 24.68 149.095 24.24C149.402 23.7867 149.849 23.4333 150.435 23.18C151.022 22.9133 151.709 22.78 152.495 22.78C153.229 22.78 153.902 22.8933 154.515 23.12C155.142 23.3333 155.662 23.6467 156.075 24.06L155.495 25.18C155.095 24.7933 154.635 24.5067 154.115 24.32C153.609 24.12 153.082 24.02 152.535 24.02C151.749 24.02 151.155 24.18 150.755 24.5C150.369 24.8067 150.175 25.2133 150.175 25.72C150.175 26.1067 150.295 26.4267 150.535 26.68C150.789 26.92 151.175 27.1 151.695 27.22L153.555 27.6C154.462 27.8 155.135 28.1133 155.575 28.54C156.029 28.9533 156.255 29.5133 156.255 30.22C156.255 30.82 156.089 31.3467 155.755 31.8C155.422 32.24 154.955 32.58 154.355 32.82C153.769 33.06 153.075 33.18 152.275 33.18ZM162.32 33.18C161.333 33.18 160.58 32.9 160.06 32.34C159.54 31.7667 159.28 30.9067 159.28 29.76V24.22H157.32V22.96H159.28V20.22L160.9 19.76V22.96H163.78V24.22H160.9V29.58C160.9 30.38 161.033 30.9533 161.3 31.3C161.58 31.6333 161.993 31.8 162.54 31.8C162.793 31.8 163.02 31.78 163.22 31.74C163.42 31.6867 163.6 31.6267 163.76 31.56V32.92C163.573 33 163.346 33.06 163.08 33.1C162.826 33.1533 162.573 33.18 162.32 33.18ZM170.967 33V22.96H172.587V33H170.967ZM170.767 20.68V18.86H172.767V20.68H170.767ZM175.732 33V25.28C175.732 24.9067 175.712 24.5267 175.672 24.14C175.646 23.74 175.612 23.3467 175.572 22.96H177.132L177.332 25.16H177.092C177.386 24.3867 177.852 23.8 178.492 23.4C179.146 22.9867 179.899 22.78 180.752 22.78C181.939 22.78 182.832 23.1 183.432 23.74C184.046 24.3667 184.352 25.36 184.352 26.72V33H182.732V26.82C182.732 25.8733 182.539 25.1867 182.152 24.76C181.779 24.32 181.192 24.1 180.392 24.1C179.459 24.1 178.719 24.3867 178.172 24.96C177.626 25.5333 177.352 26.3 177.352 27.26V33H175.732ZM196.786 33.18C195.826 33.18 194.986 32.9733 194.266 32.56C193.559 32.1333 193.013 31.5333 192.626 30.76C192.239 29.9733 192.046 29.0467 192.046 27.98C192.046 26.9 192.239 25.9733 192.626 25.2C193.013 24.4267 193.559 23.8333 194.266 23.42C194.986 22.9933 195.826 22.78 196.786 22.78C197.759 22.78 198.599 22.9933 199.306 23.42C200.026 23.8333 200.579 24.4267 200.966 25.2C201.366 25.9733 201.566 26.9 201.566 27.98C201.566 29.0467 201.366 29.9733 200.966 30.76C200.579 31.5333 200.026 32.1333 199.306 32.56C198.599 32.9733 197.759 33.18 196.786 33.18ZM196.786 31.86C197.746 31.86 198.506 31.5333 199.066 30.88C199.626 30.2133 199.906 29.2467 199.906 27.98C199.906 26.7 199.619 25.7333 199.046 25.08C198.486 24.4133 197.733 24.08 196.786 24.08C195.839 24.08 195.086 24.4133 194.526 25.08C193.966 25.7333 193.686 26.7 193.686 27.98C193.686 29.2467 193.966 30.2133 194.526 30.88C195.086 31.5333 195.839 31.86 196.786 31.86ZM207.632 33.18C206.445 33.18 205.545 32.8533 204.932 32.2C204.332 31.5467 204.032 30.5467 204.032 29.2V22.96H205.652V29.16C205.652 30.08 205.838 30.76 206.212 31.2C206.585 31.6267 207.165 31.84 207.952 31.84C208.832 31.84 209.538 31.5533 210.072 30.98C210.605 30.4067 210.872 29.64 210.872 28.68V22.96H212.492V33H210.912V30.74H211.172C210.892 31.5133 210.438 32.1133 209.812 32.54C209.198 32.9667 208.472 33.18 207.632 33.18ZM215.595 33V25.38C215.595 24.98 215.581 24.5733 215.555 24.16C215.541 23.7467 215.515 23.3467 215.475 22.96H217.035L217.235 25.4L216.955 25.42C217.088 24.82 217.321 24.3267 217.655 23.94C217.988 23.5533 218.381 23.2667 218.835 23.08C219.288 22.88 219.761 22.78 220.255 22.78C220.455 22.78 220.628 22.7867 220.775 22.8C220.935 22.8133 221.081 22.8467 221.215 22.9L221.195 24.34C220.995 24.2733 220.808 24.2333 220.635 24.22C220.475 24.1933 220.288 24.18 220.075 24.18C219.488 24.18 218.975 24.32 218.535 24.6C218.108 24.88 217.781 25.24 217.555 25.68C217.341 26.12 217.235 26.5867 217.235 27.08V33H215.595ZM232.335 33.18C231.348 33.18 230.488 32.9667 229.755 32.54C229.035 32.1133 228.475 31.5067 228.075 30.72C227.688 29.9333 227.495 29 227.495 27.92C227.495 26.8267 227.695 25.9 228.095 25.14C228.495 24.3667 229.055 23.78 229.775 23.38C230.508 22.98 231.362 22.78 232.335 22.78C232.975 22.78 233.595 22.8933 234.195 23.12C234.808 23.3467 235.315 23.6667 235.715 24.08L235.135 25.24C234.735 24.8533 234.295 24.5667 233.815 24.38C233.348 24.1933 232.888 24.1 232.435 24.1C231.395 24.1 230.588 24.4267 230.015 25.08C229.442 25.7333 229.155 26.6867 229.155 27.94C229.155 29.18 229.442 30.14 230.015 30.82C230.588 31.5 231.395 31.84 232.435 31.84C232.875 31.84 233.328 31.7533 233.795 31.58C234.275 31.4067 234.722 31.12 235.135 30.72L235.715 31.86C235.302 32.2867 234.788 32.6133 234.175 32.84C233.562 33.0667 232.948 33.18 232.335 33.18ZM241.942 33.18C240.982 33.18 240.142 32.9733 239.422 32.56C238.716 32.1333 238.169 31.5333 237.782 30.76C237.396 29.9733 237.202 29.0467 237.202 27.98C237.202 26.9 237.396 25.9733 237.782 25.2C238.169 24.4267 238.716 23.8333 239.422 23.42C240.142 22.9933 240.982 22.78 241.942 22.78C242.916 22.78 243.756 22.9933 244.462 23.42C245.182 23.8333 245.736 24.4267 246.122 25.2C246.522 25.9733 246.722 26.9 246.722 27.98C246.722 29.0467 246.522 29.9733 246.122 30.76C245.736 31.5333 245.182 32.1333 244.462 32.56C243.756 32.9733 242.916 33.18 241.942 33.18ZM241.942 31.86C242.902 31.86 243.662 31.5333 244.222 30.88C244.782 30.2133 245.062 29.2467 245.062 27.98C245.062 26.7 244.776 25.7333 244.202 25.08C243.642 24.4133 242.889 24.08 241.942 24.08C240.996 24.08 240.242 24.4133 239.682 25.08C239.122 25.7333 238.842 26.7 238.842 27.98C238.842 29.2467 239.122 30.2133 239.682 30.88C240.242 31.5333 240.996 31.86 241.942 31.86ZM249.248 33V25.28C249.248 24.9067 249.228 24.5267 249.188 24.14C249.161 23.74 249.128 23.3467 249.088 22.96H250.648L250.848 25.16H250.608C250.875 24.4 251.295 23.8133 251.868 23.4C252.455 22.9867 253.161 22.78 253.988 22.78C254.828 22.78 255.508 22.98 256.028 23.38C256.561 23.78 256.921 24.4 257.108 25.24H256.808C257.061 24.48 257.508 23.88 258.148 23.44C258.788 23 259.535 22.78 260.388 22.78C261.495 22.78 262.328 23.1 262.888 23.74C263.448 24.3667 263.728 25.36 263.728 26.72V33H262.108V26.82C262.108 25.8733 261.941 25.1867 261.608 24.76C261.275 24.32 260.741 24.1 260.008 24.1C259.168 24.1 258.501 24.3933 258.008 24.98C257.528 25.5533 257.288 26.3267 257.288 27.3V33H255.668V26.82C255.668 25.8733 255.501 25.1867 255.168 24.76C254.835 24.32 254.301 24.1 253.568 24.1C252.728 24.1 252.068 24.3933 251.588 24.98C251.108 25.5533 250.868 26.3267 250.868 27.3V33H249.248ZM266.807 33V25.28C266.807 24.9067 266.787 24.5267 266.747 24.14C266.72 23.74 266.687 23.3467 266.647 22.96H268.207L268.407 25.16H268.167C268.433 24.4 268.853 23.8133 269.427 23.4C270.013 22.9867 270.72 22.78 271.547 22.78C272.387 22.78 273.067 22.98 273.587 23.38C274.12 23.78 274.48 24.4 274.667 25.24H274.367C274.62 24.48 275.067 23.88 275.707 23.44C276.347 23 277.093 22.78 277.947 22.78C279.053 22.78 279.887 23.1 280.447 23.74C281.007 24.3667 281.287 25.36 281.287 26.72V33H279.667V26.82C279.667 25.8733 279.5 25.1867 279.167 24.76C278.833 24.32 278.3 24.1 277.567 24.1C276.727 24.1 276.06 24.3933 275.567 24.98C275.087 25.5533 274.847 26.3267 274.847 27.3V33H273.227V26.82C273.227 25.8733 273.06 25.1867 272.727 24.76C272.393 24.32 271.86 24.1 271.127 24.1C270.287 24.1 269.627 24.3933 269.147 24.98C268.667 25.5533 268.427 26.3267 268.427 27.3V33H266.807ZM284.365 33V22.96H285.985V33H284.365ZM284.165 20.68V18.86H286.165V20.68H284.165ZM292.691 33.18C291.704 33.18 290.951 32.9 290.431 32.34C289.911 31.7667 289.651 30.9067 289.651 29.76V24.22H287.691V22.96H289.651V20.22L291.271 19.76V22.96H294.151V24.22H291.271V29.58C291.271 30.38 291.404 30.9533 291.671 31.3C291.951 31.6333 292.364 31.8 292.911 31.8C293.164 31.8 293.391 31.78 293.591 31.74C293.791 31.6867 293.971 31.6267 294.131 31.56V32.92C293.944 33 293.717 33.06 293.451 33.1C293.197 33.1533 292.944 33.18 292.691 33.18ZM296.123 33V25.28C296.123 24.9067 296.103 24.5267 296.063 24.14C296.036 23.74 296.003 23.3467 295.963 22.96H297.523L297.723 25.16H297.483C297.75 24.4 298.17 23.8133 298.743 23.4C299.33 22.9867 300.036 22.78 300.863 22.78C301.703 22.78 302.383 22.98 302.903 23.38C303.436 23.78 303.796 24.4 303.983 25.24H303.683C303.936 24.48 304.383 23.88 305.023 23.44C305.663 23 306.41 22.78 307.263 22.78C308.37 22.78 309.203 23.1 309.763 23.74C310.323 24.3667 310.603 25.36 310.603 26.72V33H308.983V26.82C308.983 25.8733 308.816 25.1867 308.483 24.76C308.15 24.32 307.616 24.1 306.883 24.1C306.043 24.1 305.376 24.3933 304.883 24.98C304.403 25.5533 304.163 26.3267 304.163 27.3V33H302.543V26.82C302.543 25.8733 302.376 25.1867 302.043 24.76C301.71 24.32 301.176 24.1 300.443 24.1C299.603 24.1 298.943 24.3933 298.463 24.98C297.983 25.5533 297.743 26.3267 297.743 27.3V33H296.123ZM318.142 33.18C316.568 33.18 315.328 32.7267 314.422 31.82C313.515 30.9 313.062 29.6267 313.062 28C313.062 26.9467 313.262 26.0333 313.662 25.26C314.062 24.4733 314.622 23.8667 315.342 23.44C316.062 23 316.888 22.78 317.822 22.78C318.742 22.78 319.515 22.9733 320.142 23.36C320.768 23.7467 321.248 24.3 321.582 25.02C321.915 25.7267 322.082 26.5667 322.082 27.54V28.14H314.302V27.12H321.022L320.682 27.38C320.682 26.3133 320.442 25.48 319.962 24.88C319.482 24.28 318.768 23.98 317.822 23.98C316.822 23.98 316.042 24.3333 315.482 25.04C314.922 25.7333 314.642 26.6733 314.642 27.86V28.04C314.642 29.2933 314.948 30.2467 315.562 30.9C316.188 31.54 317.062 31.86 318.182 31.86C318.782 31.86 319.342 31.7733 319.862 31.6C320.395 31.4133 320.902 31.1133 321.382 30.7L321.942 31.84C321.502 32.2667 320.942 32.6 320.262 32.84C319.595 33.0667 318.888 33.18 318.142 33.18ZM324.56 33V25.28C324.56 24.9067 324.54 24.5267 324.5 24.14C324.474 23.74 324.44 23.3467 324.4 22.96H325.96L326.16 25.16H325.92C326.214 24.3867 326.68 23.8 327.32 23.4C327.974 22.9867 328.727 22.78 329.58 22.78C330.767 22.78 331.66 23.1 332.26 23.74C332.874 24.3667 333.18 25.36 333.18 26.72V33H331.56V26.82C331.56 25.8733 331.367 25.1867 330.98 24.76C330.607 24.32 330.02 24.1 329.22 24.1C328.287 24.1 327.547 24.3867 327 24.96C326.454 25.5333 326.18 26.3 326.18 27.26V33H324.56ZM339.839 33.18C338.853 33.18 338.099 32.9 337.579 32.34C337.059 31.7667 336.799 30.9067 336.799 29.76V24.22H334.839V22.96H336.799V20.22L338.419 19.76V22.96H341.299V24.22H338.419V29.58C338.419 30.38 338.553 30.9533 338.819 31.3C339.099 31.6333 339.513 31.8 340.059 31.8C340.313 31.8 340.539 31.78 340.739 31.74C340.939 31.6867 341.119 31.6267 341.279 31.56V32.92C341.093 33 340.866 33.06 340.599 33.1C340.346 33.1533 340.093 33.18 339.839 33.18ZM352.046 33.18C351.06 33.18 350.306 32.9 349.786 32.34C349.266 31.7667 349.006 30.9067 349.006 29.76V24.22H347.046V22.96H349.006V20.22L350.626 19.76V22.96H353.506V24.22H350.626V29.58C350.626 30.38 350.76 30.9533 351.026 31.3C351.306 31.6333 351.72 31.8 352.266 31.8C352.52 31.8 352.746 31.78 352.946 31.74C353.146 31.6867 353.326 31.6267 353.486 31.56V32.92C353.3 33 353.073 33.06 352.806 33.1C352.553 33.1533 352.3 33.18 352.046 33.18ZM359.501 33.18C358.541 33.18 357.701 32.9733 356.981 32.56C356.274 32.1333 355.727 31.5333 355.341 30.76C354.954 29.9733 354.761 29.0467 354.761 27.98C354.761 26.9 354.954 25.9733 355.341 25.2C355.727 24.4267 356.274 23.8333 356.981 23.42C357.701 22.9933 358.541 22.78 359.501 22.78C360.474 22.78 361.314 22.9933 362.021 23.42C362.741 23.8333 363.294 24.4267 363.681 25.2C364.081 25.9733 364.281 26.9 364.281 27.98C364.281 29.0467 364.081 29.9733 363.681 30.76C363.294 31.5333 362.741 32.1333 362.021 32.56C361.314 32.9733 360.474 33.18 359.501 33.18ZM359.501 31.86C360.461 31.86 361.221 31.5333 361.781 30.88C362.341 30.2133 362.621 29.2467 362.621 27.98C362.621 26.7 362.334 25.7333 361.761 25.08C361.201 24.4133 360.447 24.08 359.501 24.08C358.554 24.08 357.801 24.4133 357.241 25.08C356.681 25.7333 356.401 26.7 356.401 27.98C356.401 29.2467 356.681 30.2133 357.241 30.88C357.801 31.5333 358.554 31.86 359.501 31.86ZM124.04 58.18C122.467 58.18 121.227 57.7267 120.32 56.82C119.413 55.9 118.96 54.6267 118.96 53C118.96 51.9467 119.16 51.0333 119.56 50.26C119.96 49.4733 120.52 48.8667 121.24 48.44C121.96 48 122.787 47.78 123.72 47.78C124.64 47.78 125.413 47.9733 126.04 48.36C126.667 48.7467 127.147 49.3 127.48 50.02C127.813 50.7267 127.98 51.5667 127.98 52.54V53.14H120.2V52.12H126.92L126.58 52.38C126.58 51.3133 126.34 50.48 125.86 49.88C125.38 49.28 124.667 48.98 123.72 48.98C122.72 48.98 121.94 49.3333 121.38 50.04C120.82 50.7333 120.54 51.6733 120.54 52.86V53.04C120.54 54.2933 120.847 55.2467 121.46 55.9C122.087 56.54 122.96 56.86 124.08 56.86C124.68 56.86 125.24 56.7733 125.76 56.6C126.293 56.4133 126.8 56.1133 127.28 55.7L127.84 56.84C127.4 57.2667 126.84 57.6 126.16 57.84C125.493 58.0667 124.787 58.18 124.04 58.18ZM130.459 58V50.28C130.459 49.9067 130.439 49.5267 130.399 49.14C130.372 48.74 130.339 48.3467 130.299 47.96H131.859L132.059 50.16H131.819C132.112 49.3867 132.579 48.8 133.219 48.4C133.872 47.9867 134.626 47.78 135.479 47.78C136.666 47.78 137.559 48.1 138.159 48.74C138.772 49.3667 139.079 50.36 139.079 51.72V58H137.459V51.82C137.459 50.8733 137.266 50.1867 136.879 49.76C136.506 49.32 135.919 49.1 135.119 49.1C134.186 49.1 133.446 49.3867 132.899 49.96C132.352 50.5333 132.079 51.3 132.079 52.26V58H130.459ZM145.518 58.18C144.718 58.18 143.971 58.0733 143.278 57.86C142.584 57.6333 142.011 57.32 141.558 56.92L142.118 55.78C142.611 56.1667 143.144 56.4533 143.718 56.64C144.304 56.8267 144.911 56.92 145.538 56.92C146.338 56.92 146.938 56.78 147.338 56.5C147.751 56.2067 147.958 55.8067 147.958 55.3C147.958 54.9133 147.824 54.6067 147.558 54.38C147.304 54.14 146.884 53.9533 146.298 53.82L144.438 53.44C143.584 53.2533 142.944 52.94 142.518 52.5C142.091 52.0467 141.878 51.4733 141.878 50.78C141.878 50.1933 142.031 49.68 142.338 49.24C142.644 48.7867 143.091 48.4333 143.678 48.18C144.264 47.9133 144.951 47.78 145.738 47.78C146.471 47.78 147.144 47.8933 147.758 48.12C148.384 48.3333 148.904 48.6467 149.318 49.06L148.738 50.18C148.338 49.7933 147.878 49.5067 147.358 49.32C146.851 49.12 146.324 49.02 145.778 49.02C144.991 49.02 144.398 49.18 143.998 49.5C143.611 49.8067 143.418 50.2133 143.418 50.72C143.418 51.1067 143.538 51.4267 143.778 51.68C144.031 51.92 144.418 52.1 144.938 52.22L146.798 52.6C147.704 52.8 148.378 53.1133 148.818 53.54C149.271 53.9533 149.498 54.5133 149.498 55.22C149.498 55.82 149.331 56.3467 148.998 56.8C148.664 57.24 148.198 57.58 147.598 57.82C147.011 58.06 146.318 58.18 145.518 58.18ZM155.64 58.18C154.453 58.18 153.553 57.8533 152.94 57.2C152.34 56.5467 152.04 55.5467 152.04 54.2V47.96H153.66V54.16C153.66 55.08 153.846 55.76 154.22 56.2C154.593 56.6267 155.173 56.84 155.96 56.84C156.84 56.84 157.546 56.5533 158.08 55.98C158.613 55.4067 158.88 54.64 158.88 53.68V47.96H160.5V58H158.92V55.74H159.18C158.9 56.5133 158.446 57.1133 157.82 57.54C157.206 57.9667 156.48 58.18 155.64 58.18ZM163.603 58V50.38C163.603 49.98 163.589 49.5733 163.563 49.16C163.549 48.7467 163.523 48.3467 163.483 47.96H165.043L165.243 50.4L164.963 50.42C165.096 49.82 165.329 49.3267 165.663 48.94C165.996 48.5533 166.389 48.2667 166.843 48.08C167.296 47.88 167.769 47.78 168.263 47.78C168.463 47.78 168.636 47.7867 168.783 47.8C168.943 47.8133 169.089 47.8467 169.223 47.9L169.203 49.34C169.003 49.2733 168.816 49.2333 168.643 49.22C168.483 49.1933 168.296 49.18 168.083 49.18C167.496 49.18 166.983 49.32 166.543 49.6C166.116 49.88 165.789 50.24 165.563 50.68C165.349 51.12 165.243 51.5867 165.243 52.08V58H163.603ZM170.908 58V47.96H172.528V58H170.908ZM170.708 45.68V43.86H172.708V45.68H170.708ZM175.674 58V50.28C175.674 49.9067 175.654 49.5267 175.614 49.14C175.587 48.74 175.554 48.3467 175.514 47.96H177.074L177.274 50.16H177.034C177.327 49.3867 177.794 48.8 178.434 48.4C179.087 47.9867 179.84 47.78 180.694 47.78C181.88 47.78 182.774 48.1 183.374 48.74C183.987 49.3667 184.294 50.36 184.294 51.72V58H182.674V51.82C182.674 50.8733 182.48 50.1867 182.094 49.76C181.72 49.32 181.134 49.1 180.334 49.1C179.4 49.1 178.66 49.3867 178.114 49.96C177.567 50.5333 177.294 51.3 177.294 52.26V58H175.674ZM191.813 62.46C190.946 62.46 190.146 62.3533 189.413 62.14C188.679 61.9267 188.019 61.6 187.433 61.16L187.913 59.94C188.326 60.2333 188.733 60.4667 189.133 60.64C189.533 60.8133 189.946 60.94 190.373 61.02C190.799 61.1133 191.253 61.16 191.733 61.16C192.719 61.16 193.466 60.9 193.973 60.38C194.479 59.86 194.733 59.12 194.733 58.16V55.22H194.933C194.719 56.0067 194.279 56.6333 193.613 57.1C192.946 57.5533 192.166 57.78 191.273 57.78C190.353 57.78 189.553 57.58 188.873 57.18C188.206 56.7667 187.686 56.1867 187.313 55.44C186.953 54.68 186.773 53.7867 186.773 52.76C186.773 51.7467 186.953 50.8667 187.313 50.12C187.686 49.3733 188.206 48.8 188.873 48.4C189.553 47.9867 190.353 47.78 191.273 47.78C192.179 47.78 192.959 48.0067 193.613 48.46C194.279 48.9133 194.719 49.54 194.933 50.34L194.733 50.14L194.913 47.96H196.493C196.439 48.3467 196.399 48.74 196.372 49.14C196.346 49.5267 196.333 49.9067 196.333 50.28V57.94C196.333 59.4333 195.946 60.56 195.173 61.32C194.413 62.08 193.293 62.46 191.813 62.46ZM191.573 56.46C192.546 56.46 193.313 56.14 193.873 55.5C194.433 54.8467 194.713 53.9333 194.713 52.76C194.713 51.5867 194.433 50.68 193.873 50.04C193.313 49.4 192.546 49.08 191.573 49.08C190.613 49.08 189.846 49.4 189.273 50.04C188.699 50.68 188.413 51.5867 188.413 52.76C188.413 53.9333 188.699 54.8467 189.273 55.5C189.846 56.14 190.613 56.46 191.573 56.46ZM208.218 58.18C207.231 58.18 206.478 57.9 205.958 57.34C205.438 56.7667 205.178 55.9067 205.178 54.76V49.22H203.218V47.96H205.178V45.22L206.798 44.76V47.96H209.678V49.22H206.798V54.58C206.798 55.38 206.931 55.9533 207.198 56.3C207.478 56.6333 207.891 56.8 208.438 56.8C208.691 56.8 208.918 56.78 209.118 56.74C209.318 56.6867 209.498 56.6267 209.658 56.56V57.92C209.471 58 209.245 58.06 208.978 58.1C208.725 58.1533 208.471 58.18 208.218 58.18ZM211.65 58V43.28H213.27V50.18H213.01C213.29 49.3933 213.757 48.8 214.41 48.4C215.077 47.9867 215.844 47.78 216.71 47.78C217.91 47.78 218.804 48.1067 219.39 48.76C219.977 49.4 220.27 50.3733 220.27 51.68V58H218.65V51.78C218.65 50.8467 218.464 50.1667 218.09 49.74C217.73 49.3133 217.144 49.1 216.33 49.1C215.397 49.1 214.65 49.3867 214.09 49.96C213.544 50.5333 213.27 51.2867 213.27 52.22V58H211.65ZM227.829 58.18C226.256 58.18 225.016 57.7267 224.109 56.82C223.202 55.9 222.749 54.6267 222.749 53C222.749 51.9467 222.949 51.0333 223.349 50.26C223.749 49.4733 224.309 48.8667 225.029 48.44C225.749 48 226.576 47.78 227.509 47.78C228.429 47.78 229.202 47.9733 229.829 48.36C230.456 48.7467 230.936 49.3 231.269 50.02C231.602 50.7267 231.769 51.5667 231.769 52.54V53.14H223.989V52.12H230.709L230.369 52.38C230.369 51.3133 230.129 50.48 229.649 49.88C229.169 49.28 228.456 48.98 227.509 48.98C226.509 48.98 225.729 49.3333 225.169 50.04C224.609 50.7333 224.329 51.6733 224.329 52.86V53.04C224.329 54.2933 224.636 55.2467 225.249 55.9C225.876 56.54 226.749 56.86 227.869 56.86C228.469 56.86 229.029 56.7733 229.549 56.6C230.082 56.4133 230.589 56.1133 231.069 55.7L231.629 56.84C231.189 57.2667 230.629 57.6 229.949 57.84C229.282 58.0667 228.576 58.18 227.829 58.18ZM242.803 58.18C242.003 58.18 241.256 58.0733 240.563 57.86C239.869 57.6333 239.296 57.32 238.843 56.92L239.403 55.78C239.896 56.1667 240.429 56.4533 241.003 56.64C241.589 56.8267 242.196 56.92 242.823 56.92C243.623 56.92 244.223 56.78 244.623 56.5C245.036 56.2067 245.243 55.8067 245.243 55.3C245.243 54.9133 245.109 54.6067 244.843 54.38C244.589 54.14 244.169 53.9533 243.583 53.82L241.723 53.44C240.869 53.2533 240.229 52.94 239.803 52.5C239.376 52.0467 239.163 51.4733 239.163 50.78C239.163 50.1933 239.316 49.68 239.623 49.24C239.929 48.7867 240.376 48.4333 240.963 48.18C241.549 47.9133 242.236 47.78 243.023 47.78C243.756 47.78 244.429 47.8933 245.043 48.12C245.669 48.3333 246.189 48.6467 246.603 49.06L246.023 50.18C245.623 49.7933 245.163 49.5067 244.643 49.32C244.136 49.12 243.609 49.02 243.063 49.02C242.276 49.02 241.683 49.18 241.283 49.5C240.896 49.8067 240.703 50.2133 240.703 50.72C240.703 51.1067 240.823 51.4267 241.063 51.68C241.316 51.92 241.703 52.1 242.223 52.22L244.083 52.6C244.989 52.8 245.663 53.1133 246.103 53.54C246.556 53.9533 246.783 54.5133 246.783 55.22C246.783 55.82 246.616 56.3467 246.283 56.8C245.949 57.24 245.483 57.58 244.883 57.82C244.296 58.06 243.603 58.18 242.803 58.18ZM252.925 58.18C251.738 58.18 250.838 57.8533 250.225 57.2C249.625 56.5467 249.325 55.5467 249.325 54.2V47.96H250.945V54.16C250.945 55.08 251.131 55.76 251.505 56.2C251.878 56.6267 252.458 56.84 253.245 56.84C254.125 56.84 254.831 56.5533 255.365 55.98C255.898 55.4067 256.165 54.64 256.165 53.68V47.96H257.785V58H256.205V55.74H256.465C256.185 56.5133 255.731 57.1133 255.105 57.54C254.491 57.9667 253.765 58.18 252.925 58.18ZM265.148 58.18C264.161 58.18 263.301 57.9667 262.568 57.54C261.848 57.1133 261.288 56.5067 260.888 55.72C260.501 54.9333 260.308 54 260.308 52.92C260.308 51.8267 260.508 50.9 260.908 50.14C261.308 49.3667 261.868 48.78 262.588 48.38C263.321 47.98 264.174 47.78 265.148 47.78C265.788 47.78 266.408 47.8933 267.008 48.12C267.621 48.3467 268.128 48.6667 268.528 49.08L267.948 50.24C267.548 49.8533 267.108 49.5667 266.628 49.38C266.161 49.1933 265.701 49.1 265.248 49.1C264.208 49.1 263.401 49.4267 262.828 50.08C262.254 50.7333 261.968 51.6867 261.968 52.94C261.968 54.18 262.254 55.14 262.828 55.82C263.401 56.5 264.208 56.84 265.248 56.84C265.688 56.84 266.141 56.7533 266.608 56.58C267.088 56.4067 267.534 56.12 267.948 55.72L268.528 56.86C268.114 57.2867 267.601 57.6133 266.988 57.84C266.374 58.0667 265.761 58.18 265.148 58.18ZM274.855 58.18C273.868 58.18 273.008 57.9667 272.275 57.54C271.555 57.1133 270.995 56.5067 270.595 55.72C270.208 54.9333 270.015 54 270.015 52.92C270.015 51.8267 270.215 50.9 270.615 50.14C271.015 49.3667 271.575 48.78 272.295 48.38C273.028 47.98 273.881 47.78 274.855 47.78C275.495 47.78 276.115 47.8933 276.715 48.12C277.328 48.3467 277.835 48.6667 278.235 49.08L277.655 50.24C277.255 49.8533 276.815 49.5667 276.335 49.38C275.868 49.1933 275.408 49.1 274.955 49.1C273.915 49.1 273.108 49.4267 272.535 50.08C271.961 50.7333 271.675 51.6867 271.675 52.94C271.675 54.18 271.961 55.14 272.535 55.82C273.108 56.5 273.915 56.84 274.955 56.84C275.395 56.84 275.848 56.7533 276.315 56.58C276.795 56.4067 277.241 56.12 277.655 55.72L278.235 56.86C277.821 57.2867 277.308 57.6133 276.695 57.84C276.081 58.0667 275.468 58.18 274.855 58.18ZM284.802 58.18C283.228 58.18 281.988 57.7267 281.082 56.82C280.175 55.9 279.722 54.6267 279.722 53C279.722 51.9467 279.922 51.0333 280.322 50.26C280.722 49.4733 281.282 48.8667 282.002 48.44C282.722 48 283.548 47.78 284.482 47.78C285.402 47.78 286.175 47.9733 286.802 48.36C287.428 48.7467 287.908 49.3 288.242 50.02C288.575 50.7267 288.742 51.5667 288.742 52.54V53.14H280.962V52.12H287.682L287.342 52.38C287.342 51.3133 287.102 50.48 286.622 49.88C286.142 49.28 285.428 48.98 284.482 48.98C283.482 48.98 282.702 49.3333 282.142 50.04C281.582 50.7333 281.302 51.6733 281.302 52.86V53.04C281.302 54.2933 281.608 55.2467 282.222 55.9C282.848 56.54 283.722 56.86 284.842 56.86C285.442 56.86 286.002 56.7733 286.522 56.6C287.055 56.4133 287.562 56.1133 288.042 55.7L288.602 56.84C288.162 57.2667 287.602 57.6 286.922 57.84C286.255 58.0667 285.548 58.18 284.802 58.18ZM294.561 58.18C293.761 58.18 293.014 58.0733 292.321 57.86C291.627 57.6333 291.054 57.32 290.601 56.92L291.161 55.78C291.654 56.1667 292.187 56.4533 292.761 56.64C293.347 56.8267 293.954 56.92 294.581 56.92C295.381 56.92 295.981 56.78 296.381 56.5C296.794 56.2067 297.001 55.8067 297.001 55.3C297.001 54.9133 296.867 54.6067 296.601 54.38C296.347 54.14 295.927 53.9533 295.341 53.82L293.481 53.44C292.627 53.2533 291.987 52.94 291.561 52.5C291.134 52.0467 290.921 51.4733 290.921 50.78C290.921 50.1933 291.074 49.68 291.381 49.24C291.687 48.7867 292.134 48.4333 292.721 48.18C293.307 47.9133 293.994 47.78 294.781 47.78C295.514 47.78 296.187 47.8933 296.801 48.12C297.427 48.3333 297.947 48.6467 298.361 49.06L297.781 50.18C297.381 49.7933 296.921 49.5067 296.401 49.32C295.894 49.12 295.367 49.02 294.821 49.02C294.034 49.02 293.441 49.18 293.041 49.5C292.654 49.8067 292.461 50.2133 292.461 50.72C292.461 51.1067 292.581 51.4267 292.821 51.68C293.074 51.92 293.461 52.1 293.981 52.22L295.841 52.6C296.747 52.8 297.421 53.1133 297.861 53.54C298.314 53.9533 298.541 54.5133 298.541 55.22C298.541 55.82 298.374 56.3467 298.041 56.8C297.707 57.24 297.241 57.58 296.641 57.82C296.054 58.06 295.361 58.18 294.561 58.18ZM304.483 58.18C303.683 58.18 302.936 58.0733 302.243 57.86C301.549 57.6333 300.976 57.32 300.523 56.92L301.083 55.78C301.576 56.1667 302.109 56.4533 302.683 56.64C303.269 56.8267 303.876 56.92 304.503 56.92C305.303 56.92 305.903 56.78 306.303 56.5C306.716 56.2067 306.923 55.8067 306.923 55.3C306.923 54.9133 306.789 54.6067 306.523 54.38C306.269 54.14 305.849 53.9533 305.263 53.82L303.403 53.44C302.549 53.2533 301.909 52.94 301.483 52.5C301.056 52.0467 300.843 51.4733 300.843 50.78C300.843 50.1933 300.996 49.68 301.303 49.24C301.609 48.7867 302.056 48.4333 302.643 48.18C303.229 47.9133 303.916 47.78 304.702 47.78C305.436 47.78 306.109 47.8933 306.723 48.12C307.349 48.3333 307.869 48.6467 308.283 49.06L307.703 50.18C307.303 49.7933 306.843 49.5067 306.323 49.32C305.816 49.12 305.289 49.02 304.743 49.02C303.956 49.02 303.363 49.18 302.963 49.5C302.576 49.8067 302.383 50.2133 302.383 50.72C302.383 51.1067 302.503 51.4267 302.743 51.68C302.996 51.92 303.383 52.1 303.903 52.22L305.763 52.6C306.669 52.8 307.343 53.1133 307.783 53.54C308.236 53.9533 308.463 54.5133 308.463 55.22C308.463 55.82 308.296 56.3467 307.963 56.8C307.629 57.24 307.163 57.58 306.563 57.82C305.976 58.06 305.283 58.18 304.483 58.18ZM311.584 58V49.22H309.624V47.96H312.024L311.584 48.38V46.7C311.584 45.5667 311.871 44.7 312.444 44.1C313.018 43.5 313.838 43.2 314.904 43.2C315.171 43.2 315.444 43.2267 315.724 43.28C316.018 43.32 316.258 43.38 316.444 43.46V44.8C316.284 44.7333 316.084 44.68 315.844 44.64C315.618 44.5867 315.384 44.56 315.144 44.56C314.731 44.56 314.378 44.6467 314.084 44.82C313.791 44.98 313.571 45.2267 313.424 45.56C313.278 45.8933 313.204 46.32 313.204 46.84V48.3L312.944 47.96H316.004V49.22H313.204V58H311.584ZM321.362 58.18C320.176 58.18 319.276 57.8533 318.662 57.2C318.062 56.5467 317.762 55.5467 317.762 54.2V47.96H319.382V54.16C319.382 55.08 319.569 55.76 319.942 56.2C320.316 56.6267 320.896 56.84 321.682 56.84C322.562 56.84 323.269 56.5533 323.802 55.98C324.336 55.4067 324.602 54.64 324.602 53.68V47.96H326.222V58H324.642V55.74H324.902C324.622 56.5133 324.169 57.1133 323.542 57.54C322.929 57.9667 322.202 58.18 321.362 58.18ZM329.365 58V43.28H330.985V58H329.365ZM122.92 83.18C122.12 83.18 121.373 83.0733 120.68 82.86C119.987 82.6333 119.413 82.32 118.96 81.92L119.52 80.78C120.013 81.1667 120.547 81.4533 121.12 81.64C121.707 81.8267 122.313 81.92 122.94 81.92C123.74 81.92 124.34 81.78 124.74 81.5C125.153 81.2067 125.36 80.8067 125.36 80.3C125.36 79.9133 125.227 79.6067 124.96 79.38C124.707 79.14 124.287 78.9533 123.7 78.82L121.84 78.44C120.987 78.2533 120.347 77.94 119.92 77.5C119.493 77.0467 119.28 76.4733 119.28 75.78C119.28 75.1933 119.433 74.68 119.74 74.24C120.047 73.7867 120.493 73.4333 121.08 73.18C121.667 72.9133 122.353 72.78 123.14 72.78C123.873 72.78 124.547 72.8933 125.16 73.12C125.787 73.3333 126.307 73.6467 126.72 74.06L126.14 75.18C125.74 74.7933 125.28 74.5067 124.76 74.32C124.253 74.12 123.727 74.02 123.18 74.02C122.393 74.02 121.8 74.18 121.4 74.5C121.013 74.8067 120.82 75.2133 120.82 75.72C120.82 76.1067 120.94 76.4267 121.18 76.68C121.433 76.92 121.82 77.1 122.34 77.22L124.2 77.6C125.107 77.8 125.78 78.1133 126.22 78.54C126.673 78.9533 126.9 79.5133 126.9 80.22C126.9 80.82 126.733 81.3467 126.4 81.8C126.067 82.24 125.6 82.58 125 82.82C124.413 83.06 123.72 83.18 122.92 83.18ZM133.322 83.18C132.429 83.18 131.649 82.9733 130.982 82.56C130.315 82.1333 129.795 81.5333 129.422 80.76C129.062 79.9867 128.882 79.06 128.882 77.98C128.882 76.8867 129.062 75.9533 129.422 75.18C129.795 74.4067 130.315 73.8133 130.982 73.4C131.649 72.9867 132.429 72.78 133.322 72.78C134.229 72.78 135.009 73.0133 135.662 73.48C136.329 73.9333 136.769 74.5533 136.982 75.34H136.742L136.962 72.96H138.522C138.482 73.3467 138.442 73.74 138.402 74.14C138.375 74.5267 138.362 74.9067 138.362 75.28V83H136.742V80.64H136.962C136.749 81.4267 136.309 82.0467 135.642 82.5C134.975 82.9533 134.202 83.18 133.322 83.18ZM133.642 81.86C134.602 81.86 135.362 81.5333 135.922 80.88C136.482 80.2133 136.762 79.2467 136.762 77.98C136.762 76.7 136.482 75.7333 135.922 75.08C135.362 74.4133 134.602 74.08 133.642 74.08C132.695 74.08 131.935 74.4133 131.362 75.08C130.802 75.7333 130.522 76.7 130.522 77.98C130.522 79.2467 130.802 80.2133 131.362 80.88C131.935 81.5333 132.695 81.86 133.642 81.86ZM141.494 83V68.28H143.114V83H141.494ZM150.72 83.18C149.146 83.18 147.906 82.7267 147 81.82C146.093 80.9 145.64 79.6267 145.64 78C145.64 76.9467 145.84 76.0333 146.24 75.26C146.64 74.4733 147.2 73.8667 147.92 73.44C148.64 73 149.466 72.78 150.4 72.78C151.32 72.78 152.093 72.9733 152.72 73.36C153.346 73.7467 153.826 74.3 154.16 75.02C154.493 75.7267 154.66 76.5667 154.66 77.54V78.14H146.88V77.12H153.6L153.26 77.38C153.26 76.3133 153.02 75.48 152.54 74.88C152.06 74.28 151.346 73.98 150.4 73.98C149.4 73.98 148.62 74.3333 148.06 75.04C147.5 75.7333 147.22 76.6733 147.22 77.86V78.04C147.22 79.2933 147.526 80.2467 148.14 80.9C148.766 81.54 149.64 81.86 150.76 81.86C151.36 81.86 151.92 81.7733 152.44 81.6C152.973 81.4133 153.48 81.1133 153.96 80.7L154.52 81.84C154.08 82.2667 153.52 82.6 152.84 82.84C152.173 83.0667 151.466 83.18 150.72 83.18ZM166.473 83.18C165.513 83.18 164.673 82.9733 163.953 82.56C163.247 82.1333 162.7 81.5333 162.313 80.76C161.927 79.9733 161.733 79.0467 161.733 77.98C161.733 76.9 161.927 75.9733 162.313 75.2C162.7 74.4267 163.247 73.8333 163.953 73.42C164.673 72.9933 165.513 72.78 166.473 72.78C167.447 72.78 168.287 72.9933 168.993 73.42C169.713 73.8333 170.267 74.4267 170.653 75.2C171.053 75.9733 171.253 76.9 171.253 77.98C171.253 79.0467 171.053 79.9733 170.653 80.76C170.267 81.5333 169.713 82.1333 168.993 82.56C168.287 82.9733 167.447 83.18 166.473 83.18ZM166.473 81.86C167.433 81.86 168.193 81.5333 168.753 80.88C169.313 80.2133 169.593 79.2467 169.593 77.98C169.593 76.7 169.307 75.7333 168.733 75.08C168.173 74.4133 167.42 74.08 166.473 74.08C165.527 74.08 164.773 74.4133 164.213 75.08C163.653 75.7333 163.373 76.7 163.373 77.98C163.373 79.2467 163.653 80.2133 164.213 80.88C164.773 81.5333 165.527 81.86 166.473 81.86ZM174.202 83V74.22H172.242V72.96H174.642L174.202 73.38V71.7C174.202 70.5667 174.488 69.7 175.062 69.1C175.635 68.5 176.455 68.2 177.522 68.2C177.788 68.2 178.062 68.2267 178.342 68.28C178.635 68.32 178.875 68.38 179.062 68.46V69.8C178.902 69.7333 178.702 69.68 178.462 69.64C178.235 69.5867 178.002 69.56 177.762 69.56C177.348 69.56 176.995 69.6467 176.702 69.82C176.408 69.98 176.188 70.2267 176.042 70.56C175.895 70.8933 175.822 71.32 175.822 71.84V73.3L175.562 72.96H178.622V74.22H175.822V83H174.202ZM185.254 87.54L184.874 86.2C185.501 86.0533 186.021 85.88 186.434 85.68C186.861 85.4933 187.214 85.24 187.494 84.92C187.774 84.6 188.014 84.2 188.214 83.72L188.734 82.54L188.694 83.22L184.314 72.96H186.074L189.694 81.78H189.174L192.754 72.96H194.454L189.814 83.84C189.548 84.48 189.254 85.0133 188.934 85.44C188.614 85.88 188.268 86.2333 187.894 86.5C187.534 86.78 187.134 87 186.694 87.16C186.254 87.32 185.774 87.4467 185.254 87.54ZM200.263 83.18C199.303 83.18 198.463 82.9733 197.743 82.56C197.036 82.1333 196.489 81.5333 196.103 80.76C195.716 79.9733 195.523 79.0467 195.523 77.98C195.523 76.9 195.716 75.9733 196.103 75.2C196.489 74.4267 197.036 73.8333 197.743 73.42C198.463 72.9933 199.303 72.78 200.263 72.78C201.236 72.78 202.076 72.9933 202.783 73.42C203.503 73.8333 204.056 74.4267 204.443 75.2C204.843 75.9733 205.043 76.9 205.043 77.98C205.043 79.0467 204.843 79.9733 204.443 80.76C204.056 81.5333 203.503 82.1333 202.783 82.56C202.076 82.9733 201.236 83.18 200.263 83.18ZM200.263 81.86C201.223 81.86 201.983 81.5333 202.543 80.88C203.103 80.2133 203.383 79.2467 203.383 77.98C203.383 76.7 203.096 75.7333 202.523 75.08C201.963 74.4133 201.209 74.08 200.263 74.08C199.316 74.08 198.563 74.4133 198.003 75.08C197.443 75.7333 197.163 76.7 197.163 77.98C197.163 79.2467 197.443 80.2133 198.003 80.88C198.563 81.5333 199.316 81.86 200.263 81.86ZM211.108 83.18C209.922 83.18 209.022 82.8533 208.408 82.2C207.808 81.5467 207.508 80.5467 207.508 79.2V72.96H209.128V79.16C209.128 80.08 209.315 80.76 209.688 81.2C210.062 81.6267 210.642 81.84 211.428 81.84C212.308 81.84 213.015 81.5533 213.548 80.98C214.082 80.4067 214.348 79.64 214.348 78.68V72.96H215.968V83H214.388V80.74H214.648C214.368 81.5133 213.915 82.1133 213.288 82.54C212.675 82.9667 211.948 83.18 211.108 83.18ZM219.071 83V75.38C219.071 74.98 219.058 74.5733 219.031 74.16C219.018 73.7467 218.991 73.3467 218.951 72.96H220.511L220.711 75.4L220.431 75.42C220.565 74.82 220.798 74.3267 221.131 73.94C221.465 73.5533 221.858 73.2667 222.311 73.08C222.765 72.88 223.238 72.78 223.731 72.78C223.931 72.78 224.105 72.7867 224.251 72.8C224.411 72.8133 224.558 72.8467 224.691 72.9L224.671 74.34C224.471 74.2733 224.285 74.2333 224.111 74.22C223.951 74.1933 223.765 74.18 223.551 74.18C222.965 74.18 222.451 74.32 222.011 74.6C221.585 74.88 221.258 75.24 221.031 75.68C220.818 76.12 220.711 76.5867 220.711 77.08V83H219.071ZM235.812 83.18C234.825 83.18 233.965 82.9667 233.232 82.54C232.512 82.1133 231.952 81.5067 231.552 80.72C231.165 79.9333 230.972 79 230.972 77.92C230.972 76.8267 231.172 75.9 231.572 75.14C231.972 74.3667 232.532 73.78 233.252 73.38C233.985 72.98 234.838 72.78 235.812 72.78C236.452 72.78 237.072 72.8933 237.672 73.12C238.285 73.3467 238.792 73.6667 239.192 74.08L238.612 75.24C238.212 74.8533 237.772 74.5667 237.292 74.38C236.825 74.1933 236.365 74.1 235.912 74.1C234.872 74.1 234.065 74.4267 233.492 75.08C232.918 75.7333 232.632 76.6867 232.632 77.94C232.632 79.18 232.918 80.14 233.492 80.82C234.065 81.5 234.872 81.84 235.912 81.84C236.352 81.84 236.805 81.7533 237.272 81.58C237.752 81.4067 238.198 81.12 238.612 80.72L239.192 81.86C238.778 82.2867 238.265 82.6133 237.652 82.84C237.038 83.0667 236.425 83.18 235.812 83.18ZM245.236 83.18C244.343 83.18 243.563 82.9733 242.896 82.56C242.229 82.1333 241.709 81.5333 241.336 80.76C240.976 79.9867 240.796 79.06 240.796 77.98C240.796 76.8867 240.976 75.9533 241.336 75.18C241.709 74.4067 242.229 73.8133 242.896 73.4C243.563 72.9867 244.343 72.78 245.236 72.78C246.143 72.78 246.923 73.0133 247.576 73.48C248.243 73.9333 248.683 74.5533 248.896 75.34H248.656L248.876 72.96H250.436C250.396 73.3467 250.356 73.74 250.316 74.14C250.289 74.5267 250.276 74.9067 250.276 75.28V83H248.656V80.64H248.876C248.663 81.4267 248.223 82.0467 247.556 82.5C246.889 82.9533 246.116 83.18 245.236 83.18ZM245.556 81.86C246.516 81.86 247.276 81.5333 247.836 80.88C248.396 80.2133 248.676 79.2467 248.676 77.98C248.676 76.7 248.396 75.7333 247.836 75.08C247.276 74.4133 246.516 74.08 245.556 74.08C244.609 74.08 243.849 74.4133 243.276 75.08C242.716 75.7333 242.436 76.7 242.436 77.98C242.436 79.2467 242.716 80.2133 243.276 80.88C243.849 81.5333 244.609 81.86 245.556 81.86ZM253.368 83V75.38C253.368 74.98 253.355 74.5733 253.328 74.16C253.315 73.7467 253.288 73.3467 253.248 72.96H254.808L255.008 75.4L254.728 75.42C254.861 74.82 255.095 74.3267 255.428 73.94C255.761 73.5533 256.155 73.2667 256.608 73.08C257.061 72.88 257.535 72.78 258.028 72.78C258.228 72.78 258.401 72.7867 258.548 72.8C258.708 72.8133 258.855 72.8467 258.988 72.9L258.968 74.34C258.768 74.2733 258.581 74.2333 258.408 74.22C258.248 74.1933 258.061 74.18 257.848 74.18C257.261 74.18 256.748 74.32 256.308 74.6C255.881 74.88 255.555 75.24 255.328 75.68C255.115 76.12 255.008 76.5867 255.008 77.08V83H253.368ZM259.944 83V80.96H261.984V83H259.944Z" fill="#030303"/>
<path d="M77.3333 91C77.3333 92.4728 78.5272 93.6667 80 93.6667C81.4728 93.6667 82.6667 92.4728 82.6667 91C82.6667 89.5272 81.4728 88.3333 80 88.3333C78.5272 88.3333 77.3333 89.5272 77.3333 91ZM432.333 103C432.333 104.473 433.527 105.667 435 105.667C436.473 105.667 437.667 104.473 437.667 103C437.667 101.527 436.473 100.333 435 100.333C433.527 100.333 432.333 101.527 432.333 103ZM109.5 103L109.312 103.463L109.402 103.5H109.5V103ZM79.8116 91.4631L80.7335 91.8381L81.1103 90.9119L80.1884 90.5369L79.8116 91.4631ZM82.5772 92.5881L84.421 93.3381L84.7978 92.4119L82.954 91.6619L82.5772 92.5881ZM86.2647 94.0881L88.1085 94.8381L88.4853 93.9119L86.6415 93.1619L86.2647 94.0881ZM89.9522 95.5881L91.796 96.3381L92.1728 95.4119L90.329 94.6619L89.9522 95.5881ZM93.6397 97.0881L95.4835 97.8381L95.8603 96.9119L94.0165 96.1619L93.6397 97.0881ZM97.3272 98.5881L99.171 99.3381L99.5478 98.4119L97.704 97.6619L97.3272 98.5881ZM101.015 100.088L102.858 100.838L103.235 99.9119L101.392 99.1619L101.015 100.088ZM104.702 101.588L106.546 102.338L106.923 101.412L105.079 100.662L104.702 101.588ZM108.39 103.088L109.312 103.463L109.688 102.537L108.767 102.162L108.39 103.088ZM109.5 103.5H110.505V102.5H109.5V103.5ZM112.514 103.5H114.523V102.5H112.514V103.5ZM116.532 103.5H118.542V102.5H116.532V103.5ZM120.551 103.5H122.56V102.5H120.551V103.5ZM124.569 103.5H126.579V102.5H124.569V103.5ZM128.588 103.5H130.597V102.5H128.588V103.5ZM132.606 103.5H134.616V102.5H132.606V103.5ZM136.625 103.5H138.634V102.5H136.625V103.5ZM140.644 103.5H142.653V102.5H140.644V103.5ZM144.662 103.5H146.671V102.5H144.662V103.5ZM148.681 103.5H150.69V102.5H148.681V103.5ZM152.699 103.5H154.708V102.5H152.699V103.5ZM156.718 103.5H158.727V102.5H156.718V103.5ZM160.736 103.5H162.745V102.5H160.736V103.5ZM164.755 103.5H166.764V102.5H164.755V103.5ZM168.773 103.5H170.782V102.5H168.773V103.5ZM172.792 103.5H174.801V102.5H172.792V103.5ZM176.81 103.5H178.819V102.5H176.81V103.5ZM180.829 103.5H182.838V102.5H180.829V103.5ZM184.847 103.5H186.856V102.5H184.847V103.5ZM188.866 103.5H190.875V102.5H188.866V103.5ZM192.884 103.5H194.894V102.5H192.884V103.5ZM196.903 103.5H198.912V102.5H196.903V103.5ZM200.921 103.5H202.931V102.5H200.921V103.5ZM204.94 103.5H206.949V102.5H204.94V103.5ZM208.958 103.5H210.968V102.5H208.958V103.5ZM212.977 103.5H214.986V102.5H212.977V103.5ZM216.995 103.5H219.005V102.5H216.995V103.5ZM221.014 103.5H223.023V102.5H221.014V103.5ZM225.032 103.5H227.042V102.5H225.032V103.5ZM229.051 103.5H231.06V102.5H229.051V103.5ZM233.07 103.5H235.079V102.5H233.07V103.5ZM237.088 103.5H239.097V102.5H237.088V103.5ZM241.107 103.5H243.116V102.5H241.107V103.5ZM245.125 103.5H247.134V102.5H245.125V103.5ZM249.144 103.5H251.153V102.5H249.144V103.5ZM253.162 103.5H255.171V102.5H253.162V103.5ZM257.181 103.5H259.19V102.5H257.181V103.5ZM261.199 103.5H263.208V102.5H261.199V103.5ZM265.218 103.5H267.227V102.5H265.218V103.5ZM269.236 103.5H271.245V102.5H269.236V103.5ZM273.255 103.5H275.264V102.5H273.255V103.5ZM277.273 103.5H279.283V102.5H277.273V103.5ZM281.292 103.5H283.301V102.5H281.292V103.5ZM285.31 103.5H287.32V102.5H285.31V103.5ZM289.329 103.5H291.338V102.5H289.329V103.5ZM293.347 103.5H295.357V102.5H293.347V103.5ZM297.366 103.5H299.375V102.5H297.366V103.5ZM301.384 103.5H303.394V102.5H301.384V103.5ZM305.403 103.5H307.412V102.5H305.403V103.5ZM309.421 103.5H311.431V102.5H309.421V103.5ZM313.44 103.5H315.449V102.5H313.44V103.5ZM317.459 103.5H319.468V102.5H317.459V103.5ZM321.477 103.5H323.486V102.5H321.477V103.5ZM325.496 103.5H327.505V102.5H325.496V103.5ZM329.514 103.5H331.523V102.5H329.514V103.5ZM333.533 103.5H335.542V102.5H333.533V103.5ZM337.551 103.5H339.56V102.5H337.551V103.5ZM341.57 103.5H343.579V102.5H341.57V103.5ZM345.588 103.5H347.597V102.5H345.588V103.5ZM349.607 103.5H351.616V102.5H349.607V103.5ZM353.625 103.5H355.634V102.5H353.625V103.5ZM357.644 103.5H359.653V102.5H357.644V103.5ZM361.662 103.5H363.672V102.5H361.662V103.5ZM365.681 103.5H367.69V102.5H365.681V103.5ZM369.699 103.5H371.709V102.5H369.699V103.5ZM373.718 103.5H375.727V102.5H373.718V103.5ZM377.736 103.5H379.746V102.5H377.736V103.5ZM381.755 103.5H383.764V102.5H381.755V103.5ZM385.773 103.5H387.783V102.5H385.773V103.5ZM389.792 103.5H391.801V102.5H389.792V103.5ZM393.81 103.5H395.819V102.5H393.81V103.5ZM397.829 103.5H399.838V102.5H397.829V103.5ZM401.847 103.5H403.856V102.5H401.847V103.5ZM405.866 103.5H407.875V102.5H405.866V103.5ZM409.884 103.5H411.893V102.5H409.884V103.5ZM413.903 103.5H415.912V102.5H413.903V103.5ZM417.921 103.5H419.93V102.5H417.921V103.5ZM421.94 103.5H423.949V102.5H421.94V103.5ZM425.958 103.5H427.967V102.5H425.958V103.5ZM429.977 103.5H431.986V102.5H429.977V103.5ZM433.995 103.5H435V102.5H433.995V103.5Z" fill="#030303"/>
<circle cx="50" cy="50" r="49.5" stroke="#030303" stroke-dasharray="2 2"/>
<rect x="2" y="2" width="96" height="96" rx="48" fill="#EB3736"/>
<path d="M39.5 46.5L50 57L78 29" stroke="white" stroke-width="8" stroke-linecap="round" stroke-linejoin="round"/>
<path d="M78 50V71C78 72.8565 77.2625 74.637 75.9497 75.9497C74.637 77.2625 72.8565 78 71 78H29C27.1435 78 25.363 77.2625 24.0503 75.9497C22.7375 74.637 22 72.8565 22 71V29C22 27.1435 22.7375 25.363 24.0503 24.0503C25.363 22.7375 27.1435 22 29 22H60.5" stroke="white" stroke-width="4" stroke-linecap="round" stroke-linejoin="round"/>
</svg>
