<svg width="27" height="20" viewBox="0 0 27 20" fill="none" xmlns="http://www.w3.org/2000/svg">
<path d="M0.600689 10C0.600689 10.2652 0.706036 10.5195 0.893562 10.7071C1.08109 10.8946 1.33543 10.9999 1.60063 10.9999H23.5857L16.2923 18.292C16.1994 18.3849 16.1257 18.4952 16.0754 18.6166C16.0251 18.738 15.9993 18.8681 15.9993 18.9995C15.9993 19.1309 16.0251 19.261 16.0754 19.3824C16.1257 19.5038 16.1994 19.6141 16.2923 19.707C16.3852 19.7999 16.4955 19.8736 16.6169 19.9238C16.7383 19.9741 16.8684 20 16.9998 20C17.1312 20 17.2613 19.9741 17.3826 19.9238C17.504 19.8736 17.6143 19.7999 17.7072 19.707L26.7067 10.7075C26.7997 10.6146 26.8735 10.5043 26.9238 10.3829C26.9741 10.2615 27 10.1314 27 10C27 9.86859 26.9741 9.73847 26.9238 9.61708C26.8735 9.49569 26.7997 9.38541 26.7067 9.29254L17.7072 0.29304C17.5196 0.105409 17.2651 -1.97701e-09 16.9998 0C16.7344 1.97701e-09 16.4799 0.105409 16.2923 0.29304C16.1047 0.48067 15.9993 0.735151 15.9993 1.0005C15.9993 1.26585 16.1047 1.52033 16.2923 1.70796L23.5857 9.00005H1.60063C1.33543 9.00005 1.08109 9.10541 0.893562 9.29293C0.706036 9.48046 0.600689 9.7348 0.600689 10Z" fill="white"/>
</svg>
