<svg width="17" height="17" viewBox="0 0 17 17" fill="none" xmlns="http://www.w3.org/2000/svg">
<path fill-rule="evenodd" clip-rule="evenodd" d="M3.4391 1.32465C3.26155 1.43387 3.22656 1.60135 3.22656 2.3424C3.22656 3.13544 3.28151 3.41491 3.48496 3.65689C3.55203 3.73662 4.88097 4.75455 6.4382 5.91893C8.47374 7.44094 9.28263 8.07044 9.31623 8.15863C9.42697 8.44956 9.46241 8.41811 6.67029 10.5057C3.49297 12.8814 3.50353 12.8729 3.36079 13.1584C3.25659 13.3668 3.24791 13.4357 3.23377 14.1652C3.22079 14.8333 3.22965 14.9688 3.2939 15.0883C3.40997 15.3044 3.65906 15.3875 3.86296 15.2784C3.91441 15.2509 5.23696 14.2706 6.80193 13.1C8.3669 11.9294 10.355 10.4435 11.2198 9.7981C12.5864 8.77821 12.7992 8.60357 12.8453 8.46415C12.9675 8.09376 13.1052 8.21546 9.5864 5.58437C7.82343 4.26621 5.81724 2.76563 5.12819 2.24978C4.07008 1.45763 3.84752 1.30908 3.69638 1.29413C3.59794 1.28442 3.48214 1.29816 3.4391 1.32465ZM3.4391 6.38328C3.23717 6.50091 3.22656 6.59662 3.22656 8.30369C3.22656 9.65684 3.23752 9.94012 3.29413 10.0496C3.37704 10.2099 3.48697 10.2724 3.68599 10.2724C3.81378 10.2724 4.01401 10.1403 4.93767 9.44659C6.52702 8.25286 6.52702 8.35282 4.93758 7.15986C3.98202 6.44265 3.81759 6.33513 3.67799 6.3363C3.58966 6.33706 3.48214 6.35818 3.4391 6.38328Z" fill="#303030"/>
</svg>
