<svg xmlns="http://www.w3.org/2000/svg" width="502" height="252" viewBox="0 0 502 252">
  <g id="auto_show_08_Converted_" data-name="auto_show_08 [Converted]" transform="translate(0 0.194)">
    <rect id="Rectangle_149554" data-name="Rectangle 149554" width="502" height="252" transform="translate(0 -0.194)" fill="#fff"/>
    <g id="Group_22210" data-name="Group 22210" transform="translate(25.093 41.135)">
      <g id="Group_22167" data-name="Group 22167" transform="translate(0 110.378)">
        <g id="Group_22166" data-name="Group 22166" transform="translate(0 0)">
          <path id="Path_34648" data-name="Path 34648" d="M446.464,611.892c0,5.481-17.64,10.475-46.59,14.237-9.249,1.2-19.655,2.278-31.006,3.2-8.03.657-16.535,1.237-25.442,1.733q-8.888.493-18.288.876c-18.306.741-37.952,1.142-58.391,1.142-99.255,0-179.717-9.489-179.717-21.195a3,3,0,0,1,.531-1.641V569.5H445.936v40.751A3.007,3.007,0,0,1,446.464,611.892Z" transform="translate(-87.03 -556.814)" fill="#08050c"/>
          <g id="Group_22165" data-name="Group 22165" transform="translate(238.108 12.686)">
            <path id="Path_34649" data-name="Path 34649" d="M1095.546,569.5v56.629c-9.249,1.2-19.655,2.278-31.006,3.2V569.5Z" transform="translate(-1020.81 -569.5)" fill="#1d1726"/>
            <path id="Path_34650" data-name="Path 34650" d="M931.158,569.5v61.565q-8.888.493-18.288.876V569.5Z" transform="translate(-912.87 -569.5)" fill="#1d1726"/>
          </g>
          <ellipse id="Ellipse_2879" data-name="Ellipse 2879" cx="179.717" cy="12.983" rx="179.717" ry="12.983" transform="translate(0.796)" fill="#69676d"/>
        </g>
        <path id="Path_34651" data-name="Path 34651" d="M470.659,554.72c0,3.137-73.5,5.68-164.179,5.68S142.3,557.857,142.3,554.72s73.5-5.68,164.179-5.68S470.659,551.583,470.659,554.72Z" transform="translate(-126.364 -542.253)" fill="#08050c" opacity="0.4"/>
      </g>
      <g id="Group_22209" data-name="Group 22209" transform="translate(23.167)">
        <path id="Path_34652" data-name="Path 34652" d="M596.532,354.4h-17.49c-10.094,0-18.28,14.275-18.282,31.888a54.849,54.849,0,0,0,.4,6.689c1.721,14.053,8.754,24.675,17.253,25.171v.023h18.113c8.782,0,16.117-10.8,17.879-25.2a54.825,54.825,0,0,0,.4-6.689C614.815,368.678,606.629,354.4,596.532,354.4Z" transform="translate(-447.34 -293.354)" fill="#0a090a"/>
        <path id="Path_34653" data-name="Path 34653" d="M1074.719,354.4h-17.49c-10.094,0-18.28,14.275-18.28,31.888a54.849,54.849,0,0,0,.4,6.689c1.721,14.053,8.751,24.672,17.253,25.171v.023h18.113c8.782,0,16.117-10.8,17.882-25.2a55.467,55.467,0,0,0,.4-6.689C1093,368.675,1084.819,354.4,1074.719,354.4Z" transform="translate(-787.657 -293.354)" fill="#0a090a"/>
        <g id="Group_22170" data-name="Group 22170" transform="translate(227.48 29.939)">
          <g id="Group_22168" data-name="Group 22168" transform="translate(0 6.595)">
            <path id="Path_34654" data-name="Path 34654" d="M958.345,271.984l8.837-2.6,1.609,1.839s-5.668,5.005-6.868,6.265C959.558,279.973,953.158,273.855,958.345,271.984Z" transform="translate(-956.367 -269.38)" fill="#f47f00"/>
            <path id="Path_34655" data-name="Path 34655" d="M967.787,272.95s-3.538,3.134-5.216,3.714-4.129-1.384-3.137-2.465l-1.1.323c-5.187,1.868,1.217,7.987,3.578,5.5.983-1.035,4.965-4.581,6.369-5.827Z" transform="translate(-956.361 -271.921)" fill="#f47f00"/>
          </g>
          <g id="Group_22169" data-name="Group 22169" transform="translate(5.074)">
            <path id="Path_34656" data-name="Path 34656" d="M974.851,252.655l1.641-1.987a10.848,10.848,0,0,1,6.087-3.572l5.492-.577a3.8,3.8,0,0,1,3.036,1.525,8.538,8.538,0,0,1,1.816,3.471l.585,2.22a6.18,6.18,0,0,1,.078,3.362,1.9,1.9,0,0,1-2.148,1.5l-15.757-2.237C973.764,256.089,973.392,254.42,974.851,252.655Z" transform="translate(-973.96 -246.508)" fill="#185f87"/>
            <path id="Path_34657" data-name="Path 34657" d="M999.581,256.465l1.26-1.528a8.349,8.349,0,0,1,4.682-2.748l3.327-.349a8.537,8.537,0,0,1,1.816,3.471l.585,2.22a6.18,6.18,0,0,1,.078,3.362l-11.112-1.577C998.748,259.106,998.46,257.823,999.581,256.465Z" transform="translate(-991.707 -250.303)" fill="#185f87" opacity="0.4"/>
          </g>
        </g>
        <path id="Path_34658" data-name="Path 34658" d="M167.609,369.493a2.332,2.332,0,0,0,2.3,2.347h89.544a2.328,2.328,0,0,0,2.3-2.347V330.506a2.33,2.33,0,0,0-2.3-2.347l-85.188-.5c-1.266,0-6.874,20.716-6.874,22.008Z" transform="translate(-167.387 -274.323)" fill="#0a090a"/>
        <path id="Path_34659" data-name="Path 34659" d="M302.257,164.349c-14.3,0-15.215-2.4-23.726.807-13.364,5.034-43.675,28.106-43.675,28.106l-9.976,16.111,101.53-4.2Z" transform="translate(-208.302 -157.485)" fill="#134b6b"/>
        <path id="Path_34660" data-name="Path 34660" d="M512.741,157.444c-5.668-3.907-10.757-6.882-14.252-7.865-16.483-7.563-92.28-11.02-118.486.761a28.3,28.3,0,0,0-3.515,1.865c-6.447,4.083-8.926,8.131-9.025,11.824v.023a9.029,9.029,0,0,0,.291,2.48,11.354,11.354,0,0,0,1.375,3.128,14.855,14.855,0,0,0,.853,1.228,23.566,23.566,0,0,0,5.657,5.089,32.572,32.572,0,0,0,3.67,2.1c-.138,1.018-.234,1.938-.294,2.722-.055.712-.078,1.312-.078,1.773l31.349,1.22h.011l14.021.545,3.656.141,1.854.072,6.271.245h0l111.062,4.316,3.768.147h0l6.268.608S529.74,169.167,512.741,157.444Zm-73,22.08c-.487-3.278,2-7.623,6.28-11.983,1.886,4.726,3.734,9.633,4.466,12.36-.83-.017-1.3-.029-1.3-.029l-9.206-.34C439.893,179.532,439.815,179.53,439.738,179.524Zm12.02.4c-.236-.954-.623-2.209-1.165-3.78-.753-2.188-1.8-4.979-3.12-8.3q-.251-.631-.5-1.254a67.922,67.922,0,0,1,25.862-15.036h23.38c.092,0,.193,0,.3.012,12.718,5.6,30.366,21.575,38.206,29.21-14.229.147-49.052.124-62.191-.306C465.018,180.23,456.071,180.023,451.758,179.927Z" transform="translate(-309.774 -142.671)" fill="#134b6b"/>
        <path id="Path_34661" data-name="Path 34661" d="M525.866,206.356h0c-.017-.017-.04-.037-.066-.061l-.049-.046-.011-.009a.346.346,0,0,1-.035-.032l-.075-.066c-.029-.029-.063-.058-.1-.089h0c-.017-.014-.034-.029-.052-.046s-.035-.032-.055-.049-.038-.035-.058-.052l-.014-.014c-.014-.014-.029-.026-.046-.04-.043-.037-.086-.075-.13-.115-.017-.014-.035-.032-.052-.046-.035-.032-.069-.063-.107-.1-.017-.017-.038-.032-.055-.049l-.115-.1h0c-.04-.037-.081-.072-.121-.11l-.012-.009c-.115-.1-.236-.21-.366-.326l-.1-.086c-1.222-1.081-3.062-2.7-5.345-4.662a.113.113,0,0,0-.029-.023.363.363,0,0,0-.037-.032c-.845-.727-1.75-1.5-2.707-2.315l-.153-.13c-.121-.1-.245-.208-.372-.314-.11-.092-.222-.187-.332-.283-.585-.5-1.191-1.006-1.811-1.528l-.185-.156-.908-.761c-.064-.052-.127-.1-.19-.159l-.219-.182c-.2-.167-.4-.334-.6-.5-.444-.369-.891-.741-1.346-1.116-.112-.1-.228-.187-.34-.283-.285-.236-.574-.473-.862-.709l-.363-.3-.657-.539-.412-.337-1.462-1.188c-.236-.19-.47-.381-.709-.571q-.99-.8-2-1.6c-.239-.19-.476-.378-.718-.568-.032-.023-.061-.049-.092-.072l-.778-.614-.874-.686-.8-.623-.355-.277c-.2-.156-.4-.314-.606-.47l-.8-.614c-.058-.046-.115-.089-.173-.133-.265-.2-.533-.407-.8-.611s-.528-.4-.79-.6l-.882-.666-.386-.291c-.164-.124-.329-.248-.5-.369l-.441-.329c-.294-.219-.585-.435-.879-.652l-.876-.643-.219-.159c-1.292-.943-2.575-1.857-3.838-2.733l-.464-.32c-.156-.107-.309-.213-.461-.317l-.461-.314-.4-.274c-.2-.133-.392-.265-.588-.4-.127-.084-.251-.167-.375-.251l-.45-.3-.2-.136-.2-.135c-.136-.089-.274-.179-.409-.265l-.418-.271c-.11-.072-.219-.141-.329-.21-.156-.1-.311-.2-.464-.294-.395-.251-.79-.5-1.176-.732l-.4-.245c-.13-.078-.259-.156-.386-.234l-.383-.228c-.257-.153-.507-.3-.758-.444-.063-.037-.124-.072-.187-.107-.17-.1-.34-.2-.51-.291l-.415-.234-.182-.1c-.167-.092-.334-.182-.5-.271l-.043-.023-.179-.1-.179-.1-.314-.164c-.072-.037-.141-.075-.213-.11l-.173-.089-.309-.156c-.1-.049-.2-.1-.291-.144s-.2-.1-.294-.144-.2-.1-.291-.138l-.164-.078-.164-.075-.164-.075-.231-.1c-.075-.035-.153-.066-.228-.1l-.026-.012-.159-.069c-.055-.023-.11-.049-.164-.069l-.164-.069-.271-.112c-.11-.046-.222-.089-.329-.13l-.277-.107a.041.041,0,0,0-.02-.006c-.075-.029-.147-.055-.222-.081l-.219-.078-.424-.144c-.089-.029-.179-.058-.268-.084-.046-.014-.092-.029-.138-.04l-.15-.043c-.086-.026-.173-.049-.257-.072s-.19-.049-.285-.072l-.248-.058c-.084-.017-.167-.037-.248-.052l-.185-.035c-.061-.012-.121-.02-.182-.029l-.118-.017c-.159-.023-.311-.04-.461-.052l-.11-.009c-.038,0-.072-.006-.107-.006l-.078,0-.063,0c-.058,0-.118,0-.173,0h-88.72c-.04,0-.081,0-.121,0s-.112,0-.17,0H380.6c-.035,0-.069,0-.1,0l-.167,0c-.037,0-.072,0-.112,0H380.1l-.075,0h-.061c-.04,0-.081,0-.124,0l-.17,0c-.043,0-.087,0-.133,0l-.3.009h-.012l-.337.009h-.029l-.087,0h-.009a.264.264,0,0,0-.049,0h-.046c-.127.006-.257.009-.386.014h-.012l-.147.006-.47.017h-.075l-.081,0-.231.009-.092,0c-.046,0-.092.006-.138.006l-.061,0c-.02,0-.04,0-.063,0l-.061,0-.164.009a.141.141,0,0,0-.035,0l-.159.009-.1.006-.21.012c-.182.009-.366.02-.551.032l-.225.014c-.115.009-.234.014-.352.023l-.1.006c-.069,0-.138.009-.211.014-.023,0-.046,0-.072.006-.1.006-.19.014-.288.02a.393.393,0,0,0-.058.006c-.014,0-.026,0-.04,0h-.037l-.1.009-.121.009-.329.026-.211.017-.156.014c-.138.012-.274.026-.412.037l-.1.009c-.127.012-.254.026-.378.037l-.112.012-.161.017-.236.026-.234.026-.231.026-.689.087-.216.04-.216.043c-.121.023-.245.049-.369.072-.037.006-.072.014-.11.023a.54.54,0,0,0-.066.014l-.326.069c-.061.012-.121.026-.185.04s-.121.026-.185.04l-.069.014c-.147.032-.291.066-.438.1-.291.069-.582.138-.874.213l-.438.112c-.072.017-.144.037-.213.058l-.216.058-.009,0h0c-.043.012-.087.023-.133.037l-.037.009c-.061.014-.121.032-.182.049l-.086.026c-.014,0-.026.009-.04.012l-.395.112h0l-.438.13c-.1.029-.2.061-.3.092l-.17.052-.326.1c-.052.014-.1.032-.153.049-.121.037-.239.078-.36.115s-.265.087-.4.133a.01.01,0,0,0-.009,0l-.029.009h0l-.381.13a.611.611,0,0,0-.066.023l-.407.141a.022.022,0,0,0-.014.006l-.432.156h0l-.409.15-.092.035-.208.078c-.066.023-.13.049-.2.075a.557.557,0,0,1-.063.023c-.11.043-.222.087-.332.127h0l-.02.009c-.138.055-.274.107-.409.161l-.216.087-.216.087h0l-.389.159-.087.035c-.127.052-.254.107-.383.159-.072.032-.144.061-.213.089l-.213.092h0l-.427.185-.115.052-.1.043s-.006,0-.012.006a.663.663,0,0,0-.066.029l-.2.089-.251.112c-.035.014-.069.032-.107.049-.066.032-.136.061-.2.092a.412.412,0,0,1-.052.023.734.734,0,0,0-.069.032s-.006,0-.006,0c-.061.029-.121.055-.179.084-.1.046-.2.1-.306.144-.009.006-.02.009-.029.014-.035.017-.069.032-.107.049-.1.043-.19.089-.283.135a.152.152,0,0,1-.032.014c-.029.012-.055.026-.084.04-.118.058-.236.112-.355.173l-.1.052-.072.035c-.037.017-.075.037-.11.055l-.112.055h0c-.037.017-.072.035-.11.055l-.02.009a.087.087,0,0,0-.023.012l-.156.078c-.038.017-.072.035-.11.055-.138.069-.274.138-.412.21h0c-.138.069-.274.141-.409.213h0c-.138.072-.274.144-.409.216l-.193.1-.216.115c-.372.2-.738.4-1.1.608a.459.459,0,0,1-.052.029l-.052.029-.153.086-.248.138h0a.01.01,0,0,0-.006,0l-.086.052-.046.026a.119.119,0,0,1-.026.014l-.2.112c-.078.046-.156.089-.231.136s-.133.078-.2.115l-.4.234a0,0,0,0,0,0,0l-.389.234-.389.236c-.13.078-.257.159-.386.239h0l-.329.208-.055.035c-.017.012-.035.02-.049.032-.11.069-.219.138-.329.21a0,0,0,0,0,0,0l-.375.242a0,0,0,0,0,0,0l-.372.245a0,0,0,0,0,0,0c-.124.081-.245.164-.369.245a0,0,0,0,0,0,0l-.323.216a.863.863,0,0,0-.084.058l-.19.13c-.017.012-.032.02-.046.032a.47.47,0,0,1-.049.032.413.413,0,0,0-.043.032l-.017.012c-.225.153-.447.309-.666.464-.014.009-.026.02-.04.029l-.061.043c-.089.063-.179.127-.268.193a.672.672,0,0,0-.055.04h0l0,0-.32.231h0l-.176.13-.084.061c-.127.1-.257.187-.381.283-.017.014-.037.026-.055.04-.049.035-.1.069-.141.107l-.19.144-.355.271c-.026.02-.052.037-.078.061l-.035.026-.058.043-.124.1c-.072.055-.141.11-.213.167a.158.158,0,0,0-.023.017l-.133.1-.012.009h0l-.164.13a1.158,1.158,0,0,0-.092.075l-.173.138-.012.009c-.006,0-.009.009-.014.012-.023.02-.046.037-.072.058-.089.072-.179.144-.265.216s-.176.144-.262.216c-.029.023-.058.046-.086.072h0c-.055.043-.11.089-.164.136l-.012.009-.251.21c-.014.014-.032.026-.046.04l-.02.017c-.089.075-.179.15-.265.228l0,0c-.009.006-.014.014-.023.02s-.035.029-.052.046a.006.006,0,0,0-.006.006c-.032.029-.066.055-.1.084h0c-.014.012-.026.023-.038.032l0,0-.118.1-.02.017-.11.1c-.006.006-.012.009-.014.014s-.037.032-.055.049l-.138.121c-.164.147-.326.291-.487.438-.112.1-.225.2-.334.309-.075.069-.15.138-.225.21-.2.193-.409.386-.608.582-.153.147-.3.294-.447.441l-.219.219-.216.222c-.072.072-.141.147-.213.219q-.212.221-.415.441c-.352.378-.692.758-1.018,1.136-.052.061-.1.121-.153.182a28.543,28.543,0,0,0-2.111,2.805c-.046.069-.092.141-.135.21-.089.141-.176.283-.262.421-2.209,3.653-2.63,6.943-.467,9.154a6.625,6.625,0,0,0,1.479,1.116c.092.052.187.1.285.153.063.032.13.066.2.1.1.049.2.1.309.144q.264.117.545.225c.075.029.153.058.231.084s.156.055.236.081l.242.078.375.112c.213.061.432.115.66.17.136.032.274.063.415.092.1.02.19.04.285.058q.943.182,2.027.294c.112.012.225.023.337.032.911.081,1.9.124,2.964.127l35.792.822h-.009l20.451.47h0l4.985.115h0l116.805,2.684,3.633.084A.461.461,0,0,1,525.866,206.356Zm-101.755-9.382-9.206-.34c-.081,0-.161,0-.239-.006-.487-3.278,2-7.623,6.28-11.983,1.886,4.726,3.734,9.633,4.466,12.36C424.581,196.983,424.111,196.974,424.111,196.974Zm47.031-28.313c.092,0,.193,0,.3.012,12.718,5.6,30.366,21.575,38.206,29.21-14.229.147-49.052.124-62.191-.306-7.514-.245-16.46-.453-20.771-.548-.236-.954-.623-2.209-1.165-3.78-.753-2.188-1.8-4.979-3.12-8.3q-.251-.631-.5-1.254a67.923,67.923,0,0,1,25.862-15.036Z" transform="translate(-284.705 -159.772)" fill="#7ab1ad"/>
        <path id="Path_34662" data-name="Path 34662" d="M528.408,206.375l-3.633-.084-116.8-2.684V202.7c-1.623-1.773-3.339-8.575-4.945-15.587l-1.176,1.205c1.024,3.6,2.154,7.649,3.347,12.395l-10.509.138c-.421-.006-.917-.009-1.479-.009-2.517,0-6.381.049-10.939.049-19.26,0-50.938-.882-46.008-10.091,0,0,0-.006.006-.012.032-.058.066-.118.1-.176a.245.245,0,0,0,.017-.029c.058-.1.115-.2.176-.3v0c.017-.032.037-.063.055-.1.084-.141.173-.28.262-.421.179-.28.369-.565.568-.851l.144-.2c.112-.159.228-.317.349-.476l.1-.127c.124-.164.251-.329.378-.49.058-.069.112-.141.17-.213.176-.216.355-.435.539-.654.052-.061.1-.121.153-.182.012-.012.02-.026.032-.037.063-.072.127-.147.19-.219l.193-.219c.063-.072.13-.147.2-.219.133-.147.268-.294.4-.438s.274-.294.415-.441c.069-.072.141-.147.213-.219l.216-.222c.072-.072.144-.147.219-.219l.144-.144c.075-.075.147-.147.225-.219l.078-.078c.072-.069.144-.138.216-.21l.087-.081c.02-.02.04-.037.061-.055s.061-.061.092-.089l.153-.144.225-.21c.02-.02.04-.037.063-.058.089-.084.182-.167.274-.251l.144-.13.1-.089c.012-.009.02-.02.032-.029.069-.063.141-.127.213-.19l.069-.061.069-.061.035-.029.035-.032.1-.084.017-.014.02-.017.118-.1,0,0,.038-.035c.061-.052.121-.107.185-.159.012-.009.023-.02.037-.032s.023-.02.032-.029l.063-.055c.052-.043.1-.087.153-.13.156-.133.314-.265.473-.395h0c.029-.023.055-.046.081-.066a.01.01,0,0,1,.006,0l.262-.216c.086-.072.176-.144.265-.216l.043-.035.043-.035.182-.147.257-.2a.064.064,0,0,1,.014-.012l.156-.121c.069-.055.141-.112.213-.167s.121-.092.179-.141l.035-.026.078-.061.355-.271c.052-.04.107-.081.161-.121s.112-.086.17-.127c.017-.014.037-.026.055-.04.112-.084.228-.167.34-.254l.029-.02.012-.009c.026-.02.055-.04.084-.061l.176-.13h0c.107-.078.213-.156.32-.231l.061-.043.268-.193c.306-.216.614-.432.926-.643l.19-.13.084-.058.323-.216,0,0c.124-.081.245-.164.369-.245l0,0c.124-.081.248-.161.372-.245s.254-.164.381-.245l.329-.21c.144-.092.291-.182.435-.274l.386-.239c.13-.081.259-.159.389-.236l.389-.234a0,0,0,0,0,0,0c.13-.078.262-.156.4-.234.066-.037.13-.078.2-.115.15-.089.3-.176.453-.262l.046-.026.087-.052a.01.01,0,0,0,.006,0h0c.081-.046.164-.092.248-.138.049-.029.1-.058.153-.086l.052-.029.052-.029c.366-.2.732-.409,1.1-.608.072-.04.144-.078.216-.115s.13-.069.193-.1l.409-.216h0c.136-.072.274-.141.409-.213h0c.136-.069.274-.141.412-.21.037-.02.072-.037.11-.055.058-.032.118-.061.179-.089.043-.023.087-.043.13-.063.072-.037.147-.075.222-.11l.176-.087c.294-.144.591-.285.888-.427.1-.049.2-.1.306-.144l.179-.084c.389-.182.784-.358,1.176-.531.141-.063.285-.124.427-.185h0l.213-.092c.072-.029.144-.061.213-.089.127-.052.254-.107.383-.159.029-.012.058-.026.086-.035.13-.055.26-.107.389-.159h0l.216-.087.216-.086c.136-.055.274-.107.409-.161l.02-.009h0c.11-.043.222-.087.332-.127.185-.072.372-.141.557-.21l.409-.15h0l.432-.156.014-.006c.136-.049.271-.1.407-.141l.484-.164.4-.133c.121-.04.239-.078.36-.115.216-.069.432-.138.649-.2.1-.032.2-.061.3-.092l.438-.13h0l.395-.112c.043-.012.086-.023.13-.037l.349-.1.009,0,.216-.058c.072-.02.144-.037.213-.058l.438-.112c.291-.075.582-.144.874-.213.144-.035.291-.066.438-.1.084-.02.17-.037.254-.055.032-.009.061-.014.092-.02s.061-.014.092-.02l.326-.069a81.79,81.79,0,0,1,.069-.012c.037-.009.072-.017.11-.023.2-.04.389-.078.585-.115l.216-.04c.228-.032.458-.061.689-.087l.231-.026.234-.026.236-.026c.092-.012.182-.02.274-.029.127-.014.254-.026.378-.037l.1-.009.389-.037a.072.072,0,0,0,.023,0l.156-.014.21-.017.329-.026.121-.009.1-.009.038,0,.1-.009c.1-.009.193-.014.288-.02.513-.037,1.018-.069,1.508-.1l.309-.017.159-.009a.142.142,0,0,0,.035,0l.164-.009.061,0,.063,0c.1-.006.2-.009.291-.014l.231-.009.081,0h.037c.173-.006.343-.014.51-.02l.147-.006h.012c.13-.006.26-.009.386-.014h.046a.265.265,0,0,0,.049,0c.032,0,.063,0,.1,0h.029l.337-.009h.012l.3-.009.133,0c.058,0,.112,0,.17,0,.11,0,.213-.006.317-.006h.055c.037,0,.075,0,.112,0,.058,0,.112,0,.167,0,.035,0,.069,0,.1,0h.089l.17,0,.254,0h.124c.089,0,.173,0,.254,0h82.95c-.13,0-.28,0-.45,0a93.024,93.024,0,0,0-10.815.646,49.753,49.753,0,0,0-5.418,1.329,67.967,67.967,0,0,0-25.862,15.036c-.329.314-.646.631-.957.946-4.285,4.359-6.764,8.7-6.28,11.983.5,3.339,4.068,5.576,11.951,5.6l6.412.176L522,204.766l4.72.13c.035.029.066.058.1.087.13.115.251.222.366.326l.011.009c.043.037.084.075.121.11h0c.04.035.078.069.115.1.017.017.037.035.055.049.037.032.072.063.107.1l.052.046c.046.04.089.081.13.115a.585.585,0,0,0,.046.04l.072.063c.017.017.038.035.055.049s.035.032.052.046h0c.035.032.069.061.1.089s.052.046.075.066.026.023.035.032l.012.009c.017.017.035.032.049.046a.738.738,0,0,1,.066.061h0A.319.319,0,0,1,528.408,206.375Z" transform="translate(-287.203 -159.751)" fill="#8c4c57" opacity="0.4"/>
        <path id="Path_34663" data-name="Path 34663" d="M634.943,215.264v.631h-1.237v-.631a7.969,7.969,0,0,0-.326-1.753c-.729-2.728-2.58-7.635-4.466-12.36-1.594-3.993-3.212-7.857-4.207-10.166l-.248-.577,1.133-.507.248.577c.02.049,1.966,4.581,4.031,9.728q.251.623.5,1.254c1.318,3.319,2.367,6.11,3.12,8.3.542,1.571.928,2.826,1.165,3.78A7.9,7.9,0,0,1,634.943,215.264Z" transform="translate(-492.674 -176.283)" fill="#647f7f"/>
        <path id="Path_34664" data-name="Path 34664" d="M447.557,174.18H402.57a60.794,60.794,0,0,1,18.28-6.891,96.289,96.289,0,0,1,11.582-.649h10.737a7.837,7.837,0,0,1,3.35,4.181A34.4,34.4,0,0,1,447.557,174.18Z" transform="translate(-334.76 -159.729)" fill="#2c2933" opacity="0.3"/>
        <path id="Path_34665" data-name="Path 34665" d="M400.5,237.56l-1.176,1.205c1.024,3.6,2.154,7.649,3.347,12.395l-10.509.138c-.421-.006-.917-.009-1.479-.009-2.517,0-6.381.049-10.939.049-19.26,0-50.938-.882-46.008-10.091,0,0,0-.006.006-.012.032-.058.066-.118.1-.176a.259.259,0,0,0,.017-.029c.058-.1.115-.2.176-.3v0c.017-.032.037-.063.055-.1-2.209,3.653-2.63,6.943-.467,9.154A6.627,6.627,0,0,0,335.1,250.9c.092.052.187.1.285.153.063.032.13.066.2.1.1.049.2.1.308.144q.264.117.545.225c.075.029.153.058.231.084s.156.055.236.081l.242.078.375.112c.213.061.432.115.66.17.136.032.274.063.415.092.1.02.19.04.285.058q.943.182,2.027.294c.112.012.225.023.337.032.911.081,1.9.124,2.964.127L380,253.47h0l20.451.47,4.985.115h0v-.911C403.817,251.374,402.1,244.572,400.5,237.56Z" transform="translate(-284.677 -210.201)" fill="#134b6b"/>
        <path id="Path_34666" data-name="Path 34666" d="M498,292.75l20.451.47-20.442-.467Z" transform="translate(-402.675 -249.479)" fill="#2c2933" opacity="0.3"/>
        <path id="Path_34667" data-name="Path 34667" d="M405.186,235.012l-10.509.138c-.421-.006-.917-.009-1.479-.009-2.517,0-6.381.049-10.939.049-19.26,0-50.938-.882-46.008-10.091,0,0,0-.006.006-.012.032-.058.066-.118.1-.176a.245.245,0,0,0,.017-.029c.058-.1.115-.2.176-.3v0a32.111,32.111,0,0,1,5.086-6.236q.255-.251.519-.5c.176-.167.355-.334.533-.5s.34-.314.516-.47l.035-.032c.092-.084.185-.167.28-.251l.1-.089.035-.032.1-.084.017-.014.02-.017.118-.1,0,0,.038-.035c.061-.052.121-.107.185-.159.012-.009.023-.02.037-.032l.1-.084c.052-.043.1-.086.153-.13.156-.133.314-.265.473-.4l.081-.069a.01.01,0,0,1,.006,0l.262-.216c.086-.072.176-.144.265-.216l.043-.035c-5.066,4.212-7.929,8.48-8.367,12.481h53.787c5.859,0,8.684-2.511,8.684-2.511l.507-.519,1.672-1.713C402.859,226.221,403.992,230.266,405.186,235.012Z" transform="translate(-287.196 -194.053)" fill="#2c2933" opacity="0.3"/>
        <path id="Path_34668" data-name="Path 34668" d="M586.223,294.78Z" transform="translate(-465.459 -250.924)" fill="#2c2933" opacity="0.3"/>
        <path id="Path_34669" data-name="Path 34669" d="M406.575,205.691l-3.359,3.434s-2.828,2.511-8.684,2.511H340.74c.438-4.011,3.313-8.284,8.4-12.5a68.621,68.621,0,0,1,8.837-6.012l.343-.2c.084-.049.17-.1.257-.144H403.56C404.474,196.217,405.5,201,406.575,205.691Z" transform="translate(-290.757 -178.332)" fill="#bbf1ff" opacity="0.5"/>
        <path id="Path_34670" data-name="Path 34670" d="M369.85,199.972a62.471,62.471,0,0,1,8.837-6.012A69.012,69.012,0,0,0,369.85,199.972Z" transform="translate(-311.474 -179.172)" fill="#7ab1ad" opacity="0.7"/>
        <path id="Path_34671" data-name="Path 34671" d="M568.055,199.124l-6.427,6.574c-1.075-4.691-2.1-9.474-3.019-12.908h6.441C576.844,192.79,568.055,199.124,568.055,199.124Z" transform="translate(-445.81 -178.339)" fill="#7ab1ad" opacity="0.7"/>
        <path id="Path_34672" data-name="Path 34672" d="M824.9,324.817v.014l-1.577,9.46c0,2.99-3.333,7.551-5.934,9.013a3.12,3.12,0,0,1-1.47.47.72.72,0,0,1,.26.487c-.014.193-.2.4-.813.519h0a7.513,7.513,0,0,1-1.419.107l-49.516-.006H668.283c-5.458,0-5.066-1.785-5.066-4.9,0-.963.04-1.871.04-2.632,0-12.21-3.529-23.023-8.918-29.6V282.872c11.144,1.39,31.43-.551,57.99.4,41.435,1.482,17.423-.732,45.947-.732,24.424,0,48.225,6.66,58.273,15.215.213.182.5.435.827.761.421.412.923.94,1.459,1.577.2.239.406.49.614.758.285.366.577.764.868,1.188.086.124.17.251.257.381a24.528,24.528,0,0,1,1.687,2.993c.245.519.479,1.064.7,1.629q.259.675.484,1.393c.029.1.06.2.089.294.037.127.075.254.11.383q.125.45.234.917c.029.118.055.239.081.358.012.046.02.092.029.138s.017.075.023.115c.011.061.026.124.037.185v0c.014.075.029.153.043.228s.029.156.04.234.026.156.04.236c0,.009,0,.017.006.026l.069.45c.035.239.063.484.089.729.017.17.035.343.049.519.006.058.009.115.014.173.009.1.014.2.02.3l.009.167c0,.017,0,.038,0,.055.006.078.009.153.012.228,0,.058.006.118.006.176,0,.032,0,.063,0,.1,0,.075,0,.15.006.225C824.519,317.3,824.894,322.49,824.9,324.817Z" transform="translate(-513.939 -242.213)" fill="#134b6b"/>
        <g id="Group_22171" data-name="Group 22171" transform="translate(114.587 6.914)">
          <path id="Path_34673" data-name="Path 34673" d="M684.411,200.211a.113.113,0,0,0-.029-.023.37.37,0,0,0-.037-.032c-13.191-11.282-39.339-32.655-48.605-33.483l-.11-.009c-.037,0-.072-.006-.107-.006l-.078,0-.063,0c-.058,0-.118,0-.173,0H583.677c-3.69.032-16.169-.167-18.141,3.575a5.938,5.938,0,0,0-.254.554.547.547,0,0,1-.029.072c-.014.037-.029.078-.043.115-.006.017-.014.037-.02.055-.037.112-.075.225-.107.34-.009.035-.02.069-.029.107s-.023.087-.032.127-.017.069-.023.1-.017.078-.026.118-.012.055-.017.081l-.035.187c0,.023-.009.046-.012.066-.02.127-.037.257-.052.386-.006.061-.012.121-.017.179,0,.02,0,.04-.006.061a.8.8,0,0,0-.006.084c0,.035-.006.069-.006.107s-.006.072-.006.11,0,.072,0,.107c-.006.173-.009.343,0,.516,0,.046,0,.092,0,.138,0,.086.006.17.012.257,0,.023,0,.046,0,.069v.023c0,.061.009.121.011.182,0,.014,0,.032,0,.046l.009.1c0,.049.009.1.014.147,0,.014,0,.032.006.046.012.112.023.225.04.337.009.069.017.136.029.2s.02.15.035.225c.009.052.017.1.026.153s.017.112.029.17c.006.035.012.072.02.107.023.124.046.248.072.369,0,.02.009.04.012.061.009.04.017.078.026.118,0,.014.006.026.009.04.014.061.026.121.04.185.072.314.15.629.234.937.017.066.035.133.055.2s.04.138.058.2c.049.167.1.334.147.5,0,.006,0,.014.006.02l.052.173q.082.259.164.51c.017.055.035.11.055.164s.035.107.055.161l.035.1c.087.262.176.516.262.764.023.063.043.127.066.19l.035.1c.058.161.112.323.17.487l.086.245c.006.017.012.032.017.049.043.124.084.245.127.369.049.144.1.285.147.43.038.11.075.222.113.332.262.77.525,1.557.8,2.353.02.061.043.124.063.185h0l.078.234c.121.352.239.7.363,1.055.072.21.147.421.222.631.049.141.1.283.15.421s.1.28.15.421c.043.121.086.242.133.363.006.02.014.038.02.058.04.107.078.213.118.317s.078.208.115.308c.009.02.014.043.023.063.043.118.089.234.133.352.052.138.1.277.159.412.046.115.089.231.135.346s.1.245.144.366c.04.1.084.208.127.311l.112.277c.043.1.086.208.13.309s.086.2.13.306l.13.3.121.277.156.346c.037.084.075.167.112.248l.043.1c.107.228.213.45.32.672.055.11.107.219.164.329.04.081.084.161.124.242.023.046.046.089.069.133s.058.107.084.161.066.124.1.185l.13.234c.029.052.058.1.086.153s.058.1.087.153.058.1.086.15.058.1.089.15l.092.153c.058.1.118.193.176.288s.124.2.187.294l.086.13.2.294c.026.038.052.078.081.115s.063.089.1.136.063.089.1.133c.1.133.2.262.3.389l.1.127c.035.04.066.084.1.124s.069.081.1.121l.112.133c.026.032.052.061.081.089l.026.029.072.078c.029.032.058.063.087.092s.078.081.115.121.078.081.115.118.078.078.118.115l.118.112c.081.075.159.147.239.216s.161.138.245.2.164.13.248.19l.127.092c.084.061.17.118.254.173.17.11.346.213.522.306.089.046.179.089.268.133.055.026.109.052.167.075.032.014.066.029.1.04a.048.048,0,0,0,.014.006,1,1,0,0,0,.1.037c.138.052.28.1.424.141l.1.026a.085.085,0,0,0,.026.006l.1.026c.127.032.257.058.386.081.046.009.092.014.138.02s.1.014.15.02l.138.014.121.009a.489.489,0,0,0,.066,0c.043,0,.086,0,.133.006s.1,0,.156,0H579l.461.072,11.17,1.753c1.776,0,4.5-.006,7.926-.014,9.693-.026,24.954-.084,39.953-.124l2.459-.006c7.566-.02,14.978-.032,21.489-.035h2.459c5.914,0,10.936-.118,14.428-.386C683.278,201.5,685.276,200.995,684.411,200.211Zm-9.241-2.364c-2.6.026-5.9.049-9.624.061l-2.286.009c-6.986.02-15.192.014-23.121-.02-.767,0-1.528-.006-2.289-.012-10.025-.055-19.358-.164-24.871-.343-7.514-.245-16.46-.453-20.771-.548l-1.277-.029c-.83-.017-1.3-.029-1.3-.029l-9.206-.34c-.081,0-.161,0-.239-.006-4.281-.231-6.182-6.738-8.468-13.522-.153-.45-.3-.888-.447-1.32-.2-.585-.395-1.159-.594-1.724a24.049,24.049,0,0,1-1.473-5.839,5.643,5.643,0,0,1,.464-3.03c.072-.138.874-1.384,6.239-2.064a79.2,79.2,0,0,1,9.408-.461c.3,0,.571,0,.79-.006h50.56c.092,0,.193,0,.3.012,2.159.161,7.69,2.067,21.405,12.078,8.457,6.173,15.036,11.524,21.607,17.089C679.5,197.852,678.564,197.812,675.17,197.846Z" transform="translate(-564.809 -166.65)" fill="#0a090a"/>
          <path id="Path_34674" data-name="Path 34674" d="M628.726,241.3c-.83-.017-1.3-.029-1.3-.029l-9.206-.34c-.081,0-.161,0-.239-.006-.487-3.278,2-7.623,6.28-11.983C626.146,233.663,627.994,238.57,628.726,241.3Z" transform="translate(-602.607 -210.98)" fill="#bbf1ff" opacity="0.5"/>
          <path id="Path_34675" data-name="Path 34675" d="M730.988,202.721c-14.229.147-49.052.124-62.191-.306-7.514-.245-16.46-.453-20.771-.548-.236-.954-.623-2.209-1.165-3.78-.753-2.188-1.8-4.979-3.12-8.3q-.251-.631-.5-1.254A67.923,67.923,0,0,1,669.1,173.5h23.38c.092,0,.193,0,.3.012C705.5,179.111,723.149,195.087,730.988,202.721Z" transform="translate(-620.627 -171.525)" fill="#bbf1ff" opacity="0.5"/>
        </g>
        <path id="Path_34676" data-name="Path 34676" d="M294.32,395.484a2.136,2.136,0,0,0,2.108,2.151H531.393a2.136,2.136,0,0,0,2.108-2.151V348.211a2.136,2.136,0,0,0-2.108-2.151H296.428a2.135,2.135,0,0,0-2.108,2.151Z" transform="translate(-257.721 -287.418)" fill="#0a090a"/>
        <g id="Group_22184" data-name="Group 22184" transform="translate(142.454 61.043)">
          <path id="Path_34677" data-name="Path 34677" d="M720.272,418.164h18.112c8.782,0,16.117-10.8,17.882-25.2a55.454,55.454,0,0,0,.4-6.689c0-17.611-8.185-31.888-18.283-31.888H720.9l-1.618,32.774.992,31Z" transform="translate(-702.609 -354.39)" fill="#0a090a"/>
          <g id="Group_22179" data-name="Group 22179" transform="translate(0 0.003)">
            <g id="Group_22174" data-name="Group 22174">
              <g id="Group_22173" data-name="Group 22173">
                <g id="Group_22172" data-name="Group 22172">
                  <path id="Path_34678" data-name="Path 34678" d="M679.745,354.4c10.1,0,18.282,14.278,18.282,31.888a54.921,54.921,0,0,1-.4,6.689c-1.762,14.4-9.1,25.2-17.882,25.2s-16.115-10.8-17.879-25.2a54.836,54.836,0,0,1-.4-6.689c.006-17.614,8.191-31.888,18.285-31.888Z" transform="translate(-661.46 -354.4)" fill="#4f4f4f"/>
                </g>
              </g>
            </g>
            <g id="Group_22178" data-name="Group 22178" transform="translate(4.146 8.087)">
              <g id="Group_22177" data-name="Group 22177">
                <g id="Group_22176" data-name="Group 22176">
                  <g id="Group_22175" data-name="Group 22175">
                    <path id="Path_34679" data-name="Path 34679" d="M691.445,384.85c7.318,0,13.248,10.345,13.248,23.106a40.1,40.1,0,0,1-.291,4.847c-1.277,10.431-6.594,18.257-12.957,18.257s-11.677-7.825-12.954-18.257a40.132,40.132,0,0,1-.291-4.847c0-12.761,5.931-23.106,13.246-23.106Z" transform="translate(-677.519 -384.158)" fill="#0a090a"/>
                    <path id="Path_34680" data-name="Path 34680" d="M689.766,430.046v-1.387c5.865,0,11.031-7.421,12.283-17.648a39.4,39.4,0,0,0,.288-4.76,32.687,32.687,0,0,0-3.789-15.987c-2.376-4.143-5.5-6.424-8.782-6.424s-6.406,2.281-8.779,6.424a32.694,32.694,0,0,0-3.789,15.987,38.708,38.708,0,0,0,.288,4.76c1.251,10.227,6.415,17.651,12.28,17.651v1.384a9.025,9.025,0,0,1-4.887-1.491,14.612,14.612,0,0,1-4.051-4.016,30.074,30.074,0,0,1-4.691-13.358,40.962,40.962,0,0,1-.3-4.933,34.1,34.1,0,0,1,3.973-16.688,16.522,16.522,0,0,1,4.4-5.164,8.9,8.9,0,0,1,11.109,0,16.522,16.522,0,0,1,4.4,5.164,34.1,34.1,0,0,1,3.973,16.688,41.1,41.1,0,0,1-.3,4.933,30.075,30.075,0,0,1-4.691,13.358,14.612,14.612,0,0,1-4.051,4.016A9.042,9.042,0,0,1,689.766,430.046Z" transform="translate(-675.84 -382.45)" fill="#dfe7e8"/>
                  </g>
                </g>
              </g>
            </g>
          </g>
          <path id="Path_34681" data-name="Path 34681" d="M714.349,388.32c5.432,2.886,9.385,11.689,9.385,22.106a40.107,40.107,0,0,1-.291,4.847c-1.009,8.234-4.532,14.84-9.1,17.259-4.567-2.419-8.09-9.027-9.1-17.262a40.131,40.131,0,0,1-.291-4.847C704.947,400,708.909,391.195,714.349,388.32Z" transform="translate(-692.411 -378.537)" fill="#c1c1c1"/>
          <path id="Path_34682" data-name="Path 34682" d="M732.1,422.4c0,.66-.014,1.3-.043,1.929-.04.888-.11,1.741-.2,2.563a37.015,37.015,0,0,1-.8,4.573,30.37,30.37,0,0,1-2.108,6.043h0a9.955,9.955,0,0,1-1.863,2.958,3.24,3.24,0,0,1-1.012-.17c-1.626-.542-3.177-2.335-4.423-4.708a23.333,23.333,0,0,1-1.3-2.99,26.736,26.736,0,0,1-1.346-5.625c-.1-.859-.176-1.741-.208-2.644-.014-.378-.02-.761-.02-1.145,0-.539.014-1.084.046-1.632a30.712,30.712,0,0,1,1.491-7.9,22.459,22.459,0,0,1,1.248-3.01c1.222-2.4,2.782-4.126,4.538-4.607a3.751,3.751,0,0,1,1-.135,8.21,8.21,0,0,1,1.854,2.456h0a21.058,21.058,0,0,1,1.7,3.959,29.309,29.309,0,0,1,1.122,5.057,37.566,37.566,0,0,1,.314,4.178C732.095,421.827,732.1,422.109,732.1,422.4Z" transform="translate(-702.253 -391.048)" fill="#0a090a"/>
          <g id="Group_22180" data-name="Group 22180" transform="translate(12.536 14.851)">
            <path id="Path_34683" data-name="Path 34683" d="M722.248,461.035c0,.66-.014,1.3-.043,1.929H704.94V460.19h17.3C722.245,460.464,722.248,460.746,722.248,461.035Z" transform="translate(-704.94 -444.537)" fill="#c1c1c1"/>
            <path id="Path_34684" data-name="Path 34684" d="M747.773,422.937l0,.078-.02.383-.052.926-.213,3.887-.51,9.293h0a9.951,9.951,0,0,1-1.863,2.958,3.241,3.241,0,0,1-1.012-.17l.68-12.412.2-3.555.061-1.1.017-.291-.011-.2-.066-1.188-.185-3.37h0l-.666-12.141a3.75,3.75,0,0,1,1-.135,8.209,8.209,0,0,1,1.854,2.456h0l.418,7.638.306,5.556.049.914Z" transform="translate(-732.809 -405.9)" fill="#c1c1c1"/>
            <path id="Path_34685" data-name="Path 34685" d="M731.344,434.53l-.081.121-.236.358-.614.926-.9,1.352-1.459,2.2-5.1,7.7a23.358,23.358,0,0,1-1.3-2.99l5.478-8.266.908-1.37-.972-1.4-5.452-7.9-1.006-1.459,2.223-1.6.032.046,5.2,7.537h0l1.222,1.77,1.1,1.6.631.914.182.262h0Z" transform="translate(-716.092 -417.507)" fill="#c1c1c1"/>
            <path id="Path_34686" data-name="Path 34686" d="M751.932,442.722a37.006,37.006,0,0,1-.8,4.573l-1.6-3.247-1.245-2.534-.666-1.352-.539-1.1-.1-.2.1-.294.415-1.188.559-1.6,1.381-3.956,1.283-3.679a29.325,29.325,0,0,1,1.122,5.057l-1.456,4.178-.412,1.176h0l-.04.118.1.2.631,1.283Z" transform="translate(-734.866 -421.735)" fill="#c1c1c1"/>
          </g>
          <g id="Group_22183" data-name="Group 22183" transform="translate(21.708 25.554)">
            <g id="Group_22182" data-name="Group 22182">
              <g id="Group_22181" data-name="Group 22181">
                <path id="Path_34687" data-name="Path 34687" d="M740.386,443.02c2.007,0,3.636,2.837,3.636,6.337a11.085,11.085,0,0,1-.081,1.329c-.352,2.863-1.808,5.008-3.555,5.008s-3.2-2.148-3.555-5.008a11.072,11.072,0,0,1-.081-1.329c0-3.5,1.629-6.337,3.636-6.337Z" transform="translate(-736.75 -443.02)" fill="#c1c1c1"/>
              </g>
            </g>
          </g>
          <path id="Path_34688" data-name="Path 34688" d="M747.127,453.74c0,2.16-.914,3.91-2.038,3.91s-2.038-1.75-2.038-3.91.914-3.91,2.038-3.91S747.127,451.58,747.127,453.74Z" transform="translate(-719.526 -422.313)" fill="#dfe7e8"/>
        </g>
        <g id="Group_22197" data-name="Group 22197" transform="translate(6.395 61.043)">
          <path id="Path_34689" data-name="Path 34689" d="M248.372,418.164h18.112c8.782,0,16.117-10.8,17.882-25.2a55.435,55.435,0,0,0,.4-6.689c0-17.611-8.185-31.888-18.283-31.888H249l-1.617,32.774.992,31Z" transform="translate(-230.709 -354.39)" fill="#0a090a"/>
          <g id="Group_22192" data-name="Group 22192" transform="translate(0 0.003)">
            <g id="Group_22187" data-name="Group 22187">
              <g id="Group_22186" data-name="Group 22186">
                <g id="Group_22185" data-name="Group 22185">
                  <path id="Path_34690" data-name="Path 34690" d="M207.845,354.4c10.1,0,18.283,14.278,18.283,31.888a54.884,54.884,0,0,1-.4,6.689c-1.762,14.4-9.1,25.2-17.882,25.2s-16.114-10.8-17.879-25.2a54.852,54.852,0,0,1-.4-6.689c.006-17.614,8.191-31.888,18.285-31.888Z" transform="translate(-189.56 -354.4)" fill="#4f4f4f"/>
                </g>
              </g>
            </g>
            <g id="Group_22191" data-name="Group 22191" transform="translate(4.146 8.087)">
              <g id="Group_22190" data-name="Group 22190">
                <g id="Group_22189" data-name="Group 22189">
                  <g id="Group_22188" data-name="Group 22188">
                    <path id="Path_34691" data-name="Path 34691" d="M219.546,384.85c7.318,0,13.248,10.345,13.248,23.106a40.123,40.123,0,0,1-.291,4.847c-1.277,10.431-6.594,18.257-12.957,18.257s-11.677-7.825-12.954-18.257a40.12,40.12,0,0,1-.291-4.847c0-12.761,5.931-23.106,13.246-23.106Z" transform="translate(-205.62 -384.158)" fill="#0a090a"/>
                    <path id="Path_34692" data-name="Path 34692" d="M217.866,430.046v-1.387c5.865,0,11.031-7.421,12.283-17.648a39.4,39.4,0,0,0,.288-4.76,32.687,32.687,0,0,0-3.789-15.987c-2.376-4.143-5.5-6.424-8.782-6.424s-6.407,2.281-8.779,6.424a32.7,32.7,0,0,0-3.789,15.987,38.72,38.72,0,0,0,.288,4.76c1.251,10.227,6.415,17.651,12.28,17.651v1.384a9.025,9.025,0,0,1-4.887-1.491,14.612,14.612,0,0,1-4.051-4.016,30.076,30.076,0,0,1-4.691-13.358,40.4,40.4,0,0,1-.3-4.933,34.1,34.1,0,0,1,3.973-16.688,16.521,16.521,0,0,1,4.4-5.164,8.9,8.9,0,0,1,11.109,0,16.521,16.521,0,0,1,4.4,5.164,34.1,34.1,0,0,1,3.973,16.688,41.089,41.089,0,0,1-.3,4.933,30.075,30.075,0,0,1-4.691,13.358,14.612,14.612,0,0,1-4.051,4.016A9.041,9.041,0,0,1,217.866,430.046Z" transform="translate(-203.94 -382.45)" fill="#dfe7e8"/>
                  </g>
                </g>
              </g>
            </g>
          </g>
          <path id="Path_34693" data-name="Path 34693" d="M242.449,388.32c5.432,2.886,9.385,11.689,9.385,22.106a40.129,40.129,0,0,1-.291,4.847c-1.009,8.234-4.532,14.84-9.1,17.259-4.567-2.419-8.09-9.027-9.1-17.262a40.118,40.118,0,0,1-.291-4.847C233.047,400,237.009,391.195,242.449,388.32Z" transform="translate(-220.511 -378.537)" fill="#c1c1c1"/>
          <path id="Path_34694" data-name="Path 34694" d="M260.2,422.4c0,.66-.014,1.3-.043,1.929-.04.888-.11,1.741-.2,2.563a37.028,37.028,0,0,1-.8,4.573,30.381,30.381,0,0,1-2.108,6.043h0a9.955,9.955,0,0,1-1.863,2.958,3.24,3.24,0,0,1-1.012-.17c-1.626-.542-3.177-2.335-4.423-4.708a23.348,23.348,0,0,1-1.3-2.99,26.562,26.562,0,0,1-1.346-5.625c-.1-.859-.176-1.741-.208-2.644-.014-.378-.02-.761-.02-1.145,0-.539.014-1.084.046-1.632a30.709,30.709,0,0,1,1.491-7.9,22.454,22.454,0,0,1,1.248-3.01c1.222-2.4,2.782-4.126,4.538-4.607a3.751,3.751,0,0,1,1-.135,8.208,8.208,0,0,1,1.854,2.456h0a21.05,21.05,0,0,1,1.7,3.959,29.306,29.306,0,0,1,1.122,5.057,37.589,37.589,0,0,1,.314,4.178C260.195,421.827,260.2,422.109,260.2,422.4Z" transform="translate(-230.353 -391.048)" fill="#0a090a"/>
          <g id="Group_22193" data-name="Group 22193" transform="translate(12.536 14.851)">
            <path id="Path_34695" data-name="Path 34695" d="M250.348,461.035c0,.66-.014,1.3-.043,1.929H233.04V460.19h17.3C250.345,460.464,250.348,460.746,250.348,461.035Z" transform="translate(-233.04 -444.537)" fill="#c1c1c1"/>
            <path id="Path_34696" data-name="Path 34696" d="M275.873,422.937l0,.078-.02.383-.052.926-.213,3.887-.51,9.293h0a9.952,9.952,0,0,1-1.863,2.958,3.241,3.241,0,0,1-1.012-.17l.68-12.412.2-3.555.061-1.1.017-.291-.012-.2-.063-1.188-.185-3.37h0l-.666-12.141a3.749,3.749,0,0,1,1-.135,8.209,8.209,0,0,1,1.854,2.456h0l.418,7.638.306,5.556.049.914Z" transform="translate(-260.909 -405.9)" fill="#c1c1c1"/>
            <path id="Path_34697" data-name="Path 34697" d="M259.444,434.53l-.081.121-.236.358-.614.926-.9,1.352-1.459,2.2-5.1,7.7a23.349,23.349,0,0,1-1.3-2.99l5.478-8.266.908-1.37-.972-1.4-5.452-7.9-1.006-1.459,2.223-1.6.032.046,5.2,7.537h0l1.222,1.77,1.1,1.6.631.914.182.262h0Z" transform="translate(-244.192 -417.507)" fill="#c1c1c1"/>
            <path id="Path_34698" data-name="Path 34698" d="M280.032,442.722a37.035,37.035,0,0,1-.8,4.573l-1.6-3.247-1.246-2.534-.666-1.352-.539-1.1-.1-.2.1-.294.415-1.188.559-1.6,1.381-3.956,1.283-3.679a29.306,29.306,0,0,1,1.122,5.057l-1.456,4.178-.412,1.176h0l-.04.118.1.2.631,1.283Z" transform="translate(-262.966 -421.735)" fill="#c1c1c1"/>
          </g>
          <g id="Group_22196" data-name="Group 22196" transform="translate(21.708 25.554)">
            <g id="Group_22195" data-name="Group 22195">
              <g id="Group_22194" data-name="Group 22194">
                <path id="Path_34699" data-name="Path 34699" d="M268.486,443.02c2.007,0,3.636,2.837,3.636,6.337a11.078,11.078,0,0,1-.081,1.329c-.349,2.863-1.808,5.008-3.555,5.008s-3.2-2.148-3.555-5.008a11.078,11.078,0,0,1-.081-1.329c0-3.5,1.629-6.337,3.636-6.337Z" transform="translate(-264.85 -443.02)" fill="#c1c1c1"/>
              </g>
            </g>
          </g>
          <path id="Path_34700" data-name="Path 34700" d="M275.217,453.74c0,2.16-.914,3.91-2.038,3.91s-2.038-1.75-2.038-3.91.914-3.91,2.038-3.91S275.217,451.58,275.217,453.74Z" transform="translate(-247.619 -422.313)" fill="#dfe7e8"/>
        </g>
        <path id="Path_34701" data-name="Path 34701" d="M934.737,388.007a4.121,4.121,0,0,0-.262,1.372l-5.149,13.237a5.527,5.527,0,0,1-2.1,3.881,11.209,11.209,0,0,1-1.208.957c-.268.187-.542.36-.813.519h0a7.648,7.648,0,0,1-3.16,1.182H814.818l-.193-1.081-5.945-33.339,1.854,3.405,2.442-4.077,1.638-2.733,1.355.164,23.717,2.88,6.072.738,65.657-.6.732-.006s2.733.352,5.273.562c.724.061,1.43.107,2.056.133a.788.788,0,0,0,.081,0,12.868,12.868,0,0,0,1.479-.009,16.9,16.9,0,0,0,2.65-.522h0c1.442-.375,3.154-.905,4.9-1.476.43-.141.862-.283,1.295-.427,1.174-.389,2.333-.784,3.411-1.145.029.1.061.2.089.294.037.127.075.254.11.383q.125.45.234.917c.029.118.055.239.081.358.012.046.02.092.029.138s.017.075.023.115c.012.061.026.124.037.185v0l.043.228c.014.078.029.156.04.234s.026.156.04.236c0,.009,0,.017.006.026l.069.45c.035.239.063.484.089.729.017.17.035.343.049.519.006.058.009.115.014.173.009.1.014.2.02.3,0,.055.006.112.009.167,0,.017,0,.037,0,.055.006.078.009.153.012.228,0,.058.006.118.006.176,0,.032,0,.063,0,.1,0,.075,0,.15.006.225C934.36,380.49,934.734,385.68,934.737,388.007Z" transform="translate(-623.779 -305.402)" fill="#134b6b"/>
        <path id="Path_34702" data-name="Path 34702" d="M731.013,314.64c-6.683-31.456-66.453-30.219-87.292-30.219,0,0-63.212-.721-70.648-.721l-32.923.435,37.528,9.8L626.1,309.721s10.38,6.052,34.109,6.81C693.976,317.61,731.013,314.64,731.013,314.64Z" transform="translate(-432.672 -243.038)" fill="#185f87"/>
        <path id="Path_34703" data-name="Path 34703" d="M806.92,461.541V441.413s30.833,2.341,80.211,1c41.893-1.136,46.354-13.2,46.354-13.2l-3.973,32.321Z" transform="translate(-622.527 -346.602)" fill="#134b6b"/>
        <g id="Group_22198" data-name="Group 22198" transform="translate(186.621 55.071)">
          <path id="Path_34704" data-name="Path 34704" d="M848.53,351.745s-38.831,3.823-33.356-12.862a8.811,8.811,0,0,1,.669-1.551c1.972-3.569,5.827-3.993,9.7-3.451,9.789,1.37,13.543,9.071,19.779,15.125A30.173,30.173,0,0,0,848.53,351.745Z" transform="translate(-814.645 -333.683)" fill="#0a090a"/>
          <path id="Path_34705" data-name="Path 34705" d="M848.083,349c-4.524.043-31.159-.187-29.481-11.677,1.972-3.569,5.827-3.993,9.7-3.451C838.093,335.246,841.847,342.944,848.083,349Z" transform="translate(-817.407 -333.676)" fill="#f2e1dd"/>
          <path id="Path_34706" data-name="Path 34706" d="M851.192,345.4c-3.163.029-21.777-.13-20.6-8.159,1.378-2.494,4.071-2.791,6.781-2.41C844.209,335.787,846.833,341.17,851.192,345.4Z" transform="translate(-825.954 -334.402)" fill="#fff"/>
        </g>
        <path id="Path_34707" data-name="Path 34707" d="M367.185,337.544c.112,2.5.21,4.93.294,7.171H351.59v-5.553c.006-.548.014-1.087.02-1.617.092-7.352.164-12.928.164-12.957,0-19.788-11.3-35.887-22.8-35.887s-20.863,16.1-20.863,35.887c0,.089,0,.179.006.268,0,.182-.006.363-.006.548,0,5.533-.551,7.044-3.679,7.044H217.976c-5.444,0-5.069-1.773-5.066-4.878v-.026c0-.963.04-1.871.04-2.632,0-20.012-9.466-36.294-21.1-36.294-9.073,0-16.826,9.9-19.8,23.755h-4.662v-7.254c0-3.6-.006-2.9,0-6.5.012-8.128,5.6-33.558,19.318-33.558h7.721s-2.007,1.721,39.356,4.619c28.088,1.969,26.436.79,54.96.856,46.754.11,65.011,12.2,70.2,21.659,2.309,4.21,4.449,9.272,6.317,20.552C366.147,318.14,366.767,328.338,367.185,337.544Z" transform="translate(-167.381 -229.772)" fill="#134b6b"/>
        <path id="Path_34708" data-name="Path 34708" d="M254.66,329.39h10.472l4.209,2.7-1.736,2.209-10.258-.957Z" transform="translate(-229.496 -275.555)" fill="#2c2933"/>
        <path id="Path_34709" data-name="Path 34709" d="M366.386,308.884c-.4,1.519-2.589,2.621-4.864,2.442l-4.391-.343c-2.275-.179-3.809-1.568-3.408-3.088s2.589-2.621,4.864-2.442l4.391.343C365.253,305.972,366.787,307.362,366.386,308.884Z" transform="translate(-299.951 -258.506)" fill="#0a090a"/>
        <path id="Path_34710" data-name="Path 34710" d="M994.385,530.7h-8.932L952.3,537.058l-9-6.355H896.24V526.37h98.145Z" transform="translate(-686.094 -415.741)" fill="#0a090a"/>
        <path id="Path_34711" data-name="Path 34711" d="M958.229,519.1a2.626,2.626,0,0,0-2.592-2.644H840.152a2.626,2.626,0,0,0-2.592,2.644v1.88a2.626,2.626,0,0,0,2.592,2.644h29.429a9.128,9.128,0,0,0,4.679-1.568l.43-.323a9.129,9.129,0,0,1,4.679-1.568h58.354a4.861,4.861,0,0,1,3.716,1.73,4.87,4.87,0,0,0,3.716,1.73h10.478a2.628,2.628,0,0,0,2.592-2.644V519.1Z" transform="translate(-644.333 -408.688)" fill="#0a090a"/>
        <path id="Path_34712" data-name="Path 34712" d="M484.415,150.164c1.525-.115,24.983-2.433,29.319-2.474,3.125-.026,10.717,5.435,7.592,5.464-3.691.032-16.172-.164-18.141,3.575-1.626,3.085-.161,7.468.894,10.472,2.906,8.272,5.942,19.888,12.565,19.86,3.134-.012-9.806,4.051-10.567.989-2.3-9.232-4.377-15.838-5.9-21.653-2.673-10.175-7.519-13.243-15.757-13.243C472.138,153.153,477.873,150.657,484.415,150.164Z" transform="translate(-387.873 -146.243)" fill="#134b6b"/>
        <path id="Path_34713" data-name="Path 34713" d="M401.85,188.3c-.871-3.068-1.661-5.818-2.341-8.41-2.644-10.071-7.421-13.179-15.509-13.24-.081,0-.164,0-.254,0h-.127l-.254,0c-.055,0-.112,0-.17,0h-.072c-.04,0-.081,0-.124,0l-.167,0-.167,0c-.1,0-.21.006-.317.006l-.17,0c-.043,0-.086,0-.133,0l-.3.009h-.012c-.121,0-.242.006-.366.012l-.1,0c-.208.009-.421.014-.64.023-.167.006-.337.014-.51.02-.037,0-.078,0-.118.006l-.231.009c-.1.006-.193.009-.291.014-.02,0-.04,0-.063,0-.075,0-.15.006-.225.012a.14.14,0,0,0-.035,0L379,166.8l-.308.017c-.49.026-1,.061-1.508.1-.1.006-.19.014-.288.02l-.1.009-.037,0-.1.009-.121.009-.329.026-.211.017-.156.014a.064.064,0,0,0-.023,0c-.13.012-.259.023-.389.037l-.1.009c-.127.012-.254.026-.378.037-.092.009-.182.017-.274.029l-.236.026-.234.026-.231.026c-.231.026-.461.058-.689.087l-.216.04c-.2.037-.389.075-.585.115-.049.009-.1.017-.144.029l-.035.006-.326.069c-.032.006-.061.012-.092.02s-.061.014-.092.02l-.254.055c-.147.032-.291.066-.438.1-.291.069-.582.138-.874.213l-.438.112c-.072.017-.144.037-.213.058l-.216.058-.009,0c-.115.032-.234.063-.349.1-.043.012-.087.023-.13.037l-.395.112h0l-.438.13c-.1.029-.2.061-.3.092-.216.066-.432.133-.649.2-.121.037-.239.078-.36.115s-.265.086-.4.133l-.484.164-.407.141a.022.022,0,0,0-.014.006l-.432.156h0l-.409.15c-.187.069-.372.138-.556.21-.11.043-.222.087-.332.127h0l-.02.009c-.138.055-.274.107-.409.161l-.216.087-.216.087h0l-.389.159-.086.035c-.127.052-.254.107-.383.159-.072.032-.144.061-.213.089l-.213.092h0l-.427.185c-.4.173-.787.349-1.176.531-.061.029-.121.055-.179.084-.1.046-.2.1-.306.144-.3.138-.594.283-.888.427l-.176.086c-.075.037-.15.072-.222.11l-.13.063c-.061.029-.118.058-.179.089-.038.017-.072.035-.11.055-.138.069-.274.138-.412.21h0c-.138.069-.274.141-.409.213h0c-.138.072-.274.144-.409.216l-.193.1-.216.115q-.584.311-1.159.637l-.052.029-.4.225h0a.01.01,0,0,0-.006,0l-.086.052-.046.026c-.153.086-.3.173-.453.262-.066.037-.133.078-.2.115l-.395.234a0,0,0,0,0,0,0l-.389.234-.389.236c-.13.078-.257.159-.386.239-.147.092-.291.182-.435.274-.11.069-.219.138-.329.21l-.381.245-.372.245a0,0,0,0,0,0,0c-.124.081-.245.164-.369.245a0,0,0,0,0,0,0l-.323.216a.856.856,0,0,0-.084.058l-.19.13c-.311.213-.62.427-.926.643-.089.063-.179.127-.268.193l-.061.043-.32.231h0l-.176.13-.084.061-.012.009-.029.02-.4.294c-.058.04-.112.084-.17.127s-.11.081-.161.121l-.355.271c-.026.02-.052.037-.078.061l-.035.026c-.061.046-.121.092-.179.141s-.144.11-.213.167l-.156.121s-.009.006-.014.012c-.086.066-.173.136-.257.2l-.182.147-.043.035-.043.035c-.089.072-.179.144-.265.216s-.176.144-.262.216c0,0,0,0-.006,0-.029.023-.055.046-.081.069-.159.133-.317.262-.473.4-.052.043-.1.087-.153.13-.02.017-.043.035-.063.055l-.069.061c-.061.052-.121.107-.185.159a.448.448,0,0,0-.037.035l0,0-.118.1-.02.017a.076.076,0,0,0-.017.014l-.1.084a.349.349,0,0,0-.035.032l-.035.029-.069.061-.069.061c-.069.063-.141.127-.21.187a.344.344,0,0,0-.035.032c-.032.029-.066.058-.1.089l-.144.13-.274.251c-.02.02-.04.037-.063.058-.075.069-.15.138-.225.21-.052.049-.1.1-.153.144l-.153.144-.086.081-.216.21-.078.078-.078.078c-.049.046-.1.1-.144.141l-.144.144-.219.219-.216.222c-.072.072-.141.147-.213.219q-.212.221-.415.441l-.4.438c-.066.072-.133.147-.2.219s-.13.144-.193.219l-.19.219a.366.366,0,0,0-.032.037c-.052.061-.1.121-.153.182-.185.219-.366.435-.539.654l-.17.213c-.13.164-.257.329-.378.49l-.1.127c-.118.159-.234.317-.349.476l-.144.2c-.2.285-.389.568-.568.851-.089.141-.176.283-.262.421-.017.032-.035.063-.055.1v0c-.055.1-.115.2-.176.3a.251.251,0,0,0-.017.029c-.035.058-.066.118-.1.176,0,0,0,.009-.006.012-4.93,9.212,26.748,10.091,46.008,10.091,4.558,0,8.422-.049,10.939-.049.562,0,1.058,0,1.479.009l10.509-.138C404.007,195.949,402.874,191.9,401.85,188.3Zm-58.486,7.476c-4-1.119-5.109-2.243-5.406-2.733-.009-.017-.02-.032-.026-.046-.086-.159-.268-.484.234-1.338.084-.141.159-.271.234-.4,2.082-3.44,5.9-7.257,10.717-10.783-1.4,3.345-3.581,8.69-4.9,12.565C343.854,194.081,343.563,195.015,343.364,195.776Zm49.845,2.932c-1.078,0-2.4.009-3.918.02-2.067.014-4.414.029-7.021.029-11.663,0-20.768-.358-27.837-1.093a75.188,75.188,0,0,1-9.878-1.583c.208-.79.545-1.834.966-3.045,1.367-3.907,3.644-9.532,5.5-13.912q.683-.463,1.387-.917a61.254,61.254,0,0,1,21.212-8.828,90.638,90.638,0,0,1,10.382-.62c6.626.052,10.962,1.984,13.505,11.671.588,2.243,1.266,4.63,1.984,7.159q.333,1.176.686,2.416c.735,2.6,1.522,5.444,2.347,8.6l-7.834.1C394.267,198.711,393.768,198.709,393.209,198.709Z" transform="translate(-287.211 -159.736)" fill="#0a090a"/>
        <g id="Group_22199" data-name="Group 22199" transform="translate(42.916 30.813)">
          <path id="Path_34714" data-name="Path 34714" d="M546.37,341.648h-.68l0-34.881c.721-7.491,3.114-16.919,4.316-19.378a12.065,12.065,0,0,1,3.93-4.137l.288-.182.357.591-.288.182a11.559,11.559,0,0,0-3.679,3.858c-1.052,2.154-3.512,11.481-4.247,19.119Z" transform="translate(-479.532 -273.403)" fill="#0a090a"/>
          <path id="Path_34715" data-name="Path 34715" d="M316.23,277.47v-.346a62.1,62.1,0,0,1,2.52-16.374,93.581,93.581,0,0,1,3.748-10.89l.135-.32.626.274-.133.32c-1.462,3.471-6.225,15.682-6.213,26.99v.346Z" transform="translate(-316.23 -249.54)" fill="#0a090a"/>
        </g>
        <path id="Path_34716" data-name="Path 34716" d="M364.869,389.092l-.291-20.206c0-10.5-2.852-20.635-8.03-28.529-5.441-8.292-12.856-13.047-20.35-13.047-7.612,0-14.552,4.726-19.54,13.309-4.449,7.649-6.9,17.689-6.9,28.264-.081,3.564-1.534,3.809-5.9,3.809H265.337c-9.428,0-29.4,1.574-36.565-6-.043-3.419-1.4-14.759-1.4-14.759S228.38,334.7,206.6,328.694s-29.057,19.687-29.057,27.973h1.736c2.975-13.851,10.728-23.755,19.8-23.755,11.637,0,21.1,16.282,21.1,36.294h0c0,.761-.04,1.667-.04,2.632,0,3.12-.392,4.9,5.066,4.9h86.453c3.128,0,3.679-1.511,3.679-7.044,0-.182,0-.363,0-.548,0-.089,0-.179,0-.268,0-.456.009-.911.02-1.364h-.006C315.77,348.36,324.962,333,336.2,333c11.507,0,22.8,16.1,22.8,35.887l-.184,20.128Z" transform="translate(-174.611 -274.074)" fill="#185f87"/>
        <g id="Group_22201" data-name="Group 22201" transform="translate(27.661 53.457)">
          <g id="Group_22200" data-name="Group 22200">
            <path id="Path_34717" data-name="Path 34717" d="M298.054,371.5c-7.13-1.393-9.013-4.783-10.028-8.7-.257-1.871-.972-5.475-.972-5.475a20.3,20.3,0,0,0-1.672-6.133c-5.005-16.019-14.454-20.341-22.062-22.829C264.891,327.858,296.324,323.851,298.054,371.5Z" transform="translate(-263.32 -328.076)" fill="#134b6b"/>
          </g>
        </g>
        <path id="Path_34718" data-name="Path 34718" d="M826.388,518.924v2.226a2.453,2.453,0,0,1-2.425,2.471H806.28V516.45h17.683A2.458,2.458,0,0,1,826.388,518.924Z" transform="translate(-622.071 -408.681)" fill="#3f3d3f"/>
        <g id="Group_22202" data-name="Group 22202" transform="translate(144.118 25.072)">
          <path id="Path_34719" data-name="Path 34719" d="M811.422,241.734c2.168-5.155,6.669-8.707,11.859-8.707s9.69,3.552,11.859,8.707h2.912a19.646,19.646,0,0,0-3.6-6.574,14.045,14.045,0,0,0-22.339,0,19.673,19.673,0,0,0-3.6,6.574h2.912Z" transform="translate(-767.776 -229.63)" fill="#0a090a"/>
          <path id="Path_34720" data-name="Path 34720" d="M746.2,253.275c-11.628-3.082-70.313-1.964-78.966,6.052l87.494,1.514C752,257.45,750.673,254.463,746.2,253.275Z" transform="translate(-667.23 -245.332)" fill="#0a090a"/>
        </g>
        <g id="Group_22205" data-name="Group 22205" transform="translate(93.237 29.748)">
          <g id="Group_22203" data-name="Group 22203" transform="translate(12.473 6.597)">
            <path id="Path_34721" data-name="Path 34721" d="M544.466,271.334l-8.837-2.6-1.609,1.839s5.668,5.005,6.868,6.265C543.249,279.32,549.653,273.2,544.466,271.334Z" transform="translate(-534.02 -268.73)" fill="#0f3044"/>
            <path id="Path_34722" data-name="Path 34722" d="M536.246,272.3s3.535,3.134,5.216,3.714,4.129-1.384,3.137-2.465l1.1.323c5.187,1.868-1.217,7.987-3.578,5.5-.983-1.035-4.965-4.581-6.369-5.827Z" transform="translate(-535.251 -271.271)" fill="#134b6b"/>
          </g>
          <g id="Group_22204" data-name="Group 22204">
            <path id="Path_34723" data-name="Path 34723" d="M509.7,252l-1.641-1.987a10.848,10.848,0,0,0-6.086-3.572l-5.493-.577a3.794,3.794,0,0,0-3.033,1.525,8.538,8.538,0,0,0-1.816,3.471l-.585,2.22a6.18,6.18,0,0,0-.078,3.362,1.9,1.9,0,0,0,2.145,1.5l15.757-2.237C510.781,255.432,511.156,253.763,509.7,252Z" transform="translate(-490.765 -245.848)" fill="#134b6b"/>
            <path id="Path_34724" data-name="Path 34724" d="M502.7,255.8l-1.26-1.528a8.349,8.349,0,0,0-4.682-2.748l-3.327-.349a8.539,8.539,0,0,0-1.816,3.471l-.585,2.22a6.181,6.181,0,0,0-.078,3.362l11.112-1.577C503.537,258.446,503.825,257.163,502.7,255.8Z" transform="translate(-490.758 -249.643)" fill="#0a090a" opacity="0.4"/>
          </g>
        </g>
        <g id="Group_22206" data-name="Group 22206" transform="translate(130.272 56.9)">
          <path id="Path_34725" data-name="Path 34725" d="M627.453,342.759c0,.741-.891,1.349-1.978,1.349h-4.287c-1.087,0-1.978-.605-1.978-1.349v-1.39c0-.741.888-1.349,1.978-1.349h4.287c1.087,0,1.978.605,1.978,1.349Z" transform="translate(-619.21 -340.02)" fill="#0f3044"/>
          <path id="Path_34726" data-name="Path 34726" d="M631.963,343.777a1.047,1.047,0,1,1-1.047-1.067A1.057,1.057,0,0,1,631.963,343.777Z" transform="translate(-626.796 -341.934)" fill="#185f87"/>
        </g>
        <g id="Group_22207" data-name="Group 22207" transform="translate(292.944 59.414)">
          <path id="Path_34727" data-name="Path 34727" d="M1200.983,361.567a107,107,0,0,1-17.573-.3c.435-.3.856-.605,1.266-.923.51-.395,1-.8,1.482-1.223.208-.179.41-.36.611-.545,3.532-3.215,6.323-6.92,9.737-9.84.112.133.228.271.34.412.092.115.187.234.282.355l-.026.026a24.552,24.552,0,0,1,1.687,2.993c.245.519.479,1.064.7,1.629q.26.675.484,1.393c.029.1.061.2.089.294.037.127.075.254.109.383q.125.45.234.917c.029.118.055.239.081.357.011.046.02.092.029.138s.017.075.023.115c.012.061.026.124.038.185v0c.014.075.029.153.043.228s.029.156.04.234.026.156.04.236c0,.009,0,.017.006.026l.069.45c.035.239.063.484.089.729.017.17.034.343.049.519.006.058.009.115.014.173.009.1.015.2.02.3,0,.055.006.112.009.167,0,.017,0,.037,0,.055.006.078.009.153.011.228,0,.058.006.118.006.176S1200.98,361.539,1200.983,361.567Z" transform="translate(-1183.41 -348.74)" fill="#0a090a"/>
          <path id="Path_34728" data-name="Path 34728" d="M1208.865,357.953c-1.006.124-2,.228-2.978.309-2.71.231-5.239.32-7.231.346h0c-1.615.02-2.878,0-3.6-.017,3.532-3.215,6.323-6.92,9.737-9.84.112.133.228.271.34.412.092.115.187.234.282.355l-.026.026a24.532,24.532,0,0,1,1.687,2.993c.245.519.479,1.064.7,1.629q.259.675.484,1.393c.029.1.061.2.09.294.037.127.075.254.109.383q.125.45.234.917c.029.118.055.239.081.357.012.046.02.092.029.138s.017.075.023.115C1208.842,357.829,1208.853,357.89,1208.865,357.953Z" transform="translate(-1191.701 -348.747)" fill="#f2e1dd"/>
          <path id="Path_34729" data-name="Path 34729" d="M1221.819,356.125c-3.2.245-5.963.213-7.029.185,1.69-1.537,3.137-3.235,4.645-4.809a24.534,24.534,0,0,1,1.687,2.993Q1221.489,355.276,1221.819,356.125Z" transform="translate(-1205.743 -350.704)" fill="#fff"/>
        </g>
        <g id="Group_22208" data-name="Group 22208" transform="translate(224.304 80.05)">
          <path id="Path_34730" data-name="Path 34730" d="M1011.675,421.57,1005.94,436.2a1.9,1.9,0,0,1-1.473,1.263h-51.35a1.976,1.976,0,0,1-1.511-1.263l-6.144-14.629c-.291-.7.023-1.26.706-1.26h64.769C1011.618,420.307,1011.949,420.872,1011.675,421.57Z" transform="translate(-945.351 -420.31)" fill="#0f0d0f"/>
          <path id="Path_34731" data-name="Path 34731" d="M1004.993,421.57,999.259,436.2a1.9,1.9,0,0,1-1.473,1.263H953.107A1.976,1.976,0,0,1,951.6,436.2l-6.144-14.629c-.291-.7.023-1.26.706-1.26h58.094C1004.936,420.307,1005.267,420.872,1004.993,421.57Z" transform="translate(-945.344 -420.31)" fill="#0a090a"/>
        </g>
        <path id="Path_34732" data-name="Path 34732" d="M1010.17,300.27s24.32.764,40.036,11.836S1010.17,300.27,1010.17,300.27Z" transform="translate(-767.175 -254.831)" fill="#134b6b"/>
      </g>
    </g>
    <g id="Group_22248" data-name="Group 22248" transform="translate(271.605 43.003)">
      <path id="Path_34733" data-name="Path 34733" d="M1114.994,804.671c0,1.22-11.017,2.211-68.638,2.211s-104.335-.989-104.335-2.211,46.714-2.211,104.335-2.211S1114.994,803.452,1114.994,804.671Z" transform="translate(-942.02 -614.096)" fill="#1c1028" opacity="0.23"/>
      <g id="Group_22247" data-name="Group 22247" transform="translate(24.028)">
        <g id="Group_22225" data-name="Group 22225">
          <path id="Path_34734" data-name="Path 34734" d="M1169.31,504.78c-1.7,1.133-3.913,2.606-4.7,4.593-.516,1.295.13,3.5.554,4.858a15.814,15.814,0,0,0,5.622-8.134Z" transform="translate(-1124.323 -402.244)" fill="#f9bb85"/>
          <g id="Group_22214" data-name="Group 22214" transform="translate(11.196 99.96)">
            <g id="Group_22212" data-name="Group 22212" transform="translate(18.951 3.219)">
              <g id="Group_22211" data-name="Group 22211" transform="translate(8.263 72.516)">
                <path id="Path_34735" data-name="Path 34735" d="M1160.829,771.03h-1.43l-.819-12.51h3.272Z" transform="translate(-1158.58 -758.52)" fill="#f9bb85"/>
                <path id="Path_34736" data-name="Path 34736" d="M1159.295,797.93l-.715,3.339h6.928l-4.584-3.339Z" transform="translate(-1158.58 -786.567)" fill="#fff"/>
              </g>
              <path id="Path_34737" data-name="Path 34737" d="M1142.681,507.016l-.773,60.179-.245,19.13h-4.175q-.177-.9-.349-1.819c-.868-4.613-1.629-9.437-2.3-14.324-3.918-28.385-4.809-58.939-4.916-63.171h12.761Z" transform="translate(-1129.92 -507.01)" fill="#040a11"/>
              <path id="Path_34738" data-name="Path 34738" d="M1153.644,507.023l-.773,60.179-.245,19.13h-4.175c-.865-4.613-1.978-11.253-2.652-16.14-1.249-26.09.3-54.317.856-63.171h6.989Z" transform="translate(-1140.882 -507.017)" fill="#051326"/>
            </g>
            <path id="Path_34739" data-name="Path 34739" d="M1126.518,496.068c-2-.072-4.039-.314-6.084-.187-1.615.1-4.065,1.075-5.556.479l-1.228,16.117a9.9,9.9,0,0,1,6.441-6.141c2.537-.6,4.135.715,5.519,2.644.643-2.041.3-4.832.464-6.992A58.915,58.915,0,0,1,1126.518,496.068Z" transform="translate(-1099.39 -495.845)" fill="#051326"/>
            <g id="Group_22213" data-name="Group 22213" transform="translate(0 75.735)">
              <path id="Path_34740" data-name="Path 34740" d="M1071.4,771.03h-1.43l-.819-12.51h3.272Z" transform="translate(-1067.72 -758.52)" fill="#f9bb85"/>
              <path id="Path_34741" data-name="Path 34741" d="M1066.335,797.93l-2.145,3.339h5.928l-2.154-3.339Z" transform="translate(-1064.19 -786.567)" fill="#fff"/>
            </g>
            <path id="Path_34742" data-name="Path 34742" d="M1086.592,507.03l-17.573,79.312H1065.1c.585-28.426,6.213-66.5,8.22-79.312Z" transform="translate(-1064.838 -503.805)" fill="#051326"/>
            <path id="Path_34743" data-name="Path 34743" d="M1078.521,507.03c-2.849,11.331-9.068,39.8-13.421,79.312.585-28.426,6.213-66.5,8.22-79.312Z" transform="translate(-1064.838 -503.805)" fill="#040a11"/>
          </g>
          <path id="Path_34744" data-name="Path 34744" d="M1159.155,419.77s-5.155,3.477-7.125,5.694c-1.456,1.641,5.908,20.324,6.695,21.59a11.994,11.994,0,0,0,3.737-.441C1162.214,445.849,1160.161,426.517,1159.155,419.77Z" transform="translate(-1115.373 -341.744)" fill="#ff725e"/>
          <path id="Path_34745" data-name="Path 34745" d="M1153.546,355.991c-5.412-3.93-7.462-21.953-6.349-33.506a24.62,24.62,0,0,1,1.816-8.027c1.828-3.641,8.644-9.817,8.569,7.577-.009,1.914-1.793,22.062-1.076,26.609C1156.761,350.25,1153.82,356.19,1153.546,355.991Z" transform="translate(-1111.86 -263.872)" fill="#ff725e"/>
          <g id="Group_22216" data-name="Group 22216" transform="translate(11.047 27.331)">
            <path id="Path_34746" data-name="Path 34746" d="M1096.876,351.8c.032.262-6.654,1.791-12.447,1.165-3.039-.329-5.833-1.248-7.28-3.255-1.851-2.566-6.158,4.509-6.683,3.869-.43-.525-3.215-24.623-5.063-42.311-.862-8.24-1.519-15.088-1.643-17.516-.1-1.857-.354-4.512.972-5.7a7.19,7.19,0,0,1,1.626-.793c3.379-1.358,10.818-3.667,13.493-4.723,0,0,14.09,6.781,15.272,8.232,2.021,2.48.228,21.535-.323,23.42C1092.456,322.187,1096.014,344.872,1096.876,351.8Z" transform="translate(-1063.674 -271.412)" fill="#d85745"/>
            <g id="Group_22215" data-name="Group 22215" transform="translate(11.993)">
              <path id="Path_34747" data-name="Path 34747" d="M1117.821,284.957l-12.551-27.95s5.409-1.937,6.412-12.582c.182-1.923,7.153,2.549,7.153,2.549-.643,1.8.159,4.339.519,6.112.012.049,1.6-.346,1.612-.294C1121.333,254.706,1117.821,284.957,1117.821,284.957Z" transform="translate(-1105.27 -243.944)" fill="#f9bb85"/>
            </g>
          </g>
          <path id="Path_34748" data-name="Path 34748" d="M1088.7,396.68c-3.039-.329-5.833-1.248-7.28-3.255-1.851-2.566-6.159,4.509-6.683,3.869-.429-.525-3.215-24.623-5.063-42.311a40.406,40.406,0,0,1,5.135-11.023l-.577,5.72a21.29,21.29,0,0,1-.282,3.368c-.136,1.655-.291,3.264-.291,4.962a55.857,55.857,0,0,0,.288,7.661c1.026,7.312,2.6,15.918,6.787,22.181a32.869,32.869,0,0,0,7.73,8.658C1088.538,396.567,1088.616,396.622,1088.7,396.68Z" transform="translate(-1056.894 -287.792)" fill="#af4839"/>
          <path id="Path_34749" data-name="Path 34749" d="M1090.221,511.463a8.291,8.291,0,0,0,5.314-3.616c-2.445-3.3-4.192-4.521-4.893-5.527l-3.547.908C1086.583,505.6,1090.16,511.408,1090.221,511.463Z" transform="translate(-1069.26 -400.493)" fill="#f9bb85"/>
          <path id="Path_34750" data-name="Path 34750" d="M1128.4,308.886c-1.955-.2-3.307-1.482-5.031-2.056l7.188,31.537c.424-3.12.107-14.05.582-17.164.692-4.515.681-9.737,2.128-14.059A6.622,6.622,0,0,1,1128.4,308.886Z" transform="translate(-1095.111 -261.367)" fill="#fff"/>
          <path id="Path_34751" data-name="Path 34751" d="M1110.4,282.983a4.652,4.652,0,0,0,3.451-.879c-2.087-1.871-6.484-1.381-6.83-3.892,0,0-1.439,14.211-1.491,33.411a304.636,304.636,0,0,0-8.283-38.612c-.346,2.511-6.882,5.83-8.97,7.7,1.5,1.228,6.957,2.047,6.957,2.047s-1.205,3.14-1.724,4.694c11.608,6.525,12.793,58.777,13.655,58.674.43-2.315-4.207-48.081,6.47-59.4C1113.119,285.171,1110.4,282.983,1110.4,282.983Z" transform="translate(-1070.138 -237.298)" fill="#ff725e"/>
          <g id="Group_22217" data-name="Group 22217" transform="translate(0 43.113)">
            <path id="Path_34752" data-name="Path 34752" d="M1040.988,311.317c-.1.461-.522,2.506-1.107,5.348-1.136,5.516-2.906,14.033-4.256,19.788-.427,1.822-.813,3.368-1.122,4.452a7.71,7.71,0,0,1-.579,1.632c-.937,1.318-6.574.208-6.776-.069a5.343,5.343,0,0,1-.386-.6c-3.388-6.02-.118-22.994,4.189-33.307a24.32,24.32,0,0,1,4.094-7.1C1037.86,298.55,1044.936,294.047,1040.988,311.317Z" transform="translate(-1025.358 -298.68)" fill="#d85745"/>
            <path id="Path_34753" data-name="Path 34753" d="M1050.021,450.5c-.072.052-.144.1-.216.15l-.17.118c-.764.51-3.6,2.918-4.449,3.223-1.084-.856-14.041-15.379-15.14-19.015a.971.971,0,0,1-.04-.614c.554-1.375,2.805-2.583,4.927-3.451a37.55,37.55,0,0,1,3.979-1.352c.121-.035.187-.052.187-.052.519,5.991,8.125,16.685,9.558,19A22.407,22.407,0,0,0,1050.021,450.5Z" transform="translate(-1028.642 -391.789)" fill="#d85745"/>
          </g>
          <g id="Group_22224" data-name="Group 22224" transform="translate(22.783)">
            <g id="Group_22218" data-name="Group 22218" transform="translate(19.616 7.124)">
              <path id="Path_34754" data-name="Path 34754" d="M1176.081,173.86c-.043.334,1.442,1.37,1.77,1.958a7.2,7.2,0,0,1,.735,3.584,11.577,11.577,0,0,1-2.817,6.825,23.214,23.214,0,0,0-1.566-5.5c-.392-1.047-.807-2.067-1.246-3.1-.075-.179-.3-.787-.4-.94Z" transform="translate(-1172.517 -173.86)" fill="#190d0d"/>
              <path id="Path_34755" data-name="Path 34755" d="M1172.455,183.612l-.04.032C1172.406,183.56,1172.423,183.56,1172.455,183.612Z" transform="translate(-1172.412 -180.775)" fill="#3f2421"/>
            </g>
            <path id="Path_34756" data-name="Path 34756" d="M1130.241,196.4c1.323.2,4.515-1.433,5.637-2.217,1.707-1.191,3.766-5.149,3.869-9.443a8.407,8.407,0,0,0-.063-1.093c-.1-.9-.288-1.929-.381-2.753-.135-1.211-2.22-5.9-1.834-7.055a8.823,8.823,0,0,0,.366-4.241,11.041,11.041,0,0,0-3.451-6.669c-3.907-3.123-10.244-2-11.888-.228-3.653,3.936-4.007,9.7-3.719,13.857.037.531.1,1.035.158,1.508.052.383.11.744.164,1.078a12.812,12.812,0,0,1,.306,2.3C1118.419,191.3,1125.613,195.684,1130.241,196.4Z" transform="translate(-1114.569 -157.556)" fill="#f9bb85"/>
            <g id="Group_22219" data-name="Group 22219" transform="translate(9.778 16.679)">
              <path id="Path_34757" data-name="Path 34757" d="M1141.133,211c.078-1.173.689-2.087,1.378-2.041s1.179,1.044,1.107,2.22-.689,2.09-1.372,2.041S1141.061,212.174,1141.133,211Z" transform="translate(-1140.308 -208.391)" fill="#382724"/>
              <path id="Path_34758" data-name="Path 34758" d="M1143.086,214.056c.02-.3.179-.542.358-.528s.306.271.285.574-.179.542-.355.528S1143.069,214.362,1143.086,214.056Z" transform="translate(-1141.702 -211.646)" fill="#fffdfd"/>
              <path id="Path_34759" data-name="Path 34759" d="M1138.29,208.387a6.267,6.267,0,0,1,3.967-.5,1.755,1.755,0,0,0-1.736-.891A3.016,3.016,0,0,0,1138.29,208.387Z" transform="translate(-1138.29 -207)" fill="#382724"/>
            </g>
            <path id="Path_34760" data-name="Path 34760" d="M1133.834,242.864c4.328.1,6.343-12.577,6.447-16.87a8.452,8.452,0,0,0-.063-1.093c-1.692-.049-4.679-.479-5.752-.332-3.5.476-6.334,1.762-9.823,1.514-.908-.063-1.7.21-2.191-.571-1.087-1.716-1.341-4.469-1.837-6.582l-1.145.392-.02.006a10.46,10.46,0,0,0,.185,1.073c.245,1.11.568,1.975.306,2.3C1117.507,233.193,1129.155,242.754,1133.834,242.864Z" transform="translate(-1115.104 -198.811)" fill="#281514"/>
            <g id="Group_22220" data-name="Group 22220" transform="translate(18.661 16.371)">
              <path id="Path_34761" data-name="Path 34761" d="M1171.952,209.927c.078-1.173.689-2.087,1.378-2.041s1.179,1.044,1.107,2.22-.689,2.09-1.372,2.041S1171.877,211.1,1171.952,209.927Z" transform="translate(-1171.124 -207.321)" fill="#382724"/>
              <path id="Path_34762" data-name="Path 34762" d="M1173.9,212.986c.02-.3.179-.542.357-.528s.306.271.286.574-.179.542-.355.528S1173.885,213.289,1173.9,212.986Z" transform="translate(-1172.518 -210.576)" fill="#fffdfd"/>
              <path id="Path_34763" data-name="Path 34763" d="M1169.1,207.317a6.267,6.267,0,0,1,3.967-.5,1.756,1.756,0,0,0-1.736-.891A3.016,3.016,0,0,0,1169.1,207.317Z" transform="translate(-1169.1 -205.93)" fill="#382724"/>
            </g>
            <path id="Path_34764" data-name="Path 34764" d="M1134.519,213.046c-.029-.187-.061-.369-.1-.554l-.747.061a3.369,3.369,0,0,1,.026.571Zm.94-.64-.557.046-.484.04-.747.061-1.277.107-.608.052-.548.046-6.424.539-1.323.11-.577.049-.6.052-4.956.415h-.014l-1.329.112-.185.017-.8.066-.164.014-.167.014.2.089.369.167.822.369.026.012.127.058.144.066.917-.087.066-.006,5-.476.23,3.936,5.945-.689.588-4.011,1.742-.15.542,3.91,4.977-.268.484-.026.251-4.772Zm-7.335,4.723-5.028.574-.135-2.33-.078-1.346,1.891-.141,3.936-.294Zm8.295-.579-.167.012-4.458.254-.36-2.333-.167-1.09.629-.055.386-.032.1-.009,0-.035,1.321-.133.822-.081.525-.052.017,0,1.548-.153Z" transform="translate(-1111.724 -194.071)" fill="#382724"/>
            <g id="Group_22221" data-name="Group 22221" transform="translate(12.863 27.166)">
              <path id="Path_34765" data-name="Path 34765" d="M1158.81,243.37c-.8,1.7-1.214,3.714-2.113,5.438h0c-.055.107-.113.21-.173.317a7.113,7.113,0,0,1-1.306,1.684c-1.32,1.228-2.791-.153-3.973-1.943-.078-.118-.156-.239-.23-.36-.173-.277-.338-.559-.493-.842h0a29.329,29.329,0,0,1-1.528-3.238.01.01,0,0,0,0-.006c.3.588,2.48.565,4.717.274S1158.248,243.849,1158.81,243.37Z" transform="translate(-1148.99 -243.37)" fill="#ef8f6f"/>
              <path id="Path_34766" data-name="Path 34766" d="M1157.71,246.9c-.366.7-.444,1.987-1.208,2.384-.931.484-5.1,1.367-5.971.894h0A29.306,29.306,0,0,1,1149,246.94a.01.01,0,0,0,0-.006C1149.3,247.526,1156.7,247.272,1157.71,246.9Z" transform="translate(-1148.997 -245.882)" fill="#fffdfd"/>
              <path id="Path_34767" data-name="Path 34767" d="M1161.488,255.17s.078.9.2,2.036h0c-.055.107-.113.21-.173.317a7.105,7.105,0,0,1-1.306,1.684c-1.32,1.228-2.791-.153-3.973-1.943-.078-.118-.156-.239-.231-.36Z" transform="translate(-1153.986 -251.768)" fill="#fffdfd"/>
            </g>
            <path id="Path_34768" data-name="Path 34768" d="M1104.65,157.333c.7.58,2.56,10.365,3.123,12.055l2.2,2.2c.029-.009.055-.02.084-.029.173-1.075.037-1.8.144-2.468a2.857,2.857,0,0,1,1.127-1.779c1.493-1.306,1.45-2.249,1.263-4.212s.17-3.169,2.3-3.561c3.224-.6,6.715.36,9.947.473a4.923,4.923,0,0,0,4.734-2.869c1.444-2.5-.092-5.383-.314-7.989-.055.012-.11.02-.164.029a43.162,43.162,0,0,1-5.844.441,63.949,63.949,0,0,0-8.344,1.021,11.788,11.788,0,0,0-4.6,2.168c-1.35.943-3.059,1.828-3.584,3.492a8.123,8.123,0,0,0-1.125-1.465,9.027,9.027,0,0,0,.306,2.653C1105.472,157.454,1105.054,157.379,1104.65,157.333Z" transform="translate(-1104.571 -149.15)" fill="#281514"/>
            <g id="Group_22222" data-name="Group 22222" transform="translate(0 18.5)">
              <path id="Path_34769" data-name="Path 34769" d="M1104.672,217.482c1.537,2.909,4.377,4.553,5.037,2.546s-1.744-7.684-3.255-6.571S1103.818,215.876,1104.672,217.482Z" transform="translate(-1104.377 -213.314)" fill="#f9bb85"/>
              <path id="Path_34770" data-name="Path 34770" d="M1111.144,221.481c-.522-1.349-1.364-2.5-2-2.03a3.954,3.954,0,0,0-1.421,1.592c-.127-.19-.248-.392-.36-.6-.626-1.179.2-2.145,1.312-2.964C1109.622,216.776,1111.04,219.688,1111.144,221.481Z" transform="translate(-1106.351 -216.2)" fill="#c7b299"/>
            </g>
            <path id="Path_34771" data-name="Path 34771" d="M1122.181,169.087a2.859,2.859,0,0,1,1.127-1.779c1.494-1.306,1.45-2.249,1.263-4.212s.17-3.169,2.3-3.561c3.224-.6,6.715.36,9.947.473a4.923,4.923,0,0,0,4.734-2.869c1.445-2.5-.092-5.383-.314-7.989-.055.012-.109.02-.164.029-.334,1.531-.124,3.036-.415,4.587-.444,2.344-2,2.338-3.526,3.417,1.185-1.4.9-2.448.6-4.065a3.905,3.905,0,0,1-3.544,2.918,6.949,6.949,0,0,0-.527-1.5c-.865,1.554-3.8,1.929-5.377,1.987-1.733.066-4.705.014-6.121,1.156-1.346,1.087-.349,3.206.167,4.532a9.1,9.1,0,0,1,.946,2.583c.006.761-.6,1.349-.845,2.09A7.539,7.539,0,0,0,1122.181,169.087Z" transform="translate(-1116.555 -149.15)" fill="#190d0d"/>
            <path id="Path_34772" data-name="Path 34772" d="M1134.17,199.349c-.006.513,1.424.949,3.2.975s3.218-.369,3.223-.882-1.424-.949-3.2-.975S1134.176,198.836,1134.17,199.349Z" transform="translate(-1125.58 -184.247)" fill="#281514"/>
            <path id="Path_34773" data-name="Path 34773" d="M1168.757,196.844c.141.493,1.349.568,2.7.17s2.333-1.122,2.194-1.615-1.349-.568-2.7-.17S1168.615,196.351,1168.757,196.844Z" transform="translate(-1150.185 -181.762)" fill="#281514"/>
            <g id="Group_22223" data-name="Group 22223" transform="translate(17.675 20.572)">
              <path id="Path_34774" data-name="Path 34774" d="M1165.68,225.866c.646-.652,1.424-1.1,2.076-1.652a23.7,23.7,0,0,1-1.283-3.714c-.268.876.017,3.639-.121,4.106A11.443,11.443,0,0,1,1165.68,225.866Z" transform="translate(-1165.68 -220.5)" fill="#c7b299"/>
            </g>
          </g>
          <path id="Path_34775" data-name="Path 34775" d="M1061.179,394.686c-.072.052-.144.1-.216.15-.856-.871-1.583-1.969-2.355-2.869a40.978,40.978,0,0,1-3.379-4.071c-2.044-3.114-4.85-7.009-5.712-10.651-.19.317-.378.64-.574.954a12.3,12.3,0,0,1-.724,1.067,8.532,8.532,0,0,1,.764-4.991,14.22,14.22,0,0,1-3.333,1.577,2.505,2.505,0,0,1,.438-.753,6.558,6.558,0,0,1,2.684-1.9c.147-3,4.478-19.044,7.785-22.123-2.445,5.135-5.141,16.91-6.49,22.665.121-.035.188-.052.188-.052.519,5.991,8.125,16.685,9.558,19A23.047,23.047,0,0,0,1061.179,394.686Z" transform="translate(-1039.799 -292.859)" fill="#af4839"/>
          <path id="Path_34776" data-name="Path 34776" d="M1138.831,439.439a.783.783,0,1,1-.755-.989A.895.895,0,0,1,1138.831,439.439Z" transform="translate(-1105.039 -355.038)" fill="#330017"/>
          <path id="Path_34777" data-name="Path 34777" d="M1141.071,471.869a.783.783,0,1,1-.755-.989A.894.894,0,0,1,1141.071,471.869Z" transform="translate(-1106.633 -378.118)" fill="#330017"/>
          <path id="Path_34778" data-name="Path 34778" d="M1143.321,504.3a.783.783,0,1,1-.755-.989A.895.895,0,0,1,1143.321,504.3Z" transform="translate(-1108.234 -401.198)" fill="#330017"/>
        </g>
        <g id="Group_22246" data-name="Group 22246" transform="translate(53.675 4.322)">
          <g id="Group_22229" data-name="Group 22229" transform="translate(0 25.571)">
            <path id="Path_34779" data-name="Path 34779" d="M1353.273,327.913a8.932,8.932,0,0,0,4.492,1.765,50.563,50.563,0,0,0,5.815.1c8.638-.283,19.165-1.989,20.185-1.857l7.47-12.787c.2-.271.479-.2.5-.649-7.295-2.756-20.425,6.245-30.571,7.148-.484.043-.943.092-1.381.144-5.126.614-7.344,1.854-7.851,3.177C1351.534,325.973,1352.169,327.048,1353.273,327.913Z" transform="translate(-1330.063 -296.333)" fill="#ff725e"/>
            <g id="Group_22228" data-name="Group 22228">
              <g id="Group_22227" data-name="Group 22227">
                <path id="Path_34780" data-name="Path 34780" d="M1277.177,256.076a7.934,7.934,0,0,1,1.479,1.061.649.649,0,0,0,.153.611,5.534,5.534,0,0,0,1.577,1.205c2.318,1.358,6.179,2.846,6.879,3.6l1.45-1.13.819-.64.014-.009s0-.006-.006-.009c-1.061-1.41-1.237-3.27-2.024-4.841a7.122,7.122,0,0,0-3.93-3.094,4.771,4.771,0,0,0,.657,1.938c-1.626.369-6.715-1.107-7.877.242.557.441,1.2.357,1.773.856C1277.69,255.86,1277.177,255.647,1277.177,256.076Z" transform="translate(-1276.37 -252.83)" fill="#f9bb85"/>
                <g id="Group_22226" data-name="Group 22226" transform="translate(4.016 4.155)">
                  <path id="Path_34781" data-name="Path 34781" d="M1308.314,267.358c-.055-.04-.107-.081-.164-.118A1.311,1.311,0,0,1,1308.314,267.358Z" transform="translate(-1303.003 -267.24)" fill="#c7b299"/>
                  <path id="Path_34782" data-name="Path 34782" d="M1322.048,280.35l-.009.017.015-.009A.039.039,0,0,1,1322.048,280.35Z" transform="translate(-1312.888 -276.57)" fill="#c7b299"/>
                  <path id="Path_34783" data-name="Path 34783" d="M1290.3,269.508c2.318,1.358,6.179,2.846,6.879,3.6l1.45-1.13c-.063-.185-.121-.369-.17-.5a6.718,6.718,0,0,0-1.032-1.825,9.7,9.7,0,0,0-1.817-2,5.875,5.875,0,0,1,1.384,2.122c.314.66.779,2.65-.479,1.5C1295.847,270.656,1292.462,269.8,1290.3,269.508Z" transform="translate(-1290.3 -267.539)" fill="#c7b299"/>
                </g>
              </g>
              <path id="Path_34784" data-name="Path 34784" d="M1312.74,280.009c3.468,6.173,10.175,20.964,12.72,21.947l0,0,2.863-2,4.388-3.074q-.29-.463-.741-1.07a181.281,181.281,0,0,0-17-18.326c-.7.856-1.439,1.62-2.232,2.517C1312.743,280,1312.74,280.006,1312.74,280.009Z" transform="translate(-1302.254 -270.373)" fill="#ff725e"/>
            </g>
            <path id="Path_34785" data-name="Path 34785" d="M1312.74,286.236c3.468,6.173,10.175,20.964,12.72,21.947l0,0a8.931,8.931,0,0,0,4.492,1.765,50.583,50.583,0,0,0,5.815.1c-.92-.13-1.831-.277-2.725-.473a13.712,13.712,0,0,1-4.169-1.416c-1.069-.654-.793-1.113-.551-1.972a4.82,4.82,0,0,0,.156-.718,2.218,2.218,0,0,1-2.229,1.465,3.331,3.331,0,0,1-2.131-1.71c-.6-.908-10.423-17.853-11.374-18.986C1312.743,286.23,1312.74,286.233,1312.74,286.236Z" transform="translate(-1302.254 -276.6)" fill="#d85745"/>
          </g>
          <g id="Group_22233" data-name="Group 22233" transform="translate(46.189 96.041)">
            <g id="Group_22231" data-name="Group 22231" transform="translate(0 3.211)">
              <g id="Group_22230" data-name="Group 22230" transform="translate(0 72.184)">
                <path id="Path_34786" data-name="Path 34786" d="M1450.218,771.2h1.424l.813-12.456H1449.2Z" transform="translate(-1445.558 -758.74)" fill="#f9bb85"/>
                <path id="Path_34787" data-name="Path 34787" d="M1442.755,797.98l.712,3.324h-6.9l4.564-3.324Z" transform="translate(-1436.57 -786.666)" fill="#fff"/>
              </g>
              <path id="Path_34788" data-name="Path 34788" d="M1444.96,508.38l.77,59.91.245,19.047h4.155q.177-.9.346-1.811c.862-4.593,1.623-9.393,2.3-14.257,3.9-28.258,4.786-58.674,4.893-62.889Z" transform="translate(-1442.541 -508.38)" fill="#040a11"/>
              <path id="Path_34789" data-name="Path 34789" d="M1444.96,508.38l.77,59.91.245,19.047h4.155c.862-4.593,1.969-11.2,2.641-16.068,1.243-25.972-.294-54.075-.853-62.889Z" transform="translate(-1442.541 -508.38)" fill="#051326"/>
            </g>
            <path id="Path_34790" data-name="Path 34790" d="M1460.8,497.468c1.992-.072,4.019-.314,6.058-.187,1.609.1,4.048,1.073,5.53.476l1.222,16.045a9.854,9.854,0,0,0-6.412-6.112c-2.526-.594-4.117.712-5.5,2.632-.64-2.033-.3-4.812-.461-6.96C1461.085,501.4,1461.143,499.38,1460.8,497.468Z" transform="translate(-1453.814 -497.245)" fill="#051326"/>
            <g id="Group_22232" data-name="Group 22232" transform="translate(28.088 75.395)">
              <path id="Path_34791" data-name="Path 34791" d="M1539.238,771.2h1.424l.816-12.456h-3.258Z" transform="translate(-1537 -758.74)" fill="#f9bb85"/>
              <path id="Path_34792" data-name="Path 34792" d="M1537.755,797.98l2.136,3.324h-5.9l2.145-3.324Z" transform="translate(-1533.99 -786.666)" fill="#fff"/>
            </g>
            <path id="Path_34793" data-name="Path 34793" d="M1479.35,508.38l17.5,78.957h3.9c-.583-28.3-6.184-66.207-8.183-78.957Z" transform="translate(-1467.015 -505.169)" fill="#051326"/>
            <path id="Path_34794" data-name="Path 34794" d="M1507.22,508.38c2.837,11.282,9.027,39.621,13.361,78.957-.582-28.3-6.185-66.207-8.182-78.957Z" transform="translate(-1486.85 -505.169)" fill="#040a11"/>
          </g>
          <g id="Group_22243" data-name="Group 22243" transform="translate(44.801)">
            <path id="Path_34795" data-name="Path 34795" d="M1475.42,384.418c-.294-15.627-.47-35.882-1.11-43.978.4-1.176,1.646-8.255,2.35-8.58.669.309,3.538,7.254,4.9,8.4-1.185,8.4-2.834,28.636-4.181,44.154Z" transform="translate(-1462.04 -283.503)" fill="#ddd0d0"/>
            <path id="Path_34796" data-name="Path 34796" d="M1435.193,370.454s5.146,1.081,8.823,1.545h1.537c-.225-9.838-.778-33.9-1.49-43.482-.006-.075-.009-.15-.017-.225s-.011-.185-.02-.271c.4-1.173,1.646-8.255,2.347-8.58.669.309,3.541,7.254,4.9,8.4-.012.092-.026.187-.038.285-.023.15-.043.306-.066.464-1.338,9.938-3.422,33.688-4.256,43.4h2.255c1.935-.231,4.342-.611,6.274-.937,1.975-.332,3.466-.608,3.466-.608-.164-7.061,2.886-18.836,5.873-29.2,3-10.449,5.948-19.47,5.461-20.8-.819-2.237-3.082-3.169-5.32-4.013l0,0a.01.01,0,0,0-.006,0,13.836,13.836,0,0,1-4.086-2.021h-19.047c-.441.136-1.139.358-1.992.634-1.217.4-2.745.911-4.25,1.445a18.779,18.779,0,0,0-2.949,1.1C1429.253,319.265,1437.122,361.761,1435.193,370.454Z" transform="translate(-1431.754 -271.084)" fill="#ff725e"/>
            <path id="Path_34797" data-name="Path 34797" d="M1478.9,345.38h-1.571l-1.661,36.914,1.958,4.481,2.318-2.912Z" transform="translate(-1463.008 -293.125)" fill="#b52212"/>
            <path id="Path_34798" data-name="Path 34798" d="M1476.218,331.86l-3.157.4c-.251.931-.98.415-1.171,1.45,1,.346,2.523,4.662,3.679,4.088.626-.311,2.756-4.189,3.082-4.953A10.005,10.005,0,0,0,1476.218,331.86Z" transform="translate(-1460.318 -283.503)" fill="#b52212"/>
            <path id="Path_34799" data-name="Path 34799" d="M1523.92,314.322c.28.383.023-.19,0,0Z" transform="translate(-1497.347 -270.993)" fill="#fff"/>
            <g id="Group_22242" data-name="Group 22242" transform="translate(3.724)">
              <g id="Group_22234" data-name="Group 22234" transform="translate(6.938 28.533)">
                <path id="Path_34800" data-name="Path 34800" d="M1481.286,274.3l-6.981,11.371a11.317,11.317,0,0,0-1.614-2.742c-.3.141-.7,1.531-1.1,3.166-1.222-2.958-3.1-7.808-2.837-9.169,0-.02.2-.533.45-1.2.476-1.251,1.156-3.039,1.165-3.074.375-1.851,1.211-4.506.542-6.381,0,0,7.4-4.679,7.468-2.664.144,4.708.8,7.355,1.453,8.834a5.644,5.644,0,0,0,.712,1.231A1.732,1.732,0,0,0,1481.286,274.3Z" transform="translate(-1468.734 -263.102)" fill="#f9bb85"/>
              </g>
              <g id="Group_22241" data-name="Group 22241">
                <g id="Group_22235" data-name="Group 22235" transform="translate(0 7.442)">
                  <path id="Path_34801" data-name="Path 34801" d="M1447.288,189.95c.046.349-1.505,1.43-1.848,2.044a7.558,7.558,0,0,0-.767,3.742,12.084,12.084,0,0,0,2.941,7.127,24.073,24.073,0,0,1,1.635-5.738c.409-1.093.842-2.157,1.3-3.232.078-.185.317-.822.415-.983Z" transform="translate(-1444.67 -189.95)" fill="#190d0d"/>
                  <path id="Path_34802" data-name="Path 34802" d="M1466.5,200.127l.04.032C1466.552,200.072,1466.532,200.072,1466.5,200.127Z" transform="translate(-1460.206 -197.166)" fill="#3f2421"/>
                </g>
                <path id="Path_34803" data-name="Path 34803" d="M1482.412,272.443a15.557,15.557,0,0,1-7.839,3.61,2.526,2.526,0,0,1-2.223-1.649,17.443,17.443,0,0,0,.6-1.753c.375-1.851,1.211-4.506.542-6.381,0,0,7.4-4.679,7.468-2.664C1481.1,268.314,1481.758,270.961,1482.412,272.443Z" transform="translate(-1464.369 -234.569)" fill="#c7b299"/>
                <path id="Path_34804" data-name="Path 34804" d="M1456.06,212.632a10.468,10.468,0,0,1-5.5-1.453c-1.782-1.246-3.93-5.377-4.04-9.858a8.7,8.7,0,0,1,.066-1.142c.1-.943.3-2.015.395-2.875.141-1.266,2.318-6.156,1.915-7.367a9.193,9.193,0,0,1-.381-4.426,11.511,11.511,0,0,1,3.6-6.96c4.077-3.261,10.694-2.093,12.412-.236,3.814,4.109,4.184,10.123,3.884,14.468-.04.554-.1,1.081-.164,1.574-.052.4-.112.776-.17,1.127a13.506,13.506,0,0,0-.32,2.4C1468.781,208.166,1460.892,211.886,1456.06,212.632Z" transform="translate(-1445.983 -172.936)" fill="#f9bb85"/>
                <g id="Group_22236" data-name="Group 22236" transform="translate(12.47 17.42)">
                  <path id="Path_34805" data-name="Path 34805" d="M1492.867,228.716c-.08-1.225-.721-2.18-1.438-2.131s-1.231,1.09-1.156,2.318.718,2.183,1.433,2.131S1492.942,229.947,1492.867,228.716Z" transform="translate(-1489.589 -226)" fill="#382724"/>
                  <path id="Path_34806" data-name="Path 34806" d="M1495.6,231.909c-.02-.317-.187-.565-.372-.551s-.317.283-.3.6.188.565.372.551S1495.618,232.229,1495.6,231.909Z" transform="translate(-1492.905 -229.398)" fill="#fffdfd"/>
                  <path id="Path_34807" data-name="Path 34807" d="M1492.06,226a6.536,6.536,0,0,0-4.14-.516,1.831,1.831,0,0,1,1.813-.928A3.144,3.144,0,0,1,1492.06,226Z" transform="translate(-1487.92 -224.56)" fill="#382724"/>
                </g>
                <g id="Group_22237" data-name="Group 22237" transform="translate(3.195 17.095)">
                  <path id="Path_34808" data-name="Path 34808" d="M1460.7,227.606c-.081-1.225-.721-2.18-1.439-2.131s-1.231,1.09-1.156,2.318.718,2.18,1.433,2.131S1460.772,228.834,1460.7,227.606Z" transform="translate(-1457.419 -224.884)" fill="#382724"/>
                  <path id="Path_34809" data-name="Path 34809" d="M1463.428,230.8c-.02-.317-.188-.565-.372-.551s-.317.283-.3.6.187.565.372.551S1463.448,231.116,1463.428,230.8Z" transform="translate(-1460.735 -228.282)" fill="#fffdfd"/>
                  <path id="Path_34810" data-name="Path 34810" d="M1459.89,224.877a6.536,6.536,0,0,0-4.14-.516,1.831,1.831,0,0,1,1.813-.931A3.146,3.146,0,0,1,1459.89,224.877Z" transform="translate(-1455.75 -223.43)" fill="#382724"/>
                </g>
                <g id="Group_22238" data-name="Group 22238" transform="translate(8.826 29.464)">
                  <path id="Path_34811" data-name="Path 34811" d="M1475.28,266.336h0v-.006S1475.28,266.333,1475.28,266.336Z" transform="translate(-1475.28 -266.33)" fill="#c7b299"/>
                </g>
                <path id="Path_34812" data-name="Path 34812" d="M1471.608,172.693c-.727.605-2.673,10.821-3.261,12.585l-2.295,2.3c-.029-.009-.058-.02-.087-.032-.182-1.122-.04-1.877-.15-2.575a2.984,2.984,0,0,0-1.176-1.857c-1.557-1.364-1.514-2.35-1.321-4.4s-.176-3.307-2.4-3.719c-3.368-.623-7.012.375-10.385.5-2.281.081-3.777-.983-4.942-3-1.508-2.606.1-5.619.329-8.341l.173.032a45.536,45.536,0,0,0,6.1.461,66.632,66.632,0,0,1,8.713,1.067,12.329,12.329,0,0,1,4.8,2.263c1.41.986,3.195,1.906,3.742,3.644a8.364,8.364,0,0,1,1.176-1.528,9.388,9.388,0,0,1-.32,2.768C1470.749,172.82,1471.187,172.742,1471.608,172.693Z" transform="translate(-1444.872 -164.147)" fill="#281514"/>
                <g id="Group_22239" data-name="Group 22239" transform="translate(21.136 19.318)">
                  <path id="Path_34813" data-name="Path 34813" d="M1523.349,235.491c-1.6,3.036-4.57,4.752-5.256,2.658s1.819-8.024,3.4-6.859S1524.24,233.813,1523.349,235.491Z" transform="translate(-1517.976 -231.14)" fill="#f9bb85"/>
                  <path id="Path_34814" data-name="Path 34814" d="M1520.32,239.66c.545-1.41,1.424-2.609,2.084-2.119a4.112,4.112,0,0,1,1.485,1.661c.133-.2.26-.409.378-.629.654-1.231-.208-2.237-1.369-3.1C1521.911,234.747,1520.43,237.789,1520.32,239.66Z" transform="translate(-1519.644 -234.147)" fill="#c7b299"/>
                </g>
                <path id="Path_34815" data-name="Path 34815" d="M1465.816,184.957a2.983,2.983,0,0,0-1.176-1.857c-1.557-1.364-1.514-2.35-1.321-4.4s-.176-3.307-2.4-3.719c-3.368-.623-7.012.375-10.385.5-2.281.081-3.777-.983-4.942-3-1.508-2.606.1-5.619.329-8.341l.173.032c.349,1.6.13,3.169.432,4.789.461,2.448,2.09,2.439,3.682,3.567-1.24-1.465-.937-2.555-.629-4.244a4.08,4.08,0,0,0,3.7,3.048,7.17,7.17,0,0,1,.551-1.566c.9,1.62,3.965,2.012,5.614,2.076,1.811.069,4.913.014,6.389,1.208,1.4,1.136.363,3.347-.173,4.731a9.513,9.513,0,0,0-.989,2.7c-.006.8.623,1.407.882,2.183A7.8,7.8,0,0,1,1465.816,184.957Z" transform="translate(-1444.872 -164.14)" fill="#190d0d"/>
                <path id="Path_34816" data-name="Path 34816" d="M1490.033,216.55c.009.536-1.488.992-3.339,1.018s-3.359-.386-3.365-.923,1.488-.992,3.339-1.018S1490.028,216.016,1490.033,216.55Z" transform="translate(-1472.183 -200.781)" fill="#281514"/>
                <path id="Path_34817" data-name="Path 34817" d="M1457.8,213.935c-.147.513-1.407.594-2.817.176s-2.436-1.171-2.289-1.687,1.407-.594,2.817-.176S1457.946,213.419,1457.8,213.935Z" transform="translate(-1450.372 -198.187)" fill="#281514"/>
                <g id="Group_22240" data-name="Group 22240" transform="translate(6.199 21.474)">
                  <path id="Path_34818" data-name="Path 34818" d="M1468.335,244.225c-.675-.68-1.488-1.148-2.165-1.727a24.611,24.611,0,0,0,1.338-3.878c.28.914-.017,3.8.127,4.287A11.977,11.977,0,0,0,1468.335,244.225Z" transform="translate(-1466.17 -238.62)" fill="#c7b299"/>
                </g>
                <path id="Path_34819" data-name="Path 34819" d="M1469.641,261.71c-.089.735-.17,1.4-.265,2.007-.311,1.992-.787,3.359-2.379,4.457-2.477,1.71-3.313-.891-4.506-2.555l-1-2.3a8.947,8.947,0,0,0,1.038.372A6.8,6.8,0,0,0,1469.641,261.71Z" transform="translate(-1456.641 -233.578)" fill="#ef8f6f"/>
                <path id="Path_34820" data-name="Path 34820" d="M1472.2,261.71c-.09.735-.17,1.4-.266,2.007a7,7,0,0,1-3.506,1.767c-1.035.193-2.1.45-2.753-.248a3.872,3.872,0,0,1-.591-1.545A6.807,6.807,0,0,0,1472.2,261.71Z" transform="translate(-1459.195 -233.578)" fill="#fffdfd"/>
              </g>
            </g>
            <path id="Path_34821" data-name="Path 34821" d="M1459.63,312.649c.384,3.025,1.586,12.66,4.088,13.765a2.212,2.212,0,0,1,.144-.79c.231-.669.732-3.252,1.254-5.415.392-1.635.8-3.024,1.1-3.166a11.6,11.6,0,0,1-3.613-5.028l-.035-.1c-.121-.369-.219-.666-.285-.871A10.65,10.65,0,0,1,1459.63,312.649Z" transform="translate(-1451.593 -268.685)" fill="#fff"/>
            <path id="Path_34822" data-name="Path 34822" d="M1482.46,308.73a11.249,11.249,0,0,1,1.615,2.742c1.1,2.18,2.468,4.971,3.287,5.663.432.363.7.7.689.966,2.5-1.1,5.98-11.374,6.363-14.4-.983-1.344-3.391-3.552-4.054-4.342h0c-.011.035-.026.075-.04.118-.257.678-1.084,2.3-2.113,4.224C1485.828,308.151,1482.46,308.73,1482.46,308.73Z" transform="translate(-1467.84 -260.373)" fill="#fff"/>
            <path id="Path_34823" data-name="Path 34823" d="M1458.551,316.344c-.052-.415-.957.5,0,0Z" transform="translate(-1450.514 -272.38)" fill="#fff"/>
            <path id="Path_34824" data-name="Path 34824" d="M1499.751,313.922s-7.43,26.86-14.315,47.36h-1.1c.83-9.716,2.918-33.466,4.256-43.4.02-.159.043-.314.063-.467.014-.1.026-.19.04-.285.724-5.121,1.442-9.737,2.119-13.433.3-1.641.594-3.1.877-4.342l0,0c.133.063,10.325,6.17,10.642,6.36a.011.011,0,0,1,.006,0v0c-3.307.516-7.895,3.376-8.517,5.772C1494.538,312.4,1499.751,313.922,1499.751,313.922Z" transform="translate(-1469.178 -260.366)" fill="#d85745"/>
            <path id="Path_34825" data-name="Path 34825" d="M1453.088,367.146l-9.687-47.922s5.15-.977,5.8-1.851c-1.173-.934-4.085-4.855-5.366-5.738-.029-.02-.058-.037-.086-.055a34.114,34.114,0,0,0,7.358-3.99c.055.395-.138,1.427-.086,1.863.006.035.009.069.014.1.424,3.466.856,8.183,1.283,13.609.009.089.015.182.02.274q.009.112.017.225c.709,9.578,1.263,33.644,1.49,43.482Z" transform="translate(-1440.042 -266.23)" fill="#d85745"/>
          </g>
          <g id="Group_22245" data-name="Group 22245" transform="translate(48.687 47.325)">
            <path id="Path_34826" data-name="Path 34826" d="M1541.99,342.967a31.545,31.545,0,0,1,.948,5.256c.669,4.8,1.491,11.83,2.044,16.59.132,1.13.248,2.136.343,2.95.127,1.087.216,1.839.257,2.113.38,2.572,2.3,4.328,4.175,3.6v-.006c1.987-.77,3.913-4.331,3.886-12.657-.014-4.991-.458-10.071-.894-15.01-.346-3.921-1.355-15.633-5.418-17.518-.386.259-.2.473-.349.807Z" transform="translate(-1514.093 -328.28)" fill="#ff725e"/>
            <path id="Path_34827" data-name="Path 34827" d="M1448.78,463.811a4.564,4.564,0,0,1-1.816-.879,6.988,6.988,0,0,1,4.916-.692c1.652.528,3.076,1.707,4.812,1.92l-.369,2.393c-.735.807-6.891,3.768-7.545,2.289a7.6,7.6,0,0,0-1.707.493c-.3-.3-.21-.666.109-1-.752.072-1.243.744-1.94.842C1445.109,467.389,1447.9,465.255,1448.78,463.811Z" transform="translate(-1445.235 -423.489)" fill="#f9bb85"/>
            <path id="Path_34828" data-name="Path 34828" d="M1479.78,457.82c.3,1.078.5,2.134.776,3.313,6.951.571,22.7,3.293,24.931,1.7v-8.978a28.833,28.833,0,0,0-3.221.161c-.49.046-1.009.1-1.557.159-1.649.185-3.523.435-5.464.724C1489.067,455.819,1482.2,457.113,1479.78,457.82Z" transform="translate(-1469.82 -417.648)" fill="#ff725e"/>
            <g id="Group_22244" data-name="Group 22244" transform="translate(19.472 10.959)">
              <path id="Path_34829" data-name="Path 34829" d="M1533.42,392.585a10.2,10.2,0,0,1,5.81,2.226c.061.058.115.112.173.17a3.756,3.756,0,0,0-.075-2.457,31.793,31.793,0,0,1,3.053,1.831,10.306,10.306,0,0,1-1.94-2.65,5.159,5.159,0,0,1-.262-1.05c-.26-1.681-3.739-22.93-3.9-24.366l.565,8.984c.669,4.8,1.49,11.83,2.044,16.59C1537.237,392.046,1535.36,392.3,1533.42,392.585Z" transform="translate(-1527.466 -366.29)" fill="#d85745"/>
              <path id="Path_34830" data-name="Path 34830" d="M1513.768,457.96c-.329.063-.66.13-1,.2C1513.087,458.081,1513.422,458.015,1513.768,457.96Z" transform="translate(-1512.77 -431.53)" fill="#061428"/>
            </g>
          </g>
        </g>
      </g>
    </g>
  </g>
</svg>
