<svg width="64" height="64" viewBox="0 0 64 64" fill="none" xmlns="http://www.w3.org/2000/svg">
<path d="M6 30.5031C6 42.9312 17.6415 53.0062 32 53.0062C34.5753 53.0119 37.14 52.6811 39.6278 52.0225C41.5258 52.974 45.884 54.8 53.216 55.9894C53.866 56.0923 54.36 55.4237 54.1033 54.8257C52.9528 52.1382 51.9128 48.557 51.6007 45.2908C55.582 41.3367 58 36.161 58 30.5031C58 18.075 46.3585 8 32 8C17.6415 8 6 18.075 6 30.5031ZM41.75 30.5031C41.75 29.6505 42.0924 28.8328 42.7019 28.2299C43.3114 27.6271 44.138 27.2884 45 27.2884C45.862 27.2884 46.6886 27.6271 47.2981 28.2299C47.9076 28.8328 48.25 29.6505 48.25 30.5031C48.25 31.3557 47.9076 32.1734 47.2981 32.7762C46.6886 33.3791 45.862 33.7178 45 33.7178C44.138 33.7178 43.3114 33.3791 42.7019 32.7762C42.0924 32.1734 41.75 31.3557 41.75 30.5031ZM28.75 30.5031C28.75 29.6505 29.0924 28.8328 29.7019 28.2299C30.3114 27.6271 31.138 27.2884 32 27.2884C32.862 27.2884 33.6886 27.6271 34.2981 28.2299C34.9076 28.8328 35.25 29.6505 35.25 30.5031C35.25 31.3557 34.9076 32.1734 34.2981 32.7762C33.6886 33.3791 32.862 33.7178 32 33.7178C31.138 33.7178 30.3114 33.3791 29.7019 32.7762C29.0924 32.1734 28.75 31.3557 28.75 30.5031ZM19 33.7178C18.138 33.7178 17.3114 33.3791 16.7019 32.7762C16.0924 32.1734 15.75 31.3557 15.75 30.5031C15.75 29.6505 16.0924 28.8328 16.7019 28.2299C17.3114 27.6271 18.138 27.2884 19 27.2884C19.862 27.2884 20.6886 27.6271 21.2981 28.2299C21.9076 28.8328 22.25 29.6505 22.25 30.5031C22.25 31.3557 21.9076 32.1734 21.2981 32.7762C20.6886 33.3791 19.862 33.7178 19 33.7178Z" fill="white"/>
</svg>
