<svg width="374" height="267" viewBox="0 0 374 267" fill="none" xmlns="http://www.w3.org/2000/svg">
<path opacity="0.25" d="M118.665 26.197H146.429C146.981 26.197 147.429 26.6447 147.429 27.197V92.9394C147.429 93.4917 146.981 93.9394 146.429 93.9394H68.2007C67.5181 93.9394 67.0362 93.2707 67.252 92.6232L80.1494 53.93C82.842 45.8508 88.0116 38.8241 94.9249 33.8462C101.838 28.8683 110.144 26.1921 118.665 26.197ZM118.665 26.197L118.665 26.697M118.665 26.197L118.665 26.697M118.665 26.197H118.665V26.697M118.665 26.197L118.665 26.697M253.505 35.5821L253.505 35.5822L283.734 92.2225L284.176 91.9871L283.734 92.2226C283.852 92.4424 284.047 92.6105 284.282 92.694L287.625 93.8817C287.732 93.9199 287.845 93.9394 287.959 93.9394H288.788C288.854 94.1903 289.04 94.3984 289.293 94.4881L329.433 108.754C342.325 113.338 353.482 121.796 361.371 132.969C369.261 144.141 373.498 157.48 373.5 171.154V180.205C373.5 189.099 370.931 197.805 366.103 205.277C361.322 212.676 354.526 218.554 346.517 222.222C346.218 222.359 346.004 222.634 345.946 222.959C343.823 234.768 337.745 245.508 328.705 253.413C319.6 261.375 308.039 265.979 295.949 266.458C283.86 266.938 271.971 263.263 262.263 256.047C252.657 248.907 245.761 238.727 242.693 227.171C242.577 226.734 242.181 226.424 241.724 226.424H132.276C131.819 226.424 131.423 226.734 131.307 227.171C128.239 238.727 121.343 248.907 111.737 256.047C102.029 263.263 90.1402 266.938 78.0505 266.458C65.9608 265.979 54.4004 261.375 45.2949 253.413C36.2552 245.508 30.1768 234.768 28.054 222.958C27.9957 222.634 27.7823 222.359 27.4837 222.222C11.5673 214.907 0.5 198.862 0.5 180.205V150.491C0.498577 137.458 4.34413 124.714 11.5553 113.855C18.725 103.058 28.9049 94.6015 40.8332 89.5294C41.0965 89.4175 41.3009 89.1979 41.3921 88.9245L55.7729 45.81L55.7729 45.8099C60.1701 32.6162 68.6108 21.1401 79.8987 13.0077C91.1867 4.8754 104.749 0.499433 118.665 0.5H195.014C207.03 0.50064 218.82 3.76524 229.122 9.94463C239.425 16.124 247.853 24.9858 253.505 35.5821ZM230.825 47.6589L230.384 47.8944L230.825 47.6589C227.363 41.1735 222.202 35.7506 215.895 31.9703C209.587 28.19 202.369 26.1944 195.014 26.197H174.143C173.591 26.197 173.143 26.6447 173.143 27.197V92.9394C173.143 93.4917 173.591 93.9394 174.143 93.9394H253.86C254.615 93.9394 255.098 93.1347 254.743 92.4685L230.825 47.6589ZM320.819 132.96L320.652 133.432L320.819 132.96L283.5 119.694C283.393 119.656 283.279 119.636 283.165 119.636H40.792C40.5521 119.636 40.3187 119.723 40.1362 119.882C31.5649 127.367 26.2143 138.394 26.2143 150.491L26.2143 180.203C26.2143 180.204 26.2143 180.204 26.2143 180.204C26.2029 184.52 27.5585 188.721 30.0753 192.211C30.5378 192.852 31.4814 192.698 31.7824 192.022C36.1586 182.19 43.435 173.92 52.647 168.323C62.0975 162.581 73.1102 159.942 84.1385 160.777C95.1667 161.612 105.656 165.878 114.134 172.976C122.513 179.992 128.511 189.426 131.307 199.98C131.423 200.418 131.819 200.727 132.276 200.727H241.724C242.181 200.727 242.577 200.418 242.693 199.98C245.489 189.426 251.487 179.992 259.866 172.976C268.344 165.878 278.833 161.612 289.862 160.777C300.89 159.942 311.903 162.581 321.353 168.323C330.564 173.919 337.84 182.188 342.216 192.019C342.518 192.696 343.464 192.849 343.925 192.205C346.349 188.824 347.786 184.681 347.786 180.205V171.154C347.785 162.785 345.192 154.621 340.364 147.783C335.536 140.944 328.709 135.767 320.819 132.96ZM60.8996 194.345C55.7959 199.445 52.9286 206.363 52.9286 213.576C52.9286 220.789 55.7959 227.707 60.8996 232.807C66.0033 237.908 72.9253 240.773 80.1429 240.773C87.3604 240.773 94.2824 237.908 99.3861 232.807C104.49 227.707 107.357 220.789 107.357 213.576C107.357 206.363 104.49 199.445 99.3861 194.345C94.2824 189.244 87.3604 186.379 80.1429 186.379C72.9253 186.379 66.0033 189.244 60.8996 194.345ZM313.1 194.345C307.997 189.244 301.075 186.379 293.857 186.379C286.64 186.379 279.718 189.244 274.614 194.345C269.51 199.445 266.643 206.363 266.643 213.576C266.643 220.789 269.51 227.707 274.614 232.807C279.718 237.908 286.64 240.773 293.857 240.773C301.075 240.773 307.997 237.908 313.1 232.807C318.204 227.707 321.071 220.789 321.071 213.576C321.071 206.363 318.204 199.445 313.1 194.345Z" stroke="#1985D2"/>
</svg>
