<svg width="32" height="32" viewBox="0 0 32 32" fill="none" xmlns="http://www.w3.org/2000/svg">
<g clip-path="url(#clip0_1303_40097)">
<path d="M27.973 3.41352C27.1187 2.56909 25.9956 2.05067 24.7987 1.94836C23.6019 1.84606 22.4071 2.16633 21.4219 2.85352C24.5888 4.17206 27.1759 6.58561 28.7108 9.65352C29.3032 8.68069 29.5525 7.53735 29.4188 6.40619C29.285 5.27503 28.776 4.22135 27.973 3.41352Z" fill="#1985D2"/>
<path d="M10.1513 3.05009C9.17017 2.27087 7.93775 1.87773 6.68664 1.94487C5.43553 2.01202 4.25227 2.53479 3.36018 3.41454C2.47545 4.30512 1.95146 5.49153 1.88909 6.74532C1.82673 7.99912 2.23041 9.23166 3.0224 10.2056C4.44865 7.03234 6.98333 4.48818 10.1513 3.05009Z" fill="#1985D2"/>
<path d="M14.5787 3.63442C12.2579 3.90553 10.0603 4.82454 8.23743 6.28627C6.41456 7.74801 5.04004 9.69341 4.27117 11.8998C3.5023 14.1063 3.37015 16.4846 3.88984 18.7627C4.40952 21.0407 5.56006 23.1264 7.20976 24.7811L4.9431 27.0478C4.8608 27.1318 4.79587 27.2312 4.752 27.3404C4.70813 27.4495 4.68619 27.5662 4.68743 27.6838C4.68867 27.8015 4.71306 27.9177 4.75921 28.0259C4.80537 28.1341 4.87238 28.2321 4.95643 28.3144C5.04048 28.3967 5.13991 28.4616 5.24905 28.5055C5.35819 28.5494 5.4749 28.5713 5.59252 28.5701C5.71015 28.5688 5.82637 28.5445 5.93456 28.4983C6.04276 28.4521 6.1408 28.3851 6.2231 28.3011L8.58754 25.9366C10.7498 27.5729 13.3903 28.4524 16.1018 28.4395C18.8133 28.4267 21.4453 27.5222 23.592 25.8655L26.0275 28.3011C26.1976 28.4467 26.4163 28.5228 26.64 28.5142C26.8637 28.5055 27.076 28.4128 27.2343 28.2545C27.3926 28.0962 27.4853 27.884 27.494 27.6602C27.5026 27.4365 27.4265 27.2178 27.2809 27.0478L24.8898 24.6922C26.6841 22.8542 27.8657 20.5059 28.2724 17.9697C28.6792 15.4334 28.2911 12.8334 27.1615 10.5265C26.0319 8.21954 24.2161 6.31867 21.9632 5.0847C19.7104 3.85074 17.1309 3.34414 14.5787 3.63442ZM17.4053 26.5766C15.1961 26.866 12.9517 26.4563 10.9872 25.4049C9.02265 24.3536 7.43668 22.7135 6.45188 20.7149C5.46707 18.7162 5.13287 16.4593 5.49619 14.261C5.8595 12.0627 6.9021 10.0334 8.47762 8.45783C10.0531 6.88231 12.0825 5.83971 14.2808 5.4764C16.4791 5.11308 18.736 5.44728 20.7346 6.43209C22.7333 7.41689 24.3734 9.00286 25.4247 10.9674C26.476 12.9319 26.8858 15.1763 26.5964 17.3855C26.2912 19.7162 25.2246 21.8807 23.5626 23.5428C21.9005 25.2049 19.7359 26.2714 17.4053 26.5766Z" fill="#1985D2"/>
<path d="M22.1507 18.0801L16.7641 15.4134V8.44453C16.7641 8.23236 16.6798 8.02887 16.5297 7.87885C16.3797 7.72882 16.1762 7.64453 15.9641 7.64453C15.7519 7.64453 15.5484 7.72882 15.3984 7.87885C15.2483 8.02887 15.1641 8.23236 15.1641 8.44453V16.4445L21.4396 19.5556C21.6306 19.6488 21.8507 19.6622 22.0516 19.593C22.2524 19.5239 22.4176 19.3777 22.5107 19.1868C22.6039 18.9958 22.6173 18.7757 22.5481 18.5748C22.4789 18.3739 22.3328 18.2088 22.1418 18.1156L22.1507 18.0801Z" fill="#1985D2"/>
</g>
<defs>
<clipPath id="clip0_1303_40097">
<rect width="32" height="32" fill="white"/>
</clipPath>
</defs>
</svg>
