<svg width="503" height="571" viewBox="0 0 503 571" fill="none" xmlns="http://www.w3.org/2000/svg">
<g filter="url(#filter0_d_1769_11980)">
<path d="M478.587 491.847V99.8821C478.587 71.0777 455.237 47.7271 426.432 47.7271L76.9774 47.7271C48.173 47.7271 24.8224 71.0777 24.8224 99.8821V491.847C24.8224 520.651 48.173 544.002 76.9774 544.002H426.432C455.237 544.002 478.587 520.651 478.587 491.847Z" fill="white"/>
</g>
<path d="M320.398 528.117H192.103C184.547 528.117 178.423 534.241 178.423 541.797C178.423 549.352 184.547 555.477 192.103 555.477H320.398C327.953 555.477 334.078 549.352 334.078 541.797C334.078 534.241 327.953 528.117 320.398 528.117Z" fill="#04243B"/>
<path d="M133.699 352L131.875 346.976H121.795L119.971 352H116.803L125.155 329.6H128.515L136.867 352H133.699ZM122.819 344.192H130.851L126.819 333.152L122.819 344.192ZM146.366 352.416C143.956 352.416 141.95 351.616 140.35 350.016C138.75 348.395 137.95 346.389 137.95 344C137.95 341.611 138.75 339.616 140.35 338.016C141.95 336.395 143.956 335.584 146.366 335.584C147.945 335.584 149.364 335.968 150.622 336.736C151.881 337.483 152.82 338.496 153.438 339.776L151.102 341.12C150.697 340.267 150.068 339.584 149.214 339.072C148.382 338.56 147.433 338.304 146.366 338.304C144.766 338.304 143.422 338.848 142.334 339.936C141.268 341.024 140.734 342.379 140.734 344C140.734 345.6 141.268 346.944 142.334 348.032C143.422 349.12 144.766 349.664 146.366 349.664C147.433 349.664 148.393 349.419 149.246 348.928C150.1 348.416 150.75 347.733 151.198 346.88L153.566 348.256C152.884 349.515 151.902 350.528 150.622 351.296C149.342 352.043 147.924 352.416 146.366 352.416ZM163.616 352.416C161.206 352.416 159.2 351.616 157.6 350.016C156 348.395 155.2 346.389 155.2 344C155.2 341.611 156 339.616 157.6 338.016C159.2 336.395 161.206 335.584 163.616 335.584C165.195 335.584 166.614 335.968 167.872 336.736C169.131 337.483 170.07 338.496 170.688 339.776L168.352 341.12C167.947 340.267 167.318 339.584 166.464 339.072C165.632 338.56 164.683 338.304 163.616 338.304C162.016 338.304 160.672 338.848 159.584 339.936C158.518 341.024 157.984 342.379 157.984 344C157.984 345.6 158.518 346.944 159.584 348.032C160.672 349.12 162.016 349.664 163.616 349.664C164.683 349.664 165.643 349.419 166.496 348.928C167.35 348.416 168 347.733 168.448 346.88L170.816 348.256C170.134 349.515 169.152 350.528 167.872 351.296C166.592 352.043 165.174 352.416 163.616 352.416ZM175.298 345.28C175.576 346.709 176.226 347.819 177.25 348.608C178.296 349.397 179.576 349.792 181.09 349.792C183.202 349.792 184.738 349.013 185.698 347.456L188.066 348.8C186.509 351.211 184.162 352.416 181.026 352.416C178.488 352.416 176.418 351.627 174.818 350.048C173.24 348.448 172.45 346.432 172.45 344C172.45 341.589 173.229 339.584 174.786 337.984C176.344 336.384 178.36 335.584 180.834 335.584C183.181 335.584 185.09 336.416 186.562 338.08C188.056 339.723 188.802 341.707 188.802 344.032C188.802 344.437 188.77 344.853 188.706 345.28H175.298ZM180.834 338.208C179.341 338.208 178.104 338.635 177.122 339.488C176.141 340.32 175.533 341.44 175.298 342.848H185.986C185.752 341.333 185.154 340.181 184.194 339.392C183.234 338.603 182.114 338.208 180.834 338.208ZM193.778 340.32C193.778 340.939 194.087 341.44 194.706 341.824C195.324 342.187 196.071 342.485 196.946 342.72C197.82 342.933 198.695 343.189 199.57 343.488C200.444 343.765 201.191 344.256 201.81 344.96C202.428 345.643 202.738 346.528 202.738 347.616C202.738 349.067 202.172 350.229 201.042 351.104C199.932 351.979 198.503 352.416 196.754 352.416C195.196 352.416 193.863 352.075 192.754 351.392C191.644 350.709 190.855 349.803 190.386 348.672L192.786 347.296C193.042 348.064 193.522 348.672 194.226 349.12C194.93 349.568 195.772 349.792 196.754 349.792C197.671 349.792 198.428 349.621 199.026 349.28C199.623 348.917 199.922 348.363 199.922 347.616C199.922 346.997 199.612 346.507 198.994 346.144C198.375 345.76 197.628 345.461 196.754 345.248C195.879 345.013 195.004 344.747 194.13 344.448C193.255 344.149 192.508 343.659 191.89 342.976C191.271 342.293 190.962 341.419 190.962 340.352C190.962 338.965 191.495 337.824 192.562 336.928C193.65 336.032 195.004 335.584 196.626 335.584C197.927 335.584 199.079 335.883 200.082 336.48C201.106 337.056 201.874 337.867 202.386 338.912L200.05 340.224C199.474 338.859 198.332 338.176 196.626 338.176C195.836 338.176 195.164 338.368 194.61 338.752C194.055 339.115 193.778 339.637 193.778 340.32ZM207.434 340.32C207.434 340.939 207.743 341.44 208.362 341.824C208.981 342.187 209.727 342.485 210.602 342.72C211.477 342.933 212.351 343.189 213.226 343.488C214.101 343.765 214.847 344.256 215.466 344.96C216.085 345.643 216.394 346.528 216.394 347.616C216.394 349.067 215.829 350.229 214.698 351.104C213.589 351.979 212.159 352.416 210.41 352.416C208.853 352.416 207.519 352.075 206.41 351.392C205.301 350.709 204.511 349.803 204.042 348.672L206.442 347.296C206.698 348.064 207.178 348.672 207.882 349.12C208.586 349.568 209.429 349.792 210.41 349.792C211.327 349.792 212.085 349.621 212.682 349.28C213.279 348.917 213.578 348.363 213.578 347.616C213.578 346.997 213.269 346.507 212.65 346.144C212.031 345.76 211.285 345.461 210.41 345.248C209.535 345.013 208.661 344.747 207.786 344.448C206.911 344.149 206.165 343.659 205.546 342.976C204.927 342.293 204.618 341.419 204.618 340.352C204.618 338.965 205.151 337.824 206.218 336.928C207.306 336.032 208.661 335.584 210.282 335.584C211.583 335.584 212.735 335.883 213.738 336.48C214.762 337.056 215.53 337.867 216.042 338.912L213.706 340.224C213.13 338.859 211.989 338.176 210.282 338.176C209.493 338.176 208.821 338.368 208.266 338.752C207.711 339.115 207.434 339.637 207.434 340.32ZM236.394 338.688H232.138V347.36C232.138 348.149 232.287 348.715 232.586 349.056C232.906 349.376 233.386 349.547 234.026 349.568C234.666 349.568 235.455 349.547 236.394 349.504V352C233.962 352.32 232.181 352.128 231.05 351.424C229.919 350.699 229.354 349.344 229.354 347.36V338.688H226.186V336H229.354V332.352L232.138 331.52V336H236.394V338.688ZM252.382 349.984C250.739 351.605 248.744 352.416 246.398 352.416C244.051 352.416 242.056 351.605 240.414 349.984C238.792 348.363 237.982 346.368 237.982 344C237.982 341.632 238.792 339.637 240.414 338.016C242.056 336.395 244.051 335.584 246.398 335.584C248.744 335.584 250.739 336.395 252.382 338.016C254.024 339.637 254.846 341.632 254.846 344C254.846 346.368 254.024 348.363 252.382 349.984ZM246.398 349.696C247.998 349.696 249.342 349.152 250.43 348.064C251.518 346.976 252.062 345.621 252.062 344C252.062 342.379 251.518 341.024 250.43 339.936C249.342 338.848 247.998 338.304 246.398 338.304C244.819 338.304 243.486 338.848 242.398 339.936C241.31 341.024 240.766 342.379 240.766 344C240.766 345.621 241.31 346.976 242.398 348.064C243.486 349.152 244.819 349.696 246.398 349.696ZM279.632 349.984C277.989 351.605 275.994 352.416 273.648 352.416C271.301 352.416 269.306 351.605 267.664 349.984C266.042 348.363 265.232 346.368 265.232 344C265.232 341.632 266.042 339.637 267.664 338.016C269.306 336.395 271.301 335.584 273.648 335.584C275.994 335.584 277.989 336.395 279.632 338.016C281.274 339.637 282.096 341.632 282.096 344C282.096 346.368 281.274 348.363 279.632 349.984ZM273.648 349.696C275.248 349.696 276.592 349.152 277.68 348.064C278.768 346.976 279.312 345.621 279.312 344C279.312 342.379 278.768 341.024 277.68 339.936C276.592 338.848 275.248 338.304 273.648 338.304C272.069 338.304 270.736 338.848 269.648 339.936C268.56 341.024 268.016 342.379 268.016 344C268.016 345.621 268.56 346.976 269.648 348.064C270.736 349.152 272.069 349.696 273.648 349.696ZM295.953 336H298.961L292.561 352H289.297L282.897 336H285.905L290.929 349.024L295.953 336ZM302.642 345.28C302.919 346.709 303.57 347.819 304.594 348.608C305.639 349.397 306.919 349.792 308.434 349.792C310.546 349.792 312.082 349.013 313.042 347.456L315.41 348.8C313.853 351.211 311.506 352.416 308.37 352.416C305.831 352.416 303.762 351.627 302.162 350.048C300.583 348.448 299.794 346.432 299.794 344C299.794 341.589 300.573 339.584 302.13 337.984C303.687 336.384 305.703 335.584 308.178 335.584C310.525 335.584 312.434 336.416 313.906 338.08C315.399 339.723 316.146 341.707 316.146 344.032C316.146 344.437 316.114 344.853 316.05 345.28H302.642ZM308.178 338.208C306.685 338.208 305.447 338.635 304.466 339.488C303.485 340.32 302.877 341.44 302.642 342.848H313.33C313.095 341.333 312.498 340.181 311.538 339.392C310.578 338.603 309.458 338.208 308.178 338.208ZM322.13 338.688C323.048 336.704 324.712 335.712 327.122 335.712V338.624C325.757 338.56 324.584 338.923 323.602 339.712C322.621 340.501 322.13 341.771 322.13 343.52V352H319.346V336H322.13V338.688ZM342.07 329.6H344.63V352H341.686V332.8L336.918 334.208L336.182 331.648L342.07 329.6ZM363.589 349.248C362.074 351.36 359.951 352.416 357.221 352.416C354.49 352.416 352.367 351.36 350.853 349.248C349.338 347.136 348.581 344.32 348.581 340.8C348.581 337.28 349.338 334.464 350.853 332.352C352.367 330.24 354.49 329.184 357.221 329.184C359.951 329.184 362.074 330.24 363.589 332.352C365.103 334.464 365.861 337.28 365.861 340.8C365.861 344.32 365.103 347.136 363.589 349.248ZM353.029 347.232C354.01 348.747 355.407 349.504 357.221 349.504C359.034 349.504 360.431 348.747 361.413 347.232C362.415 345.717 362.917 343.573 362.917 340.8C362.917 338.027 362.415 335.883 361.413 334.368C360.431 332.832 359.034 332.064 357.221 332.064C355.407 332.064 354.01 332.821 353.029 334.336C352.047 335.851 351.557 338.005 351.557 340.8C351.557 343.573 352.047 345.717 353.029 347.232ZM383.745 349.248C382.23 351.36 380.108 352.416 377.377 352.416C374.646 352.416 372.524 351.36 371.009 349.248C369.494 347.136 368.737 344.32 368.737 340.8C368.737 337.28 369.494 334.464 371.009 332.352C372.524 330.24 374.646 329.184 377.377 329.184C380.108 329.184 382.23 330.24 383.745 332.352C385.26 334.464 386.017 337.28 386.017 340.8C386.017 344.32 385.26 347.136 383.745 349.248ZM373.185 347.232C374.166 348.747 375.564 349.504 377.377 349.504C379.19 349.504 380.588 348.747 381.569 347.232C382.572 345.717 383.073 343.573 383.073 340.8C383.073 338.027 382.572 335.883 381.569 334.368C380.588 332.832 379.19 332.064 377.377 332.064C375.564 332.064 374.166 332.821 373.185 334.336C372.204 335.851 371.713 338.005 371.713 340.8C371.713 343.573 372.204 345.717 373.185 347.232ZM136.656 375H139.664L133.264 391H130L123.6 375H126.608L131.632 388.024L136.656 375ZM143.345 384.28C143.623 385.709 144.273 386.819 145.297 387.608C146.343 388.397 147.623 388.792 149.137 388.792C151.249 388.792 152.785 388.013 153.745 386.456L156.113 387.8C154.556 390.211 152.209 391.416 149.073 391.416C146.535 391.416 144.465 390.627 142.865 389.048C141.287 387.448 140.497 385.432 140.497 383C140.497 380.589 141.276 378.584 142.833 376.984C144.391 375.384 146.407 374.584 148.881 374.584C151.228 374.584 153.137 375.416 154.609 377.08C156.103 378.723 156.849 380.707 156.849 383.032C156.849 383.437 156.817 383.853 156.753 384.28H143.345ZM148.881 377.208C147.388 377.208 146.151 377.635 145.169 378.488C144.188 379.32 143.58 380.44 143.345 381.848H154.033C153.799 380.333 153.201 379.181 152.241 378.392C151.281 377.603 150.161 377.208 148.881 377.208ZM168.018 374.584C169.895 374.584 171.399 375.181 172.53 376.376C173.66 377.549 174.226 379.149 174.226 381.176V391H171.442V381.336C171.442 380.035 171.09 379.032 170.386 378.328C169.682 377.603 168.711 377.24 167.474 377.24C166.087 377.24 164.967 377.677 164.114 378.552C163.26 379.405 162.834 380.728 162.834 382.52V391H160.049V368.6H162.834V377.304C163.964 375.491 165.692 374.584 168.018 374.584ZM179.52 372.088C178.987 372.088 178.539 371.907 178.176 371.544C177.813 371.181 177.632 370.744 177.632 370.232C177.632 369.72 177.813 369.283 178.176 368.92C178.539 368.536 178.987 368.344 179.52 368.344C180.032 368.344 180.469 368.536 180.832 368.92C181.195 369.283 181.376 369.72 181.376 370.232C181.376 370.744 181.195 371.181 180.832 371.544C180.469 371.907 180.032 372.088 179.52 372.088ZM178.112 391V375H180.896V391H178.112ZM192.663 391.416C190.253 391.416 188.247 390.616 186.647 389.016C185.047 387.395 184.247 385.389 184.247 383C184.247 380.611 185.047 378.616 186.647 377.016C188.247 375.395 190.253 374.584 192.663 374.584C194.242 374.584 195.661 374.968 196.919 375.736C198.178 376.483 199.117 377.496 199.735 378.776L197.399 380.12C196.994 379.267 196.365 378.584 195.511 378.072C194.679 377.56 193.73 377.304 192.663 377.304C191.063 377.304 189.719 377.848 188.631 378.936C187.565 380.024 187.031 381.379 187.031 383C187.031 384.6 187.565 385.944 188.631 387.032C189.719 388.12 191.063 388.664 192.663 388.664C193.73 388.664 194.69 388.419 195.543 387.928C196.397 387.416 197.047 386.733 197.495 385.88L199.863 387.256C199.181 388.515 198.199 389.528 196.919 390.296C195.639 391.043 194.221 391.416 192.663 391.416ZM202.612 391V367.64H205.396V391H202.612ZM211.595 384.28C211.873 385.709 212.523 386.819 213.547 387.608C214.593 388.397 215.873 388.792 217.387 388.792C219.499 388.792 221.035 388.013 221.995 386.456L224.363 387.8C222.806 390.211 220.459 391.416 217.323 391.416C214.785 391.416 212.715 390.627 211.115 389.048C209.537 387.448 208.747 385.432 208.747 383C208.747 380.589 209.526 378.584 211.083 376.984C212.641 375.384 214.657 374.584 217.131 374.584C219.478 374.584 221.387 375.416 222.859 377.08C224.353 378.723 225.099 380.707 225.099 383.032C225.099 383.437 225.067 383.853 225.003 384.28H211.595ZM217.131 377.208C215.638 377.208 214.401 377.635 213.419 378.488C212.438 379.32 211.83 380.44 211.595 381.848H222.283C222.049 380.333 221.451 379.181 220.491 378.392C219.531 377.603 218.411 377.208 217.131 377.208ZM230.075 379.32C230.075 379.939 230.384 380.44 231.003 380.824C231.621 381.187 232.368 381.485 233.243 381.72C234.117 381.933 234.992 382.189 235.867 382.488C236.741 382.765 237.488 383.256 238.107 383.96C238.725 384.643 239.035 385.528 239.035 386.616C239.035 388.067 238.469 389.229 237.339 390.104C236.229 390.979 234.8 391.416 233.051 391.416C231.493 391.416 230.16 391.075 229.051 390.392C227.941 389.709 227.152 388.803 226.683 387.672L229.083 386.296C229.339 387.064 229.819 387.672 230.523 388.12C231.227 388.568 232.069 388.792 233.051 388.792C233.968 388.792 234.725 388.621 235.323 388.28C235.92 387.917 236.219 387.363 236.219 386.616C236.219 385.997 235.909 385.507 235.291 385.144C234.672 384.76 233.925 384.461 233.051 384.248C232.176 384.013 231.301 383.747 230.427 383.448C229.552 383.149 228.805 382.659 228.187 381.976C227.568 381.293 227.259 380.419 227.259 379.352C227.259 377.965 227.792 376.824 228.859 375.928C229.947 375.032 231.301 374.584 232.923 374.584C234.224 374.584 235.376 374.883 236.379 375.48C237.403 376.056 238.171 376.867 238.683 377.912L236.347 379.224C235.771 377.859 234.629 377.176 232.923 377.176C232.133 377.176 231.461 377.368 230.907 377.752C230.352 378.115 230.075 378.637 230.075 379.32ZM253.115 377.688C254.032 375.704 255.696 374.712 258.107 374.712V377.624C256.741 377.56 255.568 377.923 254.587 378.712C253.605 379.501 253.115 380.771 253.115 382.52V391H250.331V375H253.115V377.688ZM261.908 384.28C262.185 385.709 262.836 386.819 263.86 387.608C264.905 388.397 266.185 388.792 267.7 388.792C269.812 388.792 271.348 388.013 272.308 386.456L274.676 387.8C273.118 390.211 270.772 391.416 267.636 391.416C265.097 391.416 263.028 390.627 261.428 389.048C259.849 387.448 259.06 385.432 259.06 383C259.06 380.589 259.838 378.584 261.396 376.984C262.953 375.384 264.969 374.584 267.444 374.584C269.79 374.584 271.7 375.416 273.172 377.08C274.665 378.723 275.412 380.707 275.412 383.032C275.412 383.437 275.38 383.853 275.316 384.28H261.908ZM267.444 377.208C265.95 377.208 264.713 377.635 263.732 378.488C262.75 379.32 262.142 380.44 261.908 381.848H272.596C272.361 380.333 271.764 379.181 270.804 378.392C269.844 377.603 268.724 377.208 267.444 377.208ZM291.829 375H294.613V391H291.829V388.248C290.442 390.36 288.426 391.416 285.781 391.416C283.541 391.416 281.631 390.605 280.053 388.984C278.474 387.341 277.685 385.347 277.685 383C277.685 380.653 278.474 378.669 280.053 377.048C281.631 375.405 283.541 374.584 285.781 374.584C288.426 374.584 290.442 375.64 291.829 377.752V375ZM286.133 388.728C287.754 388.728 289.109 388.184 290.197 387.096C291.285 385.987 291.829 384.621 291.829 383C291.829 381.379 291.285 380.024 290.197 378.936C289.109 377.827 287.754 377.272 286.133 377.272C284.533 377.272 283.189 377.827 282.101 378.936C281.013 380.024 280.469 381.379 280.469 383C280.469 384.621 281.013 385.987 282.101 387.096C283.189 388.184 284.533 388.728 286.133 388.728ZM312.079 368.6H314.863V391H312.079V388.248C310.692 390.36 308.676 391.416 306.031 391.416C303.791 391.416 301.881 390.605 300.303 388.984C298.724 387.341 297.935 385.347 297.935 383C297.935 380.653 298.724 378.669 300.303 377.048C301.881 375.405 303.791 374.584 306.031 374.584C308.676 374.584 310.692 375.64 312.079 377.752V368.6ZM306.383 388.728C308.004 388.728 309.359 388.184 310.447 387.096C311.535 385.987 312.079 384.621 312.079 383C312.079 381.379 311.535 380.024 310.447 378.936C309.359 377.827 308.004 377.272 306.383 377.272C304.783 377.272 303.439 377.827 302.351 378.936C301.263 380.024 300.719 381.379 300.719 383C300.719 384.621 301.263 385.987 302.351 387.096C303.439 388.184 304.783 388.728 306.383 388.728ZM330.249 375H333.225L326.697 391.992C326.014 393.805 325.054 395.181 323.817 396.12C322.601 397.08 321.193 397.507 319.593 397.4V394.808C321.555 394.957 322.995 393.869 323.913 391.544L324.201 390.936L317.225 375H320.201L325.641 387.544L330.249 375ZM351.774 370.872C348.958 370.637 347.55 371.853 347.55 374.52V375H351.774V377.688H347.55V391H344.766V377.688H342.206V375H344.766V374.52C344.766 372.365 345.363 370.733 346.558 369.624C347.774 368.515 349.512 368.035 351.774 368.184V370.872ZM366.522 388.984C364.88 390.605 362.885 391.416 360.538 391.416C358.192 391.416 356.197 390.605 354.554 388.984C352.933 387.363 352.122 385.368 352.122 383C352.122 380.632 352.933 378.637 354.554 377.016C356.197 375.395 358.192 374.584 360.538 374.584C362.885 374.584 364.88 375.395 366.522 377.016C368.165 378.637 368.986 380.632 368.986 383C368.986 385.368 368.165 387.363 366.522 388.984ZM360.538 388.696C362.138 388.696 363.482 388.152 364.57 387.064C365.658 385.976 366.202 384.621 366.202 383C366.202 381.379 365.658 380.024 364.57 378.936C363.482 377.848 362.138 377.304 360.538 377.304C358.96 377.304 357.626 377.848 356.538 378.936C355.45 380.024 354.906 381.379 354.906 383C354.906 384.621 355.45 385.976 356.538 387.064C357.626 388.152 358.96 388.696 360.538 388.696ZM375.052 377.688C375.97 375.704 377.634 374.712 380.044 374.712V377.624C378.679 377.56 377.506 377.923 376.524 378.712C375.543 379.501 375.052 380.771 375.052 382.52V391H372.268V375H375.052V377.688ZM206.382 413.584C208.622 413.584 210.531 414.405 212.11 416.048C213.688 417.669 214.478 419.653 214.478 422C214.478 424.347 213.688 426.341 212.11 427.984C210.531 429.605 208.622 430.416 206.382 430.416C203.736 430.416 201.72 429.36 200.334 427.248V430H197.549V407.6H200.334V416.752C201.72 414.64 203.736 413.584 206.382 413.584ZM206.03 427.728C207.63 427.728 208.974 427.184 210.062 426.096C211.15 424.987 211.694 423.621 211.694 422C211.694 420.379 211.15 419.024 210.062 417.936C208.974 416.827 207.63 416.272 206.03 416.272C204.408 416.272 203.054 416.827 201.966 417.936C200.878 419.024 200.334 420.379 200.334 422C200.334 423.621 200.878 424.987 201.966 426.096C203.054 427.184 204.408 427.728 206.03 427.728ZM219.208 411.088C218.674 411.088 218.226 410.907 217.864 410.544C217.501 410.181 217.32 409.744 217.32 409.232C217.32 408.72 217.501 408.283 217.864 407.92C218.226 407.536 218.674 407.344 219.208 407.344C219.72 407.344 220.157 407.536 220.52 407.92C220.882 408.283 221.064 408.72 221.064 409.232C221.064 409.744 220.882 410.181 220.52 410.544C220.157 410.907 219.72 411.088 219.208 411.088ZM217.799 430V414H220.584V430H217.799ZM238.079 407.6H240.863V430H238.079V427.248C236.692 429.36 234.676 430.416 232.031 430.416C229.791 430.416 227.881 429.605 226.303 427.984C224.724 426.341 223.935 424.347 223.935 422C223.935 419.653 224.724 417.669 226.303 416.048C227.881 414.405 229.791 413.584 232.031 413.584C234.676 413.584 236.692 414.64 238.079 416.752V407.6ZM232.383 427.728C234.004 427.728 235.359 427.184 236.447 426.096C237.535 424.987 238.079 423.621 238.079 422C238.079 420.379 237.535 419.024 236.447 417.936C235.359 416.827 234.004 416.272 232.383 416.272C230.783 416.272 229.439 416.827 228.351 417.936C227.263 419.024 226.719 420.379 226.719 422C226.719 423.621 227.263 424.987 228.351 426.096C229.439 427.184 230.783 427.728 232.383 427.728ZM258.329 407.6H261.113V430H258.329V427.248C256.942 429.36 254.926 430.416 252.281 430.416C250.041 430.416 248.131 429.605 246.553 427.984C244.974 426.341 244.185 424.347 244.185 422C244.185 419.653 244.974 417.669 246.553 416.048C248.131 414.405 250.041 413.584 252.281 413.584C254.926 413.584 256.942 414.64 258.329 416.752V407.6ZM252.633 427.728C254.254 427.728 255.609 427.184 256.697 426.096C257.785 424.987 258.329 423.621 258.329 422C258.329 420.379 257.785 419.024 256.697 417.936C255.609 416.827 254.254 416.272 252.633 416.272C251.033 416.272 249.689 416.827 248.601 417.936C247.513 419.024 246.969 420.379 246.969 422C246.969 423.621 247.513 424.987 248.601 426.096C249.689 427.184 251.033 427.728 252.633 427.728ZM266.739 411.088C266.205 411.088 265.757 410.907 265.395 410.544C265.032 410.181 264.851 409.744 264.851 409.232C264.851 408.72 265.032 408.283 265.395 407.92C265.757 407.536 266.205 407.344 266.739 407.344C267.251 407.344 267.688 407.536 268.051 407.92C268.413 408.283 268.595 408.72 268.595 409.232C268.595 409.744 268.413 410.181 268.051 410.544C267.688 410.907 267.251 411.088 266.739 411.088ZM265.331 430V414H268.115V430H265.331ZM280.33 413.584C282.207 413.584 283.711 414.181 284.842 415.376C285.973 416.549 286.538 418.149 286.538 420.176V430H283.754V420.336C283.754 419.035 283.402 418.032 282.698 417.328C281.994 416.603 281.023 416.24 279.786 416.24C278.399 416.24 277.279 416.677 276.426 417.552C275.573 418.405 275.146 419.728 275.146 421.52V430H272.362V414H275.146V416.304C276.277 414.491 278.005 413.584 280.33 413.584ZM303.705 414H306.457V429.328C306.457 431.696 305.657 433.531 304.057 434.832C302.457 436.155 300.537 436.816 298.297 436.816C296.505 436.816 294.958 436.475 293.657 435.792C292.355 435.131 291.374 434.171 290.713 432.912L293.145 431.536C294.019 433.328 295.758 434.224 298.361 434.224C300.025 434.224 301.326 433.787 302.265 432.912C303.225 432.037 303.705 430.843 303.705 429.328V427.056C302.297 429.189 300.291 430.256 297.689 430.256C295.406 430.256 293.475 429.445 291.897 427.824C290.318 426.203 289.529 424.229 289.529 421.904C289.529 419.579 290.318 417.616 291.897 416.016C293.475 414.395 295.406 413.584 297.689 413.584C300.313 413.584 302.318 414.64 303.705 416.752V414ZM293.945 425.968C295.033 427.056 296.387 427.6 298.009 427.6C299.63 427.6 300.985 427.056 302.073 425.968C303.161 424.88 303.705 423.525 303.705 421.904C303.705 420.304 303.161 418.96 302.073 417.872C300.985 416.784 299.63 416.24 298.009 416.24C296.387 416.24 295.033 416.784 293.945 417.872C292.857 418.96 292.312 420.304 292.312 421.904C292.312 423.525 292.857 424.88 293.945 425.968Z" fill="#1F1F1F"/>
<g style="mix-blend-mode:multiply">
<path d="M273.567 67.5122L319.767 250.242C319.767 250.242 180.447 293.607 106.977 297.267L94.7073 133.197L273.567 67.5122Z" fill="#E6E6E6"/>
</g>
<path d="M111.897 262.962C164.217 274.647 323.397 236.127 323.397 236.127L296.113 37.3018C247.063 43.0018 161.353 60.6718 90.6426 71.4868L92.8926 90.6718L111.897 262.962Z" fill="#04243B"/>
<path d="M257.262 47.4871L261.267 33.8071C261.267 33.8071 261.342 33.8071 261.372 33.8071C262.332 34.0921 262.872 35.0521 262.602 35.9821H262.632L259.107 48.0271L257.247 47.4721L257.262 47.4871Z" fill="black"/>
<path d="M255.643 47.0068L259.168 34.9768C259.423 34.0918 260.353 33.5968 261.268 33.8068L257.263 47.4868L255.643 47.0068Z" fill="#333333"/>
<path d="M226.918 28.6769C227.998 28.9919 228.628 30.1019 228.313 31.1519H228.358L219.358 61.8869L209.773 94.6019C206.893 104.442 212.818 114.882 222.988 117.852C233.158 120.837 243.778 115.242 246.658 105.402L257.353 68.8919L265.243 41.9669H265.273L270.793 23.1419C273.103 15.2969 268.363 6.98694 260.263 4.61694C252.163 2.24694 243.702 6.68694 241.408 14.5319L235.888 33.3719H235.858L227.083 63.3119L225.358 62.8319L240.118 12.4169C246.433 -1.15806 259.243 2.36694 259.243 2.36694C275.398 6.37194 273.283 21.6569 273.283 21.6569L259.333 69.2669L248.353 106.737C241.138 123.882 223.708 120.072 223.708 120.072C201.823 112.527 207.988 92.8019 207.988 92.8019L217.153 61.5119L226.768 28.6919C226.768 28.6919 226.843 28.6919 226.888 28.6919L226.918 28.6769Z" fill="black"/>
<path d="M226.797 28.662L217.183 61.482L208.018 92.772C208.018 92.772 201.853 112.497 223.738 120.042C223.738 120.042 241.167 123.852 248.382 106.707L259.363 69.237L273.312 21.627C273.312 21.627 275.412 6.34196 259.272 2.33696C259.272 2.33696 246.462 -1.17304 240.147 12.387L225.387 62.802L222.837 62.052L231.942 32.172H232.003L237.522 13.362C240.432 3.43196 251.157 -2.19304 261.402 0.806961C271.677 3.80696 277.648 14.337 274.738 24.267L269.217 43.092L261.448 69.612L250.632 106.542C247.137 118.497 234.238 125.277 221.893 121.662C209.548 118.047 202.347 105.372 205.857 93.417L215.323 61.107L224.442 29.967C224.742 28.962 225.792 28.392 226.842 28.632L226.797 28.662Z" fill="#333333"/>
<path d="M262.678 42.0121L223.888 48.5221L220.723 64.5121L259.963 58.9021C259.963 58.9021 259.963 56.5021 259.963 55.8421C259.963 55.1821 262.678 41.9971 262.678 41.9971" fill="#04243B"/>
<path d="M192.084 194.359C186.581 195.337 181.884 194.027 177.995 190.428C174.139 186.78 171.595 181.49 170.363 174.559C169.131 167.627 169.7 161.806 172.069 157.095C174.473 152.334 178.426 149.464 183.929 148.486C189.474 147.5 194.175 148.831 198.03 152.48C201.878 156.086 204.418 161.354 205.65 168.286C206.882 175.217 206.317 181.06 203.956 185.813C201.586 190.524 197.629 193.373 192.084 194.359ZM183.243 183.385C185.188 185.552 187.631 186.375 190.572 185.852C193.512 185.329 195.519 183.694 196.59 180.947C197.704 178.192 197.846 174.483 197.017 169.82C196.181 165.116 194.765 161.662 192.771 159.46C190.818 157.25 188.371 156.407 185.43 156.929C182.49 157.452 180.484 159.087 179.412 161.835C178.34 164.582 178.223 168.308 179.059 173.013C179.895 177.718 181.29 181.175 183.243 183.385ZM214.984 143.875L222.546 142.531L230.387 186.64L221.691 188.185L215.485 153.277L207.582 157.087L204.118 150.032L214.984 143.875Z" fill="white"/>
<defs>
<filter id="filter0_d_1769_11980" x="0.822266" y="26.7271" width="501.765" height="544.275" filterUnits="userSpaceOnUse" color-interpolation-filters="sRGB">
<feFlood flood-opacity="0" result="BackgroundImageFix"/>
<feColorMatrix in="SourceAlpha" type="matrix" values="0 0 0 0 0 0 0 0 0 0 0 0 0 0 0 0 0 0 127 0" result="hardAlpha"/>
<feOffset dy="3"/>
<feGaussianBlur stdDeviation="12"/>
<feComposite in2="hardAlpha" operator="out"/>
<feColorMatrix type="matrix" values="0 0 0 0 0 0 0 0 0 0 0 0 0 0 0 0 0 0 0.08 0"/>
<feBlend mode="normal" in2="BackgroundImageFix" result="effect1_dropShadow_1769_11980"/>
<feBlend mode="normal" in="SourceGraphic" in2="effect1_dropShadow_1769_11980" result="shape"/>
</filter>
</defs>
</svg>
