<svg width="503" height="571" viewBox="0 0 503 571" fill="none" xmlns="http://www.w3.org/2000/svg">
<g filter="url(#filter0_d_1797_4718)">
<path d="M478.587 491.847V99.8821C478.587 71.0777 455.237 47.7271 426.432 47.7271L76.9774 47.7271C48.173 47.7271 24.8224 71.0777 24.8224 99.8821V491.847C24.8224 520.651 48.173 544.002 76.9774 544.002H426.432C455.237 544.002 478.587 520.651 478.587 491.847Z" fill="white"/>
</g>
<path d="M320.398 528.117H192.103C184.547 528.117 178.423 534.241 178.423 541.797C178.423 549.352 184.547 555.477 192.103 555.477H320.398C327.953 555.477 334.078 549.352 334.078 541.797C334.078 534.241 327.953 528.117 320.398 528.117Z" fill="#183787"/>
<path d="M133.694 352.416C130.302 352.416 127.496 351.296 125.278 349.056C123.08 346.816 121.982 344.064 121.982 340.8C121.982 337.536 123.08 334.784 125.278 332.544C127.496 330.304 130.302 329.184 133.694 329.184C135.742 329.184 137.619 329.675 139.326 330.656C141.054 331.637 142.398 332.96 143.358 334.624L140.766 336.128C140.126 334.891 139.166 333.909 137.886 333.184C136.627 332.437 135.23 332.064 133.694 332.064C131.112 332.064 129 332.896 127.358 334.56C125.736 336.224 124.926 338.304 124.926 340.8C124.926 343.275 125.736 345.344 127.358 347.008C129 348.672 131.112 349.504 133.694 349.504C135.23 349.504 136.627 349.141 137.886 348.416C139.166 347.669 140.126 346.688 140.766 345.472L143.358 346.944C142.419 348.608 141.086 349.941 139.358 350.944C137.63 351.925 135.742 352.416 133.694 352.416ZM159.882 349.984C158.239 351.605 156.244 352.416 153.898 352.416C151.551 352.416 149.556 351.605 147.914 349.984C146.292 348.363 145.482 346.368 145.482 344C145.482 341.632 146.292 339.637 147.914 338.016C149.556 336.395 151.551 335.584 153.898 335.584C156.244 335.584 158.239 336.395 159.882 338.016C161.524 339.637 162.346 341.632 162.346 344C162.346 346.368 161.524 348.363 159.882 349.984ZM153.898 349.696C155.498 349.696 156.842 349.152 157.93 348.064C159.018 346.976 159.562 345.621 159.562 344C159.562 342.379 159.018 341.024 157.93 339.936C156.842 338.848 155.498 338.304 153.898 338.304C152.319 338.304 150.986 338.848 149.898 339.936C148.81 341.024 148.266 342.379 148.266 344C148.266 345.621 148.81 346.976 149.898 348.064C150.986 349.152 152.319 349.696 153.898 349.696ZM182.908 335.584C184.7 335.584 186.15 336.171 187.26 337.344C188.369 338.496 188.924 340.064 188.924 342.048V352H186.14V342.144C186.14 340.907 185.82 339.947 185.18 339.264C184.54 338.581 183.686 338.24 182.62 338.24C181.425 338.24 180.465 338.645 179.74 339.456C179.036 340.245 178.684 341.461 178.684 343.104V352H175.9V342.144C175.9 340.907 175.59 339.947 174.972 339.264C174.374 338.581 173.553 338.24 172.508 338.24C171.334 338.24 170.353 338.645 169.564 339.456C168.796 340.267 168.412 341.483 168.412 343.104V352H165.628V336H168.412V338.144C169.5 336.437 171.089 335.584 173.18 335.584C175.334 335.584 176.902 336.491 177.884 338.304C178.993 336.491 180.668 335.584 182.908 335.584ZM210.064 335.584C211.856 335.584 213.307 336.171 214.416 337.344C215.525 338.496 216.08 340.064 216.08 342.048V352H213.296V342.144C213.296 340.907 212.976 339.947 212.336 339.264C211.696 338.581 210.843 338.24 209.776 338.24C208.581 338.24 207.621 338.645 206.896 339.456C206.192 340.245 205.84 341.461 205.84 343.104V352H203.056V342.144C203.056 340.907 202.747 339.947 202.128 339.264C201.531 338.581 200.709 338.24 199.664 338.24C198.491 338.24 197.509 338.645 196.72 339.456C195.952 340.267 195.568 341.483 195.568 343.104V352H192.784V336H195.568V338.144C196.656 336.437 198.245 335.584 200.336 335.584C202.491 335.584 204.059 336.491 205.04 338.304C206.149 336.491 207.824 335.584 210.064 335.584ZM221.348 333.088C220.815 333.088 220.367 332.907 220.004 332.544C219.641 332.181 219.46 331.744 219.46 331.232C219.46 330.72 219.641 330.283 220.004 329.92C220.367 329.536 220.815 329.344 221.348 329.344C221.86 329.344 222.297 329.536 222.66 329.92C223.023 330.283 223.204 330.72 223.204 331.232C223.204 331.744 223.023 332.181 222.66 332.544C222.297 332.907 221.86 333.088 221.348 333.088ZM219.94 352V336H222.724V352H219.94ZM235.675 338.688H231.419V347.36C231.419 348.149 231.569 348.715 231.867 349.056C232.187 349.376 232.667 349.547 233.307 349.568C233.947 349.568 234.737 349.547 235.675 349.504V352C233.243 352.32 231.462 352.128 230.331 351.424C229.201 350.699 228.635 349.344 228.635 347.36V338.688H225.467V336H228.635V332.352L231.419 331.52V336H235.675V338.688ZM246.832 338.688H242.576V347.36C242.576 348.149 242.725 348.715 243.024 349.056C243.344 349.376 243.824 349.547 244.464 349.568C245.104 349.568 245.893 349.547 246.832 349.504V352C244.4 352.32 242.618 352.128 241.488 351.424C240.357 350.699 239.792 349.344 239.792 347.36V338.688H236.624V336H239.792V332.352L242.576 331.52V336H246.832V338.688ZM251.267 345.28C251.544 346.709 252.195 347.819 253.219 348.608C254.264 349.397 255.544 349.792 257.059 349.792C259.171 349.792 260.707 349.013 261.667 347.456L264.035 348.8C262.478 351.211 260.131 352.416 256.995 352.416C254.456 352.416 252.387 351.627 250.787 350.048C249.208 348.448 248.419 346.432 248.419 344C248.419 341.589 249.198 339.584 250.755 337.984C252.312 336.384 254.328 335.584 256.803 335.584C259.15 335.584 261.059 336.416 262.531 338.08C264.024 339.723 264.771 341.707 264.771 344.032C264.771 344.437 264.739 344.853 264.675 345.28H251.267ZM256.803 338.208C255.31 338.208 254.072 338.635 253.091 339.488C252.11 340.32 251.502 341.44 251.267 342.848H261.955C261.72 341.333 261.123 340.181 260.163 339.392C259.203 338.603 258.083 338.208 256.803 338.208ZM281.188 329.6H283.972V352H281.188V349.248C279.801 351.36 277.785 352.416 275.14 352.416C272.9 352.416 270.991 351.605 269.412 349.984C267.833 348.341 267.044 346.347 267.044 344C267.044 341.653 267.833 339.669 269.412 338.048C270.991 336.405 272.9 335.584 275.14 335.584C277.785 335.584 279.801 336.64 281.188 338.752V329.6ZM275.492 349.728C277.113 349.728 278.468 349.184 279.556 348.096C280.644 346.987 281.188 345.621 281.188 344C281.188 342.379 280.644 341.024 279.556 339.936C278.468 338.827 277.113 338.272 275.492 338.272C273.892 338.272 272.548 338.827 271.46 339.936C270.372 341.024 269.828 342.379 269.828 344C269.828 345.621 270.372 346.987 271.46 348.096C272.548 349.184 273.892 349.728 275.492 349.728ZM304.894 338.688H300.638V347.36C300.638 348.149 300.787 348.715 301.086 349.056C301.406 349.376 301.886 349.547 302.526 349.568C303.166 349.568 303.955 349.547 304.894 349.504V352C302.462 352.32 300.681 352.128 299.55 351.424C298.419 350.699 297.854 349.344 297.854 347.36V338.688H294.686V336H297.854V332.352L300.638 331.52V336H304.894V338.688ZM320.882 349.984C319.239 351.605 317.244 352.416 314.898 352.416C312.551 352.416 310.556 351.605 308.914 349.984C307.292 348.363 306.482 346.368 306.482 344C306.482 341.632 307.292 339.637 308.914 338.016C310.556 336.395 312.551 335.584 314.898 335.584C317.244 335.584 319.239 336.395 320.882 338.016C322.524 339.637 323.346 341.632 323.346 344C323.346 346.368 322.524 348.363 320.882 349.984ZM314.898 349.696C316.498 349.696 317.842 349.152 318.93 348.064C320.018 346.976 320.562 345.621 320.562 344C320.562 342.379 320.018 341.024 318.93 339.936C317.842 338.848 316.498 338.304 314.898 338.304C313.319 338.304 311.986 338.848 310.898 339.936C309.81 341.024 309.266 342.379 309.266 344C309.266 345.621 309.81 346.976 310.898 348.064C311.986 349.152 313.319 349.696 314.898 349.696ZM343.332 338.688H339.076V347.36C339.076 348.149 339.225 348.715 339.524 349.056C339.844 349.376 340.324 349.547 340.964 349.568C341.604 349.568 342.393 349.547 343.332 349.504V352C340.9 352.32 339.118 352.128 337.988 351.424C336.857 350.699 336.292 349.344 336.292 347.36V338.688H333.124V336H336.292V332.352L339.076 331.52V336H343.332V338.688ZM354.596 335.584C356.473 335.584 357.977 336.181 359.108 337.376C360.238 338.549 360.804 340.149 360.804 342.176V352H358.02V342.336C358.02 341.035 357.668 340.032 356.964 339.328C356.26 338.603 355.289 338.24 354.052 338.24C352.665 338.24 351.545 338.677 350.692 339.552C349.838 340.405 349.412 341.728 349.412 343.52V352H346.628V329.6H349.412V338.304C350.542 336.491 352.27 335.584 354.596 335.584ZM366.642 345.28C366.919 346.709 367.57 347.819 368.594 348.608C369.639 349.397 370.919 349.792 372.434 349.792C374.546 349.792 376.082 349.013 377.042 347.456L379.41 348.8C377.853 351.211 375.506 352.416 372.37 352.416C369.831 352.416 367.762 351.627 366.162 350.048C364.583 348.448 363.794 346.432 363.794 344C363.794 341.589 364.573 339.584 366.13 337.984C367.687 336.384 369.703 335.584 372.178 335.584C374.525 335.584 376.434 336.416 377.906 338.08C379.399 339.723 380.146 341.707 380.146 344.032C380.146 344.437 380.114 344.853 380.05 345.28H366.642ZM372.178 338.208C370.685 338.208 369.447 338.635 368.466 339.488C367.485 340.32 366.877 341.44 366.642 342.848H377.33C377.095 341.333 376.498 340.181 375.538 339.392C374.578 338.603 373.458 338.208 372.178 338.208ZM144.481 379.32C144.481 379.939 144.79 380.44 145.409 380.824C146.027 381.187 146.774 381.485 147.649 381.72C148.523 381.933 149.398 382.189 150.273 382.488C151.147 382.765 151.894 383.256 152.513 383.96C153.131 384.643 153.441 385.528 153.441 386.616C153.441 388.067 152.875 389.229 151.745 390.104C150.635 390.979 149.206 391.416 147.457 391.416C145.899 391.416 144.566 391.075 143.457 390.392C142.347 389.709 141.558 388.803 141.089 387.672L143.489 386.296C143.745 387.064 144.225 387.672 144.929 388.12C145.633 388.568 146.475 388.792 147.457 388.792C148.374 388.792 149.131 388.621 149.729 388.28C150.326 387.917 150.625 387.363 150.625 386.616C150.625 385.997 150.315 385.507 149.697 385.144C149.078 384.76 148.331 384.461 147.457 384.248C146.582 384.013 145.707 383.747 144.833 383.448C143.958 383.149 143.211 382.659 142.593 381.976C141.974 381.293 141.665 380.419 141.665 379.352C141.665 377.965 142.198 376.824 143.265 375.928C144.353 375.032 145.707 374.584 147.329 374.584C148.63 374.584 149.782 374.883 150.785 375.48C151.809 376.056 152.577 376.867 153.089 377.912L150.753 379.224C150.177 377.859 149.035 377.176 147.329 377.176C146.539 377.176 145.867 377.368 145.313 377.752C144.758 378.115 144.481 378.637 144.481 379.32ZM167.621 375H170.405V391H167.621V388.696C166.49 390.509 164.762 391.416 162.437 391.416C160.559 391.416 159.055 390.829 157.925 389.656C156.794 388.461 156.229 386.851 156.229 384.824V375H159.013V384.664C159.013 385.965 159.365 386.979 160.069 387.704C160.773 388.408 161.743 388.76 162.981 388.76C164.367 388.76 165.487 388.333 166.341 387.48C167.194 386.605 167.621 385.272 167.621 383.48V375ZM182.163 391.416C179.753 391.416 177.747 390.616 176.147 389.016C174.547 387.395 173.747 385.389 173.747 383C173.747 380.611 174.547 378.616 176.147 377.016C177.747 375.395 179.753 374.584 182.163 374.584C183.742 374.584 185.161 374.968 186.419 375.736C187.678 376.483 188.617 377.496 189.235 378.776L186.899 380.12C186.494 379.267 185.865 378.584 185.011 378.072C184.179 377.56 183.23 377.304 182.163 377.304C180.563 377.304 179.219 377.848 178.131 378.936C177.065 380.024 176.531 381.379 176.531 383C176.531 384.6 177.065 385.944 178.131 387.032C179.219 388.12 180.563 388.664 182.163 388.664C183.23 388.664 184.19 388.419 185.043 387.928C185.897 387.416 186.547 386.733 186.995 385.88L189.363 387.256C188.681 388.515 187.699 389.528 186.419 390.296C185.139 391.043 183.721 391.416 182.163 391.416ZM199.413 391.416C197.003 391.416 194.997 390.616 193.397 389.016C191.797 387.395 190.997 385.389 190.997 383C190.997 380.611 191.797 378.616 193.397 377.016C194.997 375.395 197.003 374.584 199.413 374.584C200.992 374.584 202.411 374.968 203.669 375.736C204.928 376.483 205.867 377.496 206.485 378.776L204.149 380.12C203.744 379.267 203.115 378.584 202.261 378.072C201.429 377.56 200.48 377.304 199.413 377.304C197.813 377.304 196.469 377.848 195.381 378.936C194.315 380.024 193.781 381.379 193.781 383C193.781 384.6 194.315 385.944 195.381 387.032C196.469 388.12 197.813 388.664 199.413 388.664C200.48 388.664 201.44 388.419 202.293 387.928C203.147 387.416 203.797 386.733 204.245 385.88L206.613 387.256C205.931 388.515 204.949 389.528 203.669 390.296C202.389 391.043 200.971 391.416 199.413 391.416ZM211.095 384.28C211.373 385.709 212.023 386.819 213.047 387.608C214.093 388.397 215.373 388.792 216.887 388.792C218.999 388.792 220.535 388.013 221.495 386.456L223.863 387.8C222.306 390.211 219.959 391.416 216.823 391.416C214.285 391.416 212.215 390.627 210.615 389.048C209.037 387.448 208.247 385.432 208.247 383C208.247 380.589 209.026 378.584 210.583 376.984C212.141 375.384 214.157 374.584 216.631 374.584C218.978 374.584 220.887 375.416 222.359 377.08C223.853 378.723 224.599 380.707 224.599 383.032C224.599 383.437 224.567 383.853 224.503 384.28H211.095ZM216.631 377.208C215.138 377.208 213.901 377.635 212.919 378.488C211.938 379.32 211.33 380.44 211.095 381.848H221.783C221.549 380.333 220.951 379.181 219.991 378.392C219.031 377.603 217.911 377.208 216.631 377.208ZM229.575 379.32C229.575 379.939 229.884 380.44 230.503 380.824C231.121 381.187 231.868 381.485 232.743 381.72C233.617 381.933 234.492 382.189 235.367 382.488C236.241 382.765 236.988 383.256 237.607 383.96C238.225 384.643 238.535 385.528 238.535 386.616C238.535 388.067 237.969 389.229 236.839 390.104C235.729 390.979 234.3 391.416 232.551 391.416C230.993 391.416 229.66 391.075 228.551 390.392C227.441 389.709 226.652 388.803 226.183 387.672L228.583 386.296C228.839 387.064 229.319 387.672 230.023 388.12C230.727 388.568 231.569 388.792 232.551 388.792C233.468 388.792 234.225 388.621 234.823 388.28C235.42 387.917 235.719 387.363 235.719 386.616C235.719 385.997 235.409 385.507 234.791 385.144C234.172 384.76 233.425 384.461 232.551 384.248C231.676 384.013 230.801 383.747 229.927 383.448C229.052 383.149 228.305 382.659 227.687 381.976C227.068 381.293 226.759 380.419 226.759 379.352C226.759 377.965 227.292 376.824 228.359 375.928C229.447 375.032 230.801 374.584 232.423 374.584C233.724 374.584 234.876 374.883 235.879 375.48C236.903 376.056 237.671 376.867 238.183 377.912L235.847 379.224C235.271 377.859 234.129 377.176 232.423 377.176C231.633 377.176 230.961 377.368 230.407 377.752C229.852 378.115 229.575 378.637 229.575 379.32ZM243.231 379.32C243.231 379.939 243.54 380.44 244.159 380.824C244.777 381.187 245.524 381.485 246.399 381.72C247.273 381.933 248.148 382.189 249.023 382.488C249.897 382.765 250.644 383.256 251.263 383.96C251.881 384.643 252.191 385.528 252.191 386.616C252.191 388.067 251.625 389.229 250.495 390.104C249.385 390.979 247.956 391.416 246.207 391.416C244.649 391.416 243.316 391.075 242.207 390.392C241.097 389.709 240.308 388.803 239.839 387.672L242.239 386.296C242.495 387.064 242.975 387.672 243.679 388.12C244.383 388.568 245.225 388.792 246.207 388.792C247.124 388.792 247.881 388.621 248.479 388.28C249.076 387.917 249.375 387.363 249.375 386.616C249.375 385.997 249.065 385.507 248.447 385.144C247.828 384.76 247.081 384.461 246.207 384.248C245.332 384.013 244.457 383.747 243.583 383.448C242.708 383.149 241.961 382.659 241.343 381.976C240.724 381.293 240.415 380.419 240.415 379.352C240.415 377.965 240.948 376.824 242.015 375.928C243.103 375.032 244.457 374.584 246.079 374.584C247.38 374.584 248.532 374.883 249.535 375.48C250.559 376.056 251.327 376.867 251.839 377.912L249.503 379.224C248.927 377.859 247.785 377.176 246.079 377.176C245.289 377.176 244.617 377.368 244.063 377.752C243.508 378.115 243.231 378.637 243.231 379.32ZM276.991 388.984C275.348 390.605 273.354 391.416 271.007 391.416C268.66 391.416 266.666 390.605 265.023 388.984C263.402 387.363 262.591 385.368 262.591 383C262.591 380.632 263.402 378.637 265.023 377.016C266.666 375.395 268.66 374.584 271.007 374.584C273.354 374.584 275.348 375.395 276.991 377.016C278.634 378.637 279.455 380.632 279.455 383C279.455 385.368 278.634 387.363 276.991 388.984ZM271.007 388.696C272.607 388.696 273.951 388.152 275.039 387.064C276.127 385.976 276.671 384.621 276.671 383C276.671 381.379 276.127 380.024 275.039 378.936C273.951 377.848 272.607 377.304 271.007 377.304C269.428 377.304 268.095 377.848 267.007 378.936C265.919 380.024 265.375 381.379 265.375 383C265.375 384.621 265.919 385.976 267.007 387.064C268.095 388.152 269.428 388.696 271.007 388.696ZM290.367 370.872C287.551 370.637 286.143 371.853 286.143 374.52V375H290.367V377.688H286.143V391H283.359V377.688H280.799V375H283.359V374.52C283.359 372.365 283.957 370.733 285.151 369.624C286.367 368.515 288.106 368.035 290.367 368.184V370.872ZM311.655 375H314.631L308.103 391.992C307.42 393.805 306.46 395.181 305.223 396.12C304.007 397.08 302.599 397.507 300.999 397.4V394.808C302.962 394.957 304.402 393.869 305.319 391.544L305.607 390.936L298.631 375H301.607L307.047 387.544L311.655 375ZM329.835 388.984C328.192 390.605 326.197 391.416 323.851 391.416C321.504 391.416 319.509 390.605 317.867 388.984C316.245 387.363 315.435 385.368 315.435 383C315.435 380.632 316.245 378.637 317.867 377.016C319.509 375.395 321.504 374.584 323.851 374.584C326.197 374.584 328.192 375.395 329.835 377.016C331.477 378.637 332.299 380.632 332.299 383C332.299 385.368 331.477 387.363 329.835 388.984ZM323.851 388.696C325.451 388.696 326.795 388.152 327.883 387.064C328.971 385.976 329.515 384.621 329.515 383C329.515 381.379 328.971 380.024 327.883 378.936C326.795 377.848 325.451 377.304 323.851 377.304C322.272 377.304 320.939 377.848 319.851 378.936C318.763 380.024 318.219 381.379 318.219 383C318.219 384.621 318.763 385.976 319.851 387.064C320.939 388.152 322.272 388.696 323.851 388.696ZM346.621 375H349.405V391H346.621V388.696C345.49 390.509 343.762 391.416 341.437 391.416C339.559 391.416 338.055 390.829 336.925 389.656C335.794 388.461 335.229 386.851 335.229 384.824V375H338.013V384.664C338.013 385.965 338.365 386.979 339.069 387.704C339.773 388.408 340.743 388.76 341.981 388.76C343.367 388.76 344.487 388.333 345.341 387.48C346.194 386.605 346.621 385.272 346.621 383.48V375ZM356.427 377.688C357.345 375.704 359.009 374.712 361.419 374.712V377.624C360.054 377.56 358.881 377.923 357.899 378.712C356.918 379.501 356.427 380.771 356.427 382.52V391H353.643V375H356.427V377.688ZM189.079 407.6H191.863V430H189.079V427.248C187.692 429.36 185.676 430.416 183.031 430.416C180.791 430.416 178.881 429.605 177.303 427.984C175.724 426.341 174.935 424.347 174.935 422C174.935 419.653 175.724 417.669 177.303 416.048C178.881 414.405 180.791 413.584 183.031 413.584C185.676 413.584 187.692 414.64 189.079 416.752V407.6ZM183.383 427.728C185.004 427.728 186.359 427.184 187.447 426.096C188.535 424.987 189.079 423.621 189.079 422C189.079 420.379 188.535 419.024 187.447 417.936C186.359 416.827 185.004 416.272 183.383 416.272C181.783 416.272 180.439 416.827 179.351 417.936C178.263 419.024 177.719 420.379 177.719 422C177.719 423.621 178.263 424.987 179.351 426.096C180.439 427.184 181.783 427.728 183.383 427.728ZM198.033 423.28C198.31 424.709 198.961 425.819 199.985 426.608C201.03 427.397 202.31 427.792 203.825 427.792C205.937 427.792 207.473 427.013 208.433 425.456L210.801 426.8C209.243 429.211 206.897 430.416 203.761 430.416C201.222 430.416 199.153 429.627 197.553 428.048C195.974 426.448 195.185 424.432 195.185 422C195.185 419.589 195.963 417.584 197.521 415.984C199.078 414.384 201.094 413.584 203.569 413.584C205.915 413.584 207.825 414.416 209.297 416.08C210.79 417.723 211.537 419.707 211.537 422.032C211.537 422.437 211.505 422.853 211.441 423.28H198.033ZM203.569 416.208C202.075 416.208 200.838 416.635 199.857 417.488C198.875 418.32 198.267 419.44 198.033 420.848H208.721C208.486 419.333 207.889 418.181 206.929 417.392C205.969 416.603 204.849 416.208 203.569 416.208ZM227.954 414H230.738V430H227.954V427.248C226.567 429.36 224.551 430.416 221.906 430.416C219.666 430.416 217.756 429.605 216.178 427.984C214.599 426.341 213.81 424.347 213.81 422C213.81 419.653 214.599 417.669 216.178 416.048C217.756 414.405 219.666 413.584 221.906 413.584C224.551 413.584 226.567 414.64 227.954 416.752V414ZM222.258 427.728C223.879 427.728 225.234 427.184 226.322 426.096C227.41 424.987 227.954 423.621 227.954 422C227.954 420.379 227.41 419.024 226.322 417.936C225.234 416.827 223.879 416.272 222.258 416.272C220.658 416.272 219.314 416.827 218.226 417.936C217.138 419.024 216.594 420.379 216.594 422C216.594 423.621 217.138 424.987 218.226 426.096C219.314 427.184 220.658 427.728 222.258 427.728ZM234.956 430V406.64H237.74V430H234.956ZM243.939 423.28C244.216 424.709 244.867 425.819 245.891 426.608C246.936 427.397 248.216 427.792 249.731 427.792C251.843 427.792 253.379 427.013 254.339 425.456L256.707 426.8C255.15 429.211 252.803 430.416 249.667 430.416C247.128 430.416 245.059 429.627 243.459 428.048C241.88 426.448 241.091 424.432 241.091 422C241.091 419.589 241.87 417.584 243.427 415.984C244.984 414.384 247 413.584 249.475 413.584C251.822 413.584 253.731 414.416 255.203 416.08C256.696 417.723 257.443 419.707 257.443 422.032C257.443 422.437 257.411 422.853 257.347 423.28H243.939ZM249.475 416.208C247.982 416.208 246.744 416.635 245.763 417.488C244.782 418.32 244.174 419.44 243.939 420.848H254.627C254.392 419.333 253.795 418.181 252.835 417.392C251.875 416.603 250.755 416.208 249.475 416.208ZM263.427 416.688C264.345 414.704 266.009 413.712 268.419 413.712V416.624C267.054 416.56 265.881 416.923 264.899 417.712C263.918 418.501 263.427 419.771 263.427 421.52V430H260.643V414H263.427V416.688ZM272.95 418.32C272.95 418.939 273.259 419.44 273.878 419.824C274.496 420.187 275.243 420.485 276.118 420.72C276.992 420.933 277.867 421.189 278.742 421.488C279.616 421.765 280.363 422.256 280.982 422.96C281.6 423.643 281.91 424.528 281.91 425.616C281.91 427.067 281.344 428.229 280.214 429.104C279.104 429.979 277.675 430.416 275.926 430.416C274.368 430.416 273.035 430.075 271.926 429.392C270.816 428.709 270.027 427.803 269.558 426.672L271.958 425.296C272.214 426.064 272.694 426.672 273.398 427.12C274.102 427.568 274.944 427.792 275.926 427.792C276.843 427.792 277.6 427.621 278.198 427.28C278.795 426.917 279.094 426.363 279.094 425.616C279.094 424.997 278.784 424.507 278.166 424.144C277.547 423.76 276.8 423.461 275.926 423.248C275.051 423.013 274.176 422.747 273.302 422.448C272.427 422.149 271.68 421.659 271.062 420.976C270.443 420.293 270.134 419.419 270.134 418.352C270.134 416.965 270.667 415.824 271.734 414.928C272.822 414.032 274.176 413.584 275.798 413.584C277.099 413.584 278.251 413.883 279.254 414.48C280.278 415.056 281.046 415.867 281.558 416.912L279.222 418.224C278.646 416.859 277.504 416.176 275.798 416.176C275.008 416.176 274.336 416.368 273.782 416.752C273.227 417.115 272.95 417.637 272.95 418.32ZM293.018 413.584C294.895 413.584 296.399 414.181 297.53 415.376C298.66 416.549 299.226 418.149 299.226 420.176V430H296.442V420.336C296.442 419.035 296.09 418.032 295.386 417.328C294.682 416.603 293.711 416.24 292.474 416.24C291.087 416.24 289.967 416.677 289.114 417.552C288.26 418.405 287.834 419.728 287.834 421.52V430H285.049V407.6H287.834V416.304C288.964 414.491 290.692 413.584 293.018 413.584ZM304.52 411.088C303.987 411.088 303.539 410.907 303.176 410.544C302.813 410.181 302.632 409.744 302.632 409.232C302.632 408.72 302.813 408.283 303.176 407.92C303.539 407.536 303.987 407.344 304.52 407.344C305.032 407.344 305.469 407.536 305.832 407.92C306.195 408.283 306.376 408.72 306.376 409.232C306.376 409.744 306.195 410.181 305.832 410.544C305.469 410.907 305.032 411.088 304.52 411.088ZM303.112 430V414H305.896V430H303.112ZM318.975 413.584C321.215 413.584 323.125 414.405 324.703 416.048C326.282 417.669 327.071 419.653 327.071 422C327.071 424.347 326.282 426.341 324.703 427.984C323.125 429.605 321.215 430.416 318.975 430.416C316.33 430.416 314.314 429.36 312.927 427.248V436.4H310.143V414H312.927V416.752C314.314 414.64 316.33 413.584 318.975 413.584ZM318.623 427.728C320.223 427.728 321.567 427.184 322.655 426.096C323.743 424.987 324.287 423.621 324.287 422C324.287 420.379 323.743 419.024 322.655 417.936C321.567 416.827 320.223 416.272 318.623 416.272C317.002 416.272 315.647 416.827 314.559 417.936C313.471 419.024 312.927 420.379 312.927 422C312.927 423.621 313.471 424.987 314.559 426.096C315.647 427.184 317.002 427.728 318.623 427.728Z" fill="#1F1F1F"/>
<g style="mix-blend-mode:multiply">
<path d="M273.567 67.5122L319.767 250.242C319.767 250.242 180.447 293.607 106.977 297.267L94.7073 133.197L273.567 67.5122Z" fill="#E6E6E6"/>
</g>
<path d="M111.897 262.962C164.217 274.647 323.397 236.127 323.397 236.127L296.113 37.3018C247.063 43.0018 161.353 60.6718 90.6426 71.4868L92.8926 90.6718L111.897 262.962Z" fill="#183787"/>
<path d="M257.262 47.4871L261.267 33.8071C261.267 33.8071 261.342 33.8071 261.372 33.8071C262.332 34.0921 262.872 35.0521 262.602 35.9821H262.632L259.107 48.0271L257.247 47.4721L257.262 47.4871Z" fill="black"/>
<path d="M255.643 47.0068L259.168 34.9768C259.423 34.0918 260.353 33.5968 261.268 33.8068L257.263 47.4868L255.643 47.0068Z" fill="#333333"/>
<path d="M226.918 28.6769C227.998 28.9919 228.628 30.1019 228.313 31.1519H228.358L219.358 61.8869L209.773 94.6019C206.893 104.442 212.818 114.882 222.988 117.852C233.158 120.837 243.778 115.242 246.658 105.402L257.353 68.8919L265.243 41.9669H265.273L270.793 23.1419C273.103 15.2969 268.363 6.98694 260.263 4.61694C252.163 2.24694 243.702 6.68694 241.408 14.5319L235.888 33.3719H235.858L227.083 63.3119L225.358 62.8319L240.118 12.4169C246.433 -1.15806 259.243 2.36694 259.243 2.36694C275.398 6.37194 273.283 21.6569 273.283 21.6569L259.333 69.2669L248.353 106.737C241.138 123.882 223.708 120.072 223.708 120.072C201.823 112.527 207.988 92.8019 207.988 92.8019L217.153 61.5119L226.768 28.6919C226.768 28.6919 226.843 28.6919 226.888 28.6919L226.918 28.6769Z" fill="black"/>
<path d="M226.797 28.662L217.183 61.482L208.018 92.772C208.018 92.772 201.853 112.497 223.738 120.042C223.738 120.042 241.167 123.852 248.382 106.707L259.363 69.237L273.312 21.627C273.312 21.627 275.412 6.34196 259.272 2.33696C259.272 2.33696 246.462 -1.17304 240.147 12.387L225.387 62.802L222.837 62.052L231.942 32.172H232.003L237.522 13.362C240.432 3.43196 251.157 -2.19304 261.402 0.806961C271.677 3.80696 277.648 14.337 274.738 24.267L269.217 43.092L261.448 69.612L250.632 106.542C247.137 118.497 234.238 125.277 221.893 121.662C209.548 118.047 202.347 105.372 205.857 93.417L215.323 61.107L224.442 29.967C224.742 28.962 225.792 28.392 226.842 28.632L226.797 28.662Z" fill="#333333"/>
<path d="M262.678 42.0121L223.888 48.5221L220.723 64.5121L259.963 58.9021C259.963 58.9021 259.963 56.5021 259.963 55.8421C259.963 55.1821 262.678 41.9971 262.678 41.9971" fill="#183787"/>
<path d="M192.084 194.359C186.581 195.337 181.884 194.027 177.995 190.428C174.139 186.78 171.595 181.49 170.363 174.559C169.131 167.627 169.7 161.806 172.069 157.095C174.473 152.334 178.426 149.464 183.929 148.486C189.474 147.5 194.175 148.831 198.03 152.48C201.878 156.086 204.418 161.354 205.65 168.286C206.882 175.217 206.317 181.06 203.956 185.813C201.586 190.524 197.629 193.373 192.084 194.359ZM183.243 183.385C185.188 185.552 187.631 186.375 190.572 185.852C193.512 185.329 195.519 183.694 196.59 180.947C197.704 178.192 197.846 174.483 197.017 169.82C196.181 165.116 194.765 161.662 192.771 159.46C190.818 157.25 188.371 156.407 185.43 156.929C182.49 157.452 180.484 159.087 179.412 161.835C178.34 164.582 178.223 168.308 179.059 173.013C179.895 177.718 181.29 181.175 183.243 183.385ZM224.429 156.952C229.03 156.264 233.013 157.095 236.377 159.443C239.734 161.75 241.805 165.109 242.589 169.52C243.388 174.015 242.554 177.976 240.086 181.405C237.612 184.792 234.022 186.904 229.317 187.74C224.612 188.576 220.514 187.831 217.024 185.505C213.575 183.171 211.448 179.736 210.642 175.199C210.044 171.838 210.379 168.724 211.646 165.855L221.697 142.682L231.653 140.912L224.429 156.952ZM222.283 178.525C223.901 179.58 225.76 179.922 227.861 179.548C229.961 179.175 231.589 178.214 232.743 176.665C233.94 175.109 234.344 173.239 233.956 171.054C233.575 168.912 232.555 167.317 230.895 166.268C229.277 165.212 227.418 164.871 225.318 165.245C223.217 165.618 221.59 166.579 220.435 168.128C219.273 169.634 218.886 171.48 219.274 173.664C219.663 175.849 220.666 177.469 222.283 178.525Z" fill="white"/>
<defs>
<filter id="filter0_d_1797_4718" x="0.822266" y="26.7271" width="501.765" height="544.275" filterUnits="userSpaceOnUse" color-interpolation-filters="sRGB">
<feFlood flood-opacity="0" result="BackgroundImageFix"/>
<feColorMatrix in="SourceAlpha" type="matrix" values="0 0 0 0 0 0 0 0 0 0 0 0 0 0 0 0 0 0 127 0" result="hardAlpha"/>
<feOffset dy="3"/>
<feGaussianBlur stdDeviation="12"/>
<feComposite in2="hardAlpha" operator="out"/>
<feColorMatrix type="matrix" values="0 0 0 0 0 0 0 0 0 0 0 0 0 0 0 0 0 0 0.08 0"/>
<feBlend mode="normal" in2="BackgroundImageFix" result="effect1_dropShadow_1797_4718"/>
<feBlend mode="normal" in="SourceGraphic" in2="effect1_dropShadow_1797_4718" result="shape"/>
</filter>
</defs>
</svg>
