<svg width="503" height="571" viewBox="0 0 503 571" fill="none" xmlns="http://www.w3.org/2000/svg">
<g filter="url(#filter0_d_1797_4929)">
<path d="M478.587 491.847V99.8821C478.587 71.0777 455.237 47.7271 426.432 47.7271L76.9774 47.7271C48.173 47.7271 24.8224 71.0777 24.8224 99.8821V491.847C24.8224 520.651 48.173 544.002 76.9774 544.002H426.432C455.237 544.002 478.587 520.651 478.587 491.847Z" fill="white"/>
</g>
<path d="M320.398 528.117H192.103C184.547 528.117 178.423 534.241 178.423 541.797C178.423 549.352 184.547 555.477 192.103 555.477H320.398C327.953 555.477 334.078 549.352 334.078 541.797C334.078 534.241 327.953 528.117 320.398 528.117Z" fill="#1A6F86"/>
<path d="M115.105 329.6C118.155 329.6 120.683 330.688 122.689 332.864C124.715 335.019 125.729 337.664 125.729 340.8C125.729 343.936 124.715 346.592 122.689 348.768C120.683 350.923 118.155 352 115.105 352H106.369V329.6H115.105ZM115.105 349.184C117.387 349.184 119.254 348.384 120.705 346.784C122.155 345.184 122.881 343.189 122.881 340.8C122.881 338.411 122.155 336.416 120.705 334.816C119.254 333.216 117.387 332.416 115.105 332.416H109.345V349.184H115.105ZM131.002 345.28C131.279 346.709 131.93 347.819 132.954 348.608C133.999 349.397 135.279 349.792 136.794 349.792C138.906 349.792 140.442 349.013 141.402 347.456L143.77 348.8C142.212 351.211 139.866 352.416 136.73 352.416C134.191 352.416 132.122 351.627 130.522 350.048C128.943 348.448 128.154 346.432 128.154 344C128.154 341.589 128.932 339.584 130.49 337.984C132.047 336.384 134.063 335.584 136.538 335.584C138.884 335.584 140.794 336.416 142.266 338.08C143.759 339.723 144.506 341.707 144.506 344.032C144.506 344.437 144.474 344.853 144.41 345.28H131.002ZM136.538 338.208C135.044 338.208 133.807 338.635 132.826 339.488C131.844 340.32 131.236 341.44 131.002 342.848H141.69C141.455 341.333 140.858 340.181 139.898 339.392C138.938 338.603 137.818 338.208 136.538 338.208ZM155.941 338.688H151.685V347.36C151.685 348.149 151.834 348.715 152.133 349.056C152.453 349.376 152.933 349.547 153.573 349.568C154.213 349.568 155.002 349.547 155.941 349.504V352C153.509 352.32 151.728 352.128 150.597 351.424C149.466 350.699 148.901 349.344 148.901 347.36V338.688H145.733V336H148.901V332.352L151.685 331.52V336H155.941V338.688ZM171.673 336H174.457V352H171.673V349.248C170.286 351.36 168.27 352.416 165.625 352.416C163.385 352.416 161.475 351.605 159.897 349.984C158.318 348.341 157.529 346.347 157.529 344C157.529 341.653 158.318 339.669 159.897 338.048C161.475 336.405 163.385 335.584 165.625 335.584C168.27 335.584 170.286 336.64 171.673 338.752V336ZM165.977 349.728C167.598 349.728 168.953 349.184 170.041 348.096C171.129 346.987 171.673 345.621 171.673 344C171.673 342.379 171.129 341.024 170.041 339.936C168.953 338.827 167.598 338.272 165.977 338.272C164.377 338.272 163.033 338.827 161.945 339.936C160.857 341.024 160.312 342.379 160.312 344C160.312 345.621 160.857 346.987 161.945 348.096C163.033 349.184 164.377 349.728 165.977 349.728ZM180.083 333.088C179.549 333.088 179.101 332.907 178.739 332.544C178.376 332.181 178.195 331.744 178.195 331.232C178.195 330.72 178.376 330.283 178.739 329.92C179.101 329.536 179.549 329.344 180.083 329.344C180.595 329.344 181.032 329.536 181.395 329.92C181.757 330.283 181.939 330.72 181.939 331.232C181.939 331.744 181.757 332.181 181.395 332.544C181.032 332.907 180.595 333.088 180.083 333.088ZM178.674 352V336H181.459V352H178.674ZM185.706 352V328.64H188.49V352H185.706ZM194.689 345.28C194.966 346.709 195.617 347.819 196.641 348.608C197.686 349.397 198.966 349.792 200.481 349.792C202.593 349.792 204.129 349.013 205.089 347.456L207.457 348.8C205.9 351.211 203.553 352.416 200.417 352.416C197.878 352.416 195.809 351.627 194.209 350.048C192.63 348.448 191.841 346.432 191.841 344C191.841 341.589 192.62 339.584 194.177 337.984C195.734 336.384 197.75 335.584 200.225 335.584C202.572 335.584 204.481 336.416 205.953 338.08C207.446 339.723 208.193 341.707 208.193 344.032C208.193 344.437 208.161 344.853 208.097 345.28H194.689ZM200.225 338.208C198.732 338.208 197.494 338.635 196.513 339.488C195.532 340.32 194.924 341.44 194.689 342.848H205.377C205.142 341.333 204.545 340.181 203.585 339.392C202.625 338.603 201.505 338.208 200.225 338.208ZM224.61 329.6H227.394V352H224.61V349.248C223.223 351.36 221.207 352.416 218.562 352.416C216.322 352.416 214.413 351.605 212.834 349.984C211.255 348.341 210.466 346.347 210.466 344C210.466 341.653 211.255 339.669 212.834 338.048C214.413 336.405 216.322 335.584 218.562 335.584C221.207 335.584 223.223 336.64 224.61 338.752V329.6ZM218.914 349.728C220.535 349.728 221.89 349.184 222.978 348.096C224.066 346.987 224.61 345.621 224.61 344C224.61 342.379 224.066 341.024 222.978 339.936C221.89 338.827 220.535 338.272 218.914 338.272C217.314 338.272 215.97 338.827 214.882 339.936C213.794 341.024 213.25 342.379 213.25 344C213.25 345.621 213.794 346.987 214.882 348.096C215.97 349.184 217.314 349.728 218.914 349.728ZM247.132 352.416C244.721 352.416 242.716 351.616 241.116 350.016C239.516 348.395 238.716 346.389 238.716 344C238.716 341.611 239.516 339.616 241.116 338.016C242.716 336.395 244.721 335.584 247.132 335.584C248.711 335.584 250.129 335.968 251.388 336.736C252.647 337.483 253.585 338.496 254.204 339.776L251.868 341.12C251.463 340.267 250.833 339.584 249.98 339.072C249.148 338.56 248.199 338.304 247.132 338.304C245.532 338.304 244.188 338.848 243.1 339.936C242.033 341.024 241.5 342.379 241.5 344C241.5 345.6 242.033 346.944 243.1 348.032C244.188 349.12 245.532 349.664 247.132 349.664C248.199 349.664 249.159 349.419 250.012 348.928C250.865 348.416 251.516 347.733 251.964 346.88L254.332 348.256C253.649 349.515 252.668 350.528 251.388 351.296C250.108 352.043 248.689 352.416 247.132 352.416ZM270.11 336H272.894V352H270.11V349.248C268.723 351.36 266.707 352.416 264.062 352.416C261.822 352.416 259.913 351.605 258.334 349.984C256.755 348.341 255.966 346.347 255.966 344C255.966 341.653 256.755 339.669 258.334 338.048C259.913 336.405 261.822 335.584 264.062 335.584C266.707 335.584 268.723 336.64 270.11 338.752V336ZM264.414 349.728C266.035 349.728 267.39 349.184 268.478 348.096C269.566 346.987 270.11 345.621 270.11 344C270.11 342.379 269.566 341.024 268.478 339.936C267.39 338.827 266.035 338.272 264.414 338.272C262.814 338.272 261.47 338.827 260.382 339.936C259.294 341.024 258.75 342.379 258.75 344C258.75 345.621 259.294 346.987 260.382 348.096C261.47 349.184 262.814 349.728 264.414 349.728ZM279.896 338.688C280.813 336.704 282.477 335.712 284.888 335.712V338.624C283.523 338.56 282.349 338.923 281.368 339.712C280.387 340.501 279.896 341.771 279.896 343.52V352H277.112V336H279.896V338.688ZM298.396 338.688C299.313 336.704 300.977 335.712 303.388 335.712V338.624C302.023 338.56 300.849 338.923 299.868 339.712C298.887 340.501 298.396 341.771 298.396 343.52V352H295.612V336H298.396V338.688ZM307.189 345.28C307.466 346.709 308.117 347.819 309.141 348.608C310.186 349.397 311.466 349.792 312.981 349.792C315.093 349.792 316.629 349.013 317.589 347.456L319.957 348.8C318.4 351.211 316.053 352.416 312.917 352.416C310.378 352.416 308.309 351.627 306.709 350.048C305.13 348.448 304.341 346.432 304.341 344C304.341 341.589 305.12 339.584 306.677 337.984C308.234 336.384 310.25 335.584 312.725 335.584C315.072 335.584 316.981 336.416 318.453 338.08C319.946 339.723 320.693 341.707 320.693 344.032C320.693 344.437 320.661 344.853 320.597 345.28H307.189ZM312.725 338.208C311.232 338.208 309.994 338.635 309.013 339.488C308.032 340.32 307.424 341.44 307.189 342.848H317.877C317.642 341.333 317.045 340.181 316.085 339.392C315.125 338.603 314.005 338.208 312.725 338.208ZM332.725 335.584C334.965 335.584 336.875 336.405 338.453 338.048C340.032 339.669 340.821 341.653 340.821 344C340.821 346.347 340.032 348.341 338.453 349.984C336.875 351.605 334.965 352.416 332.725 352.416C330.08 352.416 328.064 351.36 326.677 349.248V358.4H323.893V336H326.677V338.752C328.064 336.64 330.08 335.584 332.725 335.584ZM332.373 349.728C333.973 349.728 335.317 349.184 336.405 348.096C337.493 346.987 338.037 345.621 338.037 344C338.037 342.379 337.493 341.024 336.405 339.936C335.317 338.827 333.973 338.272 332.373 338.272C330.752 338.272 329.397 338.827 328.309 339.936C327.221 341.024 326.677 342.379 326.677 344C326.677 345.621 327.221 346.987 328.309 348.096C329.397 349.184 330.752 349.728 332.373 349.728ZM357.647 349.984C356.005 351.605 354.01 352.416 351.663 352.416C349.317 352.416 347.322 351.605 345.679 349.984C344.058 348.363 343.247 346.368 343.247 344C343.247 341.632 344.058 339.637 345.679 338.016C347.322 336.395 349.317 335.584 351.663 335.584C354.01 335.584 356.005 336.395 357.647 338.016C359.29 339.637 360.111 341.632 360.111 344C360.111 346.368 359.29 348.363 357.647 349.984ZM351.663 349.696C353.263 349.696 354.607 349.152 355.695 348.064C356.783 346.976 357.327 345.621 357.327 344C357.327 342.379 356.783 341.024 355.695 339.936C354.607 338.848 353.263 338.304 351.663 338.304C350.085 338.304 348.751 338.848 347.663 339.936C346.575 341.024 346.031 342.379 346.031 344C346.031 345.621 346.575 346.976 347.663 348.064C348.751 349.152 350.085 349.696 351.663 349.696ZM366.177 338.688C367.095 336.704 368.759 335.712 371.169 335.712V338.624C369.804 338.56 368.631 338.923 367.649 339.712C366.668 340.501 366.177 341.771 366.177 343.52V352H363.393V336H366.177V338.688ZM382.972 338.688H378.716V347.36C378.716 348.149 378.866 348.715 379.164 349.056C379.484 349.376 379.964 349.547 380.604 349.568C381.244 349.568 382.034 349.547 382.972 349.504V352C380.54 352.32 378.759 352.128 377.628 351.424C376.498 350.699 375.932 349.344 375.932 347.36V338.688H372.764V336H375.932V332.352L378.716 331.52V336H382.972V338.688ZM387.887 340.32C387.887 340.939 388.196 341.44 388.815 341.824C389.434 342.187 390.18 342.485 391.055 342.72C391.93 342.933 392.804 343.189 393.679 343.488C394.554 343.765 395.3 344.256 395.919 344.96C396.538 345.643 396.847 346.528 396.847 347.616C396.847 349.067 396.282 350.229 395.151 351.104C394.042 351.979 392.612 352.416 390.863 352.416C389.306 352.416 387.972 352.075 386.863 351.392C385.754 350.709 384.964 349.803 384.495 348.672L386.895 347.296C387.151 348.064 387.631 348.672 388.335 349.12C389.039 349.568 389.882 349.792 390.863 349.792C391.78 349.792 392.538 349.621 393.135 349.28C393.732 348.917 394.031 348.363 394.031 347.616C394.031 346.997 393.722 346.507 393.103 346.144C392.484 345.76 391.738 345.461 390.863 345.248C389.988 345.013 389.114 344.747 388.239 344.448C387.364 344.149 386.618 343.659 385.999 342.976C385.38 342.293 385.071 341.419 385.071 340.352C385.071 338.965 385.604 337.824 386.671 336.928C387.759 336.032 389.114 335.584 390.735 335.584C392.036 335.584 393.188 335.883 394.191 336.48C395.215 337.056 395.983 337.867 396.495 338.912L394.159 340.224C393.583 338.859 392.442 338.176 390.735 338.176C389.946 338.176 389.274 338.368 388.719 338.752C388.164 339.115 387.887 339.637 387.887 340.32ZM101.772 388.984C100.13 390.605 98.1349 391.416 95.7883 391.416C93.4416 391.416 91.4469 390.605 89.8043 388.984C88.1829 387.363 87.3723 385.368 87.3723 383C87.3723 380.632 88.1829 378.637 89.8043 377.016C91.4469 375.395 93.4416 374.584 95.7883 374.584C98.1349 374.584 100.13 375.395 101.772 377.016C103.415 378.637 104.236 380.632 104.236 383C104.236 385.368 103.415 387.363 101.772 388.984ZM95.7883 388.696C97.3883 388.696 98.7323 388.152 99.8203 387.064C100.908 385.976 101.452 384.621 101.452 383C101.452 381.379 100.908 380.024 99.8203 378.936C98.7323 377.848 97.3883 377.304 95.7883 377.304C94.2096 377.304 92.8763 377.848 91.7883 378.936C90.7003 380.024 90.1562 381.379 90.1562 383C90.1562 384.621 90.7003 385.976 91.7883 387.064C92.8763 388.152 94.2096 388.696 95.7883 388.696ZM118.558 375H121.342V391H118.558V388.696C117.428 390.509 115.7 391.416 113.374 391.416C111.497 391.416 109.993 390.829 108.862 389.656C107.732 388.461 107.166 386.851 107.166 384.824V375H109.95V384.664C109.95 385.965 110.302 386.979 111.006 387.704C111.71 388.408 112.681 388.76 113.918 388.76C115.305 388.76 116.425 388.333 117.278 387.48C118.132 386.605 118.558 385.272 118.558 383.48V375ZM134.285 377.688H130.029V386.36C130.029 387.149 130.178 387.715 130.477 388.056C130.797 388.376 131.277 388.547 131.917 388.568C132.557 388.568 133.346 388.547 134.285 388.504V391C131.853 391.32 130.071 391.128 128.941 390.424C127.81 389.699 127.245 388.344 127.245 386.36V377.688H124.077V375H127.245V371.352L130.029 370.52V375H134.285V377.688ZM137.581 391V367.64H140.365V391H137.581ZM146.02 372.088C145.487 372.088 145.039 371.907 144.676 371.544C144.313 371.181 144.132 370.744 144.132 370.232C144.132 369.72 144.313 369.283 144.676 368.92C145.039 368.536 145.487 368.344 146.02 368.344C146.532 368.344 146.969 368.536 147.332 368.92C147.695 369.283 147.876 369.72 147.876 370.232C147.876 370.744 147.695 371.181 147.332 371.544C146.969 371.907 146.532 372.088 146.02 372.088ZM144.612 391V375H147.396V391H144.612ZM159.611 374.584C161.489 374.584 162.993 375.181 164.123 376.376C165.254 377.549 165.819 379.149 165.819 381.176V391H163.035V381.336C163.035 380.035 162.683 379.032 161.979 378.328C161.275 377.603 160.305 377.24 159.067 377.24C157.681 377.24 156.561 377.677 155.707 378.552C154.854 379.405 154.427 380.728 154.427 382.52V391H151.643V375H154.427V377.304C155.558 375.491 157.286 374.584 159.611 374.584ZM171.114 372.088C170.58 372.088 170.132 371.907 169.77 371.544C169.407 371.181 169.226 370.744 169.226 370.232C169.226 369.72 169.407 369.283 169.77 368.92C170.132 368.536 170.58 368.344 171.114 368.344C171.626 368.344 172.063 368.536 172.426 368.92C172.788 369.283 172.97 369.72 172.97 370.232C172.97 370.744 172.788 371.181 172.426 371.544C172.063 371.907 171.626 372.088 171.114 372.088ZM169.706 391V375H172.49V391H169.706ZM184.705 374.584C186.582 374.584 188.086 375.181 189.217 376.376C190.348 377.549 190.913 379.149 190.913 381.176V391H188.129V381.336C188.129 380.035 187.777 379.032 187.073 378.328C186.369 377.603 185.398 377.24 184.161 377.24C182.774 377.24 181.654 377.677 180.801 378.552C179.948 379.405 179.521 380.728 179.521 382.52V391H176.737V375H179.521V377.304C180.652 375.491 182.38 374.584 184.705 374.584ZM208.08 375H210.832V390.328C210.832 392.696 210.032 394.531 208.432 395.832C206.832 397.155 204.912 397.816 202.672 397.816C200.88 397.816 199.333 397.475 198.032 396.792C196.73 396.131 195.749 395.171 195.088 393.912L197.52 392.536C198.394 394.328 200.133 395.224 202.736 395.224C204.4 395.224 205.701 394.787 206.64 393.912C207.6 393.037 208.08 391.843 208.08 390.328V388.056C206.672 390.189 204.666 391.256 202.064 391.256C199.781 391.256 197.85 390.445 196.272 388.824C194.693 387.203 193.904 385.229 193.904 382.904C193.904 380.579 194.693 378.616 196.272 377.016C197.85 375.395 199.781 374.584 202.064 374.584C204.688 374.584 206.693 375.64 208.08 377.752V375ZM198.32 386.968C199.408 388.056 200.762 388.6 202.384 388.6C204.005 388.6 205.36 388.056 206.448 386.968C207.536 385.88 208.08 384.525 208.08 382.904C208.08 381.304 207.536 379.96 206.448 378.872C205.36 377.784 204.005 377.24 202.384 377.24C200.762 377.24 199.408 377.784 198.32 378.872C197.232 379.96 196.688 381.304 196.688 382.904C196.688 384.525 197.232 385.88 198.32 386.968ZM231.754 377.688H227.498V386.36C227.498 387.149 227.647 387.715 227.946 388.056C228.266 388.376 228.746 388.547 229.385 388.568C230.025 388.568 230.815 388.547 231.754 388.504V391C229.322 391.32 227.54 391.128 226.41 390.424C225.279 389.699 224.714 388.344 224.714 386.36V377.688H221.546V375H224.714V371.352L227.498 370.52V375H231.754V377.688ZM243.018 374.584C244.895 374.584 246.399 375.181 247.53 376.376C248.66 377.549 249.226 379.149 249.226 381.176V391H246.442V381.336C246.442 380.035 246.09 379.032 245.386 378.328C244.682 377.603 243.711 377.24 242.474 377.24C241.087 377.24 239.967 377.677 239.114 378.552C238.26 379.405 237.834 380.728 237.834 382.52V391H235.049V368.6H237.834V377.304C238.964 375.491 240.692 374.584 243.018 374.584ZM255.064 384.28C255.341 385.709 255.992 386.819 257.016 387.608C258.061 388.397 259.341 388.792 260.856 388.792C262.968 388.792 264.504 388.013 265.464 386.456L267.832 387.8C266.275 390.211 263.928 391.416 260.792 391.416C258.253 391.416 256.184 390.627 254.584 389.048C253.005 387.448 252.216 385.432 252.216 383C252.216 380.589 252.995 378.584 254.552 376.984C256.109 375.384 258.125 374.584 260.6 374.584C262.947 374.584 264.856 375.416 266.328 377.08C267.821 378.723 268.568 380.707 268.568 383.032C268.568 383.437 268.536 383.853 268.472 384.28H255.064ZM260.6 377.208C259.107 377.208 257.869 377.635 256.888 378.488C255.907 379.32 255.299 380.44 255.064 381.848H265.752C265.517 380.333 264.92 379.181 263.96 378.392C263 377.603 261.88 377.208 260.6 377.208ZM287.288 391.416C284.878 391.416 282.872 390.616 281.272 389.016C279.672 387.395 278.872 385.389 278.872 383C278.872 380.611 279.672 378.616 281.272 377.016C282.872 375.395 284.878 374.584 287.288 374.584C288.867 374.584 290.286 374.968 291.544 375.736C292.803 376.483 293.742 377.496 294.36 378.776L292.024 380.12C291.619 379.267 290.99 378.584 290.136 378.072C289.304 377.56 288.355 377.304 287.288 377.304C285.688 377.304 284.344 377.848 283.256 378.936C282.19 380.024 281.656 381.379 281.656 383C281.656 384.6 282.19 385.944 283.256 387.032C284.344 388.12 285.688 388.664 287.288 388.664C288.355 388.664 289.315 388.419 290.168 387.928C291.022 387.416 291.672 386.733 292.12 385.88L294.488 387.256C293.806 388.515 292.824 389.528 291.544 390.296C290.264 391.043 288.846 391.416 287.288 391.416ZM310.522 388.984C308.88 390.605 306.885 391.416 304.538 391.416C302.192 391.416 300.197 390.605 298.554 388.984C296.933 387.363 296.122 385.368 296.122 383C296.122 380.632 296.933 378.637 298.554 377.016C300.197 375.395 302.192 374.584 304.538 374.584C306.885 374.584 308.88 375.395 310.522 377.016C312.165 378.637 312.986 380.632 312.986 383C312.986 385.368 312.165 387.363 310.522 388.984ZM304.538 388.696C306.138 388.696 307.482 388.152 308.57 387.064C309.658 385.976 310.202 384.621 310.202 383C310.202 381.379 309.658 380.024 308.57 378.936C307.482 377.848 306.138 377.304 304.538 377.304C302.96 377.304 301.626 377.848 300.538 378.936C299.45 380.024 298.906 381.379 298.906 383C298.906 384.621 299.45 385.976 300.538 387.064C301.626 388.152 302.96 388.696 304.538 388.696ZM324.236 374.584C326.114 374.584 327.618 375.181 328.748 376.376C329.879 377.549 330.444 379.149 330.444 381.176V391H327.66V381.336C327.66 380.035 327.308 379.032 326.604 378.328C325.9 377.603 324.93 377.24 323.692 377.24C322.306 377.24 321.186 377.677 320.332 378.552C319.479 379.405 319.052 380.728 319.052 382.52V391H316.268V375H319.052V377.304C320.183 375.491 321.911 374.584 324.236 374.584ZM347.579 368.6H350.363V391H347.579V388.248C346.192 390.36 344.176 391.416 341.531 391.416C339.291 391.416 337.381 390.605 335.803 388.984C334.224 387.341 333.435 385.347 333.435 383C333.435 380.653 334.224 378.669 335.803 377.048C337.381 375.405 339.291 374.584 341.531 374.584C344.176 374.584 346.192 375.64 347.579 377.752V368.6ZM341.883 388.728C343.504 388.728 344.859 388.184 345.947 387.096C347.035 385.987 347.579 384.621 347.579 383C347.579 381.379 347.035 380.024 345.947 378.936C344.859 377.827 343.504 377.272 341.883 377.272C340.283 377.272 338.939 377.827 337.851 378.936C336.763 380.024 336.219 381.379 336.219 383C336.219 384.621 336.763 385.987 337.851 387.096C338.939 388.184 340.283 388.728 341.883 388.728ZM355.989 372.088C355.455 372.088 355.007 371.907 354.645 371.544C354.282 371.181 354.101 370.744 354.101 370.232C354.101 369.72 354.282 369.283 354.645 368.92C355.007 368.536 355.455 368.344 355.989 368.344C356.501 368.344 356.938 368.536 357.301 368.92C357.663 369.283 357.845 369.72 357.845 370.232C357.845 370.744 357.663 371.181 357.301 371.544C356.938 371.907 356.501 372.088 355.989 372.088ZM354.581 391V375H357.365V391H354.581ZM370.316 377.688H366.06V386.36C366.06 387.149 366.209 387.715 366.508 388.056C366.828 388.376 367.308 388.547 367.948 388.568C368.588 388.568 369.377 388.547 370.316 388.504V391C367.884 391.32 366.103 391.128 364.972 390.424C363.841 389.699 363.276 388.344 363.276 386.36V377.688H360.108V375H363.276V371.352L366.06 370.52V375H370.316V377.688ZM375.02 372.088C374.487 372.088 374.039 371.907 373.676 371.544C373.313 371.181 373.132 370.744 373.132 370.232C373.132 369.72 373.313 369.283 373.676 368.92C374.039 368.536 374.487 368.344 375.02 368.344C375.532 368.344 375.969 368.536 376.332 368.92C376.695 369.283 376.876 369.72 376.876 370.232C376.876 370.744 376.695 371.181 376.332 371.544C375.969 371.907 375.532 372.088 375.02 372.088ZM373.612 391V375H376.396V391H373.612ZM394.147 388.984C392.505 390.605 390.51 391.416 388.163 391.416C385.817 391.416 383.822 390.605 382.179 388.984C380.558 387.363 379.747 385.368 379.747 383C379.747 380.632 380.558 378.637 382.179 377.016C383.822 375.395 385.817 374.584 388.163 374.584C390.51 374.584 392.505 375.395 394.147 377.016C395.79 378.637 396.611 380.632 396.611 383C396.611 385.368 395.79 387.363 394.147 388.984ZM388.163 388.696C389.763 388.696 391.107 388.152 392.195 387.064C393.283 385.976 393.827 384.621 393.827 383C393.827 381.379 393.283 380.024 392.195 378.936C391.107 377.848 389.763 377.304 388.163 377.304C386.585 377.304 385.251 377.848 384.163 378.936C383.075 380.024 382.531 381.379 382.531 383C382.531 384.621 383.075 385.976 384.163 387.064C385.251 388.152 386.585 388.696 388.163 388.696ZM407.861 374.584C409.739 374.584 411.243 375.181 412.373 376.376C413.504 377.549 414.069 379.149 414.069 381.176V391H411.285V381.336C411.285 380.035 410.933 379.032 410.229 378.328C409.525 377.603 408.555 377.24 407.317 377.24C405.931 377.24 404.811 377.677 403.957 378.552C403.104 379.405 402.677 380.728 402.677 382.52V391H399.893V375H402.677V377.304C403.808 375.491 405.536 374.584 407.861 374.584ZM155.491 427.984C153.848 429.605 151.854 430.416 149.507 430.416C147.16 430.416 145.166 429.605 143.523 427.984C141.902 426.363 141.091 424.368 141.091 422C141.091 419.632 141.902 417.637 143.523 416.016C145.166 414.395 147.16 413.584 149.507 413.584C151.854 413.584 153.848 414.395 155.491 416.016C157.134 417.637 157.955 419.632 157.955 422C157.955 424.368 157.134 426.363 155.491 427.984ZM149.507 427.696C151.107 427.696 152.451 427.152 153.539 426.064C154.627 424.976 155.171 423.621 155.171 422C155.171 420.379 154.627 419.024 153.539 417.936C152.451 416.848 151.107 416.304 149.507 416.304C147.928 416.304 146.595 416.848 145.507 417.936C144.419 419.024 143.875 420.379 143.875 422C143.875 423.621 144.419 424.976 145.507 426.064C146.595 427.152 147.928 427.696 149.507 427.696ZM168.867 409.872C166.051 409.637 164.643 410.853 164.643 413.52V414H168.867V416.688H164.643V430H161.859V416.688H159.299V414H161.859V413.52C161.859 411.365 162.457 409.733 163.651 408.624C164.867 407.515 166.606 407.035 168.867 407.184V409.872ZM180.939 423.28C181.216 424.709 181.867 425.819 182.891 426.608C183.936 427.397 185.216 427.792 186.731 427.792C188.843 427.792 190.379 427.013 191.339 425.456L193.707 426.8C192.15 429.211 189.803 430.416 186.667 430.416C184.128 430.416 182.059 429.627 180.459 428.048C178.88 426.448 178.091 424.432 178.091 422C178.091 419.589 178.87 417.584 180.427 415.984C181.984 414.384 184 413.584 186.475 413.584C188.822 413.584 190.731 414.416 192.203 416.08C193.696 417.723 194.443 419.707 194.443 422.032C194.443 422.437 194.411 422.853 194.347 423.28H180.939ZM186.475 416.208C184.982 416.208 183.744 416.635 182.763 417.488C181.782 418.32 181.174 419.44 180.939 420.848H191.627C191.392 419.333 190.795 418.181 189.835 417.392C188.875 416.603 187.755 416.208 186.475 416.208ZM210.86 414H213.644V430H210.86V427.248C209.473 429.36 207.457 430.416 204.812 430.416C202.572 430.416 200.663 429.605 199.084 427.984C197.505 426.341 196.716 424.347 196.716 422C196.716 419.653 197.505 417.669 199.084 416.048C200.663 414.405 202.572 413.584 204.812 413.584C207.457 413.584 209.473 414.64 210.86 416.752V414ZM205.164 427.728C206.785 427.728 208.14 427.184 209.228 426.096C210.316 424.987 210.86 423.621 210.86 422C210.86 420.379 210.316 419.024 209.228 417.936C208.14 416.827 206.785 416.272 205.164 416.272C203.564 416.272 202.22 416.827 201.132 417.936C200.044 419.024 199.5 420.379 199.5 422C199.5 423.621 200.044 424.987 201.132 426.096C202.22 427.184 203.564 427.728 205.164 427.728ZM225.382 430.416C222.971 430.416 220.966 429.616 219.366 428.016C217.766 426.395 216.966 424.389 216.966 422C216.966 419.611 217.766 417.616 219.366 416.016C220.966 414.395 222.971 413.584 225.382 413.584C226.961 413.584 228.379 413.968 229.638 414.736C230.897 415.483 231.835 416.496 232.454 417.776L230.118 419.12C229.713 418.267 229.083 417.584 228.23 417.072C227.398 416.56 226.449 416.304 225.382 416.304C223.782 416.304 222.438 416.848 221.35 417.936C220.283 419.024 219.75 420.379 219.75 422C219.75 423.6 220.283 424.944 221.35 426.032C222.438 427.12 223.782 427.664 225.382 427.664C226.449 427.664 227.409 427.419 228.262 426.928C229.115 426.416 229.766 425.733 230.214 424.88L232.582 426.256C231.899 427.515 230.918 428.528 229.638 429.296C228.358 430.043 226.939 430.416 225.382 430.416ZM243.299 413.584C245.176 413.584 246.68 414.181 247.811 415.376C248.941 416.549 249.507 418.149 249.507 420.176V430H246.723V420.336C246.723 419.035 246.371 418.032 245.667 417.328C244.963 416.603 243.992 416.24 242.755 416.24C241.368 416.24 240.248 416.677 239.395 417.552C238.541 418.405 238.115 419.728 238.115 421.52V430H235.331V407.6H238.115V416.304C239.245 414.491 240.973 413.584 243.299 413.584ZM272.593 414H275.601L269.201 430H265.937L259.537 414H262.545L267.569 427.024L272.593 414ZM279.283 423.28C279.56 424.709 280.211 425.819 281.235 426.608C282.28 427.397 283.56 427.792 285.075 427.792C287.187 427.792 288.723 427.013 289.683 425.456L292.051 426.8C290.493 429.211 288.147 430.416 285.011 430.416C282.472 430.416 280.403 429.627 278.803 428.048C277.224 426.448 276.435 424.432 276.435 422C276.435 419.589 277.213 417.584 278.771 415.984C280.328 414.384 282.344 413.584 284.819 413.584C287.165 413.584 289.075 414.416 290.547 416.08C292.04 417.723 292.787 419.707 292.787 422.032C292.787 422.437 292.755 422.853 292.691 423.28H279.283ZM284.819 416.208C283.325 416.208 282.088 416.635 281.107 417.488C280.125 418.32 279.517 419.44 279.283 420.848H289.971C289.736 419.333 289.139 418.181 288.179 417.392C287.219 416.603 286.099 416.208 284.819 416.208ZM303.955 413.584C305.832 413.584 307.336 414.181 308.467 415.376C309.598 416.549 310.163 418.149 310.163 420.176V430H307.379V420.336C307.379 419.035 307.027 418.032 306.323 417.328C305.619 416.603 304.648 416.24 303.411 416.24C302.024 416.24 300.904 416.677 300.051 417.552C299.198 418.405 298.771 419.728 298.771 421.52V430H295.987V407.6H298.771V416.304C299.902 414.491 301.63 413.584 303.955 413.584ZM315.458 411.088C314.924 411.088 314.476 410.907 314.114 410.544C313.751 410.181 313.57 409.744 313.57 409.232C313.57 408.72 313.751 408.283 314.114 407.92C314.476 407.536 314.924 407.344 315.458 407.344C315.97 407.344 316.407 407.536 316.77 407.92C317.132 408.283 317.314 408.72 317.314 409.232C317.314 409.744 317.132 410.181 316.77 410.544C316.407 410.907 315.97 411.088 315.458 411.088ZM314.049 430V414H316.834V430H314.049ZM328.601 430.416C326.19 430.416 324.185 429.616 322.585 428.016C320.985 426.395 320.185 424.389 320.185 422C320.185 419.611 320.985 417.616 322.585 416.016C324.185 414.395 326.19 413.584 328.601 413.584C330.179 413.584 331.598 413.968 332.857 414.736C334.115 415.483 335.054 416.496 335.673 417.776L333.337 419.12C332.931 418.267 332.302 417.584 331.449 417.072C330.617 416.56 329.667 416.304 328.601 416.304C327.001 416.304 325.657 416.848 324.569 417.936C323.502 419.024 322.969 420.379 322.969 422C322.969 423.6 323.502 424.944 324.569 426.032C325.657 427.12 327.001 427.664 328.601 427.664C329.667 427.664 330.627 427.419 331.481 426.928C332.334 426.416 332.985 425.733 333.433 424.88L335.801 426.256C335.118 427.515 334.137 428.528 332.857 429.296C331.577 430.043 330.158 430.416 328.601 430.416ZM338.549 430V406.64H341.334V430H338.549ZM347.533 423.28C347.81 424.709 348.461 425.819 349.485 426.608C350.53 427.397 351.81 427.792 353.325 427.792C355.437 427.792 356.973 427.013 357.933 425.456L360.301 426.8C358.743 429.211 356.397 430.416 353.261 430.416C350.722 430.416 348.653 429.627 347.053 428.048C345.474 426.448 344.685 424.432 344.685 422C344.685 419.589 345.463 417.584 347.021 415.984C348.578 414.384 350.594 413.584 353.069 413.584C355.415 413.584 357.325 414.416 358.797 416.08C360.29 417.723 361.037 419.707 361.037 422.032C361.037 422.437 361.005 422.853 360.941 423.28H347.533ZM353.069 416.208C351.575 416.208 350.338 416.635 349.357 417.488C348.375 418.32 347.767 419.44 347.533 420.848H358.221C357.986 419.333 357.389 418.181 356.429 417.392C355.469 416.603 354.349 416.208 353.069 416.208Z" fill="#1F1F1F"/>
<g style="mix-blend-mode:multiply">
<path d="M273.567 67.5122L319.767 250.242C319.767 250.242 180.447 293.607 106.977 297.267L94.7073 133.197L273.567 67.5122Z" fill="#E6E6E6"/>
</g>
<path d="M111.897 262.962C164.217 274.647 323.397 236.127 323.397 236.127L296.113 37.3018C247.063 43.0018 161.353 60.6718 90.6426 71.4868L92.8926 90.6718L111.897 262.962Z" fill="#1A6F86"/>
<path d="M257.262 47.4871L261.267 33.8071C261.267 33.8071 261.342 33.8071 261.372 33.8071C262.332 34.0921 262.872 35.0521 262.602 35.9821H262.632L259.107 48.0271L257.247 47.4721L257.262 47.4871Z" fill="black"/>
<path d="M255.643 47.0068L259.168 34.9768C259.423 34.0918 260.353 33.5968 261.268 33.8068L257.263 47.4868L255.643 47.0068Z" fill="#333333"/>
<path d="M226.918 28.6769C227.998 28.9919 228.628 30.1019 228.313 31.1519H228.358L219.358 61.8869L209.773 94.6019C206.893 104.442 212.818 114.882 222.988 117.852C233.158 120.837 243.778 115.242 246.658 105.402L257.353 68.8919L265.243 41.9669H265.273L270.793 23.1419C273.103 15.2969 268.363 6.98694 260.263 4.61694C252.163 2.24694 243.702 6.68694 241.408 14.5319L235.888 33.3719H235.858L227.083 63.3119L225.358 62.8319L240.118 12.4169C246.433 -1.15806 259.243 2.36694 259.243 2.36694C275.398 6.37194 273.283 21.6569 273.283 21.6569L259.333 69.2669L248.353 106.737C241.138 123.882 223.708 120.072 223.708 120.072C201.823 112.527 207.988 92.8019 207.988 92.8019L217.153 61.5119L226.768 28.6919C226.768 28.6919 226.843 28.6919 226.888 28.6919L226.918 28.6769Z" fill="black"/>
<path d="M226.797 28.662L217.183 61.482L208.018 92.772C208.018 92.772 201.853 112.497 223.738 120.042C223.738 120.042 241.167 123.852 248.382 106.707L259.363 69.237L273.312 21.627C273.312 21.627 275.412 6.34196 259.272 2.33696C259.272 2.33696 246.462 -1.17304 240.147 12.387L225.387 62.802L222.837 62.052L231.942 32.172H232.003L237.522 13.362C240.432 3.43196 251.157 -2.19304 261.402 0.806961C271.677 3.80696 277.648 14.337 274.738 24.267L269.217 43.092L261.448 69.612L250.632 106.542C247.137 118.497 234.238 125.277 221.893 121.662C209.548 118.047 202.347 105.372 205.857 93.417L215.323 61.107L224.442 29.967C224.742 28.962 225.792 28.392 226.842 28.632L226.797 28.662Z" fill="#333333"/>
<path d="M262.678 42.0121L223.888 48.5221L220.723 64.5121L259.963 58.9021C259.963 58.9021 259.963 56.5021 259.963 55.8421C259.963 55.1821 262.678 41.9971 262.678 41.9971" fill="#1A6F86"/>
<path d="M192.084 194.359C186.581 195.337 181.884 194.027 177.995 190.428C174.139 186.78 171.595 181.49 170.363 174.559C169.131 167.627 169.7 161.806 172.069 157.095C174.473 152.334 178.426 149.464 183.929 148.486C189.474 147.5 194.175 148.831 198.03 152.48C201.878 156.086 204.418 161.354 205.65 168.286C206.882 175.217 206.317 181.06 203.956 185.813C201.586 190.524 197.629 193.373 192.084 194.359ZM183.243 183.385C185.188 185.552 187.631 186.375 190.572 185.852C193.512 185.329 195.519 183.694 196.59 180.947C197.704 178.192 197.846 174.483 197.017 169.82C196.181 165.116 194.765 161.662 192.771 159.46C190.818 157.25 188.371 156.407 185.43 156.929C182.49 157.452 180.484 159.087 179.412 161.835C178.34 164.582 178.223 168.308 179.059 173.013C179.895 177.718 181.29 181.175 183.243 183.385ZM227.568 160.099C230.707 160.451 233.399 161.576 235.643 163.474C237.922 165.322 239.337 167.801 239.89 170.91C240.696 175.446 239.794 179.269 237.183 182.376C234.614 185.476 231.124 187.419 226.713 188.203C223.268 188.815 220.043 188.587 217.036 187.518C214.064 186.4 211.696 184.415 209.932 181.565L216.606 175.959C218.303 179.167 221.168 180.413 225.201 179.696C227.427 179.3 229.056 178.469 230.088 177.202C231.154 175.886 231.523 174.304 231.194 172.455C230.873 170.649 229.985 169.312 228.531 168.444C227.118 167.568 225.299 167.328 223.073 167.724L221.182 168.06L216.946 163.613L223.626 150.725L206.361 153.794L204.916 145.665L232.641 140.737L233.918 147.92L227.568 160.099Z" fill="white"/>
<defs>
<filter id="filter0_d_1797_4929" x="0.822266" y="26.7271" width="501.765" height="544.275" filterUnits="userSpaceOnUse" color-interpolation-filters="sRGB">
<feFlood flood-opacity="0" result="BackgroundImageFix"/>
<feColorMatrix in="SourceAlpha" type="matrix" values="0 0 0 0 0 0 0 0 0 0 0 0 0 0 0 0 0 0 127 0" result="hardAlpha"/>
<feOffset dy="3"/>
<feGaussianBlur stdDeviation="12"/>
<feComposite in2="hardAlpha" operator="out"/>
<feColorMatrix type="matrix" values="0 0 0 0 0 0 0 0 0 0 0 0 0 0 0 0 0 0 0.08 0"/>
<feBlend mode="normal" in2="BackgroundImageFix" result="effect1_dropShadow_1797_4929"/>
<feBlend mode="normal" in="SourceGraphic" in2="effect1_dropShadow_1797_4929" result="shape"/>
</filter>
</defs>
</svg>
