<svg width="503" height="571" viewBox="0 0 503 571" fill="none" xmlns="http://www.w3.org/2000/svg">
<g filter="url(#filter0_d_1797_4296)">
<path d="M478.587 491.847V99.8821C478.587 71.0777 455.237 47.7271 426.432 47.7271L76.9774 47.7271C48.173 47.7271 24.8224 71.0777 24.8224 99.8821V491.847C24.8224 520.651 48.173 544.002 76.9774 544.002H426.432C455.237 544.002 478.587 520.651 478.587 491.847Z" fill="white"/>
</g>
<path d="M320.398 528.117H192.103C184.547 528.117 178.423 534.241 178.423 541.797C178.423 549.352 184.547 555.477 192.103 555.477H320.398C327.953 555.477 334.078 549.352 334.078 541.797C334.078 534.241 327.953 528.117 320.398 528.117Z" fill="#185F87"/>
<path d="M85.357 352L78.925 329.6H82.061L87.181 348.032L92.621 329.6H95.629L101.069 348.032L106.189 329.6H109.325L102.893 352H99.437L94.125 334.112L88.813 352H85.357ZM112.283 345.28C112.56 346.709 113.211 347.819 114.235 348.608C115.28 349.397 116.56 349.792 118.075 349.792C120.187 349.792 121.723 349.013 122.683 347.456L125.051 348.8C123.493 351.211 121.147 352.416 118.011 352.416C115.472 352.416 113.403 351.627 111.803 350.048C110.224 348.448 109.435 346.432 109.435 344C109.435 341.589 110.213 339.584 111.771 337.984C113.328 336.384 115.344 335.584 117.819 335.584C120.165 335.584 122.075 336.416 123.547 338.08C125.04 339.723 125.787 341.707 125.787 344.032C125.787 344.437 125.755 344.853 125.691 345.28H112.283ZM117.819 338.208C116.325 338.208 115.088 338.635 114.107 339.488C113.125 340.32 112.517 341.44 112.283 342.848H122.971C122.736 341.333 122.139 340.181 121.179 339.392C120.219 338.603 119.099 338.208 117.819 338.208ZM144.955 335.584C146.832 335.584 148.336 336.181 149.467 337.376C150.598 338.549 151.163 340.149 151.163 342.176V352H148.379V342.336C148.379 341.035 148.027 340.032 147.323 339.328C146.619 338.603 145.648 338.24 144.411 338.24C143.024 338.24 141.904 338.677 141.051 339.552C140.198 340.405 139.771 341.728 139.771 343.52V352H136.987V329.6H139.771V338.304C140.902 336.491 142.63 335.584 144.955 335.584ZM168.298 336H171.082V352H168.298V349.248C166.911 351.36 164.895 352.416 162.25 352.416C160.01 352.416 158.1 351.605 156.522 349.984C154.943 348.341 154.154 346.347 154.154 344C154.154 341.653 154.943 339.669 156.522 338.048C158.1 336.405 160.01 335.584 162.25 335.584C164.895 335.584 166.911 336.64 168.298 338.752V336ZM162.602 349.728C164.223 349.728 165.578 349.184 166.666 348.096C167.754 346.987 168.298 345.621 168.298 344C168.298 342.379 167.754 341.024 166.666 339.936C165.578 338.827 164.223 338.272 162.602 338.272C161.002 338.272 159.658 338.827 158.57 339.936C157.482 341.024 156.938 342.379 156.938 344C156.938 345.621 157.482 346.987 158.57 348.096C159.658 349.184 161.002 349.728 162.602 349.728ZM183.268 335.584C185.145 335.584 186.649 336.181 187.78 337.376C188.91 338.549 189.476 340.149 189.476 342.176V352H186.692V342.336C186.692 341.035 186.34 340.032 185.636 339.328C184.932 338.603 183.961 338.24 182.724 338.24C181.337 338.24 180.217 338.677 179.364 339.552C178.51 340.405 178.084 341.728 178.084 343.52V352H175.299V336H178.084V338.304C179.214 336.491 180.942 335.584 183.268 335.584ZM206.61 329.6H209.394V352H206.61V349.248C205.223 351.36 203.207 352.416 200.562 352.416C198.322 352.416 196.413 351.605 194.834 349.984C193.255 348.341 192.466 346.347 192.466 344C192.466 341.653 193.255 339.669 194.834 338.048C196.413 336.405 198.322 335.584 200.562 335.584C203.207 335.584 205.223 336.64 206.61 338.752V329.6ZM200.914 349.728C202.535 349.728 203.89 349.184 204.978 348.096C206.066 346.987 206.61 345.621 206.61 344C206.61 342.379 206.066 341.024 204.978 339.936C203.89 338.827 202.535 338.272 200.914 338.272C199.314 338.272 197.97 338.827 196.882 339.936C195.794 341.024 195.25 342.379 195.25 344C195.25 345.621 195.794 346.987 196.882 348.096C197.97 349.184 199.314 349.728 200.914 349.728ZM213.612 352V328.64H216.396V352H213.612ZM222.595 345.28C222.873 346.709 223.523 347.819 224.547 348.608C225.593 349.397 226.873 349.792 228.387 349.792C230.499 349.792 232.035 349.013 232.995 347.456L235.363 348.8C233.806 351.211 231.459 352.416 228.323 352.416C225.785 352.416 223.715 351.627 222.115 350.048C220.537 348.448 219.747 346.432 219.747 344C219.747 341.589 220.526 339.584 222.083 337.984C223.641 336.384 225.657 335.584 228.131 335.584C230.478 335.584 232.387 336.416 233.859 338.08C235.353 339.723 236.099 341.707 236.099 344.032C236.099 344.437 236.067 344.853 236.003 345.28H222.595ZM228.131 338.208C226.638 338.208 225.401 338.635 224.419 339.488C223.438 340.32 222.83 341.44 222.595 342.848H233.283C233.049 341.333 232.451 340.181 231.491 339.392C230.531 338.603 229.411 338.208 228.131 338.208ZM256.004 338.688H251.748V347.36C251.748 348.149 251.897 348.715 252.196 349.056C252.516 349.376 252.996 349.547 253.635 349.568C254.275 349.568 255.065 349.547 256.004 349.504V352C253.572 352.32 251.79 352.128 250.66 351.424C249.529 350.699 248.964 349.344 248.964 347.36V338.688H245.796V336H248.964V332.352L251.748 331.52V336H256.004V338.688ZM267.268 335.584C269.145 335.584 270.649 336.181 271.78 337.376C272.91 338.549 273.476 340.149 273.476 342.176V352H270.692V342.336C270.692 341.035 270.34 340.032 269.636 339.328C268.932 338.603 267.961 338.24 266.724 338.24C265.337 338.24 264.217 338.677 263.364 339.552C262.51 340.405 262.084 341.728 262.084 343.52V352H259.299V329.6H262.084V338.304C263.214 336.491 264.942 335.584 267.268 335.584ZM279.314 345.28C279.591 346.709 280.242 347.819 281.266 348.608C282.311 349.397 283.591 349.792 285.106 349.792C287.218 349.792 288.754 349.013 289.714 347.456L292.082 348.8C290.525 351.211 288.178 352.416 285.042 352.416C282.503 352.416 280.434 351.627 278.834 350.048C277.255 348.448 276.466 346.432 276.466 344C276.466 341.589 277.245 339.584 278.802 337.984C280.359 336.384 282.375 335.584 284.85 335.584C287.197 335.584 289.106 336.416 290.578 338.08C292.071 339.723 292.818 341.707 292.818 344.032C292.818 344.437 292.786 344.853 292.722 345.28H279.314ZM284.85 338.208C283.357 338.208 282.119 338.635 281.138 339.488C280.157 340.32 279.549 341.44 279.314 342.848H290.002C289.767 341.333 289.17 340.181 288.21 339.392C287.25 338.603 286.13 338.208 284.85 338.208ZM306.418 340.32C306.418 340.939 306.728 341.44 307.346 341.824C307.965 342.187 308.712 342.485 309.586 342.72C310.461 342.933 311.336 343.189 312.21 343.488C313.085 343.765 313.832 344.256 314.45 344.96C315.069 345.643 315.378 346.528 315.378 347.616C315.378 349.067 314.813 350.229 313.682 351.104C312.573 351.979 311.144 352.416 309.394 352.416C307.837 352.416 306.504 352.075 305.394 351.392C304.285 350.709 303.496 349.803 303.026 348.672L305.426 347.296C305.682 348.064 306.162 348.672 306.866 349.12C307.57 349.568 308.413 349.792 309.394 349.792C310.312 349.792 311.069 349.621 311.666 349.28C312.264 348.917 312.562 348.363 312.562 347.616C312.562 346.997 312.253 346.507 311.634 346.144C311.016 345.76 310.269 345.461 309.394 345.248C308.52 345.013 307.645 344.747 306.77 344.448C305.896 344.149 305.149 343.659 304.53 342.976C303.912 342.293 303.602 341.419 303.602 340.352C303.602 338.965 304.136 337.824 305.202 336.928C306.29 336.032 307.645 335.584 309.266 335.584C310.568 335.584 311.72 335.883 312.722 336.48C313.746 337.056 314.514 337.867 315.026 338.912L312.69 340.224C312.114 338.859 310.973 338.176 309.266 338.176C308.477 338.176 307.805 338.368 307.25 338.752C306.696 339.115 306.418 339.637 306.418 340.32ZM331.741 349.984C330.098 351.605 328.104 352.416 325.757 352.416C323.41 352.416 321.416 351.605 319.773 349.984C318.152 348.363 317.341 346.368 317.341 344C317.341 341.632 318.152 339.637 319.773 338.016C321.416 336.395 323.41 335.584 325.757 335.584C328.104 335.584 330.098 336.395 331.741 338.016C333.384 339.637 334.205 341.632 334.205 344C334.205 346.368 333.384 348.363 331.741 349.984ZM325.757 349.696C327.357 349.696 328.701 349.152 329.789 348.064C330.877 346.976 331.421 345.621 331.421 344C331.421 342.379 330.877 341.024 329.789 339.936C328.701 338.848 327.357 338.304 325.757 338.304C324.178 338.304 322.845 338.848 321.757 339.936C320.669 341.024 320.125 342.379 320.125 344C320.125 345.621 320.669 346.976 321.757 348.064C322.845 349.152 324.178 349.696 325.757 349.696ZM348.527 336H351.311V352H348.527V349.696C347.396 351.509 345.668 352.416 343.343 352.416C341.466 352.416 339.962 351.829 338.831 350.656C337.7 349.461 337.135 347.851 337.135 345.824V336H339.919V345.664C339.919 346.965 340.271 347.979 340.975 348.704C341.679 349.408 342.65 349.76 343.887 349.76C345.274 349.76 346.394 349.333 347.247 348.48C348.1 347.605 348.527 346.272 348.527 344.48V336ZM358.334 338.688C359.251 336.704 360.915 335.712 363.326 335.712V338.624C361.96 338.56 360.787 338.923 359.806 339.712C358.824 340.501 358.334 341.771 358.334 343.52V352H355.549V336H358.334V338.688ZM372.695 352.416C370.284 352.416 368.279 351.616 366.679 350.016C365.079 348.395 364.279 346.389 364.279 344C364.279 341.611 365.079 339.616 366.679 338.016C368.279 336.395 370.284 335.584 372.695 335.584C374.273 335.584 375.692 335.968 376.951 336.736C378.209 337.483 379.148 338.496 379.767 339.776L377.431 341.12C377.025 340.267 376.396 339.584 375.543 339.072C374.711 338.56 373.761 338.304 372.695 338.304C371.095 338.304 369.751 338.848 368.663 339.936C367.596 341.024 367.062 342.379 367.062 344C367.062 345.6 367.596 346.944 368.663 348.032C369.751 349.12 371.095 349.664 372.695 349.664C373.761 349.664 374.721 349.419 375.575 348.928C376.428 348.416 377.079 347.733 377.527 346.88L379.895 348.256C379.212 349.515 378.231 350.528 376.951 351.296C375.671 352.043 374.252 352.416 372.695 352.416ZM384.051 333.088C383.518 333.088 383.07 332.907 382.707 332.544C382.345 332.181 382.163 331.744 382.163 331.232C382.163 330.72 382.345 330.283 382.707 329.92C383.07 329.536 383.518 329.344 384.051 329.344C384.563 329.344 385.001 329.536 385.363 329.92C385.726 330.283 385.907 330.72 385.907 331.232C385.907 331.744 385.726 332.181 385.363 332.544C385.001 332.907 384.563 333.088 384.051 333.088ZM382.643 352V336H385.427V352H382.643ZM397.643 335.584C399.52 335.584 401.024 336.181 402.155 337.376C403.285 338.549 403.851 340.149 403.851 342.176V352H401.067V342.336C401.067 341.035 400.715 340.032 400.011 339.328C399.307 338.603 398.336 338.24 397.099 338.24C395.712 338.24 394.592 338.677 393.739 339.552C392.885 340.405 392.459 341.728 392.459 343.52V352H389.674V336H392.459V338.304C393.589 336.491 395.317 335.584 397.643 335.584ZM421.017 336H423.769V351.328C423.769 353.696 422.969 355.531 421.369 356.832C419.769 358.155 417.849 358.816 415.609 358.816C413.817 358.816 412.27 358.475 410.969 357.792C409.668 357.131 408.686 356.171 408.025 354.912L410.457 353.536C411.332 355.328 413.07 356.224 415.673 356.224C417.337 356.224 418.638 355.787 419.577 354.912C420.537 354.037 421.017 352.843 421.017 351.328V349.056C419.609 351.189 417.604 352.256 415.001 352.256C412.718 352.256 410.788 351.445 409.209 349.824C407.63 348.203 406.841 346.229 406.841 343.904C406.841 341.579 407.63 339.616 409.209 338.016C410.788 336.395 412.718 335.584 415.001 335.584C417.625 335.584 419.63 336.64 421.017 338.752V336ZM411.257 347.968C412.345 349.056 413.7 349.6 415.321 349.6C416.942 349.6 418.297 349.056 419.385 347.968C420.473 346.88 421.017 345.525 421.017 343.904C421.017 342.304 420.473 340.96 419.385 339.872C418.297 338.784 416.942 338.24 415.321 338.24C413.7 338.24 412.345 338.784 411.257 339.872C410.169 340.96 409.625 342.304 409.625 343.904C409.625 345.525 410.169 346.88 411.257 347.968ZM149.407 375H152.191V391H149.407V388.248C148.02 390.36 146.004 391.416 143.359 391.416C141.119 391.416 139.21 390.605 137.631 388.984C136.052 387.341 135.263 385.347 135.263 383C135.263 380.653 136.052 378.669 137.631 377.048C139.21 375.405 141.119 374.584 143.359 374.584C146.004 374.584 148.02 375.64 149.407 377.752V375ZM143.711 388.728C145.332 388.728 146.687 388.184 147.775 387.096C148.863 385.987 149.407 384.621 149.407 383C149.407 381.379 148.863 380.024 147.775 378.936C146.687 377.827 145.332 377.272 143.711 377.272C142.111 377.272 140.767 377.827 139.679 378.936C138.591 380.024 138.047 381.379 138.047 383C138.047 384.621 138.591 385.987 139.679 387.096C140.767 388.184 142.111 388.728 143.711 388.728ZM164.377 374.584C166.254 374.584 167.758 375.181 168.889 376.376C170.02 377.549 170.585 379.149 170.585 381.176V391H167.801V381.336C167.801 380.035 167.449 379.032 166.745 378.328C166.041 377.603 165.07 377.24 163.833 377.24C162.446 377.24 161.326 377.677 160.473 378.552C159.62 379.405 159.193 380.728 159.193 382.52V391H156.409V375H159.193V377.304C160.324 375.491 162.052 374.584 164.377 374.584ZM187.719 368.6H190.503V391H187.719V388.248C186.333 390.36 184.317 391.416 181.671 391.416C179.431 391.416 177.522 390.605 175.943 388.984C174.365 387.341 173.575 385.347 173.575 383C173.575 380.653 174.365 378.669 175.943 377.048C177.522 375.405 179.431 374.584 181.671 374.584C184.317 374.584 186.333 375.64 187.719 377.752V368.6ZM182.023 388.728C183.645 388.728 184.999 388.184 186.087 387.096C187.175 385.987 187.719 384.621 187.719 383C187.719 381.379 187.175 380.024 186.087 378.936C184.999 377.827 183.645 377.272 182.023 377.272C180.423 377.272 179.079 377.827 177.991 378.936C176.903 380.024 176.359 381.379 176.359 383C176.359 384.621 176.903 385.987 177.991 387.096C179.079 388.184 180.423 388.728 182.023 388.728ZM205.121 379.32C205.121 379.939 205.431 380.44 206.049 380.824C206.668 381.187 207.415 381.485 208.289 381.72C209.164 381.933 210.039 382.189 210.913 382.488C211.788 382.765 212.535 383.256 213.153 383.96C213.772 384.643 214.081 385.528 214.081 386.616C214.081 388.067 213.516 389.229 212.385 390.104C211.276 390.979 209.847 391.416 208.097 391.416C206.54 391.416 205.207 391.075 204.097 390.392C202.988 389.709 202.199 388.803 201.729 387.672L204.129 386.296C204.385 387.064 204.865 387.672 205.569 388.12C206.273 388.568 207.116 388.792 208.097 388.792C209.015 388.792 209.772 388.621 210.369 388.28C210.967 387.917 211.265 387.363 211.265 386.616C211.265 385.997 210.956 385.507 210.337 385.144C209.719 384.76 208.972 384.461 208.097 384.248C207.223 384.013 206.348 383.747 205.473 383.448C204.599 383.149 203.852 382.659 203.233 381.976C202.615 381.293 202.305 380.419 202.305 379.352C202.305 377.965 202.839 376.824 203.905 375.928C204.993 375.032 206.348 374.584 207.969 374.584C209.271 374.584 210.423 374.883 211.425 375.48C212.449 376.056 213.217 376.867 213.729 377.912L211.393 379.224C210.817 377.859 209.676 377.176 207.969 377.176C207.18 377.176 206.508 377.368 205.953 377.752C205.399 378.115 205.121 378.637 205.121 379.32ZM218.892 384.28C219.169 385.709 219.82 386.819 220.844 387.608C221.889 388.397 223.169 388.792 224.684 388.792C226.796 388.792 228.332 388.013 229.292 386.456L231.66 387.8C230.103 390.211 227.756 391.416 224.62 391.416C222.081 391.416 220.012 390.627 218.412 389.048C216.833 387.448 216.044 385.432 216.044 383C216.044 380.589 216.823 378.584 218.38 376.984C219.937 375.384 221.953 374.584 224.428 374.584C226.775 374.584 228.684 375.416 230.156 377.08C231.649 378.723 232.396 380.707 232.396 383.032C232.396 383.437 232.364 383.853 232.3 384.28H218.892ZM224.428 377.208C222.935 377.208 221.697 377.635 220.716 378.488C219.735 379.32 219.127 380.44 218.892 381.848H229.58C229.345 380.333 228.748 379.181 227.788 378.392C226.828 377.603 225.708 377.208 224.428 377.208ZM235.596 391V367.64H238.38V391H235.596ZM244.58 384.28C244.857 385.709 245.508 386.819 246.532 387.608C247.577 388.397 248.857 388.792 250.372 388.792C252.484 388.792 254.02 388.013 254.98 386.456L257.348 387.8C255.79 390.211 253.444 391.416 250.308 391.416C247.769 391.416 245.7 390.627 244.1 389.048C242.521 387.448 241.732 385.432 241.732 383C241.732 380.589 242.51 378.584 244.068 376.984C245.625 375.384 247.641 374.584 250.116 374.584C252.462 374.584 254.372 375.416 255.844 377.08C257.337 378.723 258.084 380.707 258.084 383.032C258.084 383.437 258.052 383.853 257.988 384.28H244.58ZM250.116 377.208C248.622 377.208 247.385 377.635 246.404 378.488C245.422 379.32 244.814 380.44 244.58 381.848H255.268C255.033 380.333 254.436 379.181 253.476 378.392C252.516 377.603 251.396 377.208 250.116 377.208ZM268.773 391.416C266.362 391.416 264.357 390.616 262.757 389.016C261.157 387.395 260.357 385.389 260.357 383C260.357 380.611 261.157 378.616 262.757 377.016C264.357 375.395 266.362 374.584 268.773 374.584C270.351 374.584 271.77 374.968 273.029 375.736C274.287 376.483 275.226 377.496 275.845 378.776L273.509 380.12C273.103 379.267 272.474 378.584 271.621 378.072C270.789 377.56 269.839 377.304 268.773 377.304C267.173 377.304 265.829 377.848 264.741 378.936C263.674 380.024 263.141 381.379 263.141 383C263.141 384.6 263.674 385.944 264.741 387.032C265.829 388.12 267.173 388.664 268.773 388.664C269.839 388.664 270.799 388.419 271.653 387.928C272.506 387.416 273.157 386.733 273.605 385.88L275.973 387.256C275.29 388.515 274.309 389.528 273.029 390.296C271.749 391.043 270.33 391.416 268.773 391.416ZM287.425 377.688H283.169V386.36C283.169 387.149 283.319 387.715 283.617 388.056C283.937 388.376 284.417 388.547 285.057 388.568C285.697 388.568 286.487 388.547 287.425 388.504V391C284.993 391.32 283.212 391.128 282.081 390.424C280.951 389.699 280.385 388.344 280.385 386.36V377.688H277.217V375H280.385V371.352L283.169 370.52V375H287.425V377.688ZM292.129 372.088C291.596 372.088 291.148 371.907 290.785 371.544C290.423 371.181 290.241 370.744 290.241 370.232C290.241 369.72 290.423 369.283 290.785 368.92C291.148 368.536 291.596 368.344 292.129 368.344C292.641 368.344 293.079 368.536 293.441 368.92C293.804 369.283 293.985 369.72 293.985 370.232C293.985 370.744 293.804 371.181 293.441 371.544C293.079 371.907 292.641 372.088 292.129 372.088ZM290.721 391V375H293.505V391H290.721ZM311.257 388.984C309.614 390.605 307.619 391.416 305.273 391.416C302.926 391.416 300.931 390.605 299.289 388.984C297.667 387.363 296.857 385.368 296.857 383C296.857 380.632 297.667 378.637 299.289 377.016C300.931 375.395 302.926 374.584 305.273 374.584C307.619 374.584 309.614 375.395 311.257 377.016C312.899 378.637 313.721 380.632 313.721 383C313.721 385.368 312.899 387.363 311.257 388.984ZM305.273 388.696C306.873 388.696 308.217 388.152 309.305 387.064C310.393 385.976 310.937 384.621 310.937 383C310.937 381.379 310.393 380.024 309.305 378.936C308.217 377.848 306.873 377.304 305.273 377.304C303.694 377.304 302.361 377.848 301.273 378.936C300.185 380.024 299.641 381.379 299.641 383C299.641 384.621 300.185 385.976 301.273 387.064C302.361 388.152 303.694 388.696 305.273 388.696ZM324.971 374.584C326.848 374.584 328.352 375.181 329.483 376.376C330.613 377.549 331.179 379.149 331.179 381.176V391H328.395V381.336C328.395 380.035 328.043 379.032 327.339 378.328C326.635 377.603 325.664 377.24 324.427 377.24C323.04 377.24 321.92 377.677 321.067 378.552C320.213 379.405 319.787 380.728 319.787 382.52V391H317.003V375H319.787V377.304C320.917 375.491 322.645 374.584 324.971 374.584ZM356.569 388.984C354.926 390.605 352.932 391.416 350.585 391.416C348.238 391.416 346.244 390.605 344.601 388.984C342.98 387.363 342.169 385.368 342.169 383C342.169 380.632 342.98 378.637 344.601 377.016C346.244 375.395 348.238 374.584 350.585 374.584C352.932 374.584 354.926 375.395 356.569 377.016C358.212 378.637 359.033 380.632 359.033 383C359.033 385.368 358.212 387.363 356.569 388.984ZM350.585 388.696C352.185 388.696 353.529 388.152 354.617 387.064C355.705 385.976 356.249 384.621 356.249 383C356.249 381.379 355.705 380.024 354.617 378.936C353.529 377.848 352.185 377.304 350.585 377.304C349.006 377.304 347.673 377.848 346.585 378.936C345.497 380.024 344.953 381.379 344.953 383C344.953 384.621 345.497 385.976 346.585 387.064C347.673 388.152 349.006 388.696 350.585 388.696ZM369.945 370.872C367.129 370.637 365.721 371.853 365.721 374.52V375H369.945V377.688H365.721V391H362.937V377.688H360.377V375H362.937V374.52C362.937 372.365 363.535 370.733 364.729 369.624C365.945 368.515 367.684 368.035 369.945 368.184V370.872ZM120.234 414H123.242L116.842 430H113.578L107.178 414H110.186L115.21 427.024L120.234 414ZM126.923 423.28C127.201 424.709 127.851 425.819 128.875 426.608C129.921 427.397 131.201 427.792 132.715 427.792C134.827 427.792 136.363 427.013 137.323 425.456L139.691 426.8C138.134 429.211 135.787 430.416 132.651 430.416C130.113 430.416 128.043 429.627 126.443 428.048C124.865 426.448 124.075 424.432 124.075 422C124.075 419.589 124.854 417.584 126.411 415.984C127.969 414.384 129.985 413.584 132.459 413.584C134.806 413.584 136.715 414.416 138.187 416.08C139.681 417.723 140.427 419.707 140.427 422.032C140.427 422.437 140.395 422.853 140.331 423.28H126.923ZM132.459 416.208C130.966 416.208 129.729 416.635 128.747 417.488C127.766 418.32 127.158 419.44 126.923 420.848H137.611C137.377 419.333 136.779 418.181 135.819 417.392C134.859 416.603 133.739 416.208 132.459 416.208ZM151.596 413.584C153.473 413.584 154.977 414.181 156.108 415.376C157.238 416.549 157.804 418.149 157.804 420.176V430H155.02V420.336C155.02 419.035 154.668 418.032 153.964 417.328C153.26 416.603 152.289 416.24 151.052 416.24C149.665 416.24 148.545 416.677 147.692 417.552C146.838 418.405 146.412 419.728 146.412 421.52V430H143.628V407.6H146.412V416.304C147.542 414.491 149.27 413.584 151.596 413.584ZM163.098 411.088C162.565 411.088 162.117 410.907 161.754 410.544C161.391 410.181 161.21 409.744 161.21 409.232C161.21 408.72 161.391 408.283 161.754 407.92C162.117 407.536 162.565 407.344 163.098 407.344C163.61 407.344 164.047 407.536 164.41 407.92C164.773 408.283 164.954 408.72 164.954 409.232C164.954 409.744 164.773 410.181 164.41 410.544C164.047 410.907 163.61 411.088 163.098 411.088ZM161.69 430V414H164.474V430H161.69ZM176.241 430.416C173.831 430.416 171.825 429.616 170.225 428.016C168.625 426.395 167.825 424.389 167.825 422C167.825 419.611 168.625 417.616 170.225 416.016C171.825 414.395 173.831 413.584 176.241 413.584C177.82 413.584 179.239 413.968 180.497 414.736C181.756 415.483 182.695 416.496 183.313 417.776L180.977 419.12C180.572 418.267 179.943 417.584 179.089 417.072C178.257 416.56 177.308 416.304 176.241 416.304C174.641 416.304 173.297 416.848 172.209 417.936C171.143 419.024 170.609 420.379 170.609 422C170.609 423.6 171.143 424.944 172.209 426.032C173.297 427.12 174.641 427.664 176.241 427.664C177.308 427.664 178.268 427.419 179.121 426.928C179.975 426.416 180.625 425.733 181.073 424.88L183.441 426.256C182.759 427.515 181.777 428.528 180.497 429.296C179.217 430.043 177.799 430.416 176.241 430.416ZM186.19 430V406.64H188.974V430H186.19ZM195.173 423.28C195.451 424.709 196.101 425.819 197.125 426.608C198.171 427.397 199.451 427.792 200.965 427.792C203.077 427.792 204.613 427.013 205.573 425.456L207.941 426.8C206.384 429.211 204.037 430.416 200.901 430.416C198.363 430.416 196.293 429.627 194.693 428.048C193.115 426.448 192.325 424.432 192.325 422C192.325 419.589 193.104 417.584 194.661 415.984C196.219 414.384 198.235 413.584 200.709 413.584C203.056 413.584 204.965 414.416 206.437 416.08C207.931 417.723 208.677 419.707 208.677 422.032C208.677 422.437 208.645 422.853 208.581 423.28H195.173ZM200.709 416.208C199.216 416.208 197.979 416.635 196.997 417.488C196.016 418.32 195.408 419.44 195.173 420.848H205.861C205.627 419.333 205.029 418.181 204.069 417.392C203.109 416.603 201.989 416.208 200.709 416.208ZM213.653 418.32C213.653 418.939 213.962 419.44 214.581 419.824C215.199 420.187 215.946 420.485 216.821 420.72C217.695 420.933 218.57 421.189 219.445 421.488C220.319 421.765 221.066 422.256 221.685 422.96C222.303 423.643 222.613 424.528 222.613 425.616C222.613 427.067 222.047 428.229 220.917 429.104C219.807 429.979 218.378 430.416 216.629 430.416C215.071 430.416 213.738 430.075 212.629 429.392C211.519 428.709 210.73 427.803 210.261 426.672L212.661 425.296C212.917 426.064 213.397 426.672 214.101 427.12C214.805 427.568 215.647 427.792 216.629 427.792C217.546 427.792 218.303 427.621 218.901 427.28C219.498 426.917 219.797 426.363 219.797 425.616C219.797 424.997 219.487 424.507 218.869 424.144C218.25 423.76 217.503 423.461 216.629 423.248C215.754 423.013 214.879 422.747 214.005 422.448C213.13 422.149 212.383 421.659 211.765 420.976C211.146 420.293 210.837 419.419 210.837 418.352C210.837 416.965 211.37 415.824 212.437 414.928C213.525 414.032 214.879 413.584 216.501 413.584C217.802 413.584 218.954 413.883 219.957 414.48C220.981 415.056 221.749 415.867 222.261 416.912L219.925 418.224C219.349 416.859 218.207 416.176 216.501 416.176C215.711 416.176 215.039 416.368 214.485 416.752C213.93 417.115 213.653 417.637 213.653 418.32ZM229.725 426.704L227.645 434.48H225.245L226.525 426.704H229.725ZM244.059 418.32C244.059 418.939 244.368 419.44 244.987 419.824C245.606 420.187 246.352 420.485 247.227 420.72C248.102 420.933 248.976 421.189 249.851 421.488C250.726 421.765 251.472 422.256 252.091 422.96C252.71 423.643 253.019 424.528 253.019 425.616C253.019 427.067 252.454 428.229 251.323 429.104C250.214 429.979 248.784 430.416 247.035 430.416C245.478 430.416 244.144 430.075 243.035 429.392C241.926 428.709 241.136 427.803 240.667 426.672L243.067 425.296C243.323 426.064 243.803 426.672 244.507 427.12C245.211 427.568 246.054 427.792 247.035 427.792C247.952 427.792 248.71 427.621 249.307 427.28C249.904 426.917 250.203 426.363 250.203 425.616C250.203 424.997 249.894 424.507 249.275 424.144C248.656 423.76 247.91 423.461 247.035 423.248C246.16 423.013 245.286 422.747 244.411 422.448C243.536 422.149 242.79 421.659 242.171 420.976C241.552 420.293 241.243 419.419 241.243 418.352C241.243 416.965 241.776 415.824 242.843 414.928C243.931 414.032 245.286 413.584 246.907 413.584C248.208 413.584 249.36 413.883 250.363 414.48C251.387 415.056 252.155 415.867 252.667 416.912L250.331 418.224C249.755 416.859 248.614 416.176 246.907 416.176C246.118 416.176 245.446 416.368 244.891 416.752C244.336 417.115 244.059 417.637 244.059 418.32ZM269.126 414H271.91V430H269.126V427.248C267.739 429.36 265.723 430.416 263.078 430.416C260.838 430.416 258.928 429.605 257.35 427.984C255.771 426.341 254.982 424.347 254.982 422C254.982 419.653 255.771 417.669 257.35 416.048C258.928 414.405 260.838 413.584 263.078 413.584C265.723 413.584 267.739 414.64 269.126 416.752V414ZM263.43 427.728C265.051 427.728 266.406 427.184 267.494 426.096C268.582 424.987 269.126 423.621 269.126 422C269.126 420.379 268.582 419.024 267.494 417.936C266.406 416.827 265.051 416.272 263.43 416.272C261.83 416.272 260.486 416.827 259.398 417.936C258.31 419.024 257.766 420.379 257.766 422C257.766 423.621 258.31 424.987 259.398 426.096C260.486 427.184 261.83 427.728 263.43 427.728ZM287.328 414H290.336L283.936 430H280.672L274.272 414H277.28L282.304 427.024L287.328 414ZM294.098 411.088C293.565 411.088 293.117 410.907 292.754 410.544C292.391 410.181 292.21 409.744 292.21 409.232C292.21 408.72 292.391 408.283 292.754 407.92C293.117 407.536 293.565 407.344 294.098 407.344C294.61 407.344 295.047 407.536 295.41 407.92C295.773 408.283 295.954 408.72 295.954 409.232C295.954 409.744 295.773 410.181 295.41 410.544C295.047 410.907 294.61 411.088 294.098 411.088ZM292.69 430V414H295.474V430H292.69ZM307.689 413.584C309.567 413.584 311.071 414.181 312.201 415.376C313.332 416.549 313.897 418.149 313.897 420.176V430H311.113V420.336C311.113 419.035 310.761 418.032 310.057 417.328C309.353 416.603 308.383 416.24 307.145 416.24C305.759 416.24 304.639 416.677 303.785 417.552C302.932 418.405 302.505 419.728 302.505 421.52V430H299.721V414H302.505V416.304C303.636 414.491 305.364 413.584 307.689 413.584ZM331.064 414H333.816V429.328C333.816 431.696 333.016 433.531 331.416 434.832C329.816 436.155 327.896 436.816 325.656 436.816C323.864 436.816 322.317 436.475 321.016 435.792C319.715 435.131 318.733 434.171 318.072 432.912L320.504 431.536C321.379 433.328 323.117 434.224 325.72 434.224C327.384 434.224 328.685 433.787 329.624 432.912C330.584 432.037 331.064 430.843 331.064 429.328V427.056C329.656 429.189 327.651 430.256 325.048 430.256C322.765 430.256 320.835 429.445 319.256 427.824C317.677 426.203 316.888 424.229 316.888 421.904C316.888 419.579 317.677 417.616 319.256 416.016C320.835 414.395 322.765 413.584 325.048 413.584C327.672 413.584 329.677 414.64 331.064 416.752V414ZM321.304 425.968C322.392 427.056 323.747 427.6 325.368 427.6C326.989 427.6 328.344 427.056 329.432 425.968C330.52 424.88 331.064 423.525 331.064 421.904C331.064 420.304 330.52 418.96 329.432 417.872C328.344 416.784 326.989 416.24 325.368 416.24C323.747 416.24 322.392 416.784 321.304 417.872C320.216 418.96 319.672 420.304 319.672 421.904C319.672 423.525 320.216 424.88 321.304 425.968ZM357.202 414H360.178L353.65 430.992C352.967 432.805 352.007 434.181 350.77 435.12C349.554 436.08 348.146 436.507 346.546 436.4V433.808C348.509 433.957 349.949 432.869 350.866 430.544L351.154 429.936L344.178 414H347.154L352.594 426.544L357.202 414ZM375.382 427.984C373.739 429.605 371.744 430.416 369.398 430.416C367.051 430.416 365.056 429.605 363.414 427.984C361.792 426.363 360.982 424.368 360.982 422C360.982 419.632 361.792 417.637 363.414 416.016C365.056 414.395 367.051 413.584 369.398 413.584C371.744 413.584 373.739 414.395 375.382 416.016C377.024 417.637 377.846 419.632 377.846 422C377.846 424.368 377.024 426.363 375.382 427.984ZM369.398 427.696C370.998 427.696 372.342 427.152 373.43 426.064C374.518 424.976 375.062 423.621 375.062 422C375.062 420.379 374.518 419.024 373.43 417.936C372.342 416.848 370.998 416.304 369.398 416.304C367.819 416.304 366.486 416.848 365.398 417.936C364.31 419.024 363.766 420.379 363.766 422C363.766 423.621 364.31 424.976 365.398 426.064C366.486 427.152 367.819 427.696 369.398 427.696ZM392.168 414H394.952V430H392.168V427.696C391.037 429.509 389.309 430.416 386.984 430.416C385.106 430.416 383.602 429.829 382.472 428.656C381.341 427.461 380.776 425.851 380.776 423.824V414H383.56V423.664C383.56 424.965 383.912 425.979 384.616 426.704C385.32 427.408 386.29 427.76 387.528 427.76C388.914 427.76 390.034 427.333 390.888 426.48C391.741 425.605 392.168 424.272 392.168 422.48V414ZM230.394 455.688H226.138V464.36C226.138 465.149 226.287 465.715 226.586 466.056C226.906 466.376 227.386 466.547 228.026 466.568C228.666 466.568 229.455 466.547 230.394 466.504V469C227.962 469.32 226.181 469.128 225.05 468.424C223.919 467.699 223.354 466.344 223.354 464.36V455.688H220.186V453H223.354V449.352L226.138 448.52V453H230.394V455.688ZM235.098 450.088C234.565 450.088 234.117 449.907 233.754 449.544C233.391 449.181 233.21 448.744 233.21 448.232C233.21 447.72 233.391 447.283 233.754 446.92C234.117 446.536 234.565 446.344 235.098 446.344C235.61 446.344 236.047 446.536 236.41 446.92C236.773 447.283 236.954 447.72 236.954 448.232C236.954 448.744 236.773 449.181 236.41 449.544C236.047 449.907 235.61 450.088 235.098 450.088ZM233.69 469V453H236.474V469H233.69ZM258.001 452.584C259.793 452.584 261.244 453.171 262.353 454.344C263.463 455.496 264.017 457.064 264.017 459.048V469H261.233V459.144C261.233 457.907 260.913 456.947 260.273 456.264C259.633 455.581 258.78 455.24 257.713 455.24C256.519 455.24 255.559 455.645 254.833 456.456C254.129 457.245 253.777 458.461 253.777 460.104V469H250.993V459.144C250.993 457.907 250.684 456.947 250.065 456.264C249.468 455.581 248.647 455.24 247.601 455.24C246.428 455.24 245.447 455.645 244.657 456.456C243.889 457.267 243.505 458.483 243.505 460.104V469H240.721V453H243.505V455.144C244.593 453.437 246.183 452.584 248.273 452.584C250.428 452.584 251.996 453.491 252.977 455.304C254.087 453.491 255.761 452.584 258.001 452.584ZM269.83 462.28C270.107 463.709 270.758 464.819 271.782 465.608C272.827 466.397 274.107 466.792 275.622 466.792C277.734 466.792 279.27 466.013 280.23 464.456L282.598 465.8C281.04 468.211 278.694 469.416 275.558 469.416C273.019 469.416 270.95 468.627 269.35 467.048C267.771 465.448 266.982 463.432 266.982 461C266.982 458.589 267.76 456.584 269.318 454.984C270.875 453.384 272.891 452.584 275.366 452.584C277.712 452.584 279.622 453.416 281.094 455.08C282.587 456.723 283.334 458.707 283.334 461.032C283.334 461.437 283.302 461.853 283.238 462.28H269.83ZM275.366 455.208C273.872 455.208 272.635 455.635 271.654 456.488C270.672 457.32 270.064 458.44 269.83 459.848H280.518C280.283 458.333 279.686 457.181 278.726 456.392C277.766 455.603 276.646 455.208 275.366 455.208Z" fill="#1F1F1F"/>
<g style="mix-blend-mode:multiply">
<path d="M273.567 67.5122L319.767 250.242C319.767 250.242 180.447 293.607 106.977 297.267L94.7073 133.197L273.567 67.5122Z" fill="#E6E6E6"/>
</g>
<path d="M111.897 262.962C164.217 274.647 323.397 236.127 323.397 236.127L296.113 37.3018C247.063 43.0018 161.353 60.6718 90.6426 71.4868L92.8926 90.6718L111.897 262.962Z" fill="#185F87"/>
<path d="M257.262 47.4871L261.267 33.8071C261.267 33.8071 261.342 33.8071 261.372 33.8071C262.332 34.0921 262.872 35.0521 262.602 35.9821H262.632L259.107 48.0271L257.247 47.4721L257.262 47.4871Z" fill="black"/>
<path d="M255.643 47.0068L259.168 34.9768C259.423 34.0918 260.353 33.5968 261.268 33.8068L257.263 47.4868L255.643 47.0068Z" fill="#333333"/>
<path d="M226.918 28.6769C227.998 28.9919 228.628 30.1019 228.313 31.1519H228.358L219.358 61.8869L209.773 94.6019C206.893 104.442 212.818 114.882 222.988 117.852C233.158 120.837 243.778 115.242 246.658 105.402L257.353 68.8919L265.243 41.9669H265.273L270.793 23.1419C273.103 15.2969 268.363 6.98694 260.263 4.61694C252.163 2.24694 243.702 6.68694 241.408 14.5319L235.888 33.3719H235.858L227.083 63.3119L225.358 62.8319L240.118 12.4169C246.433 -1.15806 259.243 2.36694 259.243 2.36694C275.398 6.37194 273.283 21.6569 273.283 21.6569L259.333 69.2669L248.353 106.737C241.138 123.882 223.708 120.072 223.708 120.072C201.823 112.527 207.988 92.8019 207.988 92.8019L217.153 61.5119L226.768 28.6919C226.768 28.6919 226.843 28.6919 226.888 28.6919L226.918 28.6769Z" fill="black"/>
<path d="M226.797 28.662L217.183 61.482L208.018 92.772C208.018 92.772 201.853 112.497 223.738 120.042C223.738 120.042 241.167 123.852 248.382 106.707L259.363 69.237L273.312 21.627C273.312 21.627 275.412 6.34196 259.272 2.33696C259.272 2.33696 246.462 -1.17304 240.147 12.387L225.387 62.802L222.837 62.052L231.942 32.172H232.003L237.522 13.362C240.432 3.43196 251.157 -2.19304 261.402 0.806961C271.677 3.80696 277.648 14.337 274.738 24.267L269.217 43.092L261.448 69.612L250.632 106.542C247.137 118.497 234.238 125.277 221.893 121.662C209.548 118.047 202.347 105.372 205.857 93.417L215.323 61.107L224.442 29.967C224.742 28.962 225.792 28.392 226.842 28.632L226.797 28.662Z" fill="#333333"/>
<path d="M262.678 42.0121L223.888 48.5221L220.723 64.5121L259.963 58.9021C259.963 58.9021 259.963 56.5021 259.963 55.8421C259.963 55.1821 262.678 41.9971 262.678 41.9971" fill="#185F87"/>
<path d="M192.084 194.359C186.581 195.337 181.884 194.027 177.995 190.428C174.139 186.78 171.595 181.49 170.363 174.559C169.131 167.627 169.7 161.806 172.069 157.095C174.473 152.334 178.426 149.464 183.929 148.486C189.474 147.5 194.175 148.831 198.03 152.48C201.878 156.086 204.418 161.354 205.65 168.286C206.882 175.217 206.317 181.06 203.956 185.813C201.586 190.524 197.629 193.373 192.084 194.359ZM183.243 183.385C185.188 185.552 187.631 186.375 190.572 185.852C193.512 185.329 195.519 183.694 196.59 180.947C197.704 178.192 197.846 174.483 197.017 169.82C196.181 165.116 194.765 161.662 192.771 159.46C190.818 157.25 188.371 156.407 185.43 156.929C182.49 157.452 180.484 159.087 179.412 161.835C178.34 164.582 178.223 168.308 179.059 173.013C179.895 177.718 181.29 181.175 183.243 183.385ZM244.667 168.045L246.101 176.111L241.375 176.951L242.708 184.449L233.949 186.006L232.616 178.508L211.759 182.216L210.325 174.15L219.933 142.996L229.258 141.338L219.714 172.481L231.182 170.442L229.323 159.982L238.081 158.425L239.941 168.885L244.667 168.045Z" fill="white"/>
<defs>
<filter id="filter0_d_1797_4296" x="0.822266" y="26.7271" width="501.765" height="544.275" filterUnits="userSpaceOnUse" color-interpolation-filters="sRGB">
<feFlood flood-opacity="0" result="BackgroundImageFix"/>
<feColorMatrix in="SourceAlpha" type="matrix" values="0 0 0 0 0 0 0 0 0 0 0 0 0 0 0 0 0 0 127 0" result="hardAlpha"/>
<feOffset dy="3"/>
<feGaussianBlur stdDeviation="12"/>
<feComposite in2="hardAlpha" operator="out"/>
<feColorMatrix type="matrix" values="0 0 0 0 0 0 0 0 0 0 0 0 0 0 0 0 0 0 0.08 0"/>
<feBlend mode="normal" in2="BackgroundImageFix" result="effect1_dropShadow_1797_4296"/>
<feBlend mode="normal" in="SourceGraphic" in2="effect1_dropShadow_1797_4296" result="shape"/>
</filter>
</defs>
</svg>
