<svg width="503" height="571" viewBox="0 0 503 571" fill="none" xmlns="http://www.w3.org/2000/svg">
<g filter="url(#filter0_d_1797_4507)">
<path d="M478.587 491.847V99.8821C478.587 71.0777 455.237 47.7271 426.432 47.7271L76.9774 47.7271C48.173 47.7271 24.8224 71.0777 24.8224 99.8821V491.847C24.8224 520.651 48.173 544.002 76.9774 544.002H426.432C455.237 544.002 478.587 520.651 478.587 491.847Z" fill="white"/>
</g>
<path d="M320.398 528.117H192.103C184.547 528.117 178.423 534.241 178.423 541.797C178.423 549.352 184.547 555.477 192.103 555.477H320.398C327.953 555.477 334.078 549.352 334.078 541.797C334.078 534.241 327.953 528.117 320.398 528.117Z" fill="#2ABEC0"/>
<path d="M85.3039 352.416C83.2132 352.416 81.4212 351.925 79.9279 350.944C78.4559 349.963 77.4212 348.619 76.8239 346.912L79.3839 345.44C80.2585 348.149 82.2532 349.504 85.3679 349.504C86.9039 349.504 88.0772 349.195 88.8879 348.576C89.6985 347.936 90.1039 347.093 90.1039 346.048C90.1039 344.981 89.6985 344.181 88.8879 343.648C88.0772 343.115 86.7225 342.549 84.8239 341.952C83.8852 341.653 83.1705 341.419 82.6799 341.248C82.1892 341.056 81.5705 340.779 80.8239 340.416C80.0985 340.032 79.5545 339.648 79.1919 339.264C78.8292 338.859 78.4985 338.336 78.1999 337.696C77.9225 337.056 77.7839 336.331 77.7839 335.52C77.7839 333.579 78.4665 332.043 79.8319 330.912C81.1972 329.76 82.8612 329.184 84.8239 329.184C86.5945 329.184 88.1305 329.632 89.4319 330.528C90.7545 331.424 91.7465 332.608 92.4079 334.08L89.9119 335.52C88.9519 333.216 87.2559 332.064 84.8239 332.064C83.6079 332.064 82.6265 332.363 81.8799 332.96C81.1332 333.557 80.7599 334.368 80.7599 335.392C80.7599 336.373 81.1119 337.12 81.8159 337.632C82.5199 338.144 83.7359 338.677 85.4639 339.232C86.0825 339.424 86.5199 339.563 86.7759 339.648C87.0319 339.733 87.4265 339.883 87.9599 340.096C88.5145 340.309 88.9199 340.48 89.1759 340.608C89.4319 340.736 89.7732 340.917 90.1999 341.152C90.6479 341.387 90.9785 341.611 91.1919 341.824C91.4052 342.037 91.6505 342.304 91.9279 342.624C92.2265 342.923 92.4399 343.232 92.5679 343.552C92.6959 343.872 92.8025 344.245 92.8879 344.672C92.9945 345.077 93.0479 345.515 93.0479 345.984C93.0479 347.947 92.3332 349.515 90.9039 350.688C89.4745 351.84 87.6079 352.416 85.3039 352.416ZM104.519 338.688H100.263V347.36C100.263 348.149 100.412 348.715 100.711 349.056C101.031 349.376 101.511 349.547 102.151 349.568C102.791 349.568 103.58 349.547 104.519 349.504V352C102.087 352.32 100.306 352.128 99.1751 351.424C98.0445 350.699 97.4791 349.344 97.4791 347.36V338.688H94.3111V336H97.4791V332.352L100.263 331.52V336H104.519V338.688ZM110.693 338.688C111.61 336.704 113.274 335.712 115.685 335.712V338.624C114.32 338.56 113.146 338.923 112.165 339.712C111.184 340.501 110.693 341.771 110.693 343.52V352H107.909V336H110.693V338.688ZM119.486 345.28C119.763 346.709 120.414 347.819 121.438 348.608C122.483 349.397 123.763 349.792 125.278 349.792C127.39 349.792 128.926 349.013 129.886 347.456L132.254 348.8C130.697 351.211 128.35 352.416 125.214 352.416C122.675 352.416 120.606 351.627 119.006 350.048C117.427 348.448 116.638 346.432 116.638 344C116.638 341.589 117.417 339.584 118.974 337.984C120.531 336.384 122.547 335.584 125.022 335.584C127.369 335.584 129.278 336.416 130.75 338.08C132.243 339.723 132.99 341.707 132.99 344.032C132.99 344.437 132.958 344.853 132.894 345.28H119.486ZM125.022 338.208C123.529 338.208 122.291 338.635 121.31 339.488C120.329 340.32 119.721 341.44 119.486 342.848H130.174C129.939 341.333 129.342 340.181 128.382 339.392C127.422 338.603 126.302 338.208 125.022 338.208ZM149.407 336H152.191V352H149.407V349.248C148.02 351.36 146.004 352.416 143.359 352.416C141.119 352.416 139.21 351.605 137.631 349.984C136.052 348.341 135.263 346.347 135.263 344C135.263 341.653 136.052 339.669 137.631 338.048C139.21 336.405 141.119 335.584 143.359 335.584C146.004 335.584 148.02 336.64 149.407 338.752V336ZM143.711 349.728C145.332 349.728 146.687 349.184 147.775 348.096C148.863 346.987 149.407 345.621 149.407 344C149.407 342.379 148.863 341.024 147.775 339.936C146.687 338.827 145.332 338.272 143.711 338.272C142.111 338.272 140.767 338.827 139.679 339.936C138.591 341.024 138.047 342.379 138.047 344C138.047 345.621 138.591 346.987 139.679 348.096C140.767 349.184 142.111 349.728 143.711 349.728ZM173.689 335.584C175.481 335.584 176.932 336.171 178.041 337.344C179.15 338.496 179.705 340.064 179.705 342.048V352H176.921V342.144C176.921 340.907 176.601 339.947 175.961 339.264C175.321 338.581 174.468 338.24 173.401 338.24C172.206 338.24 171.246 338.645 170.521 339.456C169.817 340.245 169.465 341.461 169.465 343.104V352H166.681V342.144C166.681 340.907 166.372 339.947 165.753 339.264C165.156 338.581 164.334 338.24 163.289 338.24C162.116 338.24 161.134 338.645 160.345 339.456C159.577 340.267 159.193 341.483 159.193 343.104V352H156.409V336H159.193V338.144C160.281 336.437 161.87 335.584 163.961 335.584C166.116 335.584 167.684 336.491 168.665 338.304C169.774 336.491 171.449 335.584 173.689 335.584ZM183.565 352V328.64H186.349V352H183.565ZM192.004 333.088C191.471 333.088 191.023 332.907 190.66 332.544C190.298 332.181 190.116 331.744 190.116 331.232C190.116 330.72 190.298 330.283 190.66 329.92C191.023 329.536 191.471 329.344 192.004 329.344C192.516 329.344 192.954 329.536 193.316 329.92C193.679 330.283 193.86 330.72 193.86 331.232C193.86 331.744 193.679 332.181 193.316 332.544C192.954 332.907 192.516 333.088 192.004 333.088ZM190.596 352V336H193.38V352H190.596ZM205.596 335.584C207.473 335.584 208.977 336.181 210.108 337.376C211.238 338.549 211.804 340.149 211.804 342.176V352H209.02V342.336C209.02 341.035 208.668 340.032 207.964 339.328C207.26 338.603 206.289 338.24 205.052 338.24C203.665 338.24 202.545 338.677 201.692 339.552C200.838 340.405 200.412 341.728 200.412 343.52V352H197.628V336H200.412V338.304C201.542 336.491 203.27 335.584 205.596 335.584ZM217.642 345.28C217.919 346.709 218.57 347.819 219.594 348.608C220.639 349.397 221.919 349.792 223.434 349.792C225.546 349.792 227.082 349.013 228.042 347.456L230.41 348.8C228.853 351.211 226.506 352.416 223.37 352.416C220.831 352.416 218.762 351.627 217.162 350.048C215.583 348.448 214.794 346.432 214.794 344C214.794 341.589 215.573 339.584 217.13 337.984C218.687 336.384 220.703 335.584 223.178 335.584C225.525 335.584 227.434 336.416 228.906 338.08C230.399 339.723 231.146 341.707 231.146 344.032C231.146 344.437 231.114 344.853 231.05 345.28H217.642ZM223.178 338.208C221.685 338.208 220.447 338.635 219.466 339.488C218.485 340.32 217.877 341.44 217.642 342.848H228.33C228.095 341.333 227.498 340.181 226.538 339.392C225.578 338.603 224.458 338.208 223.178 338.208ZM247.563 329.6H250.347V352H247.563V349.248C246.176 351.36 244.16 352.416 241.515 352.416C239.275 352.416 237.366 351.605 235.787 349.984C234.208 348.341 233.419 346.347 233.419 344C233.419 341.653 234.208 339.669 235.787 338.048C237.366 336.405 239.275 335.584 241.515 335.584C244.16 335.584 246.176 336.64 247.563 338.752V329.6ZM241.867 349.728C243.488 349.728 244.843 349.184 245.931 348.096C247.019 346.987 247.563 345.621 247.563 344C247.563 342.379 247.019 341.024 245.931 339.936C244.843 338.827 243.488 338.272 241.867 338.272C240.267 338.272 238.923 338.827 237.835 339.936C236.747 341.024 236.203 342.379 236.203 344C236.203 345.621 236.747 346.987 237.835 348.096C238.923 349.184 240.267 349.728 241.867 349.728ZM271.397 335.584C273.637 335.584 275.546 336.405 277.125 338.048C278.704 339.669 279.493 341.653 279.493 344C279.493 346.347 278.704 348.341 277.125 349.984C275.546 351.605 273.637 352.416 271.397 352.416C268.752 352.416 266.736 351.36 265.349 349.248V358.4H262.565V336H265.349V338.752C266.736 336.64 268.752 335.584 271.397 335.584ZM271.045 349.728C272.645 349.728 273.989 349.184 275.077 348.096C276.165 346.987 276.709 345.621 276.709 344C276.709 342.379 276.165 341.024 275.077 339.936C273.989 338.827 272.645 338.272 271.045 338.272C269.424 338.272 268.069 338.827 266.981 339.936C265.893 341.024 265.349 342.379 265.349 344C265.349 345.621 265.893 346.987 266.981 348.096C268.069 349.184 269.424 349.728 271.045 349.728ZM296.063 336H298.847V352H296.063V349.248C294.676 351.36 292.66 352.416 290.015 352.416C287.775 352.416 285.866 351.605 284.287 349.984C282.708 348.341 281.919 346.347 281.919 344C281.919 341.653 282.708 339.669 284.287 338.048C285.866 336.405 287.775 335.584 290.015 335.584C292.66 335.584 294.676 336.64 296.063 338.752V336ZM290.367 349.728C291.988 349.728 293.343 349.184 294.431 348.096C295.519 346.987 296.063 345.621 296.063 344C296.063 342.379 295.519 341.024 294.431 339.936C293.343 338.827 291.988 338.272 290.367 338.272C288.767 338.272 287.423 338.827 286.335 339.936C285.247 341.024 284.703 342.379 284.703 344C284.703 345.621 285.247 346.987 286.335 348.096C287.423 349.184 288.767 349.728 290.367 349.728ZM311.897 335.584C314.137 335.584 316.046 336.405 317.625 338.048C319.204 339.669 319.993 341.653 319.993 344C319.993 346.347 319.204 348.341 317.625 349.984C316.046 351.605 314.137 352.416 311.897 352.416C309.252 352.416 307.236 351.36 305.849 349.248V358.4H303.065V336H305.849V338.752C307.236 336.64 309.252 335.584 311.897 335.584ZM311.545 349.728C313.145 349.728 314.489 349.184 315.577 348.096C316.665 346.987 317.209 345.621 317.209 344C317.209 342.379 316.665 341.024 315.577 339.936C314.489 338.827 313.145 338.272 311.545 338.272C309.924 338.272 308.569 338.827 307.481 339.936C306.393 341.024 305.849 342.379 305.849 344C305.849 345.621 306.393 346.987 307.481 348.096C308.569 349.184 309.924 349.728 311.545 349.728ZM325.267 345.28C325.544 346.709 326.195 347.819 327.219 348.608C328.264 349.397 329.544 349.792 331.059 349.792C333.171 349.792 334.707 349.013 335.667 347.456L338.035 348.8C336.478 351.211 334.131 352.416 330.995 352.416C328.456 352.416 326.387 351.627 324.787 350.048C323.208 348.448 322.419 346.432 322.419 344C322.419 341.589 323.198 339.584 324.755 337.984C326.312 336.384 328.328 335.584 330.803 335.584C333.15 335.584 335.059 336.416 336.531 338.08C338.024 339.723 338.771 341.707 338.771 344.032C338.771 344.437 338.739 344.853 338.675 345.28H325.267ZM330.803 338.208C329.31 338.208 328.072 338.635 327.091 339.488C326.11 340.32 325.502 341.44 325.267 342.848H335.955C335.72 341.333 335.123 340.181 334.163 339.392C333.203 338.603 332.083 338.208 330.803 338.208ZM344.755 338.688C345.673 336.704 347.337 335.712 349.747 335.712V338.624C348.382 338.56 347.209 338.923 346.227 339.712C345.246 340.501 344.755 341.771 344.755 343.52V352H341.971V336H344.755V338.688ZM371.319 336H374.231L369.271 352H366.423L362.679 340.16L358.935 352H356.087L351.127 336H354.039L357.559 348.16L361.335 336H364.023L367.799 348.192L371.319 336ZM389.975 349.984C388.333 351.605 386.338 352.416 383.991 352.416C381.645 352.416 379.65 351.605 378.007 349.984C376.386 348.363 375.575 346.368 375.575 344C375.575 341.632 376.386 339.637 378.007 338.016C379.65 336.395 381.645 335.584 383.991 335.584C386.338 335.584 388.333 336.395 389.975 338.016C391.618 339.637 392.439 341.632 392.439 344C392.439 346.368 391.618 348.363 389.975 349.984ZM383.991 349.696C385.591 349.696 386.935 349.152 388.023 348.064C389.111 346.976 389.655 345.621 389.655 344C389.655 342.379 389.111 341.024 388.023 339.936C386.935 338.848 385.591 338.304 383.991 338.304C382.413 338.304 381.079 338.848 379.991 339.936C378.903 341.024 378.359 342.379 378.359 344C378.359 345.621 378.903 346.976 379.991 348.064C381.079 349.152 382.413 349.696 383.991 349.696ZM398.505 338.688C399.423 336.704 401.087 335.712 403.497 335.712V338.624C402.132 338.56 400.959 338.923 399.977 339.712C398.996 340.501 398.505 341.771 398.505 343.52V352H395.721V336H398.505V338.688ZM419.757 352H416.301L409.005 344.416V352H406.221V329.6H409.005V343.072L415.917 336H419.501L411.853 343.744L419.757 352ZM426.506 348.704L424.426 356.48H422.026L423.306 348.704H426.506ZM97.7096 374.584C99.9496 374.584 101.859 375.405 103.438 377.048C105.016 378.669 105.806 380.653 105.806 383C105.806 385.347 105.016 387.341 103.438 388.984C101.859 390.605 99.9496 391.416 97.7096 391.416C95.0643 391.416 93.0483 390.36 91.6616 388.248V397.4H88.8776V375H91.6616V377.752C93.0483 375.64 95.0643 374.584 97.7096 374.584ZM97.3576 388.728C98.9576 388.728 100.302 388.184 101.39 387.096C102.478 385.987 103.022 384.621 103.022 383C103.022 381.379 102.478 380.024 101.39 378.936C100.302 377.827 98.9576 377.272 97.3576 377.272C95.7363 377.272 94.3816 377.827 93.2936 378.936C92.2056 380.024 91.6616 381.379 91.6616 383C91.6616 384.621 92.2056 385.987 93.2936 387.096C94.3816 388.184 95.7363 388.728 97.3576 388.728ZM122.376 375H125.16V391H122.376V388.248C120.989 390.36 118.973 391.416 116.328 391.416C114.088 391.416 112.178 390.605 110.6 388.984C109.021 387.341 108.232 385.347 108.232 383C108.232 380.653 109.021 378.669 110.6 377.048C112.178 375.405 114.088 374.584 116.328 374.584C118.973 374.584 120.989 375.64 122.376 377.752V375ZM116.68 388.728C118.301 388.728 119.656 388.184 120.744 387.096C121.832 385.987 122.376 384.621 122.376 383C122.376 381.379 121.832 380.024 120.744 378.936C119.656 377.827 118.301 377.272 116.68 377.272C115.08 377.272 113.736 377.827 112.648 378.936C111.56 380.024 111.016 381.379 111.016 383C111.016 384.621 111.56 385.987 112.648 387.096C113.736 388.184 115.08 388.728 116.68 388.728ZM140.546 375H143.522L136.994 391.992C136.311 393.805 135.351 395.181 134.114 396.12C132.898 397.08 131.49 397.507 129.89 397.4V394.808C131.852 394.957 133.292 393.869 134.21 391.544L134.498 390.936L127.522 375H130.498L135.938 387.544L140.546 375ZM163.126 374.584C164.918 374.584 166.369 375.171 167.478 376.344C168.588 377.496 169.142 379.064 169.142 381.048V391H166.358V381.144C166.358 379.907 166.038 378.947 165.398 378.264C164.758 377.581 163.905 377.24 162.838 377.24C161.644 377.24 160.684 377.645 159.958 378.456C159.254 379.245 158.902 380.461 158.902 382.104V391H156.118V381.144C156.118 379.907 155.809 378.947 155.19 378.264C154.593 377.581 153.772 377.24 152.726 377.24C151.553 377.24 150.572 377.645 149.782 378.456C149.014 379.267 148.63 380.483 148.63 382.104V391H145.846V375H148.63V377.144C149.718 375.437 151.308 374.584 153.398 374.584C155.553 374.584 157.121 375.491 158.102 377.304C159.212 375.491 160.886 374.584 163.126 374.584ZM174.955 384.28C175.232 385.709 175.883 386.819 176.907 387.608C177.952 388.397 179.232 388.792 180.747 388.792C182.859 388.792 184.395 388.013 185.355 386.456L187.723 387.8C186.165 390.211 183.819 391.416 180.683 391.416C178.144 391.416 176.075 390.627 174.475 389.048C172.896 387.448 172.107 385.432 172.107 383C172.107 380.589 172.885 378.584 174.443 376.984C176 375.384 178.016 374.584 180.491 374.584C182.837 374.584 184.747 375.416 186.219 377.08C187.712 378.723 188.459 380.707 188.459 383.032C188.459 383.437 188.427 383.853 188.363 384.28H174.955ZM180.491 377.208C178.997 377.208 177.76 377.635 176.779 378.488C175.797 379.32 175.189 380.44 174.955 381.848H185.643C185.408 380.333 184.811 379.181 183.851 378.392C182.891 377.603 181.771 377.208 180.491 377.208ZM199.627 374.584C201.504 374.584 203.008 375.181 204.139 376.376C205.27 377.549 205.835 379.149 205.835 381.176V391H203.051V381.336C203.051 380.035 202.699 379.032 201.995 378.328C201.291 377.603 200.32 377.24 199.083 377.24C197.696 377.24 196.576 377.677 195.723 378.552C194.87 379.405 194.443 380.728 194.443 382.52V391H191.659V375H194.443V377.304C195.574 375.491 197.302 374.584 199.627 374.584ZM218.425 377.688H214.169V386.36C214.169 387.149 214.319 387.715 214.617 388.056C214.937 388.376 215.417 388.547 216.057 388.568C216.697 388.568 217.487 388.547 218.425 388.504V391C215.993 391.32 214.212 391.128 213.081 390.424C211.951 389.699 211.385 388.344 211.385 386.36V377.688H208.217V375H211.385V371.352L214.169 370.52V375H218.425V377.688ZM225.975 387.704L223.895 395.48H221.495L222.775 387.704H225.975ZM251.157 375H253.941V391H251.157V388.248C249.77 390.36 247.754 391.416 245.109 391.416C242.869 391.416 240.96 390.605 239.381 388.984C237.802 387.341 237.013 385.347 237.013 383C237.013 380.653 237.802 378.669 239.381 377.048C240.96 375.405 242.869 374.584 245.109 374.584C247.754 374.584 249.77 375.64 251.157 377.752V375ZM245.461 388.728C247.082 388.728 248.437 388.184 249.525 387.096C250.613 385.987 251.157 384.621 251.157 383C251.157 381.379 250.613 380.024 249.525 378.936C248.437 377.827 247.082 377.272 245.461 377.272C243.861 377.272 242.517 377.827 241.429 378.936C240.341 380.024 239.797 381.379 239.797 383C239.797 384.621 240.341 385.987 241.429 387.096C242.517 388.184 243.861 388.728 245.461 388.728ZM266.127 374.584C268.004 374.584 269.508 375.181 270.639 376.376C271.77 377.549 272.335 379.149 272.335 381.176V391H269.551V381.336C269.551 380.035 269.199 379.032 268.495 378.328C267.791 377.603 266.82 377.24 265.583 377.24C264.196 377.24 263.076 377.677 262.223 378.552C261.37 379.405 260.943 380.728 260.943 382.52V391H258.159V375H260.943V377.304C262.074 375.491 263.802 374.584 266.127 374.584ZM289.469 368.6H292.253V391H289.469V388.248C288.083 390.36 286.067 391.416 283.421 391.416C281.181 391.416 279.272 390.605 277.693 388.984C276.115 387.341 275.325 385.347 275.325 383C275.325 380.653 276.115 378.669 277.693 377.048C279.272 375.405 281.181 374.584 283.421 374.584C286.067 374.584 288.083 375.64 289.469 377.752V368.6ZM283.773 388.728C285.395 388.728 286.749 388.184 287.837 387.096C288.925 385.987 289.469 384.621 289.469 383C289.469 381.379 288.925 380.024 287.837 378.936C286.749 377.827 285.395 377.272 283.773 377.272C282.173 377.272 280.829 377.827 279.741 378.936C278.653 380.024 278.109 381.379 278.109 383C278.109 384.621 278.653 385.987 279.741 387.096C280.829 388.184 282.173 388.728 283.773 388.728ZM317.719 368.6H320.503V391H317.719V388.248C316.333 390.36 314.317 391.416 311.671 391.416C309.431 391.416 307.522 390.605 305.943 388.984C304.365 387.341 303.575 385.347 303.575 383C303.575 380.653 304.365 378.669 305.943 377.048C307.522 375.405 309.431 374.584 311.671 374.584C314.317 374.584 316.333 375.64 317.719 377.752V368.6ZM312.023 388.728C313.645 388.728 314.999 388.184 316.087 387.096C317.175 385.987 317.719 384.621 317.719 383C317.719 381.379 317.175 380.024 316.087 378.936C314.999 377.827 313.645 377.272 312.023 377.272C310.423 377.272 309.079 377.827 307.991 378.936C306.903 380.024 306.359 381.379 306.359 383C306.359 384.621 306.903 385.987 307.991 387.096C309.079 388.184 310.423 388.728 312.023 388.728ZM326.673 384.28C326.951 385.709 327.601 386.819 328.625 387.608C329.671 388.397 330.951 388.792 332.465 388.792C334.577 388.792 336.113 388.013 337.073 386.456L339.441 387.8C337.884 390.211 335.537 391.416 332.401 391.416C329.863 391.416 327.793 390.627 326.193 389.048C324.615 387.448 323.825 385.432 323.825 383C323.825 380.589 324.604 378.584 326.161 376.984C327.719 375.384 329.735 374.584 332.209 374.584C334.556 374.584 336.465 375.416 337.937 377.08C339.431 378.723 340.177 380.707 340.177 383.032C340.177 383.437 340.145 383.853 340.081 384.28H326.673ZM332.209 377.208C330.716 377.208 329.479 377.635 328.497 378.488C327.516 379.32 326.908 380.44 326.673 381.848H337.361C337.127 380.333 336.529 379.181 335.569 378.392C334.609 377.603 333.489 377.208 332.209 377.208ZM343.378 391V367.64H346.162V391H343.378ZM351.817 372.088C351.284 372.088 350.836 371.907 350.473 371.544C350.11 371.181 349.929 370.744 349.929 370.232C349.929 369.72 350.11 369.283 350.473 368.92C350.836 368.536 351.284 368.344 351.817 368.344C352.329 368.344 352.766 368.536 353.129 368.92C353.492 369.283 353.673 369.72 353.673 370.232C353.673 370.744 353.492 371.181 353.129 371.544C352.766 371.907 352.329 372.088 351.817 372.088ZM350.409 391V375H353.193V391H350.409ZM368.64 375H371.648L365.248 391H361.984L355.584 375H358.592L363.616 388.024L368.64 375ZM375.33 384.28C375.607 385.709 376.258 386.819 377.282 387.608C378.327 388.397 379.607 388.792 381.122 388.792C383.234 388.792 384.77 388.013 385.73 386.456L388.098 387.8C386.54 390.211 384.194 391.416 381.058 391.416C378.519 391.416 376.45 390.627 374.85 389.048C373.271 387.448 372.482 385.432 372.482 383C372.482 380.589 373.26 378.584 374.818 376.984C376.375 375.384 378.391 374.584 380.866 374.584C383.212 374.584 385.122 375.416 386.594 377.08C388.087 378.723 388.834 380.707 388.834 383.032C388.834 383.437 388.802 383.853 388.738 384.28H375.33ZM380.866 377.208C379.372 377.208 378.135 377.635 377.154 378.488C376.172 379.32 375.564 380.44 375.33 381.848H386.018C385.783 380.333 385.186 379.181 384.226 378.392C383.266 377.603 382.146 377.208 380.866 377.208ZM394.818 377.688C395.735 375.704 397.399 374.712 399.81 374.712V377.624C398.445 377.56 397.271 377.923 396.29 378.712C395.309 379.501 394.818 380.771 394.818 382.52V391H392.034V375H394.818V377.688ZM414.046 375H417.022L410.494 391.992C409.811 393.805 408.851 395.181 407.614 396.12C406.398 397.08 404.99 397.507 403.39 397.4V394.808C405.352 394.957 406.792 393.869 407.71 391.544L407.998 390.936L401.022 375H403.998L409.438 387.544L414.046 375ZM190.46 413.584C192.7 413.584 194.609 414.405 196.188 416.048C197.766 417.669 198.556 419.653 198.556 422C198.556 424.347 197.766 426.341 196.188 427.984C194.609 429.605 192.7 430.416 190.46 430.416C187.814 430.416 185.798 429.36 184.412 427.248V436.4H181.628V414H184.412V416.752C185.798 414.64 187.814 413.584 190.46 413.584ZM190.108 427.728C191.708 427.728 193.052 427.184 194.14 426.096C195.228 424.987 195.772 423.621 195.772 422C195.772 420.379 195.228 419.024 194.14 417.936C193.052 416.827 191.708 416.272 190.108 416.272C188.486 416.272 187.132 416.827 186.044 417.936C184.956 419.024 184.412 420.379 184.412 422C184.412 423.621 184.956 424.987 186.044 426.096C187.132 427.184 188.486 427.728 190.108 427.728ZM204.662 416.688C205.579 414.704 207.243 413.712 209.654 413.712V416.624C208.288 416.56 207.115 416.923 206.134 417.712C205.152 418.501 204.662 419.771 204.662 421.52V430H201.878V414H204.662V416.688ZM225.007 427.984C223.364 429.605 221.369 430.416 219.023 430.416C216.676 430.416 214.681 429.605 213.039 427.984C211.417 426.363 210.607 424.368 210.607 422C210.607 419.632 211.417 417.637 213.039 416.016C214.681 414.395 216.676 413.584 219.023 413.584C221.369 413.584 223.364 414.395 225.007 416.016C226.649 417.637 227.471 419.632 227.471 422C227.471 424.368 226.649 426.363 225.007 427.984ZM219.023 427.696C220.623 427.696 221.967 427.152 223.055 426.064C224.143 424.976 224.687 423.621 224.687 422C224.687 420.379 224.143 419.024 223.055 417.936C221.967 416.848 220.623 416.304 219.023 416.304C217.444 416.304 216.111 416.848 215.023 417.936C213.935 419.024 213.391 420.379 213.391 422C213.391 423.621 213.935 424.976 215.023 426.064C216.111 427.152 217.444 427.696 219.023 427.696ZM238.273 430.416C235.862 430.416 233.857 429.616 232.257 428.016C230.657 426.395 229.857 424.389 229.857 422C229.857 419.611 230.657 417.616 232.257 416.016C233.857 414.395 235.862 413.584 238.273 413.584C239.851 413.584 241.27 413.968 242.529 414.736C243.787 415.483 244.726 416.496 245.345 417.776L243.009 419.12C242.603 418.267 241.974 417.584 241.121 417.072C240.289 416.56 239.339 416.304 238.273 416.304C236.673 416.304 235.329 416.848 234.241 417.936C233.174 419.024 232.641 420.379 232.641 422C232.641 423.6 233.174 424.944 234.241 426.032C235.329 427.12 236.673 427.664 238.273 427.664C239.339 427.664 240.299 427.419 241.153 426.928C242.006 426.416 242.657 425.733 243.105 424.88L245.473 426.256C244.79 427.515 243.809 428.528 242.529 429.296C241.249 430.043 239.83 430.416 238.273 430.416ZM249.955 423.28C250.232 424.709 250.883 425.819 251.907 426.608C252.952 427.397 254.232 427.792 255.747 427.792C257.859 427.792 259.395 427.013 260.355 425.456L262.723 426.8C261.165 429.211 258.819 430.416 255.683 430.416C253.144 430.416 251.075 429.627 249.475 428.048C247.896 426.448 247.107 424.432 247.107 422C247.107 419.589 247.885 417.584 249.443 415.984C251 414.384 253.016 413.584 255.491 413.584C257.837 413.584 259.747 414.416 261.219 416.08C262.712 417.723 263.459 419.707 263.459 422.032C263.459 422.437 263.427 422.853 263.363 423.28H249.955ZM255.491 416.208C253.997 416.208 252.76 416.635 251.779 417.488C250.797 418.32 250.189 419.44 249.955 420.848H260.643C260.408 419.333 259.811 418.181 258.851 417.392C257.891 416.603 256.771 416.208 255.491 416.208ZM268.434 418.32C268.434 418.939 268.743 419.44 269.362 419.824C269.981 420.187 270.727 420.485 271.602 420.72C272.477 420.933 273.351 421.189 274.226 421.488C275.101 421.765 275.847 422.256 276.466 422.96C277.085 423.643 277.394 424.528 277.394 425.616C277.394 427.067 276.829 428.229 275.698 429.104C274.589 429.979 273.159 430.416 271.41 430.416C269.853 430.416 268.519 430.075 267.41 429.392C266.301 428.709 265.511 427.803 265.042 426.672L267.442 425.296C267.698 426.064 268.178 426.672 268.882 427.12C269.586 427.568 270.429 427.792 271.41 427.792C272.327 427.792 273.085 427.621 273.682 427.28C274.279 426.917 274.578 426.363 274.578 425.616C274.578 424.997 274.269 424.507 273.65 424.144C273.031 423.76 272.285 423.461 271.41 423.248C270.535 423.013 269.661 422.747 268.786 422.448C267.911 422.149 267.165 421.659 266.546 420.976C265.927 420.293 265.618 419.419 265.618 418.352C265.618 416.965 266.151 415.824 267.218 414.928C268.306 414.032 269.661 413.584 271.282 413.584C272.583 413.584 273.735 413.883 274.738 414.48C275.762 415.056 276.53 415.867 277.042 416.912L274.706 418.224C274.13 416.859 272.989 416.176 271.282 416.176C270.493 416.176 269.821 416.368 269.266 416.752C268.711 417.115 268.434 417.637 268.434 418.32ZM282.09 418.32C282.09 418.939 282.399 419.44 283.018 419.824C283.637 420.187 284.383 420.485 285.258 420.72C286.133 420.933 287.007 421.189 287.882 421.488C288.757 421.765 289.503 422.256 290.122 422.96C290.741 423.643 291.05 424.528 291.05 425.616C291.05 427.067 290.485 428.229 289.354 429.104C288.245 429.979 286.815 430.416 285.066 430.416C283.509 430.416 282.175 430.075 281.066 429.392C279.957 428.709 279.167 427.803 278.698 426.672L281.098 425.296C281.354 426.064 281.834 426.672 282.538 427.12C283.242 427.568 284.085 427.792 285.066 427.792C285.983 427.792 286.741 427.621 287.338 427.28C287.935 426.917 288.234 426.363 288.234 425.616C288.234 424.997 287.925 424.507 287.306 424.144C286.687 423.76 285.941 423.461 285.066 423.248C284.191 423.013 283.317 422.747 282.442 422.448C281.567 422.149 280.821 421.659 280.202 420.976C279.583 420.293 279.274 419.419 279.274 418.352C279.274 416.965 279.807 415.824 280.874 414.928C281.962 414.032 283.317 413.584 284.938 413.584C286.239 413.584 287.391 413.883 288.394 414.48C289.418 415.056 290.186 415.867 290.698 416.912L288.362 418.224C287.786 416.859 286.645 416.176 284.938 416.176C284.149 416.176 283.477 416.368 282.922 416.752C282.367 417.115 282.09 417.637 282.09 418.32ZM295.861 423.28C296.138 424.709 296.789 425.819 297.813 426.608C298.858 427.397 300.138 427.792 301.653 427.792C303.765 427.792 305.301 427.013 306.261 425.456L308.629 426.8C307.072 429.211 304.725 430.416 301.589 430.416C299.05 430.416 296.981 429.627 295.381 428.048C293.802 426.448 293.013 424.432 293.013 422C293.013 419.589 293.792 417.584 295.349 415.984C296.906 414.384 298.922 413.584 301.397 413.584C303.744 413.584 305.653 414.416 307.125 416.08C308.618 417.723 309.365 419.707 309.365 422.032C309.365 422.437 309.333 422.853 309.269 423.28H295.861ZM301.397 416.208C299.904 416.208 298.666 416.635 297.685 417.488C296.704 418.32 296.096 419.44 295.861 420.848H306.549C306.314 419.333 305.717 418.181 304.757 417.392C303.797 416.603 302.677 416.208 301.397 416.208ZM314.34 418.32C314.34 418.939 314.649 419.44 315.268 419.824C315.887 420.187 316.633 420.485 317.508 420.72C318.383 420.933 319.257 421.189 320.132 421.488C321.007 421.765 321.753 422.256 322.372 422.96C322.991 423.643 323.3 424.528 323.3 425.616C323.3 427.067 322.735 428.229 321.604 429.104C320.495 429.979 319.065 430.416 317.316 430.416C315.759 430.416 314.425 430.075 313.316 429.392C312.207 428.709 311.417 427.803 310.948 426.672L313.348 425.296C313.604 426.064 314.084 426.672 314.788 427.12C315.492 427.568 316.335 427.792 317.316 427.792C318.233 427.792 318.991 427.621 319.588 427.28C320.185 426.917 320.484 426.363 320.484 425.616C320.484 424.997 320.175 424.507 319.556 424.144C318.937 423.76 318.191 423.461 317.316 423.248C316.441 423.013 315.567 422.747 314.692 422.448C313.817 422.149 313.071 421.659 312.452 420.976C311.833 420.293 311.524 419.419 311.524 418.352C311.524 416.965 312.057 415.824 313.124 414.928C314.212 414.032 315.567 413.584 317.188 413.584C318.489 413.584 319.641 413.883 320.644 414.48C321.668 415.056 322.436 415.867 322.948 416.912L320.612 418.224C320.036 416.859 318.895 416.176 317.188 416.176C316.399 416.176 315.727 416.368 315.172 416.752C314.617 417.115 314.34 417.637 314.34 418.32Z" fill="#1F1F1F"/>
<g style="mix-blend-mode:multiply">
<path d="M273.567 67.5122L319.767 250.242C319.767 250.242 180.447 293.607 106.977 297.267L94.7073 133.197L273.567 67.5122Z" fill="#E6E6E6"/>
</g>
<path d="M111.897 262.962C164.217 274.647 323.397 236.127 323.397 236.127L296.113 37.3018C247.063 43.0018 161.353 60.6718 90.6426 71.4868L92.8926 90.6718L111.897 262.962Z" fill="#2ABEC0"/>
<path d="M257.262 47.4871L261.267 33.8071C261.267 33.8071 261.342 33.8071 261.372 33.8071C262.332 34.0921 262.872 35.0521 262.602 35.9821H262.632L259.107 48.0271L257.247 47.4721L257.262 47.4871Z" fill="black"/>
<path d="M255.643 47.0068L259.168 34.9768C259.423 34.0918 260.353 33.5968 261.268 33.8068L257.263 47.4868L255.643 47.0068Z" fill="#333333"/>
<path d="M226.918 28.6769C227.998 28.9919 228.628 30.1019 228.313 31.1519H228.358L219.358 61.8869L209.773 94.6019C206.893 104.442 212.818 114.882 222.988 117.852C233.158 120.837 243.778 115.242 246.658 105.402L257.353 68.8919L265.243 41.9669H265.273L270.793 23.1419C273.103 15.2969 268.363 6.98694 260.263 4.61694C252.163 2.24694 243.702 6.68694 241.408 14.5319L235.888 33.3719H235.858L227.083 63.3119L225.358 62.8319L240.118 12.4169C246.433 -1.15806 259.243 2.36694 259.243 2.36694C275.398 6.37194 273.283 21.6569 273.283 21.6569L259.333 69.2669L248.353 106.737C241.138 123.882 223.708 120.072 223.708 120.072C201.823 112.527 207.988 92.8019 207.988 92.8019L217.153 61.5119L226.768 28.6919C226.768 28.6919 226.843 28.6919 226.888 28.6919L226.918 28.6769Z" fill="black"/>
<path d="M226.797 28.662L217.183 61.482L208.018 92.772C208.018 92.772 201.853 112.497 223.738 120.042C223.738 120.042 241.167 123.852 248.382 106.707L259.363 69.237L273.312 21.627C273.312 21.627 275.412 6.34196 259.272 2.33696C259.272 2.33696 246.462 -1.17304 240.147 12.387L225.387 62.802L222.837 62.052L231.942 32.172H232.003L237.522 13.362C240.432 3.43196 251.157 -2.19304 261.402 0.806961C271.677 3.80696 277.648 14.337 274.738 24.267L269.217 43.092L261.448 69.612L250.632 106.542C247.137 118.497 234.238 125.277 221.893 121.662C209.548 118.047 202.347 105.372 205.857 93.417L215.323 61.107L224.442 29.967C224.742 28.962 225.792 28.392 226.842 28.632L226.797 28.662Z" fill="#333333"/>
<path d="M262.678 42.0121L223.888 48.5221L220.723 64.5121L259.963 58.9021C259.963 58.9021 259.963 56.5021 259.963 55.8421C259.963 55.1821 262.678 41.9971 262.678 41.9971" fill="#2ABEC0"/>
<path d="M192.084 194.359C186.581 195.337 181.884 194.027 177.995 190.428C174.139 186.78 171.595 181.49 170.363 174.559C169.131 167.627 169.7 161.806 172.069 157.095C174.473 152.334 178.426 149.464 183.929 148.486C189.474 147.5 194.175 148.831 198.03 152.48C201.878 156.086 204.418 161.354 205.65 168.286C206.882 175.217 206.317 181.06 203.956 185.813C201.586 190.524 197.629 193.373 192.084 194.359ZM183.243 183.385C185.188 185.552 187.631 186.375 190.572 185.852C193.512 185.329 195.519 183.694 196.59 180.947C197.704 178.192 197.846 174.483 197.017 169.82C196.181 165.116 194.765 161.662 192.771 159.46C190.818 157.25 188.371 156.407 185.43 156.929C182.49 157.452 180.484 159.087 179.412 161.835C178.34 164.582 178.223 168.308 179.059 173.013C179.895 177.718 181.29 181.175 183.243 183.385ZM223.935 158.86C228.178 158.106 231.976 158.752 235.33 160.8C238.677 162.805 240.754 166.076 241.56 170.613C242.367 175.15 241.464 178.972 238.853 182.079C236.284 185.18 232.794 187.122 228.383 187.906C224.813 188.541 221.52 188.302 218.506 187.192C215.492 186.081 213.099 184.079 211.328 181.187L217.991 175.518C219.71 178.852 222.67 180.146 226.871 179.399C229.098 179.003 230.727 178.172 231.758 176.905C232.824 175.589 233.193 174.007 232.864 172.158C232.543 170.352 231.677 169.011 230.264 168.135C228.852 167.26 227.095 167.009 224.995 167.382L211.636 169.757L209.043 144.931L234.059 140.484L235.504 148.613L218.554 151.626L219.398 159.667L223.935 158.86Z" fill="white"/>
<defs>
<filter id="filter0_d_1797_4507" x="0.822266" y="26.7271" width="501.765" height="544.275" filterUnits="userSpaceOnUse" color-interpolation-filters="sRGB">
<feFlood flood-opacity="0" result="BackgroundImageFix"/>
<feColorMatrix in="SourceAlpha" type="matrix" values="0 0 0 0 0 0 0 0 0 0 0 0 0 0 0 0 0 0 127 0" result="hardAlpha"/>
<feOffset dy="3"/>
<feGaussianBlur stdDeviation="12"/>
<feComposite in2="hardAlpha" operator="out"/>
<feColorMatrix type="matrix" values="0 0 0 0 0 0 0 0 0 0 0 0 0 0 0 0 0 0 0.08 0"/>
<feBlend mode="normal" in2="BackgroundImageFix" result="effect1_dropShadow_1797_4507"/>
<feBlend mode="normal" in="SourceGraphic" in2="effect1_dropShadow_1797_4507" result="shape"/>
</filter>
</defs>
</svg>
