<svg width="503" height="571" viewBox="0 0 503 571" fill="none" xmlns="http://www.w3.org/2000/svg">
<g filter="url(#filter0_d_1797_5140)">
<path d="M478.587 491.847V99.8821C478.587 71.0777 455.237 47.7271 426.432 47.7271L76.9774 47.7271C48.173 47.7271 24.8224 71.0777 24.8224 99.8821V491.847C24.8224 520.651 48.173 544.002 76.9774 544.002H426.432C455.237 544.002 478.587 520.651 478.587 491.847Z" fill="white"/>
</g>
<path d="M320.398 528.117H192.103C184.547 528.117 178.423 534.241 178.423 541.797C178.423 549.352 184.547 555.477 192.103 555.477H320.398C327.953 555.477 334.078 549.352 334.078 541.797C334.078 534.241 327.953 528.117 320.398 528.117Z" fill="#FF725E"/>
<path d="M173.24 329.6H176.184V352H173.24V341.92H162.36V352H159.384V329.6H162.36V339.104H173.24V329.6ZM182.098 333.088C181.565 333.088 181.117 332.907 180.754 332.544C180.391 332.181 180.21 331.744 180.21 331.232C180.21 330.72 180.391 330.283 180.754 329.92C181.117 329.536 181.565 329.344 182.098 329.344C182.61 329.344 183.047 329.536 183.41 329.92C183.773 330.283 183.954 330.72 183.954 331.232C183.954 331.744 183.773 332.181 183.41 332.544C183.047 332.907 182.61 333.088 182.098 333.088ZM180.69 352V336H183.474V352H180.69ZM201.001 336H203.753V351.328C203.753 353.696 202.953 355.531 201.353 356.832C199.753 358.155 197.833 358.816 195.593 358.816C193.801 358.816 192.255 358.475 190.953 357.792C189.652 357.131 188.671 356.171 188.009 354.912L190.441 353.536C191.316 355.328 193.055 356.224 195.657 356.224C197.321 356.224 198.623 355.787 199.561 354.912C200.521 354.037 201.001 352.843 201.001 351.328V349.056C199.593 351.189 197.588 352.256 194.985 352.256C192.703 352.256 190.772 351.445 189.193 349.824C187.615 348.203 186.825 346.229 186.825 343.904C186.825 341.579 187.615 339.616 189.193 338.016C190.772 336.395 192.703 335.584 194.985 335.584C197.609 335.584 199.615 336.64 201.001 338.752V336ZM191.241 347.968C192.329 349.056 193.684 349.6 195.305 349.6C196.927 349.6 198.281 349.056 199.369 347.968C200.457 346.88 201.001 345.525 201.001 343.904C201.001 342.304 200.457 340.96 199.369 339.872C198.281 338.784 196.927 338.24 195.305 338.24C193.684 338.24 192.329 338.784 191.241 339.872C190.153 340.96 189.609 342.304 189.609 343.904C189.609 345.525 190.153 346.88 191.241 347.968ZM215.939 335.584C217.817 335.584 219.321 336.181 220.451 337.376C221.582 338.549 222.147 340.149 222.147 342.176V352H219.363V342.336C219.363 341.035 219.011 340.032 218.307 339.328C217.603 338.603 216.633 338.24 215.395 338.24C214.009 338.24 212.889 338.677 212.035 339.552C211.182 340.405 210.755 341.728 210.755 343.52V352H207.971V329.6H210.755V338.304C211.886 336.491 213.614 335.584 215.939 335.584ZM226.322 343.52V340.832H238.002V343.52H226.322ZM255.751 336H258.535V358.4H255.751V349.248C254.364 351.36 252.348 352.416 249.703 352.416C247.463 352.416 245.553 351.605 243.975 349.984C242.396 348.341 241.607 346.347 241.607 344C241.607 341.653 242.396 339.669 243.975 338.048C245.553 336.405 247.463 335.584 249.703 335.584C252.348 335.584 254.364 336.64 255.751 338.752V336ZM250.055 349.728C251.676 349.728 253.031 349.184 254.119 348.096C255.207 346.987 255.751 345.621 255.751 344C255.751 342.379 255.207 341.024 254.119 339.936C253.031 338.827 251.676 338.272 250.055 338.272C248.455 338.272 247.111 338.827 246.023 339.936C244.935 341.024 244.391 342.379 244.391 344C244.391 345.621 244.935 346.987 246.023 348.096C247.111 349.184 248.455 349.728 250.055 349.728ZM273.793 336H276.577V352H273.793V349.696C272.662 351.509 270.934 352.416 268.609 352.416C266.731 352.416 265.227 351.829 264.097 350.656C262.966 349.461 262.401 347.851 262.401 345.824V336H265.185V345.664C265.185 346.965 265.537 347.979 266.241 348.704C266.945 349.408 267.915 349.76 269.153 349.76C270.539 349.76 271.659 349.333 272.513 348.48C273.366 347.605 273.793 346.272 273.793 344.48V336ZM294.063 336H296.847V352H294.063V349.248C292.676 351.36 290.66 352.416 288.015 352.416C285.775 352.416 283.866 351.605 282.287 349.984C280.708 348.341 279.919 346.347 279.919 344C279.919 341.653 280.708 339.669 282.287 338.048C283.866 336.405 285.775 335.584 288.015 335.584C290.66 335.584 292.676 336.64 294.063 338.752V336ZM288.367 349.728C289.988 349.728 291.343 349.184 292.431 348.096C293.519 346.987 294.063 345.621 294.063 344C294.063 342.379 293.519 341.024 292.431 339.936C291.343 338.827 289.988 338.272 288.367 338.272C286.767 338.272 285.423 338.827 284.335 339.936C283.247 341.024 282.703 342.379 282.703 344C282.703 345.621 283.247 346.987 284.335 348.096C285.423 349.184 286.767 349.728 288.367 349.728ZM301.065 352V328.64H303.849V352H301.065ZM309.504 333.088C308.971 333.088 308.523 332.907 308.16 332.544C307.798 332.181 307.616 331.744 307.616 331.232C307.616 330.72 307.798 330.283 308.16 329.92C308.523 329.536 308.971 329.344 309.504 329.344C310.016 329.344 310.454 329.536 310.816 329.92C311.179 330.283 311.36 330.72 311.36 331.232C311.36 331.744 311.179 332.181 310.816 332.544C310.454 332.907 310.016 333.088 309.504 333.088ZM308.096 352V336H310.88V352H308.096ZM323.832 338.688H319.576V347.36C319.576 348.149 319.725 348.715 320.024 349.056C320.344 349.376 320.824 349.547 321.464 349.568C322.104 349.568 322.893 349.547 323.832 349.504V352C321.4 352.32 319.618 352.128 318.488 351.424C317.357 350.699 316.792 349.344 316.792 347.36V338.688H313.624V336H316.792V332.352L319.576 331.52V336H323.832V338.688ZM338.639 336H341.615L335.087 352.992C334.405 354.805 333.445 356.181 332.207 357.12C330.991 358.08 329.583 358.507 327.983 358.4V355.808C329.946 355.957 331.386 354.869 332.303 352.544L332.591 351.936L325.615 336H328.591L334.031 348.544L338.639 336ZM345.194 348.704L343.114 356.48H340.714L341.994 348.704H345.194ZM112.189 374.584C114.067 374.584 115.571 375.181 116.701 376.376C117.832 377.549 118.397 379.149 118.397 381.176V391H115.613V381.336C115.613 380.035 115.261 379.032 114.557 378.328C113.853 377.603 112.883 377.24 111.645 377.24C110.259 377.24 109.139 377.677 108.285 378.552C107.432 379.405 107.005 380.728 107.005 382.52V391H104.221V368.6H107.005V377.304C108.136 375.491 109.864 374.584 112.189 374.584ZM135.532 375H138.316V391H135.532V388.248C134.145 390.36 132.129 391.416 129.484 391.416C127.244 391.416 125.335 390.605 123.756 388.984C122.177 387.341 121.388 385.347 121.388 383C121.388 380.653 122.177 378.669 123.756 377.048C125.335 375.405 127.244 374.584 129.484 374.584C132.129 374.584 134.145 375.64 135.532 377.752V375ZM129.836 388.728C131.457 388.728 132.812 388.184 133.9 387.096C134.988 385.987 135.532 384.621 135.532 383C135.532 381.379 134.988 380.024 133.9 378.936C132.812 377.827 131.457 377.272 129.836 377.272C128.236 377.272 126.892 377.827 125.804 378.936C124.716 380.024 124.172 381.379 124.172 383C124.172 384.621 124.716 385.987 125.804 387.096C126.892 388.184 128.236 388.728 129.836 388.728ZM150.502 374.584C152.379 374.584 153.883 375.181 155.014 376.376C156.145 377.549 156.71 379.149 156.71 381.176V391H153.926V381.336C153.926 380.035 153.574 379.032 152.87 378.328C152.166 377.603 151.195 377.24 149.958 377.24C148.571 377.24 147.451 377.677 146.598 378.552C145.745 379.405 145.318 380.728 145.318 382.52V391H142.534V375H145.318V377.304C146.449 375.491 148.177 374.584 150.502 374.584ZM173.844 368.6H176.628V391H173.844V388.248C172.458 390.36 170.442 391.416 167.796 391.416C165.556 391.416 163.647 390.605 162.068 388.984C160.49 387.341 159.7 385.347 159.7 383C159.7 380.653 160.49 378.669 162.068 377.048C163.647 375.405 165.556 374.584 167.796 374.584C170.442 374.584 172.458 375.64 173.844 377.752V368.6ZM168.148 388.728C169.77 388.728 171.124 388.184 172.212 387.096C173.3 385.987 173.844 384.621 173.844 383C173.844 381.379 173.3 380.024 172.212 378.936C171.124 377.827 169.77 377.272 168.148 377.272C166.548 377.272 165.204 377.827 164.116 378.936C163.028 380.024 162.484 381.379 162.484 383C162.484 384.621 163.028 385.987 164.116 387.096C165.204 388.184 166.548 388.728 168.148 388.728ZM189.678 374.584C191.918 374.584 193.828 375.405 195.406 377.048C196.985 378.669 197.774 380.653 197.774 383C197.774 385.347 196.985 387.341 195.406 388.984C193.828 390.605 191.918 391.416 189.678 391.416C187.033 391.416 185.017 390.36 183.63 388.248V397.4H180.846V375H183.63V377.752C185.017 375.64 187.033 374.584 189.678 374.584ZM189.326 388.728C190.926 388.728 192.27 388.184 193.358 387.096C194.446 385.987 194.99 384.621 194.99 383C194.99 381.379 194.446 380.024 193.358 378.936C192.27 377.827 190.926 377.272 189.326 377.272C187.705 377.272 186.35 377.827 185.262 378.936C184.174 380.024 183.63 381.379 183.63 383C183.63 384.621 184.174 385.987 185.262 387.096C186.35 388.184 187.705 388.728 189.326 388.728ZM202.504 372.088C201.971 372.088 201.523 371.907 201.16 371.544C200.798 371.181 200.616 370.744 200.616 370.232C200.616 369.72 200.798 369.283 201.16 368.92C201.523 368.536 201.971 368.344 202.504 368.344C203.016 368.344 203.454 368.536 203.816 368.92C204.179 369.283 204.36 369.72 204.36 370.232C204.36 370.744 204.179 371.181 203.816 371.544C203.454 371.907 203.016 372.088 202.504 372.088ZM201.096 391V375H203.88V391H201.096ZM215.648 391.416C213.237 391.416 211.232 390.616 209.632 389.016C208.032 387.395 207.232 385.389 207.232 383C207.232 380.611 208.032 378.616 209.632 377.016C211.232 375.395 213.237 374.584 215.648 374.584C217.226 374.584 218.645 374.968 219.904 375.736C221.162 376.483 222.101 377.496 222.72 378.776L220.384 380.12C219.978 379.267 219.349 378.584 218.496 378.072C217.664 377.56 216.714 377.304 215.648 377.304C214.048 377.304 212.704 377.848 211.616 378.936C210.549 380.024 210.016 381.379 210.016 383C210.016 384.6 210.549 385.944 211.616 387.032C212.704 388.12 214.048 388.664 215.648 388.664C216.714 388.664 217.674 388.419 218.528 387.928C219.381 387.416 220.032 386.733 220.48 385.88L222.848 387.256C222.165 388.515 221.184 389.528 219.904 390.296C218.624 391.043 217.205 391.416 215.648 391.416ZM239.132 391H235.676L228.38 383.416V391H225.596V368.6H228.38V382.072L235.292 375H238.876L231.228 382.744L239.132 391ZM242.205 384.28C242.482 385.709 243.133 386.819 244.157 387.608C245.202 388.397 246.482 388.792 247.997 388.792C250.109 388.792 251.645 388.013 252.605 386.456L254.973 387.8C253.415 390.211 251.069 391.416 247.933 391.416C245.394 391.416 243.325 390.627 241.725 389.048C240.146 387.448 239.357 385.432 239.357 383C239.357 380.589 240.135 378.584 241.693 376.984C243.25 375.384 245.266 374.584 247.741 374.584C250.087 374.584 251.997 375.416 253.469 377.08C254.962 378.723 255.709 380.707 255.709 383.032C255.709 383.437 255.677 383.853 255.613 384.28H242.205ZM247.741 377.208C246.247 377.208 245.01 377.635 244.029 378.488C243.047 379.32 242.439 380.44 242.205 381.848H252.893C252.658 380.333 252.061 379.181 251.101 378.392C250.141 377.603 249.021 377.208 247.741 377.208ZM272.126 368.6H274.91V391H272.126V388.248C270.739 390.36 268.723 391.416 266.078 391.416C263.838 391.416 261.928 390.605 260.35 388.984C258.771 387.341 257.982 385.347 257.982 383C257.982 380.653 258.771 378.669 260.35 377.048C261.928 375.405 263.838 374.584 266.078 374.584C268.723 374.584 270.739 375.64 272.126 377.752V368.6ZM266.43 388.728C268.051 388.728 269.406 388.184 270.494 387.096C271.582 385.987 272.126 384.621 272.126 383C272.126 381.379 271.582 380.024 270.494 378.936C269.406 377.827 268.051 377.272 266.43 377.272C264.83 377.272 263.486 377.827 262.398 378.936C261.31 380.024 260.766 381.379 260.766 383C260.766 384.621 261.31 385.987 262.398 387.096C263.486 388.184 264.83 388.728 266.43 388.728ZM298.328 375H301.336L294.936 391H291.672L285.272 375H288.28L293.304 388.024L298.328 375ZM305.017 384.28C305.294 385.709 305.945 386.819 306.969 387.608C308.014 388.397 309.294 388.792 310.809 388.792C312.921 388.792 314.457 388.013 315.417 386.456L317.785 387.8C316.228 390.211 313.881 391.416 310.745 391.416C308.206 391.416 306.137 390.627 304.537 389.048C302.958 387.448 302.169 385.432 302.169 383C302.169 380.589 302.948 378.584 304.505 376.984C306.062 375.384 308.078 374.584 310.553 374.584C312.9 374.584 314.809 375.416 316.281 377.08C317.774 378.723 318.521 380.707 318.521 383.032C318.521 383.437 318.489 383.853 318.425 384.28H305.017ZM310.553 377.208C309.06 377.208 307.822 377.635 306.841 378.488C305.86 379.32 305.252 380.44 305.017 381.848H315.705C315.47 380.333 314.873 379.181 313.913 378.392C312.953 377.603 311.833 377.208 310.553 377.208ZM329.689 374.584C331.567 374.584 333.071 375.181 334.201 376.376C335.332 377.549 335.897 379.149 335.897 381.176V391H333.113V381.336C333.113 380.035 332.761 379.032 332.057 378.328C331.353 377.603 330.383 377.24 329.145 377.24C327.759 377.24 326.639 377.677 325.785 378.552C324.932 379.405 324.505 380.728 324.505 382.52V391H321.721V368.6H324.505V377.304C325.636 375.491 327.364 374.584 329.689 374.584ZM341.192 372.088C340.659 372.088 340.211 371.907 339.848 371.544C339.485 371.181 339.304 370.744 339.304 370.232C339.304 369.72 339.485 369.283 339.848 368.92C340.211 368.536 340.659 368.344 341.192 368.344C341.704 368.344 342.141 368.536 342.504 368.92C342.867 369.283 343.048 369.72 343.048 370.232C343.048 370.744 342.867 371.181 342.504 371.544C342.141 371.907 341.704 372.088 341.192 372.088ZM339.784 391V375H342.568V391H339.784ZM354.335 391.416C351.924 391.416 349.919 390.616 348.319 389.016C346.719 387.395 345.919 385.389 345.919 383C345.919 380.611 346.719 378.616 348.319 377.016C349.919 375.395 351.924 374.584 354.335 374.584C355.914 374.584 357.332 374.968 358.591 375.736C359.85 376.483 360.788 377.496 361.407 378.776L359.071 380.12C358.666 379.267 358.036 378.584 357.183 378.072C356.351 377.56 355.402 377.304 354.335 377.304C352.735 377.304 351.391 377.848 350.303 378.936C349.236 380.024 348.703 381.379 348.703 383C348.703 384.6 349.236 385.944 350.303 387.032C351.391 388.12 352.735 388.664 354.335 388.664C355.402 388.664 356.362 388.419 357.215 387.928C358.068 387.416 358.719 386.733 359.167 385.88L361.535 387.256C360.852 388.515 359.871 389.528 358.591 390.296C357.311 391.043 355.892 391.416 354.335 391.416ZM364.284 391V367.64H367.068V391H364.284ZM373.267 384.28C373.544 385.709 374.195 386.819 375.219 387.608C376.264 388.397 377.544 388.792 379.059 388.792C381.171 388.792 382.707 388.013 383.667 386.456L386.035 387.8C384.478 390.211 382.131 391.416 378.995 391.416C376.456 391.416 374.387 390.627 372.787 389.048C371.208 387.448 370.419 385.432 370.419 383C370.419 380.589 371.198 378.584 372.755 376.984C374.312 375.384 376.328 374.584 378.803 374.584C381.15 374.584 383.059 375.416 384.531 377.08C386.024 378.723 386.771 380.707 386.771 383.032C386.771 383.437 386.739 383.853 386.675 384.28H373.267ZM378.803 377.208C377.31 377.208 376.072 377.635 375.091 378.488C374.11 379.32 373.502 380.44 373.267 381.848H383.955C383.72 380.333 383.123 379.181 382.163 378.392C381.203 377.603 380.083 377.208 378.803 377.208ZM391.746 379.32C391.746 379.939 392.056 380.44 392.674 380.824C393.293 381.187 394.04 381.485 394.914 381.72C395.789 381.933 396.664 382.189 397.538 382.488C398.413 382.765 399.16 383.256 399.778 383.96C400.397 384.643 400.706 385.528 400.706 386.616C400.706 388.067 400.141 389.229 399.01 390.104C397.901 390.979 396.472 391.416 394.722 391.416C393.165 391.416 391.832 391.075 390.722 390.392C389.613 389.709 388.824 388.803 388.354 387.672L390.754 386.296C391.01 387.064 391.49 387.672 392.194 388.12C392.898 388.568 393.741 388.792 394.722 388.792C395.64 388.792 396.397 388.621 396.994 388.28C397.592 387.917 397.89 387.363 397.89 386.616C397.89 385.997 397.581 385.507 396.962 385.144C396.344 384.76 395.597 384.461 394.722 384.248C393.848 384.013 392.973 383.747 392.098 383.448C391.224 383.149 390.477 382.659 389.858 381.976C389.24 381.293 388.93 380.419 388.93 379.352C388.93 377.965 389.464 376.824 390.53 375.928C391.618 375.032 392.973 374.584 394.594 374.584C395.896 374.584 397.048 374.883 398.05 375.48C399.074 376.056 399.842 376.867 400.354 377.912L398.018 379.224C397.442 377.859 396.301 377.176 394.594 377.176C393.805 377.176 393.133 377.368 392.578 377.752C392.024 378.115 391.746 378.637 391.746 379.32ZM199.016 414H201.8V430H199.016V427.248C197.63 429.36 195.614 430.416 192.968 430.416C190.728 430.416 188.819 429.605 187.24 427.984C185.662 426.341 184.872 424.347 184.872 422C184.872 419.653 185.662 417.669 187.24 416.048C188.819 414.405 190.728 413.584 192.968 413.584C195.614 413.584 197.63 414.64 199.016 416.752V414ZM193.32 427.728C194.942 427.728 196.296 427.184 197.384 426.096C198.472 424.987 199.016 423.621 199.016 422C199.016 420.379 198.472 419.024 197.384 417.936C196.296 416.827 194.942 416.272 193.32 416.272C191.72 416.272 190.376 416.827 189.288 417.936C188.2 419.024 187.656 420.379 187.656 422C187.656 423.621 188.2 424.987 189.288 426.096C190.376 427.184 191.72 427.728 193.32 427.728ZM217.218 414H220.226L213.826 430H210.562L204.162 414H207.17L212.194 427.024L217.218 414ZM235.204 414H237.988V430H235.204V427.248C233.817 429.36 231.801 430.416 229.156 430.416C226.916 430.416 225.006 429.605 223.428 427.984C221.849 426.341 221.06 424.347 221.06 422C221.06 419.653 221.849 417.669 223.428 416.048C225.006 414.405 226.916 413.584 229.156 413.584C231.801 413.584 233.817 414.64 235.204 416.752V414ZM229.508 427.728C231.129 427.728 232.484 427.184 233.572 426.096C234.66 424.987 235.204 423.621 235.204 422C235.204 420.379 234.66 419.024 233.572 417.936C232.484 416.827 231.129 416.272 229.508 416.272C227.908 416.272 226.564 416.827 225.476 417.936C224.388 419.024 223.844 420.379 223.844 422C223.844 423.621 224.388 424.987 225.476 426.096C226.564 427.184 227.908 427.728 229.508 427.728ZM243.614 411.088C243.08 411.088 242.632 410.907 242.27 410.544C241.907 410.181 241.726 409.744 241.726 409.232C241.726 408.72 241.907 408.283 242.27 407.92C242.632 407.536 243.08 407.344 243.614 407.344C244.126 407.344 244.563 407.536 244.926 407.92C245.288 408.283 245.47 408.72 245.47 409.232C245.47 409.744 245.288 410.181 244.926 410.544C244.563 410.907 244.126 411.088 243.614 411.088ZM242.206 430V414H244.99V430H242.206ZM249.237 430V406.64H252.021V430H249.237ZM269.516 414H272.3V430H269.516V427.248C268.13 429.36 266.114 430.416 263.468 430.416C261.228 430.416 259.319 429.605 257.74 427.984C256.162 426.341 255.372 424.347 255.372 422C255.372 419.653 256.162 417.669 257.74 416.048C259.319 414.405 261.228 413.584 263.468 413.584C266.114 413.584 268.13 414.64 269.516 416.752V414ZM263.82 427.728C265.442 427.728 266.796 427.184 267.884 426.096C268.972 424.987 269.516 423.621 269.516 422C269.516 420.379 268.972 419.024 267.884 417.936C266.796 416.827 265.442 416.272 263.82 416.272C262.22 416.272 260.876 416.827 259.788 417.936C258.7 419.024 258.156 420.379 258.156 422C258.156 423.621 258.7 424.987 259.788 426.096C260.876 427.184 262.22 427.728 263.82 427.728ZM285.35 413.584C287.59 413.584 289.5 414.405 291.078 416.048C292.657 417.669 293.446 419.653 293.446 422C293.446 424.347 292.657 426.341 291.078 427.984C289.5 429.605 287.59 430.416 285.35 430.416C282.705 430.416 280.689 429.36 279.302 427.248V430H276.518V407.6H279.302V416.752C280.689 414.64 282.705 413.584 285.35 413.584ZM284.998 427.728C286.598 427.728 287.942 427.184 289.03 426.096C290.118 424.987 290.662 423.621 290.662 422C290.662 420.379 290.118 419.024 289.03 417.936C287.942 416.827 286.598 416.272 284.998 416.272C283.377 416.272 282.022 416.827 280.934 417.936C279.846 419.024 279.302 420.379 279.302 422C279.302 423.621 279.846 424.987 280.934 426.096C282.022 427.184 283.377 427.728 284.998 427.728ZM296.768 430V406.64H299.552V430H296.768ZM305.752 423.28C306.029 424.709 306.68 425.819 307.704 426.608C308.749 427.397 310.029 427.792 311.544 427.792C313.656 427.792 315.192 427.013 316.152 425.456L318.52 426.8C316.962 429.211 314.616 430.416 311.48 430.416C308.941 430.416 306.872 429.627 305.272 428.048C303.693 426.448 302.904 424.432 302.904 422C302.904 419.589 303.682 417.584 305.24 415.984C306.797 414.384 308.813 413.584 311.288 413.584C313.634 413.584 315.544 414.416 317.016 416.08C318.509 417.723 319.256 419.707 319.256 422.032C319.256 422.437 319.224 422.853 319.16 423.28H305.752ZM311.288 416.208C309.794 416.208 308.557 416.635 307.576 417.488C306.594 418.32 305.986 419.44 305.752 420.848H316.44C316.205 419.333 315.608 418.181 314.648 417.392C313.688 416.603 312.568 416.208 311.288 416.208Z" fill="#1F1F1F"/>
<g style="mix-blend-mode:multiply">
<path d="M273.567 67.5122L319.767 250.242C319.767 250.242 180.447 293.607 106.977 297.267L94.7073 133.197L273.567 67.5122Z" fill="#E6E6E6"/>
</g>
<path d="M111.897 262.962C164.217 274.647 323.397 236.127 323.397 236.127L296.113 37.3018C247.063 43.0018 161.353 60.6718 90.6426 71.4868L92.8926 90.6718L111.897 262.962Z" fill="#FF725E"/>
<path d="M257.262 47.4871L261.267 33.8071C261.267 33.8071 261.342 33.8071 261.372 33.8071C262.332 34.0921 262.872 35.0521 262.602 35.9821H262.632L259.107 48.0271L257.247 47.4721L257.262 47.4871Z" fill="black"/>
<path d="M255.643 47.0068L259.168 34.9768C259.423 34.0918 260.353 33.5968 261.268 33.8068L257.263 47.4868L255.643 47.0068Z" fill="#333333"/>
<path d="M226.918 28.6769C227.998 28.9919 228.628 30.1019 228.313 31.1519H228.358L219.358 61.8869L209.773 94.6019C206.893 104.442 212.818 114.882 222.988 117.852C233.158 120.837 243.778 115.242 246.658 105.402L257.353 68.8919L265.243 41.9669H265.273L270.793 23.1419C273.103 15.2969 268.363 6.98694 260.263 4.61694C252.163 2.24694 243.702 6.68694 241.408 14.5319L235.888 33.3719H235.858L227.083 63.3119L225.358 62.8319L240.118 12.4169C246.433 -1.15806 259.243 2.36694 259.243 2.36694C275.398 6.37194 273.283 21.6569 273.283 21.6569L259.333 69.2669L248.353 106.737C241.138 123.882 223.708 120.072 223.708 120.072C201.823 112.527 207.988 92.8019 207.988 92.8019L217.153 61.5119L226.768 28.6919C226.768 28.6919 226.843 28.6919 226.888 28.6919L226.918 28.6769Z" fill="black"/>
<path d="M226.797 28.662L217.183 61.482L208.018 92.772C208.018 92.772 201.853 112.497 223.738 120.042C223.738 120.042 241.167 123.852 248.382 106.707L259.363 69.237L273.312 21.627C273.312 21.627 275.412 6.34196 259.272 2.33696C259.272 2.33696 246.462 -1.17304 240.147 12.387L225.387 62.802L222.837 62.052L231.942 32.172H232.003L237.522 13.362C240.432 3.43196 251.157 -2.19304 261.402 0.806961C271.677 3.80696 277.648 14.337 274.738 24.267L269.217 43.092L261.448 69.612L250.632 106.542C247.137 118.497 234.238 125.277 221.893 121.662C209.548 118.047 202.347 105.372 205.857 93.417L215.323 61.107L224.442 29.967C224.742 28.962 225.792 28.392 226.842 28.632L226.797 28.662Z" fill="#333333"/>
<path d="M262.678 42.0121L223.888 48.5221L220.723 64.5121L259.963 58.9021C259.963 58.9021 259.963 56.5021 259.963 55.8421C259.963 55.1821 262.678 41.9971 262.678 41.9971" fill="#FF725E"/>
<path d="M192.084 194.359C186.581 195.337 181.884 194.027 177.995 190.428C174.139 186.78 171.595 181.49 170.363 174.559C169.131 167.627 169.7 161.806 172.069 157.095C174.473 152.334 178.426 149.464 183.929 148.486C189.474 147.5 194.175 148.831 198.03 152.48C201.878 156.086 204.418 161.354 205.65 168.286C206.882 175.217 206.317 181.06 203.956 185.813C201.586 190.524 197.629 193.373 192.084 194.359ZM183.243 183.385C185.188 185.552 187.631 186.375 190.572 185.852C193.512 185.329 195.519 183.694 196.59 180.947C197.704 178.192 197.846 174.483 197.017 169.82C196.181 165.116 194.765 161.662 192.771 159.46C190.818 157.25 188.371 156.407 185.43 156.929C182.49 157.452 180.484 159.087 179.412 161.835C178.34 164.582 178.223 168.308 179.059 173.013C179.895 177.718 181.29 181.175 183.243 183.385ZM212.362 189.844L211.209 183.354L223.513 165.175C226.246 161.049 227.404 157.81 226.986 155.458C226.679 153.735 225.887 152.446 224.608 151.59C223.371 150.727 221.913 150.444 220.232 150.743C216.914 151.333 214.762 153.492 213.778 157.22L205.707 154.235C206.556 150.964 208.14 148.299 210.461 146.239C212.782 144.18 215.497 142.874 218.605 142.322C222.596 141.612 226.244 142.264 229.548 144.276C232.845 146.247 234.871 149.354 235.625 153.597C236.439 158.176 234.86 163.31 230.888 169L223.79 179.167L240.362 176.221L241.852 184.601L212.362 189.844Z" fill="white"/>
<defs>
<filter id="filter0_d_1797_5140" x="0.822266" y="26.7271" width="501.765" height="544.275" filterUnits="userSpaceOnUse" color-interpolation-filters="sRGB">
<feFlood flood-opacity="0" result="BackgroundImageFix"/>
<feColorMatrix in="SourceAlpha" type="matrix" values="0 0 0 0 0 0 0 0 0 0 0 0 0 0 0 0 0 0 127 0" result="hardAlpha"/>
<feOffset dy="3"/>
<feGaussianBlur stdDeviation="12"/>
<feComposite in2="hardAlpha" operator="out"/>
<feColorMatrix type="matrix" values="0 0 0 0 0 0 0 0 0 0 0 0 0 0 0 0 0 0 0.08 0"/>
<feBlend mode="normal" in2="BackgroundImageFix" result="effect1_dropShadow_1797_5140"/>
<feBlend mode="normal" in="SourceGraphic" in2="effect1_dropShadow_1797_5140" result="shape"/>
</filter>
</defs>
</svg>
