<svg width="244" height="84" viewBox="0 0 244 84" fill="none" xmlns="http://www.w3.org/2000/svg">
<path opacity="0.2" d="M174.901 79.6742C174.9 83.693 175.672 87.622 177.118 90.9643C178.564 94.3066 180.62 96.912 183.026 98.451C185.432 99.9901 188.08 100.394 190.635 99.6106C193.19 98.8276 195.536 96.8932 197.378 94.052C199.221 91.2109 200.475 87.5906 200.984 83.6492C201.492 79.7077 201.232 75.6221 200.235 71.909C199.239 68.196 197.551 65.0224 195.385 62.7895C193.22 60.5566 190.674 59.3648 188.069 59.3648C184.579 59.3691 181.232 61.51 178.763 65.3175C176.294 69.1251 174.906 74.2884 174.901 79.6742ZM40.6761 59.3648C43.2792 59.3664 45.8235 60.5589 47.9874 62.7915C50.1512 65.0241 51.8375 68.1966 52.8329 71.9078C53.8284 75.619 54.0883 79.7023 53.5798 83.6414C53.0713 87.5805 51.8173 91.1985 49.9762 94.038C48.1352 96.8775 45.7899 98.811 43.2367 99.594C40.6836 100.377 38.0373 99.9743 35.6325 98.4369C33.2276 96.8995 31.1722 94.2963 29.7261 90.9567C28.2801 87.617 27.5082 83.6907 27.5082 79.6742C27.5124 74.2898 28.9006 69.1278 31.3681 65.3204C33.8356 61.5131 37.1811 59.3713 40.6708 59.3648H40.6761ZM0 0.818599H35.6785L28.4579 41.1591L77.2671 0H107.699L108.367 28.389L125.344 40.4715L131.573 28.6509H139.86L141.536 41.7485C214.516 31.1067 243.722 65.627 243.722 65.627C243.722 65.627 239.733 69.72 229.966 72.4951C227.907 75.2047 228.024 84.3157 228.024 84.3157H240.863V97.4132H213.275V74.9181C212.299 74.9754 210.914 75.2538 209.529 75.3029C209.12 70.5123 208.041 65.9159 206.369 61.8308C204.696 57.7457 202.469 54.269 199.841 51.6408C197.213 49.0125 194.247 47.2951 191.147 46.6071C188.047 45.9192 184.888 46.277 181.886 47.6558C178.885 49.0347 176.113 51.4018 173.762 54.5939C171.411 57.786 169.536 61.727 168.268 66.1452C167 70.5633 166.368 75.3534 166.416 80.1849C166.464 85.0164 167.19 89.7744 168.546 94.1306H60.1892C61.5942 89.6082 62.3213 84.6556 62.3166 79.6404C62.3118 74.6251 61.5752 69.6759 60.1616 65.1599C58.7479 60.6438 56.6933 56.6768 54.1503 53.5532C51.6074 50.4296 48.6412 48.2294 45.4719 47.1161C42.3026 46.0027 39.0116 46.0047 35.8428 47.1218C32.6741 48.2389 29.709 50.4425 27.1676 53.5691C24.6262 56.6958 22.5736 60.6652 21.1622 65.1829C19.7507 69.7006 19.0166 74.6507 19.0144 79.666C19.0144 80.6811 19.0462 81.6798 19.1046 82.6703H0.00530547L0 0.818599Z" fill="white"/>
</svg>
