<svg width="420" height="260" viewBox="0 0 420 260" fill="none" xmlns="http://www.w3.org/2000/svg">
<g clip-path="url(#clip0_1692_12949)">
<path opacity="0.62" d="M397.009 138.885C392.337 146.56 390.489 155.619 391.783 164.505C396.753 198.803 382.593 232.98 356.214 252.212C353.467 254.216 350.598 256.047 347.623 257.695H261.848C259.941 257.588 258.03 257.588 256.123 257.695H57.136C54.3525 256.015 51.6632 254.185 49.0801 252.212C16.8452 227.584 1.89728 181.621 16.8179 139.067C21.3092 126.126 28.4896 114.277 37.8889 104.296C45.9292 95.7409 51.7106 85.3251 54.7125 73.9863L54.7642 73.7986C68.668 22.4181 118.801 -7.16013 166.752 7.72828C171.842 9.30888 176.777 11.3518 181.493 13.8316C187.204 16.8544 193.563 18.453 200.027 18.4909C206.492 18.5288 212.87 17.0048 218.616 14.0491C223.633 11.4915 228.907 9.4678 234.349 8.01115C246.193 4.82131 258.627 4.48102 270.629 7.01835C280.43 9.08841 290.618 8.34629 300.013 4.87787L300.664 4.64123C344.466 -11.0387 391.84 14.2994 406.474 61.2302C410.506 74.1034 411.748 87.685 410.116 101.073C408.484 114.462 404.016 127.351 397.009 138.885Z" fill="#DEDFE0"/>
<path d="M352.434 220.836C350.932 220.749 349.653 220.608 348.718 220.515C347.677 220.412 347.061 220.368 347.039 220.515L349.089 250.458L349.362 254.293H236.741L236.921 250.458L238.317 220.714C238.316 220.698 238.312 220.682 238.304 220.667C238.297 220.653 238.286 220.64 238.273 220.63C237.243 220.221 236.168 219.935 235.07 219.778C228.254 218.201 213.088 213.558 213.805 191.895C213.918 177.73 215.217 163.599 217.69 149.65C217.872 148.78 218.064 147.92 218.265 147.072C218.328 146.8 218.391 146.544 218.456 146.283C218.613 145.641 218.776 145.006 218.947 144.379C219.092 143.835 219.242 143.302 219.394 142.78C219.547 142.257 219.705 141.733 219.869 141.208V141.186C219.97 140.87 220.071 140.552 220.174 140.239C220.278 139.927 220.373 139.638 220.474 139.342C222.325 133.168 225.412 127.434 229.547 122.483C233.682 117.533 238.78 113.471 244.533 110.541C245.45 110.063 246.396 109.602 247.371 109.16C257.885 104.759 269.079 102.191 280.465 101.569C286.19 101.095 292.43 100.87 299.213 100.897C302.759 100.909 306.135 101.006 309.341 101.185H309.357C320.068 101.732 330.623 103.976 340.627 107.835C344.81 109.41 348.775 111.512 352.423 114.091C361.285 120.425 367.65 129.649 370.416 140.169C370.672 141.01 370.918 141.863 371.152 142.728C371.536 144.137 371.892 145.577 372.221 147.05C372.412 147.904 372.594 148.768 372.766 149.642C375.152 161.402 376.22 174.95 377.712 189.895C380.708 219.808 362.009 221.397 352.434 220.836Z" fill="#D85745"/>
<path d="M264.984 175.872C264.984 175.872 260.923 166.935 257.332 165.145C253.742 163.355 242.85 156.654 240.042 157.695C237.632 158.59 239.191 160.972 239.191 160.972C239.191 160.972 231.538 157.695 230.312 160.078C229.15 162.333 232.956 164.399 232.956 164.399C232.956 164.399 231.214 163.755 230.383 165.939C229.551 168.123 236.167 171.7 236.167 171.7C236.167 171.7 234.016 171.725 233.523 172.595C232.247 174.831 239.949 178.059 239.949 178.059L264.984 175.872Z" fill="#F9BB85"/>
<path d="M288.027 203.629L286.885 216.995L264.982 211.726L288.027 203.629Z" fill="#F9BB85"/>
<path d="M238.686 178.114L238.642 177.356L314.159 172.602L314.203 173.361L238.686 178.114Z" fill="#AF4839"/>
<path d="M245.57 219.167L245.339 218.447L318.494 192.391L318.726 193.111L245.57 219.167Z" fill="#AF4839"/>
<path d="M286.876 217.206L286.841 217.953L347.212 220.781L347.247 220.034L286.876 217.206Z" fill="#AF4839"/>
<path d="M313.874 172.98C313.874 172.98 326.799 173.571 332.399 173.987C339.233 174.496 345.041 175.755 345.924 175.489C346.497 178.29 347.014 187.415 347.014 187.415C347.014 187.415 344.561 189.346 325.368 191.84C321.298 192.371 318.53 192.749 318.53 192.749L313.874 172.98Z" fill="#F9BB85"/>
<path d="M255.831 170.863C255.814 170.847 254.154 169.231 251.872 167.398C247.915 165.075 243.8 163.03 239.558 161.278L239.801 160.652C244.099 162.42 248.264 164.495 252.262 166.862C254.571 168.711 256.253 170.354 256.269 170.371L255.831 170.863Z" fill="#E19873"/>
<path d="M251.63 173.773C249.97 172.132 248.177 170.629 246.268 169.282C241.893 167.513 237.421 165.993 232.874 164.727L233.046 164.074C237.648 165.348 242.171 166.891 246.59 168.698C248.544 170.066 250.377 171.598 252.07 173.278L251.63 173.773Z" fill="#E19873"/>
<path d="M246.454 176.467C246.432 176.451 244.224 174.71 243.128 173.785C241.058 172.865 238.874 172.225 236.634 171.882L236.749 171.215C239.093 171.581 241.376 172.269 243.532 173.26C244.622 174.177 246.823 175.913 246.842 175.929L246.454 176.467Z" fill="#E19873"/>
<path d="M346.705 187.638L344.346 160.181L345.066 160.113L347.424 187.571L346.705 187.638Z" fill="#AF4839"/>
<path d="M309.517 99.9151V76.5078H281.232V99.5505C281.218 99.6096 281.21 99.6698 281.207 99.7302C281.207 118.549 309.893 117.059 309.517 99.9151Z" fill="#F9BB85"/>
<path d="M324.184 52.8596C324.184 72.2901 313.617 95.8957 295.708 95.8793C276.712 95.863 267.232 72.2901 267.232 52.8596C267.232 33.429 279.983 17.6758 295.708 17.6758C311.433 17.6758 324.184 33.4236 324.184 52.8596Z" fill="#F9BB85"/>
<path d="M295.704 95.4783C292.034 95.3969 288.443 94.4 285.259 92.5788C283.73 91.7542 282.292 90.7724 280.968 89.6494L281.404 89.168C282.697 90.2597 284.1 91.216 285.589 92.0213C288.672 93.7842 292.148 94.7499 295.701 94.8309L295.704 95.4783Z" fill="#E19873"/>
<path d="M272.437 68.9402C275.562 67.918 276.77 63.0602 275.137 58.0901C273.503 53.12 269.646 49.9197 266.521 50.942C263.396 51.9642 262.188 56.822 263.821 61.7921C265.455 66.7622 269.312 69.9625 272.437 68.9402Z" fill="#F9BB85"/>
<path d="M328.678 61.6169C330.312 56.6469 329.103 51.7891 325.979 50.7668C322.854 49.7445 318.997 52.9448 317.363 57.9149C315.729 62.885 316.938 67.7428 320.063 68.7651C323.187 69.7874 327.045 66.587 328.678 61.6169Z" fill="#F9BB85"/>
<path d="M298.595 75.401C297.254 75.401 296.062 75.3085 295.986 75.3031L296.041 74.3512C297.534 74.4645 299.034 74.4645 300.528 74.3512C300.64 74.0792 300.849 72.6129 298.783 64.8993C297.619 60.5475 296.297 56.3482 296.283 56.3047L297.044 55.9727C297.044 56.0135 298.366 60.1751 299.53 64.5188C301.938 73.4945 301.397 74.5089 301.196 74.8897C301.146 74.9975 301.071 75.0908 300.975 75.1617C300.88 75.2325 300.768 75.2782 300.651 75.2948C299.968 75.3681 299.282 75.4036 298.595 75.401Z" fill="#160707"/>
<path d="M282.89 64.9572C284.274 64.9572 285.396 63.2573 285.396 61.1603C285.396 59.0632 284.274 57.3633 282.89 57.3633C281.506 57.3633 280.385 59.0632 280.385 61.1603C280.385 63.2573 281.506 64.9572 282.89 64.9572Z" fill="#160707"/>
<path d="M310.034 65.2541C311.418 65.2541 312.54 63.5541 312.54 61.4571C312.54 59.3601 311.418 57.6602 310.034 57.6602C308.651 57.6602 307.529 59.3601 307.529 61.4571C307.529 63.5541 308.651 65.2541 310.034 65.2541Z" fill="#160707"/>
<path d="M292.49 44.7784C292.157 44.7185 291.835 44.6533 291.53 44.5853L291.282 45.219C291.623 45.2951 291.977 45.3686 292.351 45.4366C296.065 46.1811 299.908 45.9866 303.529 44.8709L303.313 44.2344C299.807 45.3117 296.087 45.4987 292.49 44.7784Z" fill="#E19873"/>
<path d="M291.12 49.0119C290.706 48.9303 290.309 48.8469 289.929 48.7617L289.441 49.3982C289.861 49.4943 290.302 49.5849 290.763 49.6701C295.581 50.6462 300.545 50.6609 305.368 49.7136L305.256 49.0501C300.588 49.9662 295.784 49.9531 291.12 49.0119Z" fill="#E19873"/>
<path d="M283.659 32.7998L270.393 57.782L267.359 50.6587C266.65 44.7328 266.501 38.7536 266.911 32.7998C268.318 25.6628 271.778 20.2149 278.7 18.9855C285.622 17.7561 283.659 32.7998 283.659 32.7998Z" fill="#160707"/>
<path d="M313.641 48.0898C313.641 48.1237 313.655 48.1209 313.641 48.0898V48.0898Z" fill="#160707"/>
<path d="M326.681 38.9179C326.895 36.5339 326.32 34.1455 325.045 32.1181C325.031 32.0094 325.015 31.9032 325.001 31.7944C325.745 32.6089 326.257 33.6071 326.484 34.6856C326.485 34.5335 326.497 34.3816 326.522 34.2314C326.64 30.6301 325.331 27.1275 322.877 24.4834C322.307 23.3413 321.545 22.3047 320.626 21.418C315.649 16.5269 309.201 13.3996 302.272 12.5158C290.083 11.6454 286.236 13.5031 283.461 17.4116C279.644 22.7915 282.297 26.8932 283.028 30.527C283.313 31.9556 284.026 33.2644 285.072 34.2804C287.324 36.4821 290.044 38.1491 293.03 39.1573C295.315 39.9052 297.234 40.5851 300.097 41.2651C302.302 42.1545 304.955 43.1691 308.142 44.3577C312.526 45.9733 313.553 47.8309 313.662 48.0593C313.61 47.917 313.57 47.7707 313.542 47.6216C313.147 45.9545 312.315 44.4224 311.13 43.1827C318.027 44.4175 324.488 51.356 324.529 50.7821C325.154 46.1495 325.448 41.4785 325.41 36.8044C326.029 37.5408 326.452 38.4212 326.639 39.3639C326.642 39.2145 326.656 39.0654 326.681 38.9179Z" fill="#160707"/>
<path d="M273.14 58.043V58.7229C274.227 59.0193 275.267 59.4631 276.232 60.0421L276.379 59.4086C275.37 58.8033 274.279 58.3434 273.14 58.043Z" fill="#E19873"/>
<path d="M273.023 62.27L273.249 62.8576C274.226 62.3144 275.274 61.9105 276.363 61.6581L276.278 61C275.138 61.2654 274.041 61.693 273.023 62.27Z" fill="#E19873"/>
<path d="M319.34 58.8711V59.5511C318.254 59.8471 317.214 60.291 316.249 60.8702L316.101 60.2364C317.111 59.6322 318.202 59.1727 319.34 58.8711Z" fill="#E19873"/>
<path d="M319.45 63.0906L319.221 63.6783C318.245 63.1344 317.197 62.7305 316.108 62.4787L316.192 61.8203C317.333 62.0863 318.431 62.5141 319.45 63.0906Z" fill="#E19873"/>
<path d="M294.186 83.7033C293.776 83.595 293.379 83.4424 293.002 83.2487C291.441 82.3512 290.262 80.9162 289.687 79.2127L290.434 79.0547L290.137 79.1364L290.666 79.0603C290.86 79.7446 291.194 80.3809 291.648 80.9293C292.102 81.4776 292.665 81.9259 293.302 82.2454C294.24 82.6665 295.258 82.8842 296.287 82.8842C297.317 82.8842 298.334 82.6665 299.273 82.2454L299.474 83.2052C297.805 83.9111 295.958 84.0852 294.186 83.7033Z" fill="#160707"/>
<path d="M316.714 57.0874C313.325 55.7733 309.718 55.1079 306.082 55.1263L305.875 53.5977C308.056 53.4212 310.251 53.6189 312.366 54.1824C313.968 54.4929 315.525 55.0038 317 55.7028L316.714 57.0874Z" fill="#160707"/>
<path d="M276.956 55.6565C280.514 54.9064 284.181 54.8317 287.766 55.4362L288.222 53.9621C286.098 53.4354 283.9 53.2761 281.722 53.4914C280.086 53.5372 278.463 53.7894 276.891 54.2421L276.956 55.6565Z" fill="#160707"/>
<path d="M269.567 64.551C268.664 63.9527 267.893 63.1766 267.301 62.2707C266.709 61.3648 266.308 60.3482 266.124 59.2826C266.138 58.3743 266.372 57.4827 266.804 56.6835C267.237 55.8843 267.857 55.2012 268.61 54.6914L269.049 55.2353C268.382 55.6796 267.831 56.277 267.442 56.9774C267.054 57.6777 266.839 58.4606 266.816 59.2606C267.001 60.2171 267.374 61.1278 267.913 61.94C268.452 62.7522 269.146 63.4499 269.957 63.9932L269.567 64.551Z" fill="#E19873"/>
<path d="M322.686 65.4534C323.589 64.8552 324.36 64.0796 324.953 63.1737C325.545 62.2678 325.945 61.2506 326.129 60.1849C326.116 59.2768 325.883 58.3854 325.45 57.5862C325.018 56.787 324.399 56.1035 323.646 55.5938L323.207 56.1379C323.873 56.5825 324.424 57.1793 324.812 57.879C325.2 58.5788 325.416 59.3612 325.44 60.1607C325.255 61.117 324.882 62.0272 324.343 62.8394C323.804 63.6516 323.109 64.3497 322.299 64.8933L322.686 65.4534Z" fill="#E19873"/>
<path d="M269.573 60.6696C269.573 60.9579 269.583 61.2435 269.605 61.5263C269.605 61.7004 269.635 61.8744 269.657 62.0458C269.657 62.1437 269.682 62.2417 269.698 62.3396C270.115 65.0636 271.53 67.5362 273.67 69.2783C275.811 71.0204 278.522 71.9079 281.281 71.7687C284.039 71.6295 286.648 70.4736 288.601 68.525C290.554 66.5763 291.712 63.9738 291.852 61.2217H299.992C300.136 64.12 301.409 66.8473 303.541 68.8216C305.673 70.7959 308.494 71.8609 311.402 71.789C314.309 71.7171 317.074 70.5142 319.105 68.437C321.136 66.3598 322.273 63.5728 322.273 60.6709C322.273 57.769 321.136 54.982 319.105 52.9048C317.074 50.8276 314.309 49.6247 311.402 49.5528C308.494 49.4809 305.673 50.5459 303.541 52.5202C301.409 54.4945 300.136 57.2218 299.992 60.1201H291.852C291.723 57.5096 290.677 55.0277 288.898 53.1097C287.118 51.1916 284.718 49.9601 282.119 49.6313C279.52 49.3026 276.889 49.8975 274.686 51.3116C272.482 52.7258 270.849 54.8689 270.072 57.3649C269.906 57.8987 269.779 58.4443 269.695 58.9969C269.679 59.0948 269.665 59.1926 269.654 59.2906C269.633 59.4619 269.616 59.6359 269.602 59.81C269.582 60.0947 269.573 60.3813 269.573 60.6696ZM301.175 60.6696C301.173 59.1949 301.502 57.7386 302.137 56.4069C302.772 55.0752 303.697 53.9017 304.844 52.9724C305.06 52.7956 305.278 52.6297 305.51 52.4747C306.93 51.5009 308.582 50.9157 310.299 50.7774C310.572 50.753 310.845 50.7421 311.117 50.7421C313.735 50.7374 316.247 51.7672 318.105 53.606C318.342 53.8372 318.566 54.082 318.778 54.3349C319.133 54.7602 319.45 55.2152 319.727 55.6949C320.997 57.8851 321.383 60.4765 320.803 62.9402C320.223 65.4038 318.723 67.5539 316.608 68.9514L316.36 69.112C314.853 70.0427 313.125 70.5552 311.353 70.5966C309.581 70.6379 307.831 70.2065 306.282 69.347C304.733 68.4876 303.443 67.2311 302.543 65.7075C301.644 64.1839 301.169 62.4484 301.167 60.6804L301.175 60.6696ZM270.868 59.2715C271.209 56.864 272.427 54.6663 274.289 53.0975C274.501 52.9153 274.719 52.7439 274.948 52.5834C276.632 51.3825 278.651 50.7385 280.72 50.7421H281.08C282.132 50.7771 283.173 50.981 284.161 51.3458C286.034 52.0352 287.655 53.2708 288.814 54.8919C289.974 56.513 290.618 58.4446 290.663 60.4357C290.631 60.5069 290.615 60.5837 290.614 60.6614C290.614 60.7392 290.631 60.8159 290.663 60.887C290.642 61.8174 290.491 62.7404 290.213 63.6288L290.139 63.8572C289.406 65.9996 287.964 67.829 286.05 69.0439C284.456 70.055 282.606 70.591 280.718 70.5888C279.411 70.5895 278.117 70.3333 276.909 69.8346C275.702 69.3359 274.604 68.6045 273.68 67.6825C272.757 66.7605 272.024 65.6659 271.525 64.4611C271.025 63.2564 270.768 61.9652 270.769 60.6614C270.768 60.1964 270.801 59.7318 270.868 59.2715Z" fill="black"/>
<path d="M281.232 96.9219L294.242 113.655L286.249 120.876L278.441 101.116V96.9219H281.232Z" fill="#FF725E"/>
<path d="M309.488 96.9375L296.481 113.67L304.471 120.892L312.28 101.061V96.9375H309.488Z" fill="#FF725E"/>
<path d="M407.431 255.183C407.437 255.901 407.169 256.595 406.681 257.123C406.454 257.377 406.175 257.581 405.864 257.721C405.553 257.862 405.216 257.935 404.874 257.938H11.5588C10.8556 257.912 10.1915 257.609 9.71218 257.095C9.23282 256.581 8.97728 255.899 9.00159 255.197C8.99658 254.479 9.26446 253.786 9.75128 253.257C9.97902 253.003 10.2575 252.8 10.5687 252.659C10.8799 252.519 11.2171 252.444 11.5588 252.441H404.871C405.575 252.467 406.24 252.77 406.72 253.284C407.199 253.798 407.455 254.481 407.431 255.183Z" fill="#BABBC0"/>
<path d="M259.872 247.855H49.3036C46.9599 247.989 44.6581 247.193 42.8999 245.642C41.1416 244.09 40.0695 241.907 39.9172 239.57V119.557C40.0695 117.22 41.1416 115.038 42.8999 113.486C44.6581 111.934 46.9599 111.138 49.3036 111.272H259.872C262.216 111.138 264.517 111.934 266.276 113.486C268.034 115.038 269.106 117.22 269.258 119.557V239.57C269.106 241.907 268.034 244.09 266.276 245.642C264.517 247.193 262.216 247.989 259.872 247.855Z" fill="#3A3C3D"/>
<path d="M276.973 260.005H29.3987C28.8434 260.005 28.3108 259.785 27.9182 259.394C27.5255 259.002 27.3049 258.47 27.3049 257.916V255.267C27.3046 254.993 27.3584 254.721 27.4635 254.467C27.5686 254.214 27.7227 253.983 27.9172 253.789C28.1116 253.594 28.3425 253.44 28.5967 253.335C28.8509 253.23 29.1235 253.176 29.3987 253.176H276.97C277.245 253.176 277.517 253.23 277.772 253.335C278.026 253.44 278.257 253.594 278.451 253.789C278.646 253.983 278.8 254.214 278.905 254.467C279.01 254.721 279.064 254.993 279.064 255.267V257.916C279.064 258.47 278.843 259.001 278.451 259.392C278.059 259.784 277.527 260.005 276.973 260.005Z" fill="#3A3C3D"/>
<path d="M254.521 234.436H54.6505C49.7433 234.436 45.7412 231.289 45.7412 227.41V125.658C45.7412 121.777 49.7297 118.633 54.6505 118.633H254.521C259.428 118.633 263.43 121.78 263.43 125.658V227.41C263.428 231.289 259.442 234.436 254.521 234.436Z" fill="white"/>
<path d="M274.857 256.595H31.5115C29.1888 256.595 27.3049 255.727 27.3049 254.655L39.7528 237.629H269.17L279.066 254.655C279.066 255.727 277.183 256.595 274.857 256.595Z" fill="#EAE9E8"/>
<path d="M56.9027 245.59H43.8411V248.761H56.9027V245.59Z" fill="#BABBC0"/>
<path d="M72.6898 245.59H59.6282V248.761H72.6898V245.59Z" fill="#BABBC0"/>
<path d="M88.3402 245.59H75.2786V248.761H88.3402V245.59Z" fill="#BABBC0"/>
<path d="M103.987 245.59H90.925V248.761H103.987V245.59Z" fill="#BABBC0"/>
<path d="M61.5592 242H48.4976V244.35H61.5592V242Z" fill="#BABBC0"/>
<path d="M77.3433 242H64.2817V244.35H77.3433V242Z" fill="#BABBC0"/>
<path d="M92.9962 242H79.9346V244.35H92.9962V242Z" fill="#BABBC0"/>
<path d="M108.64 242H95.5781V244.35H108.64V242Z" fill="#BABBC0"/>
<path d="M123.731 242H110.669V244.35H123.731V242Z" fill="#BABBC0"/>
<path d="M139.515 242H126.453V244.35H139.515V242Z" fill="#BABBC0"/>
<path d="M155.155 242H142.094V244.35H155.155V242Z" fill="#BABBC0"/>
<path d="M170.812 242H157.75V244.35H170.812V242Z" fill="#BABBC0"/>
<path d="M185.889 242H172.828V244.35H185.889V242Z" fill="#BABBC0"/>
<path d="M201.686 242H188.625V244.35H201.686V242Z" fill="#BABBC0"/>
<path d="M217.326 242H204.265V244.35H217.326V242Z" fill="#BABBC0"/>
<path d="M232.97 242H219.909V244.35H232.97V242Z" fill="#BABBC0"/>
<path d="M248.06 242H234.999V244.35H248.06V242Z" fill="#BABBC0"/>
<path d="M263.845 242H250.783V244.35H263.845V242Z" fill="#BABBC0"/>
<path d="M68.7171 238.832H55.6555V241.182H68.7171V238.832Z" fill="#BABBC0"/>
<path d="M84.4979 238.832H71.4363V241.182H84.4979V238.832Z" fill="#BABBC0"/>
<path d="M100.151 238.832H87.0898V241.182H100.151V238.832Z" fill="#BABBC0"/>
<path d="M115.795 238.832H102.733V241.182H115.795V238.832Z" fill="#BABBC0"/>
<path d="M130.885 238.832H117.824V241.182H130.885V238.832Z" fill="#BABBC0"/>
<path d="M146.67 238.832H133.608V241.182H146.67V238.832Z" fill="#BABBC0"/>
<path d="M162.31 238.832H149.248V241.182H162.31V238.832Z" fill="#BABBC0"/>
<path d="M177.966 238.832H164.905V241.182H177.966V238.832Z" fill="#BABBC0"/>
<path d="M193.054 238.832H179.992V241.182H193.054V238.832Z" fill="#BABBC0"/>
<path d="M208.841 238.832H195.779V241.182H208.841V238.832Z" fill="#BABBC0"/>
<path d="M224.481 238.832H211.419V241.182H224.481V238.832Z" fill="#BABBC0"/>
<path d="M240.125 238.832H227.063V241.182H240.125V238.832Z" fill="#BABBC0"/>
<path d="M255.215 238.832H242.154V241.182H255.215V238.832Z" fill="#BABBC0"/>
<path d="M201.686 245.59H188.625V248.761H201.686V245.59Z" fill="#BABBC0"/>
<path d="M217.464 245.59H204.402V248.761H217.464V245.59Z" fill="#BABBC0"/>
<path d="M236.541 246.758H223.479V248.762H236.541V246.758Z" fill="#BABBC0"/>
<path d="M252.184 245.59H239.123V248.761H252.184V245.59Z" fill="#BABBC0"/>
<path d="M268.057 246.758H254.995V248.762H268.057V246.758Z" fill="#BABBC0"/>
<path d="M184.809 245.59H106.569V248.761H184.809V245.59Z" fill="#BABBC0"/>
<path d="M188.344 255.557H116.86C116.708 255.556 116.563 255.496 116.456 255.389C116.348 255.282 116.288 255.137 116.287 254.986V251.352C116.287 251.201 116.347 251.056 116.455 250.949C116.562 250.841 116.708 250.781 116.86 250.781H188.344C188.496 250.781 188.641 250.841 188.749 250.949C188.856 251.056 188.916 251.201 188.916 251.352V254.986C188.916 255.137 188.855 255.282 188.748 255.389C188.641 255.496 188.496 255.556 188.344 255.557Z" fill="#BABBC0"/>
<path d="M172.394 226.431H55.534C54.8295 226.432 54.1319 226.294 53.481 226.025C52.8301 225.756 52.2385 225.362 51.7403 224.865C51.2421 224.368 50.8469 223.778 50.5772 223.129C50.3075 222.48 50.1687 221.784 50.1687 221.081V129.556C50.1683 128.853 50.3069 128.157 50.5764 127.507C50.8459 126.857 51.241 126.267 51.7393 125.77C52.2376 125.273 52.8292 124.879 53.4803 124.61C54.1314 124.341 54.8293 124.203 55.534 124.203H172.396C173.101 124.203 173.798 124.342 174.449 124.611C175.1 124.879 175.692 125.274 176.19 125.771C176.688 126.268 177.084 126.858 177.353 127.508C177.623 128.157 177.761 128.853 177.761 129.556V221.081C177.761 221.784 177.623 222.48 177.353 223.13C177.083 223.779 176.687 224.369 176.189 224.866C175.69 225.363 175.099 225.757 174.447 226.026C173.796 226.294 173.098 226.432 172.394 226.431Z" fill="#CECECE"/>
<path d="M131.124 148.398H99.8573C85.8282 148.398 74.468 159.873 74.468 170.429V178.76H156.527V170.432C156.538 159.873 145.154 148.398 131.124 148.398Z" fill="white"/>
<path d="M113.957 176.982H82.3323V170.455C82.3323 167.651 83.4486 164.962 85.4359 162.979C87.4233 160.997 90.1187 159.883 92.9292 159.883H103.349C106.16 159.883 108.855 160.997 110.842 162.979C112.83 164.962 113.946 167.651 113.946 170.455L113.957 176.982Z" fill="#565654"/>
<path d="M148.524 176.987H116.899V171.594C116.899 170.058 117.203 168.537 117.792 167.119C118.381 165.7 119.244 164.41 120.333 163.324C121.421 162.238 122.714 161.377 124.136 160.789C125.558 160.201 127.083 159.898 128.623 159.898H136.785C138.324 159.898 139.849 160.201 141.271 160.789C142.693 161.377 143.986 162.238 145.074 163.324C146.163 164.41 147.026 165.7 147.616 167.119C148.205 168.537 148.508 170.058 148.508 171.594V176.987H148.524Z" fill="#565654"/>
<path d="M148.539 173.923H143.607C143.432 173.405 143.099 172.954 142.654 172.635C142.209 172.316 141.674 172.144 141.126 172.145H122.62C122.072 172.144 121.538 172.316 121.093 172.635C120.648 172.954 120.314 173.405 120.14 173.923H82.3214C79.3822 173.927 76.5287 174.912 74.2163 176.722H156.644C154.331 174.912 151.478 173.927 148.539 173.923Z" fill="#070604"/>
<path d="M157.412 179.433H73.5532V172.788C73.5533 169.41 74.2978 166.073 75.7342 163.013C77.1544 159.986 79.1678 157.272 81.6555 155.033C84.2223 152.71 87.2013 150.884 90.4394 149.651C93.8725 148.336 97.5197 147.667 101.197 147.676H129.779C133.456 147.667 137.103 148.336 140.536 149.651C143.775 150.883 146.754 152.709 149.32 155.033C151.809 157.272 153.822 159.985 155.242 163.013C156.678 166.073 157.423 169.41 157.423 172.788L157.412 179.433ZM75.3525 177.801H155.634V172.78C155.634 159.828 144.037 149.291 129.784 149.291H101.189C86.9334 149.291 75.3388 159.828 75.3388 172.78L75.3525 177.801Z" fill="#185F87"/>
<path d="M74.6853 178.063L71.6863 177.247V176.181C71.6863 175.289 71.331 174.433 70.6986 173.802C70.0661 173.171 69.2083 172.816 68.3139 172.816H64.5926C63.6743 172.816 62.7936 173.181 62.1443 173.828C61.495 174.476 61.1301 175.355 61.1301 176.271C61.1301 177.187 61.495 178.065 62.1443 178.713C62.7936 179.361 63.6743 179.725 64.5926 179.725H71.1166L76.3483 181.172L76.3782 181.06C76.4653 180.753 76.4905 180.431 76.4525 180.114C76.4144 179.796 76.3138 179.489 76.1564 179.21C75.9991 178.932 75.7881 178.688 75.5356 178.491C75.2831 178.294 74.9942 178.148 74.6853 178.063Z" fill="#070604"/>
<path d="M155.257 178.063L158.257 177.247V176.181C158.257 175.289 158.612 174.433 159.244 173.802C159.877 173.171 160.734 172.816 161.629 172.816H165.358C166.277 172.816 167.157 173.181 167.807 173.828C168.456 174.476 168.821 175.355 168.821 176.271C168.821 177.187 168.456 178.065 167.807 178.713C167.157 179.361 166.277 179.725 165.358 179.725H158.834L153.603 181.172L153.573 181.06C153.485 180.753 153.459 180.432 153.497 180.115C153.534 179.798 153.634 179.491 153.79 179.212C153.947 178.934 154.157 178.689 154.409 178.492C154.661 178.295 154.949 178.149 155.257 178.063Z" fill="#070604"/>
<path d="M132.376 183.018C130.85 183.018 129.358 182.567 128.089 181.721C126.821 180.875 125.831 179.673 125.248 178.267C124.664 176.86 124.511 175.312 124.809 173.819C125.106 172.326 125.841 170.955 126.92 169.878C127.999 168.802 129.374 168.069 130.87 167.772C132.367 167.475 133.919 167.627 135.328 168.21C136.738 168.793 137.943 169.779 138.791 171.045C139.639 172.311 140.091 173.799 140.091 175.321C140.091 177.363 139.278 179.32 137.831 180.764C136.384 182.207 134.422 183.018 132.376 183.018ZM132.542 165.73C130.641 165.73 128.782 166.293 127.201 167.347C125.621 168.401 124.388 169.899 123.661 171.651C122.933 173.403 122.743 175.331 123.114 177.192C123.485 179.052 124.4 180.761 125.745 182.102C127.089 183.444 128.802 184.357 130.667 184.727C132.532 185.097 134.464 184.907 136.221 184.181C137.977 183.456 139.479 182.227 140.535 180.649C141.591 179.072 142.155 177.218 142.155 175.321C142.155 172.78 141.144 170.343 139.344 168.545C137.544 166.747 135.103 165.734 132.556 165.73H132.542Z" fill="#070604"/>
<path d="M80.3784 222.513H71.4279C70.6376 222.513 69.8798 222.199 69.321 221.641C68.7622 221.084 68.4482 220.328 68.4482 219.54V207.906C68.4482 207.118 68.7622 206.362 69.321 205.805C69.8798 205.247 70.6376 204.934 71.4279 204.934H80.3784C81.1687 204.934 81.9266 205.247 82.4855 205.805C83.0443 206.362 83.3582 207.118 83.3582 207.906V219.54C83.3582 220.328 83.0443 221.084 82.4855 221.641C81.9266 222.199 81.1687 222.513 80.3784 222.513Z" fill="#080705"/>
<path d="M158.171 222.513H149.221C148.43 222.513 147.672 222.199 147.114 221.641C146.555 221.084 146.241 220.328 146.241 219.54V207.906C146.241 207.118 146.555 206.362 147.114 205.805C147.672 205.247 148.43 204.934 149.221 204.934H158.171C158.961 204.934 159.719 205.247 160.278 205.805C160.837 206.362 161.151 207.118 161.151 207.906V219.54C161.151 220.328 160.837 221.084 160.278 221.641C159.719 222.199 158.961 222.513 158.171 222.513Z" fill="#080705"/>
<path d="M157.431 212.984H73.5448C71.5514 212.984 69.6395 212.193 68.23 210.787C66.8204 209.381 66.0286 207.474 66.0286 205.485V189.764C66.0286 187.868 66.4029 185.99 67.1303 184.238C67.8576 182.486 68.9238 180.895 70.2678 179.554C71.6118 178.213 73.2073 177.15 74.9633 176.424C76.7193 175.698 78.6015 175.324 80.5021 175.324H150.473C152.374 175.324 154.256 175.698 156.012 176.424C157.768 177.15 159.364 178.213 160.708 179.554C162.052 180.895 163.118 182.486 163.845 184.238C164.573 185.99 164.947 187.868 164.947 189.764V205.485C164.947 207.474 164.155 209.381 162.745 210.787C161.336 212.193 159.424 212.984 157.431 212.984Z" fill="#185F87"/>
<path d="M66.0417 203.484V205.448C66.0417 207.437 66.8338 209.345 68.2433 210.751C69.6529 212.157 71.5646 212.947 73.558 212.947H157.444C159.437 212.947 161.349 212.157 162.759 210.751C164.168 209.345 164.96 207.437 164.96 205.448V203.484H66.0417Z" fill="#2D2C2C"/>
<path d="M144.015 197.602C144.015 197.602 144.015 197.63 144.015 197.641C144.01 198.257 143.845 198.861 143.536 199.395C143.431 199.576 143.31 199.749 143.176 199.909C143.108 199.991 143.037 200.069 142.96 200.143C142.627 200.477 142.23 200.741 141.794 200.922C141.357 201.102 140.889 201.196 140.417 201.195H90.9604C90.4341 201.196 89.9143 201.081 89.4375 200.859C88.9608 200.636 88.5388 200.312 88.2015 199.909C88.0664 199.749 87.9457 199.576 87.8415 199.395C87.5332 198.861 87.3678 198.257 87.3616 197.641C87.3616 197.641 87.3616 197.616 87.3616 197.602C87.3616 197.445 87.3616 197.284 87.3616 197.126C87.3913 196.534 87.4829 195.946 87.6345 195.373C87.6817 195.191 87.7335 195.019 87.7899 194.858C87.995 194.244 88.2692 193.656 88.6075 193.104C88.7166 192.922 88.831 192.751 88.951 192.59C89.4301 191.928 90.0013 191.337 90.6469 190.835C92.1512 189.666 94.0043 189.033 95.9113 189.035H135.398C136.997 189.033 138.565 189.478 139.923 190.321C140.179 190.479 140.425 190.651 140.662 190.835C141.308 191.337 141.879 191.928 142.358 192.59C142.478 192.758 142.592 192.93 142.701 193.104C143.04 193.655 143.314 194.244 143.519 194.858C143.576 195.027 143.628 195.199 143.674 195.373C143.826 195.946 143.918 196.534 143.947 197.126C144.01 197.279 144.015 197.442 144.015 197.602Z" fill="#2D2C2C"/>
<path d="M140.7 190.842H90.6807C90.9178 190.658 91.1644 190.486 91.4195 190.328H139.947C140.207 190.486 140.458 190.658 140.7 190.842Z" fill="#595554"/>
<path d="M142.749 193.108H88.6501C88.7592 192.926 88.8736 192.755 88.9936 192.594H142.403C142.525 192.761 142.64 192.932 142.749 193.108Z" fill="#595554"/>
<path d="M143.727 195.373H87.6592C87.7055 195.199 87.7573 195.028 87.8146 194.859H143.568C143.626 195.028 143.68 195.199 143.727 195.373Z" fill="#595554"/>
<path d="M144.018 197.605C144.018 197.605 144.018 197.629 144.018 197.643H87.3616C87.3616 197.643 87.3616 197.619 87.3616 197.605C87.3616 197.445 87.3616 197.287 87.3616 197.129H143.991C144.013 197.287 144.018 197.445 144.018 197.605Z" fill="#595554"/>
<path d="M143.539 199.395C143.435 199.576 143.314 199.749 143.179 199.909H88.2023C88.0672 199.749 87.9468 199.576 87.8425 199.395H143.539Z" fill="#595554"/>
<path d="M117.558 199.687C119.904 198.718 121.017 196.035 120.046 193.696C119.074 191.356 116.386 190.245 114.04 191.214C111.695 192.183 110.581 194.866 111.553 197.205C112.524 199.545 115.213 200.656 117.558 199.687Z" fill="#595554"/>
<path d="M74.2219 210.325C75.4114 210.325 76.3756 209.363 76.3756 208.176C76.3756 206.989 75.4114 206.027 74.2219 206.027C73.0324 206.027 72.0681 206.989 72.0681 208.176C72.0681 209.363 73.0324 210.325 74.2219 210.325Z" fill="white"/>
<path d="M156.644 210.325C157.834 210.325 158.798 209.363 158.798 208.176C158.798 206.989 157.834 206.027 156.644 206.027C155.455 206.027 154.49 206.989 154.49 208.176C154.49 209.363 155.455 210.325 156.644 210.325Z" fill="white"/>
<path d="M82.7163 188.395H74.5538C73.7584 188.395 72.9956 188.079 72.4332 187.518C71.8708 186.957 71.5549 186.196 71.5549 185.403V185.055C71.5549 184.261 71.8708 183.5 72.4332 182.939C72.9956 182.378 73.7584 182.062 74.5538 182.062H82.7163C83.5117 182.062 84.2743 182.378 84.8367 182.939C85.3991 183.5 85.7151 184.261 85.7151 185.055V185.403C85.7151 186.196 85.3991 186.957 84.8367 187.518C84.2743 188.079 83.5117 188.395 82.7163 188.395Z" fill="white"/>
<path d="M156.326 188.395H148.163C147.368 188.395 146.605 188.079 146.043 187.518C145.48 186.957 145.165 186.196 145.165 185.403V185.055C145.165 184.261 145.48 183.5 146.043 182.939C146.605 182.378 147.368 182.062 148.163 182.062H156.326C157.121 182.062 157.884 182.378 158.447 182.939C159.009 183.5 159.325 184.261 159.325 185.055V185.403C159.325 186.196 159.009 186.957 158.447 187.518C157.884 188.079 157.121 188.395 156.326 188.395Z" fill="white"/>
<path d="M256.914 135.183H188.276C187.643 135.183 187.035 134.932 186.587 134.486C186.14 134.039 185.888 133.432 185.888 132.801V126.586C185.888 125.954 186.14 125.348 186.587 124.901C187.035 124.454 187.643 124.203 188.276 124.203H256.914C257.228 124.203 257.538 124.265 257.828 124.385C258.118 124.504 258.381 124.68 258.603 124.901C258.825 125.122 259.001 125.385 259.121 125.674C259.241 125.963 259.302 126.273 259.302 126.586V132.801C259.302 133.113 259.241 133.423 259.121 133.712C259.001 134.001 258.825 134.264 258.603 134.486C258.381 134.707 258.118 134.882 257.828 135.002C257.538 135.122 257.228 135.183 256.914 135.183Z" fill="#CECECE"/>
<path d="M258.238 144.698H186.972C186.687 144.698 186.414 144.585 186.212 144.384C186.011 144.183 185.897 143.911 185.897 143.627V143.251C185.902 142.969 186.016 142.698 186.217 142.498C186.417 142.298 186.688 142.184 186.972 142.18H258.238C258.522 142.18 258.796 142.292 258.998 142.493C259.199 142.694 259.312 142.967 259.312 143.251V143.627C259.312 143.911 259.199 144.183 258.998 144.384C258.796 144.585 258.522 144.698 258.238 144.698Z" fill="#CECECE"/>
<path d="M258.238 148.925H186.972C186.687 148.925 186.414 148.812 186.212 148.611C186.011 148.41 185.897 148.137 185.897 147.853V147.478C185.902 147.195 186.016 146.925 186.217 146.725C186.417 146.525 186.688 146.41 186.972 146.406H258.238C258.522 146.406 258.796 146.519 258.998 146.72C259.199 146.921 259.312 147.194 259.312 147.478V147.853C259.312 148.137 259.199 148.41 258.998 148.611C258.796 148.812 258.522 148.925 258.238 148.925Z" fill="#CECECE"/>
<path d="M258.238 153.158H186.972C186.687 153.158 186.414 153.045 186.212 152.844C186.011 152.643 185.897 152.37 185.897 152.086V151.708C185.897 151.424 186.011 151.151 186.212 150.95C186.414 150.75 186.687 150.637 186.972 150.637H258.238C258.522 150.637 258.796 150.75 258.998 150.95C259.199 151.151 259.312 151.424 259.312 151.708V152.086C259.312 152.37 259.199 152.643 258.998 152.844C258.796 153.045 258.522 153.158 258.238 153.158Z" fill="#CECECE"/>
<path d="M258.238 157.382H186.972C186.687 157.382 186.414 157.269 186.212 157.068C186.011 156.867 185.897 156.594 185.897 156.31V155.935C185.902 155.652 186.016 155.382 186.217 155.182C186.417 154.982 186.688 154.867 186.972 154.863H258.238C258.522 154.863 258.796 154.976 258.998 155.177C259.199 155.378 259.312 155.651 259.312 155.935V156.31C259.312 156.594 259.199 156.867 258.998 157.068C258.796 157.269 258.522 157.382 258.238 157.382Z" fill="#CECECE"/>
<path d="M258.238 161.611H186.972C186.687 161.611 186.414 161.498 186.212 161.297C186.011 161.096 185.897 160.824 185.897 160.539V160.162C185.897 159.877 186.011 159.605 186.212 159.404C186.414 159.203 186.687 159.09 186.972 159.09H258.238C258.522 159.09 258.796 159.203 258.998 159.404C259.199 159.605 259.312 159.877 259.312 160.162V160.539C259.312 160.68 259.284 160.82 259.231 160.95C259.177 161.08 259.098 161.199 258.998 161.298C258.899 161.398 258.78 161.476 258.65 161.53C258.519 161.584 258.379 161.612 258.238 161.611Z" fill="#CECECE"/>
<path d="M258.238 165.839H186.972C186.687 165.839 186.414 165.726 186.212 165.525C186.011 165.324 185.897 165.051 185.897 164.767V164.392C185.897 164.108 186.011 163.835 186.212 163.634C186.414 163.433 186.687 163.32 186.972 163.32H258.238C258.522 163.32 258.796 163.433 258.998 163.634C259.199 163.835 259.312 164.108 259.312 164.392V164.767C259.312 165.051 259.199 165.324 258.998 165.525C258.796 165.726 258.522 165.839 258.238 165.839Z" fill="#CECECE"/>
<path d="M258.238 170.068H186.972C186.83 170.068 186.69 170.041 186.56 169.986C186.429 169.932 186.311 169.853 186.211 169.753C186.111 169.654 186.032 169.535 185.979 169.405C185.925 169.274 185.897 169.135 185.897 168.994V168.619C185.897 168.334 186.011 168.062 186.212 167.861C186.414 167.66 186.687 167.547 186.972 167.547H258.238C258.522 167.547 258.796 167.66 258.998 167.861C259.199 168.062 259.312 168.334 259.312 168.619V168.994C259.312 169.135 259.285 169.274 259.231 169.405C259.177 169.535 259.098 169.654 258.998 169.753C258.899 169.853 258.78 169.932 258.65 169.986C258.519 170.041 258.379 170.068 258.238 170.068Z" fill="#CECECE"/>
<path d="M257.418 182.755H187.796C187.29 182.755 186.804 182.554 186.446 182.197C186.088 181.84 185.888 181.356 185.888 180.851V180.63C185.888 180.125 186.088 179.641 186.446 179.284C186.804 178.927 187.29 178.727 187.796 178.727H257.418C257.924 178.727 258.41 178.927 258.768 179.284C259.126 179.641 259.327 180.125 259.327 180.63V180.851C259.327 181.356 259.126 181.84 258.768 182.197C258.41 182.554 257.924 182.755 257.418 182.755Z" fill="#CECECE"/>
<path d="M258.238 186.982H186.972C186.687 186.982 186.414 186.869 186.212 186.668C186.011 186.467 185.897 186.195 185.897 185.911V185.533C185.902 185.25 186.016 184.98 186.217 184.78C186.417 184.58 186.688 184.465 186.972 184.461H258.238C258.522 184.461 258.796 184.574 258.998 184.775C259.199 184.976 259.312 185.248 259.312 185.533V185.911C259.312 186.195 259.199 186.467 258.998 186.668C258.796 186.869 258.522 186.982 258.238 186.982Z" fill="#CECECE"/>
<path d="M258.238 191.21H186.972C186.687 191.21 186.414 191.098 186.212 190.897C186.011 190.696 185.897 190.423 185.897 190.138V189.763C185.897 189.479 186.011 189.206 186.212 189.005C186.414 188.805 186.687 188.691 186.972 188.691H258.238C258.522 188.691 258.796 188.805 258.998 189.005C259.199 189.206 259.312 189.479 259.312 189.763V190.138C259.312 190.423 259.199 190.696 258.998 190.897C258.796 191.098 258.522 191.21 258.238 191.21Z" fill="#CECECE"/>
<path d="M258.238 195.435H186.972C186.687 195.435 186.414 195.323 186.212 195.122C186.011 194.921 185.897 194.648 185.897 194.364V193.986C185.902 193.703 186.016 193.433 186.217 193.233C186.417 193.033 186.688 192.918 186.972 192.914H258.238C258.522 192.914 258.796 193.027 258.998 193.228C259.199 193.429 259.312 193.702 259.312 193.986V194.364C259.312 194.648 259.199 194.921 258.998 195.122C258.796 195.323 258.522 195.435 258.238 195.435Z" fill="#CECECE"/>
<path d="M258.238 199.666H186.972C186.687 199.666 186.414 199.553 186.212 199.352C186.011 199.151 185.897 198.878 185.897 198.594V198.216C185.902 197.933 186.016 197.663 186.217 197.463C186.417 197.263 186.688 197.149 186.972 197.145H258.238C258.522 197.145 258.796 197.258 258.998 197.459C259.199 197.66 259.312 197.932 259.312 198.216V198.594C259.312 198.735 259.284 198.875 259.231 199.005C259.177 199.135 259.098 199.253 258.998 199.353C258.899 199.453 258.78 199.531 258.65 199.585C258.519 199.639 258.379 199.666 258.238 199.666Z" fill="#CECECE"/>
<path d="M258.238 203.896H186.972C186.83 203.896 186.69 203.869 186.56 203.815C186.429 203.761 186.311 203.681 186.211 203.582C186.111 203.482 186.032 203.363 185.979 203.233C185.925 203.103 185.897 202.963 185.897 202.822V202.447C185.897 202.163 186.011 201.89 186.212 201.689C186.414 201.488 186.687 201.375 186.972 201.375H258.238C258.522 201.375 258.796 201.488 258.998 201.689C259.199 201.89 259.312 202.163 259.312 202.447V202.822C259.312 202.963 259.285 203.103 259.231 203.233C259.177 203.363 259.098 203.482 258.998 203.582C258.899 203.681 258.78 203.761 258.65 203.815C258.519 203.869 258.379 203.896 258.238 203.896Z" fill="#CECECE"/>
<path d="M258.238 208.131H186.972C186.687 208.131 186.414 208.018 186.212 207.817C186.011 207.616 185.897 207.343 185.897 207.059V206.68C185.897 206.396 186.011 206.124 186.212 205.923C186.414 205.722 186.687 205.609 186.972 205.609H258.238C258.522 205.609 258.796 205.722 258.998 205.923C259.199 206.124 259.312 206.396 259.312 206.68V207.059C259.312 207.343 259.199 207.616 258.998 207.817C258.796 208.018 258.522 208.131 258.238 208.131Z" fill="#CECECE"/>
<path d="M258.238 212.355H186.972C186.687 212.355 186.414 212.242 186.212 212.041C186.011 211.84 185.897 211.568 185.897 211.284V210.908C185.897 210.623 186.011 210.351 186.212 210.15C186.414 209.949 186.687 209.836 186.972 209.836H258.238C258.522 209.836 258.796 209.949 258.998 210.15C259.199 210.351 259.312 210.623 259.312 210.908V211.284C259.312 211.568 259.199 211.84 258.998 212.041C258.796 212.242 258.522 212.355 258.238 212.355Z" fill="#CECECE"/>
<path d="M258.238 216.58H186.972C186.687 216.58 186.414 216.467 186.212 216.266C186.011 216.066 185.897 215.793 185.897 215.509V215.13C185.897 214.846 186.011 214.574 186.212 214.373C186.414 214.172 186.687 214.059 186.972 214.059H258.238C258.522 214.059 258.796 214.172 258.998 214.373C259.199 214.574 259.312 214.846 259.312 215.13V215.509C259.312 215.793 259.199 216.066 258.998 216.266C258.796 216.467 258.522 216.58 258.238 216.58Z" fill="#CECECE"/>
<path d="M258.238 220.81H186.972C186.687 220.81 186.414 220.698 186.212 220.497C186.011 220.296 185.897 220.024 185.897 219.739V219.361C185.897 219.077 186.011 218.804 186.212 218.603C186.414 218.402 186.687 218.289 186.972 218.289H258.238C258.522 218.289 258.796 218.402 258.998 218.603C259.199 218.804 259.312 219.077 259.312 219.361V219.739C259.312 220.024 259.199 220.296 258.998 220.497C258.796 220.698 258.522 220.81 258.238 220.81Z" fill="#CECECE"/>
<path d="M258.238 225.041H186.972C186.687 225.041 186.414 224.929 186.212 224.728C186.011 224.527 185.897 224.255 185.897 223.97V223.595C185.897 223.31 186.011 223.038 186.212 222.837C186.414 222.636 186.687 222.523 186.972 222.523H258.238C258.522 222.523 258.796 222.636 258.998 222.837C259.199 223.038 259.312 223.31 259.312 223.595V223.97C259.312 224.255 259.199 224.527 258.998 224.728C258.796 224.929 258.522 225.041 258.238 225.041Z" fill="#CECECE"/>
</g>
<defs>
<clipPath id="clip0_1692_12949">
<rect width="420" height="260" fill="white"/>
</clipPath>
</defs>
</svg>
