<svg width="310" height="232" viewBox="0 0 310 232" fill="none" xmlns="http://www.w3.org/2000/svg">
<g clip-path="url(#clip0_1769_11340)">
<path opacity="0.3" d="M241.084 197.859C236.455 202.58 231.306 206.76 225.734 210.319C185.981 236.863 140.534 229.212 126.489 226.598C103.822 222.379 84.6891 219.398 68.2481 204.55C30.8921 170.8 32.7091 100.395 61.2541 56.783C64.6381 51.612 93.1401 9.364 138.68 3.41C139.794 3.265 140.625 3.182 141.352 3.104C148.397 2.358 192.052 -1.57901 227.652 28.245C235.763 35.0629 242.807 43.0561 248.552 51.959C276.357 94.901 276.446 161.41 241.084 197.859Z" fill="#185F87"/>
<path d="M224.582 14.9318C224.613 14.6686 224.727 14.4222 224.907 14.2278C225.087 14.0334 225.324 13.9011 225.584 13.8501C225.844 13.7991 226.114 13.8319 226.354 13.9438C226.594 14.0557 226.793 14.2409 226.921 14.4728C232.906 25.2428 245.765 55.8728 227.195 96.2728C203.895 146.965 208.726 169.727 218.648 185.842C207.332 177.175 199.354 164.87 196.06 151.003C182.384 93.7748 222.225 36.3768 224.582 14.9318Z" fill="#D85745"/>
<path d="M225.822 33.489C225.014 39.703 224.084 45.898 222.928 52.051C221.805 58.2076 220.495 64.324 218.998 70.4C217.477 76.465 215.842 82.5 213.953 88.456C212.092 94.421 209.976 100.299 207.831 106.194C205.721 112.094 203.56 118.031 202.001 124.206C200.359 130.404 199.664 136.814 199.94 143.22C200.029 144.82 200.148 146.42 200.36 148C200.542 149.584 200.796 151.161 201.077 152.732C202.783 162.204 206.543 171.188 212.092 179.052C212.273 179.314 212.55 179.495 212.863 179.555C213.176 179.614 213.5 179.548 213.765 179.37C214.029 179.192 214.213 178.917 214.276 178.605C214.339 178.292 214.277 177.968 214.102 177.701C213.256 176.401 212.427 175.101 211.658 173.767C211.258 173.105 210.898 172.427 210.52 171.757C210.168 171.072 209.791 170.402 209.46 169.707C208.092 166.954 206.924 164.107 205.966 161.186C204.055 155.33 202.924 149.248 202.604 143.097C202.463 140.033 202.554 136.962 202.875 133.912C203.212 130.851 203.753 127.816 204.495 124.827C205.963 118.82 208.053 112.927 210.121 107.011C212.189 101.095 214.213 95.124 215.995 89.085C216.893 86.0683 217.738 83.035 218.528 79.985C218.928 78.464 219.306 76.936 219.683 75.408C220.06 73.88 220.399 72.344 220.74 70.808C222.093 64.6633 223.256 58.484 224.227 52.27C225.166 46.055 225.939 39.816 226.47 33.559C226.474 33.4762 226.446 33.3949 226.393 33.3317C226.339 33.2686 226.263 33.2283 226.181 33.2192C226.098 33.2102 226.016 33.2329 225.949 33.2829C225.883 33.3329 225.839 33.4062 225.825 33.488L225.822 33.489Z" fill="white"/>
<path d="M222.286 174.552C221.908 174.904 221.45 175.158 220.951 175.291C220.452 175.424 219.927 175.432 219.425 175.314C218.922 175.197 218.455 174.958 218.067 174.618C217.678 174.277 217.379 173.847 217.196 173.364C212.796 161.839 203.309 128.128 224.61 91.2518C242.598 60.1118 249.392 41.5168 251.892 32.8618C252.008 32.4625 252.246 32.1098 252.574 31.854C252.902 31.5982 253.302 31.4524 253.717 31.4373C254.132 31.4223 254.542 31.5387 254.887 31.7701C255.233 32.0015 255.496 32.3359 255.64 32.7258C262.94 52.4358 281.327 119.081 222.286 174.552Z" fill="#FF725E"/>
<path d="M219.578 173.2C219.522 173.205 219.466 173.205 219.41 173.2C219.18 173.181 218.966 173.072 218.817 172.897C218.667 172.721 218.592 172.493 218.61 172.263C218.652 171.718 223.03 117.263 246.084 72.837C246.196 72.642 246.378 72.4976 246.594 72.4341C246.81 72.3705 247.042 72.3926 247.242 72.4957C247.441 72.5988 247.594 72.775 247.667 72.9876C247.74 73.2003 247.728 73.4328 247.634 73.6369C224.747 117.737 220.393 171.85 220.351 172.392C220.337 172.596 220.252 172.788 220.11 172.936C219.969 173.083 219.781 173.177 219.578 173.2Z" fill="white"/>
<path d="M59.6202 41.6699C59.6202 37.908 61.1146 34.3003 63.7746 31.6403C66.4346 28.9802 70.0424 27.4858 73.8042 27.4858H194.425C197.629 27.4868 200.71 28.718 203.033 30.9252C205.355 33.1324 206.741 36.1471 206.905 39.3469L215.805 214.225C215.868 215.459 215.682 216.693 215.258 217.853C214.835 219.014 214.182 220.077 213.339 220.981C212.496 221.884 211.48 222.609 210.351 223.111C209.223 223.614 208.005 223.884 206.769 223.907L68.5222 226.419C67.3603 226.44 66.2059 226.229 65.1263 225.799C64.0467 225.369 63.0636 224.728 62.2345 223.914C61.4054 223.1 60.7468 222.129 60.2972 221.057C59.8477 219.985 59.6162 218.835 59.6162 217.673V41.6729L59.6202 41.6699Z" fill="#144E6E"/>
<path d="M88.7308 223.449L73.2618 223.249C70.7663 223.207 68.3866 222.189 66.6329 220.413C64.8792 218.637 63.8912 216.245 63.8809 213.749V190.394C63.8809 190.306 63.9157 190.222 63.9777 190.16C64.0396 190.098 64.1237 190.063 64.2114 190.063C64.299 190.063 64.3831 190.098 64.4451 190.16C64.507 190.222 64.5419 190.306 64.5419 190.394V213.749C64.5507 216.072 65.4695 218.298 67.1012 219.951C68.7329 221.604 70.9475 222.552 73.2698 222.591L88.7388 222.791C88.8265 222.791 88.9106 222.826 88.9725 222.888C89.0345 222.95 89.0693 223.034 89.0693 223.122C89.0693 223.209 89.0345 223.293 88.9725 223.355C88.9106 223.417 88.8265 223.452 88.7388 223.452L88.7308 223.449Z" fill="white"/>
<path d="M64.207 183.485C64.1636 183.485 64.1205 183.476 64.0804 183.46C64.0403 183.443 64.0039 183.419 63.9733 183.388C63.9426 183.357 63.9183 183.321 63.9018 183.281C63.8853 183.24 63.8768 183.197 63.877 183.154V179.372C63.877 179.284 63.9118 179.2 63.9738 179.138C64.0357 179.076 64.1198 179.042 64.2075 179.042C64.2951 179.042 64.3792 179.076 64.4412 179.138C64.5031 179.2 64.538 179.284 64.538 179.372V183.154C64.5381 183.198 64.5297 183.241 64.5131 183.281C64.4965 183.321 64.4721 183.358 64.4413 183.388C64.4106 183.419 64.374 183.444 64.3338 183.46C64.2936 183.477 64.2505 183.485 64.207 183.485Z" fill="white"/>
<path d="M69.502 30.1771C69.4983 29.5871 69.6213 29.0032 69.8627 28.4648C70.1041 27.9265 70.4583 27.4463 70.9014 27.0568C71.3444 26.6672 71.866 26.3773 72.4307 26.2067C72.9955 26.0361 73.5904 25.9889 74.175 26.0681C90.647 28.3021 147.289 35.211 194.121 31.615C194.627 31.5756 195.137 31.6379 195.619 31.7982C196.101 31.9584 196.546 32.2134 196.928 32.5482C197.31 32.8829 197.621 33.2907 197.843 33.7475C198.065 34.2043 198.194 34.7009 198.221 35.2081L207.557 210.866C207.619 212.023 207.221 213.157 206.449 214.021C205.677 214.885 204.594 215.408 203.438 215.476C183.738 216.641 102.625 221.147 73.693 218.117C72.8426 218.027 72.0552 217.627 71.4817 216.992C70.9082 216.358 70.5889 215.534 70.585 214.679L69.502 30.1771Z" fill="url(#paint0_linear_1769_11340)"/>
<g opacity="0.6">
<path d="M73.2747 153.818C73.5631 154.345 73.9989 154.776 74.5285 155.058C75.0582 155.341 75.6587 155.463 76.2567 155.409L190.172 154.73C191.461 154.723 192.491 153.98 192.463 153.08C192.436 152.205 191.415 151.505 190.163 151.501L76.2417 151.137C74.2337 151.13 72.7617 152.459 73.2747 153.818Z" fill="white"/>
</g>
<g opacity="0.6">
<path d="M73.2747 172.252C73.5631 172.779 73.9989 173.21 74.5285 173.492C75.0582 173.775 75.6587 173.897 76.2567 173.843L190.172 173.164C191.461 173.156 192.491 172.414 192.463 171.514C192.436 170.639 191.415 169.939 190.163 169.935L76.2417 169.572C74.2337 169.566 72.7617 170.895 73.2747 172.252Z" fill="white"/>
</g>
<g opacity="0.6">
<path d="M73.223 190.689C73.4 191.633 74.009 192.289 74.704 192.28L131.262 191.601C131.902 191.593 132.413 190.851 132.399 189.951C132.385 189.076 131.879 188.375 131.257 188.371L74.697 188.008C73.7 188.002 72.968 189.33 73.223 190.689Z" fill="white"/>
</g>
<g opacity="0.6">
<path d="M85.3986 80.2519C85.6045 80.7495 85.9608 81.1703 86.4176 81.4556C86.8744 81.7408 87.409 81.8762 87.9465 81.8428L185.265 81.1638C185.502 81.1843 185.74 81.1577 185.967 81.0858C186.194 81.0139 186.404 80.8982 186.586 80.7449C186.767 80.5916 186.917 80.404 187.027 80.1928C187.136 79.9815 187.203 79.7508 187.223 79.5138C187.16 79.0487 186.921 78.6256 186.555 78.3317C186.189 78.0378 185.724 77.8958 185.257 77.9348L87.9355 77.5718C86.2185 77.5648 84.9596 78.8929 85.3986 80.2519Z" fill="white"/>
</g>
<g opacity="0.6">
<path d="M85.3534 98.6869C85.5024 99.6309 86.0154 100.287 86.6004 100.278L134.228 99.5989C134.767 99.5919 135.198 98.8489 135.186 97.9489C135.174 97.0739 134.748 96.3739 134.224 96.3689L86.5954 96.0059C85.7544 95.9999 85.1394 97.3289 85.3534 98.6869Z" fill="white"/>
</g>
<g opacity="0.6">
<path d="M85.3986 117.123C85.6045 117.621 85.9608 118.041 86.4176 118.327C86.8744 118.612 87.409 118.747 87.9465 118.714L185.265 118.035C185.502 118.055 185.74 118.029 185.967 117.957C186.194 117.885 186.404 117.769 186.586 117.616C186.767 117.463 186.917 117.275 187.027 117.064C187.136 116.853 187.203 116.622 187.223 116.385C187.16 115.92 186.921 115.497 186.555 115.203C186.189 114.909 185.724 114.767 185.257 114.806L87.9355 114.443C86.2185 114.436 84.9596 115.764 85.3986 117.123Z" fill="white"/>
</g>
<g opacity="0.6">
<path d="M85.3556 135.557C85.5126 136.502 86.0556 137.157 86.6656 137.148L136.714 136.469C137.28 136.462 137.733 135.719 137.721 134.819C137.709 133.944 137.261 133.243 136.71 133.239L86.6616 132.876C85.7766 132.871 85.1306 134.199 85.3556 135.557Z" fill="white"/>
</g>
<path d="M141.596 3.64188C137.239 0.610878 133.45 0.670887 130.784 1.45789C129.605 1.80908 128.584 2.55834 127.895 3.578C127.206 4.59767 126.892 5.82466 127.006 7.0499L128.156 19.6029L141.842 20.8179C141.842 20.8179 150.14 9.58588 141.596 3.64188ZM135.577 13.7689C134.902 13.7691 134.242 13.5691 133.681 13.1941C133.119 12.8192 132.682 12.2861 132.423 11.6624C132.165 11.0388 132.097 10.3524 132.229 9.69028C132.361 9.02813 132.686 8.41991 133.163 7.94254C133.64 7.46516 134.249 7.14008 134.911 7.00842C135.573 6.87677 136.259 6.94444 136.883 7.20288C137.507 7.46133 138.04 7.89894 138.415 8.46036C138.79 9.02178 138.99 9.68176 138.989 10.3569C138.989 11.2618 138.63 12.1297 137.99 12.7695C137.35 13.4094 136.482 13.7689 135.577 13.7689Z" fill="url(#paint1_linear_1769_11340)"/>
<path d="M129.523 14.3227C129.441 14.3226 129.361 14.2918 129.3 14.2363C129.24 14.1808 129.202 14.1047 129.194 14.0227L129.011 12.0227C129.006 11.9789 129.009 11.9345 129.022 11.8921C129.034 11.8497 129.054 11.8101 129.082 11.7758C129.11 11.7415 129.144 11.7131 129.183 11.6923C129.222 11.6715 129.265 11.6588 129.309 11.6547C129.353 11.6507 129.397 11.6556 129.439 11.669C129.481 11.6824 129.52 11.7041 129.553 11.7328C129.587 11.7615 129.614 11.7966 129.634 11.8361C129.654 11.8756 129.665 11.9187 129.668 11.9627L129.851 13.9627C129.855 14.006 129.85 14.0496 129.837 14.0911C129.825 14.1326 129.803 14.1712 129.776 14.2045C129.748 14.2379 129.714 14.2654 129.675 14.2855C129.636 14.3056 129.594 14.3179 129.551 14.3217L129.523 14.3227ZM129.164 10.4047C129.082 10.4046 129.002 10.3738 128.941 10.3183C128.881 10.2628 128.843 10.1867 128.835 10.1047L128.696 8.58669C128.589 7.41957 128.889 6.2514 129.545 5.28029C130.201 4.30918 131.173 3.59491 132.296 3.25868C133.92 2.77714 135.638 2.70671 137.296 3.0537C137.382 3.0712 137.457 3.12207 137.505 3.19511C137.554 3.26816 137.571 3.35739 137.554 3.44319C137.536 3.52899 137.485 3.60431 137.412 3.6526C137.339 3.70089 137.25 3.7182 137.164 3.7007C135.611 3.37648 134.002 3.44211 132.481 3.89171C131.505 4.18444 130.66 4.8058 130.09 5.65041C129.519 6.49501 129.259 7.51084 129.352 8.52568L129.491 10.0437C129.495 10.087 129.49 10.1306 129.477 10.1721C129.464 10.2136 129.443 10.2522 129.416 10.2855C129.388 10.3189 129.354 10.3464 129.315 10.3665C129.276 10.3866 129.234 10.3989 129.191 10.4027L129.164 10.4047Z" fill="white"/>
<path d="M109.477 27.716V21.404C109.477 20.8871 109.581 20.3757 109.783 19.8999C109.985 19.4242 110.28 18.9939 110.652 18.6348C111.023 18.2757 111.464 17.995 111.946 17.8095C112.428 17.624 112.943 17.5374 113.46 17.555L156.975 19.046C157.907 19.0779 158.793 19.4562 159.461 20.107C160.129 20.7578 160.53 21.6342 160.586 22.565L160.949 28.629L109.477 27.716Z" fill="url(#paint2_linear_1769_11340)"/>
<path d="M125.703 19.9349H123.832C123.744 19.9349 123.66 19.9001 123.598 19.8381C123.536 19.7762 123.501 19.6921 123.501 19.6044C123.501 19.5168 123.536 19.4327 123.598 19.3707C123.66 19.3087 123.744 19.2739 123.832 19.2739H125.703C125.79 19.2739 125.874 19.3087 125.936 19.3707C125.998 19.4327 126.033 19.5168 126.033 19.6044C126.033 19.6921 125.998 19.7762 125.936 19.8381C125.874 19.9001 125.79 19.9349 125.703 19.9349Z" fill="white"/>
<path d="M111.831 25.7349C111.788 25.7349 111.745 25.7264 111.705 25.7098C111.665 25.6932 111.628 25.6689 111.598 25.6382C111.567 25.6076 111.543 25.5712 111.526 25.5312C111.51 25.4912 111.501 25.4482 111.501 25.4049V22.8519C111.502 21.9035 111.879 20.9943 112.55 20.3237C113.22 19.6531 114.13 19.276 115.078 19.2749H121.958C122.046 19.2749 122.13 19.3097 122.192 19.3717C122.254 19.4337 122.288 19.5178 122.288 19.6054C122.288 19.6931 122.254 19.7771 122.192 19.8391C122.13 19.901 122.046 19.9359 121.958 19.9359H115.078C114.305 19.9369 113.563 20.2446 113.017 20.7914C112.47 21.3383 112.162 22.0796 112.161 22.8529V25.4059C112.161 25.4492 112.152 25.4921 112.136 25.532C112.119 25.572 112.095 25.6083 112.064 25.6389C112.034 25.6694 111.997 25.6937 111.957 25.7101C111.917 25.7266 111.874 25.735 111.831 25.7349Z" fill="white"/>
<path d="M91.7458 29.3097C91.7972 28.2573 92.2517 27.2652 93.0151 26.539C93.7785 25.8128 94.7921 25.4084 95.8457 25.4097H171.94C173.265 25.4098 174.548 25.8779 175.562 26.7313C176.576 27.5848 177.256 28.7688 177.482 30.0746L177.546 30.4467C177.666 31.1404 177.633 31.852 177.449 32.5316C177.265 33.2112 176.935 33.8424 176.482 34.381C176.028 34.9196 175.463 35.3526 174.825 35.6497C174.186 35.9467 173.491 36.1006 172.787 36.1006H94.7188C94.2937 36.1006 93.8731 36.0143 93.4823 35.8469C93.0916 35.6795 92.7389 35.4345 92.4456 35.1268C92.1523 34.8191 91.9245 34.4551 91.776 34.0568C91.6276 33.6585 91.5614 33.2343 91.5817 32.8097L91.7458 29.3097Z" fill="#FFFDFA"/>
<path d="M165.046 213.022C164.356 212.978 163.71 212.673 163.238 212.169C160.961 210.077 160.366 206.869 160.203 203.812C159.157 204.98 158.088 206.119 157.031 207.246L156.419 206.672C157.668 205.341 158.935 203.991 160.157 202.597C160.057 198.385 160.249 194.172 160.733 189.988C160.946 187.329 161.564 184.719 162.567 182.248C162.974 181.214 163.649 180.307 164.522 179.62C165.003 179.259 165.579 179.047 166.179 179.012C166.779 178.976 167.377 179.118 167.897 179.42C168.332 179.785 168.686 180.238 168.935 180.749C169.184 181.26 169.323 181.817 169.343 182.385C170.05 187.885 167.907 192.915 165.983 196.172C164.531 198.561 162.865 200.813 161.004 202.899C161.099 206.032 161.533 209.461 163.804 211.548C163.965 211.731 164.161 211.882 164.38 211.99C164.599 212.098 164.837 212.162 165.081 212.178C165.715 212.155 166.231 211.535 166.652 210.932C168.566 208.195 170.071 205.193 171.119 202.022C171.242 201.065 171.512 200.132 171.919 199.257L172.707 199.533C172.488 200.437 172.234 201.328 171.946 202.208C171.837 203.105 171.871 204.015 172.046 204.902C172.141 205.372 172.536 206.921 173.677 207.138C174.527 207.301 175.417 206.652 176.4 205.157L180.5 198.932L179.969 201.219C179.789 201.993 179.487 203.84 180.562 204.282C181.173 204.533 181.823 204.167 182.575 203.744C183.28 203.239 184.13 202.978 184.997 202.999L185.429 203.056L185.355 203.486C185.315 203.721 184.989 205.791 186.055 206.027C186.542 206.135 186.955 205.794 187.573 205.222C188.029 204.724 188.603 204.35 189.243 204.136L189.443 204.952C188.944 205.138 188.498 205.442 188.143 205.839C187.88 206.184 187.534 206.457 187.137 206.633C186.741 206.81 186.306 206.883 185.874 206.848C184.64 206.575 184.332 205.194 184.461 203.84C183.937 203.967 183.439 204.182 182.987 204.477C182.606 204.781 182.16 204.992 181.683 205.094C181.207 205.195 180.713 205.183 180.242 205.06C179.826 204.857 179.481 204.534 179.252 204.133C179.022 203.732 178.918 203.271 178.954 202.81L177.105 205.62C176.668 206.285 175.335 208.309 173.523 207.964C172.406 207.751 171.547 206.669 171.223 205.064C171.182 204.864 171.148 204.657 171.123 204.451C170.129 206.905 168.862 209.239 167.344 211.409C167.12 211.828 166.802 212.191 166.416 212.468C166.029 212.745 165.584 212.931 165.115 213.009C165.092 213.012 165.069 213.016 165.046 213.022ZM166.452 179.838C165.933 179.847 165.43 180.01 165.004 180.307C164.258 180.91 163.682 181.697 163.334 182.591C162.368 184.984 161.772 187.511 161.568 190.084C161.124 193.92 160.927 197.781 160.979 201.643C162.571 199.801 164.003 197.827 165.261 195.743C167.117 192.6 169.186 187.749 168.511 182.49C168.51 182.04 168.414 181.595 168.227 181.185C168.041 180.776 167.769 180.411 167.43 180.115C167.139 179.926 166.799 179.828 166.452 179.835V179.838Z" fill="url(#paint3_linear_1769_11340)"/>
<path d="M144.19 186.304C144.19 186.304 142.363 181.495 140.229 181.935C138.632 182.369 137.121 183.073 135.76 184.015L132.332 188.652C132.332 188.652 141.956 192.443 145.341 190.27C152.73 191.278 160.23 191.163 167.585 189.931C166.019 186.562 164.845 183.025 164.085 179.39C157.801 182.951 151.028 185.609 144.19 186.304Z" fill="url(#paint4_linear_1769_11340)"/>
<path d="M196.262 151.419C196.262 151.419 182.188 169.146 164.088 179.391C164.849 183.026 166.023 186.563 167.588 189.931C176.977 188.39 187.844 184.714 197.057 176.543L196.262 151.419Z" fill="#185F87"/>
<path d="M90.7764 153.762L91.6504 177.23C93.975 178.037 96.3438 178.709 98.7454 179.244C100.153 174.713 103.252 169.151 105.789 165.017C96.4653 161.721 90.7764 153.762 90.7764 153.762Z" fill="#D85745"/>
<path d="M137.325 153.363C124.535 167.172 114.184 167.984 105.789 165.017C103.251 169.152 100.152 174.717 98.7451 179.244C132.899 186.774 140.945 155.376 140.945 155.376L137.325 153.363Z" fill="url(#paint5_linear_1769_11340)"/>
<path d="M139.918 151.897C140.479 151.391 141.154 151.028 141.885 150.839C142.616 150.65 143.382 150.641 144.118 150.812C146.845 151.312 149.272 152.257 150.97 150.812C152.668 149.367 153.27 151.306 153.27 151.306L148.183 155.174L139.918 151.897Z" fill="url(#paint6_linear_1769_11340)"/>
<path d="M136.876 154.601C136.876 154.601 137.885 150.38 140.928 150.959C143.971 151.538 150.876 155.293 152.656 154.601C154.436 153.909 156.711 152.253 157.879 152.838L155.822 155.395C155.822 155.395 161.11 152.344 162.022 154.219L153.222 159.169C153.222 159.169 140.351 157.882 136.876 154.601Z" fill="url(#paint7_linear_1769_11340)"/>
<path d="M46.5011 231.107C46.5011 231.107 42.1371 168.807 73.9501 149.432C73.9501 149.432 82.8441 143.56 93.9271 154.932C105.01 166.304 101.441 178.117 92.1401 189.188C82.8391 200.259 73.3661 220.037 75.6201 231.107H46.5011Z" fill="#FF725E"/>
<path d="M89.9828 132.462C89.9748 133.205 79.3828 148.252 79.3828 148.252C79.3828 148.252 81.2828 151.997 90.3618 155.038L98.1978 138.927L89.9828 132.462Z" fill="url(#paint8_linear_1769_11340)"/>
<path d="M85.8174 184.124C85.8174 184.124 105.917 200.957 127.617 193.612C128.282 193.383 128.986 193.293 129.686 193.345C130.387 193.398 131.07 193.593 131.692 193.919L137.931 197.219C139.192 197.885 140.661 198.042 142.034 197.657C143.408 197.273 144.582 196.376 145.313 195.152C146.23 193.732 146.828 192.131 147.067 190.459L134.858 185.517L135.758 184.017C135.758 184.017 129.797 183.512 128.237 187.784C128.237 187.784 116.883 192.507 97.7374 171.446C97.7374 171.444 89.0484 178.832 85.8174 184.124Z" fill="url(#paint9_linear_1769_11340)"/>
<path d="M84.7362 184.05C84.6475 184.05 84.5608 184.024 84.4873 183.974C75.9993 178.239 72.0072 168.983 71.9672 168.891C71.9421 168.837 71.9281 168.778 71.926 168.718C71.924 168.659 71.9341 168.599 71.9555 168.543C71.977 168.488 72.0094 168.437 72.0509 168.394C72.0924 168.351 72.1422 168.317 72.1972 168.293C72.2521 168.27 72.3113 168.258 72.371 168.258C72.4307 168.258 72.4898 168.27 72.5448 168.294C72.5998 168.317 72.6494 168.351 72.6909 168.394C72.7324 168.437 72.7648 168.488 72.7862 168.544C72.8252 168.634 76.7222 177.655 84.9862 183.238C85.0649 183.291 85.1244 183.368 85.1559 183.458C85.1874 183.548 85.1894 183.646 85.1614 183.737C85.1334 183.828 85.077 183.907 85.0005 183.964C84.924 184.02 84.8314 184.05 84.7362 184.05Z" fill="#D85745"/>
<path d="M97.3408 171.259C97.2667 171.259 97.1936 171.241 97.1283 171.206C97.063 171.171 97.0075 171.121 96.9668 171.059C96.9418 171.019 94.3538 166.992 89.4288 158.172C88.8458 156.977 88.0266 155.914 87.0207 155.045C86.0149 154.176 84.8433 153.521 83.5768 153.118C80.9361 152.53 78.1726 152.897 75.7768 154.154C75.7261 154.183 75.6702 154.201 75.6124 154.208C75.5545 154.216 75.4958 154.211 75.4396 154.196C75.3834 154.18 75.3307 154.154 75.2847 154.118C75.2387 154.082 75.2002 154.038 75.1713 153.987C75.1425 153.937 75.1239 153.881 75.1167 153.823C75.1095 153.765 75.1137 153.706 75.1292 153.65C75.1446 153.594 75.171 153.541 75.2068 153.495C75.2426 153.449 75.2872 153.411 75.3378 153.382C77.9333 151.994 80.9445 151.595 83.8118 152.26C85.1945 152.691 86.4748 153.399 87.5751 154.341C88.6753 155.283 89.5724 156.439 90.2118 157.739C95.1208 166.531 97.6958 170.539 97.7218 170.579C97.7857 170.678 97.8076 170.799 97.7827 170.914C97.7577 171.029 97.688 171.13 97.5888 171.194C97.5141 171.239 97.428 171.261 97.3408 171.259Z" fill="#D85745"/>
<path d="M98.324 123.84C98.324 123.84 102.094 132.499 102.347 137.04C102.6 141.581 103.58 144.534 98.324 145.449C93.068 146.364 88.6421 143.749 86.2441 139.219C86.2441 139.219 82.487 132.243 83.329 129.386C84.171 126.529 98.324 123.84 98.324 123.84Z" fill="url(#paint10_linear_1769_11340)"/>
<path d="M88.04 135.969L88.34 135.838C88.4302 135.798 88.5113 135.741 88.5784 135.669C88.6455 135.596 88.6971 135.511 88.7301 135.418C88.7631 135.326 88.7767 135.227 88.7701 135.129C88.7636 135.03 88.737 134.935 88.692 134.847C87.951 133.415 86.506 130.134 88.372 129.369C90.778 128.383 100.304 126.44 102.359 123.059C102.775 122.336 103.042 121.537 103.146 120.709C103.25 119.881 103.188 119.041 102.964 118.237C102.74 117.433 102.359 116.682 101.842 116.027C101.325 115.373 100.683 114.827 99.953 114.423C99.8691 114.383 99.7733 114.377 99.6852 114.406C99.597 114.435 99.5233 114.496 99.479 114.578L99.26 114.993C99.2269 115.056 99.1756 115.108 99.1128 115.141C99.0501 115.175 98.9787 115.189 98.9078 115.182C98.837 115.175 98.7699 115.147 98.7152 115.101C98.6605 115.055 98.6208 114.994 98.601 114.926C98.5824 114.86 98.5449 114.8 98.4932 114.755C98.4414 114.71 98.3776 114.68 98.3094 114.67C98.2413 114.661 98.1718 114.671 98.1094 114.7C98.047 114.729 97.9944 114.776 97.958 114.834C97.326 115.846 95.621 117.485 91.058 118.327C84.575 119.527 80.289 122.147 80.182 126.627C80.181 126.691 80.1628 126.753 80.1296 126.808C80.0963 126.862 80.0491 126.907 79.9928 126.937C79.9365 126.967 79.8731 126.981 79.8093 126.979C79.7455 126.976 79.6836 126.956 79.63 126.922C79.152 126.63 78.385 126.493 77.362 127.354C75.582 128.854 76.31 132.734 80.213 135.929C80.2571 135.963 80.2925 136.007 80.3163 136.058C80.3401 136.108 80.3516 136.163 80.35 136.219C80.3483 136.275 80.3335 136.33 80.3068 136.379C80.28 136.427 80.242 136.469 80.196 136.501C79.488 136.961 78.433 138.058 81.167 139.519C82.8952 140.555 84.9155 140.995 86.918 140.772C86.9657 140.764 87.0113 140.746 87.052 140.72C87.0927 140.694 87.1276 140.66 87.1546 140.62C87.1816 140.579 87.2 140.534 87.2089 140.487C87.2177 140.439 87.2167 140.39 87.206 140.343L86.338 136.406C86.3265 136.354 86.3268 136.3 86.3389 136.248C86.351 136.196 86.3747 136.147 86.4081 136.106C86.4415 136.064 86.4838 136.03 86.5319 136.007C86.5799 135.984 86.6326 135.972 86.686 135.972H88.039L88.04 135.969Z" fill="url(#paint11_linear_1769_11340)"/>
<path d="M88.2033 136.8C88.2033 136.8 86.7653 131.269 84.2853 132.82C81.8053 134.371 85.5723 139.02 87.5663 139.22L88.2033 136.8Z" fill="url(#paint12_linear_1769_11340)"/>
<path d="M131.694 193.918C131.694 193.918 136.801 198.918 137.787 198.187C138.548 197.5 139.249 196.749 139.881 195.942C140.177 195.583 140.351 195.139 140.378 194.675C140.404 194.21 140.283 193.749 140.03 193.359L138.83 191.5C138.561 191.081 138.205 190.725 137.786 190.455C137.367 190.186 136.896 190.009 136.403 189.937C135.91 189.866 135.407 189.9 134.929 190.039C134.451 190.178 134.008 190.418 133.63 190.743C132.681 191.583 132.006 192.689 131.694 193.918Z" fill="url(#paint13_linear_1769_11340)"/>
<path d="M212.771 231.108C211.681 214.779 207.012 198.889 199.094 184.566C195.035 177.298 193.534 168.878 194.833 160.655L196.263 151.42C208.583 147.834 221.659 147.745 234.027 151.165C234.027 151.165 261.556 172.995 243.158 231.109L212.771 231.108Z" fill="#185F87"/>
<path d="M199.312 139.631L203.957 150.789C204.101 151.135 204.331 151.439 204.625 151.673C204.919 151.906 205.266 152.062 205.636 152.125C208.313 152.584 214.79 153.302 219.043 150.505C219.164 150.425 219.267 150.323 219.346 150.203C219.426 150.083 219.481 149.948 219.508 149.806C219.535 149.665 219.533 149.519 219.503 149.378C219.473 149.238 219.415 149.104 219.333 148.986L210.752 136.668L199.312 139.631Z" fill="url(#paint14_linear_1769_11340)"/>
<path d="M210.766 192.067C210.617 192.106 210.478 192.179 210.36 192.28C210.242 192.38 210.149 192.506 210.086 192.647C210.024 192.789 209.994 192.943 209.999 193.097C210.003 193.252 210.043 193.403 210.115 193.541L223.55 219.304C223.66 219.515 223.84 219.681 224.059 219.775C224.277 219.869 224.522 219.884 224.751 219.818L268.7 207.128C268.963 207.051 269.183 206.874 269.315 206.634C269.446 206.395 269.477 206.113 269.4 205.851L261.829 179.643C261.755 179.384 261.582 179.165 261.348 179.032C261.114 178.899 260.837 178.863 260.576 178.932L210.766 192.067Z" fill="url(#paint15_linear_1769_11340)"/>
<path d="M213.601 189.041C213.453 189.076 213.314 189.143 213.193 189.236C213.072 189.329 212.972 189.447 212.9 189.582C212.828 189.716 212.786 189.864 212.775 190.017C212.765 190.169 212.786 190.322 212.839 190.465L223.594 219.68C223.688 219.936 223.876 220.147 224.12 220.27C224.363 220.393 224.644 220.42 224.906 220.344L268.724 207.693C268.987 207.617 269.211 207.444 269.351 207.209C269.492 206.975 269.538 206.695 269.48 206.428L263.407 178.309C263.377 178.169 263.319 178.036 263.236 177.918C263.154 177.8 263.049 177.7 262.928 177.623C262.806 177.547 262.67 177.495 262.529 177.472C262.387 177.449 262.242 177.454 262.102 177.487L213.601 189.041Z" fill="url(#paint16_linear_1769_11340)"/>
<path d="M217.418 186.091C217.236 186.118 217.062 186.183 216.906 186.281C216.75 186.379 216.617 186.508 216.513 186.66C216.41 186.812 216.339 186.984 216.306 187.165C216.272 187.346 216.276 187.532 216.318 187.711L223.623 219.251C223.664 219.427 223.74 219.593 223.847 219.74C223.955 219.886 224.091 220.008 224.247 220.1C224.403 220.192 224.577 220.251 224.756 220.273C224.936 220.295 225.119 220.281 225.293 220.231L268.45 207.776C268.783 207.679 269.066 207.457 269.238 207.155C269.41 206.854 269.458 206.497 269.372 206.161L262.736 180.416C262.653 180.096 262.455 179.818 262.18 179.635C261.904 179.453 261.571 179.379 261.244 179.429L217.418 186.091Z" fill="url(#paint17_linear_1769_11340)"/>
<path d="M252.35 198.117C255.699 172.817 236.201 153.363 236.201 153.363L224.601 166.886C233.408 177.864 237.595 187.924 239.507 195.825C242.043 195.086 248.15 193.92 252.35 198.117Z" fill="#185F87"/>
<path d="M239.507 196.122C239.441 196.121 239.376 196.099 239.324 196.058C239.272 196.017 239.235 195.959 239.219 195.895C236.846 186.095 231.851 176.395 224.369 167.072C224.332 167.01 224.319 166.936 224.332 166.865C224.345 166.794 224.383 166.73 224.439 166.685C224.495 166.64 224.566 166.617 224.638 166.619C224.711 166.622 224.779 166.651 224.832 166.7C232.368 176.094 237.403 185.869 239.795 195.754C239.805 195.797 239.805 195.843 239.795 195.886C239.785 195.93 239.765 195.971 239.738 196.006C239.71 196.041 239.675 196.069 239.635 196.089C239.595 196.109 239.551 196.119 239.506 196.12L239.507 196.122Z" fill="#144E6E"/>
<path d="M239.507 195.826C240.808 200.862 241.254 206.081 240.827 211.265C240.778 211.742 240.563 212.187 240.218 212.521C239.873 212.855 239.422 213.057 238.943 213.09C237.82 213.169 236.29 213.272 234.924 213.35C233.358 213.259 231.86 212.68 230.64 211.694C230.518 211.607 230.37 211.564 230.221 211.571C230.071 211.578 229.929 211.635 229.815 211.732C229.701 211.83 229.624 211.962 229.594 212.109C229.564 212.256 229.585 212.408 229.652 212.542C230.484 214.17 232.596 215.619 234.052 216.471C234.168 216.541 234.261 216.643 234.32 216.765C234.378 216.887 234.401 217.023 234.384 217.158C234.367 217.292 234.311 217.418 234.224 217.522C234.136 217.625 234.02 217.701 233.891 217.74L227.667 219.504C237.895 229.139 244.647 218.358 244.647 218.358C248.698 212.274 251.33 205.356 252.347 198.118C248.151 193.921 242.043 195.087 239.507 195.826Z" fill="url(#paint18_linear_1769_11340)"/>
<path d="M204.116 122.561C203.921 122.744 195.884 138.527 195.884 138.527L204.993 142.927L214.833 129.1C214.833 129.1 207.382 119.487 204.116 122.561Z" fill="url(#paint19_linear_1769_11340)"/>
<path d="M210.692 130.757L206.149 138.33C206.082 138.445 205.998 138.549 205.9 138.64C205.359 139.14 203.508 140.607 202.078 138.614C200.859 136.914 199.714 135.37 198.489 134.733C198.318 134.646 198.132 134.593 197.941 134.578C197.749 134.564 197.557 134.587 197.375 134.647C197.193 134.707 197.024 134.802 196.879 134.928C196.734 135.053 196.615 135.206 196.529 135.378C195.313 137.756 194.274 140.222 193.42 142.753C193.312 143.101 193.338 143.476 193.494 143.805C193.65 144.134 193.925 144.392 194.263 144.527C197.065 145.702 199.992 146.555 202.986 147.072C203.247 147.108 203.512 147.073 203.754 146.97C203.996 146.867 204.206 146.701 204.36 146.488C205.751 144.581 209.675 139.254 211.014 137.92C212.258 136.681 214.554 137.148 215.587 137.445C215.781 137.501 215.984 137.516 216.183 137.49C216.383 137.464 216.575 137.397 216.747 137.293C217.796 136.661 219.628 135.086 217.952 132.421C217.756 132.098 217.693 131.711 217.777 131.342C217.861 130.973 218.085 130.651 218.402 130.445C218.796 130.24 219.142 129.955 219.42 129.609C219.698 129.263 219.901 128.863 220.017 128.435C220.132 128.006 220.158 127.559 220.092 127.12C220.027 126.681 219.871 126.261 219.634 125.885C219.189 125.006 218.468 124.296 217.583 123.862C216.697 123.429 215.694 123.297 214.726 123.485C214.403 123.529 214.074 123.468 213.788 123.309C213.503 123.15 213.276 122.903 213.143 122.605C213.081 122.45 212.979 122.313 212.847 122.21C212.715 122.106 212.559 122.039 212.393 122.014C212.209 121.982 212.033 121.913 211.876 121.812C211.718 121.711 211.582 121.579 211.476 121.425C211.37 121.271 211.296 121.097 211.257 120.914C211.219 120.731 211.217 120.542 211.252 120.358C211.456 119.517 211.36 118.631 210.981 117.852C210.602 117.074 209.963 116.452 209.175 116.094C205.245 113.933 201.802 117.454 200.926 120.427C200.05 123.4 204.445 125.5 207.209 125.85C209.24 126.107 210.353 128.324 210.8 129.481C210.881 129.688 210.913 129.91 210.894 130.132C210.876 130.353 210.807 130.567 210.692 130.757Z" fill="url(#paint20_linear_1769_11340)"/>
<path d="M209.308 140.702C209.308 140.702 211.055 135.588 213.292 135.776C215.529 135.964 217.293 138.192 214.519 140.698C211.068 143.813 209.308 140.702 209.308 140.702Z" fill="url(#paint21_linear_1769_11340)"/>
<path d="M147.908 153.484C159.53 153.484 168.951 144.063 168.951 132.441C168.951 120.819 159.53 111.398 147.908 111.398C136.287 111.398 126.865 120.819 126.865 132.441C126.865 144.063 136.287 153.484 147.908 153.484Z" fill="url(#paint22_linear_1769_11340)"/>
<path d="M147.908 152.783C159.144 152.783 168.251 143.675 168.251 132.44C168.251 121.205 159.144 112.097 147.908 112.097C136.673 112.097 127.565 121.205 127.565 132.44C127.565 143.675 136.673 152.783 147.908 152.783Z" fill="url(#paint23_linear_1769_11340)"/>
<path d="M131.433 123.775C131.372 123.772 131.313 123.755 131.259 123.726C131.168 123.676 131.101 123.592 131.072 123.492C131.043 123.393 131.055 123.286 131.105 123.195C132.81 120.078 135.352 117.498 138.444 115.747C141.535 113.995 145.055 113.142 148.605 113.282C149.764 113.324 150.916 113.47 152.049 113.719C152.15 113.741 152.239 113.803 152.295 113.89C152.35 113.978 152.369 114.084 152.347 114.185C152.324 114.287 152.263 114.375 152.175 114.431C152.088 114.487 151.981 114.505 151.88 114.483C150.795 114.244 149.69 114.104 148.58 114.064C145.175 113.93 141.8 114.749 138.835 116.429C135.87 118.109 133.432 120.582 131.796 123.572C131.761 123.637 131.708 123.69 131.644 123.726C131.58 123.762 131.507 123.779 131.433 123.775Z" fill="white"/>
<path opacity="0.78" d="M160.508 145.074C167.232 138.35 167.232 127.448 160.508 120.724C153.784 114 142.882 114 136.158 120.724C129.434 127.448 129.434 138.35 136.158 145.074C142.882 151.798 153.784 151.798 160.508 145.074Z" fill="white"/>
<path d="M146.181 145.629L146.249 143.757C144.447 143.625 142.683 143.175 141.038 142.427C140.805 142.312 140.622 142.118 140.521 141.879C140.419 141.641 140.407 141.374 140.486 141.127L141.025 139.4C141.071 139.251 141.15 139.114 141.254 138.998C141.358 138.882 141.486 138.789 141.629 138.727C141.772 138.664 141.926 138.633 142.082 138.635C142.238 138.638 142.392 138.673 142.533 138.74C144.043 139.452 145.678 139.86 147.346 139.94C149.225 140.008 150.646 139.422 150.698 138.117C150.741 136.939 149.683 136.198 147.098 135.402C143.408 134.247 140.791 132.524 140.911 129.243C141.019 126.28 143.268 124.097 147.049 123.629L147.117 121.757C147.127 121.468 147.253 121.194 147.465 120.997C147.677 120.8 147.958 120.695 148.248 120.706L149.348 120.746C149.637 120.756 149.91 120.882 150.107 121.094C150.304 121.306 150.409 121.587 150.399 121.877L150.337 123.558C151.753 123.645 153.148 123.949 154.473 124.458C154.727 124.56 154.933 124.754 155.05 125.002C155.167 125.249 155.186 125.532 155.103 125.793L154.603 127.393C154.558 127.538 154.483 127.672 154.383 127.787C154.283 127.901 154.16 127.994 154.023 128.058C153.885 128.122 153.735 128.157 153.583 128.16C153.431 128.163 153.28 128.134 153.14 128.075C151.854 127.531 150.479 127.23 149.084 127.185C146.854 127.104 146.184 128.004 146.153 128.833C146.116 129.852 147.429 130.602 150.295 131.6C154.395 132.994 156.049 134.776 155.936 137.867C155.836 140.702 153.636 143.174 149.536 143.667L149.459 145.762C149.448 146.051 149.323 146.324 149.111 146.521C148.899 146.719 148.617 146.823 148.328 146.813L147.228 146.773C147.084 146.767 146.942 146.733 146.811 146.672C146.681 146.611 146.563 146.525 146.466 146.419C146.369 146.313 146.293 146.188 146.244 146.052C146.195 145.917 146.174 145.773 146.181 145.629Z" fill="#D85745"/>
</g>
<defs>
<linearGradient id="paint0_linear_1769_11340" x1="213.086" y1="11.3539" x2="46.3421" y2="135.727" gradientUnits="userSpaceOnUse">
<stop stop-color="#FFFDFA"/>
<stop offset="1" stop-color="#BCBCBC"/>
</linearGradient>
<linearGradient id="paint1_linear_1769_11340" x1="155.047" y1="-14.3589" x2="94.831" y2="54.4889" gradientUnits="userSpaceOnUse">
<stop stop-color="#2B3582"/>
<stop offset="1" stop-color="#150E42"/>
</linearGradient>
<linearGradient id="paint2_linear_1769_11340" x1="161.154" y1="-9.73918" x2="158.52" y2="65.1138" gradientUnits="userSpaceOnUse">
<stop stop-color="#2B3582"/>
<stop offset="1" stop-color="#150E42"/>
</linearGradient>
<linearGradient id="paint3_linear_1769_11340" x1="156.419" y1="196.014" x2="189.443" y2="196.014" gradientUnits="userSpaceOnUse">
<stop stop-color="#2B3582"/>
<stop offset="1" stop-color="#150E42"/>
</linearGradient>
<linearGradient id="paint4_linear_1769_11340" x1="132.332" y1="185.169" x2="167.585" y2="185.169" gradientUnits="userSpaceOnUse">
<stop stop-color="#F9B776"/>
<stop offset="1" stop-color="#F47960"/>
</linearGradient>
<linearGradient id="paint5_linear_1769_11340" x1="154.196" y1="151.388" x2="118.284" y2="194.887" gradientUnits="userSpaceOnUse">
<stop stop-color="#F9B776"/>
<stop offset="1" stop-color="#F47960"/>
</linearGradient>
<linearGradient id="paint6_linear_1769_11340" x1="153.404" y1="144.489" x2="152.191" y2="153.904" gradientUnits="userSpaceOnUse">
<stop stop-color="#F9B776"/>
<stop offset="1" stop-color="#F47960"/>
</linearGradient>
<linearGradient id="paint7_linear_1769_11340" x1="154.478" y1="151.062" x2="146.279" y2="188.809" gradientUnits="userSpaceOnUse">
<stop stop-color="#F9B776"/>
<stop offset="1" stop-color="#F47960"/>
</linearGradient>
<linearGradient id="paint8_linear_1769_11340" x1="82.7883" y1="159.982" x2="92.6754" y2="141.247" gradientUnits="userSpaceOnUse">
<stop stop-color="#F9B776"/>
<stop offset="1" stop-color="#F47960"/>
</linearGradient>
<linearGradient id="paint9_linear_1769_11340" x1="118.28" y1="185.949" x2="112.268" y2="209.758" gradientUnits="userSpaceOnUse">
<stop stop-color="#F9B776"/>
<stop offset="1" stop-color="#F47960"/>
</linearGradient>
<linearGradient id="paint10_linear_1769_11340" x1="99.1163" y1="131.467" x2="76.0417" y2="145.418" gradientUnits="userSpaceOnUse">
<stop stop-color="#F9B776"/>
<stop offset="1" stop-color="#F47960"/>
</linearGradient>
<linearGradient id="paint11_linear_1769_11340" x1="101.242" y1="77.2131" x2="94.2565" y2="107.022" gradientUnits="userSpaceOnUse">
<stop stop-color="#2B3582"/>
<stop offset="1" stop-color="#150E42"/>
</linearGradient>
<linearGradient id="paint12_linear_1769_11340" x1="96.4432" y1="127.974" x2="72.1502" y2="137.321" gradientUnits="userSpaceOnUse">
<stop stop-color="#F9B776"/>
<stop offset="1" stop-color="#F47960"/>
</linearGradient>
<linearGradient id="paint13_linear_1769_11340" x1="131.694" y1="194.08" x2="140.381" y2="194.08" gradientUnits="userSpaceOnUse">
<stop stop-color="#F9B776"/>
<stop offset="1" stop-color="#F47960"/>
</linearGradient>
<linearGradient id="paint14_linear_1769_11340" x1="211.219" y1="149.907" x2="207.632" y2="132.521" gradientUnits="userSpaceOnUse">
<stop stop-color="#F9B776"/>
<stop offset="1" stop-color="#F47960"/>
</linearGradient>
<linearGradient id="paint15_linear_1769_11340" x1="209.998" y1="199.378" x2="269.442" y2="199.378" gradientUnits="userSpaceOnUse">
<stop stop-color="#53D8FF"/>
<stop offset="1" stop-color="#3840F7"/>
</linearGradient>
<linearGradient id="paint16_linear_1769_11340" x1="265.079" y1="167.498" x2="191.684" y2="332.756" gradientUnits="userSpaceOnUse">
<stop stop-color="#53D8FF"/>
<stop offset="1" stop-color="#3840F7"/>
</linearGradient>
<linearGradient id="paint17_linear_1769_11340" x1="262.135" y1="140.71" x2="238.332" y2="257.976" gradientUnits="userSpaceOnUse">
<stop stop-color="#CB236D"/>
<stop offset="1" stop-color="#4C246D"/>
</linearGradient>
<linearGradient id="paint18_linear_1769_11340" x1="245.535" y1="199.301" x2="223.094" y2="231.85" gradientUnits="userSpaceOnUse">
<stop stop-color="#F9B776"/>
<stop offset="1" stop-color="#F47960"/>
</linearGradient>
<linearGradient id="paint19_linear_1769_11340" x1="301.828" y1="359.95" x2="279.053" y2="384.559" gradientUnits="userSpaceOnUse">
<stop stop-color="#F9B776"/>
<stop offset="1" stop-color="#F47960"/>
</linearGradient>
<linearGradient id="paint20_linear_1769_11340" x1="191.828" y1="113.052" x2="215.193" y2="137.77" gradientUnits="userSpaceOnUse">
<stop stop-color="#CB236D"/>
<stop offset="1" stop-color="#4C246D"/>
</linearGradient>
<linearGradient id="paint21_linear_1769_11340" x1="272.079" y1="381.218" x2="287.519" y2="363.734" gradientUnits="userSpaceOnUse">
<stop stop-color="#F9B776"/>
<stop offset="1" stop-color="#F47960"/>
</linearGradient>
<linearGradient id="paint22_linear_1769_11340" x1="205.65" y1="179.577" x2="233.89" y2="146.834" gradientUnits="userSpaceOnUse">
<stop stop-color="#FDF53F"/>
<stop offset="1" stop-color="#D93C65"/>
</linearGradient>
<linearGradient id="paint23_linear_1769_11340" x1="249.827" y1="122.919" x2="166.339" y2="249.005" gradientUnits="userSpaceOnUse">
<stop stop-color="#FDF53F"/>
<stop offset="1" stop-color="#D93C65"/>
</linearGradient>
<clipPath id="clip0_1769_11340">
<rect width="229.504" height="230.108" fill="white" transform="translate(40 1)"/>
</clipPath>
</defs>
</svg>
