<svg width="406" height="87" viewBox="0 0 406 87" fill="none" xmlns="http://www.w3.org/2000/svg">
<path d="M166.168 83V81.16L169.752 77.432C170.2 76.9627 170.525 76.5467 170.728 76.184C170.931 75.8213 171.032 75.448 171.032 75.064C171.032 74.584 170.877 74.2213 170.568 73.976C170.259 73.7307 169.816 73.608 169.24 73.608C168.76 73.608 168.285 73.6987 167.816 73.88C167.357 74.0507 166.904 74.3173 166.456 74.68L165.672 72.856C166.141 72.4507 166.723 72.1307 167.416 71.896C168.109 71.6613 168.829 71.544 169.576 71.544C170.835 71.544 171.8 71.8267 172.472 72.392C173.144 72.9467 173.48 73.7413 173.48 74.776C173.48 75.4693 173.32 76.1307 173 76.76C172.68 77.3893 172.163 78.056 171.448 78.76L168.568 81.592V80.952H173.912V83H166.168ZM179.394 83.176C178.892 83.176 178.396 83.1227 177.906 83.016C177.415 82.9093 176.956 82.7653 176.53 82.584C176.103 82.392 175.746 82.168 175.458 81.912L176.242 80.056C176.722 80.3973 177.223 80.6587 177.746 80.84C178.268 81.0213 178.802 81.112 179.346 81.112C179.964 81.112 180.444 80.968 180.786 80.68C181.138 80.3813 181.314 79.976 181.314 79.464C181.314 78.952 181.148 78.5413 180.818 78.232C180.487 77.9227 180.034 77.768 179.458 77.768C179.052 77.768 178.674 77.8427 178.322 77.992C177.98 78.1413 177.671 78.3707 177.394 78.68H175.794V71.72H182.994V73.752H178.146V76.808H177.57C177.836 76.4773 178.188 76.2213 178.626 76.04C179.063 75.8587 179.554 75.768 180.098 75.768C180.823 75.768 181.452 75.9227 181.986 76.232C182.53 76.5307 182.951 76.952 183.25 77.496C183.548 78.0293 183.698 78.6587 183.698 79.384C183.698 80.1307 183.522 80.792 183.17 81.368C182.828 81.9333 182.332 82.376 181.682 82.696C181.042 83.016 180.279 83.176 179.394 83.176ZM186.124 85.304L185.18 84.552C185.553 84.1787 185.82 83.8267 185.98 83.496C186.14 83.1653 186.22 82.808 186.22 82.424L186.732 83H184.972V80.44H187.564V82.088C187.564 82.696 187.457 83.2507 187.244 83.752C187.03 84.2533 186.657 84.7707 186.124 85.304ZM193.144 83.176C191.789 83.176 190.744 82.6693 190.008 81.656C189.282 80.632 188.92 79.192 188.92 77.336C188.92 75.448 189.282 74.0133 190.008 73.032C190.744 72.04 191.789 71.544 193.144 71.544C194.509 71.544 195.554 72.04 196.28 73.032C197.005 74.0133 197.368 75.4427 197.368 77.32C197.368 79.1867 197.005 80.632 196.28 81.656C195.554 82.6693 194.509 83.176 193.144 83.176ZM193.144 81.16C193.762 81.16 194.221 80.856 194.52 80.248C194.829 79.6293 194.984 78.6533 194.984 77.32C194.984 75.9867 194.829 75.0267 194.52 74.44C194.221 73.8533 193.762 73.56 193.144 73.56C192.525 73.56 192.061 73.8533 191.752 74.44C191.453 75.0267 191.304 75.9813 191.304 77.304C191.304 78.648 191.458 79.6293 191.768 80.248C192.077 80.856 192.536 81.16 193.144 81.16ZM202.738 83.176C201.383 83.176 200.338 82.6693 199.602 81.656C198.876 80.632 198.514 79.192 198.514 77.336C198.514 75.448 198.876 74.0133 199.602 73.032C200.338 72.04 201.383 71.544 202.738 71.544C204.103 71.544 205.148 72.04 205.874 73.032C206.599 74.0133 206.962 75.4427 206.962 77.32C206.962 79.1867 206.599 80.632 205.874 81.656C205.148 82.6693 204.103 83.176 202.738 83.176ZM202.738 81.16C203.356 81.16 203.815 80.856 204.114 80.248C204.423 79.6293 204.578 78.6533 204.578 77.32C204.578 75.9867 204.423 75.0267 204.114 74.44C203.815 73.8533 203.356 73.56 202.738 73.56C202.119 73.56 201.655 73.8533 201.346 74.44C201.047 75.0267 200.898 75.9813 200.898 77.304C200.898 78.648 201.052 79.6293 201.362 80.248C201.671 80.856 202.13 81.16 202.738 81.16ZM212.331 83.176C210.977 83.176 209.931 82.6693 209.195 81.656C208.47 80.632 208.107 79.192 208.107 77.336C208.107 75.448 208.47 74.0133 209.195 73.032C209.931 72.04 210.977 71.544 212.331 71.544C213.697 71.544 214.742 72.04 215.467 73.032C216.193 74.0133 216.555 75.4427 216.555 77.32C216.555 79.1867 216.193 80.632 215.467 81.656C214.742 82.6693 213.697 83.176 212.331 83.176ZM212.331 81.16C212.95 81.16 213.409 80.856 213.707 80.248C214.017 79.6293 214.171 78.6533 214.171 77.32C214.171 75.9867 214.017 75.0267 213.707 74.44C213.409 73.8533 212.95 73.56 212.331 73.56C211.713 73.56 211.249 73.8533 210.939 74.44C210.641 75.0267 210.491 75.9813 210.491 77.304C210.491 78.648 210.646 79.6293 210.955 80.248C211.265 80.856 211.723 81.16 212.331 81.16ZM221.125 84.84V82.712L221.557 83.096C220.768 83.0747 220.026 82.9573 219.333 82.744C218.64 82.5307 218.048 82.2373 217.557 81.864L218.261 79.912C218.752 80.264 219.306 80.5413 219.925 80.744C220.544 80.9467 221.194 81.048 221.877 81.048C222.613 81.048 223.141 80.9307 223.461 80.696C223.781 80.4507 223.941 80.1573 223.941 79.816C223.941 79.528 223.829 79.2933 223.605 79.112C223.381 78.9307 222.992 78.776 222.437 78.648L220.677 78.264C219.696 78.0507 218.965 77.688 218.485 77.176C218.005 76.6533 217.765 75.976 217.765 75.144C217.765 74.504 217.92 73.9333 218.229 73.432C218.549 72.9307 218.986 72.5253 219.541 72.216C220.106 71.9067 220.768 71.72 221.525 71.656L221.125 71.912V69.88H223.029V71.912L222.629 71.624C223.258 71.6667 223.872 71.7947 224.469 72.008C225.066 72.2107 225.557 72.504 225.941 72.888L225.237 74.712C224.842 74.3707 224.384 74.1147 223.861 73.944C223.338 73.7627 222.773 73.672 222.165 73.672C221.525 73.672 221.024 73.8 220.661 74.056C220.309 74.312 220.133 74.6427 220.133 75.048C220.133 75.3467 220.24 75.592 220.453 75.784C220.677 75.9653 221.056 76.1147 221.589 76.232L223.333 76.616C224.346 76.8293 225.098 77.1867 225.589 77.688C226.09 78.1893 226.341 78.84 226.341 79.64C226.341 80.2693 226.186 80.8293 225.877 81.32C225.568 81.8 225.141 82.1893 224.597 82.488C224.053 82.7867 223.418 82.9787 222.693 83.064L223.029 82.696V84.84H221.125Z" fill="#1985D2"/>
<path d="M331.102 79.126C330.43 79.126 329.786 79.028 329.17 78.832C328.554 78.6267 328.041 78.3373 327.63 77.964L328.134 76.858C328.591 77.2127 329.058 77.474 329.534 77.642C330.01 77.81 330.519 77.894 331.06 77.894C331.751 77.894 332.273 77.7493 332.628 77.46C332.992 77.1707 333.174 76.7553 333.174 76.214C333.174 75.682 332.992 75.2807 332.628 75.01C332.273 74.73 331.746 74.59 331.046 74.59H329.52V73.414H330.934C331.531 73.414 332.007 73.2647 332.362 72.966C332.717 72.658 332.894 72.2427 332.894 71.72C332.894 71.244 332.731 70.88 332.404 70.628C332.077 70.3667 331.611 70.236 331.004 70.236C329.977 70.236 329.077 70.5953 328.302 71.314L327.812 70.208C328.195 69.8253 328.68 69.5313 329.268 69.326C329.856 69.1113 330.472 69.004 331.116 69.004C332.105 69.004 332.885 69.2327 333.454 69.69C334.023 70.138 334.308 70.7633 334.308 71.566C334.308 72.1727 334.135 72.6907 333.79 73.12C333.454 73.5493 332.992 73.834 332.404 73.974V73.82C333.104 73.932 333.641 74.212 334.014 74.66C334.397 75.0987 334.588 75.6493 334.588 76.312C334.588 77.1893 334.275 77.88 333.65 78.384C333.034 78.8787 332.185 79.126 331.102 79.126ZM339.595 79.126C338.456 79.126 337.579 78.692 336.963 77.824C336.356 76.9467 336.053 75.6913 336.053 74.058C336.053 72.3967 336.356 71.1413 336.963 70.292C337.579 69.4333 338.456 69.004 339.595 69.004C340.743 69.004 341.62 69.4333 342.227 70.292C342.833 71.1413 343.137 72.392 343.137 74.044C343.137 75.6867 342.829 76.9467 342.213 77.824C341.606 78.692 340.733 79.126 339.595 79.126ZM339.595 77.908C340.313 77.908 340.845 77.5953 341.191 76.97C341.545 76.3447 341.723 75.3693 341.723 74.044C341.723 72.7093 341.545 71.7387 341.191 71.132C340.845 70.516 340.313 70.208 339.595 70.208C338.885 70.208 338.353 70.516 337.999 71.132C337.644 71.7387 337.467 72.7047 337.467 74.03C337.467 75.3647 337.644 76.3447 337.999 76.97C338.363 77.5953 338.895 77.908 339.595 77.908ZM345.329 80.722L344.713 80.246C344.984 79.9567 345.166 79.6907 345.259 79.448C345.362 79.2053 345.413 78.9533 345.413 78.692L345.721 79H344.615V77.334H346.281V78.468C346.281 78.888 346.211 79.2753 346.071 79.63C345.931 79.994 345.684 80.358 345.329 80.722ZM351.311 79.126C350.173 79.126 349.295 78.692 348.679 77.824C348.073 76.9467 347.769 75.6913 347.769 74.058C347.769 72.3967 348.073 71.1413 348.679 70.292C349.295 69.4333 350.173 69.004 351.311 69.004C352.459 69.004 353.337 69.4333 353.943 70.292C354.55 71.1413 354.853 72.392 354.853 74.044C354.853 75.6867 354.545 76.9467 353.929 77.824C353.323 78.692 352.45 79.126 351.311 79.126ZM351.311 77.908C352.03 77.908 352.562 77.5953 352.907 76.97C353.262 76.3447 353.439 75.3693 353.439 74.044C353.439 72.7093 353.262 71.7387 352.907 71.132C352.562 70.516 352.03 70.208 351.311 70.208C350.602 70.208 350.07 70.516 349.715 71.132C349.361 71.7387 349.183 72.7047 349.183 74.03C349.183 75.3647 349.361 76.3447 349.715 76.97C350.079 77.5953 350.611 77.908 351.311 77.908ZM359.706 79.126C358.567 79.126 357.69 78.692 357.074 77.824C356.467 76.9467 356.164 75.6913 356.164 74.058C356.164 72.3967 356.467 71.1413 357.074 70.292C357.69 69.4333 358.567 69.004 359.706 69.004C360.854 69.004 361.731 69.4333 362.338 70.292C362.945 71.1413 363.248 72.392 363.248 74.044C363.248 75.6867 362.94 76.9467 362.324 77.824C361.717 78.692 360.845 79.126 359.706 79.126ZM359.706 77.908C360.425 77.908 360.957 77.5953 361.302 76.97C361.657 76.3447 361.834 75.3693 361.834 74.044C361.834 72.7093 361.657 71.7387 361.302 71.132C360.957 70.516 360.425 70.208 359.706 70.208C358.997 70.208 358.465 70.516 358.11 71.132C357.755 71.7387 357.578 72.7047 357.578 74.03C357.578 75.3647 357.755 76.3447 358.11 76.97C358.474 77.5953 359.006 77.908 359.706 77.908ZM368.1 79.126C366.962 79.126 366.084 78.692 365.468 77.824C364.862 76.9467 364.558 75.6913 364.558 74.058C364.558 72.3967 364.862 71.1413 365.468 70.292C366.084 69.4333 366.962 69.004 368.1 69.004C369.248 69.004 370.126 69.4333 370.732 70.292C371.339 71.1413 371.642 72.392 371.642 74.044C371.642 75.6867 371.334 76.9467 370.718 77.824C370.112 78.692 369.239 79.126 368.1 79.126ZM368.1 77.908C368.819 77.908 369.351 77.5953 369.696 76.97C370.051 76.3447 370.228 75.3693 370.228 74.044C370.228 72.7093 370.051 71.7387 369.696 71.132C369.351 70.516 368.819 70.208 368.1 70.208C367.391 70.208 366.859 70.516 366.504 71.132C366.15 71.7387 365.972 72.7047 365.972 74.03C365.972 75.3647 366.15 76.3447 366.504 76.97C366.868 77.5953 367.4 77.908 368.1 77.908ZM376.061 80.61V78.804L376.341 79.07C375.66 79.0607 375.02 78.9627 374.423 78.776C373.826 78.58 373.303 78.2953 372.855 77.922L373.331 76.774C373.779 77.1287 374.255 77.3947 374.759 77.572C375.272 77.7493 375.851 77.838 376.495 77.838C377.251 77.838 377.806 77.698 378.161 77.418C378.525 77.1287 378.707 76.7647 378.707 76.326C378.707 75.962 378.576 75.6727 378.315 75.458C378.063 75.2433 377.634 75.0707 377.027 74.94L375.585 74.632C374.726 74.4453 374.092 74.1373 373.681 73.708C373.27 73.2787 373.065 72.7093 373.065 72C373.065 71.4493 373.196 70.9593 373.457 70.53C373.728 70.1007 374.101 69.76 374.577 69.508C375.062 69.256 375.627 69.1113 376.271 69.074L376.061 69.27V67.52H377.209V69.27L376.971 69.074C377.494 69.0927 378.012 69.2 378.525 69.396C379.038 69.5827 379.472 69.8627 379.827 70.236L379.365 71.342C379.001 70.9873 378.59 70.726 378.133 70.558C377.676 70.3807 377.172 70.292 376.621 70.292C375.949 70.292 375.417 70.446 375.025 70.754C374.642 71.062 374.451 71.4633 374.451 71.958C374.451 72.3313 374.572 72.6347 374.815 72.868C375.058 73.1013 375.459 73.2787 376.019 73.4L377.461 73.708C378.357 73.8947 379.024 74.1933 379.463 74.604C379.902 75.0147 380.121 75.5607 380.121 76.242C380.121 76.774 379.986 77.2453 379.715 77.656C379.444 78.0573 379.071 78.3793 378.595 78.622C378.128 78.8553 377.587 79 376.971 79.056L377.209 78.79V80.61H376.061Z" fill="#303030"/>
<path d="M34.162 79V77.922L37.55 74.38C37.9887 73.9227 38.3153 73.4933 38.53 73.092C38.7447 72.6907 38.852 72.2753 38.852 71.846C38.852 71.314 38.684 70.9127 38.348 70.642C38.0213 70.3713 37.5453 70.236 36.92 70.236C36.4253 70.236 35.9587 70.3247 35.52 70.502C35.0907 70.6793 34.6753 70.95 34.274 71.314L33.77 70.208C34.162 69.844 34.6473 69.5547 35.226 69.34C35.814 69.116 36.4347 69.004 37.088 69.004C38.1147 69.004 38.9033 69.2373 39.454 69.704C40.014 70.1707 40.294 70.838 40.294 71.706C40.294 72.322 40.1447 72.9147 39.846 73.484C39.5473 74.044 39.0993 74.6227 38.502 75.22L35.576 78.174V77.782H40.7V79H34.162ZM45.5945 79.126C44.4559 79.126 43.5785 78.692 42.9625 77.824C42.3559 76.9467 42.0525 75.6913 42.0525 74.058C42.0525 72.3967 42.3559 71.1413 42.9625 70.292C43.5785 69.4333 44.4559 69.004 45.5945 69.004C46.7425 69.004 47.6199 69.4333 48.2265 70.292C48.8332 71.1413 49.1365 72.392 49.1365 74.044C49.1365 75.6867 48.8285 76.9467 48.2125 77.824C47.6059 78.692 46.7332 79.126 45.5945 79.126ZM45.5945 77.908C46.3132 77.908 46.8452 77.5953 47.1905 76.97C47.5452 76.3447 47.7225 75.3693 47.7225 74.044C47.7225 72.7093 47.5452 71.7387 47.1905 71.132C46.8452 70.516 46.3132 70.208 45.5945 70.208C44.8852 70.208 44.3532 70.516 43.9985 71.132C43.6439 71.7387 43.4665 72.7047 43.4665 74.03C43.4665 75.3647 43.6439 76.3447 43.9985 76.97C44.3625 77.5953 44.8945 77.908 45.5945 77.908ZM51.3291 80.722L50.7131 80.246C50.9837 79.9567 51.1657 79.6907 51.2591 79.448C51.3617 79.2053 51.4131 78.9533 51.4131 78.692L51.7211 79H50.6151V77.334H52.2811V78.468C52.2811 78.888 52.2111 79.2753 52.0711 79.63C51.9311 79.994 51.6837 80.358 51.3291 80.722ZM57.3113 79.126C56.1727 79.126 55.2953 78.692 54.6793 77.824C54.0727 76.9467 53.7693 75.6913 53.7693 74.058C53.7693 72.3967 54.0727 71.1413 54.6793 70.292C55.2953 69.4333 56.1727 69.004 57.3113 69.004C58.4593 69.004 59.3367 69.4333 59.9433 70.292C60.55 71.1413 60.8533 72.392 60.8533 74.044C60.8533 75.6867 60.5453 76.9467 59.9293 77.824C59.3227 78.692 58.45 79.126 57.3113 79.126ZM57.3113 77.908C58.03 77.908 58.562 77.5953 58.9073 76.97C59.262 76.3447 59.4393 75.3693 59.4393 74.044C59.4393 72.7093 59.262 71.7387 58.9073 71.132C58.562 70.516 58.03 70.208 57.3113 70.208C56.602 70.208 56.07 70.516 55.7153 71.132C55.3607 71.7387 55.1833 72.7047 55.1833 74.03C55.1833 75.3647 55.3607 76.3447 55.7153 76.97C56.0793 77.5953 56.6113 77.908 57.3113 77.908ZM65.7059 79.126C64.5672 79.126 63.6899 78.692 63.0739 77.824C62.4672 76.9467 62.1639 75.6913 62.1639 74.058C62.1639 72.3967 62.4672 71.1413 63.0739 70.292C63.6899 69.4333 64.5672 69.004 65.7059 69.004C66.8539 69.004 67.7312 69.4333 68.3379 70.292C68.9445 71.1413 69.2479 72.392 69.2479 74.044C69.2479 75.6867 68.9399 76.9467 68.3239 77.824C67.7172 78.692 66.8445 79.126 65.7059 79.126ZM65.7059 77.908C66.4245 77.908 66.9565 77.5953 67.3019 76.97C67.6565 76.3447 67.8339 75.3693 67.8339 74.044C67.8339 72.7093 67.6565 71.7387 67.3019 71.132C66.9565 70.516 66.4245 70.208 65.7059 70.208C64.9965 70.208 64.4645 70.516 64.1099 71.132C63.7552 71.7387 63.5779 72.7047 63.5779 74.03C63.5779 75.3647 63.7552 76.3447 64.1099 76.97C64.4739 77.5953 65.0059 77.908 65.7059 77.908ZM74.1004 79.126C72.9617 79.126 72.0844 78.692 71.4684 77.824C70.8617 76.9467 70.5584 75.6913 70.5584 74.058C70.5584 72.3967 70.8617 71.1413 71.4684 70.292C72.0844 69.4333 72.9617 69.004 74.1004 69.004C75.2484 69.004 76.1257 69.4333 76.7324 70.292C77.3391 71.1413 77.6424 72.392 77.6424 74.044C77.6424 75.6867 77.3344 76.9467 76.7184 77.824C76.1117 78.692 75.2391 79.126 74.1004 79.126ZM74.1004 77.908C74.8191 77.908 75.3511 77.5953 75.6964 76.97C76.0511 76.3447 76.2284 75.3693 76.2284 74.044C76.2284 72.7093 76.0511 71.7387 75.6964 71.132C75.3511 70.516 74.8191 70.208 74.1004 70.208C73.3911 70.208 72.8591 70.516 72.5044 71.132C72.1497 71.7387 71.9724 72.7047 71.9724 74.03C71.9724 75.3647 72.1497 76.3447 72.5044 76.97C72.8684 77.5953 73.4004 77.908 74.1004 77.908ZM82.0609 80.61V78.804L82.3409 79.07C81.6596 79.0607 81.0203 78.9627 80.4229 78.776C79.8256 78.58 79.3029 78.2953 78.8549 77.922L79.3309 76.774C79.7789 77.1287 80.2549 77.3947 80.7589 77.572C81.2723 77.7493 81.8509 77.838 82.4949 77.838C83.2509 77.838 83.8063 77.698 84.1609 77.418C84.5249 77.1287 84.7069 76.7647 84.7069 76.326C84.7069 75.962 84.5763 75.6727 84.3149 75.458C84.0629 75.2433 83.6336 75.0707 83.0269 74.94L81.5849 74.632C80.7263 74.4453 80.0916 74.1373 79.6809 73.708C79.2703 73.2787 79.0649 72.7093 79.0649 72C79.0649 71.4493 79.1956 70.9593 79.4569 70.53C79.7276 70.1007 80.1009 69.76 80.5769 69.508C81.0623 69.256 81.6269 69.1113 82.2709 69.074L82.0609 69.27V67.52H83.2089V69.27L82.9709 69.074C83.4936 69.0927 84.0116 69.2 84.5249 69.396C85.0383 69.5827 85.4723 69.8627 85.8269 70.236L85.3649 71.342C85.0009 70.9873 84.5903 70.726 84.1329 70.558C83.6756 70.3807 83.1716 70.292 82.6209 70.292C81.9489 70.292 81.4169 70.446 81.0249 70.754C80.6423 71.062 80.4509 71.4633 80.4509 71.958C80.4509 72.3313 80.5723 72.6347 80.8149 72.868C81.0576 73.1013 81.4589 73.2787 82.0189 73.4L83.4609 73.708C84.3569 73.8947 85.0243 74.1933 85.4629 74.604C85.9016 75.0147 86.1209 75.5607 86.1209 76.242C86.1209 76.774 85.9856 77.2453 85.7149 77.656C85.4443 78.0573 85.0709 78.3793 84.5949 78.622C84.1283 78.8553 83.5869 79 82.9709 79.056L83.2089 78.79V80.61H82.0609Z" fill="#303030"/>
<g filter="url(#filter0_d_2101_4866)">
<rect x="8" y="11" width="390" height="40" rx="12" fill="#F5F5F5"/>
</g>
<rect x="8" y="11" width="390" height="40" rx="12" fill="url(#paint0_linear_2101_4866)"/>
<path d="M60 1L60 61" stroke="#1985D2" stroke-width="2" stroke-linecap="round"/>
<path d="M354 1L354 61" stroke="#1985D2" stroke-width="2" stroke-linecap="round"/>
<g clip-path="url(#clip0_2101_4866)">
<path d="M196.365 63.4099C196.167 63.6206 195.833 63.6206 195.635 63.4099L188.789 56.1076C188.49 55.7883 188.716 55.2656 189.154 55.2656H202.846C203.284 55.2656 203.51 55.7883 203.211 56.1076L196.365 63.4099Z" fill="#1985D2"/>
</g>
<defs>
<filter id="filter0_d_2101_4866" x="0" y="3" width="406" height="56" filterUnits="userSpaceOnUse" color-interpolation-filters="sRGB">
<feFlood flood-opacity="0" result="BackgroundImageFix"/>
<feColorMatrix in="SourceAlpha" type="matrix" values="0 0 0 0 0 0 0 0 0 0 0 0 0 0 0 0 0 0 127 0" result="hardAlpha"/>
<feOffset/>
<feGaussianBlur stdDeviation="4"/>
<feComposite in2="hardAlpha" operator="out"/>
<feColorMatrix type="matrix" values="0 0 0 0 0 0 0 0 0 0 0 0 0 0 0 0 0 0 0.12 0"/>
<feBlend mode="normal" in2="BackgroundImageFix" result="effect1_dropShadow_2101_4866"/>
<feBlend mode="normal" in="SourceGraphic" in2="effect1_dropShadow_2101_4866" result="shape"/>
</filter>
<linearGradient id="paint0_linear_2101_4866" x1="-3.95755" y1="31" x2="408.118" y2="31" gradientUnits="userSpaceOnUse">
<stop stop-color="#1985D2" stop-opacity="0"/>
<stop offset="0.0001" stop-color="#1985D2" stop-opacity="0"/>
<stop offset="0.485" stop-color="#1985D2"/>
<stop offset="1" stop-color="#1985D2" stop-opacity="0.030728"/>
</linearGradient>
<clipPath id="clip0_2101_4866">
<rect width="16" height="16" fill="white" transform="translate(188 51)"/>
</clipPath>
</defs>
</svg>
