<svg width="380" height="260" viewBox="0 0 380 260" fill="none" xmlns="http://www.w3.org/2000/svg">
<g clip-path="url(#clip0_1687_6403)">
<path d="M362.293 91.0415C362.973 91.7907 363.494 92.6693 363.827 93.6247C364.159 94.5801 364.295 95.5928 364.227 96.6021C364.076 98.6254 363.461 100.587 362.431 102.334C360.259 105.776 357.23 108.594 353.64 110.511C352.281 106.895 352.289 102.908 353.662 99.2978C354.871 95.4295 359.387 89.1992 362.297 91.0391" fill="#EBEBEB"/>
<path d="M354.72 117.892C354.937 116.78 355.443 115.746 356.188 114.894C356.932 114.041 357.889 113.401 358.961 113.037C360.038 112.693 361.173 112.567 362.299 112.665C363.425 112.763 364.521 113.083 365.523 113.607C366.008 113.8 366.447 114.096 366.806 114.476C367.166 114.855 367.439 115.308 367.607 115.803C367.683 116.286 367.629 116.781 367.45 117.237C367.27 117.692 366.972 118.091 366.586 118.392C365.806 118.985 364.883 119.362 363.91 119.485C362.355 119.907 360.727 119.983 359.14 119.708C357.553 119.433 356.045 118.814 354.723 117.894" fill="#EBEBEB"/>
<path d="M346.317 127.306C346.434 127.063 346.571 126.831 346.728 126.612L347.915 124.767C349.166 122.684 350.745 120.818 352.593 119.24C354.481 117.683 356.747 116.655 359.162 116.259C359.89 116.152 360.629 116.132 361.362 116.199C361.623 116.216 361.821 116.267 361.954 116.281C362.025 116.288 362.094 116.306 362.16 116.332C361.168 116.272 360.172 116.313 359.189 116.453C356.828 116.896 354.618 117.93 352.765 119.458C350.943 121.022 349.363 122.847 348.075 124.874C347.547 125.633 347.122 126.249 346.817 126.67C346.673 126.899 346.505 127.112 346.317 127.306Z" fill="#E0E0E0"/>
<path d="M359.267 96.1094C359.251 96.2259 359.219 96.3397 359.173 96.4478C359.09 96.6896 358.979 97.0087 358.846 97.3956C358.558 98.2151 358.121 99.4022 357.582 100.86C356.489 103.776 354.922 107.782 353.109 112.167C351.296 116.553 349.541 120.487 348.242 123.313C347.594 124.727 347.055 125.868 346.681 126.649C346.497 127.022 346.354 127.314 346.238 127.546C346.193 127.654 346.136 127.756 346.066 127.851C346.093 127.737 346.134 127.628 346.187 127.524C346.286 127.283 346.429 126.98 346.581 126.603C346.946 125.772 347.452 124.63 348.066 123.219C349.318 120.371 351.032 116.43 352.855 112.044C354.678 107.659 356.269 103.669 357.405 100.771C357.966 99.3466 358.421 98.1813 358.752 97.34C358.907 96.958 359.03 96.6533 359.129 96.4091C359.162 96.3038 359.209 96.2031 359.267 96.1094Z" fill="#E0E0E0"/>
<path d="M348.59 117.929C349.12 115.602 349.088 113.181 348.496 110.869C347.904 108.556 346.769 106.418 345.186 104.632C344.376 103.735 343.184 102.874 342.043 103.285C340.902 103.696 340.53 105.125 340.508 106.339C340.504 108.871 341.25 111.348 342.653 113.457C344.056 115.565 346.052 117.211 348.389 118.185" fill="#EBEBEB"/>
<path d="M344.282 108.25C344.474 108.415 344.65 108.597 344.809 108.794C345.011 109.01 345.2 109.238 345.375 109.476C345.575 109.759 345.834 110.058 346.061 110.443C346.289 110.827 346.559 111.214 346.787 111.673C347.048 112.155 347.283 112.65 347.49 113.158C347.96 114.325 348.298 115.542 348.498 116.784C348.676 118.029 348.709 119.289 348.597 120.541C348.547 121.087 348.466 121.629 348.356 122.166C348.264 122.634 348.145 123.097 348 123.551C347.887 123.928 347.754 124.299 347.601 124.661C347.5 124.939 347.38 125.21 347.241 125.471C347.145 125.705 347.022 125.928 346.876 126.136C346.821 126.109 347.331 125.154 347.807 123.491C347.938 123.039 348.044 122.579 348.124 122.115C348.227 121.585 348.301 121.05 348.346 120.512C348.442 119.281 348.401 118.043 348.225 116.821C348.032 115.601 347.708 114.407 347.258 113.257C347.061 112.754 346.838 112.262 346.588 111.782C346.378 111.36 346.147 110.95 345.895 110.552C344.973 109.077 344.231 108.289 344.282 108.25Z" fill="#E0E0E0"/>
<path d="M17.8742 56.5087C17.8742 56.5087 12.7754 58.1551 17.7195 69.0805C20.1723 74.7282 22.9992 80.2059 26.1813 85.4771C26.1813 85.4771 27.0299 87.9987 24.9289 88.2864C22.828 88.5741 18.2659 87.6264 17.2142 90.1311C16.1287 92.7373 17.9395 95.3242 21.7304 97.6959C25.5213 100.068 33.6591 105.577 34.3892 106.083C35.1194 106.588 35.7963 107.763 34.3892 108.189C32.9822 108.614 22.6007 109.209 23.1762 114.119C23.7516 119.029 35.4192 123.908 36.6836 124.467C37.948 125.025 38.2309 125.586 38.0907 126.285C37.9504 126.983 34.4424 126.855 31.4953 127.15C28.5482 127.445 25.1828 128.291 25.7534 131.096C26.3239 133.9 33.0813 140.058 50.0702 142.531L58.0194 143.162L62.671 136.635C71.7662 122.068 71.4398 112.942 69.6653 110.688C67.8907 108.435 65.0717 110.447 62.9418 112.519C60.8118 114.591 58.6456 117.342 58.0194 116.991C57.3932 116.641 57.1491 116.065 57.5359 114.74C57.9227 113.416 61.7474 101.361 58.3724 97.7467C54.9973 94.1323 47.829 101.671 46.6008 102.468C45.3726 103.266 44.9085 101.97 44.9979 101.105C45.0874 100.239 46.1463 90.4671 46.7894 86.0283C47.4325 81.5895 46.6226 78.5336 43.9341 77.6922C41.34 76.8727 39.1182 80.9633 37.537 82.3825C35.9559 83.8016 34.5826 81.5242 34.5826 81.5242C32.6191 75.6859 30.2697 69.9846 27.5497 64.458C22.4049 53.6172 17.7558 56.5377 17.7558 56.5377" fill="#EBEBEB"/>
<path d="M58.3466 145.056C54.5992 137.078 48.1924 122.785 42.6052 110.547C37.018 98.3085 31.9675 87.2332 28.2661 79.2404C26.4142 75.2489 24.9128 72.0189 23.866 69.7729C23.351 68.6632 22.9521 67.7953 22.6741 67.2005C22.5411 66.9128 22.4323 66.6904 22.3694 66.5308C22.3066 66.3713 22.2751 66.2891 22.2751 66.2891C22.2751 66.2891 22.3187 66.3616 22.3912 66.5115C22.4637 66.6614 22.5798 66.8887 22.7176 67.1715C23.0053 67.7638 23.4211 68.6221 23.953 69.727C25.0216 71.944 26.552 75.1691 28.4208 79.1558C32.1682 87.1341 37.2501 98.1949 42.8252 110.433C48.4003 122.671 54.7999 136.991 58.4916 144.984" fill="#E0E0E0"/>
<path d="M23.5425 91.7266C23.7317 91.767 23.9158 91.8286 24.0913 91.9103C24.4394 92.0384 24.9326 92.2439 25.5419 92.4978C26.7507 93.0128 28.4286 93.7671 30.2587 94.6326L34.9248 96.8616C35.4857 97.1276 35.962 97.3452 36.344 97.5265C36.5242 97.594 36.6955 97.6833 36.8541 97.7924C36.6654 97.7532 36.4814 97.6941 36.3053 97.6159C35.9571 97.483 35.4639 97.2823 34.8547 97.0164C33.6458 96.4893 31.9777 95.7133 30.1548 94.8405C28.3319 93.9677 26.7241 93.2279 25.4766 92.6452L24.0526 91.9852C23.8727 91.9201 23.7014 91.8332 23.5425 91.7266Z" fill="#E0E0E0"/>
<path d="M37.4247 97.3013C37.3643 97.2747 38.7617 93.7642 40.5677 89.4632C42.3737 85.1622 43.8654 81.6977 43.9258 81.7267C43.9863 81.7558 42.5889 85.2637 40.7829 89.5648C38.9769 93.8658 37.4924 97.3206 37.4247 97.3013Z" fill="#E0E0E0"/>
<path d="M45.1409 116.473C45.2376 116.3 45.3527 116.138 45.4842 115.99C45.7549 115.656 46.0886 115.236 46.4875 114.742C47.3361 113.688 48.4942 112.23 49.7199 110.574C50.9457 108.918 52.0046 107.381 52.7637 106.261C53.1191 105.734 53.4237 105.294 53.6607 104.936C53.7611 104.766 53.8803 104.608 54.0161 104.465C53.9466 104.648 53.8557 104.823 53.7453 104.985C53.5567 105.311 53.2739 105.782 52.9136 106.353C52.1883 107.501 51.156 109.054 49.9206 110.705C48.6851 112.356 47.5029 113.814 46.6229 114.839C46.1805 115.349 45.8202 115.76 45.5591 116.048C45.4371 116.206 45.2967 116.349 45.1409 116.473Z" fill="#E0E0E0"/>
<path d="M31.4763 114.207C31.6583 114.196 31.841 114.208 32.0203 114.241C32.4192 114.292 32.9076 114.352 33.4902 114.43C34.7256 114.596 36.4325 114.845 38.3255 115.133C40.2186 115.421 41.9109 115.699 43.1415 115.909L44.5921 116.175C44.6158 116.111 44.6626 116.058 44.7233 116.027C44.784 115.996 44.8542 115.988 44.9201 116.006C44.986 116.024 45.0428 116.066 45.0793 116.124C45.1158 116.182 45.1293 116.251 45.1173 116.318C45.1052 116.385 45.0684 116.446 45.0141 116.487C44.9598 116.528 44.892 116.548 44.824 116.542C44.7559 116.536 44.6927 116.504 44.6466 116.454C44.6006 116.404 44.5751 116.338 44.5752 116.269C44.1763 116.219 43.6879 116.158 43.1053 116.081C41.8698 115.914 40.163 115.665 38.2699 115.377C36.3769 115.09 34.6846 114.812 33.454 114.601L32.0034 114.335C31.8235 114.312 31.6467 114.269 31.4763 114.207Z" fill="#E0E0E0"/>
<path d="M36.1353 131.989C36.3676 131.984 36.6 132.001 36.8291 132.04L38.7125 132.282C40.2984 132.487 42.4937 132.792 44.9089 133.14C47.3242 133.488 49.5146 133.817 51.0957 134.066C51.85 134.194 52.481 134.293 52.9694 134.376C53.2005 134.403 53.4287 134.452 53.6512 134.521C53.4188 134.526 53.1864 134.509 52.9573 134.47L51.074 134.228C49.488 134.023 47.2927 133.718 44.8775 133.37C42.4623 133.022 40.2719 132.693 38.6907 132.444C37.9364 132.316 37.3054 132.217 36.8219 132.134C36.5889 132.108 36.3591 132.059 36.1353 131.989Z" fill="#E0E0E0"/>
<path d="M53.2388 134.344C53.363 134.128 53.5036 133.922 53.6594 133.728L54.8683 132.103C55.8933 130.727 57.3004 128.827 58.797 126.683C60.2935 124.538 61.6014 122.573 62.5395 121.122C62.9892 120.435 63.3591 119.857 63.6492 119.43C63.7752 119.214 63.92 119.01 64.082 118.82C63.9868 119.051 63.8703 119.272 63.7338 119.48C63.4921 119.896 63.1415 120.496 62.6918 121.226C61.7949 122.689 60.5159 124.678 59.0049 126.83C57.4938 128.982 56.0722 130.865 55.0133 132.217C54.4814 132.886 54.0463 133.425 53.732 133.795C53.5853 133.993 53.4201 134.177 53.2388 134.344Z" fill="#E0E0E0"/>
<path d="M182.714 122.081C168.513 114.937 163.17 98.6301 161.506 83.5271C160.912 81.0665 160.891 78.5022 161.446 76.0323C161.82 74.8307 162.62 73.8071 163.696 73.154C164.771 72.5009 166.048 72.2631 167.287 72.4856C169.277 73.0949 170.401 75.1451 171.704 76.7866C173.444 78.9764 175.767 80.6306 178.406 81.5591C179.234 81.9368 180.142 82.1087 181.051 82.0603C181.96 82.0119 182.844 81.7446 183.628 81.281C185.618 79.7724 185.441 76.7479 185.079 74.2529C184.374 69.603 183.672 64.9546 182.973 60.3079C182.462 57.8344 182.355 55.2943 182.656 52.7866C182.813 51.5395 183.268 50.3487 183.984 49.3154C184.7 48.2821 185.654 47.4367 186.766 46.8512C187.904 46.3325 189.201 46.2838 190.375 46.7157C191.549 47.1475 192.505 48.0251 193.035 49.1577C193.277 50.1782 193.451 51.2136 193.557 52.2571C193.617 52.7772 193.828 53.2682 194.165 53.6686C194.503 54.0689 194.95 54.3609 195.453 54.5079C196.49 54.6578 197.387 53.8044 198.03 52.9679C200.11 49.9596 201.683 46.6307 202.686 43.1135C203.69 39.5961 205.106 36.2096 206.905 33.0246C207.805 31.4432 209.012 30.0576 210.455 28.9495C211.899 27.8413 213.549 27.0329 215.309 26.5719C217.088 26.1739 218.949 26.3829 220.596 27.1654C222.242 27.9479 223.58 29.2591 224.395 30.8898C225.809 34.2746 224.274 38.1428 222.46 41.3148C219.755 46.019 216.386 50.3086 212.456 54.051C211.671 54.6452 211.096 55.4744 210.815 56.4179C210.515 58.1586 212.328 59.5826 214.052 59.892C216.026 60.0309 218.009 59.9678 219.97 59.7035C220.959 59.5857 221.961 59.7301 222.877 60.1223C223.792 60.5144 224.588 61.1403 225.185 61.9374C226.575 64.3429 224.83 67.3239 222.985 69.3765C219.275 73.4864 214.887 76.9291 210.012 79.5548C208.198 80.3511 206.545 81.4728 205.135 82.8646C204.442 83.5839 203.997 84.5068 203.866 85.4976C203.735 86.4885 203.926 87.4952 204.41 88.3696C205.069 89.1125 205.944 89.6303 206.913 89.8501C207.881 90.07 208.894 89.9809 209.809 89.5954C211.616 88.7887 213.348 87.8244 214.985 86.7135C218.227 84.922 222.69 84.5183 225.316 87.168C226.134 88.0908 226.726 89.1906 227.048 90.3811C227.369 91.5716 227.41 92.8204 227.168 94.0294C226.661 96.4408 225.674 98.7257 224.266 100.748C219.774 108.065 213.42 114.057 205.854 118.114C198.869 122.195 190.641 123.603 182.697 122.077" fill="#F5F5F5"/>
<path d="M185.23 112.083C186.541 103.532 188.344 95.0636 190.629 86.7197C191.222 84.497 191.808 82.3058 192.386 80.146C192.969 77.9895 193.544 75.8499 194.238 73.7949C195.576 69.8432 197.132 65.969 198.899 62.1901C200.563 58.5757 202.27 55.2007 203.887 52.0626C205.504 48.9244 207.086 46.0184 208.63 43.4485C211.048 39.3698 213.785 35.4894 216.817 31.8437C217.885 30.5527 218.751 29.5759 219.343 28.928C219.631 28.6185 219.853 28.3744 220.025 28.2027C220.097 28.1137 220.178 28.0326 220.267 27.9609C220.205 28.0575 220.135 28.1482 220.056 28.2317C219.897 28.4203 219.679 28.6741 219.413 29.0029C218.843 29.6726 217.999 30.6663 216.952 31.9743C213.982 35.6571 211.291 39.5572 208.904 43.6419C207.381 46.2239 205.828 49.1227 204.221 52.2608C202.613 55.3989 200.923 58.7885 199.277 62.3932C197.529 66.1589 195.988 70.0167 194.659 73.9496C193.972 75.9949 193.402 78.1176 192.824 80.279C192.246 82.4404 191.666 84.6308 191.073 86.8526C188.795 95.1807 186.985 103.63 185.653 112.161" fill="#E0E0E0"/>
<path d="M194.369 73.7564C194.2 73.4281 194.066 73.0828 193.97 72.7264C193.728 72.0567 193.438 71.0752 193.083 69.8542C192.358 67.4221 191.504 64.0229 190.561 60.2755C189.618 56.5281 188.704 53.1531 187.955 50.7354C187.583 49.5266 187.273 48.5595 187.051 47.8802C186.912 47.5379 186.813 47.181 186.756 46.8164C186.947 47.1331 187.104 47.4695 187.222 47.8197C187.5 48.4749 187.853 49.4372 188.264 50.6363C189.096 53.037 190.066 56.4121 191.009 60.1595C191.93 63.8609 192.766 67.2045 193.402 69.7648C193.695 70.9172 193.943 71.8843 194.144 72.666C194.26 73.0197 194.336 73.3855 194.369 73.7564Z" fill="#E0E0E0"/>
<path d="M225.589 63.1094C225.181 63.2614 224.76 63.3747 224.332 63.4478C223.517 63.6413 222.342 63.9144 220.896 64.2964C217.995 65.0387 214.04 66.204 209.726 67.6812C205.413 69.1584 201.567 70.6742 198.818 71.8492C197.438 72.4246 196.335 72.9251 195.571 73.2635C195.185 73.4629 194.78 73.6249 194.362 73.747C194.718 73.4932 195.097 73.2739 195.494 73.0919C196.236 72.705 197.324 72.1611 198.687 71.5397C201.41 70.2874 205.249 68.7232 209.567 67.2339C213.255 65.9563 217.007 64.8685 220.807 63.9749C222.257 63.6316 223.466 63.4092 224.283 63.2714C224.712 63.1747 225.149 63.1205 225.589 63.1094Z" fill="#E0E0E0"/>
<path d="M185.535 111.453C185.426 111.346 185.333 111.225 185.257 111.093C185.064 110.8 184.825 110.445 184.532 110.012C183.911 109.069 183.057 107.684 182.015 105.955C179.936 102.503 177.216 97.6407 174.279 92.2421C171.341 86.8435 168.67 81.9598 166.668 78.4614C165.686 76.7691 164.884 75.3692 164.279 74.3321C164.025 73.8824 163.808 73.5125 163.636 73.2079C163.552 73.0802 163.484 72.942 163.436 72.7969C163.543 72.9049 163.636 73.0259 163.714 73.1571C163.907 73.4496 164.146 73.805 164.439 74.2378C165.053 75.1807 165.914 76.566 166.956 78.2946C169.035 81.747 171.755 86.6089 174.692 92.0124C177.63 97.4159 180.296 102.295 182.303 105.793C183.284 107.485 184.087 108.885 184.692 109.922C184.945 110.372 185.163 110.742 185.335 111.047C185.419 111.173 185.487 111.309 185.535 111.453Z" fill="#E0E0E0"/>
<path d="M226.196 91.5195C226.074 91.6165 225.94 91.6977 225.797 91.7613L224.617 92.3536L220.266 94.4932C216.591 96.2992 211.54 98.845 205.97 101.688C200.4 104.531 195.332 107.031 191.609 108.767C189.752 109.633 188.244 110.319 187.192 110.774L185.983 111.289C185.845 111.358 185.697 111.408 185.546 111.439C185.668 111.342 185.802 111.26 185.945 111.197L187.124 110.605L191.476 108.465C195.151 106.659 200.201 104.113 205.772 101.27C211.342 98.4267 216.409 95.9269 220.133 94.1983C221.989 93.3328 223.498 92.6462 224.55 92.1916L225.759 91.6766C225.895 91.6011 226.043 91.548 226.196 91.5195Z" fill="#E0E0E0"/>
<path d="M375.315 238.157C375.315 238.234 292.186 238.302 189.661 238.302C87.1351 238.302 3.98462 238.234 3.98462 238.157C3.98462 238.079 87.0988 238.012 189.661 238.012C292.222 238.012 375.315 238.077 375.315 238.157Z" fill="#263238"/>
<path d="M161.48 238.152L87.8066 237.808C85.6994 237.799 83.6148 237.374 81.6716 236.559C79.7285 235.744 77.9649 234.554 76.4816 233.057C74.9983 231.561 73.8244 229.786 73.0268 227.836C72.2292 225.885 71.8236 223.797 71.8332 221.69L72.6141 36.9809C72.6223 34.8726 73.046 32.7866 73.861 30.8421C74.6759 28.8977 75.8661 27.1329 77.3635 25.6488C78.861 24.1646 80.6362 22.9901 82.5878 22.1925C84.5394 21.3948 86.6291 20.9897 88.7374 21.0002L162.411 21.3387C164.518 21.3482 166.603 21.7726 168.546 22.5878C170.489 23.403 172.252 24.5929 173.736 26.0897C175.219 27.5864 176.393 29.3607 177.19 31.3111C177.988 33.2615 178.394 35.35 178.384 37.4572L177.603 222.166C177.596 224.275 177.172 226.361 176.358 228.306C175.543 230.251 174.353 232.017 172.855 233.501C171.358 234.986 169.583 236.161 167.631 236.959C165.679 237.757 163.589 238.162 161.48 238.152Z" fill="#455A64"/>
<path d="M162.307 27.7322L148.024 27.6645C147.558 27.672 147.098 27.7714 146.671 27.9569C146.244 28.1424 145.858 28.4104 145.534 28.7455C145.211 29.0806 144.957 29.4762 144.786 29.9097C144.616 30.3432 144.533 30.806 144.542 31.2716V33.8609C144.551 34.3278 144.468 34.7919 144.298 35.2266C144.127 35.6612 143.872 36.0579 143.548 36.3938C143.223 36.7296 142.836 36.9981 142.407 37.1837C141.979 37.3693 141.518 37.4684 141.051 37.4753L113.209 37.3472C112.269 37.3212 111.377 36.9233 110.73 36.2407C110.083 35.5581 109.733 34.6466 109.757 33.7062V31.1169C109.781 30.1765 109.431 29.265 108.784 28.5824C108.136 27.8998 107.245 27.5018 106.305 27.4759L101.283 27.4541L88.7789 27.3985C85.7978 27.3857 82.9335 28.5575 80.8162 30.6562C78.6989 32.7549 77.5019 35.6087 77.4885 38.5899L76.7245 218.872C76.7178 220.347 77.0018 221.81 77.5602 223.175C78.1187 224.541 78.9406 225.783 79.9792 226.831C81.0177 227.879 82.2525 228.712 83.613 229.283C84.9735 229.854 86.4332 230.151 87.9086 230.158L161.439 230.496C164.42 230.509 167.285 229.337 169.402 227.239C171.519 225.14 172.716 222.286 172.73 219.305L173.494 39.0226C173.504 36.0431 172.332 33.1811 170.235 31.0644C168.138 28.9478 165.287 27.7494 162.307 27.7322Z" fill="#FAFAFA"/>
<path d="M113.405 213.034L140.531 184.922L166.333 211.221L113.405 213.034Z" fill="#EBEBEB"/>
<path d="M144.766 181.3L173.011 153.32C173.011 154.563 172.77 211.359 172.77 211.359L144.766 181.3Z" fill="#EBEBEB"/>
<path d="M120.58 165.578L136.604 181.602L104.967 214.241L90.3496 196.71L120.58 165.578Z" fill="#EBEBEB"/>
<path d="M76.7241 207.259L86.0514 198.988L98.9714 214.248H76.729V208.412" fill="#EBEBEB"/>
<path d="M88.8086 49.2257C87.8262 48.4961 86.9015 47.6918 86.0427 46.8202V46.6098L86.0597 46.5929L86.0935 46.559L86.1612 46.4914L86.299 46.3632L86.5649 46.1215C86.7366 45.9619 86.9083 45.8047 87.0751 45.6548L87.9454 44.8788C88.1974 44.6197 88.4847 44.3975 88.7989 44.2188C88.5945 44.52 88.3506 44.7924 88.0736 45.0287C87.8076 45.2898 87.5368 45.5606 87.2467 45.8483L86.7632 46.3318L86.4973 46.5736L86.3643 46.7017L86.2966 46.7694L86.2627 46.8032L86.2458 46.8202V46.605C87.1648 47.4128 88.0215 48.2889 88.8086 49.2257Z" fill="#263238"/>
<path d="M165.415 45.0058C165.415 45.1244 165.38 45.2404 165.314 45.339C165.248 45.4376 165.154 45.5144 165.045 45.5598C164.935 45.6052 164.815 45.617 164.698 45.5939C164.582 45.5708 164.475 45.5136 164.391 45.4298C164.308 45.3459 164.25 45.2391 164.227 45.1228C164.204 45.0065 164.216 44.8859 164.261 44.7764C164.307 44.6668 164.384 44.5732 164.482 44.5073C164.581 44.4414 164.697 44.4062 164.815 44.4062C164.974 44.4062 165.127 44.4694 165.239 44.5819C165.352 44.6943 165.415 44.8468 165.415 45.0058Z" fill="#263238"/>
<path d="M165.24 46.6476C165.323 46.7315 165.38 46.8383 165.404 46.9546C165.427 47.0709 165.415 47.1914 165.369 47.3009C165.324 47.4104 165.247 47.504 165.148 47.5698C165.05 47.6357 164.934 47.6708 164.815 47.6708C164.697 47.6708 164.581 47.6357 164.482 47.5698C164.384 47.504 164.307 47.4104 164.262 47.3009C164.216 47.1914 164.204 47.0709 164.227 46.9546C164.25 46.8383 164.307 46.7315 164.391 46.6476C164.504 46.5356 164.656 46.4727 164.815 46.4727C164.974 46.4727 165.127 46.5356 165.24 46.6476Z" fill="#263238"/>
<path d="M165.415 49.1465C165.415 49.265 165.38 49.381 165.314 49.4796C165.248 49.5782 165.154 49.655 165.045 49.7004C164.935 49.7458 164.815 49.7576 164.698 49.7345C164.582 49.7114 164.475 49.6543 164.391 49.5704C164.308 49.4866 164.25 49.3797 164.227 49.2634C164.204 49.1471 164.216 49.0266 164.261 48.917C164.307 48.8075 164.384 48.7138 164.482 48.6479C164.581 48.5821 164.697 48.5469 164.815 48.5469C164.974 48.5469 165.127 48.61 165.239 48.7225C165.352 48.8349 165.415 48.9874 165.415 49.1465Z" fill="#263238"/>
<path d="M139.441 47.457H113.512V49.6184H139.441V47.457Z" fill="#263238"/>
<path d="M357.085 163.34H49.5642V208.463H357.085V163.34Z" fill="#E8505B"/>
<path d="M357.085 163.34H49.5642V208.463H357.085V163.34Z" fill="#2E7AA6"/>
<path d="M92.8867 237.756C109.226 236.657 121.581 222.52 120.482 206.18C119.383 189.84 105.246 177.485 88.9067 178.584C72.567 179.683 60.212 193.82 61.311 210.16C62.4101 226.5 76.547 238.855 92.8867 237.756Z" fill="#263238"/>
<path d="M61.2569 207.656C61.2569 207.683 61.2569 207.707 61.2569 207.734C61.1921 215.567 64.2294 223.108 69.7054 228.709C75.1815 234.311 82.6514 237.518 90.4841 237.631C98.3168 237.743 105.876 234.752 111.511 229.311C117.146 223.869 120.399 216.419 120.56 208.587C120.56 208.56 120.56 208.536 120.56 208.51L61.2569 207.656Z" fill="#263238"/>
<path d="M70.0786 207.868C70.0188 211.985 71.1812 216.027 73.4188 219.483C75.6564 222.94 78.8687 225.655 82.6495 227.286C86.4303 228.917 90.6098 229.39 94.6595 228.645C98.7091 227.901 102.447 225.972 105.4 223.103C108.354 220.234 110.39 216.554 111.252 212.527C112.114 208.501 111.763 204.31 110.242 200.483C108.722 196.657 106.101 193.367 102.711 191.03C99.3208 188.693 95.3139 187.413 91.1968 187.354C85.6761 187.274 80.3497 189.39 76.3893 193.237C72.4288 197.084 70.1588 202.347 70.0786 207.868Z" fill="#FAFAFA"/>
<path d="M91.1946 187.354C85.6739 187.274 80.3474 189.39 76.387 193.237C72.4266 197.084 70.1566 202.347 70.0764 207.868L111.708 208.467C111.749 205.734 111.251 203.019 110.241 200.478C109.232 197.937 107.732 195.62 105.827 193.659C103.922 191.698 101.649 190.132 99.1383 189.05C96.6276 187.968 93.9283 187.392 91.1946 187.354Z" fill="#E0E0E0"/>
<path d="M78.2284 207.989C78.1923 210.497 78.9008 212.96 80.2643 215.065C81.6278 217.171 83.585 218.825 85.8884 219.818C88.1919 220.811 90.7381 221.099 93.2052 220.645C95.6722 220.191 97.9492 219.016 99.7483 217.268C101.547 215.52 102.788 213.277 103.313 210.824C103.837 208.371 103.623 205.818 102.696 203.487C101.77 201.156 100.173 199.152 98.1075 197.728C96.0421 196.305 93.6009 195.526 91.0927 195.49C87.7296 195.442 84.4855 196.733 82.0732 199.076C79.661 201.42 78.278 204.626 78.2284 207.989Z" fill="#263238"/>
<path d="M319.324 237.757C335.673 236.811 348.159 222.79 347.213 206.44C346.266 190.091 332.245 177.605 315.895 178.551C299.546 179.498 287.06 193.519 288.007 209.869C288.953 226.218 302.974 238.704 319.324 237.757Z" fill="#263238"/>
<path d="M287.993 207.652C287.993 207.679 287.993 207.703 287.993 207.73C287.928 215.563 290.965 223.104 296.441 228.705C301.918 234.307 309.387 237.514 317.22 237.627C325.053 237.739 332.612 234.748 338.247 229.307C343.882 223.865 347.135 216.415 347.296 208.583C347.296 208.556 347.296 208.532 347.296 208.506L287.993 207.652Z" fill="#263238"/>
<path d="M296.831 207.864C296.771 211.981 297.934 216.023 300.171 219.48C302.409 222.936 305.621 225.651 309.402 227.282C313.183 228.913 317.362 229.386 321.412 228.641C325.462 227.897 329.199 225.968 332.153 223.099C335.106 220.23 337.143 216.55 338.005 212.523C338.867 208.497 338.515 204.306 336.995 200.479C335.474 196.653 332.853 193.363 329.463 191.026C326.073 188.689 322.066 187.41 317.949 187.35C312.429 187.27 307.102 189.386 303.142 193.233C299.181 197.08 296.911 202.343 296.831 207.864Z" fill="#FAFAFA"/>
<path d="M317.929 187.35C312.408 187.27 307.082 189.386 303.122 193.233C299.161 197.08 296.891 202.343 296.811 207.864L338.443 208.463C338.484 205.73 337.985 203.015 336.976 200.474C335.967 197.933 334.467 195.616 332.562 193.655C330.657 191.694 328.384 190.128 325.873 189.046C323.362 187.965 320.663 187.388 317.929 187.35Z" fill="#E0E0E0"/>
<path d="M304.964 207.981C304.928 210.489 305.636 212.952 307 215.057C308.363 217.163 310.32 218.817 312.624 219.81C314.927 220.803 317.474 221.091 319.941 220.637C322.408 220.183 324.685 219.008 326.484 217.26C328.283 215.512 329.523 213.27 330.048 210.817C330.573 208.364 330.358 205.81 329.432 203.479C328.505 201.148 326.908 199.144 324.843 197.72C322.778 196.297 320.336 195.518 317.828 195.482C314.465 195.435 311.221 196.725 308.809 199.069C306.397 201.412 305.014 204.618 304.964 207.981Z" fill="#263238"/>
<path d="M129.764 137.959C129.764 137.959 86.0984 141.18 69.9122 144.811C58.5057 147.371 36.5123 151.784 36.7782 165.625L38.5237 175.537C36.0791 176.781 34.0243 178.675 32.5849 181.009C31.1456 183.344 30.3772 186.031 30.3642 188.774C30.3642 198.28 28.3744 213.035 47.4135 213.622C50.5564 213.722 56.5135 213.622 56.5135 213.622C56.5135 213.622 52.8556 173.066 90.119 171.874C128.025 170.666 125.509 213.25 125.509 213.25H283.718C283.718 213.25 277.226 171.763 318.031 171.708C358.837 171.652 352.618 213.533 352.618 213.533C352.618 213.533 367.627 214.829 374.619 202.216C381.611 189.603 379.786 180.621 379.786 180.621L379.544 172.643C379.506 171.335 378.973 170.089 378.052 169.159C377.131 168.228 375.891 167.682 374.583 167.631C374.583 167.631 377.31 147.55 373.132 144.074C368.954 140.597 346.018 119.636 346.018 119.636L347.111 118.949C347.522 118.691 347.851 118.322 348.061 117.884C348.271 117.447 348.353 116.959 348.298 116.477C348.242 115.995 348.051 115.538 347.747 115.16C347.443 114.781 347.038 114.497 346.579 114.339C337.876 111.346 320.655 105.42 316.6 104.008C315.993 103.797 315.362 103.665 314.722 103.614C312.304 103.431 305.472 102.993 292.917 102.86C277.625 102.7 216.908 102.86 216.908 102.86C216.908 102.86 196.012 104.579 184.371 109.704C172.138 115.088 129.764 137.959 129.764 137.959Z" fill="#185F87"/>
<g opacity="0.4">
<path d="M41.4387 187.68C40.5643 187.443 39.6509 187.385 38.7534 187.509C37.856 187.634 36.993 187.939 36.2165 188.406C35.4086 189.307 34.9573 190.471 34.9473 191.682C34.6927 193.314 34.7303 194.979 35.0585 196.599C35.2259 197.408 35.5583 198.173 36.0351 198.848C36.5118 199.522 37.1225 200.091 37.8291 200.518C38.5478 200.927 39.3786 201.095 40.1996 200.997C41.0207 200.899 41.7888 200.541 42.3912 199.974C43.2965 198.751 43.6973 197.227 43.5106 195.717C43.6011 193.698 43.5137 191.676 43.2495 189.673C43.1594 189.234 42.9736 188.822 42.7055 188.464C42.5652 188.249 42.3781 188.07 42.1582 187.938C41.9383 187.807 41.6915 187.727 41.4362 187.705" fill="black"/>
</g>
<path d="M38.5207 175.544C43.1553 175.544 47.6497 175.29 52.2771 174.978C52.556 175.021 52.8411 174.994 53.1066 174.898C53.3722 174.803 53.6096 174.643 53.7975 174.433C53.9854 174.222 54.1177 173.968 54.1823 173.693C54.247 173.419 54.242 173.132 54.1677 172.86C54.3486 171.631 54.2651 170.376 53.9228 169.182C53.5806 167.987 52.9874 166.879 52.1828 165.931C50.9504 165.026 49.4707 164.52 47.9423 164.481C44.1814 164.083 40.3789 164.465 36.7727 165.605L38.5207 175.544Z" fill="#FAFAFA"/>
<path d="M134.776 211.989C134.776 211.989 134.759 211.856 134.737 211.595C134.715 211.334 134.694 210.935 134.66 210.432C134.604 209.402 134.522 207.894 134.418 205.96C134.314 204.026 134.176 201.642 133.903 198.893C133.617 195.78 133.07 192.696 132.269 189.674C131.256 186.024 129.755 182.527 127.806 179.279C125.602 175.528 122.669 172.256 119.182 169.656C110.853 164.089 101.049 161.142 91.0307 161.194C80.9983 160.973 71.1731 164.067 63.0777 169.997C59.5791 172.58 56.5145 175.704 53.9994 179.252C51.7996 182.338 50.0116 185.698 48.6806 189.246C47.5866 192.175 46.833 195.219 46.4346 198.32C46.1256 200.661 46.035 203.025 46.1638 205.382C46.2507 206.87 46.4324 208.351 46.7078 209.816C46.7972 210.314 46.8673 210.698 46.9133 210.964C46.9592 211.23 46.9737 211.358 46.9737 211.358C46.9737 211.358 46.9399 211.23 46.8843 210.972C46.8287 210.713 46.7513 210.324 46.6425 209.83C46.3455 208.366 46.1452 206.883 46.0429 205.392C45.8952 203.029 45.9697 200.657 46.2653 198.308C46.6484 195.191 47.3907 192.13 48.4775 189.184C49.8062 185.614 51.5942 182.232 53.7963 179.124C56.3166 175.546 59.3928 172.395 62.9085 169.789C71.0466 163.812 80.931 160.69 91.0258 160.909C101.102 160.857 110.962 163.828 119.332 169.439C122.842 172.065 125.792 175.367 128.006 179.15C129.961 182.419 131.46 185.94 132.462 189.614C133.257 192.649 133.791 195.746 134.058 198.871C134.324 201.625 134.435 204.004 134.524 205.95C134.614 207.896 134.669 209.393 134.713 210.428C134.735 210.932 134.752 211.32 134.764 211.59C134.781 211.852 134.776 211.989 134.776 211.989Z" fill="#329DDA"/>
<path d="M136.453 212.671C136.453 212.671 136.453 212.559 136.436 212.337C136.419 212.114 136.414 211.783 136.402 211.355C136.376 210.485 136.335 209.199 136.286 207.526C136.192 204.168 136.044 199.245 135.87 192.993C135.696 186.741 135.493 179.138 135.256 170.434C135.195 168.255 135.134 166.01 135.073 163.698C135.032 162.523 135.082 161.346 135.222 160.178C135.305 159.586 135.389 158.991 135.476 158.394C135.563 157.797 135.718 157.207 135.841 156.603C136.415 154.157 137.242 151.777 138.307 149.502C139.407 147.11 140.769 144.848 142.369 142.757V142.74H142.386L169.783 125.48C172.217 123.944 174.683 122.39 177.183 120.819C179.677 119.162 182.295 117.699 185.014 116.445C187.782 115.153 190.621 114.019 193.517 113.049C194.968 112.538 196.466 112.118 197.956 111.673C199.464 111.291 200.966 110.863 202.506 110.554C208.314 109.307 214.219 108.561 220.155 108.324C225.85 108.052 231.555 108.07 237.248 108.38H237.407L237.373 108.54C234.753 120.268 232.279 131.331 230.011 141.468V141.49V141.512C228.658 143.742 227.55 146.113 226.709 148.583C225.867 150.929 225.487 153.416 225.59 155.906C225.778 158.339 225.843 160.722 225.906 163.029C225.969 165.335 225.996 167.586 226.039 169.757C226.167 178.461 226.199 186.047 226.223 192.304C226.247 198.561 226.223 203.466 226.24 206.827C226.24 208.5 226.24 209.781 226.223 210.657C226.223 211.089 226.223 211.411 226.223 211.638C226.223 211.865 226.223 211.972 226.223 211.972C226.223 211.972 226.223 211.861 226.223 211.638C226.223 211.416 226.223 211.085 226.223 210.657C226.223 209.786 226.223 208.5 226.201 206.827C226.179 203.469 226.15 198.551 226.119 192.304C226.088 186.057 226.02 178.458 225.877 169.762C225.832 167.589 225.784 165.346 225.732 163.034C225.665 160.722 225.594 158.351 225.406 155.923C225.296 153.402 225.676 150.883 226.525 148.506C227.368 146.014 228.481 143.621 229.845 141.371L229.828 141.41C232.083 131.256 234.549 120.205 237.16 108.474L237.289 108.646C231.606 108.338 225.911 108.321 220.227 108.595C214.304 108.831 208.413 109.575 202.617 110.817C201.082 111.122 199.585 111.542 198.084 111.932C196.599 112.374 195.113 112.79 193.662 113.3C190.776 114.267 187.946 115.397 185.188 116.685C182.482 117.932 179.877 119.387 177.396 121.037C174.896 122.611 172.428 124.163 169.991 125.693C160.248 131.817 151.041 137.61 142.57 142.931L142.596 142.904C141.008 144.978 139.654 147.221 138.561 149.594C137.497 151.852 136.672 154.214 136.1 156.644C135.279 161.189 135.074 165.824 135.491 170.424C135.706 179.128 135.895 186.727 136.052 192.984C136.209 199.24 136.318 204.158 136.395 207.516C136.429 209.189 136.455 210.475 136.477 211.346C136.477 211.778 136.483 212.105 136.494 212.327C136.458 212.559 136.453 212.671 136.453 212.671Z" fill="#263238"/>
<path d="M237.077 109.313C237.077 109.313 237.167 109.313 237.338 109.296L238.102 109.269L241.045 109.197C243.617 109.146 247.33 109.076 251.958 108.982C261.232 108.822 274.145 108.604 288.75 108.355H288.817L288.861 108.411C290.512 110.435 292.246 112.562 294.015 114.724L308.737 132.776L310.41 134.834C311.998 136.833 312.871 139.308 312.888 141.862C312.901 143.418 312.597 144.96 311.995 146.395C311.414 147.752 310.854 149.054 310.315 150.302L305.238 162.073C304.634 163.454 304.17 164.53 303.841 165.267C303.681 165.623 303.558 165.898 303.468 166.094C303.379 166.29 303.335 166.372 303.335 166.372C303.335 166.372 303.369 166.273 303.442 166.084C303.514 165.896 303.635 165.601 303.785 165.248C304.095 164.501 304.549 163.418 305.132 162.032C306.319 159.233 308.033 155.205 310.136 150.227C311.555 147.649 312.412 144.801 312.653 141.869C312.633 140.236 312.261 138.627 311.56 137.152C311.19 136.386 310.737 135.663 310.209 134.996L308.529 132.945L293.781 114.91C292.018 112.748 290.278 110.621 288.626 108.597L288.738 108.648L251.938 109.18L241.025 109.308L238.083 109.33H237.319L237.077 109.313Z" fill="#263238"/>
<path d="M218.501 158.249C218.501 158.232 218.656 158.232 218.944 158.181C219.36 158.109 219.756 157.95 220.107 157.715C220.663 157.348 221.081 156.806 221.294 156.175C221.418 155.785 221.469 155.375 221.444 154.966C221.43 154.506 221.313 154.054 221.1 153.646C220.854 153.181 220.486 152.792 220.036 152.518C219.586 152.245 219.071 152.098 218.545 152.094H214.81H206.246C205.535 152.095 204.848 152.358 204.318 152.832C203.788 153.306 203.45 153.959 203.369 154.666C203.278 155.339 203.403 156.024 203.725 156.622C204.046 157.186 204.545 157.628 205.144 157.879C205.736 158.082 206.364 158.16 206.988 158.106H208.802L212.061 158.123L216.778 158.167L218.059 158.193C218.207 158.191 218.355 158.202 218.501 158.227C218.353 158.252 218.202 158.261 218.052 158.254L216.77 158.28L212.053 158.324L208.795 158.341H206.981C206.665 158.341 206.36 158.341 206.014 158.341C205.675 158.32 205.342 158.243 205.028 158.114C204.372 157.842 203.825 157.361 203.471 156.745C203.119 156.097 202.981 155.354 203.077 154.623C203.163 153.845 203.533 153.126 204.116 152.603C204.699 152.081 205.454 151.791 206.237 151.789H214.8L218.54 151.806C219.356 151.821 220.134 152.155 220.708 152.736C221.282 153.317 221.606 154.099 221.61 154.915C221.631 155.348 221.568 155.78 221.427 156.189C221.195 156.847 220.745 157.407 220.153 157.775C219.786 158.005 219.373 158.151 218.944 158.203C218.799 158.235 218.65 158.251 218.501 158.249Z" fill="#263238"/>
<path d="M300.494 158.249C300.494 158.232 300.649 158.232 300.936 158.181C301.352 158.109 301.749 157.95 302.099 157.715C302.656 157.348 303.073 156.806 303.286 156.175C303.413 155.785 303.464 155.375 303.436 154.966C303.423 154.506 303.306 154.054 303.093 153.646C302.846 153.181 302.479 152.792 302.029 152.518C301.579 152.245 301.064 152.098 300.538 152.094H296.802H288.239C287.527 152.095 286.841 152.358 286.311 152.832C285.78 153.306 285.443 153.959 285.362 154.666C285.271 155.339 285.395 156.024 285.717 156.622C286.039 157.186 286.538 157.628 287.136 157.879C287.729 158.082 288.357 158.16 288.981 158.106H290.794L294.053 158.123L298.77 158.167L300.052 158.193C300.2 158.191 300.348 158.202 300.494 158.227C300.345 158.252 300.195 158.261 300.044 158.254L298.763 158.28L294.046 158.324L290.787 158.341H288.974C288.657 158.341 288.353 158.341 288.007 158.341C287.668 158.32 287.334 158.243 287.02 158.114C286.365 157.842 285.817 157.361 285.464 156.745C285.112 156.097 284.974 155.354 285.069 154.623C285.156 153.845 285.526 153.126 286.109 152.603C286.692 152.081 287.446 151.791 288.229 151.789H296.793L300.535 151.806C301.351 151.821 302.13 152.155 302.703 152.736C303.277 153.317 303.601 154.099 303.606 154.915C303.626 155.348 303.564 155.78 303.422 156.189C303.19 156.847 302.74 157.407 302.148 157.775C301.781 158.005 301.368 158.151 300.939 158.203C300.793 158.236 300.644 158.251 300.494 158.249Z" fill="#263238"/>
<path d="M372.394 144.867H355.987C354.884 144.867 353.801 145.169 352.856 145.739C351.912 146.31 351.141 147.128 350.627 148.104C350.203 148.911 349.966 149.803 349.935 150.714C349.903 151.625 350.077 152.531 350.444 153.365L356.879 167.982L373.319 167.823C373.319 167.823 376.803 149.284 372.394 144.867Z" fill="#FAFAFA"/>
<path d="M144.544 142.802L229.199 141.245L284.295 140.236L302.463 129.749C302.81 129.548 303.11 129.276 303.343 128.951C303.576 128.625 303.738 128.254 303.817 127.862C303.896 127.469 303.891 127.064 303.802 126.674C303.712 126.284 303.541 125.917 303.3 125.598L291.992 110.739C291.411 109.973 290.662 109.352 289.803 108.921C288.944 108.491 287.997 108.263 287.036 108.256L225.413 107.758C225.413 107.758 202.203 106.411 183.926 116.647C170.281 124.561 157.13 133.295 144.544 142.802Z" fill="#263238"/>
<path d="M183.33 109.289C183.33 109.289 187.576 111.223 184.81 113.02C182.044 114.816 139.16 141.852 139.16 141.852L129.301 137.382C146.771 127.658 164.407 118.208 183.33 109.289Z" fill="#455A64"/>
<path d="M140.555 142.523C140.555 142.523 140.466 142.55 140.289 142.589C140.113 142.627 139.84 142.688 139.508 142.76L136.498 143.382C133.883 143.904 130.092 144.634 125.392 145.439C115.992 147.057 102.932 148.942 88.4282 150.199C84.8018 150.516 81.2551 150.775 77.8317 150.997C74.4083 151.22 71.1033 151.43 67.9652 151.723C62.3974 152.123 56.8821 153.068 51.4985 154.544C47.876 155.56 44.3901 157.011 41.1171 158.867C39.9373 159.488 39.0984 160.097 38.5012 160.462C38.2135 160.646 37.9911 160.789 37.8243 160.89L37.5825 161.028C37.5825 161.028 37.655 160.968 37.7977 160.869L38.4577 160.414C39.0452 160.032 39.8769 159.406 41.0518 158.768C44.3141 156.864 47.8016 155.376 51.4333 154.339C56.8233 152.828 62.351 151.861 67.9338 151.452C71.0767 151.157 74.3792 150.942 77.8051 150.727C81.2309 150.511 84.7727 150.243 88.3968 149.924C102.903 148.672 115.958 146.82 125.355 145.251C130.06 144.47 133.854 143.771 136.477 143.283L139.496 142.712C139.835 142.652 140.096 142.606 140.285 142.567L140.555 142.523Z" fill="#263238"/>
<path d="M378.964 180.418C378.964 180.496 373.322 180.564 366.366 180.564C359.41 180.564 353.763 180.496 353.763 180.418C353.763 180.341 359.406 180.273 366.366 180.273C373.326 180.273 378.964 180.346 378.964 180.418Z" fill="#263238"/>
<path d="M275.726 194.833C275.726 194.91 243.879 194.978 204.597 194.978C165.315 194.978 133.462 194.91 133.462 194.833C133.462 194.755 165.305 194.688 204.597 194.688C243.888 194.688 275.726 194.755 275.726 194.833Z" fill="#263238"/>
<path d="M52.7315 180.907C52.7315 180.984 48.225 181.052 42.6717 181.052C37.1183 181.052 32.6118 180.987 32.6118 180.907C32.6118 180.827 37.1135 180.762 42.6717 180.762C48.2299 180.762 52.7315 180.827 52.7315 180.907Z" fill="#263238"/>
<path d="M345.57 119.059C345.57 119.059 341.789 123.294 343.276 126.396C344.763 129.498 360.115 140.37 360.115 140.37L371.26 142.459L345.57 119.059Z" fill="#455A64"/>
<path d="M239.581 111.484L237.077 138.562L281.929 137.281L300.003 126.771L288.302 111.489L239.581 111.484Z" fill="#455A64"/>
<path d="M155.16 139.943C155.16 139.943 182.219 120.399 192.895 116.518C200.952 113.263 209.557 111.579 218.246 111.557C227.496 111.296 233.134 111.557 233.134 111.557L225.985 139.078L155.16 139.943Z" fill="#455A64"/>
<path d="M151.207 140.026C151.208 139.185 151.433 138.359 151.857 137.633C152.282 136.906 152.892 136.306 153.625 135.892L159.838 132.401C161.61 131.405 163.608 130.882 165.641 130.883C166.895 130.882 168.141 131.08 169.332 131.47C170.627 131.919 171.754 132.752 172.564 133.857C173.374 134.962 173.828 136.288 173.866 137.657C173.9 138.578 173.749 139.496 173.421 140.357C173.093 141.218 172.594 142.004 171.955 142.667C171.316 143.331 170.55 143.859 169.702 144.22C168.854 144.581 167.943 144.767 167.021 144.767H155.946C154.689 144.767 153.484 144.267 152.595 143.378C151.706 142.489 151.207 141.283 151.207 140.026Z" fill="#185F87"/>
<path d="M151.207 140.03C151.224 140.03 151.224 140.24 151.28 140.63C151.421 141.649 151.894 142.593 152.625 143.316C153.357 144.04 154.306 144.502 155.327 144.631C155.964 144.676 156.602 144.687 157.239 144.665C159.945 144.665 163.16 144.648 166.724 144.631C167.622 144.652 168.517 144.505 169.362 144.198C170.238 143.869 171.037 143.361 171.707 142.706C172.401 142.03 172.94 141.211 173.286 140.306C173.635 139.37 173.777 138.369 173.701 137.373C173.627 136.391 173.338 135.438 172.854 134.58C172.37 133.723 171.704 132.983 170.902 132.412C170.123 131.886 169.249 131.519 168.329 131.331C167.45 131.12 166.55 131.014 165.646 131.014C163.968 131.013 162.309 131.368 160.779 132.056C160.054 132.378 159.411 132.782 158.76 133.132L156.908 134.162C155.727 134.817 154.665 135.406 153.722 135.93C153.069 136.282 152.507 136.783 152.082 137.391C151.657 137.999 151.38 138.698 151.273 139.433C151.217 139.815 151.222 140.025 151.205 140.025C151.184 139.823 151.184 139.618 151.205 139.416C151.267 138.832 151.44 138.266 151.715 137.748C152.155 136.918 152.827 136.234 153.649 135.78L156.814 133.979C157.401 133.645 158.023 133.297 158.654 132.932C159.285 132.567 159.95 132.168 160.682 131.834C163.096 130.724 165.811 130.451 168.397 131.058C169.349 131.252 170.253 131.632 171.056 132.177C171.894 132.772 172.589 133.543 173.094 134.437C173.599 135.331 173.9 136.325 173.977 137.349C174.058 138.388 173.91 139.433 173.544 140.409C173.187 141.336 172.637 142.175 171.931 142.873C171.225 143.571 170.379 144.11 169.449 144.457C168.571 144.772 167.642 144.92 166.709 144.894L157.225 144.86C156.58 144.876 155.934 144.857 155.291 144.805C154.712 144.726 154.152 144.541 153.64 144.261C152.822 143.803 152.151 143.122 151.705 142.298C151.434 141.778 151.262 141.212 151.2 140.63C151.186 140.43 151.188 140.229 151.207 140.03Z" fill="#185F87"/>
<path d="M359.681 212.233C359.681 212.233 359.681 212.1 359.698 211.851C359.715 211.602 359.742 211.213 359.775 210.727C359.809 210.241 359.865 209.625 359.896 208.897C359.928 208.169 359.952 207.333 359.979 206.397C360.005 205.462 359.979 204.407 359.962 203.254C359.889 202.113 359.884 200.866 359.72 199.541C359.469 196.524 358.933 193.538 358.119 190.622C357.641 188.931 357.051 187.274 356.352 185.661C355.606 183.908 354.71 182.222 353.676 180.622C351.366 177.102 348.43 174.036 345.013 171.576C341.249 168.841 337.044 166.77 332.582 165.452C327.777 164.086 322.8 163.423 317.805 163.484C312.808 163.435 307.833 164.158 303.057 165.628C300.799 166.342 298.606 167.25 296.503 168.341C294.496 169.409 292.589 170.656 290.805 172.066C287.494 174.667 284.543 177.693 282.026 181.067C280.921 182.618 279.946 184.257 279.11 185.968C278.348 187.553 277.674 189.18 277.092 190.84C275.317 195.853 274.241 201.086 273.893 206.392C273.804 208.271 273.816 209.734 273.859 210.72C273.886 211.203 273.91 211.585 273.924 211.844C273.939 212.103 273.924 212.226 273.924 212.226C273.924 212.226 273.908 212.098 273.881 211.844C273.854 211.59 273.825 211.206 273.787 210.72C273.706 209.271 273.698 207.818 273.765 206.368C274.071 201.044 275.122 195.788 276.886 190.755C277.467 189.086 278.138 187.45 278.898 185.854C279.737 184.129 280.717 182.476 281.825 180.91C284.345 177.509 287.307 174.459 290.633 171.842C292.427 170.42 294.346 169.162 296.365 168.085C298.486 166.987 300.696 166.073 302.973 165.353C307.775 163.869 312.779 163.14 317.805 163.191C322.826 163.131 327.83 163.8 332.659 165.176C337.15 166.509 341.379 168.602 345.163 171.363C346.918 172.652 348.558 174.091 350.064 175.664C351.496 177.141 352.772 178.761 353.872 180.499C354.911 182.11 355.806 183.809 356.548 185.576C357.244 187.201 357.831 188.869 358.306 190.571C359.111 193.496 359.637 196.492 359.875 199.516C360.025 200.846 360.02 202.099 360.085 203.242C360.085 204.391 360.085 205.437 360.085 206.385C360.085 207.333 360.008 208.16 359.974 208.89C359.94 209.62 359.863 210.224 359.824 210.72C359.785 211.216 359.747 211.578 359.718 211.844C359.688 212.11 359.681 212.233 359.681 212.233Z" fill="#329DDA"/>
<path d="M224.794 142.801C224.753 142.814 224.709 142.82 224.666 142.818L224.289 142.835C223.934 142.835 223.451 142.846 222.838 142.869L217.519 142.963C213.03 143.046 206.833 143.205 199.982 143.401C193.13 143.597 186.926 143.722 182.439 143.749C180.196 143.766 178.378 143.766 177.12 143.749L175.67 143.727C175.52 143.727 175.399 143.727 175.293 143.727C175.289 143.743 175.279 143.756 175.266 143.765C175.253 143.774 175.237 143.777 175.221 143.775C175.205 143.773 175.191 143.765 175.181 143.753C175.17 143.742 175.164 143.726 175.164 143.71C175.164 143.695 175.17 143.679 175.181 143.667C175.191 143.655 175.205 143.648 175.221 143.646C175.237 143.644 175.253 143.647 175.266 143.656C175.279 143.665 175.289 143.678 175.293 143.693L175.67 143.677C176.024 143.677 176.508 143.665 177.12 143.643L182.439 143.548C186.929 143.466 193.13 143.307 199.982 143.111C206.833 142.915 213.037 142.789 217.524 142.763C219.77 142.746 221.586 142.746 222.843 142.763L224.294 142.784C224.444 142.784 224.564 142.784 224.671 142.784C224.713 142.783 224.754 142.789 224.794 142.801Z" fill="#329DDA"/>
<path d="M217.451 151.132C214.217 151.325 210.974 151.325 207.739 151.132C210.974 150.94 214.217 150.94 217.451 151.132Z" fill="#329DDA"/>
<path d="M219.235 121.478C219.262 121.551 213.237 124.06 205.772 127.082C198.306 130.104 192.233 132.493 192.196 132.42C192.16 132.348 198.195 129.838 205.66 126.816C213.126 123.794 219.202 121.406 219.235 121.478Z" fill="#E9E9E9"/>
<path d="M207.013 123.365C207.047 123.437 201.305 125.964 194.2 129.013C187.094 132.061 181.297 134.467 181.268 134.394C181.239 134.322 186.976 131.795 194.081 128.747C201.187 125.698 206.987 123.292 207.013 123.365Z" fill="#E9E9E9"/>
<path d="M284.479 120.428C284.505 120.5 278.481 123.01 271.015 126.032C263.549 129.054 257.476 131.442 257.44 131.37C257.404 131.297 263.438 128.788 270.904 125.766C278.37 122.744 284.452 120.35 284.479 120.428Z" fill="#E9E9E9"/>
<path d="M272.27 122.326C272.304 122.398 266.562 124.925 259.456 127.973C252.351 131.022 246.553 133.428 246.524 133.355C246.495 133.283 252.232 130.756 259.338 127.708C266.443 124.659 272.243 122.253 272.27 122.326Z" fill="#E9E9E9"/>
<path d="M285.668 142.791C285.668 142.868 273.679 143.006 258.89 143.095C244.102 143.185 232.112 143.19 232.112 143.112C232.112 143.035 244.097 142.897 258.89 142.808C273.684 142.718 285.668 142.708 285.668 142.791Z" fill="#329DDA"/>
<path d="M298.932 150.671C298.932 150.749 295.574 150.848 291.42 150.887C287.267 150.925 283.911 150.887 283.911 150.814C283.911 150.742 287.269 150.638 291.42 150.599C295.572 150.56 298.932 150.589 298.932 150.671Z" fill="#329DDA"/>
<path d="M69.386 146.574C69.2805 146.609 69.1707 146.63 69.0596 146.635L68.1167 146.756C67.7057 146.799 67.2077 146.867 66.6323 146.961C66.0569 147.055 65.3969 147.138 64.6764 147.283C63.2258 147.524 61.5335 147.914 59.6428 148.414C57.7522 148.914 55.7359 149.584 53.6519 150.392C51.5679 151.199 49.6338 152.12 47.91 153.012C46.1862 153.905 44.6848 154.804 43.447 155.607C42.8208 155.989 42.2768 156.378 41.7957 156.704C41.3146 157.031 40.8988 157.318 40.57 157.562C40.2412 157.807 39.9994 157.966 39.7987 158.111C39.7103 158.179 39.6156 158.238 39.5159 158.288C39.5886 158.205 39.6696 158.131 39.7576 158.065L40.4998 157.473C40.8214 157.212 41.2251 156.907 41.7087 156.569C42.1922 156.23 42.7241 155.843 43.343 155.432C44.5688 154.606 46.075 153.704 47.7891 152.773C49.6604 151.782 51.5845 150.894 53.5528 150.114C55.5258 149.35 57.5386 148.693 59.5824 148.146C61.473 147.662 63.1895 147.297 64.6595 147.07C65.3848 146.937 66.0496 146.864 66.6275 146.792C67.2053 146.719 67.7081 146.664 68.1191 146.637C68.5301 146.61 68.8179 146.586 69.0669 146.565C69.1733 146.56 69.28 146.563 69.386 146.574Z" fill="#329DDA"/>
<path d="M168.363 133.492C168.341 133.509 168.196 133.277 167.831 132.977C167.298 132.574 166.665 132.324 166.001 132.252C165.004 132.174 164.002 132.283 163.046 132.574C159.669 133.422 156.532 135.036 153.878 137.29C152.558 138.398 151.867 139.225 151.821 139.174C151.956 138.962 152.112 138.765 152.288 138.586C152.743 138.075 153.227 137.591 153.738 137.136C155.429 135.623 157.354 134.394 159.437 133.495C160.581 133 161.766 132.605 162.979 132.315C163.968 132.03 165.003 131.94 166.027 132.049C166.724 132.144 167.377 132.443 167.906 132.907C168.046 133.035 168.171 133.178 168.278 133.335C168.338 133.427 168.372 133.487 168.363 133.492Z" fill="#329DDA"/>
<path d="M346.816 118.859C346.043 119.047 345.248 119.128 344.454 119.1C343.523 119.075 342.597 118.96 341.688 118.757C340.488 118.483 339.31 118.12 338.163 117.672C336.882 117.188 335.518 116.574 334.053 115.948L331.754 115.017C330.961 114.7 330.124 114.429 329.28 114.12C325.581 112.867 321.809 111.84 317.985 111.045C311.031 109.593 303.97 108.714 296.872 108.417C295.508 108.344 294.278 108.344 293.197 108.31H290.419L288.661 108.349C288.473 108.349 288.323 108.349 288.207 108.349C288.156 108.358 288.103 108.358 288.052 108.349C288.103 108.336 288.155 108.328 288.207 108.327C288.323 108.327 288.478 108.31 288.661 108.293L290.419 108.199C291.19 108.199 292.112 108.173 293.202 108.148C294.287 108.165 295.525 108.148 296.889 108.209C304.003 108.447 311.083 109.301 318.05 110.759C321.887 111.557 325.669 112.595 329.375 113.869C330.223 114.178 331.067 114.456 331.853 114.778L334.159 115.725C335.634 116.368 336.985 116.99 338.255 117.476C339.388 117.933 340.553 118.307 341.741 118.595C342.638 118.807 343.553 118.936 344.473 118.982C345.056 119.003 345.639 118.981 346.219 118.914L346.673 118.859C346.772 118.859 346.816 118.854 346.816 118.859Z" fill="#263238"/>
<path d="M80.1381 119.611C79.1187 113.4 77.456 107.313 75.1771 101.447C73.9416 97.3224 71.935 94.5638 69.4569 93.6088C67.7839 92.9657 59.4478 89.9557 56.5369 90.9494C53.6944 91.9577 50.9891 93.3174 48.4837 94.9966C46.5381 96.2869 45.0636 98.1736 44.2818 100.373L39.8188 112.882L47.6231 120.67L51.5372 112.355L55.7826 122.311L55.1565 132.371L79.5119 138.923C81.7192 135.376 81.3977 126.499 80.1381 119.611Z" fill="#FF725E"/>
<g opacity="0.2">
<path d="M73.7911 106.379C72.7152 112.691 72.5436 113.562 71.4677 119.874C71.0934 122.461 70.063 124.909 68.4747 126.985C67.473 128.223 66.1359 129.146 64.6234 129.644C62.9327 130.052 61.1613 129.975 59.5125 129.422C58.7419 128.929 58.1384 128.215 57.7811 127.373C57.4239 126.531 57.3296 125.601 57.5106 124.705C59.5729 125.147 60.216 125.836 61.9954 124.705C63.8555 123.453 65.4225 121.813 66.5889 119.898C70.1477 113.025 71.1293 112.781 73.7839 106.379" fill="black"/>
</g>
<path d="M56.1674 118.621C55.7711 118.086 55.4117 117.524 55.0915 116.941C54.4098 115.826 53.5394 114.414 52.5796 112.85C51.6198 111.286 50.7059 109.9 50.0072 108.798C49.6282 108.256 49.2842 107.691 48.9773 107.105C49.1122 107.225 49.2294 107.364 49.3254 107.516C49.5358 107.787 49.8235 108.193 50.1789 108.696C50.8872 109.704 51.8301 111.114 52.8238 112.71C53.8175 114.305 54.6685 115.775 55.2632 116.851C55.563 117.388 55.7951 117.833 55.9498 118.137C56.0473 118.286 56.1207 118.449 56.1674 118.621Z" fill="#263238"/>
<path d="M73.1691 129.948C72.9875 130.041 72.7961 130.113 72.5986 130.164C72.3706 130.24 72.1391 130.304 71.9047 130.357C71.6339 130.417 71.322 130.502 70.9739 130.55C70.1592 130.691 69.3345 130.765 68.5079 130.773C66.4761 130.791 64.4595 130.422 62.5653 129.687C61.7942 129.388 61.0487 129.027 60.3362 128.607C60.0602 128.45 59.7923 128.28 59.5335 128.096C59.3339 127.967 59.1419 127.827 58.9581 127.676C58.7879 127.562 58.6335 127.426 58.4988 127.272C58.5326 127.229 59.2241 127.756 60.4329 128.43C61.1491 128.817 61.8915 129.154 62.6547 129.438C63.5911 129.777 64.5532 130.041 65.5317 130.226C66.5135 130.396 67.5069 130.489 68.503 130.504C69.3166 130.512 70.1296 130.458 70.9352 130.345C72.3205 130.154 73.1522 129.893 73.1691 129.948Z" fill="#263238"/>
<path d="M63.3849 111.052C63.3414 111.267 60.7255 116.477 60.7255 116.477L48.3761 109.969L47.1189 104.65C47.0186 104.226 46.8356 103.826 46.5803 103.472C46.3249 103.119 46.0023 102.82 45.631 102.592C45.2597 102.363 44.8469 102.211 44.4164 102.142C43.986 102.074 43.5462 102.092 43.1225 102.194L39.4815 103.685C39.3308 103.743 39.197 103.838 39.0922 103.961C38.9875 104.084 38.9152 104.231 38.8819 104.389C38.8312 104.66 38.8989 104.921 39.3655 104.872C40.2697 104.8 42.153 104.602 42.153 104.602L41.2948 107.633C41.0673 108.428 41.1538 109.28 41.5365 110.012L42.0853 111.059L43.2942 112.993L43.2724 113.01C43.2724 113.01 55.2785 125.34 62.0189 126.141C66.0709 126.624 70.6596 115.261 70.6596 115.261L63.3849 111.052Z" fill="#F9BB85"/>
<path d="M42.0461 104.827C42.0461 104.81 42.1404 104.699 42.3459 104.561C42.6203 104.37 42.9473 104.27 43.2816 104.274C43.4543 104.28 43.6222 104.333 43.7676 104.427C43.913 104.52 44.0307 104.651 44.1084 104.805C44.2196 105.047 44.1471 105.221 44.1302 105.216C44.1132 105.212 44.1302 105.057 43.9972 104.868C43.9154 104.749 43.8075 104.65 43.6819 104.579C43.5562 104.508 43.416 104.466 43.2719 104.457C42.9692 104.457 42.6714 104.534 42.4064 104.68C42.196 104.776 42.0727 104.849 42.0461 104.827Z" fill="#AA6550"/>
<path d="M43.5937 106.698C43.5671 106.698 43.5164 106.599 43.3931 106.456C43.2429 106.267 43.0464 106.12 42.8225 106.028C42.5972 105.941 42.3529 105.915 42.1141 105.951C41.9255 105.978 41.8143 106.019 41.7974 105.995C41.7805 105.97 41.8868 105.888 42.0851 105.823C42.3492 105.747 42.631 105.759 42.8878 105.857C43.1446 105.958 43.3594 106.144 43.497 106.384C43.5937 106.56 43.6155 106.693 43.5937 106.698Z" fill="#AA6550"/>
<path d="M65.9447 94.6112L62.6035 110.459L71.4666 115.778L74.8707 106.039C74.8707 106.039 73.4612 94.2171 65.9447 94.6112Z" fill="#D85745"/>
<path d="M70.7285 94.8906C70.7285 94.8906 70.6559 94.9462 70.5012 95.0357C70.3465 95.1251 70.124 95.2412 69.8242 95.3911C69.2368 95.6909 68.3737 96.1164 67.2978 96.5999C64.4874 97.889 61.5271 98.8222 58.4854 99.3778C55.4277 99.9271 52.2882 99.8216 49.2742 99.0683C48.366 98.8319 47.4809 98.5148 46.6293 98.1206C46.3246 97.9876 46.1022 97.8547 45.9475 97.7773C45.866 97.7415 45.7896 97.6951 45.7202 97.6395C46.0445 97.7492 46.3625 97.8767 46.6728 98.0215C47.5365 98.3724 48.4255 98.6577 49.3322 98.8749C52.3239 99.56 55.4228 99.6356 58.4443 99.0973C61.4627 98.5418 64.4079 97.6439 67.2228 96.421C68.3084 95.9665 69.186 95.5724 69.7832 95.3065C70.0883 95.1463 70.4042 95.0074 70.7285 94.8906Z" fill="#EBEBEB"/>
<path d="M73.0667 96.6406C73.0667 96.6406 72.9894 96.7132 72.825 96.8244C72.6606 96.9356 72.3874 97.1073 72.0997 97.2958C71.7089 97.5478 71.3054 97.7793 70.8908 97.9897C70.4073 98.2314 69.8827 98.5506 69.2565 98.8214L68.2894 99.2638C67.951 99.4185 67.5859 99.5467 67.2136 99.6917C66.4883 100.001 65.6566 100.253 64.7959 100.528C61.0519 101.657 57.1388 102.12 53.2347 101.897C52.3377 101.824 51.4843 101.776 50.6961 101.655C50.3021 101.594 49.9152 101.556 49.555 101.488L48.5082 101.283C47.8385 101.166 47.251 100.99 46.7288 100.855C46.2805 100.745 45.8382 100.612 45.4039 100.456L44.5771 100.168C44.4792 100.139 44.3844 100.1 44.2942 100.052C44.3959 100.062 44.4964 100.082 44.594 100.112L45.4305 100.354C45.7907 100.465 46.2332 100.596 46.7602 100.702C47.2873 100.809 47.8747 100.985 48.5396 101.084L49.5816 101.273C49.9418 101.333 50.3238 101.367 50.7179 101.423C51.5061 101.539 52.3522 101.582 53.2395 101.645C55.1759 101.727 57.1157 101.66 59.0419 101.445C60.9604 101.201 62.858 100.814 64.7186 100.286C65.5672 100.016 66.3819 99.7763 67.1193 99.4838C67.4916 99.3388 67.8446 99.2179 68.1879 99.0728L69.155 98.6449C69.7811 98.391 70.313 98.0912 70.7966 97.8567C71.2801 97.6222 71.6838 97.3974 72.0054 97.2088L72.7645 96.7881C72.8599 96.7287 72.9612 96.6793 73.0667 96.6406Z" fill="#EBEBEB"/>
<path d="M71.4681 115.776C71.2167 115.674 70.9741 115.552 70.7428 115.411C70.2593 115.133 69.5944 114.768 68.7918 114.313L62.1238 110.472L62.0344 110.421L62.0513 110.326C62.2931 109.139 62.5349 107.87 62.8105 106.562C63.2142 104.589 63.5986 102.716 63.9468 101.002C64.1305 100.148 64.2804 99.3334 64.4448 98.5839C64.5957 97.8701 64.8336 97.1776 65.1532 96.5217C65.6145 95.5506 66.4357 94.7971 67.4427 94.4207C67.7159 94.3277 68.0027 94.2811 68.2913 94.2829C68.3925 94.2767 68.4939 94.2881 68.5911 94.3168C68.2131 94.3374 67.8397 94.4099 67.4814 94.532C66.5289 94.9307 65.7627 95.6753 65.3369 96.616C65.0355 97.2587 64.8139 97.9358 64.6769 98.6323C64.527 99.3963 64.3723 100.206 64.2055 101.05C63.8622 102.762 63.4802 104.643 63.0909 106.611C62.825 107.918 62.5639 109.188 62.327 110.375L62.2617 110.23C64.9066 111.799 67.2009 113.162 68.874 114.158C69.6621 114.642 70.3028 115.029 70.7863 115.321C71.0265 115.453 71.2547 115.605 71.4681 115.776Z" fill="#263238"/>
<path d="M74.1904 105.566C74.2361 106.06 74.2215 106.556 74.1468 107.046C73.904 109.419 73.2922 111.74 72.3336 113.924C72.1606 114.387 71.9299 114.827 71.647 115.232C71.7785 114.759 71.945 114.296 72.145 113.847C72.9914 111.643 73.5954 109.354 73.9461 107.019C73.9967 106.53 74.0783 106.045 74.1904 105.566Z" fill="#263238"/>
<path d="M26.0986 193.711L25.9995 202.173C25.9995 202.173 17.3636 204.917 17.1968 206.479L33.5981 207.259L34.292 194.078L26.0986 193.711Z" fill="#455A64"/>
<path d="M31.1085 201.692C31.2649 201.747 31.3955 201.858 31.4746 202.003C31.5537 202.149 31.5757 202.319 31.5364 202.48C31.4865 202.637 31.3785 202.77 31.2342 202.85C31.09 202.931 30.9204 202.953 30.7603 202.913C30.5954 202.853 30.4583 202.735 30.3753 202.581C30.2923 202.426 30.2692 202.247 30.3106 202.076C30.38 201.917 30.5079 201.791 30.6677 201.724C30.8275 201.657 31.0069 201.654 31.1689 201.716" fill="#E0E0E0"/>
<path d="M33.5863 207.251L33.6032 205.921L17.8739 205.68C17.8739 205.68 17.1317 205.963 17.1873 206.482L33.5863 207.251Z" fill="#E0E0E0"/>
<path d="M25.7359 202.081C25.7359 202.158 26.1348 202.214 26.5168 202.492C26.8988 202.77 27.0922 203.113 27.1647 203.084C27.2373 203.055 27.143 202.586 26.6812 202.265C26.2195 201.943 25.7214 202.004 25.7359 202.081Z" fill="#263238"/>
<path d="M23.9785 202.701C23.9568 202.779 24.2952 202.929 24.5539 203.284C24.8126 203.639 24.8707 204.009 24.9529 204.009C25.0351 204.009 25.1027 203.56 24.7812 203.127C24.4597 202.694 23.9785 202.629 23.9785 202.701Z" fill="#263238"/>
<path d="M22.897 204.72C22.9696 204.742 23.1025 204.343 22.914 203.901C22.7254 203.458 22.3652 203.258 22.3265 203.325C22.2878 203.393 22.5102 203.635 22.6528 204.007C22.7955 204.379 22.8173 204.696 22.897 204.72Z" fill="#263238"/>
<path d="M25.9743 200.141C26.0008 200.213 26.378 200.124 26.8277 200.175C27.2774 200.225 27.6255 200.385 27.669 200.32C27.7126 200.254 27.3862 199.955 26.8543 199.899C26.3224 199.843 25.9404 200.08 25.9743 200.141Z" fill="#263238"/>
<g opacity="0.3">
<path d="M26.0787 195.383L26.0569 196.891L34.1222 197.201L34.1947 195.842L26.0787 195.383Z" fill="black"/>
</g>
<path d="M26.0325 198.441C26.2973 198.528 26.581 198.54 26.852 198.475C27.3271 198.413 27.7859 198.26 28.2035 198.025C28.2984 197.98 28.3844 197.917 28.4574 197.841C28.5138 197.787 28.55 197.715 28.5601 197.637C28.5702 197.56 28.5536 197.481 28.513 197.414C28.4758 197.355 28.4253 197.307 28.3656 197.272C28.3059 197.237 28.2387 197.217 28.1697 197.213C28.0658 197.207 27.9615 197.215 27.8602 197.239C27.6828 197.274 27.5088 197.324 27.3404 197.389C27.0575 197.5 26.794 197.655 26.5595 197.849C26.1606 198.182 26.0155 198.475 26.0446 198.492C26.0736 198.509 26.2863 198.277 26.6756 198.008C26.9104 197.852 27.1638 197.725 27.4299 197.631C27.5876 197.578 27.7493 197.538 27.9134 197.51C28.0899 197.472 28.235 197.476 28.2785 197.561C28.2954 197.588 28.2954 197.605 28.2567 197.651C28.2007 197.704 28.1372 197.749 28.0681 197.783C27.9247 197.867 27.777 197.943 27.6257 198.011C27.3643 198.124 27.0932 198.213 26.8158 198.277C26.552 198.318 26.2906 198.373 26.0325 198.441Z" fill="#263238"/>
<path d="M26.1329 198.567C26.2978 198.34 26.3867 198.066 26.3868 197.786C26.418 197.482 26.3934 197.176 26.3143 196.881C26.267 196.707 26.2055 196.536 26.1305 196.371C26.0916 196.261 26.0245 196.162 25.9359 196.085C25.8473 196.009 25.7402 195.956 25.6252 195.934C25.5522 195.932 25.4802 195.951 25.4173 195.988C25.3545 196.025 25.3034 196.079 25.2698 196.144C25.2243 196.239 25.191 196.34 25.1707 196.444C25.1346 196.626 25.1256 196.813 25.1441 196.997C25.175 197.307 25.2812 197.604 25.4536 197.863C25.7534 198.301 26.0846 198.417 26.0918 198.39C26.0991 198.363 25.8501 198.185 25.6204 197.764C25.4903 197.523 25.4144 197.256 25.398 196.983C25.386 196.825 25.399 196.666 25.4366 196.511C25.4705 196.34 25.543 196.202 25.6083 196.224C25.6736 196.246 25.8235 196.362 25.8863 196.507C25.9618 196.652 26.0233 196.804 26.0701 196.961C26.1494 197.23 26.1901 197.508 26.191 197.788C26.1885 198.252 26.087 198.545 26.1329 198.567Z" fill="#263238"/>
<path d="M59.5242 132.457C59.5242 132.457 33.9115 121.716 25.9792 121.256C21.0085 120.969 17.2442 124.157 17.9212 129.309C18.2596 131.887 25.3361 162.018 25.3361 162.018L36.1334 157.086L30.9451 136.251L51.9787 146.477L59.5242 132.457Z" fill="#263238"/>
<path d="M27.7094 130.984C28.2171 131.882 28.7699 132.754 29.3656 133.595C30.2625 135.046 30.8621 136.289 30.9612 136.255C30.3662 134.242 29.2425 132.425 27.707 130.994L27.7094 130.984Z" fill="#455A64"/>
<path d="M25.6111 132.172C26.4901 132.901 27.4095 133.58 28.3648 134.205C29.2467 134.931 30.1685 135.606 31.1258 136.229C30.4098 135.322 29.5526 134.536 28.5872 133.9C27.6957 133.166 26.6905 132.583 25.6111 132.172Z" fill="#455A64"/>
<path d="M79.4968 138.924C77.8129 141.124 75.6673 142.929 73.2109 144.211C69.3427 145.635 40.8143 159.104 40.8143 159.104C40.8143 159.104 35.6381 197.559 36.0467 195.956L24.1011 195.669L25.3969 160.245C25.6907 157.786 26.5348 155.424 27.8667 153.336C29.1985 151.248 30.9838 149.487 33.0899 148.184L59.5173 132.469L79.4968 138.924Z" fill="#263238"/>
<path d="M25.1649 166.728C25.1957 166.569 25.2127 166.407 25.2157 166.245C25.2326 165.889 25.2592 165.425 25.2882 164.855C25.351 163.149 25.5084 161.449 25.7597 159.761C26.1083 157.266 26.9888 154.875 28.3417 152.749C29.1828 151.53 30.2204 150.459 31.4121 149.58C32.7057 148.638 34.0593 147.781 35.4641 147.015C41.2109 143.722 46.1719 140.364 49.8419 138.069C51.6721 136.906 53.1565 135.98 54.1937 135.347L55.3808 134.622C55.524 134.542 55.6592 134.449 55.7845 134.344C55.632 134.399 55.4854 134.469 55.3469 134.554C55.0641 134.704 54.6482 134.926 54.1212 135.224C53.0622 135.816 51.556 136.708 49.709 137.845C46.0003 140.091 41.0175 143.405 35.2876 146.696C33.8667 147.468 32.5 148.336 31.197 149.295C29.9744 150.202 28.9121 151.308 28.054 152.566C26.6865 154.742 25.8141 157.193 25.4985 159.744C25.27 161.443 25.1512 163.156 25.1431 164.871V166.269C25.1354 166.422 25.1427 166.576 25.1649 166.728Z" fill="#455A64"/>
<path d="M68.9618 142.977C69.0053 142.927 68.6571 142.605 68.2365 141.991C67.6857 141.189 67.301 140.285 67.105 139.332C66.9112 138.381 66.9112 137.401 67.105 136.45C67.2251 136.058 67.3236 135.66 67.4 135.258C67.1291 135.583 66.9408 135.969 66.8512 136.382C66.5682 137.366 66.5261 138.403 66.7285 139.406C66.9309 140.409 67.3718 141.349 68.0141 142.146C68.5242 142.755 68.94 143.011 68.9618 142.977Z" fill="#455A64"/>
<path d="M28.4866 195.665C28.505 195.602 28.5179 195.537 28.5253 195.471C28.5422 195.322 28.5688 195.128 28.5978 194.889C28.6534 194.352 28.7356 193.598 28.8395 192.65C29.033 190.677 29.311 187.866 29.6495 184.408C29.8163 182.663 29.9976 180.76 30.1934 178.715C30.3893 176.669 30.5972 174.479 30.7592 172.175C30.9212 169.871 31.1581 167.458 31.5739 164.992C31.9784 162.442 32.7164 159.956 33.7691 157.599C34.877 155.264 36.3456 153.118 38.1209 151.24C39.7738 149.488 41.585 147.892 43.5316 146.473C46.873 144.117 50.3437 141.949 53.9276 139.981C56.9593 138.241 59.377 136.756 60.9823 135.63C61.7922 135.076 62.4014 134.626 62.8125 134.31L63.2718 133.949C63.3709 133.867 63.4265 133.821 63.4217 133.816C63.3593 133.843 63.3014 133.879 63.25 133.923L62.7665 134.256C62.3458 134.549 61.7197 134.982 60.9049 135.514C59.2754 136.594 56.8481 138.035 53.7994 139.749C50.1854 141.688 46.689 143.839 43.3286 146.19C41.3576 147.614 39.5243 149.219 37.8526 150.984C36.054 152.89 34.5666 155.068 33.4452 157.437C32.3799 159.827 31.6345 162.347 31.2282 164.932C30.8123 167.419 30.5972 169.849 30.4304 172.153C30.2636 174.457 30.0871 176.648 29.9033 178.693C29.7196 180.738 29.56 182.646 29.4198 184.391C29.1321 187.856 28.8927 190.677 28.7259 192.645C28.6534 193.599 28.5978 194.348 28.5591 194.891C28.5422 195.133 28.5325 195.324 28.5253 195.479C28.518 195.633 28.4769 195.665 28.4866 195.665Z" fill="#455A64"/>
<path d="M56.613 71.4646C56.2114 70.4283 55.4529 69.5695 54.4742 69.0429C53.4955 68.5163 52.3609 68.3566 51.2748 68.5924C50.7961 68.7638 50.297 68.8719 49.7903 68.914C49.1753 68.8063 48.5709 68.6445 47.9844 68.4304C47.3187 68.321 46.6361 68.4638 46.07 68.8309C45.504 69.1979 45.0952 69.7629 44.9236 70.4153C44.402 70.2894 43.8592 70.2782 43.3329 70.3825C42.8065 70.4869 42.309 70.7043 41.8749 71.0198C41.4514 71.3493 41.1511 71.8119 41.0226 72.333C40.8941 72.854 40.9448 73.4032 41.1666 73.8919C41.3817 74.2957 41.7371 74.6172 41.9378 75.0331C42.1239 75.7634 42.2588 76.5058 42.3415 77.2549C42.5545 77.7754 42.9095 78.2256 43.3661 78.5539C43.8227 78.8822 44.3624 79.0755 44.9236 79.1116C46.0476 79.1635 47.1712 78.9994 48.2334 78.6281" fill="#263238"/>
<path d="M51.4938 93.3736C51.356 92.305 51.2521 91.5507 51.2521 91.5507C50.0546 91.4307 48.9255 90.9358 48.0256 90.1367C47.1257 89.3375 46.5009 88.2748 46.2403 87.0998C45.4707 84.1605 44.9754 81.1562 44.7607 78.1255C44.6971 77.4726 44.7664 76.8137 44.9645 76.1884C45.1626 75.5631 45.4854 74.9844 45.9134 74.4873C46.3413 73.9903 46.8656 73.5851 47.4545 73.2962C48.0433 73.0073 48.6847 72.8408 49.3397 72.8066L58.829 72.3086L59.0345 73.7785L61.5344 92.0246C61.7138 93.3585 61.3562 94.7091 60.5401 95.7795C59.7241 96.8498 58.5164 97.5524 57.1826 97.7326C55.8506 97.9064 54.504 97.5452 53.4378 96.7282C52.3715 95.9112 51.6725 94.705 51.4938 93.3736Z" fill="#F9BB85"/>
<path d="M46.1094 80.739C46.1322 80.891 46.2134 81.0281 46.3358 81.1211C46.4582 81.2141 46.612 81.2557 46.7646 81.237C46.8396 81.231 46.9126 81.21 46.9793 81.1753C47.046 81.1406 47.1051 81.0929 47.1531 81.035C47.2011 80.9771 47.237 80.9102 47.2587 80.8381C47.2805 80.7661 47.2875 80.6905 47.2795 80.6157C47.2567 80.4637 47.1755 80.3266 47.0531 80.2335C46.9308 80.1405 46.7769 80.099 46.6243 80.1177C46.5494 80.1237 46.4764 80.1447 46.4096 80.1794C46.3429 80.2141 46.2838 80.2618 46.2358 80.3197C46.1878 80.3776 46.1519 80.4446 46.1302 80.5166C46.1085 80.5886 46.1014 80.6642 46.1094 80.739Z" fill="#263238"/>
<path d="M45.8704 79.9204C45.9526 79.9857 46.3419 79.5868 46.968 79.4876C47.5942 79.3885 48.1043 79.6327 48.1599 79.5432C48.1865 79.5045 48.0922 79.3764 47.8722 79.2652C47.5717 79.1209 47.234 79.0727 46.9052 79.1274C46.5803 79.1798 46.2801 79.3329 46.0469 79.565C45.8704 79.7439 45.8245 79.8938 45.8704 79.9204Z" fill="#263238"/>
<path d="M52.0542 79.7351C52.077 79.8871 52.1582 80.0242 52.2806 80.1173C52.403 80.2103 52.5568 80.2518 52.7094 80.2331C52.7844 80.2271 52.8574 80.2061 52.9241 80.1714C52.9908 80.1367 53.05 80.089 53.098 80.0311C53.1459 79.9732 53.1819 79.9062 53.2036 79.8342C53.2253 79.7622 53.2323 79.6866 53.2244 79.6118C53.2016 79.4598 53.1203 79.3227 52.998 79.2297C52.8756 79.1367 52.7218 79.0951 52.5692 79.1138C52.4942 79.1198 52.4212 79.1408 52.3545 79.1755C52.2877 79.2102 52.2286 79.2579 52.1806 79.3158C52.1326 79.3737 52.0967 79.4406 52.075 79.5127C52.0533 79.5847 52.0462 79.6603 52.0542 79.7351Z" fill="#263238"/>
<path d="M52.0458 79.0649C52.128 79.1326 52.5294 78.7313 53.1483 78.6322C53.7672 78.533 54.2846 78.7772 54.3402 78.6878C54.3668 78.6491 54.2725 78.521 54.0525 78.4098C53.752 78.2654 53.4143 78.2173 53.0854 78.2719C52.7606 78.3243 52.4604 78.4774 52.2272 78.7095C52.0458 78.8884 52.0072 79.0383 52.0458 79.0649Z" fill="#263238"/>
<path d="M50.5101 84.0646C50.1634 84.014 49.8118 84.0067 49.4632 84.0428C49.3037 84.0428 49.1417 84.0428 49.0982 83.9364C49.0608 83.7755 49.0725 83.607 49.132 83.4529C49.2215 83.0419 49.3158 82.6116 49.4101 82.1619C49.6869 81.0613 49.8721 79.9397 49.9637 78.8086C49.6013 79.8859 49.3248 80.9902 49.1369 82.1111C49.0474 82.5656 48.9604 82.9984 48.8757 83.407C48.8039 83.6164 48.8099 83.8447 48.8927 84.0501C48.925 84.1026 48.9688 84.1473 49.0206 84.1808C49.0725 84.2142 49.1312 84.2357 49.1925 84.2435C49.2848 84.255 49.3782 84.255 49.4705 84.2435C49.8228 84.2246 50.1717 84.1646 50.5101 84.0646Z" fill="#263238"/>
<path d="M51.2532 91.5346C53.3955 91.2277 55.4102 90.3312 57.0725 88.9453C56.6268 90.0527 55.8521 90.9967 54.853 91.65C53.8539 92.3032 52.6784 92.6343 51.4853 92.5984L51.2532 91.5346Z" fill="#AA6550"/>
<path d="M52.4136 84.1957C52.3072 84.1957 52.4136 84.8896 51.9155 85.4602C51.4175 86.0307 50.6729 86.0742 50.685 86.1685C50.685 86.2121 50.8687 86.2749 51.1685 86.2362C51.5677 86.1768 51.9341 85.9812 52.2057 85.6826C52.4646 85.3942 52.6 85.0157 52.5828 84.6285C52.5635 84.3408 52.4571 84.1861 52.4136 84.1957Z" fill="#263238"/>
<path d="M51.489 76.6232C51.5784 76.7828 52.1925 76.6014 52.9396 76.5724C53.6866 76.5434 54.3152 76.6498 54.3902 76.483C54.424 76.4056 54.2959 76.2606 54.0299 76.1348C53.6799 75.9796 53.2976 75.9107 52.9154 75.9342C52.5322 75.9483 52.1578 76.0527 51.8226 76.2388C51.5663 76.3887 51.4503 76.5458 51.489 76.6232Z" fill="#263238"/>
<path d="M45.8167 78.0669C45.9496 78.1878 46.3606 77.9726 46.8756 77.8832C47.3906 77.7937 47.8427 77.8276 47.9297 77.6608C47.9635 77.5834 47.8693 77.4504 47.6589 77.344C47.3762 77.2251 47.0645 77.1927 46.7633 77.2507C46.4621 77.3088 46.1848 77.4549 45.9666 77.6704C45.7876 77.859 45.7562 78.0138 45.8167 78.0669Z" fill="#263238"/>
<path d="M44.3007 76.1263C45.2243 76.3496 46.1854 76.3686 47.117 76.1819C48.0486 75.9952 48.9283 75.6075 49.6945 75.0456C51.5851 73.7812 53.8795 72.9882 54.45 73.3339C55.0206 73.6796 55.3929 75.7516 57.4697 76.0949C57.4697 76.0949 57.8348 80.0864 59.4038 79.7431C60.5184 79.5014 59.8704 75.0988 59.4038 72.5869C59.3116 72.0988 59.0564 71.6564 58.68 71.3323C58.3036 71.0081 57.8283 70.8214 57.3319 70.8026L54.4114 70.6914L50.7631 71.7117L46.8489 72.7754L43.8728 74.0109L44.3007 76.1263Z" fill="#263238"/>
<path d="M59.0447 78.1277C59.1051 78.0842 61.5276 76.8149 61.9773 79.4574C62.0598 79.7844 62.0588 80.127 61.9744 80.4535C61.8901 80.7801 61.725 81.0802 61.4945 81.3264C61.264 81.5726 60.9753 81.7569 60.6549 81.8625C60.3346 81.9681 59.9929 81.9915 59.6612 81.9307C59.637 81.8533 59.0447 78.1277 59.0447 78.1277Z" fill="#F9BB85"/>
<path d="M60.2975 80.7958C60.2975 80.7958 60.3482 80.8176 60.4304 80.8394C60.5472 80.8655 60.6695 80.8474 60.7737 80.7886C60.9262 80.6508 61.0394 80.475 61.1018 80.2793C61.1642 80.0835 61.1736 79.8747 61.1291 79.6741C61.0972 79.4459 61.0146 79.2278 60.8874 79.0358C60.8491 78.9576 60.7923 78.8898 60.7219 78.8384C60.6516 78.787 60.5698 78.7536 60.4836 78.7409C60.43 78.7386 60.3771 78.7542 60.3333 78.7853C60.2895 78.8164 60.2574 78.8611 60.2418 78.9125C60.2201 78.9899 60.2418 79.0406 60.2418 79.0503C60.2418 79.06 60.1766 79.0165 60.1814 78.9004C60.1834 78.8317 60.211 78.7661 60.2588 78.7167C60.3222 78.6501 60.4087 78.6103 60.5005 78.6055C60.6122 78.6088 60.7212 78.6405 60.8172 78.6976C60.9132 78.7547 60.9931 78.8353 61.0493 78.9318C61.1986 79.1421 61.2956 79.385 61.3322 79.6402C61.3844 79.8734 61.3663 80.1168 61.2803 80.3397C61.1942 80.5626 61.044 80.755 60.8487 80.8926C60.7811 80.9248 60.7072 80.9415 60.6323 80.9415C60.5574 80.9415 60.4835 80.9248 60.4159 80.8926C60.3095 80.8636 60.2902 80.8079 60.2975 80.7958Z" fill="#AA6550"/>
<path d="M45.542 69.4399C45.5637 69.4399 45.6363 69.5776 45.82 69.7952C46.0906 70.0935 46.435 70.3153 46.8185 70.4383C47.3881 70.6233 47.9973 70.6501 48.581 70.5157C49.3072 70.339 50.0205 70.1129 50.7158 69.8388C51.4374 69.5551 52.2083 69.4179 52.9835 69.435C53.6363 69.4573 54.254 69.7362 54.7025 70.2111C55.0126 70.5205 55.1999 70.932 55.2295 71.3691C55.2514 71.5265 55.2244 71.6869 55.1522 71.8285C55.1256 71.8285 55.1522 71.6617 55.1183 71.3788C55.047 70.9855 54.8502 70.6258 54.5574 70.3537C54.1302 69.9412 53.5605 69.7091 52.9666 69.7058C52.2284 69.7067 51.4969 69.8461 50.8101 70.1168C50.1042 70.3977 49.3765 70.62 48.6342 70.7816C48.0065 70.9117 47.3547 70.8597 46.7556 70.6318C46.3478 70.4854 45.9939 70.2191 45.7402 69.8678C45.5541 69.6164 45.5251 69.4447 45.542 69.4399Z" fill="#455A64"/>
<path d="M54.4706 71.9712C54.4488 71.9881 54.3376 71.8333 54.0596 71.6375C53.6638 71.3804 53.2019 71.2435 52.7299 71.2435C52.0276 71.2376 51.3346 71.4036 50.7111 71.727C49.9339 72.1523 49.1304 72.5278 48.3056 72.8512C47.5233 73.0942 46.6995 73.1739 45.8852 73.0853C45.0709 72.9967 44.2835 72.7417 43.5718 72.3362C43.1436 72.0958 42.752 71.7954 42.4089 71.4441C42.1671 71.1902 42.0608 71.0331 42.0753 71.0234C42.5672 71.4554 43.1018 71.8362 43.6709 72.1597C45.0731 72.8935 46.708 73.0447 48.221 72.5804C49.0346 72.2591 49.8303 71.8943 50.6048 71.4876C51.2673 71.1555 52.004 70.999 52.7444 71.0331C53.2484 71.0528 53.7333 71.2313 54.1297 71.5432C54.2811 71.6513 54.3991 71.7995 54.4706 71.9712Z" fill="#455A64"/>
<path d="M46.2662 117.02L33.397 106.051L29.1516 107.018C31.2628 111.516 33.8474 115.777 36.8615 119.727C37.8465 120.963 39.1916 121.861 40.7101 122.297C42.2287 122.732 43.8453 122.685 45.3354 122.16C50.6059 120.296 46.2662 117.02 46.2662 117.02Z" fill="#F9BB85"/>
<path d="M32.4179 93.9531H26.9468C26.7402 93.9637 26.5385 94.0204 26.3566 94.119C26.1747 94.2176 26.0172 94.3556 25.8955 94.5229C25.7738 94.6903 25.6911 94.8827 25.6534 95.0861C25.6157 95.2896 25.6239 95.4988 25.6775 95.6987L31.1825 106.414C31.2872 106.618 31.4462 106.789 31.642 106.909C31.8378 107.028 32.0629 107.091 32.2922 107.091L38.9601 107.074C39.115 107.053 39.2625 106.995 39.3902 106.905C39.5178 106.815 39.6217 106.695 39.693 106.556C39.7643 106.417 39.8008 106.263 39.7995 106.107C39.7982 105.951 39.7591 105.797 39.6854 105.659L34.3666 95.1668C34.1872 94.803 33.9097 94.4965 33.5654 94.2821C33.221 94.0676 32.8236 93.9537 32.4179 93.9531Z" fill="#455A64"/>
<path d="M32.0541 94.6055H26.5853C26.4285 94.6046 26.2742 94.6442 26.1372 94.7205C26.0002 94.7967 25.8852 94.907 25.8032 95.0407C25.7213 95.1744 25.6753 95.327 25.6696 95.4837C25.6638 95.6403 25.6986 95.7959 25.7706 95.9352L31.1354 106.416C31.24 106.62 31.399 106.791 31.5949 106.91C31.7907 107.03 32.0157 107.093 32.2451 107.093H38.8404C38.9328 107.094 39.0238 107.071 39.1047 107.026C39.1857 106.982 39.2537 106.917 39.3023 106.839C39.351 106.76 39.3785 106.67 39.3823 106.578C39.3861 106.486 39.366 106.394 39.324 106.312L34.0051 95.8191C33.8256 95.4549 33.5477 95.1483 33.2029 94.9338C32.8581 94.7193 32.4601 94.6056 32.0541 94.6055Z" fill="#263238"/>
<path d="M31.5844 98.9844L28.2529 100.314L27.5276 102.998L29.1305 106.989L35.0175 107.843L33.2937 106.08L33.5161 104.545C33.5161 104.545 35.1577 104.03 35.1964 103.781C35.2351 103.532 34.9909 102.688 34.7419 102.645C34.0693 102.791 33.4096 102.992 32.7691 103.244C32.7691 103.244 34.8096 101.632 34.7467 101.371C34.6839 101.109 34.4687 100.449 34.0649 100.372C32.7945 100.762 31.5581 101.255 30.3683 101.847L29.8365 103.056L29.3698 101.122C29.3698 101.122 32.3049 100.309 31.5844 98.9844Z" fill="#F9BB85"/>
<path d="M31.9938 105.3C31.972 105.3 31.9116 105.184 31.8826 104.967C31.8466 104.682 31.8806 104.394 31.9817 104.125C32.081 103.857 32.2426 103.616 32.4531 103.422C32.6199 103.277 32.7408 103.228 32.7529 103.245C32.5029 103.527 32.2974 103.845 32.1437 104.188C32.0363 104.549 31.9857 104.924 31.9938 105.3Z" fill="#AA6550"/>
<path d="M30.4192 104.69C30.4795 104.402 30.5238 104.112 30.5522 103.82C30.5656 103.491 30.6216 103.166 30.719 102.853C30.786 102.663 30.8895 102.488 31.0236 102.338C31.1796 102.187 31.3647 102.07 31.5676 101.994C32.3654 101.707 33.081 101.472 33.6081 101.3C33.8863 101.194 34.1735 101.113 34.4663 101.059C34.2052 101.201 33.9307 101.318 33.6468 101.407C33.1366 101.607 32.4162 101.861 31.6353 102.132C31.4562 102.2 31.292 102.302 31.1517 102.432C31.0284 102.562 30.9337 102.717 30.8737 102.886C30.7724 103.186 30.7075 103.497 30.6803 103.812C30.6714 104.123 30.5814 104.425 30.4192 104.69Z" fill="#AA6550"/>
<path d="M29.6655 104.09C29.6168 103.874 29.6243 103.648 29.6873 103.435C29.7477 103.08 29.8323 102.797 29.8758 102.809C29.9245 103.026 29.917 103.251 29.8541 103.464C29.7985 103.82 29.7139 104.095 29.6655 104.09Z" fill="#AA6550"/>
<path d="M29.5747 96.6245C29.5747 96.7627 29.6157 96.8977 29.6925 97.0126C29.7692 97.1276 29.8784 97.2171 30.006 97.27C30.1337 97.3229 30.2742 97.3367 30.4097 97.3098C30.5453 97.2828 30.6698 97.2162 30.7675 97.1185C30.8652 97.0208 30.9317 96.8963 30.9587 96.7608C30.9857 96.6253 30.9718 96.4848 30.9189 96.3571C30.866 96.2294 30.7765 96.1203 30.6616 96.0435C30.5467 95.9668 30.4116 95.9258 30.2734 95.9258C30.0881 95.9258 29.9104 95.9994 29.7794 96.1304C29.6483 96.2614 29.5747 96.4392 29.5747 96.6245Z" fill="#FAFAFA"/>
<path d="M10.4085 202.282C11.2768 202.551 12.0818 202.993 12.7752 203.581C13.4685 204.169 14.036 204.891 14.4436 205.703C15.249 207.336 15.6715 209.131 15.679 210.952C15.5773 214.606 14.5249 218.171 12.6255 221.295C9.92113 219.122 8.10216 216.038 7.50978 212.62C6.67811 209.083 7.31394 202.188 10.4085 202.282Z" fill="#A31E0B"/>
<path d="M16.8154 226.495C16.4739 225.538 16.3915 224.507 16.5767 223.508C16.7618 222.508 17.2078 221.576 17.8695 220.804C18.5441 220.045 19.3628 219.428 20.278 218.989C21.1932 218.549 22.1866 218.296 23.2005 218.244C23.6635 218.169 24.1371 218.197 24.5882 218.326C25.0393 218.454 25.4568 218.679 25.8115 218.986C26.0913 219.324 26.2758 219.731 26.3459 220.165C26.4161 220.598 26.3693 221.043 26.2104 221.452C25.8789 222.267 25.3375 222.98 24.6414 223.519C23.6353 224.559 22.4126 225.365 21.0601 225.879C19.7076 226.394 18.2584 226.604 16.8154 226.495Z" fill="#A31E0B"/>
<path d="M14.6422 237.618C14.6206 237.377 14.6206 237.134 14.6422 236.893C14.6591 236.383 14.6857 235.718 14.7147 234.925C14.7295 232.742 15.0961 230.577 15.8002 228.511C16.5438 226.44 17.8256 224.604 19.5137 223.192C20.0288 222.777 20.5902 222.423 21.1867 222.138C21.3486 222.06 21.5149 221.991 21.6848 221.932C21.8008 221.889 21.8621 221.872 21.8685 221.882C21.0757 222.289 20.3257 222.775 19.6298 223.332C18.0077 224.755 16.7719 226.564 16.0371 228.593C15.3429 230.634 14.9558 232.767 14.8887 234.922C14.8283 235.749 14.7824 236.424 14.734 236.886C14.7253 237.132 14.6946 237.377 14.6422 237.618Z" fill="#263238"/>
<path d="M10.3823 207.582C10.4223 207.68 10.4499 207.782 10.4645 207.887C10.5096 208.114 10.5709 208.408 10.6482 208.769C10.803 209.533 11.0085 210.648 11.2575 212.023C11.741 214.777 12.3769 218.585 12.9692 222.808C13.5615 227.032 14.016 230.874 14.3061 233.649C14.4512 235.039 14.56 236.166 14.6229 236.947C14.6503 237.313 14.6728 237.612 14.6906 237.844C14.7028 237.949 14.7028 238.055 14.6906 238.161C14.6595 238.06 14.6408 237.956 14.635 237.851C14.6084 237.609 14.5673 237.324 14.5189 236.959C14.4198 236.149 14.2771 235.025 14.12 233.673C13.7864 230.895 13.3052 227.066 12.7129 222.842C12.1206 218.619 11.521 214.806 11.0713 212.05C10.8489 210.691 10.6724 209.584 10.5443 208.786C10.4887 208.421 10.4452 208.126 10.4113 207.894C10.3867 207.792 10.3769 207.687 10.3823 207.582Z" fill="#263238"/>
<path d="M12.1068 229.337C11.4517 227.298 10.3208 225.443 8.80738 223.927C7.29398 222.411 5.44158 221.277 3.40324 220.619C2.91114 220.387 2.36309 220.301 1.82375 220.371C1.28442 220.441 0.776316 220.664 0.359411 221.013C0.0918556 221.488 -0.0308055 222.031 0.00657133 222.575C0.0439482 223.119 0.239723 223.64 0.569742 224.074C1.72566 226.035 3.43646 227.609 5.48627 228.599C7.53608 229.588 9.83307 229.949 12.0875 229.634" fill="#A31E0B"/>
<path d="M4.34314 223.82C4.56645 223.859 4.78576 223.918 4.99833 223.997C5.25269 224.072 5.50219 224.162 5.74539 224.268C6.02825 224.396 6.36672 224.509 6.71245 224.696C7.53903 225.105 8.32574 225.591 9.06241 226.146C10.8807 227.504 12.3357 229.289 13.2981 231.344C13.5062 231.79 13.6895 232.247 13.8469 232.712C13.9883 233.118 14.1086 233.53 14.2072 233.948C14.2942 234.289 14.3612 234.636 14.4079 234.985C14.4561 235.247 14.4875 235.512 14.5021 235.778C14.5325 236.004 14.5398 236.232 14.5239 236.46C14.4683 236.46 14.4248 235.493 14.0404 233.994C13.9355 233.584 13.8079 233.181 13.6584 232.785C13.494 232.329 13.3068 231.881 13.0975 231.443C12.1265 229.437 10.699 227.687 8.92945 226.332C8.54661 226.035 8.14879 225.757 7.73754 225.501C7.36039 225.247 6.98323 225.051 6.63992 224.862C5.25944 224.142 4.32139 223.871 4.34314 223.82Z" fill="#263238"/>
</g>
<defs>
<clipPath id="clip0_1687_6403">
<rect width="380" height="260" fill="white"/>
</clipPath>
</defs>
</svg>
