<svg width="41" height="40" viewBox="0 0 41 40" fill="none" xmlns="http://www.w3.org/2000/svg">
<path fill-rule="evenodd" clip-rule="evenodd" d="M20.6977 8C21.1276 8 21.54 8.17088 21.844 8.47506C22.1481 8.77924 22.3189 9.19179 22.3189 9.62196V30.378C22.3189 30.591 22.277 30.802 22.1955 30.9987C22.114 31.1955 21.9946 31.3743 21.844 31.5249C21.6935 31.6756 21.5148 31.795 21.3181 31.8765C21.1214 31.958 20.9106 32 20.6977 32C20.4847 32 20.2739 31.958 20.0772 31.8765C19.8805 31.795 19.7018 31.6756 19.5513 31.5249C19.4007 31.3743 19.2813 31.1955 19.1998 30.9987C19.1184 30.802 19.0764 30.591 19.0764 30.378V9.61122C19.0793 9.18291 19.2513 8.77311 19.555 8.47126C19.8588 8.1694 20.2695 7.99999 20.6977 8Z" fill="#959595"/>
<path fill-rule="evenodd" clip-rule="evenodd" d="M32.6924 20.0009C32.6924 20.431 32.5216 20.8436 32.2175 21.1478C31.9135 21.4519 31.5011 21.6228 31.0711 21.6228H10.3136C9.88364 21.6228 9.47127 21.4519 9.16723 21.1478C8.86319 20.8436 8.69238 20.431 8.69238 20.0009C8.69238 19.5707 8.86319 19.1581 9.16723 18.854C9.47127 18.5498 9.88364 18.3789 10.3136 18.3789H31.0694C31.2824 18.3787 31.4934 18.4205 31.6903 18.5019C31.8872 18.5833 32.0662 18.7027 32.2169 18.8533C32.3676 19.004 32.4872 19.1829 32.5688 19.3798C32.6504 19.5767 32.6924 19.7877 32.6924 20.0009Z" fill="#959595"/>
</svg>
