<svg width="310" height="232" viewBox="0 0 310 232" fill="none" xmlns="http://www.w3.org/2000/svg">
<g clip-path="url(#clip0_1769_11151)">
<path d="M278.378 226.845C286.335 206.67 289.239 184.856 286.837 163.303C284.436 141.749 276.802 121.109 264.6 103.18C252.398 85.2513 235.998 70.5772 216.828 60.4355C197.659 50.2938 176.3 44.9922 154.613 44.9922C132.926 44.9922 111.568 50.2938 92.3982 60.4355C73.2285 70.5772 56.8287 85.2513 44.6267 103.18C32.4248 121.109 24.7908 141.749 22.3894 163.303C19.9881 184.856 22.8922 206.67 30.8488 226.845H278.378Z" fill="#D7EFF2"/>
<path d="M154.614 231.139C235.587 231.139 301.228 229.487 301.228 227.449C301.228 225.411 235.587 223.759 154.614 223.759C73.6413 223.759 8 225.411 8 227.449C8 229.487 73.6413 231.139 154.614 231.139Z" fill="#B7B7B7"/>
<path d="M124.126 138.416L121.999 137.816C120.993 138.464 120.914 140.316 120.808 141.389C120.836 142.228 120.714 143.064 120.447 143.859C120.236 144.287 119.52 144.935 119.523 145.39C119.526 145.845 120.312 146.554 120.573 146.906C121.039 147.528 121.042 147.742 121.74 147.416C123.251 146.716 123.388 145.641 123.532 144.198C123.684 142.649 124.742 139.804 124.126 138.416Z" fill="#D85745"/>
<path d="M125.091 135.521L122.484 135.407C121.66 135.991 121.669 137.443 121.578 138.364C121.387 140.285 122.913 140.725 122.936 142.5C122.948 143.345 122.681 147.266 123.702 146.161C124.582 145.208 124.984 142.621 124.978 140.855C124.974 139.921 125.276 135.659 125.091 135.521Z" fill="#D85745"/>
<path d="M124.959 137.798C126.3 134.164 127.743 121.105 126.939 112.329C126.302 105.371 126.584 86.76 126.522 83.938C126.308 74.103 123.278 73.921 122.583 73.604L120.483 119.515L121.257 137.607L124.959 137.798Z" fill="#D85745"/>
<path d="M124.296 101.311C124.246 101.648 124.196 101.989 124.149 102.326C123.649 105.966 124.117 109.888 123.897 113.675C123.485 120.672 122.529 127.626 121.037 134.475C118.641 135.019 116.194 135.306 113.737 135.332C113.681 135.332 113.628 135.332 113.573 135.332C108.589 135.296 103.627 134.664 98.7924 133.45C98.1614 120.711 97.0384 109.873 92.2984 97.902C91.7117 96.4207 91.1867 95.0314 90.7234 93.734C87.8754 85.764 87.2534 81.0771 88.0234 78.1151C89.1084 73.9531 92.9484 73.196 97.2334 71.515C99.3684 70.679 99.9334 71.538 101.149 69.644L116.469 72.366C123.391 74.012 124.752 72.5361 125.492 79.3441C125.948 83.5981 125.247 95.09 124.296 101.311Z" fill="#FF725E"/>
<path d="M123.897 113.675C123.483 120.794 123.131 127.975 122.621 134.099C120.221 134.656 116.191 135.799 113.739 135.841C113.683 135.841 113.63 135.841 113.575 135.841C108.553 135.906 99.7624 133.656 95.0494 132.565C94.4184 119.826 97.0384 110.387 92.2984 98.4139C91.7117 96.9326 91.1867 95.5433 90.7234 94.2459C87.8754 86.2759 87.2534 81.589 88.0234 78.627C87.9471 79.7331 87.9411 80.843 88.0054 81.95C88.2224 85.927 90.4724 92.492 92.2964 96.032C93.9124 99.162 100.007 112.625 103.02 114.415C109.32 118.161 106.469 109.672 109.998 111.35C115.247 113.848 118.333 112.971 123.897 113.675Z" fill="#D85745"/>
<path d="M113.74 135.331C113.684 135.331 113.631 135.331 113.576 135.331C114.476 116.984 114.661 79.782 110.282 75.666L110.396 75.543C113.611 78.561 114.196 98.349 114.259 109.873C114.315 119.471 114.069 128.69 113.74 135.331Z" fill="#6B1F3A"/>
<path d="M115.767 78.7691C114.066 77.4256 112.109 76.4435 110.015 75.8831C107.795 76.3111 105.386 78.3411 103.556 79.6701C103.5 79.5701 103.445 79.4821 103.392 79.3881C101.831 76.7259 100.126 74.1508 98.2852 71.6741L99.6432 71.3011C101.409 69.9721 102.048 69.4681 102.543 68.2241C102.686 67.8596 102.804 67.4861 102.898 67.1061C103.722 63.7711 102.763 59.9871 102.819 57.0131C102.791 56.006 103.005 55.0069 103.444 54.1001C105.204 54.7891 108.244 58.3001 110.158 58.7931C111.194 59.0625 112.242 59.2797 113.299 59.4441C113.165 60.688 113.125 61.9402 113.179 63.1901C113.185 63.3341 113.194 63.4801 113.202 63.6211C113.302 65.4721 113.484 67.2491 113.712 68.9301C113.733 69.0851 113.753 69.2411 113.777 69.3931C113.801 69.5451 113.833 69.7681 113.877 70.0351C114.097 71.3581 114.543 73.7571 114.549 73.7601C115.107 74.3461 115.908 75.8601 115.767 78.7691Z" fill="#E27B6D"/>
<path d="M113.702 68.9322C112.529 69.2251 111.309 69.2778 110.115 69.0872C107.947 68.8052 105.343 68.5972 103.415 67.4472C103.233 67.3382 103.057 67.2272 102.89 67.1072C103.714 63.7722 102.755 59.9882 102.811 57.0142L113.195 63.6232C113.292 65.4732 113.473 67.2512 113.702 68.9322Z" fill="#BA554A"/>
<path d="M119.352 57.5121C119.323 55.8781 118.598 53.0741 118.495 51.7601C117.583 40.2301 112.077 42.0541 112.077 42.0541C109.777 41.8871 107.077 42.2891 105.419 44.0541C104.246 45.3011 99.5884 43.1681 99.1304 44.8341C97.8924 49.3221 100.045 57.0341 102.582 61.0721C104.228 63.6911 105.457 65.7451 108.437 67.6811C110.546 69.0511 115.556 70.3811 117.017 68.1031C118.548 65.7101 119.401 60.2581 119.352 57.5121Z" fill="#E27B6D"/>
<path d="M110.439 55.515C110.354 55.559 110.263 55.6 110.166 55.641C109.292 55.9813 108.393 56.2489 107.476 56.441C107.005 56.5653 106.58 56.8205 106.25 57.177C106.139 56.6781 106.155 56.1596 106.294 55.668C106.434 55.1765 106.693 54.7274 107.05 54.361C107.88 53.7546 108.888 53.4409 109.916 53.469C109.995 53.469 110.316 53.554 110.394 53.56C110.489 54.204 110.21 54.94 110.439 55.515Z" fill="#BA554A"/>
<path d="M110.574 56.5292C110.489 56.5732 110.398 56.6142 110.301 56.6552C109.428 56.9954 108.528 57.263 107.611 57.4552C106.889 57.6162 106.344 57.7132 106.344 57.7132C106.238 57.2839 106.261 56.8328 106.411 56.4168C106.561 56.0008 106.83 55.6383 107.186 55.3752C108.016 54.7688 109.024 54.4551 110.052 54.4832C110.131 54.4832 110.21 54.4892 110.287 54.4952C110.309 55.1815 110.406 55.8634 110.574 56.5292Z" fill="white"/>
<path d="M110.295 55.6202C110.332 55.9641 110.334 56.3108 110.301 56.6551C109.428 56.9954 108.528 57.263 107.611 57.4552C107.397 56.9745 107.262 56.4627 107.211 55.9392C107.191 55.7521 107.181 55.5642 107.182 55.3762C108.012 54.7698 109.02 54.456 110.048 54.4842C110.171 54.8527 110.254 55.2336 110.295 55.6202Z" fill="#191615"/>
<path d="M108.354 56.051C108.38 56.3 108.304 56.512 108.19 56.523C108.076 56.534 107.958 56.341 107.932 56.095C107.906 55.849 107.982 55.634 108.099 55.623C108.216 55.612 108.327 55.799 108.354 56.051Z" fill="white"/>
<path d="M118.394 53.4822C118.335 53.5232 118.271 53.5612 118.203 53.6022C117.601 53.9116 116.966 54.1518 116.311 54.3182C115.958 54.4522 115.659 54.6981 115.46 55.0182C115.257 54.0621 115.431 53.0646 115.947 52.2342C116.201 51.9596 116.514 51.7452 116.862 51.6068C117.21 51.4684 117.585 51.4095 117.959 51.4342C118.015 51.4402 118.249 51.5342 118.302 51.5402C118.285 52.1889 118.316 52.8379 118.394 53.4822Z" fill="#BA554A"/>
<path d="M118.519 54.497C118.46 54.538 118.396 54.576 118.328 54.617C117.726 54.9264 117.091 55.1666 116.436 55.333C115.926 55.474 115.541 55.553 115.541 55.553C115.442 55.1536 115.438 54.7366 115.531 54.3356C115.623 53.9346 115.808 53.561 116.072 53.245C116.326 52.9703 116.639 52.7559 116.987 52.6175C117.335 52.4791 117.71 52.4202 118.084 52.445C118.143 52.451 118.198 52.457 118.251 52.466C118.291 53.1486 118.38 53.8274 118.519 54.497Z" fill="white"/>
<path d="M118.292 53.585C118.328 53.9277 118.34 54.2726 118.327 54.617C117.726 54.9264 117.091 55.1666 116.435 55.333C116.267 54.8393 116.157 54.3274 116.109 53.808C116.088 53.617 116.077 53.43 116.071 53.245C116.326 52.9703 116.639 52.7559 116.987 52.6175C117.335 52.4791 117.71 52.4202 118.083 52.445C118.184 52.8187 118.254 53.2 118.292 53.585Z" fill="#191615"/>
<path d="M116.926 53.9524C116.952 54.2014 116.905 54.4104 116.826 54.4184C116.747 54.4264 116.656 54.2304 116.626 53.9814C116.596 53.7324 116.647 53.5234 116.726 53.5154C116.805 53.5074 116.9 53.7024 116.926 53.9524Z" fill="white"/>
<path d="M110.298 51.8011C109.958 51.5461 105.414 52.622 104.598 53.268L104.668 54.878C105.299 54.808 107.595 54.0831 107.595 54.0831C107.595 54.0831 107.988 54.1061 108.252 53.0421C108.39 53.3271 108.185 53.79 108.278 54.151C108.97 54.177 109.9 53.884 110.583 53.893C110.624 53.544 110.571 52.0041 110.298 51.8011Z" fill="#351615"/>
<path d="M118.989 50.9022C118.971 50.5652 118.96 50.2272 118.933 49.8902C117.906 49.7292 114.433 50.7112 114.348 51.0842C114.558 51.8148 114.892 52.5036 115.337 53.1202C115.792 52.8122 116.584 52.6682 117.037 52.3402C116.896 51.9702 116.494 51.6402 116.427 51.3162C117.207 52.1702 117.457 51.9762 117.457 51.9762C117.457 51.9762 118.328 51.8212 119.044 51.6532C119.021 51.4022 119.001 51.1512 118.989 50.9022Z" fill="#351615"/>
<path d="M116.264 59.8889C116.255 59.7949 116.241 59.7099 116.226 59.6219C116.211 59.5339 116.194 59.4519 116.173 59.3669C116.152 59.2819 116.132 59.1999 116.108 59.1179C116.084 59.0359 116.061 58.9509 116.035 58.8719C115.982 58.7079 115.926 58.5459 115.862 58.3879C115.833 58.3089 115.797 58.2299 115.762 58.1499C115.727 58.0699 115.692 57.9919 115.653 57.9149C115.614 57.8379 115.577 57.7599 115.533 57.6829C115.489 57.6059 115.448 57.5299 115.401 57.4569C115.354 57.3839 115.307 57.3069 115.254 57.2339C115.201 57.1609 115.154 57.0869 115.093 57.0199C114.978 56.8739 114.848 56.7398 114.706 56.6199C114.628 56.5563 114.543 56.5013 114.454 56.4559C114.405 56.4303 114.353 56.4115 114.299 56.3999C114.241 56.3869 114.181 56.3869 114.123 56.3999C114.209 56.424 114.283 56.4792 114.331 56.5549C114.377 56.6229 114.418 56.6944 114.454 56.7689C114.524 56.9189 114.583 57.0739 114.642 57.2299L114.727 57.4649L114.809 57.6999L114.973 58.1719L115.14 58.6439L115.31 59.1159C115.336 59.1949 115.369 59.2709 115.398 59.3509L115.486 59.5859C115.486 59.5859 115.636 59.8709 115.53 59.9229L115.213 60.0809C115.002 60.1899 114.788 60.2949 114.577 60.4099C114.471 60.4659 114.366 60.5209 114.26 60.5799C114.154 60.6389 114.052 60.6939 113.946 60.7559L113.638 60.9409C113.588 60.9729 113.538 61.0059 113.488 61.0409C113.438 61.0736 113.39 61.109 113.344 61.1469C113.458 61.0999 113.57 61.0619 113.687 61.0239L114.03 60.9099C114.259 60.8339 114.488 60.7599 114.716 60.6809C114.944 60.6019 115.174 60.5259 115.399 60.4429L115.742 60.3169C115.856 60.2759 115.971 60.2289 116.088 60.1789L116.288 60.0969L116.264 59.8889Z" fill="#BA554A"/>
<path d="M117.587 61.5981C117.387 62.0151 117.209 62.4751 117.006 62.9271C116.478 64.1121 115.833 65.2352 114.577 65.2822C113.732 65.1935 112.918 64.9132 112.198 64.4626C111.478 64.012 110.87 63.4031 110.421 62.6821C110.421 62.6821 110.667 62.6501 111.078 62.6001C112.474 62.4131 115.765 61.9731 117.587 61.5981Z" fill="#BA554A"/>
<path d="M117.587 61.5981C117.387 62.0151 117.209 62.4751 117.006 62.9271C115.533 63.3385 114.006 63.5273 112.477 63.4872C111.963 63.2703 111.49 62.9677 111.077 62.5921C112.474 62.4131 115.765 61.9731 117.587 61.5981Z" fill="white"/>
<path d="M118.627 39.9861C118.56 40.4998 118.421 41.0013 118.213 41.4761C116.597 45.2831 106.656 46.4161 105.462 46.4831C104.934 46.5121 102.662 44.1951 102.262 44.5181C102.262 44.5181 106.471 48.3461 102.64 53.5901C102.317 54.0331 104.24 60.0371 104.001 61.0901C103.526 61.2281 100.464 59.0481 100.07 59.4471C99.3224 58.5351 98.9324 57.2971 98.1754 56.3471C96.9813 55.0369 95.9017 53.6267 94.9484 52.1321C94.3296 51.1686 93.9484 50.0718 93.8364 48.9321C93.8202 48.637 93.8202 48.3412 93.8364 48.0461C93.9654 45.5291 95.9074 42.3581 98.4364 42.3321C98.38 41.703 98.4521 41.0689 98.6482 40.4685C98.8444 39.868 99.1605 39.3137 99.5774 38.8391C101.07 37.4601 103.713 36.8211 105.677 36.6951C107.633 36.654 109.585 36.8828 111.477 37.3751C112.85 37.6621 114.177 38.0971 115.563 38.3631C116.525 38.6348 117.534 38.7029 118.523 38.5631C118.663 39.0239 118.698 39.5099 118.627 39.9861Z" fill="#351615"/>
<path d="M118.629 39.9863C118.561 40.4999 118.422 41.0015 118.215 41.4763C116.599 45.2833 106.658 46.4163 105.464 46.4833C104.936 46.5123 102.664 44.1953 102.264 44.5183C102.264 44.5183 106.473 48.3463 102.642 53.5903C102.319 54.0333 105.253 58.3453 104.003 61.0903C103.528 61.2283 100.466 59.0483 100.072 59.4473C99.3239 58.5353 98.9339 57.2973 98.1769 56.3473C96.9828 55.0371 95.9032 53.6269 94.9499 52.1323C94.331 51.1688 93.9499 50.072 93.8379 48.9323C94.123 49.5645 94.5193 50.1403 95.0079 50.6323C95.9033 51.4985 97.0971 51.9878 98.3429 51.9993C98.4938 50.7839 98.4343 49.5515 98.1669 48.3563C98.9233 49.0777 99.6252 49.8542 100.267 50.6793C101.273 49.8083 101.367 47.5873 101.305 46.3913C101.232 44.9773 100.578 43.6433 100.578 42.2993C105.664 45.0993 112.871 44.1533 117.611 40.9093C117.989 40.6469 118.331 40.3366 118.629 39.9863Z" fill="#1C0B0B"/>
<path d="M103.419 58.847C104.41 60.447 104.334 62.296 103.249 62.968C102.164 63.64 100.477 62.886 99.4863 61.281C98.4953 59.676 98.5713 57.832 99.6563 57.16C100.741 56.488 102.427 57.243 103.419 58.847Z" fill="#E27B6D"/>
<path d="M99.7232 59.7042L99.6732 59.6452C99.6582 59.6242 99.6382 59.6012 99.6172 59.5722C99.5962 59.5432 99.5702 59.5072 99.5472 59.4662C99.4871 59.3666 99.4416 59.2588 99.4122 59.1462C99.3697 58.9885 99.3608 58.8236 99.3862 58.6622C99.4038 58.5611 99.4344 58.4626 99.4772 58.3692C99.5296 58.2604 99.5969 58.1594 99.6772 58.0692C99.8612 57.8709 100.1 57.7317 100.363 57.6692C100.494 57.6362 100.628 57.6204 100.763 57.6222C100.891 57.6222 101.019 57.6359 101.144 57.6632C101.266 57.6889 101.384 57.7253 101.499 57.7722H101.511L101.529 57.7812H101.535L101.553 57.7902L101.591 57.8082L101.664 57.8432C101.69 57.8552 101.716 57.8689 101.74 57.8842L101.819 57.9342C101.92 57.9989 102.014 58.0726 102.101 58.1542C102.145 58.1922 102.18 58.2332 102.221 58.2742C102.261 58.3131 102.298 58.3542 102.332 58.3972L102.432 58.5262C102.465 58.5683 102.496 58.6124 102.523 58.6582C102.585 58.7462 102.637 58.8372 102.687 58.9252C102.737 59.0128 102.782 59.1029 102.822 59.1952C102.863 59.2862 102.898 59.3742 102.933 59.4622C102.968 59.5502 102.995 59.6382 103.021 59.7202C103.047 59.8022 103.068 59.8872 103.086 59.9662C103.104 60.0452 103.121 60.1212 103.136 60.1982C103.151 60.2752 103.157 60.3452 103.165 60.4092C103.179 60.5251 103.187 60.6416 103.188 60.7582C103.191 60.8347 103.188 60.9112 103.179 60.9872C103.173 61.0402 103.173 61.0692 103.173 61.0692C103.173 61.0692 103.167 61.0432 103.152 60.9932C103.137 60.9432 103.123 60.8732 103.093 60.7852C103.063 60.6972 103.028 60.5912 102.987 60.4682L102.911 60.2802C102.885 60.2152 102.852 60.1452 102.823 60.0752C102.794 60.0052 102.756 59.9312 102.717 59.8552C102.678 59.7792 102.638 59.7052 102.597 59.6262C102.556 59.5472 102.509 59.4712 102.462 59.3912C102.415 59.3112 102.362 59.2302 102.309 59.1532C102.201 58.9911 102.081 58.8371 101.951 58.6922C101.919 58.6542 101.883 58.6222 101.851 58.5862C101.819 58.5502 101.783 58.5162 101.745 58.4862L101.631 58.3922C101.595 58.363 101.557 58.3366 101.517 58.3132L101.461 58.2752C101.439 58.2603 101.416 58.2475 101.391 58.2372L101.318 58.1992L101.28 58.1812L101.262 58.1722H101.256C101.244 58.1662 101.268 58.1782 101.265 58.1782H101.256C101.163 58.1392 101.068 58.1058 100.971 58.0782C100.784 58.0264 100.588 58.0165 100.396 58.0492C100.218 58.0786 100.053 58.158 99.9182 58.2782C99.7956 58.3896 99.7028 58.5298 99.6482 58.6862C99.6056 58.821 99.5856 58.9619 99.5892 59.1032C99.592 59.2134 99.6077 59.3228 99.6362 59.4292C99.6532 59.4989 99.6749 59.5674 99.7012 59.6342L99.7232 59.7042Z" fill="#BA554A"/>
<path d="M110.814 76.3143C110.564 76.3192 110.315 76.3456 110.069 76.3934C107.849 76.8214 105.44 78.8513 103.61 80.1803C103.466 80.2863 102.877 80.7344 102.739 80.8284C102.446 79.0974 98.9169 72.8674 97.5439 71.6154L102.592 68.7354C104.062 68.9644 108.461 74.1263 110.456 75.7513C110.617 75.8833 110.685 76.2383 110.814 76.3143Z" fill="#B54839"/>
<path d="M110.758 75.8042C110.508 75.809 110.259 75.8354 110.013 75.8831C108.944 76.1422 107.929 76.5866 107.013 77.1962C105.937 77.8372 104.641 78.8782 103.55 79.6702C103.406 79.7762 103.263 79.8751 103.125 79.9701C102.832 78.2391 98.8544 72.3581 97.4824 71.1031L102.53 68.2231C104 68.4521 108.32 73.8612 110.315 75.4832C110.456 75.6001 110.604 75.7073 110.758 75.8042Z" fill="#D85745"/>
<path d="M116.8 80.4423C116.598 80.1608 116.363 79.9046 116.1 79.6793C114.306 78.3399 112.407 77.147 110.421 76.1123V75.6193C110.606 75.3903 110.887 75.0063 111.081 74.7483C111.11 74.7103 111.137 74.6783 111.16 74.6483C111.341 74.4002 111.506 74.1407 111.653 73.8713C112.366 72.7854 113.225 71.8026 114.205 70.9503C114.262 70.9152 114.326 70.8924 114.393 70.8833L117.332 72.4143L117.373 72.4353C117.236 72.6024 117.142 72.801 117.1 73.0133C117.083 73.0807 117.07 73.1492 117.062 73.2183C116.845 74.7283 117.66 77.5183 116.8 80.4423Z" fill="#B54839"/>
<path d="M117.461 72.2372C117.415 72.2909 117.373 72.3488 117.338 72.4101C117.226 72.5953 117.148 72.7983 117.106 73.0101C117.089 73.0776 117.076 73.1461 117.068 73.2151C116.851 74.5821 117.273 76.7822 116.468 79.5302C116.266 79.2486 116.031 78.9924 115.768 78.7672C114.128 77.5657 112.332 76.5927 110.43 75.8752L110.26 75.8072C110.321 75.749 110.378 75.6861 110.43 75.6191C110.615 75.3901 110.896 75.0061 111.09 74.7481C111.119 74.7101 111.146 74.6781 111.169 74.6481C111.35 74.4001 111.514 74.1405 111.662 73.8712C112.457 72.4372 113.105 70.4831 113.874 70.0401C113.931 70.0046 113.995 69.9818 114.062 69.9731L117.461 72.2372Z" fill="#D85745"/>
<path d="M111.021 81.054C111.021 81.1887 110.981 81.3204 110.906 81.4324C110.832 81.5444 110.725 81.6317 110.601 81.6832C110.476 81.7347 110.339 81.7482 110.207 81.722C110.075 81.6957 109.954 81.6308 109.859 81.5356C109.763 81.4403 109.699 81.319 109.672 81.1869C109.646 81.0548 109.659 80.9179 109.711 80.7934C109.763 80.669 109.85 80.5627 109.962 80.4878C110.074 80.413 110.205 80.373 110.34 80.373C110.521 80.373 110.694 80.4448 110.822 80.5725C110.949 80.7002 111.021 80.8734 111.021 81.054Z" fill="#6B1F3A"/>
<path d="M111.872 96.8851C111.872 97.0198 111.832 97.1516 111.757 97.2637C111.683 97.3758 111.576 97.4633 111.452 97.515C111.328 97.5667 111.191 97.5803 111.059 97.5541C110.926 97.5279 110.805 97.4632 110.71 97.368C110.614 97.2728 110.549 97.1514 110.523 97.0193C110.497 96.8872 110.51 96.7502 110.562 96.6257C110.613 96.5012 110.7 96.3948 110.812 96.3199C110.924 96.245 111.056 96.2051 111.191 96.2051C111.371 96.2051 111.544 96.2767 111.672 96.4042C111.8 96.5317 111.872 96.7046 111.872 96.8851Z" fill="#6B1F3A"/>
<path d="M117.116 213.713C116.816 215.385 116.42 217.038 115.931 218.664C115.679 219.714 115.62 223.439 114.937 224.102C112.409 226.548 112.537 216.002 112.599 214.859L117.116 213.713Z" fill="#E27B6D"/>
<path d="M112.596 221.95L114.834 221.73C115.916 220.404 116.374 221.981 116.814 222.644C117.456 223.412 118.248 224.039 119.143 224.487C120.501 225.305 123.883 225.971 123.384 228.218C119.624 228.458 115.851 228.37 112.106 227.954C110.886 227.766 111.871 226.763 112.188 224.977C112.408 223.748 112.326 223.144 112.596 221.95Z" fill="#080F11"/>
<path d="M95.0329 213.394C94.8214 215.081 94.5139 216.754 94.1119 218.407C93.9119 219.472 94.0529 223.194 93.4049 223.895C91.0049 226.485 90.5859 215.952 90.5859 214.805L95.0329 213.394Z" fill="#E27B6D"/>
<path d="M91.9667 221.031C93.5447 220.864 93.8377 222.251 94.1167 222.911C94.4477 223.694 94.9877 223.935 95.5037 224.395C96.4127 225.21 98.7277 225.865 98.3037 228.111C95.4346 228.43 92.5386 228.42 89.6717 228.082C88.8357 227.897 89.3717 227.299 90.1177 225.339C90.5497 224.184 90.4827 221.186 91.9667 221.031Z" fill="#080F11"/>
<path d="M111.116 130.805C110.573 130.846 110.025 130.881 109.473 130.911C109.388 133.636 109.297 136.575 109.203 139.655C108.745 154.591 108.223 172.683 108.094 184.313C107.962 196.266 110.388 210.122 112.186 218.027H117.366C117.536 214.278 117.879 208.858 118.334 202.419C119.666 183.635 121.461 149.919 123.065 128.877C119.144 129.858 115.146 130.503 111.116 130.805Z" fill="#102328"/>
<path d="M117.366 218.028C117.536 214.279 117.879 208.859 118.334 202.42C117.252 201.637 116.199 200.792 115.154 199.941C113.635 198.703 111.807 197.891 111.223 195.776C110.798 194.236 111.123 192.192 111.047 190.558C110.897 187.196 110.669 183.683 110.677 180.339C110.695 172.686 110.862 164.981 110.862 157.278C110.862 153.242 111.062 149.278 111.232 145.36C111.332 143.005 111.405 142.685 113.071 141.198C114.482 139.94 115.781 138.617 117.081 137.226C114.535 137.848 112.599 139.866 109.947 139.726C109.698 139.714 109.447 139.688 109.199 139.656C108.741 154.592 108.219 172.684 108.09 184.314C107.958 196.267 110.384 210.123 112.182 218.028H117.365H117.366Z" fill="#080F11"/>
<path d="M111.115 130.806C105.794 131.217 100.095 131.055 94.932 129.392C94.694 132.601 94.366 136.306 93.955 140.309C93.882 141.025 93.808 141.752 93.729 142.485C92.544 153.649 90.813 166.763 88.875 177.854C86.701 190.27 88.275 208.547 89.475 218.027H94.746C97.433 202.111 106.177 156.447 111.565 130.767C111.417 130.779 111.267 130.794 111.115 130.806Z" fill="#102328"/>
<path d="M169.969 110.059C168.479 112.335 165.308 114.148 162.915 115.04C159.838 116.184 147.334 118.551 143.183 119.056L141.631 115.978C142.564 115.559 143.623 114.995 144.714 114.371C145.014 114.198 145.321 114.022 145.626 113.843C148.049 112.42 150.495 110.831 151.926 110.012C154.187 108.718 158.743 105.512 161.201 104.659C161.535 104.545 161.917 104.43 162.33 104.328C164.043 103.894 165.805 103.689 167.572 103.718C168.179 103.729 168.783 103.81 169.372 103.961C171.6 104.589 171.145 108.261 169.969 110.059Z" fill="#D1604A"/>
<path d="M168.508 110.963C167.727 111.942 166.838 112.831 165.859 113.612C163.096 115.747 158.975 116.261 155.88 116.58C152.82 117.042 149.796 117.72 146.831 118.61C147.131 118.437 147.438 118.261 147.743 118.082C150.166 116.659 152.612 116.131 154.043 115.31C156.305 114.016 160.86 113.99 163.318 113.134C163.652 113.02 164.034 112.905 164.447 112.803C166.002 112.409 166.831 110.901 168.508 110.963Z" fill="#BA3927"/>
<path d="M181.241 94.7362C180.596 97.6902 178.208 100.984 176.733 103.788C175.19 106.721 173.583 109.737 170.673 111.799C170.453 111.954 170.242 112.099 170.039 112.221C167.252 113.952 166.111 112.802 163.961 110.405C162.024 108.308 160.447 105.904 159.294 103.292C160.758 102.773 162.153 102.077 163.447 101.218C164.612 100.307 165.488 99.0771 165.97 97.6782C167.152 94.6712 167.586 91.6622 168.601 88.6142C169.481 85.9832 171.065 79.1342 172.226 76.5142C172.661 75.5196 173.35 74.6569 174.224 74.0129C175.097 73.3689 176.125 72.9662 177.204 72.8452L181.241 94.7362Z" fill="white"/>
<path d="M170.036 112.22C167.249 113.951 166.108 112.801 163.958 110.404C162.021 108.307 160.444 105.903 159.291 103.291C160.755 102.772 162.15 102.076 163.444 101.217C163.976 103.126 164.78 104.948 165.829 106.629C166.782 108.17 168.268 110.854 170.036 112.22Z" fill="#EAEAEA"/>
<path d="M183.812 214.309C184.116 215.915 184.517 217.502 185.013 219.061C185.268 220.07 185.326 223.643 186.018 224.276C188.582 226.623 188.45 216.509 188.388 215.409L183.812 214.309Z" fill="#D1604A"/>
<path d="M188.069 222.206L185.799 221.995C184.699 220.722 184.236 222.238 183.79 222.872C183.13 223.615 182.327 224.217 181.429 224.641C180.053 225.427 176.629 226.064 177.129 228.22C180.94 228.451 184.765 228.366 188.563 227.968C189.801 227.789 188.801 226.827 188.478 225.111C188.26 223.935 188.342 223.354 188.069 222.206Z" fill="#171F26"/>
<path d="M206.205 214C206.42 215.621 206.732 217.227 207.141 218.81C207.341 219.831 207.2 223.404 207.857 224.076C210.286 226.56 210.717 216.454 210.717 215.354L206.205 214Z" fill="#D1604A"/>
<path d="M208.986 221.328C207.386 221.167 207.091 222.498 206.807 223.128C206.47 223.879 205.921 224.111 205.399 224.554C204.478 225.334 202.131 225.965 202.566 228.118C205.475 228.424 208.409 228.414 211.316 228.089C212.164 227.913 211.616 227.338 210.864 225.458C210.42 224.352 210.488 221.477 208.986 221.328Z" fill="#171F26"/>
<path d="M191.532 134.096C191.626 136.924 191.726 140.009 191.832 143.254C192.295 157.586 192.826 174.942 192.955 186.1C193.087 197.569 190.629 210.862 188.804 218.448H183.553C183.383 214.848 183.034 209.648 182.57 203.474C181.07 183.437 178.989 145.681 177.237 126.629L191.532 134.096Z" fill="#302524"/>
<path d="M183.561 218.446C183.391 214.846 183.042 209.646 182.578 203.472C183.678 202.721 184.746 201.912 185.802 201.096C187.342 199.908 189.196 199.131 189.785 197.096C190.216 195.618 189.885 193.658 189.961 192.089C190.114 188.862 190.345 185.489 190.336 182.283C190.315 174.941 190.148 167.547 190.148 160.161C190.148 156.289 189.943 152.488 189.775 148.727C189.669 146.468 189.599 146.16 187.909 144.735C186.478 143.527 185.161 142.259 183.844 140.925C186.425 141.525 188.388 143.456 191.077 143.318C191.329 143.306 191.577 143.283 191.837 143.251C192.3 157.583 192.831 174.939 192.96 186.097C193.092 197.566 190.634 210.859 188.809 218.444H183.559L183.561 218.446Z" fill="#1C1615"/>
<path d="M211.834 218.446H206.49C203.627 202.392 193.974 154.792 188.624 131.089L205.924 127.089C206.065 131.046 206.555 137.006 207.297 143.882C207.37 144.568 207.447 145.266 207.526 145.97C208.726 156.682 210.48 169.263 212.448 179.904C214.647 191.818 213.045 209.35 211.834 218.446Z" fill="#302524"/>
<path d="M171.845 88.5053C172.323 94.5153 174.153 100.176 175.333 106.087C175.345 106.152 175.359 106.219 175.371 106.287C175.571 107.299 175.748 108.319 175.902 109.346C176.761 115.256 177.175 128.94 178.134 134.862C178.307 135.941 205.428 135.155 205.853 132.999C206.22 131.148 205.979 131.18 206.114 128.605C206.328 124.613 206.322 119.949 206.29 115.205C206.243 108.494 206.134 101.639 206.49 96.3413C206.58 94.7837 206.753 93.2319 207.006 91.6924C207.672 87.8924 207.906 82.5463 210.054 78.8333C210.124 78.7163 210.195 78.5953 210.268 78.4783C210.447 78.1903 210.642 77.9123 210.852 77.6453C211.153 77.26 211.488 76.9017 211.852 76.5743C211.914 76.5213 211.975 76.4653 212.04 76.4133C211.84 76.1535 211.623 75.9066 211.392 75.6743C210.929 75.2124 210.433 74.7849 209.908 74.3953L209.676 74.2253L209.644 74.2023C209.582 74.1553 209.521 74.1113 209.459 74.0673C209.418 74.0383 209.38 74.0083 209.339 73.9823C209.186 73.8763 209.034 73.7713 208.878 73.6683C207.239 72.5818 205.497 71.6584 203.678 70.9113C202.716 70.5303 201.733 70.1753 200.759 69.7963C200.659 69.7583 200.559 69.7203 200.459 69.6793C199.849 69.4383 199.248 69.1793 198.659 68.9053C197.834 68.5419 197.032 68.1275 196.259 67.6643C195.859 67.3973 195.634 67.1643 195.819 67.0273L183.933 69.7683L182.625 70.0683L182.194 70.1683C181.587 70.3683 180.9 70.5823 180.185 70.8103C177.621 71.6343 174.641 72.7373 173.254 74.9103C173.075 75.1924 172.923 75.4911 172.802 75.8023C171.514 79.1573 171.379 82.6833 171.845 88.5053Z" fill="#185F87"/>
<path d="M181.93 75.6872C181.901 84.6802 183.907 100.619 184.118 99.8682C187.512 87.9862 190.9 81.2192 193.765 77.0562C196.798 72.6562 199.244 71.1722 200.497 69.6352L197.819 68.3532C196.144 66.9162 195.534 66.3732 195.126 65.1002C193.554 60.2102 196.692 54.3172 195.126 50.9502C193.326 51.5252 190.069 54.8392 188.126 55.2062C187.055 55.4062 185.988 55.5672 184.949 55.6582C185.005 56.9081 184.965 58.1605 184.829 59.4042C184.591 61.5752 184.239 63.6312 183.841 65.5582C183.659 66.4472 182.797 69.8642 182.794 69.8672C182.18 70.4282 181.941 72.6662 181.93 75.6872Z" fill="#D1604A"/>
<path d="M177.75 53.0314C177.718 51.4154 179.129 49.8434 179.184 48.5434C179.653 37.1244 184.534 38.5034 184.534 38.5034C186.796 38.2544 189.479 38.5474 191.184 40.2284C192.384 41.4164 193.064 43.7514 193.584 45.3824C194.974 49.7674 196.447 53.6604 194.097 57.7434C192.572 60.3924 191.369 63.3434 188.492 64.4514C186.172 65.3434 182.168 66.6044 180.637 64.4074C179.029 62.1014 177.805 55.7444 177.75 53.0314Z" fill="#D1604A"/>
<path d="M179.632 40.0402C179.771 40.3371 180.017 40.5699 180.321 40.6912C182.621 41.4042 192.805 41.6472 192.47 43.2282C191.458 48.0062 194.11 47.1642 193.599 48.9362C192.804 51.7022 192.071 54.9142 192.839 56.6362C193.499 58.1112 194.414 54.1632 194.86 55.7092L197.239 53.9262C198.245 51.3862 199.858 47.9832 200.38 45.0262C200.621 45.2144 200.838 45.4321 201.025 45.6742C201.214 44.946 201.254 44.1868 201.14 43.4429C201.027 42.699 200.763 41.986 200.365 41.3472C201.096 41.515 201.806 41.7649 202.48 42.0922L202.542 42.1152C202.142 41.4947 201.696 40.9054 201.207 40.3522C200.63 39.8994 200.029 39.4775 199.407 39.0882C199.799 38.6673 200.299 38.3628 200.853 38.2082C199.893 38.2457 198.937 38.3614 197.996 38.5542C196.481 37.6048 194.841 36.8695 193.124 36.3692C188.505 34.8239 183.669 34.0209 178.798 33.9902C178.691 35.0272 178.778 38.5402 179.632 40.0402Z" fill="#382F2E"/>
<path d="M186.655 51.731C186.74 51.772 186.834 51.81 186.931 51.845C187.806 52.1482 188.705 52.3777 189.618 52.531C190.087 52.636 190.516 52.8722 190.856 53.212C190.946 52.7148 190.911 52.2029 190.754 51.7226C190.597 51.2423 190.323 50.8087 189.956 50.461C189.114 49.893 188.106 49.6218 187.093 49.69C187.014 49.696 186.693 49.79 186.624 49.799C186.558 50.437 186.86 51.16 186.655 51.731Z" fill="#BA3927"/>
<path d="M186.561 52.7359C186.646 52.7769 186.74 52.8119 186.837 52.8499C187.712 53.1531 188.61 53.3826 189.524 53.5359C190.243 53.6679 190.782 53.7439 190.782 53.7439C190.869 53.3159 190.829 52.8714 190.666 52.4661C190.503 52.0607 190.224 51.7125 189.864 51.4649C189.021 50.8969 188.014 50.6257 187.001 50.6939C186.922 50.6999 186.845 50.7059 186.769 50.7149C186.771 51.3941 186.702 52.0716 186.561 52.7359Z" fill="white"/>
<path d="M186.8 51.8289C186.778 52.1705 186.789 52.5136 186.835 52.8529C187.71 53.1561 188.609 53.3855 189.522 53.5389C189.716 53.0558 189.828 52.5444 189.856 52.0249C189.868 51.8394 189.87 51.6535 189.862 51.4679C189.02 50.8999 188.013 50.6286 186.999 50.6969C186.891 51.0656 186.824 51.4453 186.8 51.8289Z" fill="#382F2E"/>
<path d="M188.741 52.1802C188.726 52.4262 188.806 52.6352 188.923 52.6412C189.04 52.6472 189.146 52.4532 189.164 52.2072C189.182 51.9612 189.099 51.7522 188.982 51.7462C188.865 51.7402 188.751 51.9332 188.741 52.1802Z" fill="white"/>
<path d="M178.727 50.0215C178.789 50.0595 178.85 50.0945 178.921 50.1325C179.525 50.415 180.16 50.6287 180.813 50.7695C181.165 50.8887 181.468 51.1194 181.678 51.4265C181.842 50.4745 181.632 49.4957 181.091 48.6955C180.829 48.4329 180.512 48.2321 180.163 48.1077C179.814 47.9833 179.441 47.9385 179.073 47.9765C179.017 47.9825 178.791 48.0825 178.739 48.0935C178.783 48.7356 178.779 49.3801 178.727 50.0215Z" fill="#BA3927"/>
<path d="M178.642 51.0303C178.704 51.0683 178.765 51.1033 178.836 51.1413C179.44 51.4238 180.075 51.6374 180.728 51.7783C181.235 51.8983 181.62 51.9633 181.62 51.9633C181.702 51.5653 181.69 51.1535 181.584 50.761C181.478 50.3686 181.281 50.0066 181.01 49.7043C180.748 49.4417 180.431 49.2409 180.082 49.1165C179.733 48.9921 179.36 48.9473 178.992 48.9853C178.937 48.9909 178.882 48.9996 178.828 49.0113C178.815 49.6879 178.753 50.3627 178.642 51.0303Z" fill="white"/>
<path d="M178.829 50.1183C178.806 50.4583 178.808 50.7996 178.835 51.1393C179.44 51.4218 180.075 51.6354 180.727 51.7763C180.874 51.2828 180.964 50.7742 180.994 50.2603C181.006 50.0693 181.012 49.8853 181.009 49.7033C180.748 49.4407 180.431 49.2399 180.082 49.1155C179.733 48.9911 179.36 48.9463 178.991 48.9843C178.907 49.3575 178.853 49.7366 178.829 50.1183Z" fill="#382F2E"/>
<path d="M180.194 50.4322C180.179 50.6782 180.232 50.8843 180.314 50.8903C180.396 50.8963 180.475 50.6992 180.49 50.4532C180.505 50.2072 180.452 50.0013 180.37 49.9953C180.288 49.9893 180.212 50.1852 180.194 50.4322Z" fill="white"/>
<path d="M186.144 48.5202C186.428 48.2122 191.034 48.4262 191.944 48.9042L192.17 50.4822C191.545 50.5292 189.181 50.2442 189.181 50.2442C189.181 50.2442 188.806 50.3382 188.354 49.3522C188.275 49.6522 188.554 50.0682 188.53 50.4342C187.861 50.5872 186.905 50.4722 186.245 50.6042C186.147 50.2682 185.916 48.7662 186.144 48.5202Z" fill="#211B1B"/>
<path d="M178.101 46.158C178.391 45.944 181.556 47.434 182.055 48.144L181.755 49.707C181.058 49.3966 180.381 49.0419 179.728 48.645C179.728 48.645 179.438 48.63 179.408 47.566C179.264 47.83 179.34 48.302 179.217 48.645C178.704 48.604 178.067 48.226 177.566 48.167C177.627 47.4714 177.808 46.7916 178.101 46.158Z" fill="#211B1B"/>
<path d="M179.633 40.042C179.771 40.3388 180.018 40.5716 180.322 40.693C182.622 41.406 192.806 41.649 192.471 43.23C191.459 48.008 194.111 47.166 193.6 48.938C192.805 51.704 192.072 54.916 192.84 56.638C193.5 58.113 194.415 54.165 194.861 55.711L197.24 53.928C198.246 51.388 199.859 47.985 200.381 45.028C200.622 45.2161 200.839 45.4338 201.026 45.676C201.215 44.9479 201.254 44.1888 201.141 43.4451C201.027 42.7014 200.764 41.9886 200.366 41.35C201.097 41.5177 201.806 41.7676 202.481 42.095C201.983 41.6669 201.432 41.3052 200.841 41.019C200.057 40.6485 199.212 40.4238 198.348 40.356C199.178 41.262 199.489 43.902 198.48 44.809C197.872 43.7289 197.052 42.7829 196.069 42.028C196.26 42.791 195.691 45.252 194.632 45.205C194.505 43.9982 194.077 42.8429 193.385 41.846C193.075 41.4982 192.691 41.2244 192.261 41.0448C191.831 40.8651 191.366 40.7842 190.901 40.808C188.328 40.65 185.827 40.767 183.278 40.608C182.047 40.5372 180.827 40.3476 179.633 40.042Z" fill="#211B1B"/>
<path d="M178.324 57.5804C179.49 57.227 180.721 57.1429 181.924 57.3344C184.036 57.8344 185.705 59.9244 187.676 60.7754C189.104 61.3944 189.943 60.4464 190.782 59.3034C191.408 58.5707 191.961 57.779 192.433 56.9394C192.677 56.3235 192.878 55.6913 193.033 55.0474L194.286 57.9074C193.837 59.0364 191.86 63.3604 191.259 64.4014C190.681 65.4014 184.507 67.2464 183.97 67.3144C182.87 67.4554 181.638 66.7604 180.638 66.3054C180.137 66.1383 179.678 65.8655 179.292 65.5054C178.924 65.0544 178.333 58.6164 178.324 57.5804Z" fill="#211B1B"/>
<path d="M180.604 57.2835C180.595 57.1635 180.595 57.0485 180.595 56.9345C180.595 56.8205 180.595 56.7055 180.601 56.5945C180.607 56.4835 180.61 56.3685 180.619 56.2575C180.628 56.1465 180.634 56.0315 180.645 55.9205C180.666 55.6975 180.695 55.4715 180.727 55.2485C180.742 55.1375 180.762 55.0255 180.783 54.9145C180.804 54.8035 180.824 54.6915 180.848 54.5835C180.872 54.4755 180.895 54.3635 180.924 54.2525C180.953 54.1415 180.98 54.0325 181.012 53.9235C181.044 53.8145 181.077 53.7035 181.112 53.5975C181.147 53.4915 181.188 53.3805 181.229 53.2745C181.313 53.0568 181.416 52.8467 181.537 52.6465C181.599 52.5439 181.671 52.4484 181.754 52.3615C181.795 52.3163 181.843 52.2769 181.895 52.2445C181.945 52.2095 182.004 52.19 182.065 52.1885C181.979 52.2521 181.916 52.343 181.889 52.4465C181.855 52.5484 181.828 52.6523 181.807 52.7575C181.763 52.9685 181.737 53.1825 181.707 53.3995L181.666 53.7255L181.628 54.0515L181.555 54.7025L181.479 55.3535L181.397 56.0045C181.385 56.1135 181.368 56.2215 181.353 56.3305L181.309 56.6565C181.309 56.6565 181.215 57.0565 181.327 57.0995L181.664 57.2055C181.89 57.2785 182.119 57.3525 182.344 57.4285C182.458 57.4665 182.57 57.5075 182.684 57.5485C182.798 57.5895 182.91 57.6335 183.021 57.6775L183.355 57.8185C183.411 57.8445 183.464 57.8715 183.519 57.9005C183.573 57.9273 183.626 57.9577 183.677 57.9915C183.56 57.9685 183.439 57.9505 183.322 57.9385C183.205 57.9265 183.084 57.9095 182.967 57.8975C182.729 57.8715 182.495 57.8445 182.257 57.8155C182.019 57.7865 181.785 57.7535 181.547 57.7155L181.192 57.6595C181.075 57.6385 180.954 57.6155 180.828 57.5895L180.62 57.5455L180.604 57.2835Z" fill="#BA3927"/>
<path d="M193.711 54.7582C192.79 56.3802 192.937 58.1991 194.034 58.8211C195.131 59.4431 196.768 58.6362 197.686 57.0142C198.604 55.3922 198.46 53.5762 197.363 52.9522C196.266 52.3282 194.63 53.1392 193.711 54.7582Z" fill="#D1604A"/>
<path d="M197.39 55.468C197.39 55.468 197.408 55.447 197.437 55.409C197.452 55.388 197.472 55.365 197.49 55.336C197.515 55.3017 197.536 55.2652 197.555 55.227C197.612 55.1263 197.654 55.0173 197.678 54.904C197.715 54.7471 197.717 54.5837 197.684 54.426C197.661 54.327 197.627 54.2307 197.584 54.139C197.529 54.0351 197.46 53.9392 197.379 53.854C197.19 53.6645 196.949 53.5347 196.687 53.481C196.555 53.4525 196.421 53.4417 196.287 53.449C196.16 53.4526 196.034 53.4714 195.912 53.505C195.793 53.5357 195.678 53.5758 195.566 53.625H195.554L195.536 53.634H195.53L195.512 53.643L195.477 53.664L195.407 53.702C195.384 53.717 195.36 53.725 195.334 53.743L195.258 53.796C195.162 53.8637 195.071 53.9393 194.988 54.022C194.947 54.06 194.912 54.104 194.874 54.145C194.836 54.186 194.801 54.227 194.768 54.271C194.735 54.315 194.703 54.359 194.668 54.4C194.633 54.441 194.612 54.491 194.583 54.535C194.527 54.622 194.476 54.7122 194.43 54.805C194.383 54.893 194.345 54.987 194.307 55.075C194.269 55.163 194.239 55.254 194.207 55.342C194.175 55.43 194.154 55.518 194.131 55.6C194.108 55.682 194.093 55.767 194.075 55.846C194.057 55.925 194.046 56.001 194.034 56.075C194.022 56.149 194.019 56.219 194.011 56.286C194.001 56.401 193.998 56.5165 194.002 56.632C194.002 56.732 194.014 56.805 194.017 56.858L194.026 56.937L194.044 56.861C194.053 56.811 194.07 56.741 194.094 56.653C194.118 56.565 194.153 56.459 194.188 56.336C194.209 56.277 194.232 56.213 194.255 56.145C194.278 56.077 194.308 56.01 194.334 55.937C194.36 55.864 194.396 55.793 194.428 55.717C194.46 55.641 194.498 55.564 194.537 55.485C194.576 55.406 194.616 55.327 194.663 55.247C194.71 55.167 194.751 55.086 194.804 55.006C194.904 54.8426 195.017 54.6868 195.141 54.54C195.17 54.502 195.205 54.467 195.241 54.431C195.277 54.395 195.305 54.358 195.341 54.325L195.45 54.225C195.485 54.1957 195.521 54.1684 195.559 54.143L195.612 54.102C195.633 54.0863 195.656 54.0726 195.68 54.061L195.75 54.02L195.785 53.999L195.803 53.99H195.809C195.821 53.984 195.797 53.996 195.8 53.996H195.809C195.898 53.9538 195.99 53.9183 196.085 53.89C196.268 53.8334 196.46 53.8153 196.651 53.837C196.827 53.8595 196.994 53.9316 197.132 54.045C197.258 54.1497 197.355 54.285 197.414 54.438C197.462 54.5696 197.487 54.7087 197.487 54.849C197.488 54.9585 197.477 55.0678 197.455 55.175C197.44 55.2443 197.421 55.3128 197.399 55.38C197.399 55.4095 197.396 55.439 197.39 55.468Z" fill="#BA3927"/>
<path d="M179.756 59.1113C179.85 59.3873 179.926 59.6863 180.02 59.9853C180.264 60.7653 180.601 61.5253 181.54 61.7133C182.156 61.7776 182.779 61.7198 183.373 61.543C183.967 61.3663 184.52 61.0741 185.001 60.6833L184.517 60.5483C183.49 60.2613 181.076 59.5723 179.756 59.1113Z" fill="#BA3927"/>
<path d="M179.756 59.1113C179.85 59.3873 179.926 59.6863 180.02 59.9853C181.088 60.4271 182.206 60.7364 183.349 60.9063C183.753 60.8449 184.147 60.7242 184.516 60.5483C183.49 60.2613 181.076 59.5723 179.756 59.1113Z" fill="white"/>
<path d="M181.93 75.687C181.901 84.68 183.907 100.619 184.118 99.868C187.512 87.986 190.9 81.219 193.765 77.056C193.24 76.513 192.756 76.012 192.395 75.686C190.606 74.064 190.154 74.193 187.931 74.307C184.834 74.467 183.294 74.224 181.93 75.687Z" fill="#EAEAEA"/>
<path d="M197.048 67.374L201.067 69.993C199.621 71.157 194.379 77.479 193.977 79.186C192.006 77.626 189.208 74.751 186.629 74.546C188.395 73.634 195.443 67.521 197.048 67.374Z" fill="white"/>
<path d="M182.793 68.7061L179.88 70.1061C180.766 71.2701 179.88 74.2981 180.695 77.9061C181.903 76.3461 185.857 74.8671 187.436 74.6621C186.354 73.7481 183.78 68.8531 182.793 68.7061Z" fill="white"/>
<path d="M175.336 106.087C175.348 106.152 175.362 106.219 175.374 106.287C175.574 107.299 175.751 108.319 175.905 109.346C176.764 115.256 177.178 128.94 178.137 134.862C178.31 135.941 206.19 135.262 206.616 133.108C206.983 131.257 206.328 119.95 206.296 115.208C206.249 108.497 206.141 101.642 206.496 96.3444C206.586 94.7868 206.759 93.235 207.012 91.6954C207.678 87.8954 207.912 82.5494 210.06 78.8364C210.13 78.7194 210.201 78.5984 210.274 78.4814C210.453 78.1934 210.648 77.9153 210.858 77.6484C211.16 77.263 211.494 76.9047 211.858 76.5774L211.397 75.6774L211.309 75.5044C210.805 75.0283 210.26 74.5992 209.678 74.2224L209.625 73.8384C209.576 73.9195 209.521 73.9971 209.461 74.0704C209.42 74.0414 209.382 74.0114 209.341 73.9854C209.188 73.8794 209.036 73.7744 208.88 73.6714C200.726 78.7894 201.641 92.1214 198.25 99.5514C194.111 108.612 183.83 109.075 175.459 106.13C175.418 106.116 175.377 106.105 175.336 106.087Z" fill="#144E6E"/>
<path d="M206.791 97.4133C206.875 95.4394 207.106 93.4746 207.483 91.5353C208.146 87.7353 207.941 82.5424 210.056 78.8354C210.126 78.7184 210.197 78.5973 210.27 78.4803L209.677 74.2243L209.624 73.8403C209.575 73.9215 209.521 73.9991 209.46 74.0724L209.451 74.0844C208.817 74.8734 207.682 75.3894 206.961 76.2404C206.932 76.2754 206.902 76.3103 206.876 76.3463C206.596 76.6999 206.35 77.0789 206.14 77.4783C206.135 77.4846 206.131 77.4917 206.128 77.4994C205.744 78.2517 205.407 79.0276 205.119 79.8224C204.791 80.6874 204.453 81.5674 204.136 82.4594C203.319 84.5899 202.711 86.7954 202.323 89.0443C200.37 102.347 206.293 115.209 206.791 97.4133Z" fill="#EAEAEA"/>
<path d="M210.435 134.215L210.476 134.241C210.47 134.074 210.456 134.089 210.435 134.215Z" fill="#D1604A"/>
<path d="M207.252 132.915C205.612 133.912 204.185 135.223 203.052 136.772C203.052 136.772 205.762 144.36 207.478 144.261C208.261 142.505 208.916 140.694 209.437 138.843C209.622 137.925 209.792 137.033 209.9 136.077C209.947 135.652 210.044 134.132 210.1 133.751L207.252 132.915Z" fill="#D1604A"/>
<path d="M219.851 118.302C218.689 121.37 212.242 132.346 209.893 135.802L206.552 134.945C206.967 133.492 207.309 132.019 207.576 130.531C208.098 127.768 208.512 124.882 208.837 123.265C209.35 120.71 209.937 115.172 210.908 112.758C211.04 112.43 211.208 112.069 211.401 111.69C212.426 109.545 213.912 107.653 215.754 106.149C217.696 104.882 220.163 107.639 220.741 109.707C221.476 112.329 220.755 115.914 219.851 118.302Z" fill="#D1604A"/>
<path d="M207.29 143.884C205.99 143.67 204.844 141.341 204.41 140.396C204 139.555 203.649 138.687 203.36 137.796C203.202 137.271 203.14 135.951 202.914 135.296H201.567C201.602 139.432 203.556 144.304 207.522 145.973C207.442 145.266 207.363 144.571 207.29 143.884Z" fill="#1C1615"/>
<path d="M213.015 117.14C212.515 119.19 211.93 121.264 211.232 123.267C210.305 125.826 209.077 128.265 207.574 130.533C208.096 127.77 208.51 124.884 208.835 123.267C209.348 120.712 209.935 115.174 210.906 112.76C211.038 112.432 211.206 112.071 211.399 111.692H214.168C214.403 111.863 213.279 116.063 213.015 117.14Z" fill="#BA3927"/>
<path d="M221.473 112.848C218.986 113.757 216.301 113.984 213.697 113.505C212.72 113.344 210.456 112.98 209.784 112.25C209.142 111.55 209.384 110.006 209.432 108.938C209.432 108.838 209.438 108.738 209.438 108.651C209.287 103.876 208.396 99.1529 206.795 94.6514C206.695 94.3374 206.595 94.0234 206.495 93.7094C206.354 93.2664 206.208 92.8234 206.064 92.3774C204.756 88.3774 203.333 85.1174 204.14 81.4604C204.512 79.8867 205.189 78.4011 206.132 77.0874C206.135 77.0808 206.139 77.0747 206.144 77.0694C206.367 76.7434 206.613 76.4094 206.88 76.0694C207 75.9144 207.126 75.7584 207.255 75.6004C207.848 74.9192 208.598 74.3927 209.44 74.0664L209.455 74.0754C209.523 74.1104 209.587 74.1454 209.655 74.1834C209.666 74.1877 209.677 74.1938 209.687 74.2014C210.262 74.5287 210.807 74.9065 211.315 75.3304C215.993 79.2304 217.202 86.4534 218.628 91.5864C220.136 97.0074 220.602 102.234 221.212 107.739C221.25 108.091 221.291 108.446 221.332 108.801C221.501 110.143 221.549 111.498 221.473 112.848Z" fill="white"/>
<path d="M221.473 112.849C218.986 113.758 216.301 113.984 213.697 113.506C212.72 113.345 210.456 112.981 209.784 112.251C209.142 111.551 209.384 110.007 209.432 108.939C210.203 108.995 211.254 109.232 211.96 109.303C213.152 109.42 214.355 109.379 215.536 109.18C217.478 108.925 219.383 108.444 221.212 107.746C221.25 108.098 221.291 108.453 221.332 108.808C221.499 110.148 221.546 111.5 221.473 112.849Z" fill="#EAEAEA"/>
<path d="M140.027 116.496C138.944 117.244 138.066 118.252 137.472 119.426C136.495 121.051 135.14 124.11 137.654 124.949C138.407 125.185 139.207 125.234 139.983 125.092C140.76 124.951 141.491 124.622 142.112 124.134C144.594 122.263 144.896 118.983 147.75 117.385L140.027 116.496Z" fill="#D1604A"/>
<path d="M146.813 115.285C146.778 115.446 147.092 115.508 146.79 115.549C143.19 114.883 140.39 112.924 137.025 114.822C135.151 115.881 134.925 115.596 135.315 117.409C135.47 118.131 135.421 120.163 136.623 119.283C137.299 118.715 137.788 117.958 138.028 117.109C140.489 120.564 145.954 119.461 148.91 117.144L146.813 115.285Z" fill="#D1604A"/>
<path d="M145.16 119.45C143.97 118.755 142.692 118.224 141.36 117.872C140.026 117.305 138.62 116.924 137.183 116.74C136.192 116.711 132.383 118.268 132.067 117.793L129.811 122.029C131.222 123.249 133.58 124.2 135.493 125.141C136.403 125.61 137.37 125.96 138.371 126.182C139.078 126.305 140.979 126 139.571 125.061C140.271 125.137 142.155 125.598 142.598 124.8C143.041 124.002 141.774 123.3 141.39 123.169C142.343 123.275 143.79 124.034 144.561 123.069C145.253 122.201 144.599 121.435 143.761 121.16C145.077 121.419 146.779 120.653 145.16 119.45Z" fill="#E27B6D"/>
<path d="M135.173 116.276C135.018 116.976 135.114 117.79 135.006 118.511C134.9 119.203 134.748 119.911 135.666 119.755C137.036 119.526 137.452 117.435 137.584 116.493L135.173 116.276Z" fill="#D1604A"/>
<path d="M141.729 123.589C141.283 122.055 139.547 123.759 139.042 124.522C139.256 123.897 140.459 121.304 139.065 121.257C138.197 121.228 137.343 123.243 136.891 123.777C137.191 123.017 138.391 120.445 136.991 120.272C135.85 120.131 135.117 122.325 134.859 122.865C135.023 122.214 136.05 119.442 134.284 120.152C133.237 120.571 132.354 123.182 132.484 124.027C133.168 124.704 134.071 125.114 135.03 125.183C136.447 125.309 137.793 126.817 139.377 126.391C140.342 126.126 142.087 124.824 141.729 123.589Z" fill="#D1604A"/>
<path d="M130.544 122.598L133.187 117.785C131.858 117.198 113.13 107.636 110.387 106.703C110.015 106.577 109.587 106.454 109.126 106.342C106.706 105.742 104.726 107.665 102.714 108.242C100.233 108.958 102.4 112.416 103.702 114.419C105.805 117.653 125.923 122.061 130.544 122.598Z" fill="#FF725E"/>
<path d="M108.811 105.08C108.811 105.08 101.511 90.4801 99.9316 85.9941C100.032 91.1211 106.373 104.605 106.373 104.605C105.35 105.523 104.461 106.578 103.73 107.741C104.903 107.718 105.675 106.327 106.848 106.315C105.849 107.279 104.977 108.368 104.255 109.553C106.088 108.136 107.575 106.47 109.907 107.511C111.943 108.42 123.573 113.611 127.999 115.246C124.624 112.965 108.811 105.08 108.811 105.08Z" fill="#D85745"/>
</g>
<defs>
<clipPath id="clip0_1769_11151">
<rect width="293.228" height="197.139" fill="white" transform="translate(8 34)"/>
</clipPath>
</defs>
</svg>
