<svg width="420" height="260" viewBox="0 0 420 260" fill="none" xmlns="http://www.w3.org/2000/svg">
<path d="M66.234 257.735C59.2719 257.719 52.4587 255.719 46.5937 251.969C40.7288 248.219 36.0548 242.875 33.1208 236.563C26.6623 222.693 22.4708 207.877 20.7049 192.68C18.0813 169.928 22.5856 145.383 37.5218 128.821C40.5553 126.313 42.8868 123.063 44.2883 119.386C45.6898 115.709 46.1133 111.732 45.518 107.842C47.0304 64.9964 79.8159 27.0901 119.077 16.9189C158.338 6.74778 201.361 22.145 230.526 51.8179C248.296 46.2537 267.176 45.2171 285.45 48.8022C303.723 52.3872 320.81 60.4803 335.158 72.3459C340.389 76.5868 345.09 81.4432 349.158 86.8098C367.556 111.644 379.734 147.004 378.268 177.581C377.627 190.906 373.119 258.052 345.396 258.052L66.234 257.735Z" fill="#DFDFDF"/>
<path d="M67.6387 34.1992H51.0127V43.085H67.6387V34.1992Z" fill="white"/>
<path d="M87.1213 43.0904L78.9038 43.3223C77.5133 43.3605 76.1166 43.3905 74.7134 43.4124C73.3101 43.4342 71.9037 43.4533 70.495 43.4697H70.1184V43.0876C70.1184 41.6084 70.0831 40.1239 70.0831 38.6447L70.0691 34.2018V33.7734H70.4983C73.2666 33.7734 76.0429 33.7733 78.8111 33.8142L82.9689 33.8607L87.1266 33.9343H87.3999V34.2073C87.3699 35.7192 87.3285 37.2284 87.2739 38.7075L87.1213 43.0904ZM87.1213 43.0904L86.982 38.5901C86.9274 37.1109 86.884 35.6536 86.854 34.2045L87.1266 34.4775L82.9689 34.5511L78.8111 34.5976C76.0429 34.6304 73.2666 34.6275 70.4983 34.6384L70.9242 34.2128V38.6557C70.9242 40.1348 70.9018 41.6167 70.8909 43.0986L70.509 42.7191C71.8722 42.7282 73.2372 42.7475 74.6041 42.7766C75.9709 42.8057 77.3451 42.8348 78.7265 42.8639L87.1213 43.0904Z" fill="white"/>
<path d="M96.7962 45.457H80.1702V54.3428H96.7962V45.457Z" fill="white"/>
<path d="M40.925 105.672H57.551V96.7861H40.925V105.672Z" fill="white"/>
<path d="M31.7301 108.04L39.5544 107.807C40.8775 107.769 42.2101 107.74 43.5515 107.72C44.8928 107.7 46.2322 107.68 47.5699 107.66H47.9438V108.042C47.9438 109.521 47.9798 111.006 47.9798 112.485L47.9932 116.928V117.356H47.5646L43.6061 117.343C42.2875 117.343 40.9663 117.326 39.6477 117.313L35.6886 117.266L31.7301 117.193H31.4575V116.92C31.4876 115.408 31.5282 113.899 31.5828 112.42L31.7301 108.04ZM31.7301 108.04L31.8721 112.54C31.924 114.019 31.968 115.476 31.9981 116.925L31.7248 116.652L35.6832 116.579L39.6417 116.532C40.9603 116.532 42.2849 116.505 43.6035 116.502L47.5619 116.489L47.136 116.914L47.1493 112.471C47.1493 110.992 47.1717 109.508 47.1853 108.029L47.5646 108.408C46.2651 108.408 44.9684 108.375 43.6661 108.348C42.3639 108.32 41.0589 108.296 39.7403 108.26L31.7301 108.04Z" fill="white"/>
<path d="M22.0389 105.672H37.876V96.7861H22.0389V105.672Z" fill="white"/>
<path d="M305.313 35.3867H321.939V26.5009H305.313V35.3867Z" fill="white"/>
<path d="M268.021 26.4977L276.238 26.2658C277.627 26.2276 279.024 26.1984 280.429 26.1784C281.834 26.1584 283.24 26.1393 284.649 26.1211H285.026V26.5032C285.026 27.9823 285.059 29.4669 285.059 30.9461V35.3889V35.8175H284.63C281.859 35.8175 279.085 35.8175 276.317 35.7765L272.159 35.7274L268.004 35.6538H267.731V35.3808C267.761 33.8689 267.802 32.3597 267.859 30.8806L268.021 26.4977ZM268.021 26.4977L268.163 30.9979C268.215 32.477 268.258 33.9317 268.288 35.3836L268.015 35.1106L272.17 35.037L276.328 34.9905C279.099 34.9577 281.87 34.9604 284.641 34.9495L284.215 35.3753L284.229 30.9324C284.229 29.4533 284.251 27.9687 284.264 26.4895L284.644 26.8688C283.28 26.8597 281.915 26.8406 280.549 26.8115C279.184 26.787 277.818 26.7598 276.426 26.7216L268.021 26.4977Z" fill="white"/>
<path d="M258.336 24.1328L274.962 24.1328V15.247L258.336 15.247V24.1328Z" fill="white"/>
<path d="M148.16 80.4105L156.377 80.1785C157.764 80.1403 159.164 80.1131 160.568 80.0885C161.971 80.064 163.377 80.0422 164.786 80.0312H165.163V80.4132C165.163 81.8923 165.195 83.3771 165.195 84.8562V89.2991V89.7275H164.769C161.998 89.7275 159.228 89.7275 156.457 89.6865L152.299 89.6402L148.141 89.5664H147.868V89.2936C147.898 87.7817 147.939 86.2726 147.993 84.7934L148.16 80.4105ZM148.16 80.4105L148.299 84.9107C148.354 86.3926 148.394 87.8471 148.424 89.2962L148.152 89.0234L152.31 88.9498L156.467 88.9006C159.238 88.8679 162.013 88.8706 164.781 88.8597L164.352 89.2854V84.8426C164.352 83.3634 164.374 81.8788 164.385 80.3997L164.767 80.779C163.404 80.7699 162.039 80.7508 160.672 80.7217C159.305 80.6926 157.931 80.6635 156.549 80.6344L148.16 80.4105Z" fill="white"/>
<path d="M128.489 89.3008H145.115V80.415H128.489V89.3008Z" fill="white"/>
<path d="M194.032 45.3045C205.994 45.3045 215.692 35.6105 215.692 23.6523C215.692 11.694 205.994 2 194.032 2C182.069 2 172.371 11.694 172.371 23.6523C172.371 35.6105 182.069 45.3045 194.032 45.3045Z" fill="white"/>
<path d="M194.033 42.8563C204.641 42.8563 213.241 34.2594 213.241 23.6547C213.241 13.05 204.641 4.45312 194.033 4.45312C183.424 4.45312 174.824 13.05 174.824 23.6547C174.824 34.2594 183.424 42.8563 194.033 42.8563Z" fill="#DFDFDF"/>
<path d="M203.521 24.1036H193.594V9.97266H194.493V23.2085H203.523L203.521 24.1036Z" fill="white"/>
<path d="M346.879 90.8705C346.647 90.8685 346.422 90.8002 346.229 90.674C346.035 90.5478 345.882 90.3689 345.787 90.1583L344.31 86.8832C344.118 86.4543 343.809 86.0881 343.418 85.8265C343.027 85.5649 342.571 85.4185 342.101 85.4041L245.99 82.1647C245.464 82.1483 244.943 82.2682 244.477 82.5125C244.011 82.7568 243.616 83.1174 243.33 83.5592L240.267 88.3297C240.089 88.5877 239.818 88.7664 239.511 88.8284C239.203 88.8904 238.884 88.8307 238.62 88.6619C238.356 88.493 238.168 88.2284 238.095 87.9236C238.022 87.6188 238.071 87.2975 238.231 87.0278L241.291 82.2577C241.804 81.4647 242.513 80.8173 243.35 80.3784C244.186 79.9396 245.121 79.7241 246.066 79.7525L342.178 82.9946C343.099 83.0235 343.993 83.3108 344.759 83.8237C345.525 84.3367 346.13 85.0547 346.507 85.8955L347.984 89.1702C348.115 89.4623 348.125 89.7944 348.012 90.0937C347.898 90.393 347.67 90.6349 347.378 90.7666C347.222 90.8384 347.051 90.8741 346.879 90.8705Z" fill="#16567B"/>
<path d="M167.38 120.668L219.314 87.949C222.139 86.1683 225.423 85.2501 228.762 85.3072L356.616 87.4576C358.968 87.4972 361.286 88.0189 363.428 88.9907C365.569 89.9624 367.488 91.3636 369.066 93.1069L396.044 122.914C398.591 125.725 400.001 129.382 400 133.174V172.473C400 174.765 399.485 177.027 398.493 179.094C397.247 181.693 395.29 183.888 392.849 185.424C390.408 186.959 387.582 187.774 384.698 187.772H93.6139C91.504 187.772 89.4391 187.161 87.6686 186.014C85.898 184.867 84.4973 183.232 83.6355 181.307L79.4451 171.941C78.8171 170.537 78.4921 169.016 78.4919 167.479V152.51C78.4925 149.664 79.6032 146.931 81.5879 144.89L92.8934 133.276C94.5917 131.532 96.8235 130.404 99.2353 130.072L167.38 120.668Z" fill="#185F87"/>
<mask id="mask0_1692_11986" style="mask-type:luminance" maskUnits="userSpaceOnUse" x="78" y="85" width="322" height="103">
<path d="M167.377 120.668L219.31 87.949C222.136 86.1683 225.419 85.2501 228.759 85.3072L356.613 87.4576C358.964 87.4972 361.283 88.0189 363.424 88.9907C365.566 89.9624 367.484 91.3636 369.062 93.1069L396.041 122.914C398.587 125.725 399.997 129.382 399.997 133.174V172.473C399.996 174.765 399.481 177.027 398.49 179.094C397.243 181.693 395.287 183.888 392.846 185.424C390.405 186.959 387.579 187.774 384.695 187.772H93.6105C91.5006 187.772 89.4357 187.161 87.6651 186.014C85.8946 184.867 84.4939 183.232 83.632 181.307L79.4416 171.941C78.8137 170.537 78.4887 169.016 78.4885 167.479V152.51C78.4891 149.664 79.5998 146.931 81.5845 144.89L92.89 133.276C94.5883 131.532 96.8201 130.404 99.2319 130.072L167.377 120.668Z" fill="white"/>
</mask>
<g mask="url(#mask0_1692_11986)">
<path d="M78.4885 177.426H403.723V191.671H78.4885V177.426Z" fill="#16567B"/>
</g>
<mask id="mask1_1692_11986" style="mask-type:luminance" maskUnits="userSpaceOnUse" x="78" y="85" width="322" height="103">
<path d="M167.377 120.668L219.31 87.949C222.136 86.1683 225.419 85.2501 228.759 85.3072L356.613 87.4576C358.964 87.4972 361.283 88.0189 363.424 88.9907C365.566 89.9624 367.484 91.3636 369.062 93.1069L396.041 122.914C398.587 125.725 399.997 129.382 399.997 133.174V172.473C399.996 174.765 399.481 177.027 398.49 179.094C397.243 181.693 395.287 183.888 392.846 185.424C390.405 186.959 387.579 187.774 384.695 187.772H93.6105C91.5006 187.772 89.4357 187.161 87.6651 186.014C85.8946 184.867 84.4939 183.232 83.632 181.307L79.4416 171.941C78.8137 170.537 78.4887 169.016 78.4885 167.479V152.51C78.4891 149.664 79.5998 146.931 81.5845 144.89L92.89 133.276C94.5883 131.532 96.8201 130.404 99.2319 130.072L167.377 120.668Z" fill="white"/>
</mask>
<g mask="url(#mask1_1692_11986)">
<path d="M98.9952 143.332H79.3223V132.574H107.063V135.262C107.063 136.322 106.855 137.371 106.45 138.35C106.045 139.329 105.45 140.219 104.701 140.968C103.952 141.718 103.063 142.312 102.084 142.718C101.105 143.123 100.055 143.332 98.9952 143.332Z" fill="#6494AF"/>
</g>
<mask id="mask2_1692_11986" style="mask-type:luminance" maskUnits="userSpaceOnUse" x="78" y="85" width="322" height="103">
<path d="M167.377 120.668L219.31 87.949C222.136 86.1683 225.419 85.2501 228.759 85.3072L356.613 87.4576C358.964 87.4972 361.283 88.0189 363.424 88.9907C365.566 89.9624 367.484 91.3636 369.062 93.1069L396.041 122.914C398.587 125.725 399.997 129.382 399.997 133.174V172.473C399.996 174.765 399.481 177.027 398.49 179.094C397.243 181.693 395.287 183.888 392.846 185.424C390.405 186.959 387.579 187.774 384.695 187.772H93.6105C91.5006 187.772 89.4357 187.161 87.6651 186.014C85.8946 184.867 84.4939 183.232 83.632 181.307L79.4416 171.941C78.8137 170.537 78.4887 169.016 78.4885 167.479V152.51C78.4891 149.664 79.5998 146.931 81.5845 144.89L92.89 133.276C94.5883 131.532 96.8201 130.404 99.2319 130.072L167.377 120.668Z" fill="white"/>
</mask>
<g mask="url(#mask2_1692_11986)">
<path d="M82.4357 169.648C81.9354 169.648 81.4552 169.45 81.1014 169.096C80.7476 168.742 80.5488 168.262 80.5488 167.762V153.984C80.5488 153.483 80.7476 153.004 81.1014 152.65C81.4552 152.296 81.9354 152.098 82.4357 152.098C82.9361 152.098 83.4157 152.296 83.7694 152.65C84.1232 153.004 84.322 153.483 84.322 153.984V167.762C84.3213 168.262 84.1224 168.742 83.7688 169.095C83.4151 169.449 82.9358 169.648 82.4357 169.648Z" fill="#467F9F"/>
</g>
<mask id="mask3_1692_11986" style="mask-type:luminance" maskUnits="userSpaceOnUse" x="78" y="85" width="322" height="103">
<path d="M167.377 120.668L219.31 87.949C222.136 86.1683 225.419 85.2501 228.759 85.3072L356.613 87.4576C358.964 87.4972 361.283 88.0189 363.424 88.9907C365.566 89.9624 367.484 91.3636 369.062 93.1069L396.041 122.914C398.587 125.725 399.997 129.382 399.997 133.174V172.473C399.996 174.765 399.481 177.027 398.49 179.094C397.243 181.693 395.287 183.888 392.846 185.424C390.405 186.959 387.579 187.774 384.695 187.772H93.6105C91.5006 187.772 89.4357 187.161 87.6651 186.014C85.8946 184.867 84.4939 183.232 83.632 181.307L79.4416 171.941C78.8137 170.537 78.4887 169.016 78.4885 167.479V152.51C78.4891 149.664 79.5998 146.931 81.5845 144.89L92.89 133.276C94.5883 131.532 96.8201 130.404 99.2319 130.072L167.377 120.668Z" fill="white"/>
</mask>
<g mask="url(#mask3_1692_11986)">
<path d="M407.837 147.219H383.9C382.017 147.219 380.212 146.471 378.881 145.14C377.55 143.809 376.802 142.005 376.802 140.123V135.396C376.802 133.514 377.55 131.71 378.881 130.379C380.212 129.048 382.017 128.301 383.9 128.301H407.837V147.219Z" fill="#6494AF"/>
</g>
<path d="M106.213 166.021C109.878 162.358 114.548 159.862 119.632 158.851C124.716 157.841 129.986 158.359 134.775 160.342C139.564 162.325 143.657 165.683 146.537 169.992C149.417 174.3 150.954 179.365 150.954 184.547C150.954 189.729 149.417 194.794 146.537 199.102C143.657 203.411 139.564 206.769 134.775 208.751C129.986 210.734 124.716 211.253 119.632 210.242C114.548 209.231 109.878 206.736 106.213 203.072C101.298 198.159 98.5366 191.495 98.5366 184.547C98.5366 177.599 101.298 170.935 106.213 166.021Z" fill="black" fill-opacity="0.7"/>
<path d="M136.033 196.131C142.258 189.908 142.258 179.819 136.033 173.596C129.807 167.373 119.714 167.373 113.489 173.596C107.264 179.819 107.264 189.908 113.489 196.131C119.714 202.354 129.807 202.354 136.033 196.131Z" fill="white"/>
<path d="M125.616 178.383H123.853L123.033 171.383H126.46L125.616 178.383Z" fill="#2D395F"/>
<path d="M123.842 190.699H125.605L126.424 197.699H123.023L123.842 190.699Z" fill="#2D395F"/>
<path d="M130.904 185.432V183.666L137.905 182.848V186.272L130.904 185.432Z" fill="#2D395F"/>
<path d="M118.579 183.665V185.43L111.579 186.249V182.824L118.579 183.665Z" fill="#2D395F"/>
<path d="M129.718 180.812L128.473 179.564L132.841 174.027L135.266 176.451L129.718 180.812Z" fill="#2D395F"/>
<path d="M119.761 188.27L121.008 189.516L116.64 195.054L114.216 192.63L119.761 188.27Z" fill="#2D395F"/>
<path d="M128.483 189.52L129.728 188.273L135.267 192.64L132.843 195.063L128.483 189.52Z" fill="#2D395F"/>
<path d="M121.013 179.566L119.765 180.813L114.226 176.447L116.65 174.023L121.013 179.566Z" fill="#2D395F"/>
<path d="M332.075 166.025C335.74 162.361 340.41 159.866 345.494 158.855C350.578 157.844 355.848 158.363 360.637 160.346C365.426 162.329 369.519 165.687 372.399 169.995C375.279 174.304 376.816 179.369 376.816 184.551C376.816 189.732 375.279 194.798 372.399 199.106C369.519 203.414 365.426 206.772 360.637 208.755C355.848 210.738 350.578 211.257 345.494 210.246C340.41 209.235 335.74 206.74 332.075 203.076C327.16 198.163 324.399 191.499 324.399 184.551C324.399 177.602 327.16 170.939 332.075 166.025Z" fill="black" fill-opacity="0.7"/>
<path d="M361.895 196.135C368.12 189.912 368.12 179.822 361.895 173.6C355.669 167.377 345.576 167.377 339.351 173.6C333.126 179.822 333.126 189.912 339.351 196.135C345.576 202.358 355.669 202.358 361.895 196.135Z" fill="white"/>
<path d="M351.502 178.39H349.736L348.917 171.391H352.344L351.502 178.39Z" fill="#2D395F"/>
<path d="M349.737 190.707H351.503L352.322 197.707H348.896L349.737 190.707Z" fill="#2D395F"/>
<path d="M356.777 185.44V183.674L363.777 182.855V186.28L356.777 185.44Z" fill="#2D395F"/>
<path d="M344.454 183.673V185.438L337.452 186.257V182.832L344.454 183.673Z" fill="#2D395F"/>
<path d="M355.593 180.819L354.345 179.572L358.713 174.035L361.138 176.458L355.593 180.819Z" fill="#2D395F"/>
<path d="M345.633 188.277L346.88 189.524L342.513 195.062L340.088 192.638L345.633 188.277Z" fill="#2D395F"/>
<path d="M354.345 189.528L355.593 188.281L361.132 192.648L358.708 195.071L354.345 189.528Z" fill="#2D395F"/>
<path d="M346.885 179.574L345.638 180.821L340.099 176.455L342.523 174.031L346.885 179.574Z" fill="#2D395F"/>
<path d="M284.813 120.347H385.552L362.492 95.1604C361.395 93.9642 360.067 93.0032 358.588 92.3361C357.109 91.669 355.509 91.3096 353.886 91.2797L284.816 90.0078L284.813 120.347Z" fill="#6494AF"/>
<path d="M190.939 110.062L174.054 120.351H193.345L190.939 110.062Z" fill="#6494AF"/>
<path d="M194.585 120.348H275.714L279.7 89.9134L229.112 88.9826C226.841 88.9399 224.605 89.5449 222.666 90.7265L192.022 109.396L194.585 120.348Z" fill="#6494AF"/>
<path d="M157.375 136.546C156.592 136.546 155.841 136.234 155.287 135.681C154.733 135.127 154.422 134.376 154.421 133.594C154.422 132.811 154.733 132.06 155.287 131.506C155.841 130.953 156.592 130.641 157.375 130.641C158.158 130.641 158.909 130.953 159.463 131.506C160.016 132.06 160.328 132.811 160.329 133.594C160.329 134.377 160.018 135.128 159.464 135.681C158.91 136.235 158.159 136.546 157.375 136.546Z" fill="#6494AF"/>
<path opacity="0.5" d="M93.3813 173.81C93.3813 173.81 101.572 151.408 126.462 151.645C151.352 151.882 157.38 175.336 157.38 175.336C157.38 175.336 155.321 147.423 126.462 146.25C97.6025 145.076 93.3813 173.81 93.3813 173.81Z" fill="#6494AF"/>
<path opacity="0.5" d="M316.904 173.81C316.904 173.81 325.094 151.408 349.984 151.645C374.874 151.882 380.902 175.336 380.902 175.336C380.902 175.336 378.844 147.423 349.984 146.25C321.125 145.076 316.904 173.81 316.904 173.81Z" fill="#6494AF"/>
<path d="M395.504 143.486H394.496C394.174 143.486 393.865 143.358 393.638 143.13C393.41 142.903 393.282 142.594 393.282 142.272V132.914C393.282 132.592 393.41 132.283 393.638 132.056C393.865 131.828 394.174 131.7 394.496 131.699H395.504C395.826 131.699 396.135 131.827 396.362 132.055C396.59 132.283 396.718 132.592 396.718 132.914V142.272C396.719 142.431 396.687 142.589 396.626 142.737C396.565 142.884 396.477 143.018 396.364 143.131C396.251 143.244 396.117 143.333 395.969 143.394C395.822 143.455 395.664 143.487 395.504 143.486Z" fill="#16567B"/>
<path opacity="0.5" d="M158.56 158.355H319.147L311.995 174.034H162.497L158.56 158.355Z" fill="#6494AF"/>
<path opacity="0.5" d="M170.654 122.086H387.319L376.813 125.527H178.134L170.654 122.086Z" fill="#6494AF"/>
<path d="M261.604 169.231H177.36C176.405 169.23 175.489 168.851 174.814 168.176C174.138 167.501 173.758 166.586 173.757 165.632V120.351C173.757 120.271 173.788 120.194 173.845 120.137C173.902 120.08 173.979 120.048 174.059 120.048C174.14 120.048 174.217 120.08 174.274 120.137C174.331 120.194 174.362 120.271 174.362 120.351V165.632C174.362 166.428 174.679 167.191 175.242 167.754C175.805 168.317 176.569 168.634 177.366 168.634H261.61C263.134 168.634 264.615 168.128 265.82 167.194C267.025 166.261 267.885 164.954 268.265 163.478L279.412 120.308L281.741 89.9932C281.751 89.9165 281.79 89.8467 281.85 89.798C281.911 89.7493 281.987 89.7254 282.064 89.7314C282.142 89.7373 282.214 89.7726 282.266 89.83C282.318 89.8873 282.346 89.9621 282.344 90.0395L280.013 120.406V120.433L268.858 163.631C268.441 165.237 267.502 166.658 266.189 167.672C264.876 168.686 263.263 169.234 261.604 169.231Z" fill="#467F9F"/>
<path d="M271.902 127.675H258.919L257.758 123.391H273.246L271.902 127.675Z" fill="#467F9F"/>
<path d="M195.935 124.335L193.857 124.99C193.699 125.04 193.534 125.058 193.369 125.044C193.204 125.03 193.044 124.984 192.897 124.908C192.75 124.832 192.62 124.727 192.513 124.601C192.407 124.475 192.326 124.328 192.276 124.171L187.69 109.631C187.59 109.313 187.62 108.969 187.774 108.673C187.927 108.378 188.192 108.155 188.509 108.053L190.589 107.398C190.907 107.298 191.253 107.328 191.549 107.481C191.845 107.635 192.069 107.899 192.17 108.217L196.756 122.757C196.857 123.076 196.826 123.42 196.672 123.716C196.518 124.012 196.253 124.234 195.935 124.335Z" fill="#467F9F"/>
<path d="M308.015 191.673H176.972C176.717 191.673 176.464 191.623 176.228 191.525C175.992 191.427 175.777 191.284 175.597 191.103C175.416 190.922 175.273 190.708 175.175 190.472C175.078 190.236 175.028 189.982 175.029 189.727C175.029 189.212 175.234 188.717 175.598 188.352C175.962 187.987 176.457 187.782 176.972 187.781H308.015C308.271 187.781 308.524 187.831 308.76 187.929C308.997 188.026 309.211 188.17 309.392 188.351C309.573 188.531 309.716 188.746 309.814 188.982C309.912 189.218 309.962 189.471 309.961 189.727C309.962 189.983 309.912 190.236 309.814 190.472C309.716 190.709 309.573 190.923 309.392 191.104C309.211 191.285 308.997 191.428 308.76 191.526C308.524 191.623 308.271 191.673 308.015 191.673Z" fill="#16567B"/>
<path d="M308.015 237.674H176.972C176.457 237.674 175.963 237.47 175.598 237.105C175.233 236.741 175.029 236.246 175.029 235.731C175.028 235.476 175.078 235.223 175.175 234.987C175.273 234.751 175.416 234.536 175.597 234.355C175.777 234.175 175.992 234.031 176.228 233.933C176.464 233.836 176.717 233.785 176.972 233.785H308.015C308.271 233.785 308.524 233.835 308.76 233.933C308.997 234.03 309.211 234.174 309.392 234.354C309.573 234.535 309.716 234.75 309.814 234.986C309.912 235.222 309.962 235.475 309.961 235.731C309.961 235.986 309.911 236.239 309.813 236.475C309.715 236.711 309.572 236.926 309.391 237.106C309.211 237.287 308.996 237.429 308.76 237.527C308.523 237.624 308.271 237.675 308.015 237.674Z" fill="#16567B"/>
<path d="M273.166 191.079L271.478 188.875L241.902 211.523L243.59 213.727L273.166 191.079Z" fill="#16567B"/>
<path d="M242.499 213.715L244.187 211.512L214.607 188.869L212.919 191.073L242.499 213.715Z" fill="#16567B"/>
<path d="M211.811 235.331L213.499 237.535L243.079 214.893L241.391 212.689L211.811 235.331Z" fill="#16567B"/>
<path d="M242.486 212.695L240.798 214.898L270.378 237.541L272.066 235.337L242.486 212.695Z" fill="#16567B"/>
<path d="M246.038 221.018C250.623 219.119 252.801 213.864 250.901 209.28C249.002 204.696 243.745 202.519 239.159 204.417C234.573 206.316 232.396 211.572 234.295 216.156C236.194 220.74 241.452 222.917 246.038 221.018Z" fill="#185F87"/>
<path d="M242.577 218.35C241.463 218.35 240.374 218.02 239.448 217.401C238.522 216.782 237.8 215.903 237.374 214.874C236.948 213.846 236.836 212.713 237.053 211.621C237.271 210.529 237.807 209.526 238.595 208.739C239.383 207.951 240.386 207.415 241.479 207.198C242.571 206.981 243.704 207.092 244.733 207.518C245.762 207.945 246.641 208.666 247.26 209.592C247.879 210.518 248.209 211.606 248.209 212.72C248.208 214.212 247.614 215.644 246.558 216.699C245.503 217.755 244.071 218.348 242.577 218.35ZM242.577 207.316C241.507 207.316 240.462 207.633 239.572 208.226C238.682 208.82 237.988 209.664 237.578 210.652C237.169 211.64 237.062 212.727 237.271 213.776C237.479 214.825 237.994 215.789 238.75 216.545C239.507 217.302 240.471 217.816 241.52 218.025C242.57 218.233 243.657 218.126 244.646 217.717C245.634 217.307 246.478 216.614 247.072 215.724C247.666 214.835 247.983 213.789 247.983 212.72C247.981 211.287 247.41 209.914 246.397 208.901C245.384 207.888 244.01 207.318 242.577 207.316Z" fill="white"/>
<path d="M112.89 229.02H73.3037C72.7824 229.02 72.282 228.813 71.9133 228.444C71.5447 228.076 71.3381 227.576 71.3381 227.055V216.469C71.3381 215.948 71.5447 215.448 71.9133 215.08C72.282 214.711 72.7824 214.504 73.3037 214.504H112.89C113.411 214.504 113.911 214.711 114.279 215.08C114.648 215.448 114.855 215.948 114.855 216.469V227.055C114.855 227.576 114.648 228.076 114.279 228.444C113.911 228.813 113.411 229.02 112.89 229.02Z" fill="#2D395F"/>
<path d="M114.852 217.125H71.3381V218.482H114.852V217.125Z" fill="#57617F"/>
<path d="M114.852 224.531H71.3381V225.888H114.852V224.531Z" fill="#57617F"/>
<path d="M116.335 243.527H76.7495C76.2282 243.527 75.7284 243.32 75.3598 242.952C74.9912 242.583 74.7839 242.084 74.7839 241.563V230.977C74.7839 230.455 74.9912 229.956 75.3598 229.587C75.7284 229.219 76.2282 229.012 76.7495 229.012H116.335C116.857 229.012 117.357 229.219 117.726 229.587C118.094 229.956 118.301 230.455 118.301 230.977V241.563C118.301 242.084 118.094 242.583 117.726 242.952C117.357 243.32 116.857 243.527 116.335 243.527Z" fill="#171D30"/>
<path d="M118.298 231.629H74.7839V232.986H118.298V231.629Z" fill="#57617F"/>
<path d="M118.298 239.039H74.7839V240.396H118.298V239.039Z" fill="#57617F"/>
<path d="M110.023 258.043H70.4375C69.9162 258.043 69.4164 257.836 69.0478 257.468C68.6792 257.099 68.4719 256.599 68.4719 256.078V245.492C68.4719 244.971 68.6792 244.471 69.0478 244.103C69.4164 243.735 69.9162 243.527 70.4375 243.527H110.023C110.545 243.527 111.044 243.735 111.413 244.103C111.782 244.471 111.989 244.971 111.989 245.492V256.078C111.989 256.599 111.782 257.099 111.413 257.468C111.044 257.836 110.545 258.043 110.023 258.043Z" fill="#222B47"/>
<path d="M111.986 246.148H68.4719V247.505H111.986V246.148Z" fill="#57617F"/>
<path d="M111.986 253.559H68.4719V254.915H111.986V253.559Z" fill="#57617F"/>
<path d="M166.562 243.656V248.929L158.743 251.931C157.852 252.273 157.085 252.877 156.544 253.663C156.004 254.45 155.715 255.381 155.715 256.335H174.576V243.659L166.562 243.656Z" fill="#2D395F"/>
<path d="M160.254 251.371L159.903 251.508L160.594 253.278L160.945 253.141L160.254 251.371Z" fill="#74A0DD"/>
<path d="M161.724 250.789L161.373 250.926L162.064 252.696L162.415 252.559L161.724 250.789Z" fill="#74A0DD"/>
<path d="M163.272 250.179L162.921 250.316L163.612 252.086L163.963 251.949L163.272 250.179Z" fill="#74A0DD"/>
<path d="M164.958 249.527L164.607 249.664L165.298 251.434L165.649 251.297L164.958 249.527Z" fill="#74A0DD"/>
<path d="M174.579 256.332H155.715V257.208H174.579V256.332Z" fill="#74A0DD"/>
<path d="M228.599 242.281L231.537 246.884L224.984 252.094C224.236 252.688 223.687 253.494 223.407 254.407C223.128 255.32 223.132 256.296 223.42 257.206L241.409 251.538L234.796 240.332L228.599 242.281Z" fill="#D85745"/>
<path d="M226.417 251.01L226.124 251.246L227.315 252.726L227.609 252.49L226.417 251.01Z" fill="#D85745"/>
<path d="M227.612 250.041L227.318 250.277L228.51 251.757L228.803 251.521L227.612 250.041Z" fill="#D85745"/>
<path d="M228.849 249.037L228.555 249.273L229.747 250.753L230.04 250.517L228.849 249.037Z" fill="#D85745"/>
<path d="M230.319 247.869L230.025 248.105L231.217 249.585L231.511 249.349L230.319 247.869Z" fill="#D85745"/>
<path d="M241.395 251.521L223.402 257.191L223.666 258.027L241.658 252.356L241.395 251.521Z" fill="#D85745"/>
<path d="M193.345 158.359L237.596 239.445L225.237 243.339L172.375 166.724L193.345 158.359Z" fill="#D85745"/>
<path d="M166.708 166.494L168.417 174.049L164.341 197.365C163.604 201.576 163.338 205.855 163.549 210.124L165.188 243.669H176.225L178.644 204.043L193.34 158.367L166.708 166.494Z" fill="#D85745"/>
<path d="M165.686 162.953L164.067 165.251C163.466 166.08 162.655 166.733 161.717 167.142L148.274 172.993L145.427 168.444L155.722 162.271C156.864 161.585 157.849 160.666 158.612 159.575L162.787 152.91L165.686 162.953Z" fill="#F2A392"/>
<path d="M151.768 121.573C151.286 121.754 150.759 121.771 150.265 121.623C149.772 121.476 149.341 121.17 149.038 120.754C149.006 121.05 149.044 121.35 149.149 121.629C149.254 121.908 149.422 122.159 149.642 122.361C148.74 122.165 147.919 121.7 147.285 121.029C147.285 121.029 147.681 125.816 152.148 124.525L152.822 121.613L151.768 121.573Z" fill="black" fill-opacity="0.7"/>
<path d="M155.36 117.863C152.676 118.475 151.491 120.592 151.425 123.758L150.795 126.951L152.16 127.003L152.223 127.276C152.552 128.585 153.381 129.713 154.533 130.419C155.684 131.124 157.067 131.351 158.383 131.05C159.7 130.75 160.846 129.945 161.577 128.809C162.307 127.674 162.564 126.297 162.291 124.975L161.551 121.744C161.401 121.082 161.122 120.456 160.729 119.903C160.336 119.349 159.837 118.878 159.262 118.518C158.686 118.157 158.046 117.914 157.376 117.802C156.706 117.689 156.021 117.71 155.36 117.863Z" fill="#F2A392"/>
<path d="M164.422 134.603C164.104 134.771 163.756 134.875 163.398 134.908C163.04 134.942 162.678 134.904 162.335 134.798C161.991 134.691 161.673 134.518 161.396 134.287C161.12 134.057 160.892 133.775 160.725 133.457L156.81 126.023L161.65 123.477L165.565 130.91C165.733 131.228 165.837 131.575 165.871 131.933C165.904 132.29 165.866 132.651 165.76 132.994C165.654 133.337 165.481 133.656 165.251 133.932C165.021 134.208 164.74 134.436 164.422 134.603Z" fill="#F2A392"/>
<path d="M150.869 121.833L161.628 120.818C161.522 119.545 160.941 118.359 160.001 117.494C159.061 116.629 157.831 116.149 156.553 116.149C151.887 116.121 150.869 121.833 150.869 121.833Z" fill="#D85745"/>
<path d="M155.251 121.418L156.734 123.65C156.871 123.859 157.063 124.027 157.288 124.134C157.514 124.241 157.765 124.284 158.014 124.259L158.893 124.174L160.946 125.847C161.129 125.997 161.343 126.104 161.572 126.161C161.801 126.218 162.041 126.224 162.273 126.177L162.996 126.033C163.21 125.119 163.198 124.166 162.96 123.258C162.722 122.349 162.266 121.513 161.631 120.82L155.251 121.418Z" fill="black" fill-opacity="0.7"/>
<path d="M159.979 123.749C160.07 123.922 160.108 124.119 160.088 124.313C160.067 124.508 159.989 124.693 159.864 124.843C159.739 124.994 159.572 125.104 159.384 125.16C159.196 125.216 158.996 125.215 158.809 125.157C158.622 125.099 158.456 124.986 158.332 124.834C158.209 124.682 158.133 124.497 158.115 124.302C158.097 124.107 158.137 123.911 158.23 123.739C158.323 123.566 158.466 123.426 158.639 123.334C158.754 123.273 158.88 123.235 159.01 123.223C159.14 123.211 159.271 123.225 159.395 123.263C159.52 123.302 159.635 123.365 159.735 123.448C159.835 123.531 159.918 123.634 159.979 123.749Z" fill="#F2A392"/>
<path d="M161.116 119.207C161.069 119.095 166.991 119.327 166.03 119.979C164.335 120.518 162.574 120.818 160.797 120.872C161.012 120.659 161.157 120.386 161.214 120.089C161.271 119.792 161.237 119.484 161.116 119.207Z" fill="#D85745"/>
<path d="M153.255 125.082C153.487 125.525 153.48 125.986 153.237 126.117C152.994 126.248 152.606 125.991 152.371 125.549C152.136 125.107 152.147 124.646 152.393 124.515C152.639 124.384 153.026 124.64 153.255 125.082Z" fill="#2D395F"/>
<path d="M152.944 124.881C153.031 125.048 153.029 125.222 152.944 125.269C152.859 125.315 152.707 125.222 152.619 125.056C152.532 124.889 152.535 124.715 152.619 124.668C152.704 124.622 152.857 124.715 152.944 124.881Z" fill="white"/>
<path d="M151.937 123.943L154.063 124.05C154.063 124.05 151.947 122.253 151.937 123.943Z" fill="#2D395F"/>
<path d="M155.715 127.726C155.969 127.999 155.77 128.613 155.262 129.069C154.754 129.525 154.135 129.662 153.881 129.378C153.627 129.094 153.826 128.491 154.334 128.035C154.842 127.579 155.458 127.442 155.715 127.726Z" fill="white"/>
<path d="M158.581 124.673C158.55 124.673 158.521 124.661 158.498 124.639C158.476 124.618 158.462 124.589 158.461 124.558C158.452 124.228 158.558 123.904 158.762 123.644C158.837 123.564 158.928 123.501 159.029 123.458C159.13 123.416 159.238 123.394 159.348 123.395C159.364 123.394 159.38 123.395 159.395 123.4C159.41 123.406 159.424 123.414 159.435 123.425C159.447 123.436 159.457 123.449 159.463 123.463C159.469 123.478 159.472 123.494 159.471 123.51C159.472 123.525 159.469 123.541 159.463 123.555C159.458 123.569 159.449 123.583 159.439 123.594C159.428 123.605 159.416 123.614 159.401 123.62C159.387 123.626 159.372 123.63 159.357 123.63C159.278 123.628 159.2 123.643 159.127 123.673C159.055 123.703 158.99 123.748 158.936 123.805C158.776 124.019 158.692 124.282 158.699 124.55C158.699 124.565 158.696 124.581 158.691 124.595C158.685 124.61 158.677 124.623 158.666 124.634C158.656 124.645 158.643 124.654 158.629 124.66C158.615 124.666 158.6 124.67 158.584 124.67L158.581 124.673Z" fill="#2D395F"/>
<path d="M166.711 166.492L158.1 136.694C157.956 136.199 157.914 135.68 157.976 135.169C158.037 134.657 158.202 134.163 158.46 133.716C158.717 133.27 159.062 132.88 159.474 132.571C159.886 132.261 160.357 132.038 160.858 131.915L165.281 130.823C167.057 130.377 168.912 130.347 170.702 130.735C172.492 131.123 174.169 131.92 175.6 133.061C181.407 137.725 190.616 146.69 193.346 158.376L166.711 166.492Z" fill="#FF725E"/>
<path d="M165.285 130.816C165.285 130.816 179.391 136.208 188.763 160.156L191.171 159.443C191.171 159.443 184.365 138.673 167.01 130.516L165.285 130.816Z" fill="#D85745"/>
<path d="M158.566 133.605L148.978 146.814L159.191 155.258L169.124 142.674L158.566 133.605Z" fill="#FF725E"/>
<path d="M150.108 147.738L145.296 153.92C144.488 154.927 143.37 155.638 142.115 155.942L122.874 160.598L120.384 160.352C120.313 160.352 120.239 160.333 120.171 160.322L116.578 159.656L116.669 160.294C116.696 160.48 116.767 160.656 116.877 160.807C116.986 160.959 117.132 161.082 117.299 161.165L118.544 161.867L119.273 162.57C119.341 162.636 119.394 162.716 119.427 162.805C119.461 162.893 119.475 162.988 119.468 163.082C119.461 163.176 119.433 163.268 119.387 163.35C119.34 163.432 119.276 163.504 119.199 163.559L116.983 165.136L114.304 166.375C114.118 166.461 113.973 166.616 113.901 166.808C113.829 166.999 113.836 167.211 113.919 167.398L114.318 168.296C114.362 168.396 114.427 168.485 114.508 168.558C114.589 168.63 114.683 168.686 114.787 168.719L116.739 169.025C118.397 169.289 120.096 169.001 121.574 168.206L124.749 166.487L124.725 166.408L146.792 163.046C148.286 162.817 149.668 162.118 150.737 161.05L157.742 154.053L150.108 147.738Z" fill="#F2A392"/>
<path d="M142.501 243.996H101.121V258.042H142.501V243.996Z" fill="#A03F0D"/>
<path d="M111.616 243.996H108.865V248.48H111.616V243.996Z" fill="#FF9259"/>
<path d="M134.769 243.996H132.017V248.48H134.769V243.996Z" fill="#FF9259"/>
<path d="M148.043 244.094L152.829 234.062H112.945L106.667 244.094H148.043Z" fill="#7B340F"/>
<path d="M152.833 234.062C152.833 234.062 156.997 242.983 148.045 244.094L152.833 234.062Z" fill="#7B340F"/>
<path d="M112.936 234.062C113.239 234.738 113.468 235.444 113.618 236.169C113.781 236.896 113.872 237.637 113.891 238.382C113.908 239.132 113.829 239.882 113.656 240.612C113.474 241.339 113.143 242.021 112.682 242.612C112.978 241.951 113.189 241.255 113.312 240.541C113.415 239.83 113.46 239.112 113.443 238.393C113.426 237.67 113.37 236.949 113.277 236.232C113.189 235.509 113.078 234.788 112.936 234.062Z" fill="#7B340F"/>
<path d="M147.933 244.094H142.5V258.039H147.933V244.094Z" fill="#7B340F"/>
<path d="M147.359 244.267H142.612C142.582 244.267 142.553 244.255 142.532 244.234C142.511 244.213 142.5 244.185 142.5 244.155C142.5 244.125 142.511 244.097 142.532 244.076C142.553 244.055 142.582 244.043 142.612 244.043H147.359C147.389 244.043 147.417 244.055 147.438 244.076C147.459 244.097 147.471 244.125 147.471 244.155C147.471 244.185 147.459 244.213 147.438 244.234C147.417 244.255 147.389 244.267 147.359 244.267Z" fill="#264B05"/>
<path d="M284.816 203.242H393.284V258.05H284.816V203.242Z" fill="#303030"/>
<path d="M286.629 205.277H323.974V216.013H286.629V205.277Z" fill="#3D3D3D"/>
<path d="M308.569 206.508H302.028V208.026H308.569V206.508Z" fill="#030303"/>
<path d="M323.974 217.898H286.629V228.635H323.974V217.898Z" fill="#3D3D3D"/>
<path d="M308.569 219.129H302.028V220.647H308.569V219.129Z" fill="#030303"/>
<path d="M323.974 230.527H286.629V241.263H323.974V230.527Z" fill="#3D3D3D"/>
<path d="M308.569 231.758H302.028V233.276H308.569V231.758Z" fill="#030303"/>
<path d="M286.629 243.148H323.974V253.885H286.629V243.148Z" fill="#3D3D3D"/>
<path d="M308.569 244.379H302.028V245.897H308.569V244.379Z" fill="#030303"/>
<path d="M391.747 254.111H325.534V205.367H391.747V254.111ZM325.979 253.663H391.299V205.815H325.979V253.663Z" fill="#3D3D3D"/>
</svg>
