<svg width="310" height="232" viewBox="0 0 310 232" fill="none" xmlns="http://www.w3.org/2000/svg">
<g clip-path="url(#clip0_1769_11150)">
<mask id="mask0_1769_11150" style="mask-type:luminance" maskUnits="userSpaceOnUse" x="-1" y="14" width="311" height="259">
<path d="M195.059 36.6441C185.02 36.3315 174.982 37.2962 165.186 39.5151C152.986 42.2871 140.302 39.0151 130.329 31.4541C115.204 19.9791 96.5272 14.1848 77.5632 15.0841C35.1632 16.9931 1.01522 51.9421 0.0222155 94.3681C-0.389809 111.619 4.69734 128.555 14.5477 142.723C24.398 156.892 38.5007 167.559 54.8152 173.182C60.9325 175.284 66.5281 178.673 71.2246 183.121C75.9212 187.569 79.6096 192.972 82.0412 198.966C92.5398 224.825 111.863 246.126 136.579 259.088C161.295 272.049 189.805 275.832 217.047 269.765C244.288 263.697 268.497 248.171 285.376 225.945C302.254 203.719 310.71 176.23 309.241 148.36C306.114 87.4051 256.068 38.4931 195.059 36.6441Z" fill="white"/>
</mask>
<g mask="url(#mask0_1769_11150)">
<path d="M291.327 -15.2417H286.957V203.808H291.327V-15.2417Z" fill="#FFFFFE"/>
<path d="M-123.707 -15.3408H321.133V227.982H-123.707V-15.3408Z" fill="#185F87"/>
<path d="M217.294 62.5901H76.1084C76.1084 62.5901 98.4884 42.2311 122.037 54.3831C122.037 54.3831 138.903 36.5901 150.805 38.3731C162.707 40.1561 168.958 52.8911 168.958 52.8911C168.958 52.8911 211.763 40.8881 217.294 62.5901Z" fill="white"/>
<path d="M146.7 130.402H5.51367C5.51367 130.402 27.8947 110.043 51.4427 122.196C51.4427 122.196 68.3087 104.404 80.2107 106.186C92.1127 107.968 98.3637 120.704 98.3637 120.704C98.3637 120.704 141.173 108.7 146.7 130.402Z" fill="white"/>
<path d="M-124.855 59.369H9.07953C9.07953 59.369 -6.22046 42.769 -34.7555 52.892C-34.7555 52.892 -36.7835 34.617 -62.7885 38.973C-62.7885 38.973 -69.9725 24.948 -86.3205 25.573C-102.668 26.198 -104.38 44.99 -104.38 44.99C-104.38 44.99 -110.228 34.746 -124.855 42.46V59.369Z" fill="white"/>
<path d="M321.002 96.0941H187.067C187.067 96.0941 202.367 79.4941 230.902 89.6171C230.902 89.6171 232.929 71.3421 258.935 75.6981C258.935 75.6981 266.119 61.6731 282.467 62.2981C298.815 62.9231 300.527 81.7151 300.527 81.7151C300.527 81.7151 306.375 71.4711 321.002 79.1841V96.0941Z" fill="white"/>
<g opacity="0.43">
<path d="M154.453 -15.2417H134.838L-13.1689 212.786L-10.8869 214.265H5.48605L154.453 -15.2417Z" fill="#FFFFFE"/>
<path d="M61.0642 -15.2417H55.2922L-93.6738 214.264H-87.9018L61.0642 -15.2417Z" fill="#FFFFFE"/>
<path d="M48.2431 -15.2417H28.6281L-117.754 210.288L-111.625 214.264H-100.725L48.2431 -15.2417Z" fill="#FFFFFE"/>
<path d="M287.425 -15.2417H267.81L118.996 214.033L119.356 214.265H138.456L287.425 -15.2417Z" fill="#FFFFFE"/>
<path d="M321.003 -3.27368V-15.2417H296.142L148.423 212.346L151.38 214.265H179.804L321.003 -3.27368Z" fill="#FFFFFE"/>
<path d="M321.001 17.3333V8.44531L187.411 214.264H193.18L321.001 17.3333Z" fill="#FFFFFE"/>
<path d="M198.503 -14.9937L198.119 -15.2417H166.037L17.0713 214.264H49.6993L198.503 -14.9937Z" fill="#FFFFFE"/>
<path d="M261.828 -15.2417H256.056L107.09 214.264H112.859L261.828 -15.2417Z" fill="#FFFFFE"/>
</g>
<path d="M-124.855 201.695H321.003V227.979H-124.855V201.695Z" fill="#BBBBBB"/>
<path d="M321.003 207.259H-124.855V208.122H321.003V207.259Z" fill="#91A7E2"/>
<path d="M321.003 218.383H-124.855V219.246H321.003V218.383Z" fill="#91A7E2"/>
<path d="M321.003 200.365H-124.855V207.258H321.003V200.365Z" fill="#FFFFFE"/>
<path d="M91.2225 -15.2417H86.8525V203.808H91.2225V-15.2417Z" fill="#FFFFFE"/>
<path d="M189.123 -15.2417H184.753V203.808H189.123V-15.2417Z" fill="#FFFFFE"/>
<path d="M321.003 109.408H-124.855V113.189H321.003V109.408Z" fill="#FFFFFE"/>
</g>
<path d="M158.148 214.774C241.689 214.774 309.413 219.652 309.413 225.674C309.413 231.696 241.69 236.574 158.148 236.574C74.6058 236.574 6.88281 231.687 6.88281 225.674C6.88281 219.661 74.6058 214.774 158.148 214.774Z" fill="#EBEBEB"/>
<path d="M33.4038 91.5989C30.0698 91.9269 31.1448 95.8199 31.1448 100.828C31.1448 105.836 29.5448 103.64 31.0028 109.905C32.4608 116.17 30.3378 114.45 31.8958 120.698C33.4538 126.946 32.5838 124.684 33.4038 130.707C34.2238 136.73 33.4538 137.501 34.3338 143.713C35.2138 149.925 33.2338 150.696 34.3338 157.401C35.4338 164.106 34.0338 161.361 34.5648 167.956C35.0958 174.551 35.6397 181.456 35.6397 181.456H40.9868C41.7211 178.12 42.2534 174.744 42.5808 171.344C42.7988 167.52 42.7988 166.614 43.0208 162.284C43.2428 157.954 44.5588 155.424 43.5208 151.246C42.4828 147.068 43.9047 147.178 42.9157 141.022C41.9267 134.866 42.2578 130.91 41.8158 127.5C41.3738 124.09 41.2768 120.716 40.6018 116.7C39.9268 112.684 40.5618 111.573 39.9798 108.047C39.3978 104.521 38.5798 103.135 38.1638 99.0469C37.7478 94.9589 36.2098 91.3209 33.4038 91.5989Z" fill="#185F87"/>
<path d="M22.3788 113.169C24.7788 113.242 24.6279 117.992 25.8589 122.123C27.0899 126.254 27.4168 125.117 27.8698 131.133C28.3228 137.149 30.0698 137.497 30.0468 143.733C30.0238 149.969 28.8889 150.444 29.9969 154.933C30.8194 157.87 31.3622 160.878 31.6178 163.917C32.0278 167.751 31.5648 167.717 32.3418 171.26C32.8872 174.59 33.1914 177.955 33.2519 181.329L27.6618 181.303C26.5261 178.447 25.8419 175.432 25.6338 172.365C25.4618 167.88 22.5119 161.724 22.1769 157.665C21.8419 153.606 21.8628 149.544 21.0768 145.41C20.4434 142.272 20.1365 139.076 20.1609 135.874C20.0219 131.508 19.5458 129.933 19.5608 125.514C19.5758 121.095 18.5688 113.053 22.3788 113.169Z" fill="#185F87"/>
<path d="M54.2832 113.169C51.8832 113.242 52.0342 117.992 50.8032 122.123C49.5722 126.254 49.2452 125.117 48.7922 131.133C48.3392 137.149 46.5922 137.497 46.6152 143.733C46.6382 149.969 47.7732 150.444 46.6652 154.933C45.8426 157.87 45.2999 160.878 45.0442 163.917C44.6342 167.751 45.0972 167.717 44.3202 171.26C43.7748 174.59 43.4706 177.955 43.4102 181.329L49.0002 181.303C50.1359 178.447 50.8201 175.432 51.0282 172.365C51.2002 167.88 54.1502 161.724 54.4852 157.665C54.8202 153.606 54.7991 149.544 55.5851 145.41C56.2185 142.272 56.5255 139.076 56.5012 135.874C56.6402 131.508 57.1162 129.933 57.1012 125.514C57.0862 121.095 58.0932 113.053 54.2832 113.169Z" fill="#185F87"/>
<path d="M33.4043 92.9321C33.4043 92.9321 41.1043 141.186 38.1613 181.455" stroke="white" stroke-width="0.506" stroke-miterlimit="10"/>
<path d="M30.9456 180.826C30.9456 180.826 23.5456 145.44 22.2266 116.384" stroke="white" stroke-width="0.506" stroke-miterlimit="10"/>
<path d="M45.7158 180.826C45.7158 180.826 53.1158 145.44 54.4348 116.384" stroke="white" stroke-width="0.506" stroke-miterlimit="10"/>
<path d="M52.1361 197.646H23.8781C23.2681 197.646 22.6831 197.404 22.2518 196.973C21.8204 196.541 21.5781 195.956 21.5781 195.346V180.055H54.4341V195.347C54.4339 195.957 54.1917 196.541 53.7608 196.972C53.3299 197.403 52.7456 197.646 52.1361 197.646Z" fill="#15244F"/>
<path d="M21.5791 183.763C23.9901 184.715 28.1051 185.923 32.0251 185.086C38.0721 183.793 38.9521 184.894 42.3621 186.432C45.2171 187.722 52.2361 189.852 54.4391 190.51V180.055H21.5821V183.763H21.5791Z" fill="#0C193A"/>
<path d="M306.548 189.942C306.548 189.942 306.492 191.47 306.277 193.65C305.777 198.777 304.424 207.496 300.951 208.413C300.951 208.413 293.783 210.14 292.377 209.319C292.377 209.319 292.4 185.014 272.358 179.219C260.486 175.799 237.587 176.169 234.997 211.579C234.997 211.579 100.311 211.354 91.2435 213.038C91.2435 213.038 87.6945 212.479 88.3026 206.952C88.3134 205.917 88.268 204.882 88.1665 203.852C87.5445 196.482 83.9725 178.276 64.2115 174.542C64.2115 174.542 35.8735 168.69 30.6115 200.511C30.3665 202.011 30.1685 203.581 30.0425 205.238C29.8905 206.888 29.8075 208.625 29.7845 210.448C29.7845 210.448 19.0275 213.2 14.4845 209.654C14.4845 209.654 3.30053 209.975 3.08453 209.379L2.56152 206.27C2.56152 206.27 2.67052 206.141 2.84552 205.906C3.81452 204.666 6.73554 200.63 4.12854 200.379C2.73595 194.107 2.35379 187.652 2.99652 181.259C4.25352 170.459 9.56953 158.793 26.3165 157.086C26.3165 157.086 66.5655 148.01 77.5105 142.086C97.4105 131.313 131.041 109.005 181.124 110.686C202.754 111.414 238.385 110.16 267.434 117.272C268.364 118.495 269.056 119.882 269.475 121.36C269.475 121.36 289.94 142.053 291.121 143.099C292.107 143.969 293.066 144.829 293.966 145.699C295.335 146.97 296.599 148.351 297.744 149.827C301.187 154.375 302.563 159.691 299.239 167.851C299.238 167.836 308.622 182.629 306.548 189.942Z" fill="#EF3E38"/>
<path d="M36.7253 211.572L29.7853 210.451C29.7853 210.451 26.3553 175.213 58.0603 173.917C70.1243 173.424 90.6713 181.035 88.5153 211.391C88.5153 211.391 85.9353 216.591 80.4513 217.53C80.4513 217.53 95.5253 190.019 65.0333 180.261C54.2763 176.817 33.3983 185.202 36.7253 211.572Z" fill="#15244F"/>
<path d="M239.287 211.132L234.845 211.459C234.845 211.459 231.726 179.919 261.962 176.913C273.976 175.719 294.262 185.371 292.377 209.313C292.377 209.313 291.884 206.925 288.292 208.145C288.292 208.145 288.1 191.394 270.013 184.545C259.451 180.551 239.158 185.077 239.287 211.132Z" fill="#15244F"/>
<path d="M85.2202 204.032C85.5437 190.554 74.5273 179.358 60.6143 179.024C46.7012 178.69 35.1603 189.345 34.8367 202.823C34.5132 216.301 45.5297 227.498 59.4427 227.832C73.3557 228.166 84.8967 217.51 85.2202 204.032Z" fill="#0C193A"/>
<path d="M77.3684 204.373C77.3284 207.981 76.2164 211.496 74.1736 214.471C72.1308 217.446 69.2496 219.746 65.8961 221.079C62.5427 222.413 58.8685 222.718 55.3408 221.958C51.8131 221.198 48.5912 219.406 46.0847 216.809C43.5781 214.213 41.9003 210.93 41.2643 207.378C40.6283 203.826 41.063 200.165 42.5131 196.86C43.9632 193.556 46.3632 190.757 49.408 188.82C52.4527 186.883 56.0047 185.895 59.6124 185.982C64.4057 186.066 68.9692 188.051 72.2991 191.5C75.6289 194.949 77.4524 199.579 77.3684 204.373Z" fill="#D7E2FF"/>
<path d="M71.9527 203.755C71.8721 206.223 71.0626 208.612 69.6264 210.621C68.1902 212.63 66.1915 214.169 63.8822 215.044C61.5728 215.919 59.0562 216.091 56.6494 215.538C54.2426 214.985 52.0533 213.732 50.3574 211.937C48.6615 210.142 47.5349 207.885 47.1196 205.45C46.7043 203.016 47.0188 200.513 48.0235 198.257C49.0282 196.001 50.6781 194.093 52.7654 192.774C54.8527 191.454 57.2839 190.781 59.7527 190.841C63.083 190.936 66.2391 192.35 68.527 194.772C70.8149 197.193 72.0472 200.425 71.9527 203.755Z" fill="#0C193A"/>
<path d="M74.8642 206.706L75.2712 201.926L65.4442 201.635C65.3882 201.456 65.3222 201.284 65.2442 201.112L72.8092 195.221L69.7392 191.536L62.5972 198.181C62.4349 198.089 62.2681 198.005 62.0972 197.93L63.4132 188.202L58.6302 187.825L58.1802 197.49C57.936 197.538 57.6952 197.602 57.4592 197.682L51.2772 190.034L47.7212 193.253L54.2672 200.034C53.9735 200.455 53.7346 200.911 53.5562 201.393L43.8682 200.768L43.8252 205.568L53.5172 205.343C53.5702 205.495 53.6232 205.643 53.6892 205.789L46.1672 212.315L49.5082 215.758L56.3292 208.696C56.5952 208.844 56.8715 208.972 57.1562 209.08L55.3302 218.716L60.0702 219.457L61.1622 209.296C61.3472 209.246 61.5262 209.187 61.7042 209.121L61.5952 209.207L67.4362 217.271L71.2272 214.334L64.6942 206.805C64.9534 206.426 65.1688 206.018 65.3362 205.591L74.8642 206.706Z" fill="#D7E2FF"/>
<path d="M58.2355 200.249C58.2289 200.519 58.1423 200.782 57.9867 201.003C57.831 201.224 57.6133 201.394 57.361 201.491C57.1088 201.588 56.8333 201.609 56.5695 201.549C56.3057 201.49 56.0654 201.354 55.879 201.158C55.6925 200.962 55.5683 200.716 55.5221 200.449C55.4759 200.183 55.5097 199.909 55.6192 199.662C55.7288 199.414 55.9092 199.205 56.1376 199.061C56.366 198.916 56.6323 198.842 56.9026 198.849C57.265 198.858 57.609 199.01 57.859 199.273C58.109 199.536 58.2444 199.887 58.2355 200.249Z" fill="#A2B2EA"/>
<path d="M64.0969 201.043C64.0903 201.313 64.0036 201.576 63.848 201.797C63.6923 202.018 63.4746 202.188 63.2223 202.285C62.9701 202.382 62.6947 202.403 62.4308 202.343C62.167 202.284 61.9267 202.148 61.7402 201.952C61.5538 201.756 61.4296 201.51 61.3834 201.243C61.3372 200.977 61.371 200.703 61.4805 200.456C61.5901 200.208 61.7705 199.999 61.999 199.855C62.2274 199.71 62.4936 199.636 62.7639 199.643C63.1263 199.652 63.4703 199.804 63.7203 200.067C63.9703 200.329 64.1057 200.681 64.0969 201.043Z" fill="#A2B2EA"/>
<path d="M63.1848 206.841C63.1781 207.112 63.0915 207.374 62.9358 207.595C62.7802 207.816 62.5625 207.986 62.3102 208.083C62.058 208.181 61.7825 208.201 61.5187 208.142C61.2549 208.082 61.0146 207.946 60.8281 207.751C60.6417 207.555 60.5175 207.308 60.4713 207.042C60.4251 206.775 60.4589 206.501 60.5684 206.254C60.678 206.007 60.8584 205.798 61.0868 205.653C61.3153 205.508 61.5814 205.435 61.8517 205.441C62.2142 205.45 62.5582 205.603 62.8082 205.865C63.0581 206.128 63.1936 206.479 63.1848 206.841Z" fill="#A2B2EA"/>
<path d="M57.2668 206.047C57.2602 206.317 57.1736 206.579 57.0179 206.801C56.8623 207.022 56.6445 207.192 56.3923 207.289C56.14 207.386 55.8646 207.407 55.6008 207.347C55.3369 207.288 55.0966 207.152 54.9102 206.956C54.7238 206.76 54.5996 206.514 54.5533 206.247C54.5071 205.981 54.5409 205.707 54.6505 205.46C54.7601 205.212 54.9404 205.003 55.1689 204.859C55.3973 204.714 55.6635 204.64 55.9338 204.647C56.2962 204.656 56.6402 204.808 56.8902 205.071C57.1402 205.333 57.2756 205.685 57.2668 206.047Z" fill="#A2B2EA"/>
<path d="M289.148 206.566C288.824 220.042 277.283 230.7 263.371 230.366C249.459 230.032 238.444 218.835 238.764 205.359C239.084 191.883 250.629 181.226 264.542 181.559C278.455 181.892 289.473 193.09 289.148 206.566Z" fill="#0C193A"/>
<path d="M281.284 206.897C281.244 210.505 280.132 214.02 278.09 216.995C276.047 219.97 273.165 222.27 269.812 223.603C266.459 224.937 262.785 225.242 259.257 224.482C255.729 223.722 252.507 221.93 250.001 219.333C247.494 216.737 245.816 213.454 245.18 209.902C244.544 206.35 244.979 202.689 246.429 199.384C247.879 196.08 250.279 193.281 253.324 191.344C256.369 189.407 259.921 188.419 263.528 188.506C268.322 188.59 272.885 190.575 276.215 194.024C279.545 197.473 281.368 202.103 281.284 206.897Z" fill="#D7E2FF"/>
<path d="M275.871 206.279C275.79 208.747 274.981 211.136 273.544 213.145C272.108 215.154 270.109 216.693 267.8 217.568C265.491 218.443 262.974 218.615 260.567 218.062C258.161 217.509 255.971 216.256 254.275 214.461C252.579 212.665 251.453 210.409 251.038 207.974C250.622 205.54 250.937 203.037 251.941 200.781C252.946 198.525 254.596 196.617 256.683 195.297C258.771 193.978 261.202 193.305 263.671 193.365C265.32 193.412 266.943 193.783 268.449 194.457C269.955 195.131 271.313 196.096 272.446 197.295C273.579 198.494 274.464 199.905 275.052 201.446C275.639 202.988 275.918 204.63 275.871 206.279Z" fill="#0C193A"/>
<path d="M278.778 209.229L279.185 204.449L269.358 204.158C269.302 203.979 269.236 203.807 269.158 203.635L276.723 197.744L273.653 194.059L266.512 200.704C266.35 200.611 266.183 200.527 266.012 200.452L267.329 190.724L262.546 190.347L262.096 200.012C261.852 200.06 261.611 200.124 261.375 200.204L255.193 192.556L251.637 195.775L258.183 202.556C257.889 202.977 257.65 203.434 257.472 203.916L247.784 203.291L247.741 208.091L257.433 207.866C257.486 208.018 257.539 208.166 257.605 208.312L250.083 214.838L253.424 218.281L260.245 211.219C260.511 211.367 260.788 211.495 261.072 211.603L259.246 221.238L263.986 221.979L265.078 211.818C265.263 211.768 265.442 211.709 265.62 211.643L265.511 211.729L271.352 219.793L275.143 216.856L268.61 209.328C268.87 208.949 269.085 208.541 269.252 208.114L278.778 209.229Z" fill="#D7E2FF"/>
<path d="M262.154 202.773C262.147 203.043 262.06 203.306 261.905 203.527C261.749 203.748 261.531 203.918 261.279 204.015C261.027 204.112 260.751 204.133 260.488 204.073C260.224 204.014 259.983 203.878 259.797 203.682C259.611 203.486 259.486 203.24 259.44 202.973C259.394 202.707 259.428 202.433 259.537 202.186C259.647 201.938 259.827 201.729 260.056 201.585C260.284 201.44 260.55 201.366 260.821 201.373C261.183 201.382 261.527 201.534 261.777 201.797C262.027 202.059 262.162 202.411 262.154 202.773Z" fill="#A2B2EA"/>
<path d="M268.01 203.567C268.003 203.837 267.916 204.099 267.761 204.32C267.605 204.54 267.388 204.71 267.136 204.807C266.883 204.904 266.608 204.924 266.345 204.865C266.081 204.806 265.841 204.67 265.655 204.474C265.469 204.279 265.345 204.032 265.298 203.766C265.252 203.5 265.286 203.226 265.395 202.979C265.505 202.732 265.685 202.523 265.913 202.379C266.141 202.234 266.407 202.16 266.677 202.167C267.039 202.176 267.383 202.328 267.633 202.591C267.883 202.853 268.019 203.205 268.01 203.567Z" fill="#A2B2EA"/>
<path d="M267.1 209.365C267.093 209.635 267.007 209.897 266.851 210.118C266.695 210.339 266.478 210.509 266.225 210.607C265.973 210.704 265.698 210.724 265.434 210.665C265.17 210.606 264.93 210.47 264.743 210.274C264.557 210.078 264.433 209.832 264.386 209.565C264.34 209.299 264.374 209.025 264.484 208.777C264.593 208.53 264.774 208.321 265.002 208.176C265.23 208.032 265.497 207.958 265.767 207.965C266.129 207.974 266.473 208.126 266.723 208.389C266.973 208.651 267.109 209.002 267.1 209.365Z" fill="#A2B2EA"/>
<path d="M261.179 208.571C261.172 208.841 261.085 209.103 260.93 209.324C260.774 209.544 260.556 209.714 260.304 209.811C260.052 209.908 259.777 209.928 259.514 209.869C259.25 209.81 259.01 209.674 258.824 209.478C258.638 209.283 258.514 209.036 258.467 208.77C258.421 208.504 258.455 208.23 258.564 207.983C258.674 207.736 258.854 207.527 259.082 207.383C259.31 207.238 259.576 207.164 259.846 207.171C260.208 207.18 260.552 207.332 260.802 207.595C261.052 207.857 261.188 208.208 261.179 208.571Z" fill="#A2B2EA"/>
<path d="M293.964 145.685C293.944 145.685 293.924 145.695 293.908 145.692C290.895 146.092 279.866 143.615 279.866 143.615C273.71 143.562 266.366 143.681 258.166 143.929C212.294 145.345 139.156 150.971 91.7121 154.894C64.2811 157.18 45.4361 158.883 45.4361 158.883C31.8911 169.008 3.09009 181.296 3.09009 181.296L2.99707 181.247C4.25407 170.447 9.57008 158.781 26.3171 157.074C26.3171 157.074 33.3171 155.493 42.2871 153.221C54.8001 150.052 71.1311 145.521 77.5121 142.077C97.4121 131.304 131.042 108.996 181.125 110.677C202.755 111.405 238.386 110.151 267.435 117.263C268.366 118.486 269.058 119.873 269.476 121.351L269.486 121.361C269.995 121.877 287.417 139.494 290.659 142.64C290.891 142.875 291.049 143.02 291.122 143.09C292.105 143.958 293.065 144.818 293.964 145.685Z" fill="#DB221E"/>
<path d="M176.42 158.191C176.37 160.222 172.08 161.77 166.834 161.644C161.588 161.518 157.377 159.769 157.427 157.738C157.477 155.707 161.767 154.159 167.013 154.285C172.259 154.411 176.467 156.16 176.42 158.191Z" fill="#F45E55"/>
<path d="M251.61 153.031C251.56 155.062 247.27 156.61 242.024 156.484C236.778 156.358 232.567 154.608 232.617 152.578C232.667 150.548 236.957 148.999 242.203 149.125C247.449 149.251 251.659 150.997 251.61 153.031Z" fill="#F45E55"/>
<path d="M280.357 162.71C280.328 163.916 279.943 165.085 279.249 166.071C278.556 167.057 277.586 167.815 276.461 168.25C275.337 168.684 274.109 168.776 272.932 168.513C271.756 168.249 270.684 167.643 269.852 166.77C269.021 165.898 268.466 164.798 268.259 163.611C268.053 162.423 268.202 161.201 268.69 160.099C269.178 158.996 269.982 158.063 271 157.418C272.018 156.772 273.204 156.443 274.409 156.471C276.025 156.511 277.559 157.191 278.674 158.36C279.789 159.53 280.395 161.095 280.357 162.71Z" fill="#F45E55"/>
<path d="M93.2698 138.814C93.2698 138.814 64.3898 154.433 76.5758 154.724L91.7158 154.899C91.7158 154.899 90.8818 145.883 93.2698 138.814Z" fill="#EF3E38"/>
<path d="M299.238 167.836C294.16 168.352 278.045 153.388 278.045 153.388C271.903 145.638 297.138 149.733 297.138 149.733L297.743 149.812C301.184 154.364 302.562 159.679 299.238 167.836Z" fill="white"/>
<path d="M120.473 126.47C127.793 123.731 158.843 112.759 179.533 115.551C179.691 115.574 179.843 115.628 179.979 115.712C180.116 115.796 180.233 115.908 180.324 116.039C180.415 116.17 180.479 116.319 180.51 116.476C180.541 116.633 180.539 116.795 180.505 116.951C179.505 121.612 175.861 138.405 173.727 145.56C173.539 146.188 173.166 146.744 172.656 147.155C172.145 147.566 171.522 147.812 170.869 147.86L117.969 151.915L114.684 143.603L118.349 128.668C118.518 128.167 118.796 127.71 119.163 127.33C119.53 126.95 119.978 126.656 120.473 126.47Z" fill="#D7E2FF"/>
<path d="M120.473 126.47C127.793 123.731 158.843 112.759 179.533 115.551C179.691 115.574 179.843 115.628 179.979 115.712C180.116 115.796 180.233 115.908 180.324 116.039C180.415 116.17 180.479 116.319 180.51 116.476C180.541 116.633 180.539 116.795 180.505 116.951C179.505 121.612 175.861 138.405 173.727 145.56C173.539 146.188 173.166 146.744 172.656 147.155C172.145 147.566 171.522 147.812 170.869 147.86L117.969 151.915L114.684 143.603L118.349 128.668C118.518 128.167 118.796 127.71 119.163 127.33C119.53 126.95 119.978 126.656 120.473 126.47Z" fill="#D7E2FF"/>
<path d="M120.473 126.47C127.793 123.731 158.843 112.759 179.533 115.551C179.691 115.574 179.843 115.628 179.979 115.712C180.116 115.796 180.233 115.908 180.324 116.039C180.415 116.17 180.479 116.319 180.51 116.476C180.541 116.633 180.539 116.795 180.505 116.951C179.505 121.612 175.861 138.405 173.727 145.56C173.539 146.188 173.166 146.744 172.656 147.155C172.145 147.566 171.522 147.812 170.869 147.86L117.969 151.915L114.684 143.603L118.349 128.668C118.518 128.167 118.796 127.71 119.163 127.33C119.53 126.95 119.978 126.656 120.473 126.47Z" fill="#D7E2FF"/>
<path d="M120.473 126.47C127.793 123.731 158.843 112.759 179.533 115.551C179.691 115.574 179.843 115.628 179.979 115.712C180.116 115.796 180.233 115.908 180.324 116.039C180.415 116.17 180.479 116.319 180.51 116.476C180.541 116.633 180.539 116.795 180.505 116.951C179.505 121.612 175.861 138.405 173.727 145.56C173.539 146.188 173.166 146.744 172.656 147.155C172.145 147.566 171.522 147.812 170.869 147.86L117.969 151.915L114.684 143.603L118.349 128.668C118.518 128.167 118.796 127.71 119.163 127.33C119.53 126.95 119.978 126.656 120.473 126.47Z" fill="#D7E2FF"/>
<path d="M30.0406 205.241C29.8886 206.892 29.8056 208.628 29.7826 210.451C29.7826 210.451 19.0255 213.203 14.4825 209.657C14.4825 209.657 3.29855 209.978 3.08255 209.383L2.55957 206.274C2.55957 206.274 25.7206 206.128 29.5406 205.269C29.7037 205.226 29.8737 205.217 30.0406 205.241Z" fill="#F45E55"/>
<path d="M13.5677 203.098C13.5677 203.098 6.19166 206.389 2.84766 205.91C3.81666 204.67 6.73765 200.634 4.13065 200.383C4.13065 200.383 6.91864 183.222 14.0736 181.969C14.0776 181.968 19.3537 202.761 13.5677 203.098Z" fill="#F45E55"/>
<path d="M13.5672 203.098C12.0882 198.55 14.0732 181.968 14.0732 181.968C14.0732 181.968 19.3532 202.761 13.5672 203.098Z" fill="#F45E55"/>
<path d="M236.747 185.018C233.575 184.942 231.835 178.25 231.835 178.25C232.318 171.611 225.669 172.971 223.112 172.339C181.864 162.164 109.162 174.208 93.732 174.8C92.462 174.85 81.721 179.229 81.732 179.461C74.653 171.39 63.523 169.31 56.57 169.928C26.793 172.578 30.336 200.34 30.336 200.34C30.336 200.34 30.429 200.4 30.607 200.519C35.876 168.701 64.207 174.55 64.207 174.55C71.0641 175.724 77.2658 179.337 81.6682 184.724C86.0707 190.11 88.3771 196.907 88.162 203.86C88.212 203.377 102.262 205.841 103.771 205.507L178.811 205.771L219.923 205.923C219.923 205.923 226.611 207.167 230.118 198.034C230.29 197.611 230.442 197.157 230.598 196.678C232.541 193.065 234.742 189.596 237.184 186.298C237.194 185.474 237.047 185.024 236.747 185.018Z" fill="#DB221E"/>
<path d="M104.347 201.715C104.347 201.715 163.586 188.173 210.682 195.48L104.347 201.715Z" fill="#F45E55"/>
<path d="M21.5137 172.762C21.5137 172.762 43.6357 184.262 77.0087 153.071L45.4357 158.889C45.4357 158.889 32.0917 167.553 21.5137 172.762Z" fill="#EF3E38"/>
<path d="M290.653 142.641C290.372 142.541 290.071 142.409 289.76 142.267C280.545 138.192 273.273 130.695 269.48 121.359C269.993 121.875 287.415 139.492 290.653 142.641Z" fill="#F45E55"/>
<path d="M240.928 113.063C240.928 113.063 245.211 109.444 246.055 113.9L240.928 113.063Z" fill="#111111"/>
<path d="M250.911 104.584L250.552 104.324L244.754 112.338L245.113 112.598L250.911 104.584Z" fill="#111111"/>
<path d="M306.276 193.654C305.776 198.781 304.424 207.5 300.95 208.417C300.95 208.417 293.782 210.144 292.376 209.323C292.376 209.323 292.399 185.018 272.358 179.223C260.486 175.803 237.586 176.173 234.996 211.583C234.996 211.583 100.31 211.358 91.2433 213.042C91.2433 213.042 87.6944 212.483 88.3024 206.956C88.3024 206.956 88.3224 205.378 88.1504 203.466C88.1504 203.466 209.158 188.842 230.126 198.031C230.126 198.031 241.247 168.976 270.557 175.068C278.331 176.649 285.247 181.045 289.977 187.413C289.977 187.413 300.218 196.213 305.977 193.737C306.07 193.689 306.172 193.66 306.276 193.654Z" fill="#FF725E"/>
<path d="M47.4365 155.786C47.4365 155.786 77.8185 149.012 85.8035 143.028C85.8035 143.028 66.5125 154.949 76.4885 154.043C132.045 148.999 258.41 143.514 258.43 143.809C258.89 150.415 44.9385 158.955 44.9385 158.955C44.9385 158.955 48.2375 157.928 47.4365 155.786Z" fill="#FF725E"/>
<path d="M267.434 117.265C267.434 117.265 259.277 118.747 257.226 120.378C256.962 120.588 256.652 120.732 256.322 120.798C255.992 120.864 255.65 120.85 255.326 120.758C243.959 117.647 232.352 115.492 220.626 114.318C220.626 114.318 246.291 114.063 267.434 117.265Z" fill="#F45E55"/>
<path d="M45.433 158.883L45.142 159.183C45.033 159.309 44.924 159.425 44.801 159.54C31.944 172.74 12.666 171.835 12.666 171.835C12.7004 169.73 13.1959 167.658 14.1177 165.766C15.0394 163.873 16.365 162.205 18.001 160.88C19.9023 159.305 22.081 158.099 24.425 157.324C24.918 157.139 25.437 156.977 25.97 156.824C25.97 156.824 33.327 155.501 42.294 153.219L42.406 153.265C42.406 153.265 51.86 155.565 45.433 158.883Z" fill="white"/>
<path d="M230.128 198.027C226.622 207.16 219.933 205.916 219.933 205.916L178.821 205.764L103.781 205.499C102.519 205.8 101.221 205.926 99.9244 205.873L95.7734 202.635C95.7734 202.635 203.064 188.762 229.467 197.829C229.688 197.908 229.92 197.968 230.128 198.027Z" fill="#F45E55"/>
<path d="M220.863 206.419C220.524 206.431 220.186 206.413 219.851 206.366L103.831 205.959C102.543 206.261 101.219 206.386 99.8977 206.329C99.025 206.331 98.1623 206.144 97.3684 205.781C96.5745 205.419 95.8682 204.889 95.2977 204.229C94.2071 202.689 93.734 200.795 93.9717 198.923C91.2827 192.823 89.7907 185.288 89.5327 176.516C89.3481 169.22 89.9229 161.925 91.2477 154.748L91.3107 154.454L91.6047 154.395C101.244 152.417 145.614 149.495 181.137 147.395C220.291 145.076 257.854 143.204 258.228 143.184L258.618 143.164L258.697 143.548C263.391 166.028 246.217 178.28 246.045 178.402L245.995 178.432C243.468 179.745 240.63 182.477 237.563 186.559C235.137 189.838 232.949 193.286 231.014 196.876C230.888 197.296 230.73 197.759 230.554 198.193C227.773 205.434 222.954 206.373 220.863 206.419ZM103.732 205.048H103.782L219.934 205.462C220.275 205.518 226.381 206.507 229.699 197.867C229.871 197.447 230.02 197.004 230.169 196.534C232.128 192.871 234.354 189.357 236.828 186.019C239.967 181.841 242.901 179.019 245.541 177.644C246.232 177.144 262.1 165.395 257.876 144.13C253.758 144.335 218.183 146.13 181.189 148.321C146.05 150.398 102.259 153.279 92.0887 155.244C90.8234 162.257 90.2736 169.379 90.4477 176.503C90.7027 185.209 92.1877 192.671 94.8607 198.682L94.9167 198.804L94.8967 198.936C94.6753 200.597 95.0733 202.28 96.0147 203.666C96.5081 204.223 97.1151 204.667 97.7947 204.969C98.4743 205.272 99.2109 205.425 99.9547 205.419C101.209 205.469 102.465 205.346 103.686 205.055L103.732 205.048Z" fill="#F45E55"/>
<path d="M178.197 205.343C173.917 195.496 180.211 150.07 180.483 148.143L181.389 148.269C181.323 148.739 174.859 195.369 179.037 204.981L178.197 205.343Z" fill="#F45E55"/>
<path d="M258.249 143.65C258.246 143.75 258.217 143.848 258.166 143.934C236.766 144.599 209.416 146.174 181.508 148.059C149.625 150.229 117.016 152.809 91.7085 154.899L91.6925 154.849C91.6925 154.849 90.7995 137.849 96.7995 134.893C96.7995 134.893 137.723 110.468 188.437 112.751C205.085 113.502 252.545 114.051 254.216 123.521C254.218 123.522 258.257 140.087 258.249 143.65Z" fill="#0C193A"/>
<path d="M194.645 117.926C193.471 124.776 189.925 145.605 189.991 146.995L240.405 144.723C240.405 144.723 250.153 131.697 247.821 122.849C247.536 121.767 214.313 115.767 197.275 115.727C196.648 115.724 196.039 115.943 195.558 116.345C195.076 116.748 194.753 117.308 194.645 117.926Z" fill="#D7E2FF"/>
<path d="M99.3225 137.217C102.478 134.517 110.166 131.263 114.148 129.717C114.288 129.662 114.44 129.645 114.589 129.668C114.738 129.691 114.878 129.753 114.995 129.848C115.112 129.943 115.202 130.067 115.255 130.208C115.309 130.349 115.324 130.502 115.299 130.65C114.717 134.186 113.052 143.864 112.132 144.49C112.132 144.49 102.087 147.417 98.1805 145.105C98.1845 145.109 97.0855 139.132 99.3225 137.217Z" fill="#D7E2FF"/>
<path d="M112.895 139.284C112.895 139.284 116.995 146.826 113.269 150.061C113.269 150.061 102.304 151.698 102.006 144.249C102.006 144.249 102.64 137.614 112.895 139.284Z" fill="#15244F"/>
<mask id="mask1_1769_11150" style="mask-type:luminance" maskUnits="userSpaceOnUse" x="189" y="115" width="60" height="32">
<path d="M194.645 117.926C193.471 124.776 189.925 145.605 189.991 146.995L240.405 144.723C240.405 144.723 250.153 131.697 247.821 122.849C247.536 121.767 214.313 115.767 197.275 115.727C196.648 115.724 196.039 115.943 195.558 116.345C195.076 116.748 194.753 117.308 194.645 117.926Z" fill="white"/>
</mask>
<g mask="url(#mask1_1769_11150)">
<g opacity="0.57">
<path d="M232.909 111.257L229.198 108.089L195.15 147.974L198.861 151.142L232.909 111.257Z" fill="white"/>
<path d="M247.33 118.002L239.053 110.937L205.005 150.821L213.282 157.887L247.33 118.002Z" fill="white"/>
</g>
</g>
<path d="M120.473 126.47C127.793 123.731 158.843 112.759 179.533 115.551C179.691 115.574 179.843 115.628 179.979 115.712C180.116 115.796 180.233 115.908 180.324 116.039C180.415 116.17 180.479 116.319 180.51 116.476C180.541 116.633 180.539 116.795 180.505 116.951C179.505 121.612 175.861 138.405 173.727 145.56C173.539 146.188 173.166 146.744 172.656 147.155C172.145 147.566 171.522 147.812 170.869 147.86L117.969 151.915L114.684 143.603L118.349 128.668C118.518 128.167 118.796 127.71 119.163 127.33C119.53 126.95 119.978 126.656 120.473 126.47Z" fill="#D7E2FF"/>
<mask id="mask2_1769_11150" style="mask-type:luminance" maskUnits="userSpaceOnUse" x="114" y="115" width="67" height="37">
<path d="M120.473 126.47C127.793 123.731 158.843 112.759 179.533 115.551C179.691 115.574 179.843 115.628 179.979 115.712C180.116 115.796 180.233 115.908 180.324 116.039C180.415 116.17 180.479 116.319 180.51 116.476C180.541 116.633 180.539 116.795 180.505 116.951C179.505 121.612 175.861 138.405 173.727 145.56C173.539 146.188 173.166 146.744 172.656 147.155C172.145 147.566 171.522 147.812 170.869 147.86L117.969 151.915L114.684 143.603L118.349 128.668C118.518 128.167 118.796 127.71 119.163 127.33C119.53 126.95 119.978 126.656 120.473 126.47Z" fill="white"/>
</mask>
<g mask="url(#mask2_1769_11150)">
<g opacity="0.56">
<path d="M163.672 110.028L160.191 107.363L121.459 157.944L124.939 160.609L163.672 110.028Z" fill="white"/>
<path d="M184.912 117.107L171.36 106.73L132.628 157.311L146.18 167.688L184.912 117.107Z" fill="white"/>
</g>
</g>
<path d="M119.662 221.875C119.014 223.844 118.749 225.919 118.881 227.988C120.489 228.518 122.163 228.821 123.856 228.888C126.195 228.888 130.928 229.907 131.47 228.888C132.012 227.869 124.577 224.571 123.856 224.211C123.135 223.851 122.897 222.567 122.897 222.567L119.662 221.875Z" fill="#1F282E"/>
<path d="M76.3071 217.658C75.0915 219.337 74.2089 221.234 73.707 223.245C75.0786 224.238 76.5817 225.035 78.173 225.613C80.399 226.324 84.6 228.736 85.424 227.928C86.248 227.12 80.171 221.72 79.592 221.157C79.013 220.594 79.178 219.298 79.178 219.298L76.3071 217.658Z" fill="#1F282E"/>
<path d="M105.276 144.242C105.276 144.242 107.598 170.215 108.435 176.804C109.272 183.393 112.15 201.156 113.109 205.942C114.068 210.728 117.263 222.57 117.263 222.57L125.896 223.354C125.896 223.354 123.739 197.14 123.541 190.584C123.343 184.028 123.18 158.135 122.701 152.7C122.222 147.265 120.801 129.043 120.801 129.043L106.554 123.929L90.5674 125.414C90.5674 125.414 84.9744 144.07 83.2144 156.219C81.4544 168.368 80.3364 179.396 80.3364 179.396C80.3364 179.396 75.2224 211.845 74.9014 217.918L81.9333 220.475C81.9333 220.475 91.8433 193.94 94.4003 184.03C96.9573 174.12 105.276 144.242 105.276 144.242Z" fill="#15244F"/>
<path d="M84.2227 150.464C86.5117 138.943 90.5707 125.411 90.5707 125.411L106.558 123.926L120.805 129.04C120.805 129.04 121.546 138.566 122.138 145.896C120.258 147.138 118.13 147.954 115.903 148.288C110.998 149.128 110.095 149.465 105.803 150.094C105.485 146.611 105.274 144.239 105.274 144.239C105.274 144.239 104.596 146.68 103.567 150.388C98.5727 150.865 89.0727 149.995 84.2227 150.464Z" fill="#0C193A"/>
<path d="M119.18 222.934L119.557 222.815C118.717 220.175 117.202 210.676 115.869 202.297C114.91 196.283 114.083 191.087 113.62 189.102C112.981 185.338 112.559 181.54 112.357 177.727C112.115 173.397 111.629 169.085 110.901 164.81C109.641 159.134 108.678 148.476 108.668 148.37L108.268 148.406C108.278 148.512 109.244 159.196 110.511 164.895C111.233 169.153 111.716 173.447 111.957 177.759C112.161 181.592 112.586 185.41 113.23 189.194C113.69 191.165 114.556 196.603 115.473 202.359C116.815 210.751 118.333 220.268 119.18 222.934Z" fill="#0C193A"/>
<path d="M76.7016 218.769C77.5286 211.029 80.4826 197.053 82.4406 187.808C83.5486 182.568 84.3496 178.781 84.4216 177.808C85.2816 166.469 88.6556 148.597 88.6886 148.419L88.2986 148.346C88.2656 148.525 84.8886 166.419 84.0256 177.778C83.9526 178.721 83.1126 182.693 82.0506 187.721C80.0926 196.976 77.1356 210.961 76.3086 218.721L76.7016 218.769Z" fill="#0C193A"/>
<path d="M173.817 100.176C175.131 100.325 176.458 100.316 177.77 100.15C179.139 99.7229 180.58 99.5766 182.007 99.7197C183.807 99.9197 187.161 100.911 186.883 101.271C186.605 101.631 184.483 101.43 184.483 101.43C184.363 101.715 184.171 101.965 183.925 102.153C183.68 102.342 183.39 102.464 183.083 102.508C182.083 102.587 181.502 103.586 180.354 103.547C179.398 103.378 178.498 102.98 177.728 102.389L172.614 103.15L173.817 100.176Z" fill="#5E4A3A"/>
<path d="M134.209 87.4082C136.388 88.3858 138.266 89.9289 139.647 91.8772L151.947 98.5982L174.566 99.5512C174.566 99.5512 174.804 100.398 174.007 104.851C174.007 104.851 162.555 108.489 155.652 109.451C148.749 110.413 144.118 110.179 139.599 108.581C135.08 106.983 130.367 104.847 130.367 104.847L127.129 103.785L134.209 87.4082Z" fill="#185F87"/>
<path d="M130.372 104.847L127.134 103.786L132.612 91.1011L133.836 90.707C134.122 92.9498 134.246 95.2104 134.206 97.4711C134.127 101.071 136.283 103.111 137.643 104.847C138.883 106.435 147.517 107.593 150.243 109.971C146.638 110.226 143.018 109.753 139.599 108.582C135.086 106.986 130.372 104.847 130.372 104.847Z" fill="#144E6E"/>
<path d="M127.134 65.862C127.734 67.9 127.534 70.2181 128.374 71.2171C129.214 72.2161 128.493 76.972 127.974 77.492C127.455 78.012 123.974 77.1711 123.974 77.1711L121.056 85.8441C121.056 85.8441 114.9 86.7641 112.383 81.4081L116.978 74.3761C117.51 73.0994 117.63 71.688 117.319 70.3401C116.81 68.0311 117.919 65.1831 119.297 64.5551C120.675 63.9271 127.134 65.862 127.134 65.862Z" fill="#5E4A3A"/>
<path d="M118.746 72.7349C119.22 73.4857 119.74 74.2061 120.304 74.8918C121.311 75.957 122.577 76.7424 123.979 77.1709L123.185 79.5329C122.614 79.5086 122.062 79.3173 121.598 78.9828C121.134 78.6484 120.779 78.1853 120.575 77.6509C119.93 75.9909 119.212 75.5739 118.941 74.5849C118.778 73.9826 118.712 73.358 118.746 72.7349Z" fill="#453629"/>
<path d="M122.06 84.4579C122.06 84.4579 116.066 86.6009 111.988 80.1279C111.988 80.1279 106.742 111.928 108.525 116.967C110.308 122.006 122.139 91.8239 122.06 84.4579Z" fill="#0C193A"/>
<path d="M114.038 78.8802C114.038 78.8802 113.426 79.4852 112.387 83.8802C111.348 88.2752 109.83 106.34 109.35 113.531C111.096 110.702 112.661 107.766 114.037 104.739C116.465 99.4632 121.059 85.8392 121.059 85.8392L122.266 82.2472C122.266 82.2472 126.212 83.7472 127.731 84.4532C129.25 85.1592 134.204 87.4042 134.204 87.4042C133.936 91.047 133.211 94.6417 132.048 98.1042C130.209 103.218 128.29 104.643 126.692 109.004C125.094 113.365 123.414 119.523 121.337 123.518C121.337 123.518 123.255 131.672 123.577 135.267C123.769 137.313 123.848 139.368 123.815 141.423C120.278 143.674 116.071 144.635 111.907 144.142C110.23 143.983 110.068 143.662 109.75 140.785C109.432 137.908 107.911 127.197 107.911 127.197C107.911 127.197 106.151 133.191 104.795 136.389C103.439 139.587 103.677 141.344 101.595 141.982C99.5131 142.62 87.5271 139.582 84.6491 134.549L90.0841 120.881L91.7611 114.246L92.5611 100.019C92.5611 100.019 87.3611 107.931 82.8891 111.209C78.4171 114.487 72.3401 112.568 70.9021 110.329C69.9539 108.739 69.2545 107.014 68.8281 105.212C68.8281 105.212 78.4971 95.4642 80.1741 93.2252C81.8511 90.9862 84.8541 86.7422 87.7651 83.5532C89.2213 81.7387 91.0924 80.3009 93.2207 79.3611C95.349 78.4213 97.6721 78.007 99.9941 78.1532C105.296 78.2592 114.038 78.8802 114.038 78.8802Z" fill="#185F87"/>
<path d="M108.436 112.765C108.461 112.765 108.487 112.762 108.512 112.755C108.58 112.735 108.638 112.688 108.672 112.626C108.706 112.563 108.714 112.489 108.694 112.421L104.629 98.813L108.608 95.585C108.647 95.553 108.676 95.5106 108.693 95.4628C108.709 95.4149 108.712 95.3634 108.701 95.314L106.301 85.02L112.179 79.738C112.231 79.69 112.263 79.6232 112.266 79.5521C112.27 79.481 112.246 79.4113 112.199 79.358C112.175 79.3315 112.147 79.3099 112.115 79.2946C112.083 79.2792 112.048 79.2703 112.013 79.2684C111.977 79.2666 111.942 79.2718 111.909 79.2837C111.875 79.2956 111.845 79.3141 111.819 79.338L105.825 84.726C105.789 84.7585 105.763 84.7997 105.748 84.8455C105.734 84.8913 105.731 84.94 105.742 84.987L108.142 95.271L104.156 98.509C104.114 98.5424 104.084 98.5873 104.068 98.6381C104.052 98.6888 104.052 98.743 104.067 98.794L108.185 112.574C108.199 112.629 108.232 112.678 108.277 112.712C108.323 112.747 108.378 112.765 108.436 112.765Z" fill="#15244F"/>
<path d="M91.7675 114.257L92.5675 100.03C92.5675 100.03 98.1575 93.749 99.1205 90.6C99.7804 88.3293 99.7804 85.9177 99.1205 83.647C100.32 84.447 100.797 87.964 101.029 90.2C101.261 92.436 100.159 92.439 100.639 95.4C101.16 98.3609 101.16 101.39 100.639 104.351C100.08 107.951 101.277 115.941 99.6805 117.724C98.0835 119.507 89.8965 121.379 89.8965 121.379L90.0885 120.896L91.7675 114.257Z" fill="#144E6E"/>
<path d="M70.905 110.342C69.9569 108.752 69.2575 107.026 68.8311 105.225C68.8311 105.225 69.747 104.299 71.064 102.956C71.978 102.291 72.9902 101.773 74.064 101.421C77.911 100.164 78.6951 101.656 82.3831 100.009C85.4891 98.62 90.0311 100.955 91.3901 101.729C89.6041 104.236 86.0711 108.894 82.8901 111.222C78.4211 114.495 72.348 112.577 70.905 110.342Z" fill="#144E6E"/>
<path d="M81.9476 114.023L97.7373 119.714L105.353 98.5845L89.5634 92.8933L81.9476 114.023Z" fill="#F8F8F8"/>
<path d="M102.865 105.505L86.0053 102.779L81.9463 114.039L89.0713 116.609L100.221 112.832L102.865 105.505Z" fill="#DBDBDB"/>
<path d="M107.913 127.472C107.928 127.474 107.942 127.474 107.956 127.472C108.027 127.461 108.09 127.422 108.132 127.364C108.174 127.307 108.192 127.235 108.181 127.164C107.899 125.434 107.779 123.681 107.824 121.928C107.999 120.039 109.6 113.668 109.617 113.606C109.626 113.572 109.628 113.535 109.622 113.5C109.617 113.465 109.605 113.431 109.586 113.4C109.567 113.37 109.543 113.343 109.514 113.322C109.485 113.301 109.452 113.286 109.417 113.278C109.383 113.269 109.347 113.267 109.311 113.272C109.276 113.278 109.242 113.29 109.211 113.309C109.181 113.327 109.154 113.352 109.134 113.381C109.113 113.41 109.098 113.443 109.09 113.478C109.024 113.742 107.466 119.955 107.284 121.878C107.232 123.676 107.354 125.475 107.648 127.25C107.658 127.313 107.69 127.37 107.739 127.411C107.788 127.452 107.85 127.474 107.913 127.472Z" fill="#15244F"/>
<path d="M120.801 122.877C120.867 122.877 120.931 122.852 120.98 122.808C121.006 122.784 121.027 122.756 121.043 122.724C121.058 122.692 121.067 122.657 121.069 122.622C121.071 122.587 121.065 122.551 121.054 122.518C121.042 122.485 121.023 122.454 120.999 122.428L118.423 119.55C118.375 119.497 118.308 119.465 118.236 119.461C118.165 119.458 118.095 119.483 118.042 119.53C117.989 119.578 117.957 119.645 117.953 119.717C117.95 119.788 117.975 119.858 118.023 119.911L120.6 122.789C120.625 122.816 120.656 122.839 120.691 122.854C120.725 122.869 120.763 122.877 120.801 122.877Z" fill="#15244F"/>
<path d="M120.443 123.655C120.505 123.655 120.565 123.633 120.613 123.594C120.661 123.555 120.694 123.501 120.706 123.44C120.719 123.379 120.71 123.316 120.681 123.261C120.653 123.207 120.606 123.163 120.549 123.139C120.549 123.139 120.129 122.957 118.687 122.358C117.274 121.769 116.702 121.369 116.421 120.767C116.388 120.707 116.334 120.662 116.269 120.641C116.204 120.62 116.134 120.624 116.072 120.653C116.01 120.682 115.961 120.734 115.936 120.797C115.911 120.861 115.911 120.931 115.935 120.995C116.279 121.726 116.944 122.212 118.482 122.854C119.918 123.454 120.338 123.631 120.338 123.631C120.371 123.647 120.407 123.655 120.443 123.655Z" fill="#15244F"/>
<path d="M121.809 135.344C122.146 135.344 122.49 135.331 122.848 135.301C122.919 135.295 122.985 135.262 123.032 135.208C123.078 135.154 123.101 135.084 123.096 135.013C123.094 134.977 123.085 134.943 123.069 134.911C123.053 134.88 123.031 134.851 123.004 134.828C122.978 134.805 122.946 134.788 122.913 134.777C122.879 134.766 122.844 134.762 122.808 134.765C121.695 134.93 120.56 134.854 119.479 134.542C118.398 134.229 117.397 133.689 116.543 132.956C115.006 131.314 114.125 129.164 114.069 126.916C116.427 126.486 121.277 127.223 121.326 127.233C121.361 127.239 121.397 127.238 121.432 127.23C121.466 127.221 121.499 127.206 121.528 127.185C121.557 127.164 121.581 127.138 121.599 127.107C121.617 127.077 121.629 127.043 121.634 127.008C121.64 126.973 121.638 126.937 121.63 126.903C121.622 126.868 121.607 126.836 121.586 126.807C121.565 126.778 121.539 126.754 121.508 126.736C121.478 126.717 121.444 126.705 121.409 126.7C121.194 126.667 116.097 125.886 113.735 126.435C113.677 126.448 113.625 126.481 113.587 126.528C113.549 126.575 113.528 126.633 113.527 126.693C113.53 129.166 114.475 131.545 116.17 133.345C117.717 134.722 119.741 135.44 121.809 135.344Z" fill="#15244F"/>
<path d="M91.9705 132.486C92.6406 132.485 93.3094 132.43 93.9705 132.321C98.3205 131.596 99.0645 126.344 99.0705 126.291C99.0803 126.223 99.0637 126.155 99.0243 126.099C98.9848 126.043 98.9255 126.004 98.8585 125.991C96.1795 125.422 90.1955 122.677 90.1355 122.65C90.0705 122.62 89.9964 122.617 89.9293 122.642C89.8623 122.667 89.8078 122.718 89.778 122.783C89.7482 122.848 89.7453 122.922 89.7702 122.989C89.795 123.056 89.8455 123.11 89.9105 123.14C92.6919 124.441 95.5589 125.551 98.4915 126.461C98.2915 127.461 97.3235 131.218 93.8775 131.79C91.5181 132.213 89.0849 131.836 86.9645 130.718C86.9345 130.699 86.9011 130.687 86.8662 130.681C86.8313 130.675 86.7957 130.676 86.7612 130.684C86.7268 130.692 86.6942 130.707 86.6655 130.727C86.6367 130.748 86.6122 130.774 86.5935 130.804C86.5748 130.834 86.5622 130.867 86.5564 130.902C86.5506 130.937 86.5517 130.973 86.5597 131.007C86.5677 131.042 86.5823 131.074 86.6029 131.103C86.6235 131.132 86.6495 131.156 86.6795 131.175C88.3021 132.057 90.1238 132.509 91.9705 132.486Z" fill="#15244F"/>
<path d="M91.0491 107.261C91.0491 107.261 95.9251 107.34 96.7651 107.261C97.6051 107.182 99.2031 105.461 100.321 105.501C101.439 105.541 99.1211 106.381 99.2431 107.101C99.3651 107.821 101.601 107.66 102.319 107.62C103.037 107.58 103.119 108.5 102.319 108.738C102.408 108.912 102.433 109.111 102.39 109.301C102.346 109.491 102.237 109.66 102.081 109.777C102.071 110.001 102.008 110.219 101.897 110.413C101.786 110.608 101.631 110.773 101.443 110.895C101.443 110.895 101.767 111.454 101.066 111.613C100.365 111.772 98.5661 110.535 96.8091 110.455C95.0521 110.375 90.4551 111.629 90.4551 111.629L91.0491 107.261Z" fill="#5E4A3A"/>
<path d="M110.469 113.487C110.532 113.487 110.593 113.465 110.641 113.424L121.477 104.473C121.512 104.445 121.54 104.409 121.558 104.368C121.575 104.327 121.582 104.282 121.577 104.238L120.859 97.245L126.403 92.075C126.441 92.04 126.468 91.995 126.481 91.9452C126.494 91.8954 126.492 91.8429 126.476 91.794L123.376 82.494C123.351 82.4299 123.302 82.3781 123.239 82.3491C123.177 82.3202 123.106 82.3163 123.04 82.3384C122.975 82.3604 122.921 82.4067 122.888 82.4677C122.856 82.5287 122.849 82.5997 122.867 82.666L125.917 91.805L120.4 96.949C120.37 96.9772 120.346 97.0123 120.332 97.0514C120.317 97.0906 120.312 97.1326 120.317 97.174L121.035 104.157L110.304 113.01C110.277 113.033 110.254 113.06 110.238 113.092C110.221 113.123 110.211 113.157 110.207 113.193C110.204 113.228 110.208 113.263 110.218 113.297C110.229 113.331 110.246 113.363 110.268 113.39C110.292 113.42 110.323 113.445 110.358 113.461C110.393 113.478 110.431 113.487 110.469 113.487Z" fill="#15244F"/>
<path d="M120.801 68.971C121.053 69.9171 121.381 70.8416 121.78 71.736L120.34 72.136C120.34 72.136 120.14 70.459 119.02 70.536C117.9 70.613 118.303 71.856 118.7 72.494C119.097 73.132 116.979 74.373 116.979 74.373C116.949 73.1632 116.648 71.9756 116.099 70.897C115.259 69.538 114.899 65.823 117.379 64.182C119.859 62.541 125.732 61.824 127.132 65.859C127.132 65.859 124.3 66.289 122.293 66.63C122.034 66.6733 121.788 66.7704 121.57 66.9149C121.352 67.0593 121.167 67.248 121.026 67.4687C120.885 67.6894 120.792 67.9371 120.754 68.1959C120.715 68.4547 120.731 68.7188 120.801 68.971Z" fill="#F59D00"/>
<path d="M92.2472 105.72C92.2472 105.72 84.6562 104.585 79.6182 103.547C74.5802 102.509 70.1882 103.501 68.3482 105.72C66.5082 107.939 67.8682 116.493 75.1822 115.954C81.1047 115.546 86.9928 114.739 92.8062 113.536L92.2472 105.72Z" fill="#185F87"/>
<path d="M98.3602 82.8392C98.4039 82.8388 98.4468 82.8279 98.4853 82.8073C98.5239 82.7868 98.5569 82.7572 98.5815 82.7212C98.6062 82.6851 98.6218 82.6437 98.6269 82.6003C98.6321 82.5569 98.6267 82.513 98.6112 82.4722C98.5712 82.3722 97.6023 80.0152 93.6863 79.4882C93.6512 79.483 93.6155 79.485 93.5812 79.4939C93.547 79.5029 93.5149 79.5186 93.4869 79.5403C93.4588 79.562 93.4355 79.589 93.4182 79.62C93.4009 79.6509 93.39 79.685 93.3862 79.7202C93.3814 79.7551 93.3837 79.7907 93.3929 79.8248C93.402 79.8589 93.4178 79.8909 93.4394 79.9188C93.461 79.9467 93.4879 79.97 93.5186 79.9874C93.5493 80.0049 93.5832 80.016 93.6183 80.0202C97.2043 80.5002 98.0803 82.5802 98.1183 82.6662C98.1354 82.7167 98.168 82.7606 98.2114 82.7916C98.2548 82.8227 98.3068 82.8393 98.3602 82.8392Z" fill="#15244F"/>
<path d="M80.7361 104.039C80.7999 104.038 80.8614 104.015 80.9097 103.973C80.958 103.932 80.99 103.874 81 103.811C81.0099 103.748 80.9972 103.684 80.9641 103.629C80.931 103.574 80.8796 103.533 80.8191 103.513C80.6141 103.443 75.7251 101.869 71.3361 103.513C71.2727 103.541 71.2224 103.592 71.1957 103.656C71.169 103.72 71.1678 103.792 71.1924 103.857C71.217 103.922 71.2655 103.975 71.3279 104.005C71.3904 104.035 71.462 104.04 71.5281 104.019C75.7391 102.438 80.605 104.006 80.654 104.019C80.6799 104.031 80.7077 104.038 80.7361 104.039Z" fill="#15244F"/>
<path d="M146.316 215.64C146.316 215.64 144.159 223.952 144.358 224.951C144.557 225.95 147.636 227.751 147.636 227.751C147.636 227.751 150.954 228.67 150.836 229.229C150.718 229.788 143.002 229.308 141.603 229.229C140.204 229.15 138.646 229.467 138.285 228.749C137.924 228.031 139.886 224.634 140.006 223.834C140.126 223.034 140.644 215.882 140.644 215.882L146.316 215.64Z" fill="#F86C6C"/>
<path d="M168.196 215.64C168.196 215.64 167.19 223.952 167.396 224.951C167.602 225.95 170.674 227.751 170.674 227.751C170.674 227.751 173.992 228.67 173.874 229.229C173.756 229.788 166.041 229.308 164.642 229.229C163.243 229.15 161.685 229.467 161.324 228.749C160.963 228.031 162.924 224.634 163.044 223.834C163.164 223.034 162.531 215.882 162.531 215.882L168.196 215.64Z" fill="#F86C6C"/>
<path d="M138.284 228.748C138.059 228.298 138.737 226.806 139.309 225.548C141.515 226.639 143.92 226.828 144.539 226.548C144.675 226.476 144.785 226.363 144.855 226.226C144.925 226.089 144.951 225.934 144.929 225.781C145.764 226.525 146.67 227.183 147.635 227.746C147.635 227.746 150.953 228.666 150.835 229.225C150.717 229.784 143.002 229.304 141.603 229.225C140.204 229.146 138.645 229.463 138.284 228.748Z" fill="#0C193A"/>
<path d="M161.317 228.748C161.092 228.298 161.77 226.806 162.343 225.548C164.549 226.639 166.954 226.828 167.573 226.548C167.708 226.476 167.818 226.363 167.888 226.226C167.958 226.089 167.984 225.934 167.963 225.781C168.797 226.525 169.703 227.183 170.669 227.746C170.669 227.746 173.987 228.666 173.869 229.225C173.751 229.784 166.036 229.304 164.637 229.225C163.238 229.146 161.677 229.463 161.317 228.748Z" fill="#0C193A"/>
<path d="M164.019 124.247C164.734 124.84 165.307 125.586 165.695 126.43C166.082 127.274 166.275 128.195 166.258 129.123C166.258 129.123 171.534 154.223 172.013 170.764C172.492 187.305 168.656 217.52 168.656 217.52C167.02 217.983 165.319 218.172 163.622 218.079C160.822 217.92 158.422 219.644 157.387 218.102C156.352 216.56 155.869 193.062 156.027 189.467C156.185 185.872 155.997 179.874 155.997 179.874C153.704 192.278 150.752 204.551 147.155 216.64C145.279 217.135 143.331 217.297 141.399 217.12C138.362 216.799 138.199 217.52 137.162 217.12C136.125 216.72 137.241 211.92 137.162 206.33C137.083 200.74 139.882 178.676 141.079 175.076C142.276 171.476 141.717 155.653 141.879 152.376C142.041 149.099 140.202 130.076 144.598 123.923L164.019 124.247Z" fill="#15244F"/>
<path d="M151.071 144.907C151.094 144.908 151.116 144.903 151.137 144.894C151.186 144.876 151.226 144.839 151.249 144.791C151.271 144.743 151.274 144.689 151.256 144.639C147.961 135.539 150.363 129.023 150.389 128.96C150.398 128.935 150.403 128.909 150.402 128.883C150.401 128.857 150.395 128.831 150.384 128.807C150.374 128.783 150.358 128.761 150.339 128.743C150.32 128.725 150.297 128.711 150.273 128.702C150.224 128.684 150.169 128.686 150.122 128.708C150.074 128.73 150.037 128.769 150.018 128.818C149.992 128.884 147.54 135.539 150.885 144.775C150.899 144.813 150.924 144.847 150.957 144.87C150.99 144.894 151.03 144.907 151.071 144.907Z" fill="#15244F"/>
<path d="M142.134 131.95C142.557 128.65 143.308 125.735 144.598 123.929L164.021 124.25C164.846 124.946 165.486 125.836 165.883 126.84C164.577 127.426 163.172 127.761 161.742 127.826C159.463 127.826 155.15 127.707 152.93 128.484C150.972 129.169 146.13 132.089 142.134 131.95Z" fill="#0C193A"/>
<path d="M151.791 147.665C152.684 149.172 153.205 150.871 153.309 152.62C153.468 155.461 155.065 175.507 155.972 180.02C155.724 181.376 153.518 193.281 150.207 205.943C150.417 200.011 150.127 194.073 149.34 188.19C148.073 180.638 147.967 178.118 149.34 172.723C150.713 167.328 152.512 149.945 151.791 147.665Z" fill="#0C193A"/>
<path d="M137.954 213.56C138.708 213.531 139.458 213.451 140.2 213.322C141.294 213.133 142.401 213.033 143.511 213.022C145.17 213.055 146.823 212.83 148.411 212.354C148.461 212.337 148.503 212.301 148.526 212.254C148.55 212.207 148.554 212.152 148.537 212.102C148.521 212.052 148.485 212.011 148.438 211.988C148.391 211.964 148.336 211.96 148.286 211.976C146.738 212.426 145.132 212.646 143.519 212.628C142.387 212.634 141.258 212.735 140.142 212.928C138.769 213.128 137.476 213.315 136.96 212.951C136.939 212.936 136.916 212.925 136.89 212.918C136.865 212.912 136.839 212.911 136.813 212.916C136.788 212.92 136.763 212.929 136.741 212.943C136.719 212.957 136.7 212.976 136.685 212.997C136.655 213.04 136.643 213.093 136.651 213.146C136.66 213.198 136.689 213.244 136.731 213.275C137.103 213.487 137.528 213.586 137.954 213.56Z" fill="#3D2A2A"/>
<path d="M157.35 215.104C158.041 215.074 158.728 214.995 159.407 214.869C160.794 214.573 162.218 214.496 163.628 214.641C165.502 214.824 167.393 214.601 169.172 213.986C169.221 213.969 169.262 213.933 169.284 213.886C169.307 213.839 169.311 213.785 169.294 213.735C169.286 213.711 169.272 213.688 169.255 213.668C169.237 213.648 169.216 213.632 169.192 213.621C169.169 213.609 169.143 213.603 169.117 213.601C169.09 213.6 169.064 213.604 169.039 213.612C167.323 214.199 165.503 214.417 163.697 214.251C162.244 214.098 160.776 214.175 159.347 214.479C158.538 214.666 157.705 214.73 156.876 214.667C156.85 214.658 156.821 214.654 156.793 214.656C156.765 214.658 156.738 214.666 156.713 214.68C156.688 214.693 156.666 214.712 156.649 214.735C156.632 214.757 156.62 214.783 156.613 214.811C156.607 214.838 156.607 214.867 156.612 214.895C156.618 214.922 156.629 214.949 156.646 214.972C156.662 214.995 156.683 215.014 156.708 215.028C156.732 215.042 156.759 215.051 156.787 215.054C156.973 215.09 157.161 215.106 157.35 215.104Z" fill="#3D2A2A"/>
<path d="M141.781 96.1143C138.725 97.3143 138.245 104.747 137.646 108.224C137.047 111.701 135.023 118.094 137.325 120.774C140.044 123.93 146.875 119.557 146.875 119.557L141.781 96.1143Z" fill="#F86C6C"/>
<path d="M139.647 121.875C140.752 121.46 141.646 120.624 142.134 119.55C143.034 117.985 143.88 113.536 143.88 113.536L145.62 113.774L146.878 119.553C146.878 119.553 142.76 122.176 139.647 121.875Z" fill="#D85745"/>
<path d="M158.624 79.538C158.624 79.538 158.594 82.838 159.762 83.163C159.762 83.163 159.223 87.5089 158.743 87.6879C158.132 87.8212 157.509 87.8909 156.884 87.896L155.384 94.908L149.089 94.7589C149.089 94.7589 152.506 88.0739 151.878 86.5759C151.25 85.0779 150.155 80.82 151.478 78.961C152.801 77.102 158.624 79.538 158.624 79.538Z" fill="#F86C6C"/>
<path d="M151.948 87.097C151.959 86.9222 151.935 86.7468 151.879 86.5811C151.605 85.8912 151.386 85.181 151.224 84.457C151.899 84.8237 152.553 85.2267 153.185 85.6641C154.902 86.8421 157.277 87.8841 157.892 87.8411C157.386 87.8911 156.883 87.9011 156.883 87.9011L156.364 90.332C156.218 90.342 156.064 90.352 155.884 90.358C154.896 90.394 153.166 88.559 151.948 87.097Z" fill="#ED3232"/>
<path d="M159.464 95.3793C157.32 94.6566 155.071 94.2966 152.809 94.3143C148.674 94.2553 143.216 94.2553 141.781 96.1143C140.76 97.7735 140.086 99.6218 139.798 101.548C139.51 103.475 139.614 105.439 140.104 107.324C141.424 111.34 144.304 121.832 144.304 121.832L143.044 124.65C150.17 125.274 157.326 125.502 164.478 125.331C164.632 125.324 164.783 125.283 164.919 125.21C165.055 125.137 165.173 125.034 165.263 124.909C165.354 124.784 165.416 124.64 165.444 124.488C165.471 124.337 165.465 124.18 165.424 124.031L164.324 119.913C164.324 119.913 163.368 96.6603 159.464 95.3793Z" fill="#FF725E"/>
<path d="M158.906 116.973C157.229 113.057 155.228 110.673 155.306 106.183C155.435 98.9832 157.546 97.1402 157.546 97.1402C158.575 96.4092 160.067 97.3252 161.631 98.9292C163.741 105.756 164.32 119.913 164.32 119.913L165.42 124.031C165.46 124.18 165.466 124.336 165.438 124.488C165.41 124.64 165.349 124.783 165.258 124.908C165.167 125.032 165.05 125.135 164.914 125.208C164.778 125.282 164.628 125.324 164.474 125.331C162.142 125.424 159.721 125.431 157.374 125.394C160.007 123.436 160.278 120.178 158.906 116.973Z" fill="#D85745"/>
<path d="M160.004 77.6501C160.133 79.6881 156.704 81.3052 156.704 81.3052C156.607 82.6817 156.241 84.0257 155.626 85.2612C154.726 86.7002 155.507 95.7502 153.347 96.7092C151.187 97.6682 147.112 96.7092 144.777 96.7092C142.442 96.7092 142.977 94.0092 143.1 92.8722C143.223 91.7352 146.322 83.6172 146.755 81.4242C147.155 79.4062 148.432 76.4891 150.909 76.2901C150.914 76.2911 159.706 72.9731 160.004 77.6501Z" fill="#0C193A"/>
<path d="M159.103 95.393C155.649 95.807 156.103 102.528 157.545 106.663C158.987 110.798 164.862 125.726 170.287 125.963C175.712 126.2 185.42 112.557 185.42 112.557H181.464L171.898 117.992C171.898 117.992 166.956 107.682 165.458 103.484C163.96 99.2861 162.1 95.032 159.103 95.393Z" fill="#F86C6C"/>
<path d="M173.208 120.81C173.286 120.345 173.257 119.868 173.123 119.415C172.99 118.963 172.755 118.546 172.437 118.197L172.149 118.471C172.42 118.776 172.62 119.137 172.735 119.528C172.851 119.919 172.879 120.33 172.817 120.733L173.208 120.81Z" fill="#A63B3B"/>
<path d="M175.682 115.842L181.461 112.557H185.417C185.417 112.557 184.749 113.493 183.674 114.866C180.991 115.017 178.322 115.343 175.682 115.842Z" fill="#ED3232"/>
</g>
<defs>
<clipPath id="clip0_1769_11150">
<rect width="309" height="216" fill="white" transform="translate(0 15)"/>
</clipPath>
</defs>
</svg>
