<svg width="220" height="200" viewBox="0 0 220 200" fill="none" xmlns="http://www.w3.org/2000/svg">
<path d="M200.148 144.028C176.007 166.069 175.164 211.851 125.42 197.143C107.36 191.803 99.7834 177.724 79.044 178.633C42.3388 180.237 26.8644 169.89 21.1413 151.077C19.4215 145.43 24.1203 124.286 17.8002 114.284C4.1049 92.6197 7.93019 73.0609 23.1673 55.1997C31.1787 45.8115 44.3933 43.5903 54.0129 39.4656C65.2799 34.635 71.9643 27.7009 79.8036 20.8668C114.715 -9.55671 151.522 -1.832 173.982 13.2997C192.933 26.068 197.867 47.9668 197.912 62.9138C198.007 93.3926 237.468 109.955 200.148 144.028ZM203.005 164.791C203.57 163.712 203.8 162.491 203.665 161.282C203.531 160.073 203.037 158.931 202.248 158C201.458 157.069 200.408 156.391 199.23 156.052C198.052 155.713 196.798 155.727 195.629 156.094C194.459 156.461 193.425 157.163 192.658 158.112C191.89 159.061 191.424 160.214 191.318 161.426C191.212 162.638 191.471 163.853 192.062 164.919C192.653 165.985 193.55 166.853 194.638 167.414C195.361 167.786 196.151 168.014 196.963 168.084C197.775 168.154 198.593 168.064 199.37 167.821C200.147 167.577 200.867 167.184 201.491 166.665C202.115 166.145 202.629 165.508 203.005 164.791ZM39.2814 15.0339C39.5406 15.8777 40.0463 16.6264 40.7346 17.1853C41.423 17.7443 42.2631 18.0883 43.1487 18.174C44.0344 18.2597 44.9257 18.0832 45.7102 17.6668C46.4946 17.2503 47.1368 16.6127 47.5557 15.8345C47.9745 15.0563 48.1512 14.1724 48.0633 13.2947C47.9754 12.417 47.627 11.5848 47.062 10.9033C46.497 10.2219 45.7408 9.72181 44.8892 9.46633C44.0375 9.21084 43.1285 9.21142 42.2771 9.46799C41.7117 9.63839 41.1856 9.91754 40.729 10.2895C40.2724 10.6615 39.8943 11.1189 39.6161 11.6358C39.3379 12.1527 39.1651 12.7188 39.1077 13.3018C39.0503 13.8849 39.1093 14.4734 39.2814 15.0339ZM207.105 61.7703C206.267 62.8978 205.785 64.2463 205.72 65.6454C205.655 67.0444 206.01 68.4311 206.74 69.6302C207.47 70.8292 208.543 71.7868 209.822 72.3816C211.101 72.9765 212.529 73.1821 213.926 72.9723C215.323 72.7625 216.626 72.1468 217.67 71.2031C218.714 70.2593 219.452 69.0299 219.791 67.6703C220.13 66.3107 220.055 64.882 219.575 63.5648C219.095 62.2476 218.231 61.1011 217.094 60.2703C216.339 59.718 215.481 59.3185 214.57 59.0948C213.659 58.871 212.713 58.8274 211.785 58.9664C210.857 59.1054 209.966 59.4242 209.162 59.9047C208.359 60.3852 207.658 61.0179 207.102 61.7668L207.105 61.7703ZM51.27 19.308C50.6932 20.8991 50.6053 22.624 51.0173 24.2646C51.4294 25.9053 52.323 27.388 53.5851 28.5253C54.8472 29.6626 56.4211 30.4034 58.1079 30.6541C59.7948 30.9048 61.5187 30.6541 63.0618 29.9337C64.6049 29.2134 65.8979 28.0556 66.7772 26.6069C67.6566 25.1582 68.0829 23.4836 68.0022 21.7948C67.9215 20.1059 67.3375 18.4788 66.3239 17.1189C65.3104 15.7591 63.9128 14.7276 62.3079 14.155C61.2419 13.7748 60.1106 13.6065 58.9789 13.6597C57.8472 13.7129 56.7372 13.9866 55.7122 14.4651C54.6871 14.9436 53.7673 15.6176 53.0051 16.4485C52.2429 17.2795 51.6533 18.2511 51.27 19.308ZM205.357 49.1679C204.917 49.7586 204.664 50.4652 204.63 51.1984C204.596 51.9316 204.781 52.6584 205.164 53.2869C205.546 53.9154 206.108 54.4174 206.778 54.7294C207.449 55.0413 208.197 55.1492 208.929 55.0394C209.662 54.9296 210.344 54.6071 210.892 54.1126C211.439 53.6181 211.826 52.9738 212.003 52.2613C212.181 51.5488 212.142 50.8 211.89 50.1097C211.639 49.4194 211.186 48.8186 210.59 48.3832C209.791 47.7997 208.791 47.5546 207.81 47.7018C206.828 47.8489 205.946 48.3763 205.357 49.1679ZM5.6514 146.186C5.43314 146.787 5.39977 147.44 5.55552 148.06C5.71127 148.681 6.04914 149.241 6.52641 149.671C7.00367 150.102 7.5989 150.382 8.23682 150.477C8.87474 150.571 9.5267 150.477 10.1103 150.204C10.6938 149.932 11.1828 149.494 11.5153 148.946C11.8478 148.398 12.009 147.765 11.9784 147.126C11.9478 146.487 11.7268 145.872 11.3434 145.358C10.96 144.844 10.4314 144.454 9.82444 144.237C9.42138 144.094 8.99372 144.03 8.56586 144.05C8.138 144.07 7.71834 144.174 7.33083 144.355C6.94332 144.536 6.59556 144.79 6.3074 145.105C6.01924 145.419 5.79633 145.786 5.6514 146.186ZM15.5974 134.5C16.352 133.062 16.6597 131.435 16.4815 129.824C16.3033 128.214 15.6472 126.691 14.5962 125.45C13.5452 124.209 12.1465 123.305 10.577 122.852C9.00749 122.398 7.33764 122.417 5.77863 122.904C4.21961 123.392 2.84146 124.327 1.81845 125.591C0.795433 126.854 0.173513 128.391 0.0313278 130.005C-0.110857 131.619 0.233082 133.239 1.01965 134.66C1.80622 136.08 3.00009 137.238 4.45028 137.986C6.39484 138.988 8.66167 139.185 10.7521 138.531C12.8426 137.877 14.5855 136.427 15.5974 134.5Z" fill="url(#paint0_linear_1292_5437)"/>
<g filter="url(#filter0_d_1292_5437)">
<path d="M102.854 71.93C97.7367 71.9164 91.9732 72.3279 85.2655 73.3605C84.4738 73.4712 76.846 77.821 74.7895 80.8232C72.7331 83.8256 72.0296 89.5405 72.0296 89.5405C71.4744 91.8808 71.8117 95.7491 71.9665 96.1252C72.1755 96.9396 73.3563 97.623 75.3844 98.1172C75.6209 94.3567 78.7381 91.4265 82.5074 91.4219C86.4538 91.4219 89.6529 94.6203 89.6529 98.5653C89.6504 98.8803 89.627 99.1948 89.5828 99.5068C89.6882 99.5082 89.8079 99.511 89.908 99.5121L132.65 99.8675C132.569 99.4381 132.527 99.0022 132.526 98.5653C132.526 94.6203 135.725 91.4219 139.671 91.4219C143.618 91.4219 146.817 94.6203 146.817 98.5653C146.817 99.0417 146.769 99.5171 146.675 99.9839L157.784 100.076C158.019 96.0024 159.009 91.7238 156.529 88.1611C155.554 86.761 150.825 84.2254 138.838 82.3285C132.645 79.2193 126.601 75.694 120.019 73.6739C114.944 72.6676 109.433 71.9473 102.854 71.93ZM99.7816 74.0702C100.853 74.078 101.836 74.122 102.642 74.2148L103.944 82.8498C96.5431 81.9402 89.0016 81.1241 85.0149 77.9387C85.0774 76.9565 86.4369 75.5346 87.9635 74.991C88.8281 74.6831 95.1388 74.0362 99.7818 74.0702H99.7816ZM105.967 74.1323C110.435 74.1795 117.048 74.6127 121.598 76.6218C123.778 77.6308 127.881 79.9924 130.626 82.0776L129.491 83.959C122.041 83.6232 112.112 83.2084 108.037 82.7482L105.967 74.1323ZM82.5074 94.2792C81.3703 94.2792 80.2798 94.7308 79.4758 95.5346C78.6718 96.3383 78.2201 97.4285 78.2201 98.5653C78.2201 99.702 78.6718 100.792 79.4758 101.596C80.2798 102.4 81.3703 102.851 82.5074 102.851C83.6444 102.851 84.7349 102.4 85.539 101.596C86.343 100.792 86.7947 99.702 86.7947 98.5653C86.7947 97.4285 86.343 96.3383 85.539 95.5346C84.7349 94.7308 83.6444 94.2792 82.5074 94.2792ZM139.671 94.2792C138.534 94.2792 137.444 94.7308 136.64 95.5346C135.836 96.3383 135.384 97.4285 135.384 98.5653C135.384 99.702 135.836 100.792 136.64 101.596C137.444 102.4 138.534 102.851 139.671 102.851C140.808 102.851 141.899 102.4 142.703 101.596C143.507 100.792 143.959 99.702 143.959 98.5653C143.959 97.4285 143.507 96.3383 142.703 95.5346C141.899 94.7308 140.808 94.2792 139.671 94.2792Z" fill="white"/>
</g>
<path fill-rule="evenodd" clip-rule="evenodd" d="M184.492 85.9784C184.492 83.9773 182.876 82.3574 180.879 82.3574H159.582C157.585 82.3574 155.969 83.9773 155.969 85.9784V100.176C155.969 102.177 157.585 103.797 159.582 103.797H180.879C182.876 103.797 184.492 102.177 184.492 100.176V85.9784Z" fill="#52DA2F"/>
<g filter="url(#filter1_d_1292_5437)">
<path fill-rule="evenodd" clip-rule="evenodd" d="M184.492 85.9784C184.492 83.9773 182.876 82.3574 180.879 82.3574H159.582C157.585 82.3574 155.969 83.9773 155.969 85.9784V100.176C155.969 102.177 157.585 103.797 159.582 103.797H180.879C182.876 103.797 184.492 102.177 184.492 100.176V85.9784ZM171.419 88.3129V87.1218C171.419 86.4667 170.884 85.9307 170.23 85.9307C169.577 85.9307 169.042 86.4667 169.042 87.1218V88.3725C168.32 88.5194 167.678 88.93 167.241 89.5246C166.804 90.1191 166.603 90.8552 166.677 91.5899C166.751 92.3246 167.095 93.0056 167.642 93.5005C168.188 93.9955 168.899 94.2691 169.636 94.2684H170.825C170.979 94.2684 171.134 94.328 171.241 94.4471C171.348 94.5543 171.419 94.7091 171.419 94.8639C171.419 95.0188 171.359 95.1736 171.241 95.2808C171.13 95.392 170.981 95.456 170.825 95.4595H167.853C167.2 95.4595 166.665 95.9955 166.665 96.6506C166.665 97.3057 167.2 97.8417 167.853 97.8417H169.042V99.0328C169.042 99.6879 169.577 100.224 170.23 100.224C170.884 100.224 171.419 99.6879 171.419 99.0328V97.7821C172.091 97.6474 172.696 97.2826 173.129 96.7503C173.563 96.2179 173.799 95.5511 173.796 94.8639C173.796 94.0659 173.487 93.3155 172.928 92.7557C172.37 92.1959 171.621 91.8862 170.825 91.8862H169.636C169.558 91.8872 169.481 91.8718 169.409 91.841C169.338 91.8102 169.273 91.7648 169.22 91.7075C169.113 91.6003 169.042 91.4455 169.042 91.2907C169.042 91.1358 169.101 90.981 169.22 90.8738C169.339 90.7666 169.482 90.6951 169.636 90.6951H172.607C173.261 90.6951 173.796 90.1591 173.796 89.504C173.796 88.8489 173.261 88.3129 172.607 88.3129H171.419Z" fill="white"/>
</g>
<g filter="url(#filter2_d_1292_5437)">
<path fill-rule="evenodd" clip-rule="evenodd" d="M173.786 110.94H176.674C178.243 110.94 179.693 111.726 180.561 113.024L180.87 113.489C181.297 114.132 182.01 114.513 182.783 114.513H184.482C184.482 113.858 185.017 113.322 185.671 113.322H190.425C191.078 113.322 191.613 113.858 191.613 114.513V128.806C191.613 129.462 191.078 129.998 190.425 129.998H185.671C185.029 129.998 184.506 129.485 184.482 128.842C183.496 129.45 182.236 129.998 180.917 129.998H169.603C167.321 129.998 165.372 128.366 164.956 126.115C164.528 123.744 163.922 120.433 163.53 118.241C163.363 117.324 163.613 116.371 164.207 115.657C164.801 114.942 165.693 114.525 166.632 114.525H166.655V106.188H173.786V110.952V110.94Z" fill="#FFDBB8"/>
</g>
<path fill-rule="evenodd" clip-rule="evenodd" d="M130.493 108.689C130.493 106.688 129.306 105.068 127.84 105.068H112.197C110.73 105.068 109.543 106.688 109.543 108.689V122.887C109.543 124.888 110.73 126.508 112.197 126.508H127.84C129.306 126.508 130.493 124.888 130.493 122.887V108.689Z" fill="#52DA2F"/>
<g filter="url(#filter3_d_1292_5437)">
<path fill-rule="evenodd" clip-rule="evenodd" d="M130.493 108.689C130.493 106.688 129.306 105.068 127.84 105.068H112.197C110.73 105.068 109.543 106.688 109.543 108.689V122.887C109.543 124.888 110.73 126.508 112.197 126.508H127.84C129.306 126.508 130.493 124.888 130.493 122.887V108.689ZM120.891 111.024V109.833C120.891 109.178 120.498 108.642 120.018 108.642C119.538 108.642 119.145 109.178 119.145 109.833V111.083C118.615 111.23 118.143 111.641 117.822 112.235C117.501 112.83 117.354 113.566 117.408 114.301C117.463 115.035 117.715 115.716 118.117 116.211C118.518 116.706 119.04 116.98 119.582 116.979H120.455C120.568 116.979 120.682 117.039 120.76 117.158C120.839 117.265 120.891 117.42 120.891 117.575C120.891 117.729 120.847 117.884 120.76 117.992C120.679 118.103 120.57 118.167 120.455 118.17H118.272C117.792 118.17 117.399 118.706 117.399 119.361C117.399 120.016 117.792 120.552 118.272 120.552H119.145V121.743C119.145 122.399 119.538 122.934 120.018 122.934C120.498 122.934 120.891 122.399 120.891 121.743V120.493C121.385 120.358 121.829 119.993 122.148 119.461C122.466 118.929 122.639 118.262 122.637 117.575C122.637 116.777 122.41 116.026 122 115.466C121.589 114.907 121.039 114.597 120.455 114.597H119.582C119.524 114.598 119.468 114.583 119.415 114.552C119.362 114.521 119.315 114.476 119.276 114.418C119.198 114.311 119.145 114.156 119.145 114.001C119.145 113.847 119.189 113.692 119.276 113.585C119.363 113.477 119.468 113.406 119.582 113.406H121.764C122.244 113.406 122.637 112.87 122.637 112.215C122.637 111.56 122.244 111.024 121.764 111.024H120.891Z" fill="white"/>
</g>
<g filter="url(#filter4_d_1292_5437)">
<path fill-rule="evenodd" clip-rule="evenodd" d="M122.644 133.651H124.765C125.918 133.651 126.983 134.437 127.62 135.735L127.847 136.2C128.161 136.843 128.685 137.224 129.252 137.224H130.501C130.501 136.569 130.893 136.033 131.374 136.033H134.865C135.345 136.033 135.738 136.569 135.738 137.224V151.517C135.738 152.172 135.345 152.708 134.865 152.708H131.374C130.902 152.708 130.518 152.196 130.501 151.553C129.776 152.16 128.851 152.708 127.882 152.708H119.571C117.895 152.708 116.464 151.076 116.158 148.825C115.844 146.455 115.399 143.144 115.111 140.952C114.989 140.035 115.172 139.082 115.608 138.368C116.045 137.653 116.7 137.236 117.389 137.236H117.407V128.898H122.644V133.663V133.651Z" fill="#FFDBB8"/>
</g>
<path fill-rule="evenodd" clip-rule="evenodd" d="M88.8483 86.4442C88.8483 83.2747 86.2826 80.709 83.1131 80.709H49.3055C46.1361 80.709 43.5703 83.2747 43.5703 86.4442V108.932C43.5703 112.102 46.1361 114.667 49.3055 114.667H83.1131C86.2826 114.667 88.8483 112.102 88.8483 108.932V86.4442Z" fill="#52DA2F"/>
<g filter="url(#filter5_d_1292_5437)">
<path fill-rule="evenodd" clip-rule="evenodd" d="M60.5488 125.986H55.9644C53.4741 125.986 51.1724 127.232 49.7952 129.288L49.3047 130.024C48.6255 131.043 47.4936 131.646 46.2673 131.646H43.5695C43.5695 130.609 42.7205 129.76 41.6829 129.76H34.1366C33.099 129.76 32.25 130.609 32.25 131.646V154.285C32.25 155.323 33.099 156.172 34.1366 156.172H41.6829C42.7017 156.172 43.5318 155.361 43.5695 154.342C45.1354 155.304 47.1351 156.172 49.2293 156.172H67.1895C70.8118 156.172 73.9058 153.587 74.5661 150.022C75.2452 146.267 76.2074 141.023 76.83 137.551C77.0941 136.099 76.6979 134.589 75.7546 133.457C74.8113 132.325 73.3964 131.665 71.906 131.665H71.8683V118.459H60.5488V126.005V125.986Z" fill="#FFDBB8"/>
</g>
<g filter="url(#filter6_d_1292_5437)">
<path fill-rule="evenodd" clip-rule="evenodd" d="M88.8483 86.4442C88.8483 83.2747 86.2826 80.709 83.1131 80.709H49.3055C46.1361 80.709 43.5703 83.2747 43.5703 86.4442V108.932C43.5703 112.102 46.1361 114.667 49.3055 114.667H83.1131C86.2826 114.667 88.8483 112.102 88.8483 108.932V86.4442ZM68.0959 90.1419V88.2553C68.0959 87.2177 67.2469 86.3687 66.2093 86.3687C65.1717 86.3687 64.3227 87.2177 64.3227 88.2553V90.2362C63.1765 90.469 62.1576 91.1193 61.4639 92.0611C60.7702 93.0028 60.4512 94.1686 60.5687 95.3324C60.6863 96.4961 61.232 97.5746 62.1 98.3586C62.968 99.1425 64.0964 99.576 65.266 99.5748H67.1526C67.3979 99.5748 67.6431 99.6692 67.8129 99.8578C67.9827 100.028 68.0959 100.273 68.0959 100.518C68.0959 100.763 68.0016 101.009 67.8129 101.178C67.6376 101.354 67.401 101.456 67.1526 101.461H62.4361C61.3985 101.461 60.5496 102.31 60.5496 103.348C60.5496 104.386 61.3985 105.235 62.4361 105.235H64.3227V107.121C64.3227 108.159 65.1717 109.008 66.2093 109.008C67.2469 109.008 68.0959 108.159 68.0959 107.121V105.14C69.1632 104.927 70.1231 104.349 70.8114 103.506C71.4997 102.663 71.8736 101.607 71.8691 100.518C71.8691 99.2541 71.3786 98.0656 70.4919 97.1789C69.6052 96.2922 68.4166 95.8017 67.1526 95.8017H65.266C65.1423 95.8032 65.0196 95.7788 64.9059 95.73C64.7922 95.6813 64.6899 95.6093 64.6057 95.5187C64.4359 95.3489 64.3227 95.1036 64.3227 94.8584C64.3227 94.6131 64.4171 94.3679 64.6057 94.1981C64.7944 94.0283 65.0208 93.9151 65.266 93.9151H69.9825C71.0201 93.9151 71.8691 93.0661 71.8691 92.0285C71.8691 90.9909 71.0201 90.1419 69.9825 90.1419H68.0959Z" fill="white"/>
</g>
<defs>
<filter id="filter0_d_1292_5437" x="67.7227" y="71.9297" width="94.4541" height="38.9214" filterUnits="userSpaceOnUse" color-interpolation-filters="sRGB">
<feFlood flood-opacity="0" result="BackgroundImageFix"/>
<feColorMatrix in="SourceAlpha" type="matrix" values="0 0 0 0 0 0 0 0 0 0 0 0 0 0 0 0 0 0 127 0" result="hardAlpha"/>
<feOffset dy="4"/>
<feGaussianBlur stdDeviation="2"/>
<feComposite in2="hardAlpha" operator="out"/>
<feColorMatrix type="matrix" values="0 0 0 0 0 0 0 0 0 0 0 0 0 0 0 0 0 0 0.25 0"/>
<feBlend mode="normal" in2="BackgroundImageFix" result="effect1_dropShadow_1292_5437"/>
<feBlend mode="normal" in="SourceGraphic" in2="effect1_dropShadow_1292_5437" result="shape"/>
</filter>
<filter id="filter1_d_1292_5437" x="151.969" y="82.3574" width="36.5234" height="29.4399" filterUnits="userSpaceOnUse" color-interpolation-filters="sRGB">
<feFlood flood-opacity="0" result="BackgroundImageFix"/>
<feColorMatrix in="SourceAlpha" type="matrix" values="0 0 0 0 0 0 0 0 0 0 0 0 0 0 0 0 0 0 127 0" result="hardAlpha"/>
<feOffset dy="4"/>
<feGaussianBlur stdDeviation="2"/>
<feComposite in2="hardAlpha" operator="out"/>
<feColorMatrix type="matrix" values="0 0 0 0 0 0 0 0 0 0 0 0 0 0 0 0 0 0 0.25 0"/>
<feBlend mode="normal" in2="BackgroundImageFix" result="effect1_dropShadow_1292_5437"/>
<feBlend mode="normal" in="SourceGraphic" in2="effect1_dropShadow_1292_5437" result="shape"/>
</filter>
<filter id="filter2_d_1292_5437" x="159.479" y="106.188" width="36.1338" height="31.8101" filterUnits="userSpaceOnUse" color-interpolation-filters="sRGB">
<feFlood flood-opacity="0" result="BackgroundImageFix"/>
<feColorMatrix in="SourceAlpha" type="matrix" values="0 0 0 0 0 0 0 0 0 0 0 0 0 0 0 0 0 0 127 0" result="hardAlpha"/>
<feOffset dy="4"/>
<feGaussianBlur stdDeviation="2"/>
<feComposite in2="hardAlpha" operator="out"/>
<feColorMatrix type="matrix" values="0 0 0 0 0 0 0 0 0 0 0 0 0 0 0 0 0 0 0.25 0"/>
<feBlend mode="normal" in2="BackgroundImageFix" result="effect1_dropShadow_1292_5437"/>
<feBlend mode="normal" in="SourceGraphic" in2="effect1_dropShadow_1292_5437" result="shape"/>
</filter>
<filter id="filter3_d_1292_5437" x="105.543" y="105.068" width="28.9502" height="29.4395" filterUnits="userSpaceOnUse" color-interpolation-filters="sRGB">
<feFlood flood-opacity="0" result="BackgroundImageFix"/>
<feColorMatrix in="SourceAlpha" type="matrix" values="0 0 0 0 0 0 0 0 0 0 0 0 0 0 0 0 0 0 127 0" result="hardAlpha"/>
<feOffset dy="4"/>
<feGaussianBlur stdDeviation="2"/>
<feComposite in2="hardAlpha" operator="out"/>
<feColorMatrix type="matrix" values="0 0 0 0 0 0 0 0 0 0 0 0 0 0 0 0 0 0 0.25 0"/>
<feBlend mode="normal" in2="BackgroundImageFix" result="effect1_dropShadow_1292_5437"/>
<feBlend mode="normal" in="SourceGraphic" in2="effect1_dropShadow_1292_5437" result="shape"/>
</filter>
<filter id="filter4_d_1292_5437" x="111.073" y="128.898" width="28.665" height="31.8101" filterUnits="userSpaceOnUse" color-interpolation-filters="sRGB">
<feFlood flood-opacity="0" result="BackgroundImageFix"/>
<feColorMatrix in="SourceAlpha" type="matrix" values="0 0 0 0 0 0 0 0 0 0 0 0 0 0 0 0 0 0 127 0" result="hardAlpha"/>
<feOffset dy="4"/>
<feGaussianBlur stdDeviation="2"/>
<feComposite in2="hardAlpha" operator="out"/>
<feColorMatrix type="matrix" values="0 0 0 0 0 0 0 0 0 0 0 0 0 0 0 0 0 0 0.25 0"/>
<feBlend mode="normal" in2="BackgroundImageFix" result="effect1_dropShadow_1292_5437"/>
<feBlend mode="normal" in="SourceGraphic" in2="effect1_dropShadow_1292_5437" result="shape"/>
</filter>
<filter id="filter5_d_1292_5437" x="28.25" y="118.459" width="52.6602" height="45.7129" filterUnits="userSpaceOnUse" color-interpolation-filters="sRGB">
<feFlood flood-opacity="0" result="BackgroundImageFix"/>
<feColorMatrix in="SourceAlpha" type="matrix" values="0 0 0 0 0 0 0 0 0 0 0 0 0 0 0 0 0 0 127 0" result="hardAlpha"/>
<feOffset dy="4"/>
<feGaussianBlur stdDeviation="2"/>
<feComposite in2="hardAlpha" operator="out"/>
<feColorMatrix type="matrix" values="0 0 0 0 0 0 0 0 0 0 0 0 0 0 0 0 0 0 0.25 0"/>
<feBlend mode="normal" in2="BackgroundImageFix" result="effect1_dropShadow_1292_5437"/>
<feBlend mode="normal" in="SourceGraphic" in2="effect1_dropShadow_1292_5437" result="shape"/>
</filter>
<filter id="filter6_d_1292_5437" x="39.5703" y="80.709" width="53.2783" height="41.9585" filterUnits="userSpaceOnUse" color-interpolation-filters="sRGB">
<feFlood flood-opacity="0" result="BackgroundImageFix"/>
<feColorMatrix in="SourceAlpha" type="matrix" values="0 0 0 0 0 0 0 0 0 0 0 0 0 0 0 0 0 0 127 0" result="hardAlpha"/>
<feOffset dy="4"/>
<feGaussianBlur stdDeviation="2"/>
<feComposite in2="hardAlpha" operator="out"/>
<feColorMatrix type="matrix" values="0 0 0 0 0 0 0 0 0 0 0 0 0 0 0 0 0 0 0.25 0"/>
<feBlend mode="normal" in2="BackgroundImageFix" result="effect1_dropShadow_1292_5437"/>
<feBlend mode="normal" in="SourceGraphic" in2="effect1_dropShadow_1292_5437" result="shape"/>
</filter>
<linearGradient id="paint0_linear_1292_5437" x1="81.6889" y1="197.262" x2="134.232" y2="-0.178876" gradientUnits="userSpaceOnUse">
<stop stop-color="#7DDCFF"/>
<stop offset="1" stop-color="#C7F1FF"/>
</linearGradient>
</defs>
</svg>
