<svg width="52" height="52" viewBox="0 0 52 52" fill="none" xmlns="http://www.w3.org/2000/svg">
<g filter="url(#filter0_d_1834_9079)">
<path d="M26 43C37.0457 43 46 34.0457 46 23C46 11.9543 37.0457 3 26 3C14.9543 3 6 11.9543 6 23C6 34.0457 14.9543 43 26 43Z" fill="white"/>
</g>
<path d="M25.0183 33.0407C24.3907 32.9499 23.7978 32.6965 23.2985 32.3056C23.1002 32.1756 22.9343 32.002 22.8133 31.7981C22.6923 31.5941 22.6195 31.3653 22.6005 31.1289C22.6005 30.6229 23.064 30.3925 23.4933 30.2923C24.8448 30.1867 26.2025 30.1867 27.5541 30.2923C27.9833 30.3911 28.4469 30.6229 28.4469 31.1289C28.428 31.3653 28.3554 31.5943 28.2347 31.7985C28.114 32.0026 27.9483 32.1765 27.7502 32.307C27.2509 32.6971 26.6587 32.9504 26.0318 33.0421C25.8617 33.064 25.6904 33.075 25.5189 33.075C25.3514 33.0749 25.1842 33.0635 25.0183 33.0407ZM20.7847 28.8057C19.6732 28.7059 18.637 28.2013 17.8732 27.3877C17.3059 26.7222 16.9981 25.8743 17.0064 25C16.9548 24.1627 17.2163 23.3361 17.7401 22.6809C18.1054 22.3035 18.3887 21.8547 18.5723 21.3627C18.7559 20.8706 18.8359 20.3459 18.8071 19.8215V19.3936C18.7384 17.9872 19.1977 16.6059 20.0949 15.5207C20.7582 14.7345 21.5846 14.1019 22.5166 13.6667C23.4487 13.2314 24.4642 13.004 25.4928 13H25.5833C26.6362 13.0027 27.6752 13.2407 28.6243 13.6965C29.5734 14.1523 30.4087 14.8145 31.069 15.6345C31.9146 16.699 32.3415 18.0361 32.269 19.3936V19.8215C32.2455 20.3452 32.3277 20.8684 32.5108 21.3597C32.6939 21.8509 32.9741 22.3003 33.3346 22.6809C33.8588 23.3359 34.1204 24.1627 34.0684 25C34.0767 25.8743 33.7689 26.7222 33.2016 27.3877C32.4379 28.2007 31.4024 28.7052 30.2914 28.8057C28.7143 28.9429 27.1372 29.0526 25.5367 29.0526C23.9493 29.0605 22.3627 28.9781 20.7847 28.8057Z" fill="#1985D2"/>
<defs>
<filter id="filter0_d_1834_9079" x="0" y="0" width="52" height="52" filterUnits="userSpaceOnUse" color-interpolation-filters="sRGB">
<feFlood flood-opacity="0" result="BackgroundImageFix"/>
<feColorMatrix in="SourceAlpha" type="matrix" values="0 0 0 0 0 0 0 0 0 0 0 0 0 0 0 0 0 0 127 0" result="hardAlpha"/>
<feOffset dy="3"/>
<feGaussianBlur stdDeviation="3"/>
<feColorMatrix type="matrix" values="0 0 0 0 0 0 0 0 0 0 0 0 0 0 0 0 0 0 0.129 0"/>
<feBlend mode="normal" in2="BackgroundImageFix" result="effect1_dropShadow_1834_9079"/>
<feBlend mode="normal" in="SourceGraphic" in2="effect1_dropShadow_1834_9079" result="shape"/>
</filter>
</defs>
</svg>
