<svg width="220" height="200" viewBox="0 0 220 200" fill="none" xmlns="http://www.w3.org/2000/svg">
<path d="M200.154 144.03C176.011 166.071 175.169 211.855 125.424 197.141C107.363 191.801 99.7888 177.722 79.0464 178.631C42.3403 180.24 26.8653 169.888 21.1371 151.075C19.4164 145.426 24.1155 124.283 17.7955 114.281C4.10512 92.6145 7.93099 73.0587 23.1672 55.1963C31.1788 45.8128 44.395 43.5917 54.014 39.4672C65.2809 34.636 71.9664 27.6982 79.8053 20.867C114.719 -9.55673 151.526 -1.8322 173.987 13.3002C192.939 26.0681 197.871 47.9673 197.917 62.9142C198.013 93.3945 237.475 109.957 200.154 144.03ZM203.011 164.794C203.578 163.715 203.809 162.494 203.675 161.285C203.542 160.076 203.05 158.933 202.261 158.001C201.472 157.069 200.422 156.39 199.244 156.05C198.066 155.709 196.812 155.723 195.642 156.089C194.471 156.455 193.437 157.156 192.668 158.105C191.9 159.054 191.433 160.207 191.327 161.419C191.22 162.631 191.478 163.847 192.069 164.913C192.659 165.98 193.555 166.848 194.644 167.41C195.367 167.783 196.156 168.011 196.968 168.081C197.78 168.152 198.597 168.063 199.374 167.82C200.151 167.577 200.872 167.185 201.496 166.666C202.12 166.147 202.635 165.511 203.011 164.794ZM39.2822 15.0347C39.5414 15.8785 40.0471 16.6273 40.7355 17.1863C41.4239 17.7453 42.2641 18.0894 43.1498 18.175C44.0354 18.2607 44.9269 18.0842 45.7113 17.6677C46.4958 17.2512 47.1381 16.6135 47.5569 15.8353C47.9757 15.057 48.1524 14.1731 48.0644 13.2953C47.9765 12.4175 47.6279 11.5853 47.0628 10.9039C46.4977 10.2225 45.7415 9.72249 44.8897 9.46708C44.0379 9.21168 43.1289 9.21237 42.2775 9.46906C41.7121 9.63951 41.1861 9.9187 40.7296 10.2907C40.2731 10.6626 39.895 11.1201 39.6168 11.6369C39.3387 12.1537 39.166 12.7198 39.1086 13.3028C39.0512 13.8858 39.1102 14.4743 39.2822 15.0347ZM207.107 61.7708C206.268 62.8981 205.785 64.2467 205.72 65.646C205.654 67.0453 206.009 68.4324 206.739 69.6319C207.469 70.8314 208.541 71.7893 209.821 72.3845C211.1 72.9798 212.529 73.1855 213.926 72.9757C215.323 72.766 216.626 72.1501 217.67 71.2061C218.714 70.2621 219.453 69.0323 219.792 67.6724C220.13 66.3125 220.055 64.8834 219.574 63.5661C219.094 62.2488 218.23 61.1024 217.092 60.2719C215.567 59.1591 213.658 58.692 211.786 58.973C209.914 59.2541 208.231 60.2604 207.107 61.7708ZM51.271 19.3081C50.6923 20.9005 50.6031 22.6273 51.0148 24.27C51.4264 25.9127 52.3203 27.3974 53.5835 28.5364C54.8466 29.6753 56.4222 30.4173 58.1109 30.6685C59.7996 30.9197 61.5255 30.6687 63.0702 29.9474C64.615 29.226 65.9092 28.0667 66.7891 26.6161C67.6689 25.1655 68.095 23.4888 68.0133 21.7982C67.9316 20.1075 67.3458 18.4789 66.33 17.1183C65.3143 15.7577 63.9142 14.7263 62.307 14.1547C60.154 13.3889 57.7824 13.5015 55.7132 14.4678C53.6439 15.434 52.0462 17.1749 51.271 19.3081ZM205.363 49.1684C204.924 49.759 204.671 50.4655 204.636 51.1985C204.602 51.9315 204.788 52.6581 205.17 53.2864C205.553 53.9147 206.115 54.4165 206.785 54.7284C207.455 55.0403 208.203 55.1482 208.935 55.0384C209.667 54.9287 210.35 54.6063 210.897 54.112C211.444 53.6177 211.831 52.9737 212.009 52.2615C212.187 51.5492 212.147 50.8006 211.896 50.1104C211.645 49.4202 211.192 48.8194 210.597 48.384C210.201 48.0948 209.752 47.8858 209.275 47.7687C208.798 47.6517 208.302 47.6289 207.816 47.7018C207.33 47.7746 206.863 47.9416 206.442 48.1933C206.021 48.4449 205.655 48.7763 205.363 49.1684ZM5.65094 146.187C5.4327 146.789 5.39939 147.442 5.55522 148.062C5.71105 148.683 6.04903 149.244 6.52642 149.674C7.0038 150.104 7.59915 150.384 8.23719 150.479C8.87522 150.574 9.52728 150.479 10.1109 150.206C10.6945 149.934 11.1835 149.496 11.516 148.948C11.8486 148.4 12.0097 147.766 11.979 147.127C11.9483 146.489 11.7272 145.873 11.3437 145.359C10.9602 144.845 10.4314 144.455 9.82431 144.238C9.01014 143.949 8.11318 143.991 7.3306 144.357C6.54801 144.722 5.94386 145.381 5.65094 146.187ZM15.5984 134.502C16.3532 133.064 16.661 131.437 16.4828 129.826C16.3047 128.215 15.6486 126.693 14.5976 125.452C13.5466 124.21 12.1478 123.306 10.5782 122.853C9.00857 122.399 7.33858 122.418 5.77941 122.905C4.22025 123.393 2.84195 124.327 1.8188 125.591C0.795651 126.855 0.173617 128.392 0.0313578 130.006C-0.110901 131.62 0.233004 133.24 1.01958 134.661C1.80617 136.082 3.00009 137.239 4.45038 137.987C6.39503 138.99 8.66201 139.187 10.7527 138.533C12.8433 137.879 14.5864 136.429 15.5984 134.502Z" fill="url(#paint0_linear_1292_5399)"/>
<path d="M80.6761 76.7927C77.0094 75.8682 73.8082 75.0293 71.626 74.3371C67.0515 72.8926 64.3703 71.9093 61.2859 70.6793C55.3202 68.2992 52.9602 70.247 51.5624 73.0337C51.402 73.353 51.2754 73.6882 51.1846 74.0338C51.1535 74.166 51.128 74.3027 51.1091 74.4404C50.3835 77.8449 53.0147 82.0961 59.5914 85.4083C62.6381 86.9395 66.8515 88.7606 70.5849 90.2517C72.8782 91.1684 76.6627 92.1651 80.6761 93.1495V76.7927Z" fill="#FCD2B1"/>
<path d="M79.619 92.8457C74.6189 95.4168 69.97 97.8458 67.0455 99.2213C62.941 101.158 60.5821 101.805 57.6509 102.936C52.5842 104.89 51.9842 108.536 53.3064 111.988C54.6287 115.44 58.751 117.672 65.4388 115.737C68.5355 114.838 72.6278 113.392 76.1745 112.024C77.1378 111.653 78.3123 111.105 79.619 110.446V92.8457Z" fill="#FFDBB8"/>
<path d="M74.7812 110.656C72.8123 111.677 71.0812 112.555 69.7367 113.191C65.76 115.067 63.3511 116.08 60.5144 117.177C55.0243 119.296 54.6699 122.476 55.6599 125.155C57.0421 128.892 62.0133 130.745 68.4945 128.871C70.3589 128.33 72.559 127.561 74.7834 126.739L74.7812 110.656Z" fill="#FFDBB8"/>
<path d="M75.9692 82.7656C72.8347 83.7445 70.0747 84.5934 68.0635 85.1501C63.4779 86.4179 62.5446 86.5523 59.3134 87.1968C53.07 88.4435 52.2278 92.3413 52.98 96.1458C53.7322 99.9503 56.1945 102.731 63.4535 101.924C66.1679 101.62 69.6191 101.061 72.9091 100.448L75.9692 82.7656Z" fill="#FFDBB8"/>
<path d="M94.7539 142.826C97.8817 148.774 104.075 158.382 113.504 163.716C119.768 167.271 125.854 167.845 125.854 167.845L120.41 142.824L94.7539 142.826Z" fill="#FCD2B1"/>
<path d="M132.456 9.65625H75.2114C69.794 9.65625 65.4023 14.0479 65.4023 19.4653V134.134C65.4023 139.552 69.794 143.943 75.2114 143.943H132.456C137.874 143.943 142.266 139.552 142.266 134.134V19.4653C142.266 14.0479 137.874 9.65625 132.456 9.65625Z" fill="#323A6D"/>
<path d="M137.986 21.8412V131.757C137.984 133.222 137.401 134.627 136.364 135.663C135.328 136.7 133.923 137.282 132.458 137.284H75.2114C73.746 137.282 72.341 136.7 71.3047 135.663C70.2684 134.627 69.6854 133.222 69.6836 131.757V21.8412C69.6854 20.3758 70.2684 18.9709 71.3047 17.9348C72.341 16.8986 73.746 16.3159 75.2114 16.3145H132.458C133.923 16.3159 135.328 16.8986 136.364 17.9348C137.401 18.9709 137.984 20.3758 137.986 21.8412Z" fill="url(#paint1_linear_1292_5399)"/>
<path d="M143.103 194.197C154.398 192.325 161.713 181.236 158.992 170.113C157.16 162.627 155.595 156.099 154.325 150.415C152.818 143.662 155.167 132.037 155.395 123.193C155.617 114.429 151.908 97.2347 150.402 89.7035C149.918 87.2812 149.754 81.1678 149.705 78.6678C149.694 77.9889 149.688 77.5756 149.688 77.5756C149.688 71.7544 147.312 69.3532 144.345 69.6866C144.134 69.7112 143.925 69.7483 143.718 69.7977C135.577 71.6944 134.361 78.9878 135.817 92.0013C136.999 102.575 136.805 108.198 132.805 113.086C125.694 121.769 109.969 139.285 116.398 158.864C118.334 164.753 119.581 171.16 120.38 177.309C121.815 188.355 132.111 196.018 143.103 194.197Z" fill="#FFDBB8"/>
<path d="M149.703 78.6634C149.065 78.8979 148.379 78.9662 147.708 78.862C147.037 78.7578 146.403 78.4845 145.867 78.0678C143.944 76.6122 143.523 72.63 144.343 69.6866C147.309 69.3533 149.686 71.75 149.686 77.5756C149.686 77.5712 149.692 77.9845 149.703 78.6634Z" fill="#FFEAD7"/>
<path d="M69.8121 122.624C69.8121 126.458 68.0043 129.23 64.8787 129.564C62.1698 129.855 59.9453 126.453 59.9453 122.624C59.9453 118.795 62.6865 116.6 65.4654 115.17C67.8876 113.923 69.8121 118.792 69.8121 122.624Z" fill="#FFDBB8"/>
<path d="M70.1978 108.866C70.1978 113.129 67.1722 115.366 64.2388 116.124C60.5088 117.088 59.2266 113.124 59.2266 108.866C59.2266 104.609 61.8777 100.607 64.9066 100.607C67.9356 100.607 70.1978 104.604 70.1978 108.866Z" fill="#FFDBB8"/>
<path d="M69.622 95.7395C68.8598 100.144 65.3342 101.915 62.1675 102.174C58.1419 102.507 57.5241 98.1829 58.2863 93.7784C59.0486 89.3739 62.5008 85.7183 65.632 86.2605C68.7631 86.8028 70.3843 91.3373 69.622 95.7395Z" fill="#FFDBB8"/>
<path opacity="0.2" d="M125.239 30.2891H84.3161C81.7728 30.2891 79.3337 31.2994 77.5353 33.0978C75.7369 34.8962 74.7266 37.3353 74.7266 39.8786V93.9689C74.7266 96.5122 75.7369 98.9514 77.5353 100.75C79.3337 102.548 81.7728 103.558 84.3161 103.558H123.799C126.724 103.558 129.529 102.397 131.597 100.328C133.665 98.2603 134.827 95.4553 134.827 92.5305V39.8765C134.826 37.3339 133.816 34.8957 132.018 33.0978C130.22 31.2999 127.782 30.2896 125.239 30.2891Z" fill="#2195F2"/>
<path d="M123.304 29.1133H82.3811C77.0857 29.1133 72.793 33.406 72.793 38.7014V92.7938C72.793 98.0892 77.0857 102.382 82.3811 102.382H123.304C128.599 102.382 132.892 98.0892 132.892 92.7938V38.7014C132.892 33.406 128.599 29.1133 123.304 29.1133Z" fill="white"/>
<g opacity="0.7">
<path d="M119.627 90.793H85.5156V93.5239H119.627V90.793Z" fill="#CCE9FF"/>
<path d="M126.577 78.1289H96.1836V80.8598H126.577V78.1289Z" fill="#CCE9FF"/>
<path d="M126.577 83.9961H96.1836V86.727H126.577V83.9961Z" fill="#CCE9FF"/>
<path d="M93.4196 78.7568L85.5475 86.6217C85.5236 86.6458 85.4951 86.665 85.4637 86.678C85.4324 86.6911 85.3987 86.6978 85.3647 86.6978C85.3307 86.6978 85.2971 86.6911 85.2657 86.678C85.2343 86.665 85.2058 86.6458 85.1819 86.6217L80.0879 81.5278C80.0391 81.4786 80.0117 81.4121 80.0117 81.3428C80.0117 81.2735 80.0391 81.207 80.0879 81.1578L81.7654 79.4911C81.8145 79.4423 81.8808 79.4149 81.95 79.4149C82.0192 79.4149 82.0856 79.4423 82.1347 79.4911L85.3336 82.69C85.3382 82.6962 85.3441 82.7012 85.351 82.7047C85.3579 82.7082 85.3656 82.71 85.3733 82.71C85.381 82.71 85.3886 82.7082 85.3955 82.7047C85.4024 82.7012 85.4084 82.6962 85.413 82.69L91.3829 76.7201C91.4321 76.6717 91.4984 76.6445 91.5675 76.6445C91.6366 76.6445 91.7029 76.6717 91.7522 76.7201L93.4232 78.3911C93.4701 78.4407 93.4959 78.5065 93.4952 78.5747C93.4945 78.6429 93.4674 78.7082 93.4196 78.7568Z" fill="#85E5FF"/>
<path d="M119.628 68.5703H96.1836V71.3012H119.628V68.5703Z" fill="#CCE9FF"/>
<path d="M126.577 62.7168H96.1836V65.4477H126.577V62.7168Z" fill="#CCE9FF"/>
<path d="M93.4206 63.3392L85.5485 71.2041C85.5 71.2525 85.4342 71.2797 85.3657 71.2797C85.2971 71.2797 85.2314 71.2525 85.1828 71.2041L80.0918 66.108C80.043 66.059 80.0156 65.9926 80.0156 65.9234C80.0156 65.8542 80.043 65.7878 80.0918 65.7388L81.7664 64.0692C81.8156 64.0208 81.8819 63.9936 81.951 63.9936C82.0201 63.9936 82.0864 64.0208 82.1356 64.0692L85.3346 67.2688C85.3392 67.2749 85.3452 67.2798 85.3521 67.2832C85.359 67.2866 85.3666 67.2884 85.3743 67.2884C85.3819 67.2884 85.3895 67.2866 85.3964 67.2832C85.4033 67.2798 85.4093 67.2749 85.414 67.2688L91.3839 61.2982C91.4331 61.2498 91.4994 61.2227 91.5685 61.2227C91.6376 61.2227 91.7039 61.2498 91.7531 61.2982L93.4242 62.9692C93.4722 63.0191 93.4987 63.0858 93.498 63.155C93.4973 63.2242 93.4695 63.2903 93.4206 63.3392Z" fill="#85E5FF"/>
</g>
<path d="M125.325 47.7175C125.278 47.343 125.151 46.9828 124.954 46.6612C124.756 46.3395 124.492 46.0638 124.18 45.8525C123.098 45.1011 121.228 44.4284 117.428 43.6297C116.516 43.438 115.669 43.0163 114.967 42.4046C112.027 39.8383 107.725 36.5156 98.8145 36.5313C93.1338 36.5406 90.4637 39.0776 88.3547 41.5243C88.0184 41.9144 87.5754 42.1942 87.0666 42.24C86.1505 42.3244 84.6964 42.4668 83.804 42.5978C82.4256 42.8018 81.7021 43.5854 81.5053 44.7819C81.4481 45.1304 81.3958 45.4711 81.355 45.7752C81.0688 47.8728 81.1403 51.2256 81.7909 53.0905C81.934 53.5034 82.4349 54.2119 83.3552 54.2699C83.6472 54.2885 85.1401 54.3057 85.563 54.3057C85.3957 53.8833 85.3048 53.4345 85.2946 52.9803C85.2821 52.3469 85.4202 51.7197 85.6977 51.1502C85.9752 50.5807 86.384 50.0853 86.8905 49.7048C86.263 50.4227 85.9174 51.3441 85.918 52.2976C85.9163 53.0032 86.1068 53.6959 86.469 54.3014C86.8172 54.8943 87.3143 55.386 87.9111 55.7276C88.5078 56.0693 89.1835 56.249 89.8712 56.249C90.5588 56.249 91.2345 56.0693 91.8312 55.7276C92.428 55.386 92.9251 54.8943 93.2733 54.3014H111.618C111.452 53.8812 111.362 53.4353 111.35 52.9839C111.336 52.3504 111.473 51.7228 111.75 51.1528C112.026 50.5828 112.434 50.0867 112.941 49.7055C112.58 50.1204 112.31 50.6059 112.148 51.1311C111.986 51.6562 111.935 52.2094 111.998 52.7553C112.062 53.3012 112.239 53.8279 112.517 54.3017C112.796 54.7754 113.17 55.1858 113.616 55.5067C114.063 55.8276 114.571 56.0519 115.109 56.1653C115.647 56.2787 116.202 56.2787 116.74 56.1653C117.278 56.0518 117.786 55.8275 118.232 55.5065C118.678 55.1856 119.053 54.7752 119.331 54.3014H121.693C123.812 54.3014 124.344 54.1583 124.842 52.6554C125.442 50.8463 125.475 49.0464 125.325 47.7175ZM90.9582 54.3014C90.5187 54.5391 90.0134 54.6259 89.5198 54.5487C89.0261 54.4714 88.5715 54.2343 88.2256 53.8738C87.8797 53.5132 87.6618 53.0491 87.6051 52.5527C87.5485 52.0563 87.6563 51.555 87.9121 51.1257C88.1678 50.6965 88.5574 50.3631 89.0209 50.1767C89.4845 49.9902 89.9964 49.961 90.4781 50.0936C90.9598 50.2261 91.3848 50.5131 91.6876 50.9105C91.9905 51.3079 92.1546 51.7936 92.1548 52.2933C92.1558 52.705 92.0451 53.1092 91.8343 53.4629C91.6236 53.8165 91.3208 54.1064 90.9582 54.3014ZM117.015 54.3014C116.576 54.5402 116.07 54.6282 115.576 54.5519C115.082 54.4755 114.626 54.239 114.28 53.8787C113.933 53.5184 113.714 53.0542 113.656 52.5574C113.599 52.0606 113.706 51.5586 113.961 51.1287C114.217 50.6987 114.606 50.3645 115.07 50.1774C115.534 49.9902 116.046 49.9605 116.529 50.0927C117.011 50.225 117.437 50.5119 117.74 50.9095C118.043 51.307 118.208 51.7932 118.208 52.2933C118.21 52.7047 118.1 53.1089 117.89 53.4626C117.68 53.8163 117.378 54.1062 117.015 54.3014Z" fill="#85E5FF"/>
<path d="M114.234 112.377H93.4324C90.1733 112.377 87.5312 115.019 87.5312 118.278C87.5312 121.537 90.1733 124.179 93.4324 124.179H114.234C117.493 124.179 120.135 121.537 120.135 118.278C120.135 115.019 117.493 112.377 114.234 112.377Z" fill="#FFB948"/>
<path d="M103.155 121.993C102.899 121.993 102.651 121.897 102.462 121.724L98.8617 118.433C98.7621 118.342 98.6814 118.232 98.6242 118.109C98.567 117.987 98.5344 117.855 98.5284 117.72C98.5223 117.585 98.5429 117.45 98.589 117.323C98.635 117.196 98.7056 117.08 98.7968 116.98C98.8879 116.88 98.9977 116.8 99.1201 116.742C99.2424 116.685 99.3748 116.653 99.5097 116.647C99.6446 116.641 99.7794 116.661 99.9063 116.707C100.033 116.753 100.15 116.824 100.25 116.915L103.131 119.548L107.922 114.858C108.118 114.676 108.378 114.578 108.646 114.584C108.914 114.591 109.169 114.702 109.357 114.893C109.544 115.085 109.649 115.342 109.65 115.61C109.651 115.878 109.547 116.136 109.361 116.328L103.875 121.699C103.683 121.888 103.424 121.993 103.155 121.993Z" fill="white"/>
<path d="M132.915 18.3711H128.185C128.055 18.3711 127.949 18.4766 127.949 18.6067V21.1356C127.949 21.2657 128.055 21.3711 128.185 21.3711H132.915C133.045 21.3711 133.15 21.2657 133.15 21.1356V18.6067C133.15 18.4766 133.045 18.3711 132.915 18.3711Z" fill="#C7D3FF"/>
<path d="M133.805 19.0586H133.138C133.008 19.0586 132.902 19.1641 132.902 19.2942V20.4497C132.902 20.5798 133.008 20.6853 133.138 20.6853H133.805C133.935 20.6853 134.04 20.5798 134.04 20.4497V19.2942C134.04 19.1641 133.935 19.0586 133.805 19.0586Z" fill="#C7D3FF"/>
<path d="M126.352 19.0371L124.483 21.5083C124.461 21.5373 124.433 21.5608 124.4 21.577C124.368 21.5932 124.332 21.6016 124.296 21.6016C124.259 21.6016 124.223 21.5932 124.191 21.577C124.158 21.5608 124.13 21.5373 124.108 21.5083L122.232 19.0349C122.195 18.9865 122.178 18.9258 122.185 18.8653C122.192 18.8049 122.222 18.7495 122.268 18.7105C122.838 18.2411 123.553 17.9844 124.292 17.9844C125.03 17.9844 125.745 18.2411 126.315 18.7105C126.363 18.7492 126.393 18.8052 126.4 18.8663C126.407 18.9274 126.39 18.9887 126.352 19.0371Z" fill="#C7D3FF"/>
<defs>
<linearGradient id="paint0_linear_1292_5399" x1="81.6889" y1="197.262" x2="134.232" y2="-0.178876" gradientUnits="userSpaceOnUse">
<stop stop-color="#7DDCFF"/>
<stop offset="1" stop-color="#C7F1FF"/>
</linearGradient>
<linearGradient id="paint1_linear_1292_5399" x1="115.055" y1="140.438" x2="92.6128" y2="13.16" gradientUnits="userSpaceOnUse">
<stop offset="0.25" stop-color="#94E2FF"/>
<stop offset="1" stop-color="#C0EEFF"/>
</linearGradient>
</defs>
</svg>
