<svg xmlns="http://www.w3.org/2000/svg" width="28.547" height="32.664" viewBox="0 0 28.547 32.664">
  <g id="Group_23144" data-name="Group 23144" transform="translate(0 0)">
    <path id="Path_35511" data-name="Path 35511" d="M48.976,25.289,31.716,15.424a.7.7,0,0,0-1.05.609s.007.91.014,2.407L43.253,31.012Z" transform="translate(-30.666 -15.333)" fill="#55bb6a"/>
    <path id="Path_35512" data-name="Path 35512" d="M30.678,18.123c.021,5.4.084,18.513.112,25.041L43.259,30.7Z" transform="translate(-30.665 -15.016)" fill="#41baea"/>
    <path id="Path_35513" data-name="Path 35513" d="M57.573,29.92l-9.879-5.646L41.963,30l6.465,6.465,9.153-5.331a.7.7,0,0,0,.35-.6.709.709,0,0,0-.358-.61Z" transform="translate(-29.383 -14.318)" fill="#fac113"/>
    <path id="Path_35514" data-name="Path 35514" d="M30.773,41.881c.014,2.33.021,3.82.021,3.82a.682.682,0,0,0,.35.6.695.695,0,0,0,.7,0L49.706,35.885,43.242,29.42Z" transform="translate(-30.654 -13.734)" fill="#e94957"/>
  </g>
</svg>
