<svg width="220" height="200" viewBox="0 0 220 200" fill="none" xmlns="http://www.w3.org/2000/svg">
<path d="M208.529 102.234C194.874 129.792 213.349 168.861 159.899 174.746C140.494 176.883 127.746 168.467 108.048 176.175C69.8119 191.132 42.924 181.34 35.3682 163.833C32.1801 156.445 29.4496 148.292 22.7676 144.277C0.639548 130.984 -3.96339 113.012 2.99478 92.2788C6.65248 81.3773 18.2738 74.6252 25.6727 67.5885C34.3424 59.3421 37.7723 51.0046 42.3439 42.3323C62.7029 3.70815 100.921 -3.32078 128.63 1.2101C152.01 5.03313 165.917 21.7533 172.258 34.388C185.176 60.1578 229.638 59.6312 208.529 102.234ZM219.986 118.759C220.069 117.637 219.774 116.52 219.138 115.547C218.502 114.573 217.554 113.789 216.413 113.292C215.272 112.795 213.99 112.607 212.729 112.754C211.467 112.9 210.284 113.373 209.327 114.114C208.37 114.854 207.683 115.829 207.353 116.914C207.023 117.999 207.065 119.146 207.473 120.21C207.881 121.275 208.637 122.208 209.645 122.893C210.654 123.578 211.87 123.983 213.139 124.058C213.983 124.108 214.829 124.01 215.63 123.77C216.431 123.531 217.17 123.154 217.806 122.662C218.442 122.17 218.962 121.572 219.336 120.902C219.71 120.232 219.931 119.504 219.986 118.759ZM133.171 183.12C131.669 181.606 129.694 180.519 127.493 179.998C125.293 179.476 122.966 179.542 120.808 180.188C118.651 180.834 116.758 182.031 115.37 183.627C113.982 185.223 113.161 187.146 113.011 189.154C112.861 191.163 113.389 193.165 114.527 194.908C115.665 196.652 117.363 198.058 119.406 198.949C121.449 199.839 123.745 200.175 126.004 199.914C128.263 199.652 130.384 198.804 132.098 197.478C134.395 195.7 135.799 193.188 136.001 190.495C136.202 187.802 135.184 185.149 133.171 183.12ZM1.39097 52.3317C1.99223 52.9503 2.78763 53.3975 3.67661 53.6168C4.56559 53.8362 5.50822 53.8178 6.38535 53.5639C7.26248 53.3101 8.03473 52.8323 8.60444 52.1908C9.17416 51.5494 9.51577 50.7732 9.58609 49.9603C9.65642 49.1474 9.4523 48.3343 8.99953 47.6238C8.54676 46.9134 7.86568 46.3375 7.04239 45.9689C6.21911 45.6003 5.29058 45.4556 4.3742 45.5531C3.45781 45.6505 2.59472 45.9858 1.89404 46.5165C1.42855 46.869 1.04627 47.2992 0.769044 47.7823C0.491819 48.2654 0.325086 48.792 0.278367 49.332C0.231648 49.8721 0.305859 50.415 0.496765 50.9297C0.68767 51.4444 0.991525 51.9208 1.39097 52.3317ZM180.5 30.0345C180.179 31.2979 180.288 32.6171 180.816 33.8254C181.343 35.0337 182.264 36.0767 183.462 36.8226C184.661 37.5685 186.082 37.9838 187.548 38.0159C189.014 38.0481 190.457 37.6956 191.696 37.0032C192.935 36.3107 193.913 35.3093 194.508 34.1257C195.102 32.942 195.286 31.6292 195.036 30.3533C194.785 29.0774 194.112 27.8957 193.102 26.9576C192.091 26.0195 190.789 25.3671 189.358 25.083C188.409 24.8942 187.426 24.8725 186.467 25.0192C185.508 25.1659 184.59 25.478 183.768 25.9379C182.945 26.3977 182.233 26.9961 181.673 27.699C181.112 28.402 180.714 29.1956 180.5 30.0345ZM14.5787 51.5268C14.6987 53.0884 15.3405 54.5835 16.4227 55.8228C17.505 57.0621 18.9791 57.9901 20.6586 58.4891C22.3381 58.9882 24.1475 59.036 25.8578 58.6265C27.5681 58.217 29.1024 57.3686 30.2666 56.1887C31.4308 55.0087 32.1726 53.5502 32.3981 51.9978C32.6236 50.4453 32.3227 48.8687 31.5335 47.4673C30.7442 46.066 29.502 44.9029 27.9642 44.1253C26.4264 43.3477 24.6619 42.9905 22.8942 43.0989C20.5269 43.2441 18.3216 44.2132 16.7625 45.7933C15.2034 47.3735 14.4179 49.4356 14.5787 51.5268ZM173.541 20.0089C173.373 20.6708 173.432 21.3616 173.708 21.9942C173.985 22.6268 174.468 23.1727 175.096 23.5628C175.724 23.953 176.469 24.1699 177.237 24.1862C178.005 24.2025 178.76 24.0174 179.409 23.6543C180.057 23.2912 180.569 22.7664 180.88 22.1463C181.191 21.5261 181.287 20.8385 181.156 20.1703C181.024 19.5021 180.671 18.8834 180.142 18.3923C179.612 17.9012 178.93 17.5598 178.18 17.4112C177.683 17.3125 177.168 17.3014 176.665 17.3786C176.163 17.4558 175.682 17.6196 175.251 17.8609C174.82 18.1021 174.448 18.416 174.154 18.7846C173.861 19.1531 173.652 19.5692 173.541 20.0089ZM24.6606 175.758C24.7068 176.348 24.9499 176.912 25.3592 177.38C25.7685 177.848 26.3257 178.198 26.9603 178.386C27.5949 178.574 28.2784 178.592 28.9243 178.437C29.5703 178.282 30.1497 177.961 30.5893 177.516C31.0289 177.07 31.309 176.519 31.3941 175.932C31.4793 175.346 31.3656 174.75 31.0675 174.221C30.7695 173.691 30.3004 173.252 29.7196 172.958C29.1388 172.664 28.4724 172.529 27.8046 172.57C27.3611 172.596 26.9279 172.7 26.5298 172.875C26.1317 173.05 25.7765 173.292 25.4845 173.588C25.1925 173.884 24.9695 174.229 24.8281 174.601C24.6867 174.973 24.6298 175.366 24.6606 175.758ZM29.19 162.198C29.3019 160.703 28.9092 159.211 28.0617 157.913C27.2141 156.615 25.9498 155.568 24.4285 154.904C22.9072 154.241 21.1973 153.991 19.5151 154.186C17.8328 154.381 16.2538 155.012 14.9777 155.999C13.7016 156.987 12.7857 158.287 12.3459 159.734C11.9061 161.181 11.9621 162.711 12.5068 164.131C13.0515 165.55 14.0605 166.795 15.4061 167.707C16.7518 168.62 18.3736 169.16 20.0666 169.259C22.3364 169.391 24.5727 168.721 26.2836 167.397C27.9945 166.073 29.0399 164.203 29.19 162.198Z" fill="url(#paint0_linear_1292_5460)"/>
<g clip-path="url(#clip0_1292_5460)">
<path d="M150.963 144.574C150.868 145.224 150.709 145.859 150.472 146.35C150.044 147.223 149.632 147.302 148.017 147.223C145.926 147.128 142.933 147.223 139.766 147.35C139.766 148.222 139.797 148.634 139.797 148.634C140.003 151.029 141.08 151.108 141.508 151.108H148.318C148.92 151.108 149.474 151.108 149.902 150.823C150.456 150.458 150.694 149.395 150.899 147.54C150.931 147.27 150.947 146.921 150.963 146.509V146.493C150.963 146.366 150.979 146.208 150.979 146.033V145.859C150.979 145.431 150.979 144.955 150.963 144.574Z" fill="white"/>
<path d="M70.8557 144.574C70.9507 145.224 71.1091 145.859 71.3466 146.35C71.7743 147.223 72.186 147.302 73.8015 147.223C75.892 147.128 78.8853 147.223 82.0528 147.35C82.0528 148.222 82.0211 148.634 82.0211 148.634C81.8152 151.029 80.7383 151.108 80.3107 151.108H73.5005C72.8987 151.108 72.3919 151.108 71.9168 150.823C71.3466 150.49 71.1249 149.395 70.919 147.54C70.8874 147.27 70.8715 146.921 70.8557 146.509V146.493C70.8557 146.366 70.8398 146.208 70.8398 146.033V145.859C70.8557 145.431 70.8557 144.955 70.8557 144.574Z" fill="white"/>
<path d="M151.467 129.619C151.467 124.75 150.834 119.992 150.58 119.469C150.39 119.088 149.171 118.089 146.399 116.202C143.596 114.283 143.659 114.568 143.152 113.315C143.612 113.172 144.055 112.903 144.324 112.871C144.926 112.808 144.958 113.379 146.209 113.379C147.46 113.379 150.168 113.046 150.723 112.49C151.277 111.935 151.451 111.745 151.451 111.253C151.451 110.762 151.166 109.747 150.628 109.144C150.089 108.541 147.793 108.24 146.447 108.066C145.1 107.891 144.91 108.066 144.562 108.288C144.008 108.637 143.976 111.824 143.976 111.824L142.661 111.856C141.806 109.747 140.618 105.496 138.765 102.15C136.738 98.5024 134.616 97.3606 133.729 97.0751C132.858 96.8055 132.066 96.6152 126.127 96.0125C120.061 95.3781 115.231 95.2988 110.923 95.2988C106.615 95.2988 101.785 95.394 95.7189 96.0125C89.7799 96.631 88.988 96.8055 88.1169 97.0751C87.2459 97.3447 85.1078 98.5024 83.0806 102.15C81.2276 105.496 80.0398 109.747 79.1846 111.856L77.8701 111.824C77.8701 111.824 77.8542 108.637 77.2841 108.288C76.9356 108.066 76.7456 107.875 75.3994 108.066C74.0532 108.256 71.7568 108.541 71.2183 109.144C70.6798 109.747 70.3947 110.762 70.3947 111.253C70.3947 111.745 70.569 111.951 71.1233 112.49C71.6776 113.046 74.3858 113.379 75.637 113.379C76.8881 113.379 76.9198 112.808 77.5216 112.871C77.7909 112.903 78.2502 113.172 78.6936 113.315C78.171 114.568 78.2502 114.283 75.4469 116.202C72.6753 118.105 71.44 119.088 71.2658 119.469C71.0124 119.992 70.3789 124.75 70.3789 129.619C70.3789 134.488 70.7273 138.865 70.7273 140.419C70.7273 141.069 70.7273 142.211 70.8699 143.305C70.9649 143.956 71.1074 144.59 71.3608 145.082C71.7884 145.954 72.1844 146.033 73.8156 145.954C75.9062 145.859 78.9312 145.954 82.0512 146.081C84.1417 146.16 86.2798 146.239 88.1803 146.287C92.9315 146.382 91.5378 145.589 93.565 145.621C95.5922 145.653 103.59 145.986 110.907 145.986C118.224 145.986 126.238 145.653 128.249 145.621C130.276 145.589 128.883 146.382 133.634 146.287C135.534 146.255 137.673 146.16 139.763 146.081C142.883 145.97 145.924 145.859 147.999 145.954C149.63 146.033 150.026 145.954 150.453 145.082C150.691 144.59 150.849 143.956 150.944 143.305C151.103 142.211 151.087 141.069 151.087 140.419C151.119 138.881 151.467 134.488 151.467 129.619ZM84.0308 105.607C84.7911 103.831 87.0717 100.263 88.1803 99.6285C88.4495 99.4699 90.8093 98.7245 96.7167 98.328C102.149 97.9632 108.151 97.8205 110.939 97.8205C113.726 97.8205 119.729 97.9632 125.161 98.328C131.052 98.7245 133.444 99.454 133.697 99.6285C135.123 100.612 137.087 103.831 137.847 105.607C138.607 107.384 139.621 110.873 139.431 111.349C139.24 111.824 139.621 112.062 137.055 111.856C134.505 111.666 118.493 111.46 110.955 111.46C103.432 111.46 87.4201 111.666 84.8544 111.856C82.2887 112.046 82.6688 111.824 82.4788 111.349C82.257 110.873 83.2706 107.4 84.0308 105.607ZM89.8591 125.464C88.7188 125.749 88.0377 126.368 86.6124 126.352C85.187 126.352 81.3385 125.701 80.5149 125.67C79.6914 125.638 78.9628 126.225 78.5352 126.336C78.1076 126.447 77.2682 126.145 76.0012 125.749C74.7342 125.353 73.9899 125.464 73.5781 123.735C73.1505 122.022 73.5781 119.564 73.5781 119.564C76.318 119.437 78.9628 119.691 83.92 121.086C88.8771 122.482 91.6329 125.162 91.6329 125.162C91.6329 125.162 90.9994 125.178 89.8591 125.464ZM127.109 137.961C124.844 138.262 115.357 138.341 110.923 138.341C106.488 138.341 97.0018 138.246 94.737 137.961C92.4247 137.659 89.4156 134.884 91.4903 132.68C94.2936 129.682 93.7709 129.777 100.138 128.953C105.649 128.239 109.83 128.207 110.923 128.207C112 128.207 116.197 128.255 121.708 128.953C128.075 129.777 127.552 129.682 130.356 132.68C132.43 134.884 129.421 137.659 127.109 137.961ZM148.268 123.751C147.84 125.464 147.112 125.368 145.845 125.765C144.578 126.161 143.738 126.447 143.311 126.352C142.883 126.256 142.155 125.67 141.331 125.686C140.507 125.717 136.659 126.368 135.234 126.368C133.808 126.368 133.127 125.765 131.987 125.479C130.847 125.194 130.213 125.194 130.213 125.194C130.213 125.194 132.953 122.498 137.926 121.118C142.883 119.722 145.528 119.469 148.268 119.596C148.268 119.564 148.695 122.022 148.268 123.751Z" fill="white"/>
</g>
<g clip-path="url(#clip1_1292_5460)">
<path d="M103.934 37.292L111.215 39.2149C111.462 39.2728 111.683 39.411 111.844 39.608C112.005 39.805 112.096 40.0496 112.104 40.3041C112.104 40.9226 111.555 41.4336 110.88 41.4336H106.105C105.59 41.4321 105.081 41.3316 104.604 41.1377C103.901 40.8419 103.09 40.9091 102.551 41.4067L100.002 43.7598C99.8845 43.8632 99.7828 43.9838 99.7006 44.1175C99.5953 44.2905 99.5253 44.4827 99.4945 44.683C99.4637 44.8832 99.4728 45.0876 99.5212 45.2844C99.5695 45.4811 99.6563 45.6663 99.7764 45.8293C99.8965 45.9923 100.048 46.1298 100.221 46.234C101.633 47.0831 103.213 47.611 104.851 47.7803V50.1604C104.851 51.3437 105.901 52.3118 107.181 52.3118H109.511C110.792 52.3118 111.842 51.3437 111.842 50.1604V47.7938C116.26 47.3097 119.601 43.6253 119.019 39.3225C118.597 36.2297 116.006 33.769 112.773 32.9085L105.493 30.9856C105.246 30.9276 105.025 30.7894 104.864 30.5925C104.703 30.3955 104.611 30.1508 104.604 29.8964C104.604 29.2779 105.152 28.7669 105.827 28.7669H110.603C111.119 28.7677 111.631 28.8682 112.109 29.0627C112.811 29.3586 113.622 29.2913 114.162 28.7938L116.711 26.4407C116.825 26.3394 116.923 26.2216 117.002 26.0911C117.108 25.9181 117.179 25.7258 117.21 25.5252C117.242 25.3246 117.233 25.1198 117.185 24.9225C117.138 24.7252 117.051 24.5394 116.931 24.3757C116.811 24.2121 116.66 24.0739 116.487 23.9692C115.075 23.1201 113.494 22.5922 111.856 22.4228V20.0401C111.856 18.8568 110.807 17.8887 109.526 17.8887H107.195C105.914 17.8887 104.865 18.8568 104.865 20.0401V22.4067C100.453 22.8908 97.1048 26.5751 97.687 30.878C98.1082 33.9707 100.707 36.4314 103.934 37.292Z" fill="#52DA2F"/>
<path d="M143.4 62.0071C141.818 60.5684 139.349 60.6625 137.686 62.0071L125.29 71.9441C123.769 73.1677 121.875 73.8321 119.924 73.8266H104.059C103.489 73.8266 102.944 73.6 102.541 73.1965C102.138 72.793 101.912 72.2458 101.912 71.6752C101.912 71.1046 102.138 70.5574 102.541 70.1539C102.944 69.7504 103.489 69.5238 104.059 69.5238H114.561C116.694 69.5238 118.681 68.0581 119.022 65.947C119.064 65.7045 119.084 65.4589 119.083 65.2128C119.081 64.073 118.628 62.9806 117.823 62.1754C117.018 61.3702 115.928 60.918 114.791 60.918H93.3268C89.707 60.9189 86.1975 62.167 83.3864 64.4531L77.1485 69.5238H69.7167C69.1474 69.5238 68.6015 69.7504 68.199 70.1539C67.7964 70.5574 67.5703 71.1046 67.5703 71.6752V84.5839C67.5703 85.1545 67.7964 85.7017 68.199 86.1052C68.6015 86.5087 69.1474 86.7353 69.7167 86.7353H117.577C119.527 86.7368 121.419 86.0729 122.943 84.8528L143.23 68.5825C143.718 68.1912 144.115 67.6979 144.393 67.137C144.671 66.576 144.824 65.961 144.84 65.3348C144.856 64.7086 144.736 64.0864 144.488 63.5117C144.239 62.9369 143.869 62.4234 143.402 62.0071H143.4Z" fill="#FFDBB8"/>
</g>
<defs>
<linearGradient id="paint0_linear_1292_5460" x1="108.268" y1="201.389" x2="113.407" y2="0.485732" gradientUnits="userSpaceOnUse">
<stop stop-color="#7DDCFF"/>
<stop offset="1" stop-color="#C7F1FF"/>
</linearGradient>
<clipPath id="clip0_1292_5460">
<rect width="81.0881" height="81.2004" fill="white" transform="translate(70.3789 82.5801)"/>
</clipPath>
<clipPath id="clip1_1292_5460">
<rect width="77.2696" height="68.8463" fill="white" transform="translate(67.5703 17.8887)"/>
</clipPath>
</defs>
</svg>
