<svg width="68" height="68" viewBox="0 0 68 68" fill="none" xmlns="http://www.w3.org/2000/svg">
<g filter="url(#filter0_d_1676_13592)">
<path d="M34 59C49.464 59 62 46.464 62 31C62 15.536 49.464 3 34 3C18.536 3 6 15.536 6 31C6 46.464 18.536 59 34 59Z" fill="white"/>
</g>
<path d="M33.4617 46.9454C32.4863 46.8007 31.5648 46.3967 30.7889 45.7736C30.4807 45.5664 30.2228 45.2896 30.0347 44.9646C29.8467 44.6395 29.7336 44.2747 29.704 43.8979C29.704 43.0913 30.4244 42.724 31.0915 42.5644C33.192 42.396 35.3021 42.396 37.4026 42.5644C38.0698 42.7218 38.7902 43.0913 38.7902 43.8979C38.7608 44.2748 38.648 44.6398 38.4604 44.9652C38.2728 45.2906 38.0153 45.5679 37.7074 45.7758C36.9315 46.3976 36.0111 46.8015 35.0368 46.9475C34.7724 46.9825 34.5062 47 34.2396 47C33.9794 47 33.7195 46.9817 33.4617 46.9454ZM26.882 40.1947C25.1545 40.0357 23.5442 39.2312 22.357 37.9343C21.4754 36.8736 20.9971 35.522 21.01 34.1283C20.9297 32.7936 21.3362 31.4761 22.1503 30.4316C22.718 29.8301 23.1583 29.1147 23.4437 28.3303C23.729 27.5459 23.8532 26.7095 23.8085 25.8736V25.1916C23.7018 22.9497 24.4156 20.7479 25.8099 19.018C26.8409 17.7648 28.1251 16.7565 29.5737 16.0627C31.0222 15.3689 32.6004 15.0063 34.1991 15H34.3398C35.9761 15.0044 37.5909 15.3837 39.0659 16.1103C40.541 16.8369 41.8391 17.8923 42.8654 19.1995C44.1796 20.8963 44.843 23.0276 44.7304 25.1916V25.8736C44.6938 26.7085 44.8216 27.5424 45.1062 28.3255C45.3907 29.1086 45.8262 29.8249 46.3865 30.4316C47.2012 31.4758 47.6077 32.7936 47.5268 34.1283C47.5397 35.522 47.0614 36.8736 46.1798 37.9343C44.9928 39.2302 43.3835 40.0345 41.6569 40.1947C39.2058 40.4133 36.7547 40.5882 34.2673 40.5882C31.8003 40.6008 29.3345 40.4694 26.882 40.1947Z" fill="#185F87"/>
<defs>
<filter id="filter0_d_1676_13592" x="0" y="0" width="68" height="68" filterUnits="userSpaceOnUse" color-interpolation-filters="sRGB">
<feFlood flood-opacity="0" result="BackgroundImageFix"/>
<feColorMatrix in="SourceAlpha" type="matrix" values="0 0 0 0 0 0 0 0 0 0 0 0 0 0 0 0 0 0 127 0" result="hardAlpha"/>
<feOffset dy="3"/>
<feGaussianBlur stdDeviation="3"/>
<feColorMatrix type="matrix" values="0 0 0 0 0 0 0 0 0 0 0 0 0 0 0 0 0 0 0.129 0"/>
<feBlend mode="normal" in2="BackgroundImageFix" result="effect1_dropShadow_1676_13592"/>
<feBlend mode="normal" in="SourceGraphic" in2="effect1_dropShadow_1676_13592" result="shape"/>
</filter>
</defs>
</svg>
