<svg width="480" height="360" viewBox="0 0 480 360" fill="none" xmlns="http://www.w3.org/2000/svg">
<path opacity="0.5" d="M82.2476 341.03C82.2476 341.03 22.4752 298.565 5.27229 226.298C-11.9306 154.02 14.3334 66.3933 64.1364 22.1271C113.95 -22.1391 203.609 7.67374 243.454 44.7133L283.298 81.7528C283.298 81.7528 321.337 102.527 371.151 100.726C420.965 98.9135 465.341 166.672 477.116 219.977C488.891 273.282 460.81 343.748 460.81 343.748L82.2476 341.04V341.03Z" fill="#F5F5F5"/>
<g style="mix-blend-mode:multiply" opacity="0.5">
<path d="M55.0905 351.869C55.0905 351.869 13.4293 329.283 2.56254 276.884C-8.30417 224.485 38.7849 176.606 43.3155 150.406C47.846 124.207 37.8766 91.6865 79.5379 66.3821C121.199 41.0887 195.46 50.1166 223.541 43.796C251.622 37.4753 284.222 -5.89573 340.372 4.04916C396.522 13.9831 450.867 43.796 453.581 108.847C456.294 173.898 435.469 175.7 456.295 210.938C477.12 246.176 485.272 270.564 475.314 306.697C465.356 342.83 444.52 352.775 444.52 352.775L55.0905 351.869Z" fill="#EBEBEB"/>
</g>
<g style="mix-blend-mode:multiply" opacity="0.5">
<path d="M142.061 340.123C139.468 337.415 101.462 261.524 143.791 191.965C186.119 122.405 292.368 130.527 334.697 157.632C377.026 184.738 397.752 219.965 402.075 257.005C406.397 294.044 377.89 351.869 377.89 351.869L142.061 340.123Z" fill="#E0E0E0"/>
</g>
<path d="M440.102 177.133H391.272C388.251 177.133 385.801 179.577 385.801 182.591V206.913C385.801 209.927 388.251 212.371 391.272 212.371H440.102C443.123 212.371 445.573 209.927 445.573 206.913V182.591C445.573 179.577 443.123 177.133 440.102 177.133Z" fill="#CACACA"/>
<path d="M415.688 226.148L423.425 207.852H407.951L415.688 226.148Z" fill="#CACACA"/>
<path d="M415.498 188.704H429.484V190.745L436.334 186.804L429.484 182.863V184.905H415.498V188.704Z" fill="#4E4E4E"/>
<path d="M436.334 196.718H422.359V194.688L415.498 198.628L422.359 202.569V200.528H436.334V196.718Z" fill="white"/>
<path d="M406.926 200.307L406.258 200.548C406.258 200.548 404.179 198.19 403.107 195.613C402.034 193.037 401.99 189.904 401.99 189.904L402.472 189.697L399.517 182.645C398.992 183.059 398.489 183.583 398.084 184.271C396.409 187.088 396.574 191.421 398.259 195.646C399.944 199.871 401.739 203.648 405.022 206.017C406.959 207.414 408.622 207.665 409.902 207.458L406.915 200.318L406.926 200.307Z" fill="#4E4E4E"/>
<path d="M409.046 199.474L408.127 199.812L411.147 207.039C411.487 206.93 411.793 206.788 412.067 206.646C412.844 206.22 413.194 205.281 412.865 204.452L411.29 200.478C410.939 199.594 409.944 199.157 409.057 199.474H409.046Z" fill="#4E4E4E"/>
<path d="M401.832 181.399C401.46 181.53 401.055 181.715 400.65 181.956L403.671 189.16L404.688 188.735C405.575 188.364 405.991 187.37 405.651 186.475L404.065 182.414C403.725 181.53 402.73 181.071 401.843 181.399H401.832Z" fill="#4E4E4E"/>
<path d="M127.941 327.932V246.626C127.941 246.626 127.032 224.717 138.578 218.396C150.123 212.075 198.799 215.46 198.799 215.46V327.932H127.93H127.941Z" fill="#734801"/>
<path d="M214.026 139.339C214.026 139.339 211.082 163.956 209.955 165.986L208.828 168.017L203.17 171.859C203.17 171.859 214.037 187.219 227.398 189.697C240.76 192.186 239.622 184.271 239.622 184.271L237.587 179.981L240.301 156.489C240.301 156.489 216.072 145.42 214.037 139.328L214.026 139.339Z" fill="#FF9D8C"/>
<path d="M196.131 173.901L204.962 170.059C204.962 170.059 210.62 179.316 223.752 184.741C236.884 190.167 237.114 187.001 237.792 184.741C238.471 182.482 237.562 180.003 237.562 180.003L238.536 172.1L243.789 173.847L262.021 320.946L215.15 323.206L196.131 173.912V173.901Z" fill="white"/>
<path d="M239.378 172.245C239.378 172.245 242.552 179.548 245.495 196.709C248.439 213.87 251.153 242.787 251.832 262.655C252.51 282.523 252.959 327.925 252.959 327.925H312.053C312.731 327.925 316.802 305.568 316.802 305.568C316.802 305.568 290.987 283.506 289.63 279.892C288.722 277.48 289.181 232.843 285.329 212.287C281.477 191.731 276.498 187.594 266.08 182.474C255.312 177.18 239.367 172.234 239.367 172.234L239.378 172.245Z" fill="#4E9C0B"/>
<path d="M270.172 302.06C269.865 302.06 269.624 301.82 269.624 301.514C269.624 299.898 269.34 276.952 269.055 254.77C268.782 232.577 268.486 209.63 268.486 208.015C268.486 207.709 268.727 207.469 269.033 207.469C269.34 207.469 269.581 207.709 269.581 208.015C269.581 209.63 269.865 232.577 270.15 254.759C270.423 276.952 270.719 299.898 270.719 301.514C270.719 301.82 270.478 302.06 270.172 302.06Z" fill="#297727"/>
<path d="M152.435 296.537L151.986 327.933H220.82C220.82 327.933 223.764 301.285 222.636 298.797C221.509 296.308 152.446 296.537 152.446 296.537H152.435Z" fill="#263238"/>
<g style="mix-blend-mode:multiply">
<path d="M229.039 165.322C231.841 167.582 235.682 169.383 238.669 170.486L240.289 156.513C240.289 156.513 222.09 148.194 215.918 142.016C217.209 149.046 220.383 158.358 229.039 165.322Z" fill="#9C9C9C"/>
</g>
<path d="M261.571 93.4912C261.571 93.4912 266.32 101.624 267.228 111.558C268.137 121.492 267.228 147.015 259.076 157.855C250.923 168.695 233.939 165.529 226.246 158.979C219.176 152.964 212.205 146.327 210.4 133.227C208.583 120.127 214.252 95.2815 230.328 90.0853C246.403 84.8891 261.571 93.4694 261.571 93.4694V93.4912Z" fill="#FF9D8C"/>
<path d="M281.998 313.741C281.998 313.741 281.199 313.741 279.984 313.709C279.7 313.698 279.382 313.709 279.054 313.698C277.883 313.665 276.46 313.632 275.027 313.589C274.71 313.578 274.381 313.567 274.064 313.556C272.641 313.523 271.427 313.698 270.288 313.632H270.256C270.015 313.621 269.665 313.654 269.38 313.665C269.238 313.676 269.107 313.687 269.019 313.676C268.362 313.556 268.231 313.403 267.52 313.086C266.601 312.672 254.158 309.899 244.035 309.964C233.924 310.008 224.852 310.696 223.374 309.462C221.886 308.207 220.989 295.533 229.623 294.703L240.238 298.72C240.238 298.72 264.478 295.849 273.364 302.388C282.271 308.927 281.998 313.741 281.998 313.741Z" fill="#FF9D8C"/>
<path d="M270.253 313.634C270.012 313.623 269.662 313.655 269.377 313.666C269.158 313.317 268.699 312.684 268.447 312.422C265.711 309.638 259.101 307.837 256.705 307.258C256.486 307.204 256.344 306.985 256.398 306.767C256.442 306.549 256.672 306.418 256.902 306.461C260.393 307.302 267.801 309.453 269.903 312.979C269.968 313.077 270.143 313.415 270.253 313.634Z" fill="#263238"/>
<path d="M275.025 313.578C274.708 313.578 274.38 313.567 274.062 313.545C271.075 308.109 266.183 306.548 260.153 304.615L259.792 304.495C259.584 304.43 259.464 304.19 259.53 303.971C259.595 303.764 259.825 303.644 260.055 303.709L260.405 303.829C266.796 305.871 271.928 307.519 275.036 313.578H275.025Z" fill="#263238"/>
<path d="M279.985 313.699C279.701 313.699 279.383 313.699 279.055 313.688C277.238 309.889 271.242 303.524 263.319 302.051C263.089 302.007 262.946 301.8 262.979 301.57C263.023 301.352 263.242 301.21 263.461 301.243C271.635 302.771 278.223 309.43 279.996 313.699H279.985Z" fill="#263238"/>
<path d="M215.824 122.07C215.824 122.07 220.803 119.701 224.316 113.031C227.828 106.372 227.369 100.379 227.369 100.379C227.369 100.379 233.705 99.3641 243.215 102.191C252.725 105.019 264.04 108.85 273.55 103.436C283.059 98.0104 283.059 89.3209 278.419 85.7076C273.221 81.6576 262.913 84.1247 262.913 84.1247C262.913 84.1247 266.874 80.2821 264.729 78.0224C262.574 75.7627 254.771 78.6992 254.771 78.6992C254.771 78.6992 245.261 71.1341 227.259 72.0402C209.258 72.9463 200.656 85.4783 199.638 99.4842C198.621 113.49 203.709 127.496 203.709 127.496L215.824 122.07Z" fill="#263238"/>
<g style="mix-blend-mode:multiply">
<path d="M252.346 125.464C251.329 127.975 251.351 130.889 251.099 133.542C250.902 135.616 250.519 138.029 252.423 139.426C253.331 140.092 257.632 141.893 255.421 143.356C254.579 143.913 253.167 143.76 252.204 143.716C251.548 143.684 250.88 143.662 250.212 143.607C249.501 143.553 248.812 143.345 248.1 143.334C247.685 143.334 247.553 143.88 247.892 144.098C249.031 144.808 250.716 145.037 252.04 145.081C253.375 145.135 254.272 145.081 255.476 144.48C256.209 144.12 256.932 143.596 257.041 142.723C257.172 141.74 256.428 140.856 255.684 140.299C254.831 139.666 253.78 139.372 252.915 138.749C251.712 137.898 251.81 136.446 251.898 135.114C252.106 131.905 252.839 128.75 253.123 125.551C253.167 125.06 252.489 125.06 252.335 125.442L252.346 125.464Z" fill="#9C9C9C"/>
</g>
<path d="M261.605 132.965C261.266 134.864 259.876 136.218 258.508 135.978C257.13 135.737 256.298 133.991 256.626 132.091C256.965 130.192 258.355 128.838 259.723 129.078C261.102 129.319 261.934 131.065 261.605 132.965Z" fill="#263238"/>
<path d="M244.286 131.457C243.979 133.509 242.524 134.994 241.046 134.776C239.569 134.557 238.606 132.713 238.912 130.66C239.219 128.608 240.674 127.123 242.152 127.342C243.629 127.56 244.592 129.405 244.286 131.457Z" fill="#263238"/>
<path d="M257.573 125.129C258.635 125.304 259.696 125.129 260.769 125.206C261.02 125.227 261.283 125.26 261.535 125.282C261.721 125.304 261.195 125.227 261.447 125.271C261.502 125.271 261.557 125.293 261.611 125.293C261.743 125.315 261.874 125.347 262.005 125.38C262.235 125.435 262.454 125.522 262.684 125.566C262.892 125.609 263.121 125.664 263.329 125.653C263.45 125.642 263.559 125.62 263.68 125.609C263.603 125.62 263.537 125.631 263.461 125.653C263.461 125.675 263.855 125.62 263.898 125.609C264.5 125.468 264.883 124.769 264.708 124.179C264.664 124.005 264.588 123.863 264.478 123.721C264.435 123.666 264.391 123.601 264.336 123.546C264.38 123.59 264.424 123.645 264.468 123.688C264.424 123.623 264.38 123.568 264.325 123.503C264.271 123.404 264.183 123.317 264.084 123.262C263.997 123.197 263.92 123.131 263.833 123.066C263.548 122.869 263.187 122.76 262.848 122.673C262.213 122.509 261.557 122.433 260.9 122.422C260.254 122.422 259.609 122.487 258.974 122.575C258.405 122.651 257.781 122.848 257.322 123.186C256.971 123.448 256.752 123.786 256.807 124.245C256.862 124.627 257.157 125.064 257.573 125.129Z" fill="#263238"/>
<path d="M245.499 122.1C245.356 122.012 245.203 121.936 245.061 121.871C244.93 121.816 244.579 121.63 244.842 121.772C244.744 121.718 244.645 121.663 244.547 121.619C244.109 121.401 243.649 121.248 243.179 121.128C242.15 120.866 241.056 120.801 239.994 120.91C238.867 121.03 237.827 121.303 236.853 121.892C236.711 121.98 236.569 122.056 236.459 122.176C236.383 122.274 236.306 122.373 236.23 122.471C236.251 122.438 236.273 122.405 236.295 122.373C235.989 122.58 235.814 122.929 235.825 123.29C235.825 123.639 236.011 123.934 236.317 124.097C236.689 124.305 237.039 124.207 237.411 124.097H236.842C237.16 124.152 237.379 124.163 237.696 124.097C237.707 124.097 238.002 124.021 237.805 124.065C237.619 124.108 238.112 124.032 238.167 124.021C238.232 124.021 238.571 123.977 238.21 124.021C238.276 124.021 238.342 124.01 238.407 123.999C238.582 123.977 238.747 123.956 238.922 123.945C239.666 123.89 240.41 123.857 241.165 123.825C241.854 123.803 242.566 123.792 243.266 123.825C243.562 123.836 243.857 123.846 244.153 123.857C244.317 123.857 244.251 123.89 244.131 123.857C244.196 123.879 244.251 123.89 244.317 123.901C244.437 123.934 244.557 123.977 244.678 124.021C245.159 124.207 245.739 123.857 245.914 123.41C246.111 122.929 245.947 122.373 245.488 122.1H245.499Z" fill="#263238"/>
<path d="M250.874 153.5C251.913 151.415 253.807 149.887 255.984 148.904C254.091 148.708 245.129 147.889 242.874 149.166C240.346 150.596 243.345 156.36 248.576 156.644C249.123 156.677 249.626 156.633 250.108 156.557C250.152 155.509 250.392 154.461 250.874 153.5Z" fill="#263238"/>
<path d="M209.494 141.383C209.494 141.383 210.402 144.887 215.611 148.948C220.82 153.009 228.371 155.989 228.371 155.989L228.973 153.358C228.973 153.358 221.16 149.974 217.537 146.24C213.915 142.518 213.467 140.477 213.467 140.477L209.505 141.383H209.494Z" fill="#DEE1EB"/>
<path d="M229.87 151.403C234.061 151.206 236.403 154.514 236.687 156.654C236.983 158.793 234.969 161.195 230.253 159.088C224.398 156.468 225.667 151.599 229.859 151.403H229.87Z" fill="#263238"/>
<path d="M212.775 115.52C212.775 115.52 214.581 102.54 223.303 93.7195C239.948 76.8972 254.097 77.9124 254.097 77.9124C254.097 77.9124 253.988 75.5435 248.658 73.7314C243.657 72.0394 241.414 72.9454 241.414 72.9454C241.414 72.9454 227.713 74.0698 216.168 86.8312C204.623 99.5925 203.375 115.858 203.375 115.858L212.775 115.52Z" fill="#E9E9E9"/>
<path d="M211.528 113.938C200.628 112.093 194.544 120.597 194.095 129.188C193.646 137.769 199.895 144.297 208.245 143.642C227.034 142.179 224.89 116.198 211.528 113.938Z" fill="white"/>
<path d="M206.1 135.293C203.222 135.293 200.792 133.852 199.402 131.309C197.914 128.591 198.034 125.239 199.72 122.772C199.851 122.587 200.103 122.543 200.289 122.663C200.475 122.794 200.529 123.045 200.398 123.231C198.888 125.447 198.779 128.46 200.125 130.916C201.394 133.241 203.648 134.562 206.318 134.475C208.814 134.409 210.926 133.274 212.261 131.276C213.793 128.994 214.143 125.851 213.158 123.252C212.173 120.676 209.492 118.929 207.052 119.246C206.833 119.279 206.625 119.115 206.592 118.897C206.559 118.678 206.723 118.471 206.942 118.438C209.798 118.056 212.797 120.01 213.924 122.969C215.007 125.807 214.614 129.246 212.939 131.734C211.44 133.961 209.098 135.228 206.34 135.293C206.264 135.293 206.187 135.293 206.111 135.293H206.1Z" fill="#676767"/>
<path d="M198.168 170.734C198.168 170.734 165.108 178.867 153.563 191.967C142.017 205.067 136.579 269.659 136.36 281.635C136.141 293.61 144.512 298.577 149.492 301.961C154.471 305.345 176.434 311.447 194.097 312.354C211.759 313.26 228.513 312.354 228.513 312.354C228.513 312.354 228.459 308.511 231.173 302.867C233.69 297.627 236.885 296.547 236.885 296.547L221.718 291.121C221.718 291.121 219.058 243.645 214.922 220.655C210.172 194.227 198.168 170.745 198.168 170.745V170.734Z" fill="#4E9C0B"/>
<path d="M252.957 283.534C252.88 283.534 252.804 283.523 252.738 283.49C252.464 283.37 252.333 283.043 252.464 282.77C255.561 275.794 258.768 262.116 260.573 252.509L260.727 251.734C261.274 248.907 261.952 245.403 260.595 242.968C259.906 241.735 258.341 239.049 256.831 236.473C255.266 233.798 253.8 231.266 253.384 230.513C252.585 229.039 255.102 225.098 258.735 219.694C259.72 218.232 260.563 216.976 261.055 216.125C262.346 213.887 261.493 211.845 260.486 209.466L260.147 208.647C259.238 206.431 258.21 204.215 257.214 202.064C256.809 201.191 256.404 200.307 255.999 199.423C255.463 198.254 254.938 197.065 254.39 195.864C251.195 188.746 247.879 181.389 243.644 174.282C243.491 174.02 243.578 173.692 243.83 173.529C244.093 173.376 244.421 173.463 244.585 173.714C248.853 180.876 252.18 188.266 255.386 195.405C255.923 196.606 256.459 197.796 256.984 198.953C257.389 199.837 257.794 200.711 258.199 201.584C259.195 203.745 260.234 205.972 261.143 208.21L261.482 209.018C262.5 211.431 263.55 213.941 261.985 216.638C261.471 217.522 260.617 218.799 259.621 220.273C257.728 223.089 253.789 228.952 254.325 229.967C254.73 230.709 256.196 233.231 257.75 235.894C259.26 238.482 260.825 241.167 261.526 242.412C263.08 245.184 262.357 248.918 261.777 251.909L261.624 252.684C260.967 256.177 257.477 274.08 253.438 283.185C253.351 283.392 253.143 283.512 252.935 283.512L252.957 283.534Z" fill="#297727"/>
<path d="M220.696 285.456C220.554 285.456 220.411 285.401 220.313 285.292C217.741 282.705 205.332 261.276 204.412 257.247C203.909 255.042 205.178 249.442 206.404 244.028C207.356 239.836 208.341 235.502 208.056 234.323C207.641 232.565 204.467 229.978 201.403 227.478C197.693 224.454 193.863 221.332 193.119 218.516C192.276 215.317 192.998 195.297 193.469 182.055C193.644 177.295 193.775 173.529 193.775 172.186C193.775 171.881 194.016 171.641 194.323 171.641C194.629 171.641 194.87 171.881 194.87 172.186C194.87 173.551 194.738 177.317 194.563 182.088C194.115 194.467 193.37 215.186 194.169 218.232C194.826 220.699 198.678 223.843 202.081 226.616C205.441 229.356 208.604 231.932 209.107 234.05C209.446 235.469 208.527 239.541 207.455 244.246C206.305 249.289 205.014 255.01 205.463 256.975C206.371 260.926 218.551 281.951 221.079 284.495C221.287 284.713 221.287 285.052 221.079 285.27C220.97 285.379 220.838 285.434 220.696 285.434V285.456Z" fill="#297727"/>
<path d="M176.213 276.079C176.213 276.079 176.158 276.079 176.136 276.079C175.841 276.035 175.633 275.762 175.666 275.457C176.07 272.618 182.352 216.071 182.636 211.737C182.658 211.432 182.921 211.202 183.216 211.224C183.523 211.246 183.742 211.508 183.731 211.803C183.446 216.136 177.154 272.76 176.749 275.598C176.705 275.871 176.475 276.068 176.213 276.068V276.079Z" fill="#297727"/>
<path d="M221.27 291.438C221.205 291.438 221.128 291.428 221.062 291.395C219.673 290.827 213.522 288.764 205.742 286.144C190.027 280.86 168.512 273.623 164.42 271.494C164.146 271.352 164.048 271.025 164.19 270.763C164.332 270.49 164.66 270.392 164.923 270.533C168.939 272.618 191.296 280.14 206.092 285.118C213.894 287.749 220.056 289.812 221.478 290.39C221.763 290.5 221.894 290.827 221.785 291.1C221.697 291.307 221.489 291.438 221.281 291.438H221.27Z" fill="#297727"/>
<path d="M213.711 313.96C199.879 313.96 173.079 311.471 152.713 304.288C152.429 304.19 152.276 303.873 152.385 303.589C152.484 303.306 152.801 303.153 153.085 303.262C178.813 312.344 214.806 313.895 221.503 312.388C221.799 312.323 222.094 312.508 222.16 312.803C222.225 313.098 222.039 313.392 221.744 313.458C220.299 313.785 217.487 313.96 213.733 313.96H213.711Z" fill="#297727"/>
<path d="M55.4328 178.352C59.7226 182.118 65.1615 184.53 68.926 188.886C70.4033 190.6 71.7384 192.423 73.1172 194.224C74.1131 195.534 76.7942 197.706 77.221 199.344C77.407 200.064 77.3742 199.082 77.1772 198.361C77.1772 198.329 77.1553 198.307 77.1444 198.274C76.7723 194.945 76.4987 191.604 76.3784 188.253C76.258 184.912 76.4659 181.561 76.258 178.231C75.9625 173.526 74.4852 168.974 70.6331 166.027C68.7509 164.586 66.3324 163.713 64.5924 162.108C62.9509 160.59 63.6075 158.855 64.5705 157.163C65.4788 155.58 66.5731 154.019 66.9233 152.196C67.3282 150.122 66.5403 147.982 65.4898 146.224C63.2464 142.469 58.2781 138.277 53.5615 138.845C49.6329 139.314 49.1842 143.834 49.2499 146.978C49.3046 150.034 49.611 153.091 49.6329 156.147C49.6657 159.291 49.1295 162.381 49.0857 165.514C49.0091 170.841 51.4823 174.902 55.4 178.341L55.4328 178.352Z" fill="#57B5F9"/>
<path d="M95.3198 227.236C96.5126 224.387 97.8915 221.734 99.5767 219.147C101.886 215.599 104.457 212.139 106.011 208.165C107.598 204.104 107.368 199.77 107.522 195.502C107.631 192.358 108.572 189.236 108.32 186.081C108.2 184.575 107.325 182.129 105.366 182.381C103.845 182.577 102.936 184.455 102.356 185.666C101.339 187.762 100.627 190 99.8722 192.205C99.5767 193.068 99.2922 193.941 98.9201 194.771C98.7013 195.251 98.0118 196.43 97.3552 196.277C96.239 196.004 97.2567 191.474 97.4209 190.666C98.2526 186.638 99.5001 182.894 99.6752 178.745C99.9269 172.73 99.4564 165.58 93.5579 162.283C92.0149 161.421 90.067 160.908 88.6006 162.196C87.156 163.462 86.7511 165.657 86.5323 167.469C85.8757 173.025 87.1889 178.276 88.9726 183.505C90.45 187.817 92.2009 192.271 92.3322 196.889C92.4526 201.331 90.1436 205.261 89.0492 209.464C87.3202 216.145 87.6704 219.693 87.6704 221.854C87.6704 224.562 87.7579 227.247 87.9549 229.954C88.141 232.443 88.3489 234.921 88.6553 237.399C88.7209 237.902 88.7757 238.426 88.8413 238.95C87.8783 236.646 87.55 234.015 86.7512 231.701C85.3395 227.596 83.7089 223.568 82.3519 219.442C81.2357 216.036 80.1742 212.597 78.7078 209.311C77.329 206.233 75.6546 202.98 73.072 200.72C71.5071 199.356 69.6248 198.559 67.5347 198.57C66.1996 198.57 64.9958 199.039 63.7264 199.377C62.1615 199.792 60.9249 199.65 59.6336 198.657C55.4095 195.415 54.1182 189.607 50.9993 185.503C48.6684 182.446 43.1311 177.228 39.0601 180.568C36.9043 182.337 36.3024 185.754 36.4228 188.385C36.5651 191.67 38.0096 194.683 39.7167 197.434C41.5443 200.36 43.8971 202.98 45.5714 205.982C46.5673 207.761 46.7205 209.464 46.5563 211.462C46.4031 213.351 46.239 215.174 46.8846 216.997C48.8216 222.466 54.8732 221.702 59.5789 221.844C62.8728 221.942 66.3966 222.433 69.5264 223.481C73.1376 224.693 75.4905 227.04 76.7818 230.599C77.712 233.175 78.2154 236.111 79.9772 238.295C80.8089 239.321 81.9033 240.085 83.107 240.62C84.9455 241.428 90.5375 241.777 90.5704 241.275C90.7126 239.572 91.5224 237.771 92.0258 236.155C92.9779 233.12 94.0941 230.162 95.3307 227.225L95.3198 227.236Z" fill="#57B5F9"/>
<path d="M121.289 226.209C120.808 223.087 120.895 219.637 119.418 216.766C119.309 216.559 119.035 216.504 118.838 216.614C117.777 217.203 117.733 218.917 117.645 219.965C117.503 221.712 117.612 223.458 117.394 225.194C117.022 228.251 116.31 231.394 115.205 234.265C113.957 237.519 111.692 239.363 108.398 240.379C106.286 241.034 104.207 241.601 102.434 242.999C100.847 244.254 99.753 245.979 98.9432 247.802C96.7436 252.725 95.693 258.216 94.6753 263.478C93.9859 267.015 93.4278 270.574 92.5632 274.078C91.6987 277.582 90.7795 281.064 90.287 284.645C90.1995 284.83 90.1119 285.005 90.0353 285.191C89.8055 285.726 90.6482 286.009 90.9327 285.573C94.3361 280.355 98.4726 275.661 104.13 272.79C106.68 271.491 110.073 271.218 112.206 269.176C113.826 267.626 114.045 265.257 113.804 263.14C113.487 260.367 112.152 258.085 110.762 255.716C109.996 254.417 109.099 253.031 109.405 251.448C109.7 249.963 110.937 248.861 112.163 248.097C114.516 246.645 117.262 245.99 119.177 243.894C120.961 241.951 121.957 239.516 122.154 236.896C122.417 233.403 121.815 229.648 121.279 226.198L121.289 226.209Z" fill="#57B5F9"/>
<path d="M74.9208 244.233C71.9223 240.379 68.3001 237.05 64.2292 234.354C62.0514 232.913 56.93 230.074 55.8903 234.321C55.2885 236.81 57.7288 239.255 59.3375 240.816C61.756 243.163 64.5465 245.183 66.582 247.89C64.0541 248.698 61.4167 248.851 59.2281 250.586C56.6345 252.65 55.4636 256.623 58.0462 259.156C59.3047 260.389 60.968 261.143 62.522 261.896C64.5575 262.878 66.6257 263.762 68.705 264.636C73.2027 266.513 77.7551 268.413 81.5853 271.48C85.492 274.603 89.169 279.897 89.4754 284.995C89.5082 285.486 89.3222 285.039 89.6067 284.82C89.7709 284.962 90.2961 284.711 90.2961 284.427C90.2195 276.862 88.8516 269.646 85.7547 262.715C82.8766 256.285 79.2543 249.811 74.9208 244.244V244.233Z" fill="#57B5F9"/>
<path d="M64.5587 173.766C66.2111 177.193 67.9401 180.545 69.7786 183.885C71.5514 187.106 73.3133 190.293 74.6375 193.732C76.268 197.956 77.9752 202.116 79.6933 206.308C81.488 210.663 83.0857 215.095 84.3661 219.626C86.8721 228.468 88.7325 237.561 89.6517 246.709C90.1223 251.36 90.3302 256.032 90.1989 260.704C90.1004 264.35 89.6845 267.964 89.3453 271.599C88.9841 275.376 88.7324 279.208 89.0498 282.996C89.3124 286.161 89.8158 289.939 92.289 292.198C92.7705 292.646 93.46 292.089 93.1754 291.521C90.2426 285.528 90.4068 278.989 90.9649 272.494C91.2713 268.903 91.6981 265.333 91.8294 261.73C91.9826 257.145 91.8075 252.55 91.3698 247.987C90.5162 239.013 88.7215 230.149 86.4015 221.449C85.2087 216.984 83.7313 212.606 82.0351 208.316C80.328 204.015 78.3582 199.823 76.7057 195.5C73.7182 187.673 69.1658 180.741 65.1277 173.449C64.9198 173.067 64.3726 173.405 64.5477 173.787L64.5587 173.766Z" fill="#8D8D8D"/>
<path d="M89.8033 237.737C90.2739 232.039 90.7882 226.548 92.7033 221.122C93.6007 218.59 94.6841 216.122 95.5595 213.579C96.2708 211.472 97.3433 208.59 96.7961 206.352C96.7305 206.101 96.3693 206.112 96.3037 206.352C95.9316 207.629 95.9754 209.027 95.7127 210.337C95.4501 211.614 95.1109 212.858 94.7169 214.103C93.8743 216.734 92.769 219.255 91.8169 221.854C89.9675 226.864 89.0154 232.41 89.4203 237.737C89.4422 237.988 89.7924 237.988 89.8143 237.737H89.8033Z" fill="#8D8D8D"/>
<path d="M56.7034 204.997C58.9687 210.455 65.7864 210.771 70.7547 211.994C74.3003 212.867 76.9158 215.225 78.798 218.293C80.8553 221.644 82.2452 225.574 83.3942 229.318C83.4051 229.362 83.4708 229.34 83.4599 229.297C82.0701 222.747 80.0784 214.865 73.3154 211.819C67.8875 209.374 60.7415 210.608 57.2834 204.756C57.1083 204.473 56.5831 204.658 56.7253 204.997H56.7034Z" fill="#8D8D8D"/>
<path d="M86.21 236.875C86.4836 237.235 86.7244 237.617 87.0089 237.977C87.1511 238.152 87.2825 238.315 87.4576 238.457C87.6327 238.599 87.8406 238.785 88.0923 238.774C88.1908 238.774 88.2674 238.654 88.2126 238.567C88.1032 238.381 87.8953 238.272 87.7421 238.141C87.5779 237.999 87.4138 237.857 87.2606 237.704C86.9432 237.409 86.6587 237.082 86.3413 236.776C86.2866 236.722 86.1662 236.798 86.221 236.875H86.21Z" fill="#8D8D8D"/>
<path d="M72.0469 254.21C75.9537 257.409 79.565 261.197 82.4321 265.356C83.8 267.343 85.0695 269.439 86.2185 271.557C87.4661 273.871 88.2977 276.316 89.2717 278.751C89.3483 278.936 89.6876 278.936 89.6547 278.696C89.1076 273.554 85.8464 269.155 83.2419 264.876C81.885 262.66 80.1997 260.869 78.3831 259.014C76.5118 257.103 74.5967 255.291 72.408 253.752C72.1454 253.566 71.7952 254.003 72.0579 254.21H72.0469Z" fill="#8D8D8D"/>
<path d="M103.175 248.151C101.293 249.221 101.227 252.179 101.194 254.079C101.129 257.725 102.026 261.142 100.428 264.613C98.9837 267.746 96.6747 270.366 94.8581 273.27C93.1619 275.999 91.4766 279.481 91.5204 282.756C91.5204 282.942 91.8158 283.051 91.9034 282.854C92.5928 281.37 92.8336 279.678 93.326 278.117C93.8732 276.359 94.6502 274.765 95.646 273.226C97.3969 270.519 99.5418 268.063 100.964 265.159C102.464 262.091 102.245 259.057 102.146 255.738C102.081 253.62 101.873 250.214 103.58 248.642C103.843 248.391 103.503 247.976 103.197 248.151H103.175Z" fill="#8D8D8D"/>
<path d="M90.5867 283.096C83.003 282.987 68.5469 282.91 68.5469 282.91L72.1253 309.393C72.9351 315.354 78.0238 319.797 84.0536 319.797H97.1199C103.15 319.797 108.249 315.354 109.048 309.393L112.627 282.91C112.627 282.91 98.1705 282.998 90.5867 283.096Z" fill="white"/>
<path d="M457.306 234.434L414.025 319.954L287.838 320.86L326.774 233.223L457.306 234.434Z" fill="#F6F7FA"/>
<path d="M204.094 320.322L204.116 313.477H285.808L323.387 231.266H454.028L457.311 234.431H329.69L290.634 320.257C290.634 320.257 204.094 320.104 204.094 320.322Z" fill="#D9DEE8"/>
<path d="M391.78 281.622C390.357 285.89 382.62 289.187 374.5 288.979C366.38 288.772 360.952 285.159 362.386 280.89C363.809 276.622 371.545 273.325 379.665 273.533C387.785 273.74 393.213 277.353 391.78 281.622Z" fill="#D9DEE8"/>
<path d="M290.638 320.8C290.561 320.8 290.485 320.79 290.408 320.757C290.135 320.637 290.014 320.309 290.135 320.036L329.333 233.895H457.305C457.611 233.895 457.852 234.135 457.852 234.44C457.852 234.746 457.611 234.986 457.305 234.986H330.034L291.119 320.495C291.032 320.691 290.824 320.811 290.616 320.811L290.638 320.8Z" fill="white"/>
<path d="M198.391 326.805H48.2812V360.002H198.391V326.805Z" fill="#4097D6"/>
<path d="M467.618 326.805H197.537V360.002H467.618V326.805Z" fill="#57B5F9"/>
<g style="mix-blend-mode:multiply">
<path d="M198.395 326.805H197.541H48.2852V332.896H197.541H198.395H467.622V326.805H198.395Z" fill="#BDC4D7"/>
</g>
<path d="M204.963 320.254H41.043V328.387H204.963V320.254Z" fill="#4097D6"/>
<path d="M474.193 320.254H204.111V328.387H474.193V320.254Z" fill="#57B5F9"/>
<path d="M160.504 107.82H107.516C104.235 107.82 101.574 110.474 101.574 113.748V140.133C101.574 143.407 104.235 146.061 107.516 146.061H160.504C163.786 146.061 166.446 143.407 166.446 140.133V113.748C166.446 110.474 163.786 107.82 160.504 107.82Z" fill="white"/>
<path d="M181.548 126.935L161.643 118.562V135.319L181.548 126.935Z" fill="white"/>
<path d="M121.436 130.591C123.46 130.591 125.102 128.954 125.102 126.934C125.102 124.915 123.46 123.277 121.436 123.277C119.411 123.277 117.77 124.915 117.77 126.934C117.77 128.954 119.411 130.591 121.436 130.591Z" fill="#223A7A"/>
<path d="M134.012 130.591C136.036 130.591 137.678 128.954 137.678 126.934C137.678 124.915 136.036 123.277 134.012 123.277C131.987 123.277 130.346 124.915 130.346 126.934C130.346 128.954 131.987 130.591 134.012 130.591Z" fill="#223A7A"/>
<path d="M146.572 130.591C148.597 130.591 150.238 128.954 150.238 126.934C150.238 124.915 148.597 123.277 146.572 123.277C144.548 123.277 142.906 124.915 142.906 126.934C142.906 128.954 144.548 130.591 146.572 130.591Z" fill="#223A7A"/>
<path d="M430.288 26.6367H307.953C300.096 26.6367 293.727 32.9901 293.727 40.8281V98.7181C293.727 106.556 300.096 112.909 307.953 112.909H318.918C319.225 118.16 318.469 125.966 314.081 135.943C328.22 129.437 336.351 119.678 340.608 112.909H430.299C438.157 112.909 444.526 106.556 444.526 98.7181V40.8281C444.526 32.9901 438.157 26.6367 430.299 26.6367H430.288Z" fill="#91D1FF"/>
<path d="M378.096 54.2329H317.415C315.751 54.2329 314.395 52.8793 314.395 51.22C314.395 49.5607 315.751 48.207 317.415 48.207H378.096C379.759 48.207 381.116 49.5498 381.116 51.22C381.116 52.8793 379.77 54.2329 378.096 54.2329Z" fill="white"/>
<path d="M421.606 71.7757H316.244C315.226 71.7757 314.395 70.9461 314.395 69.9308C314.395 68.9156 315.226 68.0859 316.244 68.0859H421.606C422.624 68.0859 423.456 68.9156 423.456 69.9308C423.456 70.9461 422.624 71.7757 421.606 71.7757Z" fill="#FFEFD6"/>
<path d="M421.606 82.0179H316.244C315.226 82.0179 314.395 81.1882 314.395 80.173C314.395 79.1578 315.226 78.3281 316.244 78.3281H421.606C422.624 78.3281 423.456 79.1578 423.456 80.173C423.456 81.1882 422.624 82.0179 421.606 82.0179Z" fill="#FFEFD6"/>
<path d="M398.628 92.932H316.258C315.24 92.932 314.408 92.1023 314.408 91.0871C314.408 90.0718 315.24 89.2422 316.258 89.2422H398.628C399.646 89.2422 400.477 90.0718 400.477 91.0871C400.477 92.1023 399.646 92.932 398.628 92.932Z" fill="#FFEFD6"/>
<path d="M420.78 54.2329H391.835C390.171 54.2329 388.814 52.8793 388.814 51.22C388.814 49.5607 390.171 48.207 391.835 48.207H420.78C422.443 48.207 423.8 49.5498 423.8 51.22C423.8 52.8793 422.443 54.2329 420.78 54.2329Z" fill="white"/>
<path d="M347.813 160.617H314.95C313.742 160.617 312.762 161.595 312.762 162.8V185.201C312.762 186.407 313.742 187.384 314.95 187.384H347.813C349.022 187.384 350.002 186.407 350.002 185.201V162.8C350.002 161.595 349.022 160.617 347.813 160.617Z" fill="white"/>
<path d="M331.606 177.992C331.42 177.992 331.234 177.926 331.081 177.806L313.189 163.069C312.839 162.785 312.795 162.261 313.079 161.912C313.375 161.562 313.889 161.519 314.239 161.803L331.595 176.103L348.503 161.431C348.842 161.137 349.367 161.169 349.663 161.508C349.958 161.846 349.926 162.37 349.586 162.665L332.154 177.795C332 177.926 331.803 177.992 331.617 177.992H331.606Z" fill="#6F7FA9"/>
<path d="M313.722 186.758C313.514 186.758 313.317 186.682 313.153 186.529C312.825 186.212 312.814 185.699 313.12 185.372L325.629 172.25C325.935 171.923 326.46 171.912 326.789 172.217C327.117 172.534 327.128 173.047 326.821 173.375L314.313 186.496C314.149 186.66 313.941 186.747 313.722 186.747V186.758Z" fill="#6F7FA9"/>
<path d="M349.05 186.281C348.842 186.281 348.634 186.205 348.47 186.041L336.006 173.574C335.688 173.258 335.688 172.734 336.006 172.417C336.323 172.101 336.848 172.101 337.166 172.417L349.63 184.884C349.947 185.2 349.947 185.724 349.63 186.041C349.466 186.205 349.258 186.281 349.05 186.281Z" fill="#6F7FA9"/>
<path d="M351.705 170.734C357.767 170.734 362.681 165.832 362.681 159.785C362.681 153.738 357.767 148.836 351.705 148.836C345.643 148.836 340.729 153.738 340.729 159.785C340.729 165.832 345.643 170.734 351.705 170.734Z" fill="#FF5F42"/>
<path d="M349.059 159.754L349.033 159.452C349.366 159.601 349.655 159.793 349.9 160.029C350.145 160.265 350.333 160.522 350.464 160.802C350.596 161.081 350.661 161.369 350.661 161.666C350.661 162.164 350.521 162.623 350.241 163.042C349.97 163.452 349.602 163.784 349.138 164.037C348.674 164.282 348.158 164.404 347.589 164.404C347.019 164.404 346.503 164.282 346.039 164.037C345.575 163.784 345.203 163.452 344.923 163.042C344.651 162.623 344.516 162.164 344.516 161.666C344.516 161.265 344.599 160.92 344.765 160.631C344.94 160.335 345.155 160.086 345.409 159.885C345.671 159.684 345.93 159.518 346.183 159.387L346.078 159.754C345.859 159.666 345.645 159.544 345.435 159.387C345.234 159.221 345.067 159.011 344.936 158.758C344.805 158.505 344.739 158.208 344.739 157.867C344.739 157.378 344.866 156.937 345.12 156.544C345.374 156.143 345.715 155.824 346.144 155.588C346.582 155.352 347.063 155.234 347.589 155.234C348.123 155.234 348.6 155.352 349.02 155.588C349.449 155.824 349.79 156.143 350.044 156.544C350.298 156.937 350.425 157.378 350.425 157.867C350.425 158.243 350.351 158.557 350.202 158.811C350.053 159.064 349.873 159.265 349.663 159.413C349.453 159.562 349.252 159.675 349.059 159.754ZM346.315 157.894C346.315 158.129 346.367 158.339 346.472 158.522C346.586 158.706 346.739 158.854 346.932 158.968C347.125 159.073 347.343 159.125 347.589 159.125C347.834 159.125 348.048 159.073 348.232 158.968C348.425 158.854 348.573 158.706 348.678 158.522C348.792 158.339 348.849 158.129 348.849 157.894C348.849 157.544 348.727 157.256 348.481 157.029C348.245 156.793 347.947 156.675 347.589 156.675C347.221 156.675 346.914 156.793 346.669 157.029C346.433 157.256 346.315 157.544 346.315 157.894ZM347.589 162.963C348.009 162.963 348.363 162.837 348.652 162.583C348.941 162.321 349.086 162.007 349.086 161.64C349.086 161.387 349.02 161.16 348.889 160.959C348.757 160.758 348.578 160.601 348.35 160.487C348.123 160.365 347.869 160.304 347.589 160.304C347.308 160.304 347.054 160.365 346.827 160.487C346.599 160.601 346.42 160.758 346.288 160.959C346.157 161.16 346.091 161.387 346.091 161.64C346.091 162.007 346.236 162.321 346.525 162.583C346.814 162.837 347.168 162.963 347.589 162.963Z" fill="white"/>
<path d="M354.35 164.535C354.026 164.535 353.68 164.487 353.312 164.391C352.944 164.286 352.642 164.138 352.406 163.946C352.292 163.85 352.2 163.727 352.13 163.579C352.069 163.422 352.038 163.273 352.038 163.134C352.038 162.985 352.1 162.845 352.222 162.714C352.353 162.583 352.537 162.518 352.774 162.518C352.931 162.518 353.128 162.601 353.365 162.767C353.505 162.854 353.658 162.933 353.824 163.003C353.991 163.072 354.161 163.107 354.336 163.107C354.757 163.107 355.12 163.033 355.426 162.885C355.733 162.727 355.969 162.513 356.135 162.243C356.302 161.972 356.385 161.653 356.385 161.286C356.385 160.955 356.306 160.671 356.149 160.435C356 160.199 355.798 160.016 355.545 159.885C355.299 159.754 355.032 159.688 354.743 159.688C354.472 159.688 354.236 159.732 354.034 159.819C353.833 159.907 353.649 159.998 353.483 160.094C353.316 160.182 353.15 160.225 352.984 160.225C352.695 160.225 352.48 160.164 352.34 160.042C352.2 159.911 352.113 159.758 352.078 159.583C352.043 159.409 352.034 159.252 352.051 159.112L352.459 155.929C352.494 155.745 352.581 155.597 352.721 155.483C352.87 155.361 353.045 155.3 353.246 155.3H357.042C357.252 155.3 357.427 155.37 357.567 155.509C357.707 155.649 357.777 155.824 357.777 156.033C357.777 156.234 357.707 156.405 357.567 156.544C357.427 156.675 357.252 156.741 357.042 156.741H353.654L353.798 156.623L353.443 159.282L353.273 158.784C353.325 158.697 353.439 158.614 353.614 158.536C353.789 158.457 353.991 158.391 354.218 158.339C354.446 158.278 354.669 158.247 354.888 158.247C355.475 158.247 356 158.383 356.464 158.653C356.928 158.915 357.291 159.278 357.554 159.741C357.825 160.195 357.961 160.71 357.961 161.286C357.961 161.941 357.812 162.513 357.514 163.003C357.217 163.492 356.796 163.871 356.254 164.142C355.72 164.404 355.085 164.535 354.35 164.535Z" fill="white"/>
<path d="M462.021 137H397.871C395.454 137 393.494 138.955 393.494 141.367V151.377C393.494 153.789 395.454 155.744 397.871 155.744H462.021C464.439 155.744 466.399 153.789 466.399 151.377V141.367C466.399 138.955 464.439 137 462.021 137Z" fill="#90D1FF"/>
<path d="M402.498 151.287C402.214 151.287 401.984 151.188 401.809 150.981C401.634 150.773 401.557 150.522 401.579 150.217L401.852 147.793C401.874 147.728 401.852 147.695 401.82 147.673C401.776 147.651 401.732 147.673 401.666 147.706L399.664 149.147C399.412 149.333 399.16 149.398 398.898 149.343C398.635 149.289 398.416 149.136 398.252 148.863C398.066 148.536 398.033 148.252 398.143 148.001C398.252 147.75 398.449 147.586 398.712 147.477L400.955 146.461C401.021 146.44 401.043 146.407 401.043 146.374C401.043 146.341 401.01 146.298 400.955 146.287L398.712 145.272C398.427 145.151 398.241 144.955 398.154 144.693C398.077 144.431 398.099 144.158 398.241 143.896C398.405 143.634 398.624 143.47 398.887 143.416C399.149 143.361 399.412 143.416 399.653 143.58L401.655 145.053C401.721 145.097 401.765 145.108 401.809 145.086C401.852 145.064 401.863 145.021 401.841 144.966L401.568 142.542C401.546 142.237 401.634 141.975 401.82 141.778C402.006 141.571 402.246 141.473 402.564 141.473C402.848 141.473 403.089 141.571 403.275 141.778C403.461 141.986 403.527 142.237 403.494 142.542L403.22 144.966C403.198 145.031 403.22 145.064 403.253 145.086C403.297 145.108 403.341 145.086 403.406 145.053L405.409 143.612C405.65 143.427 405.912 143.361 406.197 143.416C406.47 143.47 406.678 143.623 406.832 143.896C407.018 144.224 407.05 144.507 406.941 144.759C406.832 144.999 406.635 145.173 406.372 145.282L404.129 146.298C404.063 146.32 404.041 146.352 404.041 146.385C404.041 146.418 404.074 146.461 404.129 146.472L406.372 147.488C406.657 147.608 406.853 147.804 406.941 148.066C407.029 148.328 406.996 148.601 406.832 148.863C406.689 149.125 406.481 149.289 406.197 149.343C405.923 149.398 405.661 149.343 405.409 149.18L403.406 147.706C403.341 147.662 403.297 147.651 403.253 147.673C403.209 147.695 403.198 147.739 403.22 147.793L403.494 150.217C403.538 150.522 403.461 150.784 403.264 150.981C403.067 151.188 402.815 151.287 402.509 151.287H402.498Z" fill="white"/>
<path d="M415.768 151.287C415.483 151.287 415.253 151.188 415.078 150.981C414.903 150.773 414.826 150.522 414.848 150.217L415.122 147.793C415.144 147.728 415.122 147.695 415.089 147.673C415.045 147.651 415.002 147.673 414.936 147.706L412.933 149.147C412.682 149.333 412.43 149.398 412.167 149.343C411.905 149.289 411.686 149.136 411.522 148.863C411.336 148.536 411.303 148.252 411.412 148.001C411.522 147.75 411.719 147.586 411.981 147.477L414.225 146.461C414.29 146.44 414.312 146.407 414.312 146.374C414.312 146.341 414.279 146.298 414.225 146.287L411.981 145.272C411.697 145.151 411.511 144.955 411.423 144.693C411.346 144.431 411.368 144.158 411.511 143.896C411.675 143.634 411.894 143.47 412.156 143.416C412.419 143.361 412.682 143.416 412.922 143.58L414.925 145.053C414.991 145.097 415.034 145.108 415.078 145.086C415.122 145.064 415.133 145.021 415.111 144.966L414.837 142.542C414.816 142.237 414.903 141.975 415.089 141.778C415.275 141.571 415.516 141.473 415.833 141.473C416.118 141.473 416.359 141.571 416.545 141.778C416.731 141.986 416.796 142.237 416.763 142.542L416.49 144.966C416.468 145.031 416.479 145.064 416.523 145.086C416.566 145.108 416.61 145.086 416.676 145.053L418.679 143.612C418.919 143.427 419.182 143.361 419.466 143.416C419.74 143.47 419.948 143.623 420.101 143.896C420.287 144.224 420.32 144.507 420.211 144.759C420.101 144.999 419.904 145.173 419.642 145.282L417.398 146.298C417.332 146.32 417.311 146.352 417.311 146.385C417.311 146.418 417.343 146.461 417.398 146.472L419.642 147.488C419.926 147.608 420.123 147.804 420.211 148.066C420.298 148.328 420.265 148.601 420.101 148.863C419.959 149.125 419.751 149.289 419.466 149.343C419.193 149.398 418.93 149.343 418.679 149.18L416.676 147.706C416.61 147.662 416.566 147.651 416.523 147.673C416.479 147.695 416.468 147.739 416.49 147.793L416.763 150.217C416.807 150.522 416.731 150.784 416.534 150.981C416.337 151.188 416.085 151.287 415.779 151.287H415.768Z" fill="white"/>
<path d="M429.035 151.287C428.751 151.287 428.521 151.188 428.346 150.981C428.171 150.773 428.094 150.522 428.116 150.217L428.39 147.793C428.411 147.728 428.39 147.695 428.357 147.673C428.313 147.651 428.269 147.673 428.203 147.706L426.201 149.147C425.949 149.333 425.697 149.398 425.435 149.343C425.172 149.289 424.953 149.136 424.789 148.863C424.603 148.536 424.57 148.252 424.68 148.001C424.789 147.75 424.986 147.586 425.249 147.477L427.492 146.461C427.558 146.44 427.58 146.407 427.58 146.374C427.58 146.341 427.547 146.298 427.492 146.287L425.249 145.272C424.964 145.151 424.778 144.955 424.691 144.693C424.614 144.431 424.636 144.158 424.778 143.896C424.942 143.634 425.161 143.47 425.424 143.416C425.686 143.361 425.949 143.416 426.19 143.58L428.193 145.053C428.258 145.097 428.302 145.108 428.346 145.086C428.39 145.064 428.4 145.021 428.379 144.966L428.105 142.542C428.083 142.237 428.171 141.975 428.357 141.778C428.543 141.571 428.783 141.473 429.101 141.473C429.385 141.473 429.626 141.571 429.812 141.778C429.998 141.986 430.064 142.237 430.031 142.542L429.757 144.966C429.736 145.031 429.746 145.064 429.79 145.086C429.834 145.108 429.878 145.086 429.943 145.053L431.946 143.612C432.187 143.427 432.449 143.361 432.734 143.416C433.008 143.47 433.216 143.623 433.369 143.896C433.555 144.224 433.588 144.507 433.478 144.759C433.369 144.999 433.172 145.173 432.909 145.282L430.666 146.298C430.6 146.32 430.578 146.352 430.578 146.385C430.578 146.418 430.611 146.461 430.666 146.472L432.909 147.488C433.194 147.608 433.391 147.804 433.478 148.066C433.566 148.328 433.533 148.601 433.369 148.863C433.226 149.125 433.019 149.289 432.734 149.343C432.46 149.398 432.198 149.343 431.946 149.18L429.943 147.706C429.878 147.662 429.834 147.651 429.79 147.673C429.746 147.695 429.736 147.739 429.757 147.793L430.031 150.217C430.075 150.522 429.998 150.784 429.801 150.981C429.604 151.188 429.352 151.287 429.046 151.287H429.035Z" fill="white"/>
<path d="M442.301 151.287C442.016 151.287 441.786 151.188 441.611 150.981C441.436 150.773 441.36 150.522 441.382 150.217L441.655 147.793C441.677 147.728 441.655 147.695 441.622 147.673C441.579 147.651 441.535 147.673 441.469 147.706L439.466 149.147C439.215 149.333 438.963 149.398 438.7 149.343C438.438 149.289 438.219 149.136 438.055 148.863C437.869 148.536 437.836 148.252 437.945 148.001C438.055 147.75 438.252 147.586 438.514 147.477L440.758 146.461C440.823 146.44 440.845 146.407 440.845 146.374C440.845 146.341 440.812 146.298 440.758 146.287L438.514 145.272C438.23 145.151 438.044 144.955 437.956 144.693C437.88 144.431 437.902 144.158 438.044 143.896C438.208 143.634 438.427 143.47 438.69 143.416C438.952 143.361 439.215 143.416 439.456 143.58L441.458 145.053C441.524 145.097 441.568 145.108 441.611 145.086C441.655 145.064 441.666 145.021 441.644 144.966L441.371 142.542C441.349 142.237 441.436 141.975 441.622 141.778C441.808 141.571 442.049 141.473 442.366 141.473C442.651 141.473 442.892 141.571 443.078 141.778C443.264 141.986 443.329 142.237 443.297 142.542L443.023 144.966C443.001 145.031 443.012 145.064 443.056 145.086C443.1 145.108 443.143 145.086 443.209 145.053L445.212 143.612C445.452 143.427 445.715 143.361 446 143.416C446.273 143.47 446.481 143.623 446.634 143.896C446.82 144.224 446.853 144.507 446.744 144.759C446.634 144.999 446.437 145.173 446.175 145.282L443.931 146.298C443.866 146.32 443.844 146.352 443.844 146.385C443.844 146.418 443.877 146.461 443.931 146.472L446.175 147.488C446.459 147.608 446.656 147.804 446.744 148.066C446.831 148.328 446.798 148.601 446.634 148.863C446.492 149.125 446.284 149.289 446 149.343C445.726 149.398 445.463 149.343 445.212 149.18L443.209 147.706C443.143 147.662 443.1 147.651 443.056 147.673C443.012 147.695 443.001 147.739 443.023 147.793L443.297 150.217C443.34 150.522 443.264 150.784 443.067 150.981C442.87 151.188 442.618 151.287 442.312 151.287H442.301Z" fill="white"/>
<path d="M455.576 151.287C455.292 151.287 455.062 151.188 454.887 150.981C454.712 150.773 454.635 150.522 454.657 150.217L454.931 147.793C454.952 147.728 454.931 147.695 454.898 147.673C454.854 147.651 454.81 147.673 454.744 147.706L452.742 149.147C452.49 149.333 452.238 149.398 451.976 149.343C451.713 149.289 451.494 149.136 451.33 148.863C451.144 148.536 451.111 148.252 451.221 148.001C451.33 147.75 451.527 147.586 451.79 147.477L454.033 146.461C454.099 146.44 454.121 146.407 454.121 146.374C454.121 146.341 454.088 146.298 454.033 146.287L451.79 145.272C451.505 145.151 451.319 144.955 451.232 144.693C451.155 144.431 451.177 144.158 451.319 143.896C451.483 143.634 451.702 143.47 451.965 143.416C452.228 143.361 452.49 143.416 452.731 143.58L454.734 145.053C454.799 145.097 454.843 145.108 454.887 145.086C454.931 145.064 454.941 145.021 454.92 144.966L454.646 142.542C454.624 142.237 454.712 141.975 454.898 141.778C455.084 141.571 455.324 141.473 455.642 141.473C455.926 141.473 456.167 141.571 456.353 141.778C456.539 141.986 456.605 142.237 456.572 142.542L456.298 144.966C456.277 145.031 456.287 145.064 456.331 145.086C456.375 145.108 456.419 145.086 456.484 145.053L458.487 143.612C458.728 143.427 458.991 143.361 459.275 143.416C459.549 143.47 459.757 143.623 459.91 143.896C460.096 144.224 460.129 144.507 460.019 144.759C459.91 144.999 459.713 145.173 459.45 145.282L457.207 146.298C457.141 146.32 457.119 146.352 457.119 146.385C457.119 146.418 457.152 146.461 457.207 146.472L459.45 147.488C459.735 147.608 459.932 147.804 460.019 148.066C460.107 148.328 460.074 148.601 459.91 148.863C459.767 149.125 459.56 149.289 459.275 149.343C459.001 149.398 458.739 149.343 458.487 149.18L456.484 147.706C456.419 147.662 456.375 147.651 456.331 147.673C456.287 147.695 456.277 147.739 456.298 147.793L456.572 150.217C456.616 150.522 456.539 150.784 456.342 150.981C456.145 151.188 455.894 151.287 455.587 151.287H455.576Z" fill="#6AA636"/>
</svg>
