<svg width="52" height="52" viewBox="0 0 52 52" fill="none" xmlns="http://www.w3.org/2000/svg">
<g filter="url(#filter0_d_1382_54009)">
<path d="M26 43C37.0457 43 46 34.0457 46 23C46 11.9543 37.0457 3 26 3C14.9543 3 6 11.9543 6 23C6 34.0457 14.9543 43 26 43Z" fill="white"/>
</g>
<path d="M25.0181 33.0407C24.3905 32.9499 23.7976 32.6965 23.2983 32.3056C23.1001 32.1756 22.9341 32.002 22.8131 31.7981C22.6921 31.5941 22.6193 31.3653 22.6003 31.1289C22.6003 30.6229 23.0638 30.3925 23.4931 30.2923C24.8446 30.1867 26.2023 30.1867 27.5539 30.2923C27.9831 30.3911 28.4467 30.6229 28.4467 31.1289C28.4278 31.3653 28.3552 31.5943 28.2345 31.7985C28.1138 32.0026 27.9481 32.1765 27.75 32.307C27.2508 32.6971 26.6585 32.9504 26.0316 33.0421C25.8615 33.064 25.6902 33.075 25.5187 33.075C25.3512 33.0749 25.184 33.0635 25.0181 33.0407ZM20.7845 28.8057C19.673 28.7059 18.6368 28.2013 17.873 27.3877C17.3057 26.7222 16.9979 25.8743 17.0062 25C16.9546 24.1627 17.2161 23.3361 17.7399 22.6809C18.1052 22.3035 18.3885 21.8547 18.5722 21.3627C18.7558 20.8706 18.8357 20.3459 18.8069 19.8215V19.3936C18.7382 17.9872 19.1975 16.6059 20.0947 15.5207C20.7581 14.7345 21.5844 14.1019 22.5164 13.6667C23.4485 13.2314 24.464 13.004 25.4926 13H25.5831C26.636 13.0027 27.675 13.2407 28.6241 13.6965C29.5732 14.1523 30.4085 14.8145 31.0689 15.6345C31.9145 16.699 32.3413 18.0361 32.2689 19.3936V19.8215C32.2453 20.3452 32.3276 20.8684 32.5106 21.3597C32.6937 21.8509 32.9739 22.3003 33.3345 22.6809C33.8587 23.3359 34.1202 24.1627 34.0682 25C34.0765 25.8743 33.7687 26.7222 33.2014 27.3877C32.4377 28.2007 31.4022 28.7052 30.2913 28.8057C28.7141 28.9429 27.137 29.0526 25.5365 29.0526C23.9491 29.0605 22.3626 28.9781 20.7845 28.8057Z" fill="#1985D2"/>
<defs>
<filter id="filter0_d_1382_54009" x="0" y="0" width="52" height="52" filterUnits="userSpaceOnUse" color-interpolation-filters="sRGB">
<feFlood flood-opacity="0" result="BackgroundImageFix"/>
<feColorMatrix in="SourceAlpha" type="matrix" values="0 0 0 0 0 0 0 0 0 0 0 0 0 0 0 0 0 0 127 0" result="hardAlpha"/>
<feOffset dy="3"/>
<feGaussianBlur stdDeviation="3"/>
<feColorMatrix type="matrix" values="0 0 0 0 0 0 0 0 0 0 0 0 0 0 0 0 0 0 0.129 0"/>
<feBlend mode="normal" in2="BackgroundImageFix" result="effect1_dropShadow_1382_54009"/>
<feBlend mode="normal" in="SourceGraphic" in2="effect1_dropShadow_1382_54009" result="shape"/>
</filter>
</defs>
</svg>
