<svg width="64" height="64" viewBox="0 0 64 64" fill="none" xmlns="http://www.w3.org/2000/svg">
<path d="M51.2801 40.693L44.5068 39.9197C43.7103 39.8262 42.9031 39.9143 42.1456 40.1776C41.3881 40.4409 40.7002 40.8724 40.1334 41.4397L35.2268 46.3464C27.6566 42.4963 21.5035 36.3432 17.6534 28.773L22.5868 23.8397C23.7334 22.693 24.2934 21.093 24.1068 19.4664L23.3334 12.7464C23.1823 11.4455 22.558 10.2457 21.5794 9.3753C20.6009 8.50493 19.3364 8.02481 18.0268 8.02637H13.4134C10.4001 8.02637 7.89344 10.533 8.08011 13.5464C9.49344 36.3197 27.7068 54.5064 50.4534 55.9197C53.4668 56.1064 55.9734 53.5997 55.9734 50.5864V45.973C56.0001 43.2797 53.9734 41.013 51.2801 40.693Z" fill="white"/>
</svg>
