<svg width="64" height="64" viewBox="0 0 64 64" fill="none" xmlns="http://www.w3.org/2000/svg">
<path d="M53.333 10.667H10.6663C7.73301 10.667 5.35967 13.067 5.35967 16.0003L5.33301 48.0003C5.33301 50.9337 7.73301 53.3337 10.6663 53.3337H53.333C56.2663 53.3337 58.6663 50.9337 58.6663 48.0003V16.0003C58.6663 13.067 56.2663 10.667 53.333 10.667ZM52.2663 22.0003L33.413 33.787C32.5597 34.3203 31.4397 34.3203 30.5863 33.787L11.733 22.0003C11.4656 21.8502 11.2315 21.6474 11.0447 21.4042C10.858 21.161 10.7225 20.8824 10.6465 20.5853C10.5706 20.2882 10.5557 19.9788 10.6028 19.6758C10.6498 19.3728 10.7579 19.0825 10.9204 18.8225C11.0829 18.5624 11.2965 18.3381 11.5483 18.163C11.8 17.9879 12.0847 17.8657 12.385 17.8038C12.6853 17.7419 12.9951 17.7416 13.2956 17.8029C13.596 17.8641 13.8809 17.9857 14.133 18.1603L31.9997 29.3337L49.8663 18.1603C50.1184 17.9857 50.4033 17.8641 50.7038 17.8029C51.0043 17.7416 51.314 17.7419 51.6144 17.8038C51.9147 17.8657 52.1993 17.9879 52.4511 18.163C52.7028 18.3381 52.9164 18.5624 53.0789 18.8225C53.2414 19.0825 53.3495 19.3728 53.3966 19.6758C53.4437 19.9788 53.4288 20.2882 53.3528 20.5853C53.2768 20.8824 53.1414 21.161 52.9546 21.4042C52.7679 21.6474 52.5337 21.8502 52.2663 22.0003Z" fill="white"/>
</svg>
