<svg width="420" height="283" viewBox="0 0 420 283" fill="none" xmlns="http://www.w3.org/2000/svg">
<path d="M51.1007 282.652C43.4058 282.634 35.8754 280.423 29.3931 276.278C22.9107 272.134 17.7448 266.227 14.5019 259.251C7.36364 243.921 2.73087 227.546 0.779066 210.749C-2.12068 185.602 2.85781 158.473 19.3662 140.167C22.719 137.396 25.2959 133.803 26.8449 129.74C28.3939 125.676 28.862 121.28 28.2041 116.981C29.8757 69.6249 66.1123 27.7285 109.506 16.4867C152.9 5.24488 200.451 22.2628 232.686 55.0592C252.327 48.9093 273.195 47.7636 293.391 51.726C313.588 55.6884 332.473 64.6334 348.332 77.748C354.114 82.4353 359.31 87.8029 363.806 93.7344C384.14 121.183 397.601 160.265 395.98 194.06C395.271 208.788 390.289 283.002 359.647 283.002L51.1007 282.652Z" fill="#DFDFDF"/>
<path d="M52.6535 35.5898H34.2773V45.411H52.6535V35.5898Z" fill="white"/>
<path d="M74.187 45.4149L65.1045 45.6711C63.5676 45.7134 62.024 45.7466 60.473 45.7707C58.922 45.7949 57.3676 45.816 55.8106 45.8341H55.3944V45.4117C55.3944 43.7769 55.3553 42.1361 55.3553 40.5012L55.3398 35.5907V35.1172H55.8143C58.8739 35.1172 61.9424 35.117 65.0021 35.1623L69.5975 35.2137L74.1929 35.295H74.4949V35.5968C74.4617 37.2678 74.416 38.9358 74.3557 40.5706L74.187 45.4149ZM74.187 45.4149L74.033 40.4408C73.9727 38.806 73.9248 37.1953 73.8916 35.5936L74.1929 35.8954L69.5975 35.9768L65.0021 36.0281C61.9424 36.0643 58.8739 36.0612 55.8143 36.0732L56.285 35.6028V40.5134C56.285 42.1482 56.2602 43.786 56.2482 45.4239L55.8261 45.0045C57.3328 45.0146 58.8415 45.0359 60.3522 45.068C61.8629 45.1002 63.3817 45.1323 64.9085 45.1645L74.187 45.4149Z" fill="white"/>
<path d="M84.88 48.0312H66.5039V57.8524H84.88V48.0312Z" fill="white"/>
<path d="M23.1278 114.578H41.5039V104.757H23.1278V114.578Z" fill="white"/>
<path d="M12.9654 117.197L21.6132 116.94C23.0757 116.898 24.5485 116.866 26.0311 116.844C27.5136 116.822 28.9939 116.799 30.4725 116.777H30.8858V117.2C30.8858 118.835 30.9255 120.475 30.9255 122.11L30.9403 127.021V127.494H30.4666L26.0915 127.479C24.634 127.479 23.1738 127.461 21.7163 127.446L17.3405 127.395L12.9654 127.313H12.6641V127.012C12.6973 125.34 12.7422 123.673 12.8026 122.038L12.9654 117.197ZM12.9654 117.197L13.1223 122.17C13.1796 123.805 13.2283 125.416 13.2615 127.018L12.9595 126.716L17.3346 126.634L21.7097 126.583C23.1671 126.583 24.6311 126.553 26.0885 126.55L30.4636 126.535L29.9929 127.006L30.0076 122.095C30.0076 120.46 30.0323 118.819 30.0474 117.185L30.4666 117.604C29.0303 117.604 27.5971 117.567 26.1578 117.537C24.7185 117.507 23.2762 117.48 21.8187 117.441L12.9654 117.197Z" fill="white"/>
<path d="M2.25371 114.578H19.7578V104.757H2.25371V114.578Z" fill="white"/>
<path d="M315.347 36.9023H333.723V27.0812H315.347V36.9023Z" fill="white"/>
<path d="M274.128 27.0764L283.211 26.8201C284.746 26.7779 286.289 26.7456 287.842 26.7235C289.395 26.7014 290.95 26.6803 292.507 26.6602H292.924V27.0825C292.924 28.7173 292.96 30.3582 292.96 31.993V36.9035V37.3772H292.486C289.424 37.3772 286.357 37.3772 283.298 37.3319L278.702 37.2776L274.11 37.1963H273.809V36.8945C273.842 35.2235 273.887 33.5555 273.95 31.9207L274.128 27.0764ZM274.128 27.0764L274.285 32.0503C274.343 33.6851 274.391 35.293 274.424 36.8976L274.122 36.5959L278.715 36.5145L283.31 36.4632C286.373 36.427 289.435 36.4299 292.498 36.4179L292.027 36.8884L292.043 31.9779C292.043 30.3431 292.067 28.7022 292.082 27.0674L292.501 27.4866C290.994 27.4765 289.486 27.4554 287.975 27.4233C286.466 27.3961 284.957 27.3661 283.419 27.3238L274.128 27.0764Z" fill="white"/>
<path d="M263.425 24.4609L281.801 24.4609V14.6398L263.425 14.6398V24.4609Z" fill="white"/>
<path d="M141.651 86.6692L150.733 86.4127C152.266 86.3705 153.814 86.3405 155.365 86.3133C156.916 86.2862 158.47 86.2621 160.027 86.25H160.443V86.6721C160.443 88.307 160.48 89.948 160.48 91.5829V96.4934V96.9669H160.009C156.946 96.9669 153.884 96.9668 150.821 96.9216L146.226 96.8704L141.629 96.7889H141.328V96.4873C141.361 94.8163 141.406 93.1483 141.467 91.5134L141.651 86.6692ZM141.651 86.6692L141.805 91.6431C141.865 93.2809 141.91 94.8886 141.943 96.4903L141.642 96.1887L146.237 96.1073L150.833 96.053C153.895 96.0168 156.962 96.0198 160.021 96.0077L159.547 96.4783V91.5678C159.547 89.9329 159.572 88.2921 159.584 86.6572L160.006 87.0764C158.499 87.0664 156.99 87.0453 155.48 87.0131C153.969 86.9809 152.45 86.9488 150.923 86.9166L141.651 86.6692Z" fill="white"/>
<path d="M119.909 96.4961H138.285V86.675H119.909V96.4961Z" fill="white"/>
<path d="M192.35 47.8628C205.572 47.8628 216.291 37.1484 216.291 23.9314C216.291 10.7145 205.572 0 192.35 0C179.129 0 168.41 10.7145 168.41 23.9314C168.41 37.1484 179.129 47.8628 192.35 47.8628Z" fill="white"/>
<path d="M192.352 45.1565C204.077 45.1565 213.582 35.6547 213.582 23.9337C213.582 12.2127 204.077 2.71094 192.352 2.71094C180.626 2.71094 171.121 12.2127 171.121 23.9337C171.121 35.6547 180.626 45.1565 192.352 45.1565Z" fill="#DFDFDF"/>
<path d="M202.839 24.427H191.867V8.80859H192.86V23.4376H202.841L202.839 24.427Z" fill="white"/>
<path d="M361.286 98.2286C361.031 98.2264 360.782 98.1509 360.568 98.0114C360.354 97.8719 360.185 97.6742 360.08 97.4414L358.447 93.8216C358.235 93.3475 357.893 92.9428 357.462 92.6537C357.03 92.3645 356.525 92.2027 356.006 92.1868L249.778 88.6064C249.197 88.5883 248.621 88.7207 248.106 88.9908C247.591 89.2609 247.154 89.6593 246.839 90.1477L243.453 95.4203C243.256 95.7055 242.956 95.903 242.617 95.9715C242.277 96.04 241.924 95.974 241.632 95.7874C241.341 95.6009 241.132 95.3084 241.052 94.9715C240.972 94.6346 241.026 94.2795 241.202 93.9814L244.584 88.7091C245.151 87.8327 245.935 87.1172 246.86 86.6321C247.784 86.147 248.818 85.9089 249.862 85.9402L356.091 89.5236C357.109 89.5556 358.098 89.8731 358.944 90.44C359.79 91.007 360.459 91.8006 360.876 92.7299L362.509 96.3493C362.653 96.6722 362.664 97.0392 362.539 97.37C362.413 97.7008 362.161 97.9682 361.839 98.1137C361.666 98.1931 361.477 98.2326 361.286 98.2286Z" fill="#4398D5"/>
<path d="M162.893 131.167L220.293 95.0046C223.416 93.0365 227.045 92.0217 230.737 92.0848L372.049 94.4615C374.648 94.5053 377.21 95.082 379.577 96.156C381.944 97.23 384.065 98.7787 385.809 100.706L415.627 133.65C418.442 136.757 420 140.799 419.999 144.991V188.426C419.999 190.959 419.43 193.459 418.334 195.743C416.956 198.617 414.793 201.043 412.095 202.74C409.397 204.437 406.274 205.337 403.087 205.335H81.3622C79.0301 205.335 76.7479 204.66 74.791 203.392C72.8341 202.124 71.286 200.317 70.3334 198.19L65.7019 187.838C65.0078 186.286 64.6486 184.606 64.6484 182.906V166.361C64.6491 163.216 65.8767 160.195 68.0703 157.94L80.5658 145.103C82.4429 143.175 84.9096 141.929 87.5753 141.561L162.893 131.167Z" fill="#57B5F9"/>
<mask id="mask0_1382_49897" style="mask-type:luminance" maskUnits="userSpaceOnUse" x="64" y="92" width="356" height="114">
<path d="M162.889 131.167L220.29 95.0046C223.412 93.0365 227.042 92.0217 230.733 92.0848L372.045 94.4615C374.644 94.5053 377.206 95.082 379.573 96.156C381.94 97.23 384.061 98.7787 385.805 100.706L415.623 133.65C418.438 136.757 419.996 140.799 419.995 144.991V188.426C419.995 190.959 419.426 193.459 418.33 195.743C416.952 198.617 414.789 201.043 412.091 202.74C409.393 204.437 406.27 205.337 403.083 205.335H81.3583C79.0262 205.335 76.744 204.66 74.7871 203.392C72.8302 202.124 71.2821 200.317 70.3295 198.19L65.698 187.838C65.0039 186.286 64.6447 184.606 64.6445 182.906V166.361C64.6451 163.216 65.8728 160.195 68.0664 157.94L80.5619 145.103C82.439 143.175 84.9057 141.929 87.5714 141.561L162.889 131.167Z" fill="white"/>
</mask>
<g mask="url(#mask0_1382_49897)">
<path d="M64.6445 193.902H424.114V209.647H64.6445V193.902Z" fill="#4398D5"/>
</g>
<mask id="mask1_1382_49897" style="mask-type:luminance" maskUnits="userSpaceOnUse" x="64" y="92" width="356" height="114">
<path d="M162.889 131.167L220.29 95.0046C223.412 93.0365 227.042 92.0217 230.733 92.0848L372.045 94.4615C374.644 94.5053 377.206 95.082 379.573 96.156C381.94 97.23 384.061 98.7787 385.805 100.706L415.623 133.65C418.438 136.757 419.996 140.799 419.995 144.991V188.426C419.995 190.959 419.426 193.459 418.33 195.743C416.952 198.617 414.789 201.043 412.091 202.74C409.393 204.437 406.27 205.337 403.083 205.335H81.3583C79.0262 205.335 76.744 204.66 74.7871 203.392C72.8302 202.124 71.2821 200.317 70.3295 198.19L65.698 187.838C65.0039 186.286 64.6447 184.606 64.6445 182.906V166.361C64.6451 163.216 65.8728 160.195 68.0664 157.94L80.5619 145.103C82.439 143.175 84.9057 141.929 87.5714 141.561L162.889 131.167Z" fill="white"/>
</mask>
<g mask="url(#mask1_1382_49897)">
<path d="M87.3102 156.218H65.5664V144.328H96.2269V147.299C96.2277 148.47 95.9976 149.63 95.5499 150.712C95.1021 151.794 94.4449 152.777 93.6168 153.606C92.7888 154.434 91.8061 155.091 90.7239 155.539C89.6417 155.987 88.4816 156.218 87.3102 156.218Z" fill="#C6E7FF"/>
</g>
<mask id="mask2_1382_49897" style="mask-type:luminance" maskUnits="userSpaceOnUse" x="64" y="92" width="356" height="114">
<path d="M162.889 131.167L220.29 95.0046C223.412 93.0365 227.042 92.0217 230.733 92.0848L372.045 94.4615C374.644 94.5053 377.206 95.082 379.573 96.156C381.94 97.23 384.061 98.7787 385.805 100.706L415.623 133.65C418.438 136.757 419.996 140.799 419.995 144.991V188.426C419.995 190.959 419.426 193.459 418.33 195.743C416.952 198.617 414.789 201.043 412.091 202.74C409.393 204.437 406.27 205.337 403.083 205.335H81.3583C79.0262 205.335 76.744 204.66 74.7871 203.392C72.8302 202.124 71.2821 200.317 70.3295 198.19L65.698 187.838C65.0039 186.286 64.6447 184.606 64.6445 182.906V166.361C64.6451 163.216 65.8728 160.195 68.0664 157.94L80.5619 145.103C82.439 143.175 84.9057 141.929 87.5714 141.561L162.889 131.167Z" fill="white"/>
</mask>
<g mask="url(#mask2_1382_49897)">
<path d="M69.0074 185.304C68.4544 185.304 67.9236 185.085 67.5326 184.694C67.1416 184.303 66.9219 183.773 66.9219 183.22V167.991C66.9219 167.438 67.1416 166.908 67.5326 166.517C67.9236 166.126 68.4544 165.906 69.0074 165.906C69.5604 165.906 70.0905 166.126 70.4815 166.517C70.8725 166.908 71.0922 167.438 71.0922 167.991V183.22C71.0914 183.772 70.8716 184.302 70.4808 184.693C70.0899 185.084 69.5601 185.303 69.0074 185.304Z" fill="#3CA3ED"/>
</g>
<mask id="mask3_1382_49897" style="mask-type:luminance" maskUnits="userSpaceOnUse" x="64" y="92" width="356" height="114">
<path d="M162.889 131.167L220.29 95.0046C223.412 93.0365 227.042 92.0217 230.733 92.0848L372.045 94.4615C374.644 94.5053 377.206 95.082 379.573 96.156C381.94 97.23 384.061 98.7787 385.805 100.706L415.623 133.65C418.438 136.757 419.996 140.799 419.995 144.991V188.426C419.995 190.959 419.426 193.459 418.33 195.743C416.952 198.617 414.789 201.043 412.091 202.74C409.393 204.437 406.27 205.337 403.083 205.335H81.3583C79.0262 205.335 76.744 204.66 74.7871 203.392C72.8302 202.124 71.2821 200.317 70.3295 198.19L65.698 187.838C65.0039 186.286 64.6447 184.606 64.6445 182.906V166.361C64.6451 163.216 65.8728 160.195 68.0664 157.94L80.5619 145.103C82.439 143.175 84.9057 141.929 87.5714 141.561L162.889 131.167Z" fill="white"/>
</mask>
<g mask="url(#mask3_1382_49897)">
<path d="M428.661 160.515H402.204C400.124 160.515 398.128 159.688 396.657 158.217C395.186 156.747 394.359 154.752 394.359 152.672V147.448C394.359 145.368 395.186 143.373 396.657 141.902C398.128 140.432 400.124 139.605 402.204 139.605H428.661V160.515Z" fill="#C6E7FF"/>
</g>
<path d="M95.2877 181.29C99.3388 177.241 104.5 174.483 110.119 173.365C115.739 172.248 121.563 172.822 126.856 175.013C132.149 177.205 136.673 180.916 139.856 185.678C143.039 190.44 144.738 196.039 144.738 201.766C144.738 207.493 143.039 213.091 139.856 217.853C136.673 222.615 132.149 226.326 126.856 228.518C121.563 230.71 115.739 231.283 110.119 230.166C104.5 229.049 99.3388 226.291 95.2877 222.241C89.8552 216.811 86.8033 209.445 86.8033 201.766C86.8033 194.086 89.8552 186.721 95.2877 181.29Z" fill="black" fill-opacity="0.7"/>
<path d="M128.246 214.567C135.127 207.689 135.127 196.538 128.246 189.66C121.366 182.782 110.21 182.782 103.329 189.66C96.4489 196.538 96.4489 207.689 103.329 214.567C110.21 221.445 121.366 221.445 128.246 214.567Z" fill="white"/>
<path d="M116.734 194.959H114.784L113.879 187.223H117.666L116.734 194.959Z" fill="#2D395F"/>
<path d="M114.773 208.57H116.722L117.626 216.307H113.867L114.773 208.57Z" fill="#2D395F"/>
<path d="M122.578 202.743V200.791L130.315 199.887V203.672L122.578 202.743Z" fill="#2D395F"/>
<path d="M108.955 200.792V202.744L101.219 203.649V199.863L108.955 200.792Z" fill="#2D395F"/>
<path d="M121.266 197.639L119.891 196.261L124.718 190.141L127.398 192.819L121.266 197.639Z" fill="#2D395F"/>
<path d="M110.261 205.883L111.64 207.261L106.812 213.381L104.133 210.703L110.261 205.883Z" fill="#2D395F"/>
<path d="M119.902 207.265L121.278 205.887L127.4 210.713L124.721 213.391L119.902 207.265Z" fill="#2D395F"/>
<path d="M111.645 196.263L110.266 197.641L104.145 192.815L106.824 190.137L111.645 196.263Z" fill="#2D395F"/>
<path d="M344.924 181.294C348.976 177.244 354.137 174.487 359.756 173.369C365.375 172.252 371.2 172.825 376.493 175.017C381.786 177.209 386.31 180.92 389.493 185.682C392.676 190.444 394.375 196.042 394.375 201.77C394.375 207.497 392.676 213.095 389.493 217.857C386.31 222.619 381.786 226.33 376.493 228.522C371.2 230.714 365.375 231.287 359.756 230.17C354.137 229.052 348.976 226.295 344.924 222.245C339.492 216.815 336.44 209.449 336.44 201.77C336.44 194.09 339.492 186.725 344.924 181.294Z" fill="black" fill-opacity="0.7"/>
<path d="M377.883 214.571C384.763 207.693 384.763 196.541 377.883 189.663C371.002 182.785 359.847 182.785 352.966 189.663C346.086 196.541 346.086 207.693 352.966 214.571C359.847 221.449 371.002 221.449 377.883 214.571Z" fill="white"/>
<path d="M366.397 194.967H364.445L363.539 187.23H367.326L366.397 194.967Z" fill="#2D395F"/>
<path d="M364.445 208.578H366.398L367.303 216.315H363.516L364.445 208.578Z" fill="#2D395F"/>
<path d="M372.227 202.751V200.799L379.964 199.895V203.68L372.227 202.751Z" fill="#2D395F"/>
<path d="M358.607 200.8V202.752L350.867 203.657V199.871L358.607 200.8Z" fill="#2D395F"/>
<path d="M370.918 197.647L369.539 196.268L374.367 190.148L377.047 192.827L370.918 197.647Z" fill="#2D395F"/>
<path d="M359.91 205.891L361.288 207.269L356.461 213.389L353.781 210.71L359.91 205.891Z" fill="#2D395F"/>
<path d="M369.539 207.273L370.918 205.895L377.04 210.721L374.361 213.399L369.539 207.273Z" fill="#2D395F"/>
<path d="M361.294 196.271L359.915 197.649L353.793 192.823L356.472 190.145L361.294 196.271Z" fill="#2D395F"/>
<path d="M292.688 130.81H404.031L378.543 102.972C377.331 101.65 375.863 100.588 374.228 99.8507C372.593 99.1134 370.825 98.7161 369.032 98.6831L292.691 97.2773L292.688 130.81Z" fill="#C6E7FF"/>
<path d="M188.932 119.441L170.27 130.813H191.591L188.932 119.441Z" fill="#C6E7FF"/>
<path d="M192.962 130.81H282.631L287.037 97.1717L231.123 96.143C228.614 96.0958 226.142 96.7645 223.999 98.0705L190.129 118.705L192.962 130.81Z" fill="#C6E7FF"/>
<path d="M151.835 148.711C150.97 148.71 150.139 148.366 149.527 147.754C148.915 147.142 148.571 146.313 148.57 145.447C148.571 144.582 148.915 143.752 149.527 143.141C150.139 142.529 150.97 142.184 151.835 142.184C152.701 142.184 153.53 142.529 154.143 143.141C154.755 143.752 155.099 144.582 155.1 145.447C155.1 146.313 154.756 147.143 154.144 147.755C153.532 148.367 152.701 148.711 151.835 148.711Z" fill="#C6E7FF"/>
<path opacity="0.5" d="M81.1055 189.899C81.1055 189.899 90.1583 165.138 117.668 165.4C145.178 165.663 151.84 191.585 151.84 191.585C151.84 191.585 149.565 160.734 117.668 159.437C85.771 158.14 81.1055 189.899 81.1055 189.899Z" fill="#C6E7FF"/>
<path opacity="0.5" d="M328.156 189.899C328.156 189.899 337.209 165.138 364.719 165.4C392.229 165.663 398.891 191.585 398.891 191.585C398.891 191.585 396.616 160.734 364.719 159.437C332.822 158.14 328.156 189.899 328.156 189.899Z" fill="#C6E7FF"/>
<path d="M415.03 156.383H413.916C413.56 156.383 413.219 156.242 412.968 155.99C412.716 155.738 412.574 155.397 412.574 155.041V144.698C412.575 144.342 412.716 144.001 412.968 143.749C413.219 143.498 413.561 143.356 413.916 143.355H415.03C415.386 143.355 415.727 143.497 415.979 143.749C416.231 144 416.373 144.342 416.373 144.698V155.041C416.373 155.217 416.338 155.392 416.271 155.555C416.204 155.718 416.105 155.866 415.981 155.991C415.856 156.115 415.708 156.214 415.544 156.282C415.381 156.349 415.207 156.384 415.03 156.383Z" fill="#4398D5"/>
<path opacity="0.5" d="M153.145 172.82H330.636L322.73 190.149H157.496L153.145 172.82Z" fill="#C6E7FF"/>
<path opacity="0.5" d="M166.512 132.73H405.984L394.372 136.534H174.779L166.512 132.73Z" fill="#C6E7FF"/>
<path d="M267.036 184.834H173.924C172.868 184.833 171.856 184.414 171.11 183.668C170.363 182.922 169.943 181.911 169.941 180.856V130.809C169.941 130.72 169.977 130.635 170.039 130.572C170.102 130.509 170.187 130.474 170.276 130.474C170.365 130.474 170.45 130.509 170.513 130.572C170.576 130.635 170.611 130.72 170.611 130.809V180.856C170.611 181.735 170.961 182.579 171.583 183.202C172.206 183.824 173.05 184.173 173.931 184.173H267.042C268.727 184.174 270.364 183.614 271.696 182.583C273.027 181.551 273.978 180.106 274.398 178.475L286.719 130.761L289.293 97.2552C289.304 97.1704 289.347 97.0933 289.413 97.0395C289.48 96.9856 289.565 96.9593 289.65 96.9658C289.735 96.9724 289.815 97.0114 289.872 97.0748C289.93 97.1382 289.961 97.2209 289.959 97.3064L287.382 130.869V130.899L275.053 178.644C274.593 180.419 273.555 181.99 272.104 183.11C270.652 184.231 268.87 184.837 267.036 184.834Z" fill="#3CA3ED"/>
<path d="M278.418 138.903H264.068L262.785 134.168H279.903L278.418 138.903Z" fill="#3CA3ED"/>
<path d="M194.454 135.214L192.158 135.937C191.983 135.993 191.8 136.013 191.618 135.997C191.436 135.982 191.259 135.931 191.097 135.847C190.934 135.763 190.79 135.647 190.672 135.508C190.555 135.368 190.465 135.207 190.41 135.032L185.341 118.962C185.231 118.61 185.264 118.23 185.434 117.903C185.604 117.577 185.896 117.33 186.246 117.218L188.546 116.494C188.897 116.383 189.279 116.416 189.606 116.586C189.934 116.755 190.181 117.048 190.293 117.399L195.362 133.47C195.473 133.822 195.44 134.203 195.269 134.53C195.099 134.857 194.805 135.103 194.454 135.214Z" fill="#3CA3ED"/>
<path d="M318.332 209.641H173.496C173.213 209.641 172.934 209.585 172.673 209.477C172.412 209.369 172.175 209.211 171.975 209.011C171.776 208.811 171.618 208.574 171.51 208.313C171.402 208.053 171.347 207.773 171.348 207.491C171.348 206.921 171.574 206.374 171.977 205.971C172.38 205.568 172.926 205.341 173.496 205.34H318.332C318.615 205.339 318.895 205.395 319.156 205.503C319.417 205.611 319.654 205.769 319.854 205.969C320.054 206.169 320.213 206.406 320.321 206.667C320.429 206.928 320.484 207.208 320.483 207.491C320.484 207.773 320.429 208.053 320.321 208.314C320.213 208.575 320.054 208.813 319.854 209.012C319.654 209.212 319.417 209.37 319.156 209.478C318.895 209.586 318.615 209.642 318.332 209.641Z" fill="#4398D5"/>
<path d="M318.332 260.486H173.496C172.926 260.486 172.38 260.26 171.977 259.857C171.574 259.454 171.348 258.908 171.348 258.338C171.347 258.056 171.402 257.777 171.51 257.516C171.618 257.255 171.776 257.018 171.975 256.818C172.175 256.618 172.412 256.459 172.673 256.351C172.934 256.243 173.213 256.188 173.496 256.188H318.332C318.615 256.187 318.895 256.243 319.156 256.351C319.417 256.459 319.654 256.617 319.854 256.817C320.054 257.017 320.213 257.254 320.321 257.515C320.429 257.776 320.484 258.056 320.483 258.338C320.483 258.62 320.428 258.9 320.32 259.161C320.212 259.421 320.053 259.659 319.854 259.858C319.654 260.058 319.416 260.215 319.155 260.323C318.894 260.431 318.615 260.486 318.332 260.486Z" fill="#4398D5"/>
<path d="M279.814 208.987L277.949 206.551L245.26 231.582L247.125 234.018L279.814 208.987Z" fill="#4398D5"/>
<path d="M245.919 234.01L247.785 231.574L215.092 206.549L213.226 208.984L245.919 234.01Z" fill="#4398D5"/>
<path d="M212.001 257.896L213.867 260.332L246.561 235.306L244.695 232.871L212.001 257.896Z" fill="#4398D5"/>
<path d="M245.905 232.881L244.039 235.316L276.733 260.342L278.598 257.906L245.905 232.881Z" fill="#4398D5"/>
<path d="M249.831 242.083C254.899 239.984 257.306 234.176 255.207 229.109C253.107 224.043 247.296 221.637 242.228 223.735C237.16 225.834 234.753 231.642 236.852 236.709C238.952 241.776 244.762 244.182 249.831 242.083Z" fill="#57B5F9"/>
<path d="M246.006 239.133C244.775 239.133 243.571 238.768 242.548 238.084C241.524 237.4 240.726 236.429 240.255 235.292C239.784 234.154 239.661 232.903 239.901 231.696C240.141 230.489 240.734 229.38 241.605 228.51C242.475 227.64 243.585 227.047 244.792 226.807C246 226.567 247.251 226.69 248.389 227.161C249.526 227.632 250.498 228.43 251.182 229.453C251.866 230.476 252.231 231.679 252.231 232.91C252.23 234.56 251.574 236.142 250.407 237.309C249.24 238.475 247.657 239.131 246.006 239.133ZM246.006 226.938C244.824 226.937 243.668 227.287 242.685 227.944C241.701 228.6 240.934 229.533 240.481 230.625C240.029 231.717 239.91 232.919 240.141 234.078C240.372 235.237 240.94 236.303 241.776 237.138C242.613 237.974 243.678 238.543 244.838 238.774C245.998 239.004 247.2 238.886 248.292 238.433C249.385 237.98 250.318 237.214 250.975 236.231C251.631 235.248 251.981 234.092 251.981 232.91C251.978 231.327 251.348 229.809 250.228 228.69C249.108 227.57 247.59 226.94 246.006 226.938Z" fill="white"/>
<path d="M102.667 250.911H58.9146C58.3385 250.911 57.7854 250.682 57.3779 250.275C56.9705 249.868 56.7422 249.315 56.7422 248.739V237.039C56.7422 236.463 56.9705 235.911 57.3779 235.503C57.7854 235.096 58.3385 234.867 58.9146 234.867H102.667C103.244 234.867 103.796 235.096 104.203 235.503C104.611 235.911 104.84 236.463 104.84 237.039V248.739C104.84 249.315 104.611 249.868 104.203 250.275C103.796 250.682 103.244 250.911 102.667 250.911Z" fill="#2D395F"/>
<path d="M104.837 237.762H56.7422V239.261H104.837V237.762Z" fill="#57617F"/>
<path d="M104.837 245.953H56.7422V247.453H104.837V245.953Z" fill="#57617F"/>
<path d="M106.476 266.954H62.7232C62.147 266.954 61.5947 266.725 61.1873 266.318C60.7798 265.91 60.5508 265.358 60.5508 264.782V253.082C60.5508 252.506 60.7798 251.953 61.1873 251.546C61.5947 251.139 62.147 250.91 62.7232 250.91H106.476C107.052 250.91 107.605 251.139 108.013 251.546C108.42 251.953 108.648 252.506 108.648 253.082V264.782C108.648 265.358 108.42 265.91 108.013 266.318C107.605 266.725 107.052 266.954 106.476 266.954Z" fill="#171D30"/>
<path d="M108.646 253.801H60.5508V255.3H108.646V253.801Z" fill="#57617F"/>
<path d="M108.646 261.996H60.5508V263.496H108.646V261.996Z" fill="#57617F"/>
<path d="M99.4994 282.993H55.7467C55.1705 282.993 54.6181 282.764 54.2107 282.357C53.8033 281.95 53.5742 281.397 53.5742 280.821V269.121C53.5742 268.545 53.8033 267.993 54.2107 267.585C54.6181 267.178 55.1705 266.949 55.7467 266.949H99.4994C100.076 266.949 100.628 267.178 101.035 267.585C101.443 267.993 101.672 268.545 101.672 269.121V280.821C101.672 281.397 101.443 281.95 101.035 282.357C100.628 282.764 100.076 282.993 99.4994 282.993Z" fill="#222B47"/>
<path d="M101.669 269.844H53.5742V271.343H101.669V269.844Z" fill="#57617F"/>
<path d="M101.669 278.039H53.5742V279.539H101.669V278.039Z" fill="#57617F"/>
<path d="M161.989 267.098V272.925L153.347 276.243C152.362 276.621 151.515 277.289 150.917 278.158C150.32 279.027 150 280.057 150 281.111H170.847V267.101L161.989 267.098Z" fill="#2D395F"/>
<path d="M155.017 275.626L154.629 275.777L155.393 277.733L155.781 277.582L155.017 275.626Z" fill="#74A0DD"/>
<path d="M156.642 274.981L156.254 275.133L157.018 277.089L157.406 276.938L156.642 274.981Z" fill="#74A0DD"/>
<path d="M158.353 274.309L157.965 274.461L158.729 276.417L159.117 276.266L158.353 274.309Z" fill="#74A0DD"/>
<path d="M160.216 273.587L159.828 273.738L160.592 275.694L160.98 275.543L160.216 273.587Z" fill="#74A0DD"/>
<path d="M170.85 281.105H150V282.074H170.85V281.105Z" fill="#74A0DD"/>
<path d="M230.556 265.575L233.803 270.664L226.561 276.422C225.734 277.078 225.127 277.97 224.818 278.978C224.509 279.987 224.514 281.066 224.832 282.072L244.714 275.807L237.406 263.422L230.556 265.575Z" fill="#4E9C0B"/>
<path d="M228.145 275.223L227.82 275.484L229.137 277.12L229.462 276.859L228.145 275.223Z" fill="#4E9C0B"/>
<path d="M229.465 274.153L229.141 274.414L230.458 276.05L230.782 275.789L229.465 274.153Z" fill="#4E9C0B"/>
<path d="M230.832 273.04L230.508 273.301L231.825 274.937L232.149 274.676L230.832 273.04Z" fill="#4E9C0B"/>
<path d="M232.457 271.755L232.133 272.016L233.45 273.651L233.774 273.39L232.457 271.755Z" fill="#4E9C0B"/>
<path d="M244.699 275.791L224.812 282.059L225.104 282.982L244.99 276.715L244.699 275.791Z" fill="#4E9C0B"/>
<path d="M191.591 172.82L240.501 262.441L226.841 266.745L168.414 182.065L191.591 172.82Z" fill="#4E9C0B"/>
<path d="M162.15 181.811L164.039 190.16L159.535 215.931C158.72 220.585 158.426 225.314 158.659 230.033L160.47 267.109H172.669L175.343 223.312L191.586 172.828L162.15 181.811Z" fill="#4E9C0B"/>
<path d="M161.021 177.897L159.232 180.437C158.568 181.353 157.671 182.075 156.634 182.527L141.776 188.994L138.629 183.966L150.008 177.143C151.27 176.385 152.359 175.369 153.203 174.163L157.816 166.797L161.021 177.897Z" fill="#F2A392"/>
<path d="M145.638 132.159C145.106 132.359 144.522 132.378 143.977 132.215C143.432 132.051 142.956 131.714 142.621 131.254C142.586 131.582 142.628 131.913 142.743 132.221C142.859 132.53 143.046 132.807 143.288 133.03C142.291 132.813 141.384 132.3 140.684 131.558C140.684 131.558 141.121 136.849 146.058 135.422L146.803 132.204L145.638 132.159Z" fill="black" fill-opacity="0.7"/>
<path d="M149.608 128.057C146.642 128.733 145.332 131.073 145.259 134.572L144.562 138.101L146.071 138.159L146.14 138.46C146.504 139.907 147.421 141.154 148.694 141.934C149.967 142.714 151.494 142.965 152.95 142.632C154.405 142.3 155.672 141.41 156.479 140.155C157.286 138.9 157.57 137.379 157.269 135.917L156.451 132.346C156.285 131.614 155.976 130.923 155.542 130.311C155.108 129.699 154.556 129.179 153.921 128.78C153.285 128.382 152.577 128.113 151.836 127.989C151.096 127.865 150.339 127.888 149.608 128.057Z" fill="#F2A392"/>
<path d="M159.624 146.559C159.273 146.745 158.888 146.86 158.492 146.897C158.096 146.934 157.697 146.892 157.317 146.774C156.938 146.657 156.585 146.465 156.28 146.211C155.975 145.956 155.722 145.644 155.538 145.292L151.211 137.076L156.561 134.262L160.888 142.478C161.074 142.829 161.188 143.213 161.225 143.608C161.262 144.003 161.22 144.402 161.103 144.781C160.986 145.16 160.794 145.512 160.54 145.817C160.286 146.123 159.975 146.374 159.624 146.559Z" fill="#F2A392"/>
<path d="M144.645 132.447L156.536 131.325C156.419 129.918 155.777 128.607 154.738 127.651C153.699 126.695 152.339 126.165 150.927 126.164C145.77 126.134 144.645 132.447 144.645 132.447Z" fill="#4E9C0B"/>
<path d="M149.488 131.989L151.127 134.456C151.278 134.687 151.49 134.872 151.74 134.991C151.989 135.109 152.267 135.157 152.542 135.129L153.513 135.035L155.782 136.884C155.985 137.05 156.221 137.168 156.474 137.231C156.728 137.294 156.992 137.3 157.248 137.249L158.048 137.089C158.285 136.079 158.271 135.026 158.008 134.022C157.745 133.018 157.241 132.093 156.54 131.328L149.488 131.989Z" fill="black" fill-opacity="0.7"/>
<path d="M154.714 134.566C154.814 134.758 154.856 134.975 154.834 135.19C154.811 135.406 154.725 135.61 154.586 135.776C154.448 135.943 154.263 136.064 154.056 136.126C153.848 136.188 153.627 136.186 153.42 136.122C153.213 136.058 153.03 135.934 152.893 135.766C152.757 135.598 152.673 135.393 152.653 135.178C152.633 134.962 152.678 134.745 152.781 134.555C152.884 134.365 153.041 134.209 153.232 134.108C153.36 134.04 153.499 133.999 153.643 133.985C153.786 133.972 153.931 133.987 154.068 134.03C154.206 134.072 154.333 134.142 154.444 134.234C154.555 134.326 154.647 134.439 154.714 134.566Z" fill="#F2A392"/>
<path d="M155.97 129.545C155.919 129.422 162.464 129.678 161.402 130.4C159.528 130.995 157.582 131.327 155.617 131.386C155.855 131.151 156.015 130.849 156.078 130.521C156.141 130.192 156.104 129.852 155.97 129.545Z" fill="#4E9C0B"/>
<path d="M147.282 136.04C147.538 136.529 147.53 137.039 147.261 137.184C146.993 137.329 146.564 137.045 146.304 136.556C146.045 136.067 146.057 135.558 146.329 135.413C146.6 135.268 147.029 135.551 147.282 136.04Z" fill="#2D395F"/>
<path d="M146.938 135.819C147.034 136.003 147.031 136.196 146.938 136.247C146.844 136.299 146.676 136.196 146.579 136.012C146.483 135.828 146.486 135.635 146.579 135.583C146.673 135.532 146.841 135.635 146.938 135.819Z" fill="white"/>
<path d="M145.824 134.781L148.174 134.899C148.174 134.899 145.836 132.913 145.824 134.781Z" fill="#2D395F"/>
<path d="M150.001 138.96C150.281 139.262 150.061 139.941 149.5 140.445C148.938 140.949 148.254 141.1 147.973 140.786C147.693 140.472 147.913 139.805 148.474 139.301C149.035 138.798 149.717 138.647 150.001 138.96Z" fill="white"/>
<path d="M153.168 135.589C153.134 135.589 153.102 135.575 153.077 135.552C153.052 135.528 153.037 135.496 153.036 135.462C153.026 135.097 153.143 134.739 153.368 134.451C153.452 134.363 153.552 134.294 153.663 134.246C153.775 134.199 153.895 134.175 154.016 134.176C154.034 134.175 154.052 134.177 154.069 134.182C154.085 134.188 154.1 134.197 154.113 134.209C154.126 134.221 154.136 134.236 154.143 134.252C154.15 134.268 154.153 134.286 154.153 134.303C154.153 134.32 154.15 134.337 154.144 134.353C154.138 134.369 154.128 134.384 154.116 134.396C154.105 134.408 154.091 134.418 154.075 134.425C154.06 134.432 154.043 134.436 154.026 134.436C153.939 134.434 153.852 134.45 153.772 134.483C153.692 134.516 153.621 134.566 153.561 134.629C153.384 134.866 153.291 135.156 153.299 135.453C153.299 135.47 153.296 135.487 153.29 135.503C153.284 135.519 153.274 135.533 153.263 135.545C153.251 135.558 153.237 135.568 153.221 135.575C153.206 135.581 153.189 135.585 153.172 135.586L153.168 135.589Z" fill="#2D395F"/>
<path d="M162.154 181.804L152.637 148.869C152.478 148.322 152.431 147.749 152.499 147.183C152.567 146.618 152.749 146.072 153.034 145.578C153.319 145.085 153.7 144.654 154.155 144.312C154.611 143.97 155.131 143.723 155.685 143.587L160.573 142.381C162.536 141.888 164.587 141.854 166.565 142.283C168.544 142.712 170.397 143.592 171.979 144.854C178.397 150.009 188.575 159.918 191.592 172.834L162.154 181.804Z" fill="#515151"/>
<path d="M160.578 142.371C160.578 142.371 176.169 148.331 186.528 174.799L189.189 174.012C189.189 174.012 181.666 151.055 162.485 142.039L160.578 142.371Z" fill="#4E9C0B"/>
<path d="M153.152 145.453L142.555 160.052L153.843 169.385L164.821 155.476L153.152 145.453Z" fill="#515151"/>
<path d="M143.804 161.082L138.484 167.914C137.592 169.027 136.356 169.813 134.969 170.149L113.703 175.295L110.95 175.023C110.872 175.023 110.791 175.002 110.715 174.99L106.744 174.254L106.844 174.96C106.874 175.165 106.953 175.359 107.074 175.527C107.195 175.694 107.356 175.83 107.541 175.922L108.917 176.697L109.722 177.475C109.797 177.548 109.856 177.637 109.893 177.734C109.93 177.832 109.946 177.936 109.938 178.041C109.93 178.145 109.9 178.246 109.848 178.337C109.797 178.428 109.726 178.507 109.641 178.568L107.191 180.311L104.23 181.68C104.025 181.775 103.865 181.947 103.785 182.159C103.706 182.37 103.713 182.605 103.805 182.811L104.246 183.804C104.295 183.914 104.366 184.012 104.456 184.093C104.545 184.173 104.65 184.234 104.764 184.271L106.922 184.609C108.755 184.901 110.632 184.583 112.266 183.704L115.776 181.804L115.748 181.716L140.138 178.001C141.789 177.748 143.317 176.976 144.499 175.795L152.241 168.062L143.804 161.082Z" fill="#F2A392"/>
<path d="M135.395 267.469H89.6602V282.994H135.395V267.469Z" fill="#A03F0D"/>
<path d="M101.26 267.469H98.2188V272.425H101.26V267.469Z" fill="#FF9259"/>
<path d="M126.85 267.469H123.809V272.425H126.85V267.469Z" fill="#FF9259"/>
<path d="M141.521 267.58L146.811 256.492H102.729L95.7891 267.58H141.521Z" fill="#7B340F"/>
<path d="M146.816 256.492C146.816 256.492 151.418 266.352 141.523 267.58L146.816 256.492Z" fill="#7B340F"/>
<path d="M102.718 256.492C103.053 257.239 103.306 258.019 103.473 258.821C103.652 259.624 103.753 260.443 103.774 261.267C103.793 262.096 103.706 262.924 103.515 263.731C103.314 264.535 102.947 265.288 102.438 265.942C102.765 265.211 102.999 264.442 103.134 263.653C103.249 262.867 103.297 262.073 103.28 261.279C103.26 260.48 103.198 259.682 103.095 258.89C102.999 258.091 102.875 257.295 102.718 256.492Z" fill="#7B340F"/>
<path d="M141.399 267.578H135.395V282.991H141.399V267.578Z" fill="#7B340F"/>
<path d="M140.766 267.767H135.518C135.485 267.767 135.454 267.754 135.431 267.731C135.407 267.707 135.395 267.676 135.395 267.643C135.395 267.61 135.407 267.579 135.431 267.556C135.454 267.532 135.485 267.52 135.518 267.52H140.766C140.798 267.52 140.829 267.532 140.853 267.556C140.876 267.579 140.889 267.61 140.889 267.643C140.889 267.676 140.876 267.707 140.853 267.731C140.829 267.754 140.798 267.767 140.766 267.767Z" fill="#264B05"/>
<path d="M292.691 222.422H412.577V282.998H292.691V222.422Z" fill="#303030"/>
<path d="M294.695 224.672H335.971V236.538H294.695V224.672Z" fill="#3D3D3D"/>
<path d="M318.945 226.031H311.715V227.709H318.945V226.031Z" fill="#030303"/>
<path d="M335.971 238.621H294.695V250.487H335.971V238.621Z" fill="#3D3D3D"/>
<path d="M318.945 239.98H311.715V241.658H318.945V239.98Z" fill="#030303"/>
<path d="M335.971 252.578H294.695V264.444H335.971V252.578Z" fill="#3D3D3D"/>
<path d="M318.945 253.938H311.715V255.615H318.945V253.938Z" fill="#030303"/>
<path d="M294.695 266.531H335.971V278.397H294.695V266.531Z" fill="#3D3D3D"/>
<path d="M318.945 267.891H311.715V269.568H318.945V267.891Z" fill="#030303"/>
<path d="M410.878 278.644H337.695V224.77H410.878V278.644ZM338.187 278.149H410.382V225.264H338.187V278.149Z" fill="#3D3D3D"/>
</svg>
