<svg width="269" height="215" viewBox="0 0 269 215" fill="none" xmlns="http://www.w3.org/2000/svg">
<g opacity="0.25">
<mask id="path-1-inside-1_1382_44224" fill="white">
<path d="M198.516 14.8084C198.516 14.8083 198.516 14.8081 198.516 14.8081C177.607 9.20584 155.941 19.535 150.779 38.7988C148.229 48.3171 150.263 57.9592 155.492 65.9561C155.67 66.228 156.056 66.2545 156.273 66.0129L162.441 59.1499C162.583 58.9917 162.609 58.7609 162.509 58.5732C159.644 53.2052 158.728 47.1434 160.282 41.3451C163.871 27.9506 179.555 19.9132 195.969 24.3114C212.384 28.7096 221.947 43.512 218.358 56.9065C215.913 66.0324 207.852 72.6713 197.772 74.5845C197.64 74.6095 197.523 74.6855 197.448 74.7965L191.08 84.1872C190.858 84.5146 191.086 84.9567 191.481 84.9579C192.104 84.9598 192.726 84.9483 193.348 84.9234C193.584 84.9139 193.796 85.0687 193.856 85.2972L196.206 94.2148C196.272 94.4643 196.137 94.7227 195.895 94.8128C189.642 97.1438 183.309 100.375 176.341 104.593C176.166 104.699 176.073 104.901 176.106 105.102L193.573 210.688C193.603 210.874 193.736 211.026 193.915 211.083C219.954 219.241 249.063 212.095 268.365 192.808C268.498 192.675 268.545 192.478 268.486 192.3L235.076 90.6288C235.012 90.4349 234.836 90.299 234.632 90.2862C223.767 89.6011 214.722 89.9464 206.232 91.7712C205.969 91.8277 205.708 91.6686 205.64 91.409L203.616 83.732C203.547 83.4702 203.699 83.2012 203.958 83.1218C215.448 79.599 224.718 71.1867 227.862 59.4536C233.024 40.1898 219.425 20.4113 198.516 14.8088C198.516 14.8087 198.516 14.8086 198.516 14.8084ZM132.911 0.594671C131.503 0.234204 129.965 0.0712469 128.417 0.15312C124.876 0.338307 121.535 1.78034 119.706 3.81182L119.498 4.04495C119.482 4.06297 119.464 4.07981 119.446 4.09531L72.1815 43.5932C72.1603 43.6109 72.1407 43.6302 72.1228 43.6513C70.3819 45.7029 69.3442 49.0801 69.5076 52.5148C69.6767 56.0441 71.0999 59.3386 72.9952 61.0444L138.505 119.997C140.361 121.668 143.755 122.765 147.234 122.577C150.632 122.395 153.843 121.038 155.769 118.962C155.786 118.943 155.801 118.923 155.816 118.902L179.666 83.3487C179.68 83.3285 179.705 83.3192 179.728 83.3263C179.752 83.3335 179.777 83.3244 179.791 83.304L185.647 74.6676C185.666 74.6399 185.649 74.6016 185.617 74.5948C185.584 74.588 185.568 74.5499 185.587 74.5222L190.149 67.7206C190.162 67.7008 190.177 67.682 190.193 67.6643L190.402 67.432C192.231 65.4006 193.317 61.9204 193.138 58.3855C192.959 54.8507 191.523 51.5275 189.547 49.7492L175.225 36.8603C175.048 36.7017 174.784 36.6881 174.597 36.8335C170.185 40.2599 167.663 46.0333 170.372 52.8373L170.948 54.8651C170.973 54.9537 171.022 55.0336 171.09 55.096L175.291 58.9721C175.493 59.1577 175.507 59.4706 175.324 59.6741L169.031 66.6666C169.015 66.6849 168.987 66.6867 168.968 66.6707C168.949 66.6546 168.921 66.6565 168.905 66.6748L162.416 73.8949C162.401 73.9115 162.403 73.9372 162.42 73.9517C162.437 73.9664 162.439 73.9923 162.424 74.0092L157.707 79.2493C157.522 79.4545 157.206 79.4712 157.001 79.2864L111.426 38.273C111.221 38.0883 111.204 37.7721 111.389 37.5669L126.047 21.2799L129.002 17.9949C129.187 17.7895 129.503 17.7729 129.708 17.9576L142.892 29.8232C143.145 30.0503 143.545 29.9652 143.689 29.6572C145.808 25.0947 148.708 20.9206 152.5 17.1238C152.704 16.9196 152.697 16.5858 152.483 16.3928L137.47 2.88463C136.324 1.85318 134.722 1.05896 132.911 0.594671ZM228.898 100.908C229.166 100.842 229.437 101.006 229.503 101.274L235.78 126.845C235.846 127.114 235.682 127.384 235.413 127.45L192.856 137.895C192.588 137.96 192.317 137.796 192.252 137.528L187.027 116.25L185.974 111.959C185.908 111.691 186.072 111.42 186.341 111.354L228.898 100.908ZM222.293 113.175C222.227 112.906 221.957 112.742 221.688 112.808L198.242 118.563C197.974 118.629 197.81 118.9 197.876 119.168L199.461 125.629C199.527 125.897 199.798 126.061 200.066 125.995L223.512 120.24C223.78 120.174 223.944 119.903 223.879 119.635L222.293 113.175ZM83.6387 83.8592C83.4334 83.6744 83.1172 83.6911 82.9325 83.8964L66.7836 101.843C66.5989 102.049 66.6155 102.365 66.8208 102.55L97.7685 130.4C97.9738 130.584 98.2899 130.568 98.4746 130.362L114.625 112.416C114.81 112.211 114.793 111.895 114.588 111.71L83.6387 83.8592ZM237.723 134.763C237.723 134.763 237.723 134.763 237.723 134.763L244.118 160.818C244.184 161.086 244.02 161.357 243.752 161.422L201.195 171.867C200.927 171.933 200.656 171.769 200.591 171.501L195.368 150.223L194.315 145.932C194.249 145.663 194.413 145.393 194.681 145.327L237.723 134.762C237.723 134.762 237.723 134.763 237.723 134.763ZM230.633 147.148C230.567 146.88 230.296 146.715 230.028 146.781L206.58 152.536C206.312 152.602 206.148 152.873 206.214 153.141L207.8 159.602C207.866 159.87 208.137 160.034 208.405 159.969L231.852 154.213C232.12 154.148 232.284 153.877 232.218 153.609L230.633 147.148ZM66.3686 115.378C66.3685 115.378 66.3683 115.378 66.3681 115.378C66.3676 115.378 66.3671 115.378 66.3668 115.378L0.957619 188.061C0.868917 188.16 0.823005 188.29 0.829976 188.422L1.32453 197.818C1.34794 198.262 1.89751 198.457 2.1955 198.126L63.3122 130.213C63.4969 130.008 63.8131 129.991 64.0183 130.176L70.587 136.088C70.7923 136.273 70.8089 136.589 70.6242 136.794L9.50872 204.706C9.21075 205.038 9.46183 205.564 9.90665 205.54L21.5437 204.928L28.4881 204.562C28.7637 204.548 28.9754 204.313 28.9612 204.037L28.3739 192.666C28.3596 192.391 28.5716 192.155 28.8473 192.141L40.1835 191.554C40.4594 191.54 40.6715 191.304 40.6569 191.028L40.0586 179.682C40.0441 179.406 40.2559 179.171 40.5317 179.157L51.8847 178.559C52.1605 178.544 52.3723 178.309 52.3577 178.033L51.8947 169.266C51.8877 169.134 51.9336 169.004 52.0223 168.905L84.7236 132.568C84.9083 132.363 84.8917 132.047 84.6864 131.862L66.3686 115.378Z"/>
</mask>
<path d="M132.911 0.594671L133.16 -0.373998L133.159 -0.374112L132.911 0.594671ZM128.417 0.15312L128.469 1.15176L128.469 1.15173L128.417 0.15312ZM119.706 3.81182L118.963 3.14275L118.961 3.14522L119.706 3.81182ZM69.5076 52.5148L68.5088 52.5623L68.5088 52.5626L69.5076 52.5148ZM72.9952 61.0444L72.3262 61.7877L72.3262 61.7877L72.9952 61.0444ZM138.505 119.997L139.174 119.254L139.173 119.253L138.505 119.997ZM147.234 122.577L147.18 121.579L147.18 121.579L147.234 122.577ZM190.402 67.432L191.145 68.1018L191.146 68.1011L190.402 67.432ZM189.547 49.7492L190.216 49.0059L190.216 49.0059L189.547 49.7492ZM170.372 52.8373L171.334 52.5641L171.32 52.5149L171.301 52.4673L170.372 52.8373ZM126.047 21.2799L126.79 21.9488L126.79 21.9487L126.047 21.2799ZM137.47 2.88463L136.801 3.62797L136.801 3.62799L137.47 2.88463ZM187.027 116.25L186.056 116.489L186.056 116.489L187.027 116.25ZM195.368 150.223L194.397 150.462L194.397 150.462L195.368 150.223ZM21.5437 204.928L21.5963 205.927L21.5963 205.927L21.5437 204.928ZM84.7236 132.568L83.9803 131.899L84.7236 132.568ZM84.6864 131.862L85.3553 131.119L84.6864 131.862ZM51.8947 169.266L52.8933 169.213L51.8947 169.266ZM52.0223 168.905L51.279 168.236L52.0223 168.905ZM51.8847 178.559L51.9373 179.558L51.8847 178.559ZM52.3577 178.033L51.3591 178.086L52.3577 178.033ZM40.0586 179.682L39.06 179.735L40.0586 179.682ZM40.5317 179.157L40.5842 180.155L40.5317 179.157ZM40.1835 191.554L40.2352 192.553L40.1835 191.554ZM40.6569 191.028L39.6583 191.081L40.6569 191.028ZM28.3739 192.666L27.3752 192.718L28.3739 192.666ZM28.8473 192.141L28.7956 191.143L28.8473 192.141ZM28.4881 204.562L28.5407 205.561L28.4881 204.562ZM28.9612 204.037L27.9625 204.089L28.9612 204.037ZM9.50872 204.706L8.7654 204.038L9.50872 204.706ZM9.90665 205.54L9.85411 204.542L9.90665 205.54ZM70.587 136.088L71.256 135.345L70.587 136.088ZM70.6242 136.794L69.8809 136.126L70.6242 136.794ZM63.3122 130.213L62.5688 129.544L63.3122 130.213ZM64.0183 130.176L64.6873 129.433L64.0183 130.176ZM1.32453 197.818L2.32315 197.765L1.32453 197.818ZM2.1955 198.126L2.93882 198.795L2.1955 198.126ZM0.957619 188.061L0.214295 187.392L0.957619 188.061ZM0.829976 188.422L-0.168642 188.475L0.829976 188.422ZM66.3668 115.378L65.6235 114.709L66.3668 115.378ZM66.3686 115.378L65.6997 116.121L66.3686 115.378ZM231.852 154.213L232.09 155.185L231.852 154.213ZM232.218 153.609L231.247 153.847L232.218 153.609ZM207.8 159.602L206.829 159.841L207.8 159.602ZM208.405 159.969L208.644 160.94L208.405 159.969ZM206.58 152.536L206.342 151.565L206.58 152.536ZM206.214 153.141L207.185 152.903L206.214 153.141ZM230.028 146.781L229.789 145.81L230.028 146.781ZM230.633 147.148L229.661 147.386L230.633 147.148ZM237.723 134.762L237.484 133.791L237.723 134.762ZM194.315 145.932L193.344 146.17L194.315 145.932ZM194.681 145.327L194.92 146.298L194.681 145.327ZM201.195 171.867L201.434 172.838L201.195 171.867ZM200.591 171.501L201.562 171.262L200.591 171.501ZM244.118 160.818L243.147 161.056L244.118 160.818ZM243.752 161.422L243.99 162.394L243.752 161.422ZM114.625 112.416L113.882 111.747L114.625 112.416ZM114.588 111.71L113.919 112.453L114.588 111.71ZM235.78 126.845L234.809 127.084L235.78 126.845ZM235.413 127.45L235.175 126.479L235.413 127.45ZM229.503 101.274L228.532 101.513L229.503 101.274ZM228.898 100.908L228.66 99.9367L228.898 100.908ZM129.708 17.9576L130.377 17.2143L129.708 17.9576ZM111.426 38.273L110.757 39.0163L111.426 38.273ZM157.707 79.2493L156.964 78.5803L157.707 79.2493ZM157.001 79.2864L156.332 80.0298L157.001 79.2864ZM162.424 74.0092L163.167 74.6782L162.424 74.0092ZM162.416 73.8949L163.16 74.5633L162.416 73.8949ZM168.905 66.6748L169.649 67.3432L168.905 66.6748ZM169.031 66.6666L168.288 65.9976L169.031 66.6666ZM175.291 58.9721L175.969 58.2371L175.291 58.9721ZM175.324 59.6741L174.581 59.0051L175.324 59.6741ZM170.948 54.8651L169.986 55.1383L170.948 54.8651ZM171.09 55.096L171.768 54.361L171.09 55.096ZM179.666 83.3487L180.497 83.9058L179.666 83.3487ZM155.769 118.962L156.502 119.642L155.769 118.962ZM155.816 118.902L154.985 118.345L155.816 118.902ZM119.498 4.04495L120.243 4.71155L119.498 4.04495ZM119.446 4.09531L120.087 4.86265L119.446 4.09531ZM237.723 134.763L236.752 135.001L237.723 134.763ZM198.516 14.8088L198.257 15.7747L198.516 14.8088ZM97.7685 130.4L98.4374 129.656L97.7685 130.4ZM98.4746 130.362L97.7313 129.693L98.4746 130.362ZM203.616 83.732L204.583 83.4771L203.616 83.732ZM203.958 83.1218L204.251 84.0779L203.958 83.1218ZM66.7836 101.843L66.0402 101.175L66.7836 101.843ZM66.8208 102.55L67.4897 101.806L66.8208 102.55ZM206.232 91.7712L206.021 90.7936L206.232 91.7712ZM205.64 91.409L206.607 91.1541L205.64 91.409ZM199.461 125.629L200.432 125.391L199.461 125.629ZM200.066 125.995L200.304 126.967L200.066 125.995ZM193.573 210.688L194.559 210.525L193.573 210.688ZM193.915 211.083L194.214 210.128L193.915 211.083ZM190.149 67.7206L189.319 67.1636L190.149 67.7206ZM190.193 67.6643L189.45 66.9945L190.193 67.6643ZM221.688 112.808L221.45 111.837L221.688 112.808ZM222.293 113.175L221.322 113.413L222.293 113.175ZM196.206 94.2148L195.239 94.4697L196.206 94.2148ZM195.895 94.8128L195.546 93.8758L195.895 94.8128ZM185.587 74.5222L186.417 75.0793L185.587 74.5222ZM185.974 111.959L186.945 111.72L185.974 111.959ZM186.341 111.354L186.579 112.325L186.341 111.354ZM193.348 84.9234L193.307 83.9242L193.348 84.9234ZM193.856 85.2972L192.889 85.5521L193.856 85.2972ZM185.647 74.6676L186.475 75.2288L185.647 74.6676ZM191.08 84.1872L190.252 83.6259L191.08 84.1872ZM191.481 84.9579L191.485 83.9579L191.481 84.9579ZM175.225 36.8603L174.556 37.6037L175.225 36.8603ZM174.597 36.8335L175.21 37.6233L174.597 36.8335ZM82.9325 83.8964L82.1892 83.2275L82.9325 83.8964ZM83.6387 83.8592L84.3076 83.1158L83.6387 83.8592ZM235.076 90.6288L236.026 90.3166L235.076 90.6288ZM234.632 90.2862L234.569 91.2842L234.632 90.2862ZM152.5 17.1238L151.792 16.4172L152.5 17.1238ZM152.483 16.3928L151.814 17.1362L152.483 16.3928ZM162.441 59.1499L161.697 58.4815L162.441 59.1499ZM179.791 83.304L178.963 82.7428L179.791 83.304ZM192.856 137.895L192.618 136.923L192.856 137.895ZM192.252 137.528L191.28 137.767L192.252 137.528ZM197.772 74.5845L197.958 75.5669L197.772 74.5845ZM197.448 74.7965L198.275 75.3577L197.448 74.7965ZM223.512 120.24L223.751 121.211L223.512 120.24ZM223.879 119.635L222.907 119.874L223.879 119.635ZM268.365 192.808L269.072 193.515L268.365 192.808ZM268.486 192.3L267.536 192.612L268.486 192.3ZM142.892 29.8232L142.223 30.5665L142.892 29.8232ZM143.689 29.6572L144.595 30.0785L143.689 29.6572ZM155.492 65.9561L156.329 65.4088L155.492 65.9561ZM156.273 66.0129L157.017 66.6813L156.273 66.0129ZM198.242 118.563L198.004 117.592L198.242 118.563ZM197.876 119.168L198.847 118.93L197.876 119.168ZM176.341 104.593L175.823 103.738L176.341 104.593ZM176.106 105.102L175.12 105.266L176.106 105.102ZM72.1815 43.5932L72.8227 44.3605L72.1815 43.5932ZM72.1228 43.6513L72.8853 44.2983L72.1228 43.6513ZM198.775 13.8422C177.454 8.12937 155.148 18.6293 149.813 38.54L151.745 39.0576C156.733 20.4406 177.761 10.2823 198.257 15.774L198.775 13.8422ZM149.813 38.54C147.181 48.3642 149.289 58.2968 154.655 66.5034L156.329 65.4088C151.237 57.6216 149.277 48.2699 151.745 39.0576L149.813 38.54ZM157.017 66.6813L163.184 59.8183L161.697 58.4815L155.53 65.3445L157.017 66.6813ZM163.391 58.1024C160.631 52.9324 159.767 47.1303 161.248 41.6039L159.316 41.0862C157.69 47.1564 158.656 53.478 161.626 59.0441L163.391 58.1024ZM161.248 41.6039C164.661 28.865 179.698 20.9869 195.71 25.2773L196.228 23.3455C179.411 18.8394 163.081 27.0361 159.316 41.0862L161.248 41.6039ZM195.71 25.2773C211.722 29.5677 220.806 43.9089 217.392 56.6477L219.324 57.1654C223.089 43.1152 213.045 27.8516 196.228 23.3455L195.71 25.2773ZM217.392 56.6477C215.064 65.3376 207.36 71.7469 197.585 73.602L197.958 75.5669C208.345 73.5956 216.762 66.7273 219.324 57.1654L217.392 56.6477ZM196.62 74.2352L190.252 83.6259L191.907 84.7484L198.275 75.3577L196.62 74.2352ZM191.478 85.9579C192.115 85.9599 192.752 85.9481 193.388 85.9226L193.307 83.9242C192.7 83.9486 192.092 83.9598 191.485 83.9579L191.478 85.9579ZM192.889 85.5521L195.239 94.4697L197.173 93.9599L194.823 85.0424L192.889 85.5521ZM195.546 93.8758C189.216 96.2352 182.826 99.4989 175.823 103.738L176.858 105.449C183.792 101.252 190.067 98.0524 196.245 95.7499L195.546 93.8758ZM175.12 105.266L192.586 210.851L194.559 210.525L177.093 104.939L175.12 105.266ZM193.616 212.037C220.01 220.306 249.507 213.066 269.072 193.515L267.659 192.1C248.62 211.125 219.898 218.175 194.214 210.128L193.616 212.037ZM269.436 191.987L236.026 90.3166L234.126 90.941L267.536 192.612L269.436 191.987ZM234.695 89.2881C223.776 88.5997 214.632 88.9429 206.021 90.7936L206.442 92.7489C214.812 90.9499 223.759 90.6025 234.569 91.2842L234.695 89.2881ZM206.607 91.1541L204.583 83.4771L202.649 83.9869L204.673 91.6639L206.607 91.1541ZM204.251 84.0779C216.018 80.47 225.582 71.8277 228.828 59.7124L226.896 59.1948C223.855 70.5457 214.877 78.728 203.665 82.1658L204.251 84.0779ZM228.828 59.7124C234.163 39.8018 220.096 19.5559 198.775 13.8428L198.257 15.7747C218.753 21.2667 231.884 40.5778 226.896 59.1948L228.828 59.7124ZM133.159 -0.374112C131.654 -0.759348 130.015 -0.93278 128.364 -0.845484L128.469 1.15173C129.916 1.07527 131.352 1.22776 132.663 1.56345L133.159 -0.374112ZM128.364 -0.845514C124.626 -0.650018 121.01 0.868836 118.963 3.14275L120.45 4.48089C122.06 2.69184 125.125 1.32663 128.469 1.15176L128.364 -0.845514ZM118.961 3.14522L118.753 3.37834L120.243 4.71155L120.452 4.47843L118.961 3.14522ZM118.805 3.32798L71.5402 42.8259L72.8227 44.3605L120.087 4.86265L118.805 3.32798ZM71.3603 43.0043C69.422 45.2887 68.336 48.9316 68.5088 52.5623L70.5065 52.4672C70.3524 49.2286 71.3419 46.1171 72.8853 44.2983L71.3603 43.0043ZM68.5088 52.5626C68.687 56.2833 70.1828 59.8586 72.3262 61.7877L73.6641 60.3011C72.017 58.8186 70.6664 55.805 70.5065 52.4669L68.5088 52.5626ZM72.3262 61.7877L137.836 120.74L139.173 119.253L73.6641 60.3011L72.3262 61.7877ZM137.835 120.74C139.935 122.631 143.613 123.774 147.287 123.576L147.18 121.579C143.898 121.756 140.787 120.706 139.174 119.254L137.835 120.74ZM147.287 123.576C150.888 123.383 154.364 121.947 156.502 119.642L155.035 118.282C153.322 120.13 150.376 121.407 147.18 121.579L147.287 123.576ZM156.646 119.459L180.497 83.9058L178.836 82.7916L154.985 118.345L156.646 119.459ZM180.618 83.8653L186.475 75.2288L184.819 74.1064L178.963 82.7428L180.618 83.8653ZM186.417 75.0793L190.98 68.2777L189.319 67.1636L184.756 73.9651L186.417 75.0793ZM190.936 68.3341L191.145 68.1018L189.66 66.7623L189.45 66.9945L190.936 68.3341ZM191.146 68.1011C193.193 65.8272 194.325 62.0655 194.136 58.335L192.139 58.4361C192.308 61.7753 191.27 64.9739 189.659 66.763L191.146 68.1011ZM194.136 58.335C193.948 54.6053 192.437 51.0045 190.216 49.0059L188.879 50.4925C190.61 52.0506 191.97 55.0961 192.139 58.4361L194.136 58.335ZM190.216 49.0059L175.894 36.117L174.556 37.6037L188.879 50.4925L190.216 49.0059ZM173.984 36.0437C169.267 39.707 166.548 45.937 169.443 53.2072L171.301 52.4673C168.778 46.1296 171.103 40.8129 175.21 37.6233L173.984 36.0437ZM169.41 53.1105L169.986 55.1383L171.91 54.5919L171.334 52.5641L169.41 53.1105ZM170.412 55.831L174.613 59.7071L175.969 58.2371L171.768 54.361L170.412 55.831ZM174.581 59.0051L168.288 65.9976L169.775 67.3355L176.067 60.343L174.581 59.0051ZM168.161 66.0064L161.673 73.2264L163.16 74.5633L169.649 67.3432L168.161 66.0064ZM161.68 73.3402L156.964 78.5803L158.45 79.9183L163.167 74.6782L161.68 73.3402ZM157.67 78.5431L112.095 37.5297L110.757 39.0163L156.332 80.0298L157.67 78.5431ZM112.132 38.2358L126.79 21.9488L125.304 20.6109L110.646 36.8979L112.132 38.2358ZM126.79 21.9487L129.746 18.6637L128.259 17.3261L125.303 20.6111L126.79 21.9487ZM129.039 18.7009L142.223 30.5665L143.561 29.0799L130.377 17.2143L129.039 18.7009ZM144.595 30.0785C146.665 25.624 149.497 21.5461 153.208 17.8304L151.792 16.4172C147.92 20.2952 144.951 24.5654 142.782 29.2359L144.595 30.0785ZM153.151 15.6495L138.139 2.14126L136.801 3.62799L151.814 17.1362L153.151 15.6495ZM138.139 2.14128C136.846 0.977869 135.088 0.120375 133.16 -0.373998L132.663 1.56334C134.356 1.99754 135.802 2.72849 136.801 3.62797L138.139 2.14128ZM228.532 101.513L234.809 127.084L236.751 126.607L230.474 101.036L228.532 101.513ZM235.175 126.479L192.618 136.923L193.095 138.866L235.652 128.421L235.175 126.479ZM193.223 137.29L187.999 116.012L186.056 116.489L191.28 137.767L193.223 137.29ZM187.999 116.012L186.945 111.72L185.003 112.197L186.056 116.489L187.999 116.012ZM186.579 112.325L229.137 101.879L228.66 99.9367L186.102 110.383L186.579 112.325ZM221.45 111.837L198.004 117.592L198.48 119.535L221.927 113.779L221.45 111.837ZM196.905 119.407L198.49 125.867L200.432 125.391L198.847 118.93L196.905 119.407ZM200.304 126.967L223.751 121.211L223.274 119.269L199.828 125.024L200.304 126.967ZM224.85 119.397L223.264 112.936L221.322 113.413L222.907 119.874L224.85 119.397ZM82.1892 83.2275L66.0402 101.175L67.5269 102.512L83.6759 84.5653L82.1892 83.2275ZM66.1519 103.293L97.0996 131.143L98.4374 129.656L67.4897 101.806L66.1519 103.293ZM99.2179 131.031L115.368 113.085L113.882 111.747L97.7313 129.693L99.2179 131.031ZM115.257 110.967L84.3076 83.1158L82.9698 84.6025L113.919 112.453L115.257 110.967ZM236.752 135.001L243.147 161.056L245.09 160.579L238.694 134.525L236.752 135.001ZM243.514 160.451L200.957 170.896L201.434 172.838L243.99 162.394L243.514 160.451ZM201.562 171.262L196.339 149.985L194.397 150.462L199.619 171.739L201.562 171.262ZM196.339 149.985L195.286 145.693L193.344 146.17L194.397 150.462L196.339 149.985ZM194.92 146.298L237.961 135.734L237.484 133.791L194.443 144.356L194.92 146.298ZM229.789 145.81L206.342 151.565L206.819 153.508L230.266 147.752L229.789 145.81ZM205.243 153.38L206.829 159.841L208.772 159.364L207.185 152.903L205.243 153.38ZM208.644 160.94L232.09 155.185L231.614 153.242L208.167 158.997L208.644 160.94ZM233.19 153.37L231.604 146.909L229.661 147.386L231.247 153.847L233.19 153.37ZM65.6235 114.709L0.214295 187.392L1.70094 188.73L67.1101 116.047L65.6235 114.709ZM-0.168642 188.475L0.325911 197.87L2.32315 197.765L1.82859 188.37L-0.168642 188.475ZM2.93882 198.795L64.0555 130.882L62.5688 129.544L1.45218 197.457L2.93882 198.795ZM63.3493 130.919L69.9181 136.832L71.256 135.345L64.6873 129.433L63.3493 130.919ZM69.8809 136.126L8.7654 204.038L10.252 205.375L71.3675 137.463L69.8809 136.126ZM9.95918 206.539L21.5963 205.927L21.4912 203.929L9.85411 204.542L9.95918 206.539ZM21.5963 205.927L28.5407 205.561L28.4356 203.564L21.4912 203.929L21.5963 205.927ZM29.9599 203.986L29.3725 192.615L27.3752 192.718L27.9625 204.089L29.9599 203.986ZM28.8991 193.14L40.2352 192.553L40.1317 190.555L28.7956 191.143L28.8991 193.14ZM41.6555 190.976L41.0572 179.63L39.06 179.735L39.6583 191.081L41.6555 190.976ZM40.5842 180.155L51.9373 179.558L51.8322 177.56L40.4791 178.158L40.5842 180.155ZM53.3564 177.98L52.8933 169.213L50.8961 169.319L51.3591 178.086L53.3564 177.98ZM52.7656 169.574L85.4669 133.237L83.9803 131.899L51.279 168.236L52.7656 169.574ZM85.3553 131.119L67.0376 114.635L65.6997 116.121L84.0175 132.605L85.3553 131.119ZM85.4669 133.237C86.0211 132.621 85.9711 131.673 85.3553 131.119L84.0175 132.605C83.8122 132.421 83.7955 132.105 83.9803 131.899L85.4669 133.237ZM52.8933 169.213C52.9003 169.346 52.8543 169.476 52.7656 169.574L51.279 168.236C51.0128 168.532 50.8751 168.922 50.8961 169.319L52.8933 169.213ZM51.9373 179.558C52.7647 179.514 53.4001 178.808 53.3564 177.98L51.3591 178.086C51.3446 177.81 51.5564 177.575 51.8322 177.56L51.9373 179.558ZM41.0572 179.63C41.0718 179.905 40.86 180.141 40.5842 180.155L40.4791 178.158C39.6518 178.202 39.0164 178.908 39.06 179.735L41.0572 179.63ZM40.2352 192.553C41.0631 192.51 41.6992 191.803 41.6555 190.976L39.6583 191.081C39.6437 190.805 39.8558 190.57 40.1317 190.555L40.2352 192.553ZM29.3725 192.615C29.3868 192.89 29.1748 193.126 28.8991 193.14L28.7956 191.143C27.9684 191.185 27.3325 191.891 27.3752 192.718L29.3725 192.615ZM28.5407 205.561C29.3674 205.518 30.0026 204.812 29.9599 203.986L27.9625 204.089C27.9483 203.813 28.16 203.578 28.4356 203.564L28.5407 205.561ZM8.7654 204.038C7.8715 205.031 8.62471 206.609 9.95918 206.539L9.85411 204.542C10.2989 204.518 10.55 205.044 10.252 205.375L8.7654 204.038ZM69.9181 136.832C69.7128 136.647 69.6962 136.331 69.8809 136.126L71.3675 137.463C71.9217 136.848 71.8717 135.899 71.256 135.345L69.9181 136.832ZM64.0555 130.882C63.8708 131.087 63.5546 131.104 63.3493 130.919L64.6873 129.433C64.0715 128.879 63.123 128.928 62.5688 129.544L64.0555 130.882ZM0.325911 197.87C0.396158 199.205 2.04486 199.788 2.93882 198.795L1.45218 197.457C1.75016 197.126 2.29973 197.32 2.32315 197.765L0.325911 197.87ZM0.214295 187.392C-0.0518174 187.688 -0.189552 188.077 -0.168642 188.475L1.82859 188.37C1.83556 188.502 1.78965 188.632 1.70094 188.73L0.214295 187.392ZM66.6269 114.412C66.2631 114.314 65.8754 114.429 65.6235 114.709L67.1101 116.047C66.8589 116.326 66.4721 116.441 66.1093 116.344L66.6269 114.412ZM66.1093 116.344C65.9572 116.303 65.8169 116.227 65.6997 116.121L67.0376 114.635C66.9201 114.529 66.7794 114.453 66.6269 114.412L66.1093 116.344ZM232.09 155.185C232.895 154.987 233.387 154.175 233.19 153.37L231.247 153.847C231.181 153.579 231.345 153.308 231.614 153.242L232.09 155.185ZM206.829 159.841C207.027 160.645 207.839 161.137 208.644 160.94L208.167 158.997C208.435 158.932 208.706 159.096 208.772 159.364L206.829 159.841ZM206.342 151.565C205.538 151.763 205.045 152.575 205.243 153.38L207.185 152.903C207.251 153.171 207.087 153.442 206.819 153.508L206.342 151.565ZM230.266 147.752C229.998 147.818 229.727 147.654 229.661 147.386L231.604 146.909C231.406 146.105 230.594 145.613 229.789 145.81L230.266 147.752ZM237.961 135.734C236.867 136.002 236.189 134.483 237.23 133.893L238.216 135.633C239.257 135.042 238.579 133.523 237.484 133.791L237.961 135.734ZM195.286 145.693C195.352 145.961 195.188 146.232 194.92 146.298L194.443 144.356C193.638 144.553 193.146 145.365 193.344 146.17L195.286 145.693ZM200.957 170.896C201.225 170.83 201.496 170.994 201.562 171.262L199.619 171.739C199.817 172.544 200.629 173.036 201.434 172.838L200.957 170.896ZM243.147 161.056C243.081 160.788 243.245 160.517 243.514 160.451L243.99 162.394C244.795 162.196 245.287 161.384 245.09 160.579L243.147 161.056ZM115.368 113.085C115.922 112.469 115.872 111.521 115.257 110.967L113.919 112.453C113.714 112.269 113.697 111.953 113.882 111.747L115.368 113.085ZM234.809 127.084C234.743 126.816 234.907 126.545 235.175 126.479L235.652 128.421C236.456 128.224 236.949 127.411 236.751 126.607L234.809 127.084ZM230.474 101.036C230.277 100.231 229.464 99.7392 228.66 99.9367L229.137 101.879C228.868 101.945 228.598 101.781 228.532 101.513L230.474 101.036ZM129.746 18.6637C129.561 18.869 129.245 18.8857 129.039 18.7009L130.377 17.2143C129.761 16.66 128.813 16.7101 128.259 17.3261L129.746 18.6637ZM112.095 37.5297C112.3 37.7144 112.317 38.0306 112.132 38.2358L110.646 36.8979C110.092 37.5137 110.142 38.4622 110.757 39.0163L112.095 37.5297ZM156.964 78.5803C157.149 78.375 157.465 78.3584 157.67 78.5431L156.332 80.0298C156.948 80.5839 157.896 80.534 158.45 79.9183L156.964 78.5803ZM161.773 74.7145C161.355 74.3602 161.323 73.7374 161.68 73.3402L163.167 74.6782C163.555 74.2472 163.519 73.5726 163.067 73.1889L161.773 74.7145ZM161.673 73.2264C161.29 73.6527 161.316 74.3272 161.773 74.7145L163.067 73.1889C163.489 73.5471 163.513 74.1704 163.16 74.5633L161.673 73.2264ZM169.619 65.9116C169.188 65.5419 168.541 65.584 168.161 66.0064L169.649 67.3432C169.302 67.7289 168.711 67.7674 168.317 67.4298L169.619 65.9116ZM168.288 65.9976C168.635 65.6123 169.226 65.5741 169.619 65.9116L168.317 67.4298C168.748 67.7992 169.395 67.7574 169.775 67.3355L168.288 65.9976ZM174.613 59.7071C174.412 59.5215 174.398 59.2086 174.581 59.0051L176.067 60.343C176.617 59.7326 176.573 58.794 175.969 58.2371L174.613 59.7071ZM169.986 55.1383C170.062 55.404 170.209 55.6437 170.412 55.831L171.768 54.361C171.836 54.4235 171.885 54.5034 171.91 54.5919L169.986 55.1383ZM180.497 83.9058C180.274 84.2382 179.849 84.4089 179.436 84.2826L180.02 82.37C179.561 82.2294 179.086 82.4188 178.836 82.7916L180.497 83.9058ZM156.502 119.642C156.556 119.583 156.604 119.522 156.646 119.459L154.985 118.345C154.999 118.325 155.015 118.304 155.035 118.282L156.502 119.642ZM118.753 3.37834C118.769 3.36032 118.786 3.34348 118.805 3.32798L120.087 4.86265C120.143 4.81613 120.195 4.76563 120.243 4.71155L118.753 3.37834ZM238.694 134.525C238.801 134.959 238.606 135.412 238.216 135.633L237.23 133.893C236.84 134.114 236.645 134.567 236.752 135.001L238.694 134.525ZM198.775 13.8428C199.305 13.985 199.626 14.5311 199.482 15.0672L197.55 14.5496C197.406 15.0861 197.727 15.6325 198.257 15.7747L198.775 13.8428ZM97.0996 131.143C97.7154 131.697 98.6638 131.647 99.2179 131.031L97.7313 129.693C97.916 129.488 98.2322 129.472 98.4374 129.656L97.0996 131.143ZM204.583 83.4771C204.653 83.743 204.497 84.0026 204.251 84.0779L203.665 82.1658C202.902 82.3999 202.441 83.1974 202.649 83.9869L204.583 83.4771ZM66.0402 101.175C65.4861 101.79 65.5361 102.739 66.1519 103.293L67.4897 101.806C67.695 101.991 67.7116 102.307 67.5269 102.512L66.0402 101.175ZM206.021 90.7936C206.278 90.7385 206.538 90.8933 206.607 91.1541L204.673 91.6639C204.878 92.4439 205.661 92.9168 206.442 92.7489L206.021 90.7936ZM198.49 125.867C198.687 126.672 199.5 127.164 200.304 126.967L199.828 125.024C200.096 124.958 200.366 125.122 200.432 125.391L198.49 125.867ZM192.586 210.851C192.678 211.408 193.076 211.867 193.616 212.037L194.214 210.128C194.396 210.185 194.529 210.339 194.559 210.525L192.586 210.851ZM190.98 68.2777C190.966 68.2975 190.952 68.3163 190.936 68.3341L189.45 66.9945C189.402 67.0477 189.358 67.1042 189.319 67.1636L190.98 68.2777ZM221.927 113.779C221.659 113.845 221.388 113.681 221.322 113.413L223.264 112.936C223.067 112.132 222.255 111.639 221.45 111.837L221.927 113.779ZM195.239 94.4697C195.173 94.2194 195.309 93.9642 195.546 93.8758L196.245 95.7499C196.965 95.4812 197.371 94.7093 197.173 93.9599L195.239 94.4697ZM185.82 73.6156C186.471 73.7506 186.801 74.5074 186.417 75.0793L184.756 73.9651C184.336 74.5924 184.698 75.4254 185.414 75.5739L185.82 73.6156ZM186.945 111.72C187.011 111.989 186.847 112.259 186.579 112.325L186.102 110.383C185.298 110.58 184.806 111.393 185.003 112.197L186.945 111.72ZM193.388 85.9226C193.161 85.9317 192.95 85.7827 192.889 85.5521L194.823 85.0424C194.642 84.3548 194.007 83.8961 193.307 83.9242L193.388 85.9226ZM186.475 75.2288C186.907 74.5912 186.525 73.762 185.82 73.6156L185.414 75.5739C184.774 75.4412 184.424 74.6887 184.819 74.1064L186.475 75.2288ZM190.252 83.6259C189.591 84.6003 190.263 85.9541 191.478 85.9579L191.485 83.9579C191.909 83.9592 192.124 84.4289 191.907 84.7484L190.252 83.6259ZM175.894 36.117C175.369 35.6452 174.566 35.5916 173.984 36.0437L175.21 37.6233C175.003 37.7845 174.727 37.7582 174.556 37.6037L175.894 36.117ZM83.6759 84.5653C83.4912 84.7706 83.175 84.7872 82.9698 84.6025L84.3076 83.1158C83.6918 82.5617 82.7433 82.6117 82.1892 83.2275L83.6759 84.5653ZM236.026 90.3166C235.834 89.7324 235.305 89.3266 234.695 89.2881L234.569 91.2842C234.367 91.2714 234.191 91.1374 234.126 90.941L236.026 90.3166ZM153.208 17.8304C153.811 17.2263 153.797 16.2305 153.151 15.6495L151.814 17.1362C151.597 16.9412 151.597 16.613 151.792 16.4172L153.208 17.8304ZM163.184 59.8183C163.613 59.3412 163.685 58.6539 163.391 58.1024L161.626 59.0441C161.532 58.8679 161.552 58.6422 161.697 58.4815L163.184 59.8183ZM179.436 84.2826C179.882 84.4192 180.36 84.2457 180.618 83.8653L178.963 82.7428C179.193 82.4032 179.621 82.2478 180.02 82.37L179.436 84.2826ZM192.618 136.923C192.886 136.858 193.157 137.022 193.223 137.29L191.28 137.767C191.478 138.571 192.29 139.063 193.095 138.866L192.618 136.923ZM197.585 73.602C197.197 73.6757 196.847 73.9003 196.62 74.2352L198.275 75.3577C198.199 75.4707 198.083 75.5432 197.958 75.5669L197.585 73.602ZM223.751 121.211C224.555 121.014 225.047 120.202 224.85 119.397L222.907 119.874C222.842 119.605 223.006 119.335 223.274 119.269L223.751 121.211ZM269.072 193.515C269.473 193.115 269.612 192.523 269.436 191.987L267.536 192.612C267.478 192.433 267.524 192.235 267.659 192.1L269.072 193.515ZM142.223 30.5665C142.985 31.2514 144.174 30.9857 144.595 30.0785L142.782 29.2359C142.917 28.9446 143.305 28.8492 143.561 29.0799L142.223 30.5665ZM154.655 66.5034C155.198 67.3344 156.369 67.4028 157.017 66.6813L155.53 65.3445C155.744 65.1063 156.141 65.1216 156.329 65.4088L154.655 66.5034ZM198.004 117.592C197.199 117.79 196.707 118.602 196.905 119.407L198.847 118.93C198.913 119.198 198.749 119.469 198.48 119.535L198.004 117.592ZM175.823 103.738C175.299 104.055 175.019 104.66 175.12 105.266L177.093 104.939C177.126 105.142 177.033 105.343 176.858 105.449L175.823 103.738ZM71.5402 42.8259C71.4777 42.8781 71.4171 42.9373 71.3603 43.0043L72.8853 44.2983C72.8643 44.323 72.8429 44.3437 72.8227 44.3605L71.5402 42.8259ZM198.257 15.774C197.73 15.6328 197.406 15.0891 197.55 14.5496L199.482 15.0672C199.627 14.5275 199.302 13.9835 198.775 13.8422L198.257 15.774Z" fill="#1985D2" mask="url(#path-1-inside-1_1382_44224)"/>
</g>
</svg>
