<svg width="16" height="9" viewBox="0 0 16 9" fill="none" xmlns="http://www.w3.org/2000/svg">
<path d="M7.45469 8.20947L0.725715 1.34151C0.581002 1.19319 0.5 0.994168 0.5 0.786941C0.5 0.579715 0.581002 0.380697 0.725715 0.23237C0.79702 0.158642 0.88247 0.100061 0.976947 0.0601343C1.07143 0.0202072 1.17299 -0.000244937 1.27556 2.21351e-06C1.37812 0.000249364 1.47959 0.0211908 1.57387 0.0615727C1.66815 0.101955 1.75332 0.160947 1.82427 0.235017L8.54663 7.10297C8.69134 7.2513 8.77235 7.45031 8.77235 7.65754C8.77235 7.86477 8.69134 8.06379 8.54663 8.21211C8.47562 8.28479 8.3908 8.34254 8.29716 8.38197C8.20351 8.4214 8.10293 8.44171 8.00132 8.44171C7.89972 8.44171 7.79913 8.4214 7.70549 8.38197C7.61184 8.34254 7.52702 8.28479 7.45602 8.21211L7.45469 8.20947ZM9.71798 5.90515C9.57327 5.75682 9.49227 5.5578 9.49227 5.35058C9.49227 5.14335 9.57327 4.94433 9.71798 4.796L14.1823 0.235017C14.2535 0.1623 14.3384 0.104523 14.4322 0.0650783C14.5259 0.0256332 14.6266 0.00531423 14.7283 0.00531423C14.83 0.00531423 14.9307 0.0256332 15.0245 0.0650783C15.1182 0.104523 15.2032 0.1623 15.2743 0.235017C15.419 0.383344 15.5 0.582362 15.5 0.789588C15.5 0.996815 15.419 1.19583 15.2743 1.34416L10.8086 5.9025C10.7377 5.97534 10.6529 6.03324 10.5592 6.07277C10.4656 6.1123 10.3649 6.13267 10.2633 6.13267C10.1616 6.13267 10.061 6.1123 9.96734 6.07277C9.87368 6.03324 9.7889 5.97534 9.71798 5.9025V5.90515Z" fill="#FFFFFF"/>
</svg>
