<svg width="27" height="20" viewBox="0 0 27 20" fill="none" xmlns="http://www.w3.org/2000/svg">
<path d="M26.3993 10C26.3993 10.2652 26.294 10.5195 26.1064 10.7071C25.9189 10.8946 25.6646 10.9999 25.3994 10.9999H3.41435L10.7077 18.292C10.8006 18.3849 10.8743 18.4952 10.9246 18.6166C10.9749 18.738 11.0007 18.8681 11.0007 18.9995C11.0007 19.1309 10.9749 19.261 10.9246 19.3824C10.8743 19.5038 10.8006 19.6141 10.7077 19.707C10.6148 19.7999 10.5045 19.8736 10.3831 19.9238C10.2617 19.9741 10.1316 20 10.0002 20C9.86884 20 9.73874 19.9741 9.61735 19.9238C9.49597 19.8736 9.38567 19.7999 9.29277 19.707L0.29327 10.7075C0.200299 10.6146 0.126544 10.5043 0.0762227 10.3829C0.0259012 10.2615 0 10.1314 0 10C0 9.86859 0.0259012 9.73847 0.0762227 9.61708C0.126544 9.49569 0.200299 9.38541 0.29327 9.29254L9.29277 0.29304C9.4804 0.105409 9.73488 -1.97701e-09 10.0002 0C10.2656 1.97701e-09 10.5201 0.105409 10.7077 0.29304C10.8953 0.48067 11.0007 0.735151 11.0007 1.0005C11.0007 1.26585 10.8953 1.52033 10.7077 1.70796L3.41435 9.00005H25.3994C25.6646 9.00005 25.9189 9.10541 26.1064 9.29293C26.294 9.48046 26.3993 9.7348 26.3993 10Z" fill="white"/>
</svg>
