<svg width="553" height="18" viewBox="0 0 553 18" fill="none" xmlns="http://www.w3.org/2000/svg">
<path d="M552.667 3C552.667 4.47276 551.473 5.66667 550 5.66667C548.527 5.66667 547.333 4.47276 547.333 3C547.333 1.52724 548.527 0.333333 550 0.333333C551.473 0.333333 552.667 1.52724 552.667 3ZM5.66669 15C5.66669 16.4728 4.47278 17.6667 3 17.6667C1.52728 17.6667 0.333374 16.4728 0.333374 15C0.333374 13.5272 1.52728 12.3333 3 12.3333C4.47278 12.3333 5.66669 13.5272 5.66669 15ZM504.545 15L504.673 15.4834L504.61 15.5H504.545V15ZM550.128 3.48344L549.181 3.73344L548.925 2.76656L549.872 2.51656L550.128 3.48344ZM547.287 4.23344L545.393 4.73344L545.137 3.76656L547.031 3.26656L547.287 4.23344ZM543.499 5.23344L541.605 5.73344L541.35 4.76656L543.244 4.26656L543.499 5.23344ZM539.711 6.23344L537.817 6.73344L537.562 5.76656L539.456 5.26656L539.711 6.23344ZM535.923 7.23344L534.029 7.73344L533.774 6.76656L535.668 6.26656L535.923 7.23344ZM532.135 8.23344L530.241 8.73344L529.986 7.76656L531.88 7.26656L532.135 8.23344ZM528.347 9.23344L526.453 9.73344L526.198 8.76656L528.092 8.26656L528.347 9.23344ZM524.559 10.2334L522.665 10.7334L522.41 9.76656L524.304 9.26656L524.559 10.2334ZM520.771 11.2334L518.877 11.7334L518.622 10.7666L520.516 10.2666L520.771 11.2334ZM516.983 12.2334L515.089 12.7334L514.834 11.7666L516.728 11.2666L516.983 12.2334ZM513.195 13.2334L511.302 13.7334L511.046 12.7666L512.94 12.2666L513.195 13.2334ZM509.408 14.2334L507.514 14.7334L507.258 13.7666L509.152 13.2666L509.408 14.2334ZM505.62 15.2334L504.673 15.4834L504.417 14.5166L505.364 14.2666L505.62 15.2334ZM504.545 15.5H503.542V14.5H504.545V15.5ZM501.536 15.5H499.53V14.5H501.536V15.5ZM497.523 15.5H495.517V14.5H497.523V15.5ZM493.511 15.5H491.505V14.5H493.511V15.5ZM489.499 15.5H487.493V14.5H489.499V15.5ZM485.486 15.5H483.48V14.5H485.486V15.5ZM481.474 15.5H479.468V14.5H481.474V15.5ZM477.462 15.5H475.455V14.5H477.462V15.5ZM473.449 15.5H471.443V14.5H473.449V15.5ZM469.437 15.5H467.431V14.5H469.437V15.5ZM465.425 15.5H463.418V14.5H465.425V15.5ZM461.412 15.5H459.406V14.5H461.412V15.5ZM457.4 15.5H455.394V14.5H457.4V15.5ZM453.387 15.5H451.381V14.5H453.387V15.5ZM449.375 15.5H447.369V14.5H449.375V15.5ZM445.363 15.5H443.357V14.5H445.363V15.5ZM441.35 15.5H439.344V14.5H441.35V15.5ZM437.338 15.5H435.332V14.5H437.338V15.5ZM433.326 15.5H431.32V14.5H433.326V15.5ZM429.313 15.5H427.307V14.5H429.313V15.5ZM425.301 15.5H423.295V14.5H425.301V15.5ZM421.289 15.5H419.282V14.5H421.289V15.5ZM417.276 15.5H415.27V14.5H417.276V15.5ZM413.264 15.5H411.258V14.5H413.264V15.5ZM409.252 15.5H407.245V14.5H409.252V15.5ZM405.239 15.5H403.233V14.5H405.239V15.5ZM401.227 15.5H399.221V14.5H401.227V15.5ZM397.214 15.5H395.208V14.5H397.214V15.5ZM393.202 15.5H391.196V14.5H393.202V15.5ZM389.19 15.5H387.184V14.5H389.19V15.5ZM385.177 15.5H383.171V14.5H385.177V15.5ZM381.165 15.5H379.159V14.5H381.165V15.5ZM377.153 15.5H375.146V14.5H377.153V15.5ZM373.14 15.5H371.134V14.5H373.14V15.5ZM369.128 15.5H367.122V14.5H369.128V15.5ZM365.116 15.5H363.109V14.5H365.116V15.5ZM361.103 15.5H359.097V14.5H361.103V15.5ZM357.091 15.5H355.085V14.5H357.091V15.5ZM353.078 15.5H351.072V14.5H353.078V15.5ZM349.066 15.5H347.06V14.5H349.066V15.5ZM345.054 15.5H343.048V14.5H345.054V15.5ZM341.041 15.5H339.035V14.5H341.041V15.5ZM337.029 15.5H335.023V14.5H337.029V15.5ZM333.017 15.5H331.011V14.5H333.017V15.5ZM329.004 15.5H326.998V14.5H329.004V15.5ZM324.992 15.5H322.986V14.5H324.992V15.5ZM320.98 15.5H318.973V14.5H320.98V15.5ZM316.967 15.5H314.961V14.5H316.967V15.5ZM312.955 15.5H310.949V14.5H312.955V15.5ZM308.943 15.5H306.936V14.5H308.943V15.5ZM304.93 15.5H302.924V14.5H304.93V15.5ZM300.918 15.5H298.912V14.5H300.918V15.5ZM296.905 15.5H294.899V14.5H296.905V15.5ZM292.893 15.5H290.887V14.5H292.893V15.5ZM288.881 15.5H286.875V14.5H288.881V15.5ZM284.868 15.5H282.862V14.5H284.868V15.5ZM280.856 15.5H278.85V14.5H280.856V15.5ZM276.844 15.5H274.837V14.5H276.844V15.5ZM272.831 15.5H270.825V14.5H272.831V15.5ZM268.819 15.5H266.813V14.5H268.819V15.5ZM264.807 15.5H262.8V14.5H264.807V15.5ZM260.794 15.5H258.788V14.5H260.794V15.5ZM256.782 15.5H254.776V14.5H256.782V15.5ZM252.77 15.5H250.763V14.5H252.77V15.5ZM248.757 15.5H246.751V14.5H248.757V15.5ZM244.745 15.5H242.739V14.5H244.745V15.5ZM240.732 15.5H238.726V14.5H240.732V15.5ZM236.72 15.5H234.714V14.5H236.72V15.5ZM232.708 15.5H230.701V14.5H232.708V15.5ZM228.695 15.5H226.689V14.5H228.695V15.5ZM224.683 15.5H222.677V14.5H224.683V15.5ZM220.67 15.5H218.664V14.5H220.67V15.5ZM216.658 15.5H214.652V14.5H216.658V15.5ZM212.646 15.5H210.639V14.5H212.646V15.5ZM208.633 15.5H206.627V14.5H208.633V15.5ZM204.621 15.5H202.615V14.5H204.621V15.5ZM200.608 15.5H198.602V14.5H200.608V15.5ZM196.596 15.5H194.59V14.5H196.596V15.5ZM192.584 15.5H190.577V14.5H192.584V15.5ZM188.571 15.5H186.565V14.5H188.571V15.5ZM184.559 15.5H182.553V14.5H184.559V15.5ZM180.547 15.5H178.54V14.5H180.547V15.5ZM176.534 15.5H174.528V14.5H176.534V15.5ZM172.522 15.5H170.516V14.5H172.522V15.5ZM168.509 15.5H166.503V14.5H168.509V15.5ZM164.497 15.5H162.491V14.5H164.497V15.5ZM160.485 15.5H158.478V14.5H160.485V15.5ZM156.472 15.5H154.466V14.5H156.472V15.5ZM152.46 15.5H150.454V14.5H152.46V15.5ZM148.447 15.5H146.441V14.5H148.447V15.5ZM144.435 15.5H142.429V14.5H144.435V15.5ZM140.423 15.5H138.416V14.5H140.423V15.5ZM136.41 15.5H134.404V14.5H136.41V15.5ZM132.398 15.5H130.392V14.5H132.398V15.5ZM128.385 15.5H126.379V14.5H128.385V15.5ZM124.373 15.5H122.367V14.5H124.373V15.5ZM120.361 15.5H118.354V14.5H120.361V15.5ZM116.348 15.5H114.342V14.5H116.348V15.5ZM112.336 15.5H110.33V14.5H112.336V15.5ZM108.324 15.5H106.317V14.5H108.324V15.5ZM104.311 15.5H102.305V14.5H104.311V15.5ZM100.299 15.5H98.2925V14.5H100.299V15.5ZM96.2863 15.5H94.2801V14.5H96.2863V15.5ZM92.274 15.5H90.2677V14.5H92.274V15.5ZM88.2615 15.5H86.2554V14.5H88.2615V15.5ZM84.2491 15.5H82.243V14.5H84.2491V15.5ZM80.2368 15.5H78.2306V14.5H80.2368V15.5ZM76.2244 15.5H74.2182V14.5H76.2244V15.5ZM72.212 15.5H70.2058V14.5H72.212V15.5ZM68.1996 15.5H66.1934V14.5H68.1996V15.5ZM64.1872 15.5H62.181V14.5H64.1872V15.5ZM60.1748 15.5H58.1686V14.5H60.1748V15.5ZM56.1624 15.5H54.1562V14.5H56.1624V15.5ZM52.1501 15.5H50.1438V14.5H52.1501V15.5ZM48.1376 15.5H46.1315V14.5H48.1376V15.5ZM44.1252 15.5H42.1191V14.5H44.1252V15.5ZM40.1129 15.5H38.1067V14.5H40.1129V15.5ZM36.1005 15.5H34.0943V14.5H36.1005V15.5ZM32.0881 15.5H30.0819V14.5H32.0881V15.5ZM28.0757 15.5H26.0695V14.5H28.0757V15.5ZM24.0633 15.5H22.0571V14.5H24.0633V15.5ZM20.0509 15.5H18.0447V14.5H20.0509V15.5ZM16.0385 15.5H14.0323V14.5H16.0385V15.5ZM12.0261 15.5H10.02V14.5H12.0261V15.5ZM8.01373 15.5H6.00757V14.5H8.01373V15.5ZM4.00134 15.5H3V14.5H4.00134V15.5Z" fill="#1985D2"/>
</svg>
