<svg width="19" height="26" viewBox="0 0 19 26" fill="none" xmlns="http://www.w3.org/2000/svg">
<path d="M9.1 12.35C8.23805 12.35 7.4114 12.0076 6.8019 11.3981C6.19241 10.7886 5.85 9.96195 5.85 9.1C5.85 8.23805 6.19241 7.4114 6.8019 6.8019C7.4114 6.19241 8.23805 5.85 9.1 5.85C9.96195 5.85 10.7886 6.19241 11.3981 6.8019C12.0076 7.4114 12.35 8.23805 12.35 9.1C12.35 9.5268 12.2659 9.94941 12.1026 10.3437C11.9393 10.738 11.6999 11.0963 11.3981 11.3981C11.0963 11.6999 10.738 11.9393 10.3437 12.1026C9.94941 12.2659 9.5268 12.35 9.1 12.35ZM9.1 0C6.68653 0 4.37191 0.958747 2.66533 2.66533C0.958747 4.37191 0 6.68653 0 9.1C0 15.925 9.1 26 9.1 26C9.1 26 18.2 15.925 18.2 9.1C18.2 6.68653 17.2413 4.37191 15.5347 2.66533C13.8281 0.958747 11.5135 0 9.1 0Z" fill="#1985D2"/>
</svg>
