<svg width="50" height="20" viewBox="0 0 50 20" fill="none" xmlns="http://www.w3.org/2000/svg">
<path d="M28.4249 2.25104L28.5303 2.32162C29.7689 3.14263 30.657 4.26863 31.2412 5.62921C31.3815 5.84028 31.288 5.95762 31.0075 6.02791L30.5329 6.14987C29.4597 6.42737 28.6082 6.66073 27.5491 6.93823L26.9451 7.09613C26.7276 7.15014 26.6676 7.12747 26.4362 6.86305L26.4036 6.8255C26.0737 6.45023 25.8265 6.19955 25.3895 5.97578L25.3052 5.9341C23.8328 5.20699 22.4073 5.41805 21.0752 6.28603C19.486 7.31811 18.668 8.8429 18.6913 10.743C18.7148 12.6195 20.0001 14.1677 21.8464 14.4257C23.4355 14.6369 24.7676 14.0739 25.8193 12.8776C26.0297 12.6195 26.2166 12.338 26.4502 12.0096H21.9399C21.4492 12.0096 21.3324 11.7047 21.4959 11.306L21.5769 11.1145C21.8773 10.413 22.3432 9.40486 22.6457 8.82841L22.7117 8.70429C22.7925 8.56371 22.9566 8.37372 23.272 8.37372H30.793C31.1308 7.29957 31.6789 6.28462 32.4098 5.32424C34.1159 3.07234 36.1725 1.89939 38.9536 1.40687C41.3373 0.984556 43.581 1.21915 45.6141 2.60316C47.4604 3.86984 48.6056 5.58235 48.9094 7.83415C49.3066 11.001 48.3952 13.5813 46.2218 15.7863C44.6793 17.358 42.7863 18.3432 40.6128 18.7888C39.9819 18.9062 39.3509 18.9296 38.7433 19C36.6166 18.953 34.6768 18.3432 33.0409 16.9357C31.8903 15.9373 31.0977 14.7105 30.7039 13.282C30.4275 13.8418 30.0988 14.374 29.7223 14.8714C28.0396 17.0999 25.8428 18.4839 23.0618 18.8593C20.7715 19.1642 18.6447 18.7185 16.7751 17.311C15.0457 15.9974 14.0641 14.2615 13.807 12.1035C13.5032 9.54658 14.2511 7.24772 15.7935 5.23042C17.4529 3.04882 19.6496 1.6649 22.3373 1.17228C24.4934 0.780831 26.5594 1.0222 28.4249 2.25104ZM39.5424 5.61246L39.4676 5.62921C37.2942 6.12182 35.892 7.50575 35.3778 9.71078C34.9571 11.5405 35.8452 13.3936 37.5279 14.1443C38.8132 14.7073 40.0986 14.6369 41.3372 14.0035C43.1836 13.0418 44.1885 11.5405 44.3054 9.52314C44.2819 9.21826 44.2819 8.98358 44.2351 8.74899C43.8193 6.45287 41.7354 5.14272 39.5424 5.61246ZM11.914 9.89841C12.0074 9.89841 12.0542 9.9688 12.0542 10.0626L12.0074 10.6256C12.0074 10.7194 11.914 10.7898 11.8438 10.7898L6.74911 10.7664C6.65564 10.7664 6.63229 10.696 6.67898 10.6256L7.00617 10.0392C7.05295 9.9688 7.14642 9.89841 7.23989 9.89841H11.914ZM12.4281 7.74034C12.5216 7.74034 12.5683 7.81072 12.545 7.88111L12.358 8.44411C12.3346 8.53792 12.2412 8.58478 12.1477 8.58478L1.09347 8.60831C0.999997 8.60831 0.976653 8.56135 1.02334 8.49097L1.51412 7.85768C1.5609 7.78729 1.67771 7.74034 1.77118 7.74034H12.4281ZM13.6434 5.58226C13.7368 5.58226 13.7602 5.65264 13.7135 5.72303L13.3162 6.33289C13.2694 6.40328 13.1526 6.47366 13.0825 6.47366L4.62249 6.45014C4.52893 6.45014 4.50558 6.40328 4.55227 6.33289L5.04305 5.6996C5.08983 5.62921 5.20664 5.58226 5.30011 5.58226H13.6434Z" fill="white"/>
</svg>
