<svg width="195" height="770" viewBox="0 0 195 770" fill="none" xmlns="http://www.w3.org/2000/svg">
<g filter="url(#filter0_d_1891_5702)">
<rect x="11" y="763" width="756" height="40" rx="12" transform="rotate(-90 11 763)" fill="#F5F5F5"/>
</g>
<rect x="11" y="568" width="479" height="40" transform="rotate(-90 11 568)" fill="url(#paint0_linear_1891_5702)"/>
<path d="M1 566H61" stroke="#1985D2" stroke-width="2" stroke-linecap="round"/>
<path d="M1 88H61" stroke="#1985D2" stroke-width="2" stroke-linecap="round"/>
<g clip-path="url(#clip0_1891_5702)">
<path d="M66.6096 247.635C66.8203 247.833 66.8203 248.167 66.6096 248.365L57.174 257.211C56.8547 257.51 56.332 257.284 56.332 256.846L56.332 239.154C56.332 238.716 56.8547 238.49 57.174 238.789L66.6096 247.635Z" fill="#1985D2"/>
</g>
<path d="M79 263.68V259.424L79.864 260.192C78.2853 260.149 76.8027 259.915 75.416 259.488C74.0293 259.061 72.8453 258.475 71.864 257.728L73.272 253.824C74.2533 254.528 75.3627 255.083 76.6 255.488C77.8373 255.893 79.1387 256.096 80.504 256.096C81.976 256.096 83.032 255.861 83.672 255.392C84.312 254.901 84.632 254.315 84.632 253.632C84.632 253.056 84.408 252.587 83.96 252.224C83.512 251.861 82.7333 251.552 81.624 251.296L78.104 250.528C76.1413 250.101 74.68 249.376 73.72 248.352C72.76 247.307 72.28 245.952 72.28 244.288C72.28 243.008 72.5893 241.867 73.208 240.864C73.848 239.861 74.7227 239.051 75.832 238.432C76.9627 237.813 78.2853 237.44 79.8 237.312L79 237.824V233.76H82.808V237.824L82.008 237.248C83.2667 237.333 84.4933 237.589 85.688 238.016C86.8827 238.421 87.864 239.008 88.632 239.776L87.224 243.424C86.4347 242.741 85.5173 242.229 84.472 241.888C83.4267 241.525 82.296 241.344 81.08 241.344C79.8 241.344 78.7973 241.6 78.072 242.112C77.368 242.624 77.016 243.285 77.016 244.096C77.016 244.693 77.2293 245.184 77.656 245.568C78.104 245.931 78.8613 246.229 79.928 246.464L83.416 247.232C85.4427 247.659 86.9467 248.373 87.928 249.376C88.9307 250.379 89.432 251.68 89.432 253.28C89.432 254.539 89.1227 255.659 88.504 256.64C87.8853 257.6 87.032 258.379 85.944 258.976C84.856 259.573 83.5867 259.957 82.136 260.128L82.808 259.392V263.68H79ZM92.5235 260V256.32L99.6915 248.864C100.588 247.925 101.238 247.093 101.644 246.368C102.049 245.643 102.252 244.896 102.252 244.128C102.252 243.168 101.942 242.443 101.324 241.952C100.705 241.461 99.8195 241.216 98.6675 241.216C97.7075 241.216 96.7582 241.397 95.8195 241.76C94.9022 242.101 93.9955 242.635 93.0995 243.36L91.5315 239.712C92.4702 238.901 93.6328 238.261 95.0195 237.792C96.4062 237.323 97.8462 237.088 99.3395 237.088C101.857 237.088 103.788 237.653 105.132 238.784C106.476 239.893 107.148 241.483 107.148 243.552C107.148 244.939 106.828 246.261 106.188 247.52C105.548 248.779 104.513 250.112 103.084 251.52L97.3235 257.184V255.904H108.012V260H92.5235ZM118.975 260.352C117.972 260.352 116.98 260.245 115.999 260.032C115.018 259.819 114.1 259.531 113.247 259.168C112.394 258.784 111.679 258.336 111.103 257.824L112.671 254.112C113.631 254.795 114.634 255.317 115.679 255.68C116.724 256.043 117.791 256.224 118.879 256.224C120.116 256.224 121.076 255.936 121.759 255.36C122.463 254.763 122.815 253.952 122.815 252.928C122.815 251.904 122.484 251.083 121.823 250.464C121.162 249.845 120.255 249.536 119.103 249.536C118.292 249.536 117.535 249.685 116.831 249.984C116.148 250.283 115.53 250.741 114.975 251.36H111.775V237.44H126.175V241.504H116.479V247.616H115.327C115.86 246.955 116.564 246.443 117.439 246.08C118.314 245.717 119.295 245.536 120.383 245.536C121.834 245.536 123.092 245.845 124.159 246.464C125.247 247.061 126.09 247.904 126.687 248.992C127.284 250.059 127.583 251.317 127.583 252.768C127.583 254.261 127.231 255.584 126.527 256.736C125.844 257.867 124.852 258.752 123.551 259.392C122.271 260.032 120.746 260.352 118.975 260.352ZM132.435 264.608L130.547 263.104C131.293 262.357 131.827 261.653 132.147 260.992C132.467 260.331 132.627 259.616 132.627 258.848L133.651 260H130.131V254.88H135.315V258.176C135.315 259.392 135.101 260.501 134.675 261.504C134.248 262.507 133.501 263.541 132.435 264.608ZM146.475 260.352C143.766 260.352 141.675 259.339 140.203 257.312C138.752 255.264 138.027 252.384 138.027 248.672C138.027 244.896 138.752 242.027 140.203 240.064C141.675 238.08 143.766 237.088 146.475 237.088C149.206 237.088 151.296 238.08 152.747 240.064C154.198 242.027 154.923 244.885 154.923 248.64C154.923 252.373 154.198 255.264 152.747 257.312C151.296 259.339 149.206 260.352 146.475 260.352ZM146.475 256.32C147.712 256.32 148.63 255.712 149.227 254.496C149.846 253.259 150.155 251.307 150.155 248.64C150.155 245.973 149.846 244.053 149.227 242.88C148.63 241.707 147.712 241.12 146.475 241.12C145.238 241.12 144.31 241.707 143.691 242.88C143.094 244.053 142.795 245.963 142.795 248.608C142.795 251.296 143.104 253.259 143.723 254.496C144.342 255.712 145.259 256.32 146.475 256.32ZM165.663 260.352C162.953 260.352 160.863 259.339 159.391 257.312C157.94 255.264 157.215 252.384 157.215 248.672C157.215 244.896 157.94 242.027 159.391 240.064C160.863 238.08 162.953 237.088 165.663 237.088C168.393 237.088 170.484 238.08 171.935 240.064C173.385 242.027 174.111 244.885 174.111 248.64C174.111 252.373 173.385 255.264 171.935 257.312C170.484 259.339 168.393 260.352 165.663 260.352ZM165.663 256.32C166.9 256.32 167.817 255.712 168.415 254.496C169.033 253.259 169.343 251.307 169.343 248.64C169.343 245.973 169.033 244.053 168.415 242.88C167.817 241.707 166.9 241.12 165.663 241.12C164.425 241.12 163.497 241.707 162.879 242.88C162.281 244.053 161.983 245.963 161.983 248.608C161.983 251.296 162.292 253.259 162.911 254.496C163.529 255.712 164.447 256.32 165.663 256.32ZM184.85 260.352C182.141 260.352 180.05 259.339 178.578 257.312C177.127 255.264 176.402 252.384 176.402 248.672C176.402 244.896 177.127 242.027 178.578 240.064C180.05 238.08 182.141 237.088 184.85 237.088C187.581 237.088 189.671 238.08 191.122 240.064C192.573 242.027 193.298 244.885 193.298 248.64C193.298 252.373 192.573 255.264 191.122 257.312C189.671 259.339 187.581 260.352 184.85 260.352ZM184.85 256.32C186.087 256.32 187.005 255.712 187.602 254.496C188.221 253.259 188.53 251.307 188.53 248.64C188.53 245.973 188.221 244.053 187.602 242.88C187.005 241.707 186.087 241.12 184.85 241.12C183.613 241.12 182.685 241.707 182.066 242.88C181.469 244.053 181.17 245.963 181.17 248.608C181.17 251.296 181.479 253.259 182.098 254.496C182.717 255.712 183.634 256.32 184.85 256.32Z" fill="#1985D2"/>
<path d="M77.456 577.76V574.664L77.936 575.12C76.768 575.104 75.672 574.936 74.648 574.616C73.624 574.28 72.728 573.792 71.96 573.152L72.776 571.184C73.544 571.792 74.36 572.248 75.224 572.552C76.104 572.856 77.096 573.008 78.2 573.008C79.496 573.008 80.448 572.768 81.056 572.288C81.68 571.792 81.992 571.168 81.992 570.416C81.992 569.792 81.768 569.296 81.32 568.928C80.888 568.56 80.152 568.264 79.112 568.04L76.64 567.512C75.168 567.192 74.08 566.664 73.376 565.928C72.672 565.192 72.32 564.216 72.32 563C72.32 562.056 72.544 561.216 72.992 560.48C73.456 559.744 74.096 559.16 74.912 558.728C75.744 558.296 76.712 558.048 77.816 557.984L77.456 558.32V555.32H79.424V558.32L79.016 557.984C79.912 558.016 80.8 558.2 81.68 558.536C82.56 558.856 83.304 559.336 83.912 559.976L83.12 561.872C82.496 561.264 81.792 560.816 81.008 560.528C80.224 560.224 79.36 560.072 78.416 560.072C77.264 560.072 76.352 560.336 75.68 560.864C75.024 561.392 74.696 562.08 74.696 562.928C74.696 563.568 74.904 564.088 75.32 564.488C75.736 564.888 76.424 565.192 77.384 565.4L79.856 565.928C81.392 566.248 82.536 566.76 83.288 567.464C84.04 568.168 84.416 569.104 84.416 570.272C84.416 571.184 84.184 571.992 83.72 572.696C83.256 573.384 82.616 573.936 81.8 574.352C81 574.752 80.072 575 79.016 575.096L79.424 574.64V577.76H77.456ZM87.3826 575V573.152L93.1906 567.08C93.9426 566.296 94.5026 565.56 94.8706 564.872C95.2386 564.184 95.4226 563.472 95.4226 562.736C95.4226 561.824 95.1346 561.136 94.5586 560.672C93.9986 560.208 93.1826 559.976 92.1106 559.976C91.2626 559.976 90.4626 560.128 89.7106 560.432C88.9746 560.736 88.2626 561.2 87.5746 561.824L86.7106 559.928C87.3826 559.304 88.2146 558.808 89.2066 558.44C90.2146 558.056 91.2786 557.864 92.3986 557.864C94.1586 557.864 95.5106 558.264 96.4546 559.064C97.4146 559.864 97.8946 561.008 97.8946 562.496C97.8946 563.552 97.6386 564.568 97.1266 565.544C96.6146 566.504 95.8466 567.496 94.8226 568.52L89.8066 573.584V572.912H98.5906V575H87.3826ZM106.981 575.216C105.029 575.216 103.525 574.472 102.469 572.984C101.429 571.48 100.909 569.328 100.909 566.528C100.909 563.68 101.429 561.528 102.469 560.072C103.525 558.6 105.029 557.864 106.981 557.864C108.949 557.864 110.453 558.6 111.493 560.072C112.533 561.528 113.053 563.672 113.053 566.504C113.053 569.32 112.525 571.48 111.469 572.984C110.429 574.472 108.933 575.216 106.981 575.216ZM106.981 573.128C108.213 573.128 109.125 572.592 109.717 571.52C110.325 570.448 110.629 568.776 110.629 566.504C110.629 564.216 110.325 562.552 109.717 561.512C109.125 560.456 108.213 559.928 106.981 559.928C105.765 559.928 104.853 560.456 104.245 561.512C103.637 562.552 103.333 564.208 103.333 566.48C103.333 568.768 103.637 570.448 104.245 571.52C104.869 572.592 105.781 573.128 106.981 573.128ZM116.812 577.952L115.756 577.136C116.22 576.64 116.532 576.184 116.692 575.768C116.868 575.352 116.956 574.92 116.956 574.472L117.484 575H115.588V572.144H118.444V574.088C118.444 574.808 118.324 575.472 118.084 576.08C117.844 576.704 117.42 577.328 116.812 577.952ZM127.067 575.216C125.115 575.216 123.611 574.472 122.555 572.984C121.515 571.48 120.995 569.328 120.995 566.528C120.995 563.68 121.515 561.528 122.555 560.072C123.611 558.6 125.115 557.864 127.067 557.864C129.035 557.864 130.539 558.6 131.579 560.072C132.619 561.528 133.139 563.672 133.139 566.504C133.139 569.32 132.611 571.48 131.555 572.984C130.515 574.472 129.019 575.216 127.067 575.216ZM127.067 573.128C128.299 573.128 129.211 572.592 129.803 571.52C130.411 570.448 130.715 568.776 130.715 566.504C130.715 564.216 130.411 562.552 129.803 561.512C129.211 560.456 128.299 559.928 127.067 559.928C125.851 559.928 124.939 560.456 124.331 561.512C123.723 562.552 123.419 564.208 123.419 566.48C123.419 568.768 123.723 570.448 124.331 571.52C124.955 572.592 125.867 573.128 127.067 573.128ZM141.458 575.216C139.506 575.216 138.002 574.472 136.946 572.984C135.906 571.48 135.386 569.328 135.386 566.528C135.386 563.68 135.906 561.528 136.946 560.072C138.002 558.6 139.506 557.864 141.458 557.864C143.426 557.864 144.93 558.6 145.97 560.072C147.01 561.528 147.53 563.672 147.53 566.504C147.53 569.32 147.002 571.48 145.946 572.984C144.906 574.472 143.41 575.216 141.458 575.216ZM141.458 573.128C142.69 573.128 143.602 572.592 144.194 571.52C144.802 570.448 145.106 568.776 145.106 566.504C145.106 564.216 144.802 562.552 144.194 561.512C143.602 560.456 142.69 559.928 141.458 559.928C140.242 559.928 139.33 560.456 138.722 561.512C138.114 562.552 137.81 564.208 137.81 566.48C137.81 568.768 138.114 570.448 138.722 571.52C139.346 572.592 140.258 573.128 141.458 573.128ZM155.848 575.216C153.896 575.216 152.392 574.472 151.336 572.984C150.296 571.48 149.776 569.328 149.776 566.528C149.776 563.68 150.296 561.528 151.336 560.072C152.392 558.6 153.896 557.864 155.848 557.864C157.816 557.864 159.32 558.6 160.36 560.072C161.4 561.528 161.92 563.672 161.92 566.504C161.92 569.32 161.392 571.48 160.336 572.984C159.296 574.472 157.8 575.216 155.848 575.216ZM155.848 573.128C157.08 573.128 157.992 572.592 158.584 571.52C159.192 570.448 159.496 568.776 159.496 566.504C159.496 564.216 159.192 562.552 158.584 561.512C157.992 560.456 157.08 559.928 155.848 559.928C154.632 559.928 153.72 560.456 153.112 561.512C152.504 562.552 152.2 564.208 152.2 566.48C152.2 568.768 152.504 570.448 153.112 571.52C153.736 572.592 154.648 573.128 155.848 573.128Z" fill="#303030"/>
<path d="M77.456 99.76V96.664L77.936 97.12C76.768 97.104 75.672 96.936 74.648 96.616C73.624 96.28 72.728 95.792 71.96 95.152L72.776 93.184C73.544 93.792 74.36 94.248 75.224 94.552C76.104 94.856 77.096 95.008 78.2 95.008C79.496 95.008 80.448 94.768 81.056 94.288C81.68 93.792 81.992 93.168 81.992 92.416C81.992 91.792 81.768 91.296 81.32 90.928C80.888 90.56 80.152 90.264 79.112 90.04L76.64 89.512C75.168 89.192 74.08 88.664 73.376 87.928C72.672 87.192 72.32 86.216 72.32 85C72.32 84.056 72.544 83.216 72.992 82.48C73.456 81.744 74.096 81.16 74.912 80.728C75.744 80.296 76.712 80.048 77.816 79.984L77.456 80.32V77.32H79.424V80.32L79.016 79.984C79.912 80.016 80.8 80.2 81.68 80.536C82.56 80.856 83.304 81.336 83.912 81.976L83.12 83.872C82.496 83.264 81.792 82.816 81.008 82.528C80.224 82.224 79.36 82.072 78.416 82.072C77.264 82.072 76.352 82.336 75.68 82.864C75.024 83.392 74.696 84.08 74.696 84.928C74.696 85.568 74.904 86.088 75.32 86.488C75.736 86.888 76.424 87.192 77.384 87.4L79.856 87.928C81.392 88.248 82.536 88.76 83.288 89.464C84.04 90.168 84.416 91.104 84.416 92.272C84.416 93.184 84.184 93.992 83.72 94.696C83.256 95.384 82.616 95.936 81.8 96.352C81 96.752 80.072 97 79.016 97.096L79.424 96.64V99.76H77.456ZM92.4226 97.216C91.2706 97.216 90.1666 97.048 89.1106 96.712C88.0546 96.36 87.1746 95.864 86.4706 95.224L87.3346 93.328C88.1186 93.936 88.9186 94.384 89.7346 94.672C90.5506 94.96 91.4226 95.104 92.3506 95.104C93.5346 95.104 94.4306 94.856 95.0386 94.36C95.6626 93.864 95.9746 93.152 95.9746 92.224C95.9746 91.312 95.6626 90.624 95.0386 90.16C94.4306 89.68 93.5266 89.44 92.3266 89.44H89.7106V87.424H92.1346C93.1586 87.424 93.9746 87.168 94.5826 86.656C95.1906 86.128 95.4946 85.416 95.4946 84.52C95.4946 83.704 95.2146 83.08 94.6546 82.648C94.0946 82.2 93.2946 81.976 92.2546 81.976C90.4946 81.976 88.9506 82.592 87.6226 83.824L86.7826 81.928C87.4386 81.272 88.2706 80.768 89.2786 80.416C90.2866 80.048 91.3426 79.864 92.4466 79.864C94.1426 79.864 95.4786 80.256 96.4546 81.04C97.4306 81.808 97.9186 82.88 97.9186 84.256C97.9186 85.296 97.6226 86.184 97.0306 86.92C96.4546 87.656 95.6626 88.144 94.6546 88.384V88.12C95.8546 88.312 96.7746 88.792 97.4146 89.56C98.0706 90.312 98.3986 91.256 98.3986 92.392C98.3986 93.896 97.8626 95.08 96.7906 95.944C95.7346 96.792 94.2786 97.216 92.4226 97.216ZM106.981 97.216C105.029 97.216 103.525 96.472 102.469 94.984C101.429 93.48 100.909 91.328 100.909 88.528C100.909 85.68 101.429 83.528 102.469 82.072C103.525 80.6 105.029 79.864 106.981 79.864C108.949 79.864 110.453 80.6 111.493 82.072C112.533 83.528 113.053 85.672 113.053 88.504C113.053 91.32 112.525 93.48 111.469 94.984C110.429 96.472 108.933 97.216 106.981 97.216ZM106.981 95.128C108.213 95.128 109.125 94.592 109.717 93.52C110.325 92.448 110.629 90.776 110.629 88.504C110.629 86.216 110.325 84.552 109.717 83.512C109.125 82.456 108.213 81.928 106.981 81.928C105.765 81.928 104.853 82.456 104.245 83.512C103.637 84.552 103.333 86.208 103.333 88.48C103.333 90.768 103.637 92.448 104.245 93.52C104.869 94.592 105.781 95.128 106.981 95.128ZM116.812 99.952L115.756 99.136C116.22 98.64 116.532 98.184 116.692 97.768C116.868 97.352 116.956 96.92 116.956 96.472L117.484 97H115.588V94.144H118.444V96.088C118.444 96.808 118.324 97.472 118.084 98.08C117.844 98.704 117.42 99.328 116.812 99.952ZM127.067 97.216C125.115 97.216 123.611 96.472 122.555 94.984C121.515 93.48 120.995 91.328 120.995 88.528C120.995 85.68 121.515 83.528 122.555 82.072C123.611 80.6 125.115 79.864 127.067 79.864C129.035 79.864 130.539 80.6 131.579 82.072C132.619 83.528 133.139 85.672 133.139 88.504C133.139 91.32 132.611 93.48 131.555 94.984C130.515 96.472 129.019 97.216 127.067 97.216ZM127.067 95.128C128.299 95.128 129.211 94.592 129.803 93.52C130.411 92.448 130.715 90.776 130.715 88.504C130.715 86.216 130.411 84.552 129.803 83.512C129.211 82.456 128.299 81.928 127.067 81.928C125.851 81.928 124.939 82.456 124.331 83.512C123.723 84.552 123.419 86.208 123.419 88.48C123.419 90.768 123.723 92.448 124.331 93.52C124.955 94.592 125.867 95.128 127.067 95.128ZM141.458 97.216C139.506 97.216 138.002 96.472 136.946 94.984C135.906 93.48 135.386 91.328 135.386 88.528C135.386 85.68 135.906 83.528 136.946 82.072C138.002 80.6 139.506 79.864 141.458 79.864C143.426 79.864 144.93 80.6 145.97 82.072C147.01 83.528 147.53 85.672 147.53 88.504C147.53 91.32 147.002 93.48 145.946 94.984C144.906 96.472 143.41 97.216 141.458 97.216ZM141.458 95.128C142.69 95.128 143.602 94.592 144.194 93.52C144.802 92.448 145.106 90.776 145.106 88.504C145.106 86.216 144.802 84.552 144.194 83.512C143.602 82.456 142.69 81.928 141.458 81.928C140.242 81.928 139.33 82.456 138.722 83.512C138.114 84.552 137.81 86.208 137.81 88.48C137.81 90.768 138.114 92.448 138.722 93.52C139.346 94.592 140.258 95.128 141.458 95.128ZM155.848 97.216C153.896 97.216 152.392 96.472 151.336 94.984C150.296 93.48 149.776 91.328 149.776 88.528C149.776 85.68 150.296 83.528 151.336 82.072C152.392 80.6 153.896 79.864 155.848 79.864C157.816 79.864 159.32 80.6 160.36 82.072C161.4 83.528 161.92 85.672 161.92 88.504C161.92 91.32 161.392 93.48 160.336 94.984C159.296 96.472 157.8 97.216 155.848 97.216ZM155.848 95.128C157.08 95.128 157.992 94.592 158.584 93.52C159.192 92.448 159.496 90.776 159.496 88.504C159.496 86.216 159.192 84.552 158.584 83.512C157.992 82.456 157.08 81.928 155.848 81.928C154.632 81.928 153.72 82.456 153.112 83.512C152.504 84.552 152.2 86.208 152.2 88.48C152.2 90.768 152.504 92.448 153.112 93.52C153.736 94.592 154.648 95.128 155.848 95.128Z" fill="#303030"/>
<defs>
<filter id="filter0_d_1891_5702" x="3" y="-1" width="56.0001" height="772" filterUnits="userSpaceOnUse" color-interpolation-filters="sRGB">
<feFlood flood-opacity="0" result="BackgroundImageFix"/>
<feColorMatrix in="SourceAlpha" type="matrix" values="0 0 0 0 0 0 0 0 0 0 0 0 0 0 0 0 0 0 127 0" result="hardAlpha"/>
<feOffset/>
<feGaussianBlur stdDeviation="4"/>
<feComposite in2="hardAlpha" operator="out"/>
<feColorMatrix type="matrix" values="0 0 0 0 0 0 0 0 0 0 0 0 0 0 0 0 0 0 0.12 0"/>
<feBlend mode="normal" in2="BackgroundImageFix" result="effect1_dropShadow_1891_5702"/>
<feBlend mode="normal" in="SourceGraphic" in2="effect1_dropShadow_1891_5702" result="shape"/>
</filter>
<linearGradient id="paint0_linear_1891_5702" x1="-3.68632" y1="588" x2="502.427" y2="588" gradientUnits="userSpaceOnUse">
<stop stop-color="#1985D2" stop-opacity="0"/>
<stop offset="0.0001" stop-color="#1985D2" stop-opacity="0"/>
<stop offset="0.485" stop-color="#1985D2"/>
<stop offset="1" stop-color="#1985D2" stop-opacity="0.030728"/>
</linearGradient>
<clipPath id="clip0_1891_5702">
<rect width="20" height="20" fill="white" transform="translate(51 258) rotate(-90)"/>
</clipPath>
</defs>
</svg>
