<svg width="64" height="64" viewBox="0 0 64 64" fill="none" xmlns="http://www.w3.org/2000/svg">
<path d="M16 45.3333C16 40 26.6667 37.0667 32 37.0667C37.3333 37.0667 48 40 48 45.3333V48H16M40 24C40 26.1217 39.1571 28.1566 37.6569 29.6569C36.1566 31.1571 34.1217 32 32 32C29.8783 32 27.8434 31.1571 26.3431 29.6569C24.8429 28.1566 24 26.1217 24 24C24 21.8783 24.8429 19.8434 26.3431 18.3431C27.8434 16.8429 29.8783 16 32 16C34.1217 16 36.1566 16.8429 37.6569 18.3431C39.1571 19.8434 40 21.8783 40 24ZM8 13.3333V50.6667C8 52.0812 8.5619 53.4377 9.5621 54.4379C10.5623 55.4381 11.9188 56 13.3333 56H50.6667C52.0812 56 53.4377 55.4381 54.4379 54.4379C55.4381 53.4377 56 52.0812 56 50.6667V13.3333C56 11.9188 55.4381 10.5623 54.4379 9.5621C53.4377 8.5619 52.0812 8 50.6667 8H13.3333C11.9188 8 10.5623 8.5619 9.5621 9.5621C8.5619 10.5623 8 11.9188 8 13.3333Z" fill="white"/>
</svg>
