<svg xmlns="http://www.w3.org/2000/svg" width="26.822" height="32.927" viewBox="0 0 26.822 32.927">
  <path id="Path_35508" data-name="Path 35508" d="M44.952,24.594c-1.3,0-3.314-1.479-5.434-1.425A8.024,8.024,0,0,0,32.712,27.3c-2.9,5.042-.748,12.489,2.085,16.587,1.39,2,3.029,4.24,5.2,4.169,2.085-.089,2.868-1.354,5.4-1.354,2.512,0,3.225,1.354,5.434,1.3,2.245-.036,3.67-2.031,5.042-4.044a17.906,17.906,0,0,0,2.281-4.686,7.268,7.268,0,0,1-4.419-6.663A7.391,7.391,0,0,1,57.3,26.358a7.713,7.713,0,0,0-6.022-3.26C48.533,22.883,46.235,24.594,44.952,24.594Zm4.632-4.2a7.2,7.2,0,0,0,1.71-5.256,7.408,7.408,0,0,0-4.846,2.494,6.889,6.889,0,0,0-1.746,5.1A6.142,6.142,0,0,0,49.584,20.389Z" transform="translate(-31.332 -15.133)" fill="#fff"/>
</svg>
