<svg width="24" height="24" viewBox="0 0 24 24" fill="none" xmlns="http://www.w3.org/2000/svg">
<path fill-rule="evenodd" clip-rule="evenodd" d="M16.1 13.359L16.556 12.906C17.186 12.28 18.167 12.151 18.973 12.589L20.883 13.628C22.11 14.295 22.381 15.93 21.422 16.883L20.002 18.295C19.64 18.655 19.192 18.917 18.676 18.965C17.484 19.076 15.031 19.016 12.137 17.322L16.1 13.359ZM10.19 7.48298L10.477 7.19698C11.184 6.49498 11.251 5.36698 10.634 4.54298L9.374 2.85998C8.61 1.83998 7.135 1.70498 6.26 2.57498L4.69 4.13498C4.257 4.56698 3.967 5.12498 4.002 5.74498C4.067 6.88498 4.455 8.96498 6.151 11.521L10.19 7.48298Z" fill="#41ACF9"/>
<path opacity="0.6" d="M12.063 11.4974C9.117 8.56842 10.183 7.48942 10.19 7.48242L6.151 11.5224C6.818 12.5264 7.686 13.6034 8.815 14.7264C9.955 15.8604 11.075 16.7014 12.137 17.3224L16.1 13.3604C16.1 13.3604 15.018 14.4364 12.063 11.4984" fill="#41ACF9"/>
</svg>
